solid STL generated by MeshLab
  facet normal -8.660263e-01 -1.607811e-07  4.999985e-01
    outer loop
      vertex  -1.155044e+00 -5.000000e+00  3.250000e+00
      vertex   2.536850e-01 -4.999999e+00  5.690000e+00
      vertex   2.536831e-01  5.000000e+00  5.690000e+00
    endloop
  endfacet
  facet normal -8.660262e-01 -1.651814e-07  4.999985e-01
    outer loop
      vertex  -1.155044e+00 -5.000000e+00  3.250000e+00
      vertex   2.536831e-01  5.000000e+00  5.690000e+00
      vertex  -1.155046e+00  5.000000e+00  3.250000e+00
    endloop
  endfacet
  facet normal  8.660252e-01  2.707889e-07 -5.000004e-01
    outer loop
      vertex  -1.328249e+00 -5.000000e+00  3.350000e+00
      vertex   8.048391e-02  4.999998e+00  5.790000e+00
      vertex   8.048701e-02 -4.999999e+00  5.790000e+00
    endloop
  endfacet
  facet normal  8.660256e-01  8.259063e-08 -4.999998e-01
    outer loop
      vertex  -1.328249e+00 -5.000000e+00  3.350000e+00
      vertex  -1.328250e+00  5.000000e+00  3.350000e+00
      vertex   8.048391e-02  4.999998e+00  5.790000e+00
    endloop
  endfacet
  facet normal -1.692430e-07  1.000000e+00 -2.931375e-07
    outer loop
      vertex  -1.155044e+00 -5.000000e+00  3.250000e+00
      vertex  -1.328249e+00 -5.000000e+00  3.350000e+00
      vertex   8.048701e-02 -4.999999e+00  5.790000e+00
    endloop
  endfacet
  facet normal -1.692483e-07  1.000000e+00 -2.931349e-07
    outer loop
      vertex  -1.155044e+00 -5.000000e+00  3.250000e+00
      vertex   8.048701e-02 -4.999999e+00  5.790000e+00
      vertex   2.536850e-01 -4.999999e+00  5.690000e+00
    endloop
  endfacet
  facet normal -5.000150e-01 -1.555357e-07 -8.660167e-01
    outer loop
      vertex   2.536850e-01 -4.999999e+00  5.690000e+00
      vertex   8.048701e-02 -4.999999e+00  5.790000e+00
      vertex   8.048391e-02  4.999998e+00  5.790000e+00
    endloop
  endfacet
  facet normal -5.000125e-01 -9.536981e-08 -8.660183e-01
    outer loop
      vertex   2.536850e-01 -4.999999e+00  5.690000e+00
      vertex   8.048391e-02  4.999998e+00  5.790000e+00
      vertex   2.536831e-01  5.000000e+00  5.690000e+00
    endloop
  endfacet
  facet normal  7.920782e-06 -1.000000e+00 -5.354763e-06
    outer loop
      vertex   2.536831e-01  5.000000e+00  5.690000e+00
      vertex   8.048391e-02  4.999998e+00  5.790000e+00
      vertex  -1.328250e+00  5.000000e+00  3.350000e+00
    endloop
  endfacet
  facet normal  0.000000e+00 -1.000000e+00  0.000000e+00
    outer loop
      vertex   2.536831e-01  5.000000e+00  5.690000e+00
      vertex  -1.328250e+00  5.000000e+00  3.350000e+00
      vertex  -1.155046e+00  5.000000e+00  3.250000e+00
    endloop
  endfacet
  facet normal  5.000021e-01  4.749770e-08  8.660242e-01
    outer loop
      vertex  -1.155046e+00  5.000000e+00  3.250000e+00
      vertex  -1.328250e+00  5.000000e+00  3.350000e+00
      vertex  -1.328249e+00 -5.000000e+00  3.350000e+00
    endloop
  endfacet
  facet normal  5.000001e-01  9.536744e-08  8.660254e-01
    outer loop
      vertex  -1.155046e+00  5.000000e+00  3.250000e+00
      vertex  -1.328249e+00 -5.000000e+00  3.350000e+00
      vertex  -1.155044e+00 -5.000000e+00  3.250000e+00
    endloop
  endfacet
  facet normal -0.000000e+00  0.000000e+00  1.000000e+00
    outer loop
      vertex  -1.155044e+00 -2.599999e+00  2.500000e-01
      vertex  -9.550450e-01 -2.600000e+00  2.500000e-01
      vertex  -9.550450e-01 -2.400000e+00  2.500000e-01
    endloop
  endfacet
  facet normal  0.000000e+00 -0.000000e+00  1.000000e+00
    outer loop
      vertex  -1.155044e+00 -2.599999e+00  2.500000e-01
      vertex  -9.550450e-01 -2.400000e+00  2.500000e-01
      vertex  -1.155045e+00 -2.399999e+00  2.500000e-01
    endloop
  endfacet
  facet normal -8.660263e-01  0.000000e+00  4.999985e-01
    outer loop
      vertex  -1.155044e+00 -2.599999e+00  3.250000e+00
      vertex  -9.550450e-01 -2.600000e+00  3.596410e+00
      vertex  -9.550450e-01 -2.400000e+00  3.596410e+00
    endloop
  endfacet
  facet normal -8.660253e-01 -4.129529e-06  5.000002e-01
    outer loop
      vertex  -1.155044e+00 -2.599999e+00  3.250000e+00
      vertex  -9.550450e-01 -2.400000e+00  3.596410e+00
      vertex  -1.155045e+00 -2.399999e+00  3.250000e+00
    endloop
  endfacet
  facet normal -4.768393e-06 -1.000000e+00  0.000000e+00
    outer loop
      vertex  -1.155044e+00 -2.599999e+00  2.500000e-01
      vertex  -9.550450e-01 -2.600000e+00  2.500000e-01
      vertex  -9.550450e-01 -2.600000e+00  3.596410e+00
    endloop
  endfacet
  facet normal -4.768393e-06 -1.000000e+00  0.000000e+00
    outer loop
      vertex  -1.155044e+00 -2.599999e+00  2.500000e-01
      vertex  -9.550450e-01 -2.600000e+00  3.596410e+00
      vertex  -1.155044e+00 -2.599999e+00  3.250000e+00
    endloop
  endfacet
  facet normal  1.000000e+00  0.000000e+00  0.000000e+00
    outer loop
      vertex  -9.550450e-01 -2.600000e+00  2.500000e-01
      vertex  -9.550450e-01 -2.400000e+00  2.500000e-01
      vertex  -9.550450e-01 -2.400000e+00  3.596410e+00
    endloop
  endfacet
  facet normal  1.000000e+00  0.000000e+00  0.000000e+00
    outer loop
      vertex  -9.550450e-01 -2.600000e+00  2.500000e-01
      vertex  -9.550450e-01 -2.400000e+00  3.596410e+00
      vertex  -9.550450e-01 -2.600000e+00  3.596410e+00
    endloop
  endfacet
  facet normal  5.960463e-06  1.000000e+00  0.000000e+00
    outer loop
      vertex  -9.550450e-01 -2.400000e+00  2.500000e-01
      vertex  -1.155045e+00 -2.399999e+00  2.500000e-01
      vertex  -1.155045e+00 -2.399999e+00  3.250000e+00
    endloop
  endfacet
  facet normal  5.960463e-06  1.000000e+00 -0.000000e+00
    outer loop
      vertex  -9.550450e-01 -2.400000e+00  2.500000e-01
      vertex  -1.155045e+00 -2.399999e+00  3.250000e+00
      vertex  -9.550450e-01 -2.400000e+00  3.596410e+00
    endloop
  endfacet
  facet normal -1.000000e+00 -4.768371e-06  0.000000e+00
    outer loop
      vertex  -1.155045e+00 -2.399999e+00  2.500000e-01
      vertex  -1.155044e+00 -2.599999e+00  2.500000e-01
      vertex  -1.155044e+00 -2.599999e+00  3.250000e+00
    endloop
  endfacet
  facet normal -1.000000e+00 -4.768371e-06  0.000000e+00
    outer loop
      vertex  -1.155045e+00 -2.399999e+00  2.500000e-01
      vertex  -1.155044e+00 -2.599999e+00  3.250000e+00
      vertex  -1.155045e+00 -2.399999e+00  3.250000e+00
    endloop
  endfacet
  facet normal  0.000000e+00  0.000000e+00  1.000000e+00
    outer loop
      vertex  -1.155046e+00  2.400000e+00  2.500000e-01
      vertex  -9.550450e-01  2.400001e+00  2.500000e-01
      vertex  -9.550450e-01  2.600000e+00  2.500000e-01
    endloop
  endfacet
  facet normal  0.000000e+00  0.000000e+00  1.000000e+00
    outer loop
      vertex  -1.155046e+00  2.400000e+00  2.500000e-01
      vertex  -9.550450e-01  2.600000e+00  2.500000e-01
      vertex  -1.155044e+00  2.600000e+00  2.500000e-01
    endloop
  endfacet
  facet normal -8.660243e-01  0.000000e+00  5.000020e-01
    outer loop
      vertex  -1.155046e+00  2.400000e+00  3.250000e+00
      vertex  -9.550450e-01  2.400001e+00  3.596410e+00
      vertex  -9.550450e-01  2.600000e+00  3.596410e+00
    endloop
  endfacet
  facet normal -8.660263e-01  8.259079e-06  4.999985e-01
    outer loop
      vertex  -1.155046e+00  2.400000e+00  3.250000e+00
      vertex  -9.550450e-01  2.600000e+00  3.596410e+00
      vertex  -1.155044e+00  2.600000e+00  3.250000e+00
    endloop
  endfacet
  facet normal  4.768348e-06 -1.000000e+00  0.000000e+00
    outer loop
      vertex  -1.155046e+00  2.400000e+00  2.500000e-01
      vertex  -9.550450e-01  2.400001e+00  2.500000e-01
      vertex  -9.550450e-01  2.400001e+00  3.596410e+00
    endloop
  endfacet
  facet normal  4.768348e-06 -1.000000e+00  0.000000e+00
    outer loop
      vertex  -1.155046e+00  2.400000e+00  2.500000e-01
      vertex  -9.550450e-01  2.400001e+00  3.596410e+00
      vertex  -1.155046e+00  2.400000e+00  3.250000e+00
    endloop
  endfacet
  facet normal  1.000000e+00  0.000000e+00  0.000000e+00
    outer loop
      vertex  -9.550450e-01  2.400001e+00  2.500000e-01
      vertex  -9.550450e-01  2.600000e+00  2.500000e-01
      vertex  -9.550450e-01  2.600000e+00  3.596410e+00
    endloop
  endfacet
  facet normal  1.000000e+00  0.000000e+00  0.000000e+00
    outer loop
      vertex  -9.550450e-01  2.400001e+00  2.500000e-01
      vertex  -9.550450e-01  2.600000e+00  3.596410e+00
      vertex  -9.550450e-01  2.400001e+00  3.596410e+00
    endloop
  endfacet
  facet normal  0.000000e+00  1.000000e+00  0.000000e+00
    outer loop
      vertex  -9.550450e-01  2.600000e+00  2.500000e-01
      vertex  -1.155044e+00  2.600000e+00  2.500000e-01
      vertex  -1.155044e+00  2.600000e+00  3.250000e+00
    endloop
  endfacet
  facet normal  0.000000e+00  1.000000e+00 -0.000000e+00
    outer loop
      vertex  -9.550450e-01  2.600000e+00  2.500000e-01
      vertex  -1.155044e+00  2.600000e+00  3.250000e+00
      vertex  -9.550450e-01  2.600000e+00  3.596410e+00
    endloop
  endfacet
  facet normal -1.000000e+00  9.536752e-06  0.000000e+00
    outer loop
      vertex  -1.155044e+00  2.600000e+00  2.500000e-01
      vertex  -1.155046e+00  2.400000e+00  2.500000e-01
      vertex  -1.155046e+00  2.400000e+00  3.250000e+00
    endloop
  endfacet
  facet normal -1.000000e+00  9.536752e-06  0.000000e+00
    outer loop
      vertex  -1.155044e+00  2.600000e+00  2.500000e-01
      vertex  -1.155046e+00  2.400000e+00  3.250000e+00
      vertex  -1.155044e+00  2.600000e+00  3.250000e+00
    endloop
  endfacet
  facet normal -5.960495e-06 -1.000000e+00 -2.267538e-06
    outer loop
      vertex   1.344956e+00 -2.600000e+00  2.500000e-01
      vertex   1.544955e+00 -2.600001e+00  2.500000e-01
      vertex  -3.428991e-01 -2.600000e+00  4.686730e+00
    endloop
  endfacet
  facet normal  0.000000e+00 -1.000000e+00  0.000000e+00
    outer loop
      vertex   1.344956e+00 -2.600000e+00  2.500000e-01
      vertex  -3.428991e-01 -2.600000e+00  4.686730e+00
      vertex  -4.506781e-01 -2.600000e+00  4.470000e+00
    endloop
  endfacet
  facet normal  4.768347e-06  1.000000e+00  1.545322e-06
    outer loop
      vertex   1.344955e+00 -2.400000e+00  2.500000e-01
      vertex  -3.428979e-01 -2.399999e+00  4.686730e+00
      vertex   1.544956e+00 -2.400001e+00  2.500000e-01
    endloop
  endfacet
  facet normal -5.960502e-06  1.000000e+00 -2.536225e-06
    outer loop
      vertex   1.344955e+00 -2.400000e+00  2.500000e-01
      vertex  -4.506769e-01 -2.400000e+00  4.470000e+00
      vertex  -3.428979e-01 -2.399999e+00  4.686730e+00
    endloop
  endfacet
  facet normal  0.000000e+00  0.000000e+00 -1.000000e+00
    outer loop
      vertex   1.344956e+00 -2.600000e+00  2.500000e-01
      vertex   1.344955e+00 -2.400000e+00  2.500000e-01
      vertex   1.544956e+00 -2.400001e+00  2.500000e-01
    endloop
  endfacet
  facet normal  0.000000e+00  0.000000e+00 -1.000000e+00
    outer loop
      vertex   1.344956e+00 -2.600000e+00  2.500000e-01
      vertex   1.544956e+00 -2.400001e+00  2.500000e-01
      vertex   1.544955e+00 -2.600001e+00  2.500000e-01
    endloop
  endfacet
  facet normal  9.201633e-01 -4.387679e-06  3.915347e-01
    outer loop
      vertex   1.544955e+00 -2.600001e+00  2.500000e-01
      vertex   1.544956e+00 -2.400001e+00  2.500000e-01
      vertex  -3.428979e-01 -2.399999e+00  4.686730e+00
    endloop
  endfacet
  facet normal  9.201633e-01 -4.944699e-06  3.915348e-01
    outer loop
      vertex   1.544955e+00 -2.600001e+00  2.500000e-01
      vertex  -3.428979e-01 -2.399999e+00  4.686730e+00
      vertex  -3.428991e-01 -2.600000e+00  4.686730e+00
    endloop
  endfacet
  facet normal -8.953936e-01  5.336935e-06  4.452757e-01
    outer loop
      vertex  -3.428991e-01 -2.600000e+00  4.686730e+00
      vertex  -3.428979e-01 -2.399999e+00  4.686730e+00
      vertex  -4.506769e-01 -2.400000e+00  4.470000e+00
    endloop
  endfacet
  facet normal -8.953935e-01  5.348229e-06  4.452756e-01
    outer loop
      vertex  -3.428991e-01 -2.600000e+00  4.686730e+00
      vertex  -4.506769e-01 -2.400000e+00  4.470000e+00
      vertex  -4.506781e-01 -2.600000e+00  4.470000e+00
    endloop
  endfacet
  facet normal -9.201635e-01  5.484607e-06 -3.915344e-01
    outer loop
      vertex  -4.506781e-01 -2.600000e+00  4.470000e+00
      vertex  -4.506769e-01 -2.400000e+00  4.470000e+00
      vertex   1.344955e+00 -2.400000e+00  2.500000e-01
    endloop
  endfacet
  facet normal -9.201633e-01 -4.678811e-06 -3.915348e-01
    outer loop
      vertex  -4.506781e-01 -2.600000e+00  4.470000e+00
      vertex   1.344955e+00 -2.400000e+00  2.500000e-01
      vertex   1.344956e+00 -2.600000e+00  2.500000e-01
    endloop
  endfacet
  facet normal -1.072883e-05 -1.000000e+00 -4.296498e-06
    outer loop
      vertex   1.344955e+00  2.400001e+00  2.500000e-01
      vertex   1.544955e+00  2.399999e+00  2.500000e-01
      vertex  -3.429010e-01  2.400000e+00  4.686730e+00
    endloop
  endfacet
  facet normal  2.448958e-07 -1.000000e+00 -1.217847e-07
    outer loop
      vertex   1.344955e+00  2.400001e+00  2.500000e-01
      vertex  -3.429010e-01  2.400000e+00  4.686730e+00
      vertex  -4.506791e-01  2.400000e+00  4.470000e+00
    endloop
  endfacet
  facet normal  0.000000e+00  1.000000e+00 -0.000000e+00
    outer loop
      vertex   1.344955e+00  2.600000e+00  2.500000e-01
      vertex  -3.429010e-01  2.600000e+00  4.686730e+00
      vertex   1.544956e+00  2.600000e+00  2.500000e-01
    endloop
  endfacet
  facet normal  0.000000e+00  1.000000e+00  0.000000e+00
    outer loop
      vertex   1.344955e+00  2.600000e+00  2.500000e-01
      vertex  -4.506791e-01  2.600000e+00  4.470000e+00
      vertex  -3.429010e-01  2.600000e+00  4.686730e+00
    endloop
  endfacet
  facet normal  0.000000e+00  0.000000e+00 -1.000000e+00
    outer loop
      vertex   1.344955e+00  2.400001e+00  2.500000e-01
      vertex   1.344955e+00  2.600000e+00  2.500000e-01
      vertex   1.544956e+00  2.600000e+00  2.500000e-01
    endloop
  endfacet
  facet normal  0.000000e+00  0.000000e+00 -1.000000e+00
    outer loop
      vertex   1.344955e+00  2.400001e+00  2.500000e-01
      vertex   1.544956e+00  2.600000e+00  2.500000e-01
      vertex   1.544955e+00  2.399999e+00  2.500000e-01
    endloop
  endfacet
  facet normal  9.201631e-01 -4.387658e-06  3.915353e-01
    outer loop
      vertex   1.544955e+00  2.399999e+00  2.500000e-01
      vertex   1.544956e+00  2.600000e+00  2.500000e-01
      vertex  -3.429010e-01  2.600000e+00  4.686730e+00
    endloop
  endfacet
  facet normal  9.201631e-01  0.000000e+00  3.915351e-01
    outer loop
      vertex   1.544955e+00  2.399999e+00  2.500000e-01
      vertex  -3.429010e-01  2.600000e+00  4.686730e+00
      vertex  -3.429010e-01  2.400000e+00  4.686730e+00
    endloop
  endfacet
  facet normal -8.953952e-01  0.000000e+00  4.452725e-01
    outer loop
      vertex  -3.429010e-01  2.400000e+00  4.686730e+00
      vertex  -3.429010e-01  2.600000e+00  4.686730e+00
      vertex  -4.506791e-01  2.600000e+00  4.470000e+00
    endloop
  endfacet
  facet normal -8.953952e-01  0.000000e+00  4.452725e-01
    outer loop
      vertex  -3.429010e-01  2.400000e+00  4.686730e+00
      vertex  -4.506791e-01  2.600000e+00  4.470000e+00
      vertex  -4.506791e-01  2.400000e+00  4.470000e+00
    endloop
  endfacet
  facet normal -9.201633e-01  0.000000e+00 -3.915348e-01
    outer loop
      vertex  -4.506791e-01  2.400000e+00  4.470000e+00
      vertex  -4.506791e-01  2.600000e+00  4.470000e+00
      vertex   1.344955e+00  2.600000e+00  2.500000e-01
    endloop
  endfacet
  facet normal -9.201633e-01  0.000000e+00 -3.915348e-01
    outer loop
      vertex  -4.506791e-01  2.400000e+00  4.470000e+00
      vertex   1.344955e+00  2.600000e+00  2.500000e-01
      vertex   1.344955e+00  2.400001e+00  2.500000e-01
    endloop
  endfacet
  facet normal  0.000000e+00  0.000000e+00  1.000000e+00
    outer loop
      vertex  -1.080045e+00 -2.525000e+00 -5.000001e-02
      vertex  -1.030045e+00 -2.525000e+00 -5.000001e-02
      vertex  -1.030045e+00 -2.474999e+00 -5.000001e-02
    endloop
  endfacet
  facet normal  0.000000e+00  0.000000e+00  1.000000e+00
    outer loop
      vertex  -1.080045e+00 -2.525000e+00 -5.000001e-02
      vertex  -1.030045e+00 -2.474999e+00 -5.000001e-02
      vertex  -1.080044e+00 -2.474999e+00 -5.000001e-02
    endloop
  endfacet
  facet normal  0.000000e+00  0.000000e+00  1.000000e+00
    outer loop
      vertex  -1.080045e+00 -2.525000e+00  2.500000e-01
      vertex  -1.030045e+00 -2.525000e+00  2.500000e-01
      vertex  -1.030045e+00 -2.474999e+00  2.500000e-01
    endloop
  endfacet
  facet normal  0.000000e+00  0.000000e+00  1.000000e+00
    outer loop
      vertex  -1.080045e+00 -2.525000e+00  2.500000e-01
      vertex  -1.030045e+00 -2.474999e+00  2.500000e-01
      vertex  -1.080044e+00 -2.474999e+00  2.500000e-01
    endloop
  endfacet
  facet normal  0.000000e+00 -1.000000e+00  0.000000e+00
    outer loop
      vertex  -1.080045e+00 -2.525000e+00 -5.000001e-02
      vertex  -1.030045e+00 -2.525000e+00 -5.000001e-02
      vertex  -1.030045e+00 -2.525000e+00  2.500000e-01
    endloop
  endfacet
  facet normal  0.000000e+00 -1.000000e+00  0.000000e+00
    outer loop
      vertex  -1.080045e+00 -2.525000e+00 -5.000001e-02
      vertex  -1.030045e+00 -2.525000e+00  2.500000e-01
      vertex  -1.080045e+00 -2.525000e+00  2.500000e-01
    endloop
  endfacet
  facet normal  1.000000e+00  0.000000e+00  0.000000e+00
    outer loop
      vertex  -1.030045e+00 -2.525000e+00 -5.000001e-02
      vertex  -1.030045e+00 -2.474999e+00 -5.000001e-02
      vertex  -1.030045e+00 -2.474999e+00  2.500000e-01
    endloop
  endfacet
  facet normal  1.000000e+00  0.000000e+00  0.000000e+00
    outer loop
      vertex  -1.030045e+00 -2.525000e+00 -5.000001e-02
      vertex  -1.030045e+00 -2.474999e+00  2.500000e-01
      vertex  -1.030045e+00 -2.525000e+00  2.500000e-01
    endloop
  endfacet
  facet normal  0.000000e+00  1.000000e+00  0.000000e+00
    outer loop
      vertex  -1.030045e+00 -2.474999e+00 -5.000001e-02
      vertex  -1.080044e+00 -2.474999e+00 -5.000001e-02
      vertex  -1.080044e+00 -2.474999e+00  2.500000e-01
    endloop
  endfacet
  facet normal  0.000000e+00  1.000000e+00 -0.000000e+00
    outer loop
      vertex  -1.030045e+00 -2.474999e+00 -5.000001e-02
      vertex  -1.080044e+00 -2.474999e+00  2.500000e-01
      vertex  -1.030045e+00 -2.474999e+00  2.500000e-01
    endloop
  endfacet
  facet normal -1.000000e+00  2.860957e-05  0.000000e+00
    outer loop
      vertex  -1.080044e+00 -2.474999e+00 -5.000001e-02
      vertex  -1.080045e+00 -2.525000e+00 -5.000001e-02
      vertex  -1.080045e+00 -2.525000e+00  2.500000e-01
    endloop
  endfacet
  facet normal -1.000000e+00  2.860957e-05  0.000000e+00
    outer loop
      vertex  -1.080044e+00 -2.474999e+00 -5.000001e-02
      vertex  -1.080045e+00 -2.525000e+00  2.500000e-01
      vertex  -1.080044e+00 -2.474999e+00  2.500000e-01
    endloop
  endfacet
  facet normal -0.000000e+00  0.000000e+00  1.000000e+00
    outer loop
      vertex  -1.080045e+00  2.475001e+00 -5.000001e-02
      vertex  -1.030046e+00  2.474999e+00 -5.000001e-02
      vertex  -1.030046e+00  2.524999e+00 -5.000001e-02
    endloop
  endfacet
  facet normal  0.000000e+00 -0.000000e+00  1.000000e+00
    outer loop
      vertex  -1.080045e+00  2.475001e+00 -5.000001e-02
      vertex  -1.030046e+00  2.524999e+00 -5.000001e-02
      vertex  -1.080047e+00  2.524999e+00 -5.000001e-02
    endloop
  endfacet
  facet normal -0.000000e+00  0.000000e+00  1.000000e+00
    outer loop
      vertex  -1.080045e+00  2.475001e+00  2.500000e-01
      vertex  -1.030046e+00  2.474999e+00  2.500000e-01
      vertex  -1.030046e+00  2.524999e+00  2.500000e-01
    endloop
  endfacet
  facet normal  0.000000e+00 -0.000000e+00  1.000000e+00
    outer loop
      vertex  -1.080045e+00  2.475001e+00  2.500000e-01
      vertex  -1.030046e+00  2.524999e+00  2.500000e-01
      vertex  -1.080047e+00  2.524999e+00  2.500000e-01
    endloop
  endfacet
  facet normal -4.291600e-05 -1.000000e+00  0.000000e+00
    outer loop
      vertex  -1.080045e+00  2.475001e+00 -5.000001e-02
      vertex  -1.030046e+00  2.474999e+00 -5.000001e-02
      vertex  -1.030046e+00  2.474999e+00  2.500000e-01
    endloop
  endfacet
  facet normal -4.291600e-05 -1.000000e+00  0.000000e+00
    outer loop
      vertex  -1.080045e+00  2.475001e+00 -5.000001e-02
      vertex  -1.030046e+00  2.474999e+00  2.500000e-01
      vertex  -1.080045e+00  2.475001e+00  2.500000e-01
    endloop
  endfacet
  facet normal  1.000000e+00  0.000000e+00  0.000000e+00
    outer loop
      vertex  -1.030046e+00  2.474999e+00 -5.000001e-02
      vertex  -1.030046e+00  2.524999e+00 -5.000001e-02
      vertex  -1.030046e+00  2.524999e+00  2.500000e-01
    endloop
  endfacet
  facet normal  1.000000e+00  0.000000e+00  0.000000e+00
    outer loop
      vertex  -1.030046e+00  2.474999e+00 -5.000001e-02
      vertex  -1.030046e+00  2.524999e+00  2.500000e-01
      vertex  -1.030046e+00  2.474999e+00  2.500000e-01
    endloop
  endfacet
  facet normal  0.000000e+00  1.000000e+00  0.000000e+00
    outer loop
      vertex  -1.030046e+00  2.524999e+00 -5.000001e-02
      vertex  -1.080047e+00  2.524999e+00 -5.000001e-02
      vertex  -1.080047e+00  2.524999e+00  2.500000e-01
    endloop
  endfacet
  facet normal  0.000000e+00  1.000000e+00 -0.000000e+00
    outer loop
      vertex  -1.030046e+00  2.524999e+00 -5.000001e-02
      vertex  -1.080047e+00  2.524999e+00  2.500000e-01
      vertex  -1.030046e+00  2.524999e+00  2.500000e-01
    endloop
  endfacet
  facet normal -1.000000e+00 -3.814865e-05  0.000000e+00
    outer loop
      vertex  -1.080047e+00  2.524999e+00 -5.000001e-02
      vertex  -1.080045e+00  2.475001e+00 -5.000001e-02
      vertex  -1.080045e+00  2.475001e+00  2.500000e-01
    endloop
  endfacet
  facet normal -1.000000e+00 -3.814865e-05  0.000000e+00
    outer loop
      vertex  -1.080047e+00  2.524999e+00 -5.000001e-02
      vertex  -1.080045e+00  2.475001e+00  2.500000e-01
      vertex  -1.080047e+00  2.524999e+00  2.500000e-01
    endloop
  endfacet
  facet normal -2.384234e-05 -1.000000e+00 -1.014502e-05
    outer loop
      vertex   1.537416e+00 -2.524999e+00 -2.604898e-02
      vertex   1.587415e+00 -2.525000e+00 -2.604898e-02
      vertex   1.469955e+00 -2.525000e+00  2.500000e-01
    endloop
  endfacet
  facet normal -2.384188e-05 -1.000000e+00 -1.014490e-05
    outer loop
      vertex   1.537416e+00 -2.524999e+00 -2.604898e-02
      vertex   1.469955e+00 -2.525000e+00  2.500000e-01
      vertex   1.419955e+00 -2.524999e+00  2.500000e-01
    endloop
  endfacet
  facet normal  0.000000e+00  1.000000e+00 -0.000000e+00
    outer loop
      vertex   1.537416e+00 -2.474999e+00 -2.604898e-02
      vertex   1.469956e+00 -2.474999e+00  2.500000e-01
      vertex   1.587415e+00 -2.474999e+00 -2.604898e-02
    endloop
  endfacet
  facet normal  0.000000e+00  1.000000e+00  0.000000e+00
    outer loop
      vertex   1.537416e+00 -2.474999e+00 -2.604898e-02
      vertex   1.419956e+00 -2.474999e+00  2.500000e-01
      vertex   1.469956e+00 -2.474999e+00  2.500000e-01
    endloop
  endfacet
  facet normal  0.000000e+00  0.000000e+00 -1.000000e+00
    outer loop
      vertex   1.537416e+00 -2.524999e+00 -2.604898e-02
      vertex   1.537416e+00 -2.474999e+00 -2.604898e-02
      vertex   1.587415e+00 -2.474999e+00 -2.604898e-02
    endloop
  endfacet
  facet normal  0.000000e+00  0.000000e+00 -1.000000e+00
    outer loop
      vertex   1.537416e+00 -2.524999e+00 -2.604898e-02
      vertex   1.587415e+00 -2.474999e+00 -2.604898e-02
      vertex   1.587415e+00 -2.525000e+00 -2.604898e-02
    endloop
  endfacet
  facet normal  9.201651e-01 -0.000000e+00  3.915306e-01
    outer loop
      vertex   1.587415e+00 -2.525000e+00 -2.604898e-02
      vertex   1.587415e+00 -2.474999e+00 -2.604898e-02
      vertex   1.469956e+00 -2.474999e+00  2.500000e-01
    endloop
  endfacet
  facet normal  9.201638e-01 -1.986777e-05  3.915336e-01
    outer loop
      vertex   1.587415e+00 -2.525000e+00 -2.604898e-02
      vertex   1.469956e+00 -2.474999e+00  2.500000e-01
      vertex   1.469955e+00 -2.525000e+00  2.500000e-01
    endloop
  endfacet
  facet normal  0.000000e+00 -0.000000e+00  1.000000e+00
    outer loop
      vertex   1.469955e+00 -2.525000e+00  2.500000e-01
      vertex   1.469956e+00 -2.474999e+00  2.500000e-01
      vertex   1.419956e+00 -2.474999e+00  2.500000e-01
    endloop
  endfacet
  facet normal  0.000000e+00  0.000000e+00  1.000000e+00
    outer loop
      vertex   1.469955e+00 -2.525000e+00  2.500000e-01
      vertex   1.419956e+00 -2.474999e+00  2.500000e-01
      vertex   1.419955e+00 -2.524999e+00  2.500000e-01
    endloop
  endfacet
  facet normal -9.201638e-01  1.755075e-05 -3.915336e-01
    outer loop
      vertex   1.419955e+00 -2.524999e+00  2.500000e-01
      vertex   1.419956e+00 -2.474999e+00  2.500000e-01
      vertex   1.537416e+00 -2.474999e+00 -2.604898e-02
    endloop
  endfacet
  facet normal -9.201627e-01  0.000000e+00 -3.915363e-01
    outer loop
      vertex   1.419955e+00 -2.524999e+00  2.500000e-01
      vertex   1.537416e+00 -2.474999e+00 -2.604898e-02
      vertex   1.537416e+00 -2.524999e+00 -2.604898e-02
    endloop
  endfacet
  facet normal  2.384188e-05 -1.000000e+00  2.371682e-06
    outer loop
      vertex   1.537415e+00  2.475000e+00 -2.604898e-02
      vertex   1.587415e+00  2.475001e+00 -2.604898e-02
      vertex   1.469955e+00  2.474999e+00  2.500000e-01
    endloop
  endfacet
  facet normal -1.907387e-05 -1.000000e+00 -8.115946e-06
    outer loop
      vertex   1.537415e+00  2.475000e+00 -2.604898e-02
      vertex   1.469955e+00  2.474999e+00  2.500000e-01
      vertex   1.419956e+00  2.475000e+00  2.500000e-01
    endloop
  endfacet
  facet normal  1.907350e-05  1.000000e+00  1.243427e-05
    outer loop
      vertex   1.537415e+00  2.525001e+00 -2.604898e-02
      vertex   1.469955e+00  2.524999e+00  2.500000e-01
      vertex   1.587415e+00  2.525000e+00 -2.604898e-02
    endloop
  endfacet
  facet normal  0.000000e+00  1.000000e+00  7.773138e-06
    outer loop
      vertex   1.537415e+00  2.525001e+00 -2.604898e-02
      vertex   1.419955e+00  2.524999e+00  2.500000e-01
      vertex   1.469955e+00  2.524999e+00  2.500000e-01
    endloop
  endfacet
  facet normal  0.000000e+00  0.000000e+00 -1.000000e+00
    outer loop
      vertex   1.537415e+00  2.475000e+00 -2.604898e-02
      vertex   1.537415e+00  2.525001e+00 -2.604898e-02
      vertex   1.587415e+00  2.525000e+00 -2.604898e-02
    endloop
  endfacet
  facet normal  0.000000e+00  0.000000e+00 -1.000000e+00
    outer loop
      vertex   1.537415e+00  2.475000e+00 -2.604898e-02
      vertex   1.587415e+00  2.525000e+00 -2.604898e-02
      vertex   1.587415e+00  2.475001e+00 -2.604898e-02
    endloop
  endfacet
  facet normal  9.201638e-01 -0.000000e+00  3.915336e-01
    outer loop
      vertex   1.587415e+00  2.475001e+00 -2.604898e-02
      vertex   1.587415e+00  2.525000e+00 -2.604898e-02
      vertex   1.469955e+00  2.524999e+00  2.500000e-01
    endloop
  endfacet
  facet normal  9.201638e-01  0.000000e+00  3.915336e-01
    outer loop
      vertex   1.587415e+00  2.475001e+00 -2.604898e-02
      vertex   1.469955e+00  2.524999e+00  2.500000e-01
      vertex   1.469955e+00  2.474999e+00  2.500000e-01
    endloop
  endfacet
  facet normal  0.000000e+00 -0.000000e+00  1.000000e+00
    outer loop
      vertex   1.469955e+00  2.474999e+00  2.500000e-01
      vertex   1.469955e+00  2.524999e+00  2.500000e-01
      vertex   1.419955e+00  2.524999e+00  2.500000e-01
    endloop
  endfacet
  facet normal  0.000000e+00  0.000000e+00  1.000000e+00
    outer loop
      vertex   1.469955e+00  2.474999e+00  2.500000e-01
      vertex   1.419955e+00  2.524999e+00  2.500000e-01
      vertex   1.419956e+00  2.475000e+00  2.500000e-01
    endloop
  endfacet
  facet normal -9.201638e-01 -1.755108e-05 -3.915336e-01
    outer loop
      vertex   1.419956e+00  2.475000e+00  2.500000e-01
      vertex   1.419955e+00  2.524999e+00  2.500000e-01
      vertex   1.537415e+00  2.525001e+00 -2.604898e-02
    endloop
  endfacet
  facet normal -9.201649e-01  0.000000e+00 -3.915309e-01
    outer loop
      vertex   1.419956e+00  2.475000e+00  2.500000e-01
      vertex   1.537415e+00  2.525001e+00 -2.604898e-02
      vertex   1.537415e+00  2.475000e+00 -2.604898e-02
    endloop
  endfacet
endsolid vcg
