solid STL generated by MeshLab
  facet normal -8.660254e-01  0.000000e+00  5.000000e-01
    outer loop
      vertex  -1.000000e+00 -5.000000e+00  3.000000e+00
      vertex   4.087347e-01 -5.000000e+00  5.440000e+00
      vertex   4.087347e-01  5.000000e+00  5.440000e+00
    endloop
  endfacet
  facet normal -8.660254e-01  0.000000e+00  5.000000e-01
    outer loop
      vertex  -1.000000e+00 -5.000000e+00  3.000000e+00
      vertex   4.087347e-01  5.000000e+00  5.440000e+00
      vertex  -1.000000e+00  5.000000e+00  3.000000e+00
    endloop
  endfacet
  facet normal  8.660254e-01  0.000000e+00 -5.000000e-01
    outer loop
      vertex  -1.173205e+00 -5.000000e+00  3.100000e+00
      vertex   2.355295e-01  5.000000e+00  5.540000e+00
      vertex   2.355295e-01 -5.000000e+00  5.540000e+00
    endloop
  endfacet
  facet normal  8.660254e-01  0.000000e+00 -5.000000e-01
    outer loop
      vertex  -1.173205e+00 -5.000000e+00  3.100000e+00
      vertex  -1.173205e+00  5.000000e+00  3.100000e+00
      vertex   2.355295e-01  5.000000e+00  5.540000e+00
    endloop
  endfacet
  facet normal  0.000000e+00  1.000000e+00 -0.000000e+00
    outer loop
      vertex  -1.000000e+00 -5.000000e+00  3.000000e+00
      vertex  -1.173205e+00 -5.000000e+00  3.100000e+00
      vertex   2.355295e-01 -5.000000e+00  5.540000e+00
    endloop
  endfacet
  facet normal  0.000000e+00  1.000000e+00  0.000000e+00
    outer loop
      vertex  -1.000000e+00 -5.000000e+00  3.000000e+00
      vertex   2.355295e-01 -5.000000e+00  5.540000e+00
      vertex   4.087347e-01 -5.000000e+00  5.440000e+00
    endloop
  endfacet
  facet normal -4.999995e-01  0.000000e+00 -8.660257e-01
    outer loop
      vertex   4.087347e-01 -5.000000e+00  5.440000e+00
      vertex   2.355295e-01 -5.000000e+00  5.540000e+00
      vertex   2.355295e-01  5.000000e+00  5.540000e+00
    endloop
  endfacet
  facet normal -4.999995e-01  0.000000e+00 -8.660257e-01
    outer loop
      vertex   4.087347e-01 -5.000000e+00  5.440000e+00
      vertex   2.355295e-01  5.000000e+00  5.540000e+00
      vertex   4.087347e-01  5.000000e+00  5.440000e+00
    endloop
  endfacet
  facet normal -0.000000e+00 -1.000000e+00  0.000000e+00
    outer loop
      vertex   4.087347e-01  5.000000e+00  5.440000e+00
      vertex   2.355295e-01  5.000000e+00  5.540000e+00
      vertex  -1.173205e+00  5.000000e+00  3.100000e+00
    endloop
  endfacet
  facet normal  0.000000e+00 -1.000000e+00  0.000000e+00
    outer loop
      vertex   4.087347e-01  5.000000e+00  5.440000e+00
      vertex  -1.173205e+00  5.000000e+00  3.100000e+00
      vertex  -1.000000e+00  5.000000e+00  3.000000e+00
    endloop
  endfacet
  facet normal  4.999995e-01  0.000000e+00  8.660257e-01
    outer loop
      vertex  -1.000000e+00  5.000000e+00  3.000000e+00
      vertex  -1.173205e+00  5.000000e+00  3.100000e+00
      vertex  -1.173205e+00 -5.000000e+00  3.100000e+00
    endloop
  endfacet
  facet normal  4.999995e-01  0.000000e+00  8.660257e-01
    outer loop
      vertex  -1.000000e+00  5.000000e+00  3.000000e+00
      vertex  -1.173205e+00 -5.000000e+00  3.100000e+00
      vertex  -1.000000e+00 -5.000000e+00  3.000000e+00
    endloop
  endfacet
  facet normal  0.000000e+00  0.000000e+00  1.000000e+00
    outer loop
      vertex  -1.000000e+00 -2.600000e+00  0.000000e+00
      vertex  -8.000000e-01 -2.600000e+00  0.000000e+00
      vertex  -8.000000e-01 -2.400000e+00  0.000000e+00
    endloop
  endfacet
  facet normal  0.000000e+00  0.000000e+00  1.000000e+00
    outer loop
      vertex  -1.000000e+00 -2.600000e+00  0.000000e+00
      vertex  -8.000000e-01 -2.400000e+00  0.000000e+00
      vertex  -1.000000e+00 -2.400000e+00  0.000000e+00
    endloop
  endfacet
  facet normal -8.660255e-01  0.000000e+00  4.999999e-01
    outer loop
      vertex  -1.000000e+00 -2.600000e+00  3.000000e+00
      vertex  -8.000000e-01 -2.600000e+00  3.346410e+00
      vertex  -8.000000e-01 -2.400000e+00  3.346410e+00
    endloop
  endfacet
  facet normal -8.660255e-01  0.000000e+00  4.999999e-01
    outer loop
      vertex  -1.000000e+00 -2.600000e+00  3.000000e+00
      vertex  -8.000000e-01 -2.400000e+00  3.346410e+00
      vertex  -1.000000e+00 -2.400000e+00  3.000000e+00
    endloop
  endfacet
  facet normal  0.000000e+00 -1.000000e+00  0.000000e+00
    outer loop
      vertex  -1.000000e+00 -2.600000e+00  0.000000e+00
      vertex  -8.000000e-01 -2.600000e+00  0.000000e+00
      vertex  -8.000000e-01 -2.600000e+00  3.346410e+00
    endloop
  endfacet
  facet normal  0.000000e+00 -1.000000e+00  0.000000e+00
    outer loop
      vertex  -1.000000e+00 -2.600000e+00  0.000000e+00
      vertex  -8.000000e-01 -2.600000e+00  3.346410e+00
      vertex  -1.000000e+00 -2.600000e+00  3.000000e+00
    endloop
  endfacet
  facet normal  1.000000e+00  0.000000e+00  0.000000e+00
    outer loop
      vertex  -8.000000e-01 -2.600000e+00  0.000000e+00
      vertex  -8.000000e-01 -2.400000e+00  0.000000e+00
      vertex  -8.000000e-01 -2.400000e+00  3.346410e+00
    endloop
  endfacet
  facet normal  1.000000e+00  0.000000e+00  0.000000e+00
    outer loop
      vertex  -8.000000e-01 -2.600000e+00  0.000000e+00
      vertex  -8.000000e-01 -2.400000e+00  3.346410e+00
      vertex  -8.000000e-01 -2.600000e+00  3.346410e+00
    endloop
  endfacet
  facet normal  0.000000e+00  1.000000e+00  0.000000e+00
    outer loop
      vertex  -8.000000e-01 -2.400000e+00  0.000000e+00
      vertex  -1.000000e+00 -2.400000e+00  0.000000e+00
      vertex  -1.000000e+00 -2.400000e+00  3.000000e+00
    endloop
  endfacet
  facet normal  0.000000e+00  1.000000e+00 -0.000000e+00
    outer loop
      vertex  -8.000000e-01 -2.400000e+00  0.000000e+00
      vertex  -1.000000e+00 -2.400000e+00  3.000000e+00
      vertex  -8.000000e-01 -2.400000e+00  3.346410e+00
    endloop
  endfacet
  facet normal -1.000000e+00  0.000000e+00  0.000000e+00
    outer loop
      vertex  -1.000000e+00 -2.400000e+00  0.000000e+00
      vertex  -1.000000e+00 -2.600000e+00  0.000000e+00
      vertex  -1.000000e+00 -2.600000e+00  3.000000e+00
    endloop
  endfacet
  facet normal -1.000000e+00  0.000000e+00  0.000000e+00
    outer loop
      vertex  -1.000000e+00 -2.400000e+00  0.000000e+00
      vertex  -1.000000e+00 -2.600000e+00  3.000000e+00
      vertex  -1.000000e+00 -2.400000e+00  3.000000e+00
    endloop
  endfacet
  facet normal  0.000000e+00  0.000000e+00  1.000000e+00
    outer loop
      vertex  -1.000000e+00  2.400000e+00  0.000000e+00
      vertex  -8.000000e-01  2.400000e+00  0.000000e+00
      vertex  -8.000000e-01  2.600000e+00  0.000000e+00
    endloop
  endfacet
  facet normal  0.000000e+00  0.000000e+00  1.000000e+00
    outer loop
      vertex  -1.000000e+00  2.400000e+00  0.000000e+00
      vertex  -8.000000e-01  2.600000e+00  0.000000e+00
      vertex  -1.000000e+00  2.600000e+00  0.000000e+00
    endloop
  endfacet
  facet normal -8.660255e-01  0.000000e+00  4.999999e-01
    outer loop
      vertex  -1.000000e+00  2.400000e+00  3.000000e+00
      vertex  -8.000000e-01  2.400000e+00  3.346410e+00
      vertex  -8.000000e-01  2.600000e+00  3.346410e+00
    endloop
  endfacet
  facet normal -8.660255e-01  0.000000e+00  4.999999e-01
    outer loop
      vertex  -1.000000e+00  2.400000e+00  3.000000e+00
      vertex  -8.000000e-01  2.600000e+00  3.346410e+00
      vertex  -1.000000e+00  2.600000e+00  3.000000e+00
    endloop
  endfacet
  facet normal  0.000000e+00 -1.000000e+00  0.000000e+00
    outer loop
      vertex  -1.000000e+00  2.400000e+00  0.000000e+00
      vertex  -8.000000e-01  2.400000e+00  0.000000e+00
      vertex  -8.000000e-01  2.400000e+00  3.346410e+00
    endloop
  endfacet
  facet normal  0.000000e+00 -1.000000e+00  0.000000e+00
    outer loop
      vertex  -1.000000e+00  2.400000e+00  0.000000e+00
      vertex  -8.000000e-01  2.400000e+00  3.346410e+00
      vertex  -1.000000e+00  2.400000e+00  3.000000e+00
    endloop
  endfacet
  facet normal  1.000000e+00  0.000000e+00  0.000000e+00
    outer loop
      vertex  -8.000000e-01  2.400000e+00  0.000000e+00
      vertex  -8.000000e-01  2.600000e+00  0.000000e+00
      vertex  -8.000000e-01  2.600000e+00  3.346410e+00
    endloop
  endfacet
  facet normal  1.000000e+00  0.000000e+00  0.000000e+00
    outer loop
      vertex  -8.000000e-01  2.400000e+00  0.000000e+00
      vertex  -8.000000e-01  2.600000e+00  3.346410e+00
      vertex  -8.000000e-01  2.400000e+00  3.346410e+00
    endloop
  endfacet
  facet normal  0.000000e+00  1.000000e+00  0.000000e+00
    outer loop
      vertex  -8.000000e-01  2.600000e+00  0.000000e+00
      vertex  -1.000000e+00  2.600000e+00  0.000000e+00
      vertex  -1.000000e+00  2.600000e+00  3.000000e+00
    endloop
  endfacet
  facet normal  0.000000e+00  1.000000e+00 -0.000000e+00
    outer loop
      vertex  -8.000000e-01  2.600000e+00  0.000000e+00
      vertex  -1.000000e+00  2.600000e+00  3.000000e+00
      vertex  -8.000000e-01  2.600000e+00  3.346410e+00
    endloop
  endfacet
  facet normal -1.000000e+00  0.000000e+00  0.000000e+00
    outer loop
      vertex  -1.000000e+00  2.600000e+00  0.000000e+00
      vertex  -1.000000e+00  2.400000e+00  0.000000e+00
      vertex  -1.000000e+00  2.400000e+00  3.000000e+00
    endloop
  endfacet
  facet normal -1.000000e+00  0.000000e+00  0.000000e+00
    outer loop
      vertex  -1.000000e+00  2.600000e+00  0.000000e+00
      vertex  -1.000000e+00  2.400000e+00  3.000000e+00
      vertex  -1.000000e+00  2.600000e+00  3.000000e+00
    endloop
  endfacet
  facet normal  0.000000e+00 -1.000000e+00  0.000000e+00
    outer loop
      vertex   1.500000e+00 -2.600000e+00  0.000000e+00
      vertex   1.700000e+00 -2.600000e+00  0.000000e+00
      vertex  -1.878541e-01 -2.600000e+00  4.436734e+00
    endloop
  endfacet
  facet normal  0.000000e+00 -1.000000e+00  0.000000e+00
    outer loop
      vertex   1.500000e+00 -2.600000e+00  0.000000e+00
      vertex  -1.878541e-01 -2.600000e+00  4.436734e+00
      vertex  -2.956327e-01 -2.600000e+00  4.220000e+00
    endloop
  endfacet
  facet normal  0.000000e+00  1.000000e+00 -0.000000e+00
    outer loop
      vertex   1.500000e+00 -2.400000e+00  0.000000e+00
      vertex  -1.878541e-01 -2.400000e+00  4.436734e+00
      vertex   1.700000e+00 -2.400000e+00  0.000000e+00
    endloop
  endfacet
  facet normal  0.000000e+00  1.000000e+00  0.000000e+00
    outer loop
      vertex   1.500000e+00 -2.400000e+00  0.000000e+00
      vertex  -2.956327e-01 -2.400000e+00  4.220000e+00
      vertex  -1.878541e-01 -2.400000e+00  4.436734e+00
    endloop
  endfacet
  facet normal  0.000000e+00  0.000000e+00 -1.000000e+00
    outer loop
      vertex   1.500000e+00 -2.600000e+00  0.000000e+00
      vertex   1.500000e+00 -2.400000e+00  0.000000e+00
      vertex   1.700000e+00 -2.400000e+00  0.000000e+00
    endloop
  endfacet
  facet normal  0.000000e+00  0.000000e+00 -1.000000e+00
    outer loop
      vertex   1.500000e+00 -2.600000e+00  0.000000e+00
      vertex   1.700000e+00 -2.400000e+00  0.000000e+00
      vertex   1.700000e+00 -2.600000e+00  0.000000e+00
    endloop
  endfacet
  facet normal  9.201634e-01 -0.000000e+00  3.915345e-01
    outer loop
      vertex   1.700000e+00 -2.600000e+00  0.000000e+00
      vertex   1.700000e+00 -2.400000e+00  0.000000e+00
      vertex  -1.878541e-01 -2.400000e+00  4.436734e+00
    endloop
  endfacet
  facet normal  9.201634e-01  0.000000e+00  3.915345e-01
    outer loop
      vertex   1.700000e+00 -2.600000e+00  0.000000e+00
      vertex  -1.878541e-01 -2.400000e+00  4.436734e+00
      vertex  -1.878541e-01 -2.600000e+00  4.436734e+00
    endloop
  endfacet
  facet normal -8.953974e-01  0.000000e+00  4.452680e-01
    outer loop
      vertex  -1.878541e-01 -2.600000e+00  4.436734e+00
      vertex  -1.878541e-01 -2.400000e+00  4.436734e+00
      vertex  -2.956327e-01 -2.400000e+00  4.220000e+00
    endloop
  endfacet
  facet normal -8.953974e-01  0.000000e+00  4.452680e-01
    outer loop
      vertex  -1.878541e-01 -2.600000e+00  4.436734e+00
      vertex  -2.956327e-01 -2.400000e+00  4.220000e+00
      vertex  -2.956327e-01 -2.600000e+00  4.220000e+00
    endloop
  endfacet
  facet normal -9.201635e-01  0.000000e+00 -3.915345e-01
    outer loop
      vertex  -2.956327e-01 -2.600000e+00  4.220000e+00
      vertex  -2.956327e-01 -2.400000e+00  4.220000e+00
      vertex   1.500000e+00 -2.400000e+00  0.000000e+00
    endloop
  endfacet
  facet normal -9.201635e-01  0.000000e+00 -3.915345e-01
    outer loop
      vertex  -2.956327e-01 -2.600000e+00  4.220000e+00
      vertex   1.500000e+00 -2.400000e+00  0.000000e+00
      vertex   1.500000e+00 -2.600000e+00  0.000000e+00
    endloop
  endfacet
  facet normal  0.000000e+00 -1.000000e+00  0.000000e+00
    outer loop
      vertex   1.500000e+00  2.400000e+00  0.000000e+00
      vertex   1.700000e+00  2.400000e+00  0.000000e+00
      vertex  -1.878541e-01  2.400000e+00  4.436734e+00
    endloop
  endfacet
  facet normal  0.000000e+00 -1.000000e+00  0.000000e+00
    outer loop
      vertex   1.500000e+00  2.400000e+00  0.000000e+00
      vertex  -1.878541e-01  2.400000e+00  4.436734e+00
      vertex  -2.956327e-01  2.400000e+00  4.220000e+00
    endloop
  endfacet
  facet normal  0.000000e+00  1.000000e+00 -0.000000e+00
    outer loop
      vertex   1.500000e+00  2.600000e+00  0.000000e+00
      vertex  -1.878541e-01  2.600000e+00  4.436734e+00
      vertex   1.700000e+00  2.600000e+00  0.000000e+00
    endloop
  endfacet
  facet normal  0.000000e+00  1.000000e+00  0.000000e+00
    outer loop
      vertex   1.500000e+00  2.600000e+00  0.000000e+00
      vertex  -2.956327e-01  2.600000e+00  4.220000e+00
      vertex  -1.878541e-01  2.600000e+00  4.436734e+00
    endloop
  endfacet
  facet normal  0.000000e+00  0.000000e+00 -1.000000e+00
    outer loop
      vertex   1.500000e+00  2.400000e+00  0.000000e+00
      vertex   1.500000e+00  2.600000e+00  0.000000e+00
      vertex   1.700000e+00  2.600000e+00  0.000000e+00
    endloop
  endfacet
  facet normal  0.000000e+00  0.000000e+00 -1.000000e+00
    outer loop
      vertex   1.500000e+00  2.400000e+00  0.000000e+00
      vertex   1.700000e+00  2.600000e+00  0.000000e+00
      vertex   1.700000e+00  2.400000e+00  0.000000e+00
    endloop
  endfacet
  facet normal  9.201634e-01 -0.000000e+00  3.915345e-01
    outer loop
      vertex   1.700000e+00  2.400000e+00  0.000000e+00
      vertex   1.700000e+00  2.600000e+00  0.000000e+00
      vertex  -1.878541e-01  2.600000e+00  4.436734e+00
    endloop
  endfacet
  facet normal  9.201634e-01  0.000000e+00  3.915345e-01
    outer loop
      vertex   1.700000e+00  2.400000e+00  0.000000e+00
      vertex  -1.878541e-01  2.600000e+00  4.436734e+00
      vertex  -1.878541e-01  2.400000e+00  4.436734e+00
    endloop
  endfacet
  facet normal -8.953974e-01  0.000000e+00  4.452680e-01
    outer loop
      vertex  -1.878541e-01  2.400000e+00  4.436734e+00
      vertex  -1.878541e-01  2.600000e+00  4.436734e+00
      vertex  -2.956327e-01  2.600000e+00  4.220000e+00
    endloop
  endfacet
  facet normal -8.953974e-01  0.000000e+00  4.452680e-01
    outer loop
      vertex  -1.878541e-01  2.400000e+00  4.436734e+00
      vertex  -2.956327e-01  2.600000e+00  4.220000e+00
      vertex  -2.956327e-01  2.400000e+00  4.220000e+00
    endloop
  endfacet
  facet normal -9.201635e-01  0.000000e+00 -3.915345e-01
    outer loop
      vertex  -2.956327e-01  2.400000e+00  4.220000e+00
      vertex  -2.956327e-01  2.600000e+00  4.220000e+00
      vertex   1.500000e+00  2.600000e+00  0.000000e+00
    endloop
  endfacet
  facet normal -9.201635e-01  0.000000e+00 -3.915345e-01
    outer loop
      vertex  -2.956327e-01  2.400000e+00  4.220000e+00
      vertex   1.500000e+00  2.600000e+00  0.000000e+00
      vertex   1.500000e+00  2.400000e+00  0.000000e+00
    endloop
  endfacet
  facet normal  0.000000e+00  0.000000e+00  1.000000e+00
    outer loop
      vertex  -9.250000e-01 -2.525000e+00  0.000000e+00
      vertex  -8.750000e-01 -2.525000e+00  0.000000e+00
      vertex  -8.750000e-01 -2.475000e+00  0.000000e+00
    endloop
  endfacet
  facet normal  0.000000e+00  0.000000e+00  1.000000e+00
    outer loop
      vertex  -9.250000e-01 -2.525000e+00  0.000000e+00
      vertex  -8.750000e-01 -2.475000e+00  0.000000e+00
      vertex  -9.250000e-01 -2.475000e+00  0.000000e+00
    endloop
  endfacet
  facet normal  0.000000e+00  0.000000e+00  1.000000e+00
    outer loop
      vertex  -9.250000e-01 -2.525000e+00  0.000000e+00
      vertex  -8.750000e-01 -2.525000e+00  0.000000e+00
      vertex  -8.750000e-01 -2.475000e+00  0.000000e+00
    endloop
  endfacet
  facet normal  0.000000e+00  0.000000e+00  1.000000e+00
    outer loop
      vertex  -9.250000e-01 -2.525000e+00  0.000000e+00
      vertex  -8.750000e-01 -2.475000e+00  0.000000e+00
      vertex  -9.250000e-01 -2.475000e+00  0.000000e+00
    endloop
  endfacet
  facet normal  0.000000e+00  0.000000e+00  1.000000e+00
    outer loop
      vertex  -9.250000e-01  2.475000e+00  0.000000e+00
      vertex  -8.750000e-01  2.475000e+00  0.000000e+00
      vertex  -8.750000e-01  2.525000e+00  0.000000e+00
    endloop
  endfacet
  facet normal  0.000000e+00  0.000000e+00  1.000000e+00
    outer loop
      vertex  -9.250000e-01  2.475000e+00  0.000000e+00
      vertex  -8.750000e-01  2.525000e+00  0.000000e+00
      vertex  -9.250000e-01  2.525000e+00  0.000000e+00
    endloop
  endfacet
  facet normal  0.000000e+00  0.000000e+00  1.000000e+00
    outer loop
      vertex  -9.250000e-01  2.475000e+00  0.000000e+00
      vertex  -8.750000e-01  2.475000e+00  0.000000e+00
      vertex  -8.750000e-01  2.525000e+00  0.000000e+00
    endloop
  endfacet
  facet normal  0.000000e+00  0.000000e+00  1.000000e+00
    outer loop
      vertex  -9.250000e-01  2.475000e+00  0.000000e+00
      vertex  -8.750000e-01  2.525000e+00  0.000000e+00
      vertex  -9.250000e-01  2.525000e+00  0.000000e+00
    endloop
  endfacet
  facet normal  0.000000e+00  0.000000e+00 -1.000000e+00
    outer loop
      vertex   1.575000e+00 -2.525000e+00  0.000000e+00
      vertex   1.575000e+00 -2.475000e+00  0.000000e+00
      vertex   1.625000e+00 -2.475000e+00  0.000000e+00
    endloop
  endfacet
  facet normal  0.000000e+00  0.000000e+00 -1.000000e+00
    outer loop
      vertex   1.575000e+00 -2.525000e+00  0.000000e+00
      vertex   1.625000e+00 -2.475000e+00  0.000000e+00
      vertex   1.625000e+00 -2.525000e+00  0.000000e+00
    endloop
  endfacet
  facet normal  0.000000e+00 -0.000000e+00  1.000000e+00
    outer loop
      vertex   1.625000e+00 -2.525000e+00  0.000000e+00
      vertex   1.625000e+00 -2.475000e+00  0.000000e+00
      vertex   1.575000e+00 -2.475000e+00  0.000000e+00
    endloop
  endfacet
  facet normal  0.000000e+00  0.000000e+00  1.000000e+00
    outer loop
      vertex   1.625000e+00 -2.525000e+00  0.000000e+00
      vertex   1.575000e+00 -2.475000e+00  0.000000e+00
      vertex   1.575000e+00 -2.525000e+00  0.000000e+00
    endloop
  endfacet
  facet normal  0.000000e+00  0.000000e+00 -1.000000e+00
    outer loop
      vertex   1.575000e+00  2.475000e+00  0.000000e+00
      vertex   1.575000e+00  2.525000e+00  0.000000e+00
      vertex   1.625000e+00  2.525000e+00  0.000000e+00
    endloop
  endfacet
  facet normal  0.000000e+00  0.000000e+00 -1.000000e+00
    outer loop
      vertex   1.575000e+00  2.475000e+00  0.000000e+00
      vertex   1.625000e+00  2.525000e+00  0.000000e+00
      vertex   1.625000e+00  2.475000e+00  0.000000e+00
    endloop
  endfacet
  facet normal  0.000000e+00 -0.000000e+00  1.000000e+00
    outer loop
      vertex   1.625000e+00  2.475000e+00  0.000000e+00
      vertex   1.625000e+00  2.525000e+00  0.000000e+00
      vertex   1.575000e+00  2.525000e+00  0.000000e+00
    endloop
  endfacet
  facet normal  0.000000e+00  0.000000e+00  1.000000e+00
    outer loop
      vertex   1.625000e+00  2.475000e+00  0.000000e+00
      vertex   1.575000e+00  2.525000e+00  0.000000e+00
      vertex   1.575000e+00  2.475000e+00  0.000000e+00
    endloop
  endfacet
endsolid vcg
