solid STL generated by MeshLab
  facet normal -1.304487e-01 -3.495356e-02 -9.908387e-01
    outer loop
      vertex   0.000000e+00  0.000000e+00  2.130000e+00
      vertex   2.241439e-02  1.294095e-02  2.126593e+00
      vertex   2.588190e-02  0.000000e+00  2.126593e+00
    endloop
  endfacet
  facet normal -9.549510e-02 -9.549510e-02 -9.908387e-01
    outer loop
      vertex   0.000000e+00  0.000000e+00  2.130000e+00
      vertex   1.294095e-02  2.241439e-02  2.126593e+00
      vertex   2.241439e-02  1.294095e-02  2.126593e+00
    endloop
  endfacet
  facet normal -3.495356e-02 -1.304487e-01 -9.908387e-01
    outer loop
      vertex   0.000000e+00  0.000000e+00  2.130000e+00
      vertex   1.584810e-18  2.588190e-02  2.126593e+00
      vertex   1.294095e-02  2.241439e-02  2.126593e+00
    endloop
  endfacet
  facet normal  3.495356e-02 -1.304487e-01 -9.908387e-01
    outer loop
      vertex   0.000000e+00  0.000000e+00  2.130000e+00
      vertex  -1.294095e-02  2.241439e-02  2.126593e+00
      vertex   1.584810e-18  2.588190e-02  2.126593e+00
    endloop
  endfacet
  facet normal  9.549510e-02 -9.549510e-02 -9.908387e-01
    outer loop
      vertex   0.000000e+00  0.000000e+00  2.130000e+00
      vertex  -2.241439e-02  1.294095e-02  2.126593e+00
      vertex  -1.294095e-02  2.241439e-02  2.126593e+00
    endloop
  endfacet
  facet normal  1.304487e-01 -3.495356e-02 -9.908387e-01
    outer loop
      vertex   0.000000e+00  0.000000e+00  2.130000e+00
      vertex  -2.588190e-02  3.169619e-18  2.126593e+00
      vertex  -2.241439e-02  1.294095e-02  2.126593e+00
    endloop
  endfacet
  facet normal  1.304487e-01  3.495356e-02 -9.908387e-01
    outer loop
      vertex   0.000000e+00  0.000000e+00  2.130000e+00
      vertex  -2.241439e-02 -1.294095e-02  2.126593e+00
      vertex  -2.588190e-02  3.169619e-18  2.126593e+00
    endloop
  endfacet
  facet normal  9.549510e-02  9.549510e-02 -9.908387e-01
    outer loop
      vertex   0.000000e+00  0.000000e+00  2.130000e+00
      vertex  -1.294095e-02 -2.241439e-02  2.126593e+00
      vertex  -2.241439e-02 -1.294095e-02  2.126593e+00
    endloop
  endfacet
  facet normal  3.495356e-02  1.304487e-01 -9.908387e-01
    outer loop
      vertex   0.000000e+00  0.000000e+00  2.130000e+00
      vertex  -4.754429e-18 -2.588190e-02  2.126593e+00
      vertex  -1.294095e-02 -2.241439e-02  2.126593e+00
    endloop
  endfacet
  facet normal -3.495356e-02  1.304487e-01 -9.908387e-01
    outer loop
      vertex   0.000000e+00  0.000000e+00  2.130000e+00
      vertex   1.294095e-02 -2.241439e-02  2.126593e+00
      vertex  -4.754429e-18 -2.588190e-02  2.126593e+00
    endloop
  endfacet
  facet normal -9.549510e-02  9.549510e-02 -9.908387e-01
    outer loop
      vertex   0.000000e+00  0.000000e+00  2.130000e+00
      vertex   2.241439e-02 -1.294095e-02  2.126593e+00
      vertex   1.294095e-02 -2.241439e-02  2.126593e+00
    endloop
  endfacet
  facet normal -1.304487e-01  3.495356e-02 -9.908387e-01
    outer loop
      vertex   0.000000e+00  0.000000e+00  2.130000e+00
      vertex   2.588190e-02  0.000000e+00  2.126593e+00
      vertex   2.241439e-02 -1.294095e-02  2.126593e+00
    endloop
  endfacet
  facet normal -3.806853e-01 -1.020041e-01 -9.190614e-01
    outer loop
      vertex   2.588190e-02  0.000000e+00  2.126593e+00
      vertex   2.241439e-02  1.294095e-02  2.126593e+00
      vertex   4.330127e-02  2.500000e-02  2.116603e+00
    endloop
  endfacet
  facet normal -3.806851e-01 -1.020043e-01 -9.190614e-01
    outer loop
      vertex   2.588190e-02  0.000000e+00  2.126593e+00
      vertex   4.330127e-02  2.500000e-02  2.116603e+00
      vertex   5.000000e-02  0.000000e+00  2.116603e+00
    endloop
  endfacet
  facet normal -2.786809e-01 -2.786809e-01 -9.190614e-01
    outer loop
      vertex   2.241439e-02  1.294095e-02  2.126593e+00
      vertex   1.294095e-02  2.241439e-02  2.126593e+00
      vertex   2.500000e-02  4.330127e-02  2.116603e+00
    endloop
  endfacet
  facet normal -2.786809e-01 -2.786810e-01 -9.190614e-01
    outer loop
      vertex   2.241439e-02  1.294095e-02  2.126593e+00
      vertex   2.500000e-02  4.330127e-02  2.116603e+00
      vertex   4.330127e-02  2.500000e-02  2.116603e+00
    endloop
  endfacet
  facet normal -1.020041e-01 -3.806851e-01 -9.190615e-01
    outer loop
      vertex   1.294095e-02  2.241439e-02  2.126593e+00
      vertex   1.584810e-18  2.588190e-02  2.126593e+00
      vertex   3.061617e-18  5.000000e-02  2.116603e+00
    endloop
  endfacet
  facet normal -1.020043e-01 -3.806853e-01 -9.190614e-01
    outer loop
      vertex   1.294095e-02  2.241439e-02  2.126593e+00
      vertex   3.061617e-18  5.000000e-02  2.116603e+00
      vertex   2.500000e-02  4.330127e-02  2.116603e+00
    endloop
  endfacet
  facet normal  1.020041e-01 -3.806853e-01 -9.190614e-01
    outer loop
      vertex   1.584810e-18  2.588190e-02  2.126593e+00
      vertex  -1.294095e-02  2.241439e-02  2.126593e+00
      vertex  -2.500000e-02  4.330127e-02  2.116603e+00
    endloop
  endfacet
  facet normal  1.020043e-01 -3.806851e-01 -9.190614e-01
    outer loop
      vertex   1.584810e-18  2.588190e-02  2.126593e+00
      vertex  -2.500000e-02  4.330127e-02  2.116603e+00
      vertex   3.061617e-18  5.000000e-02  2.116603e+00
    endloop
  endfacet
  facet normal  2.786809e-01 -2.786809e-01 -9.190614e-01
    outer loop
      vertex  -1.294095e-02  2.241439e-02  2.126593e+00
      vertex  -2.241439e-02  1.294095e-02  2.126593e+00
      vertex  -4.330127e-02  2.500000e-02  2.116603e+00
    endloop
  endfacet
  facet normal  2.786810e-01 -2.786809e-01 -9.190614e-01
    outer loop
      vertex  -1.294095e-02  2.241439e-02  2.126593e+00
      vertex  -4.330127e-02  2.500000e-02  2.116603e+00
      vertex  -2.500000e-02  4.330127e-02  2.116603e+00
    endloop
  endfacet
  facet normal  3.806851e-01 -1.020041e-01 -9.190615e-01
    outer loop
      vertex  -2.241439e-02  1.294095e-02  2.126593e+00
      vertex  -2.588190e-02  3.169619e-18  2.126593e+00
      vertex  -5.000000e-02  6.123234e-18  2.116603e+00
    endloop
  endfacet
  facet normal  3.806853e-01 -1.020043e-01 -9.190614e-01
    outer loop
      vertex  -2.241439e-02  1.294095e-02  2.126593e+00
      vertex  -5.000000e-02  6.123234e-18  2.116603e+00
      vertex  -4.330127e-02  2.500000e-02  2.116603e+00
    endloop
  endfacet
  facet normal  3.806853e-01  1.020041e-01 -9.190614e-01
    outer loop
      vertex  -2.588190e-02  3.169619e-18  2.126593e+00
      vertex  -2.241439e-02 -1.294095e-02  2.126593e+00
      vertex  -4.330127e-02 -2.500000e-02  2.116603e+00
    endloop
  endfacet
  facet normal  3.806851e-01  1.020043e-01 -9.190614e-01
    outer loop
      vertex  -2.588190e-02  3.169619e-18  2.126593e+00
      vertex  -4.330127e-02 -2.500000e-02  2.116603e+00
      vertex  -5.000000e-02  6.123234e-18  2.116603e+00
    endloop
  endfacet
  facet normal  2.786809e-01  2.786809e-01 -9.190614e-01
    outer loop
      vertex  -2.241439e-02 -1.294095e-02  2.126593e+00
      vertex  -1.294095e-02 -2.241439e-02  2.126593e+00
      vertex  -2.500000e-02 -4.330127e-02  2.116603e+00
    endloop
  endfacet
  facet normal  2.786809e-01  2.786810e-01 -9.190614e-01
    outer loop
      vertex  -2.241439e-02 -1.294095e-02  2.126593e+00
      vertex  -2.500000e-02 -4.330127e-02  2.116603e+00
      vertex  -4.330127e-02 -2.500000e-02  2.116603e+00
    endloop
  endfacet
  facet normal  1.020041e-01  3.806851e-01 -9.190615e-01
    outer loop
      vertex  -1.294095e-02 -2.241439e-02  2.126593e+00
      vertex  -4.754429e-18 -2.588190e-02  2.126593e+00
      vertex  -9.184851e-18 -5.000000e-02  2.116603e+00
    endloop
  endfacet
  facet normal  1.020043e-01  3.806853e-01 -9.190614e-01
    outer loop
      vertex  -1.294095e-02 -2.241439e-02  2.126593e+00
      vertex  -9.184851e-18 -5.000000e-02  2.116603e+00
      vertex  -2.500000e-02 -4.330127e-02  2.116603e+00
    endloop
  endfacet
  facet normal -1.020041e-01  3.806853e-01 -9.190614e-01
    outer loop
      vertex  -4.754429e-18 -2.588190e-02  2.126593e+00
      vertex   1.294095e-02 -2.241439e-02  2.126593e+00
      vertex   2.500000e-02 -4.330127e-02  2.116603e+00
    endloop
  endfacet
  facet normal -1.020043e-01  3.806851e-01 -9.190614e-01
    outer loop
      vertex  -4.754429e-18 -2.588190e-02  2.126593e+00
      vertex   2.500000e-02 -4.330127e-02  2.116603e+00
      vertex  -9.184851e-18 -5.000000e-02  2.116603e+00
    endloop
  endfacet
  facet normal -2.786809e-01  2.786809e-01 -9.190614e-01
    outer loop
      vertex   1.294095e-02 -2.241439e-02  2.126593e+00
      vertex   2.241439e-02 -1.294095e-02  2.126593e+00
      vertex   4.330127e-02 -2.500000e-02  2.116603e+00
    endloop
  endfacet
  facet normal -2.786810e-01  2.786809e-01 -9.190614e-01
    outer loop
      vertex   1.294095e-02 -2.241439e-02  2.126593e+00
      vertex   4.330127e-02 -2.500000e-02  2.116603e+00
      vertex   2.500000e-02 -4.330127e-02  2.116603e+00
    endloop
  endfacet
  facet normal -3.806851e-01  1.020041e-01 -9.190615e-01
    outer loop
      vertex   2.241439e-02 -1.294095e-02  2.126593e+00
      vertex   2.588190e-02  0.000000e+00  2.126593e+00
      vertex   5.000000e-02  0.000000e+00  2.116603e+00
    endloop
  endfacet
  facet normal -3.806853e-01  1.020043e-01 -9.190614e-01
    outer loop
      vertex   2.241439e-02 -1.294095e-02  2.126593e+00
      vertex   5.000000e-02  0.000000e+00  2.116603e+00
      vertex   4.330127e-02 -2.500000e-02  2.116603e+00
    endloop
  endfacet
  facet normal -6.008248e-01 -1.609906e-01 -7.830018e-01
    outer loop
      vertex   5.000000e-02  0.000000e+00  2.116603e+00
      vertex   4.330127e-02  2.500000e-02  2.116603e+00
      vertex   6.123724e-02  3.535534e-02  2.100711e+00
    endloop
  endfacet
  facet normal -6.008246e-01 -1.609906e-01 -7.830018e-01
    outer loop
      vertex   5.000000e-02  0.000000e+00  2.116603e+00
      vertex   6.123724e-02  3.535534e-02  2.100711e+00
      vertex   7.071068e-02  0.000000e+00  2.100711e+00
    endloop
  endfacet
  facet normal -4.398342e-01 -4.398342e-01 -7.830018e-01
    outer loop
      vertex   4.330127e-02  2.500000e-02  2.116603e+00
      vertex   2.500000e-02  4.330127e-02  2.116603e+00
      vertex   3.535534e-02  6.123724e-02  2.100711e+00
    endloop
  endfacet
  facet normal -4.398342e-01 -4.398342e-01 -7.830018e-01
    outer loop
      vertex   4.330127e-02  2.500000e-02  2.116603e+00
      vertex   3.535534e-02  6.123724e-02  2.100711e+00
      vertex   6.123724e-02  3.535534e-02  2.100711e+00
    endloop
  endfacet
  facet normal -1.609905e-01 -6.008247e-01 -7.830018e-01
    outer loop
      vertex   2.500000e-02  4.330127e-02  2.116603e+00
      vertex   3.061617e-18  5.000000e-02  2.116603e+00
      vertex   4.329780e-18  7.071068e-02  2.100711e+00
    endloop
  endfacet
  facet normal -1.609906e-01 -6.008247e-01 -7.830017e-01
    outer loop
      vertex   2.500000e-02  4.330127e-02  2.116603e+00
      vertex   4.329780e-18  7.071068e-02  2.100711e+00
      vertex   3.535534e-02  6.123724e-02  2.100711e+00
    endloop
  endfacet
  facet normal  1.609906e-01 -6.008248e-01 -7.830018e-01
    outer loop
      vertex   3.061617e-18  5.000000e-02  2.116603e+00
      vertex  -2.500000e-02  4.330127e-02  2.116603e+00
      vertex  -3.535534e-02  6.123724e-02  2.100711e+00
    endloop
  endfacet
  facet normal  1.609906e-01 -6.008246e-01 -7.830018e-01
    outer loop
      vertex   3.061617e-18  5.000000e-02  2.116603e+00
      vertex  -3.535534e-02  6.123724e-02  2.100711e+00
      vertex   4.329780e-18  7.071068e-02  2.100711e+00
    endloop
  endfacet
  facet normal  4.398342e-01 -4.398342e-01 -7.830018e-01
    outer loop
      vertex  -2.500000e-02  4.330127e-02  2.116603e+00
      vertex  -4.330127e-02  2.500000e-02  2.116603e+00
      vertex  -6.123724e-02  3.535534e-02  2.100711e+00
    endloop
  endfacet
  facet normal  4.398342e-01 -4.398342e-01 -7.830018e-01
    outer loop
      vertex  -2.500000e-02  4.330127e-02  2.116603e+00
      vertex  -6.123724e-02  3.535534e-02  2.100711e+00
      vertex  -3.535534e-02  6.123724e-02  2.100711e+00
    endloop
  endfacet
  facet normal  6.008247e-01 -1.609905e-01 -7.830018e-01
    outer loop
      vertex  -4.330127e-02  2.500000e-02  2.116603e+00
      vertex  -5.000000e-02  6.123234e-18  2.116603e+00
      vertex  -7.071068e-02  8.659561e-18  2.100711e+00
    endloop
  endfacet
  facet normal  6.008247e-01 -1.609906e-01 -7.830017e-01
    outer loop
      vertex  -4.330127e-02  2.500000e-02  2.116603e+00
      vertex  -7.071068e-02  8.659561e-18  2.100711e+00
      vertex  -6.123724e-02  3.535534e-02  2.100711e+00
    endloop
  endfacet
  facet normal  6.008248e-01  1.609906e-01 -7.830018e-01
    outer loop
      vertex  -5.000000e-02  6.123234e-18  2.116603e+00
      vertex  -4.330127e-02 -2.500000e-02  2.116603e+00
      vertex  -6.123724e-02 -3.535534e-02  2.100711e+00
    endloop
  endfacet
  facet normal  6.008246e-01  1.609906e-01 -7.830018e-01
    outer loop
      vertex  -5.000000e-02  6.123234e-18  2.116603e+00
      vertex  -6.123724e-02 -3.535534e-02  2.100711e+00
      vertex  -7.071068e-02  8.659561e-18  2.100711e+00
    endloop
  endfacet
  facet normal  4.398342e-01  4.398342e-01 -7.830018e-01
    outer loop
      vertex  -4.330127e-02 -2.500000e-02  2.116603e+00
      vertex  -2.500000e-02 -4.330127e-02  2.116603e+00
      vertex  -3.535534e-02 -6.123724e-02  2.100711e+00
    endloop
  endfacet
  facet normal  4.398342e-01  4.398342e-01 -7.830018e-01
    outer loop
      vertex  -4.330127e-02 -2.500000e-02  2.116603e+00
      vertex  -3.535534e-02 -6.123724e-02  2.100711e+00
      vertex  -6.123724e-02 -3.535534e-02  2.100711e+00
    endloop
  endfacet
  facet normal  1.609905e-01  6.008247e-01 -7.830018e-01
    outer loop
      vertex  -2.500000e-02 -4.330127e-02  2.116603e+00
      vertex  -9.184851e-18 -5.000000e-02  2.116603e+00
      vertex  -1.298934e-17 -7.071068e-02  2.100711e+00
    endloop
  endfacet
  facet normal  1.609906e-01  6.008247e-01 -7.830017e-01
    outer loop
      vertex  -2.500000e-02 -4.330127e-02  2.116603e+00
      vertex  -1.298934e-17 -7.071068e-02  2.100711e+00
      vertex  -3.535534e-02 -6.123724e-02  2.100711e+00
    endloop
  endfacet
  facet normal -1.609906e-01  6.008248e-01 -7.830018e-01
    outer loop
      vertex  -9.184851e-18 -5.000000e-02  2.116603e+00
      vertex   2.500000e-02 -4.330127e-02  2.116603e+00
      vertex   3.535534e-02 -6.123724e-02  2.100711e+00
    endloop
  endfacet
  facet normal -1.609906e-01  6.008246e-01 -7.830018e-01
    outer loop
      vertex  -9.184851e-18 -5.000000e-02  2.116603e+00
      vertex   3.535534e-02 -6.123724e-02  2.100711e+00
      vertex  -1.298934e-17 -7.071068e-02  2.100711e+00
    endloop
  endfacet
  facet normal -4.398342e-01  4.398342e-01 -7.830018e-01
    outer loop
      vertex   2.500000e-02 -4.330127e-02  2.116603e+00
      vertex   4.330127e-02 -2.500000e-02  2.116603e+00
      vertex   6.123724e-02 -3.535534e-02  2.100711e+00
    endloop
  endfacet
  facet normal -4.398342e-01  4.398342e-01 -7.830018e-01
    outer loop
      vertex   2.500000e-02 -4.330127e-02  2.116603e+00
      vertex   6.123724e-02 -3.535534e-02  2.100711e+00
      vertex   3.535534e-02 -6.123724e-02  2.100711e+00
    endloop
  endfacet
  facet normal -6.008247e-01  1.609905e-01 -7.830018e-01
    outer loop
      vertex   4.330127e-02 -2.500000e-02  2.116603e+00
      vertex   5.000000e-02  0.000000e+00  2.116603e+00
      vertex   7.071068e-02  0.000000e+00  2.100711e+00
    endloop
  endfacet
  facet normal -6.008247e-01  1.609906e-01 -7.830017e-01
    outer loop
      vertex   4.330127e-02 -2.500000e-02  2.116603e+00
      vertex   7.071068e-02  0.000000e+00  2.100711e+00
      vertex   6.123724e-02 -3.535534e-02  2.100711e+00
    endloop
  endfacet
  facet normal -7.760102e-01 -2.079315e-01 -5.954600e-01
    outer loop
      vertex   7.071068e-02  0.000000e+00  2.100711e+00
      vertex   6.123724e-02  3.535534e-02  2.100711e+00
      vertex   7.500000e-02  4.330127e-02  2.080000e+00
    endloop
  endfacet
  facet normal -7.760105e-01 -2.079313e-01 -5.954596e-01
    outer loop
      vertex   7.071068e-02  0.000000e+00  2.100711e+00
      vertex   7.500000e-02  4.330127e-02  2.080000e+00
      vertex   8.660254e-02  0.000000e+00  2.080000e+00
    endloop
  endfacet
  facet normal -5.680791e-01 -5.680791e-01 -5.954599e-01
    outer loop
      vertex   6.123724e-02  3.535534e-02  2.100711e+00
      vertex   3.535534e-02  6.123724e-02  2.100711e+00
      vertex   4.330127e-02  7.500000e-02  2.080000e+00
    endloop
  endfacet
  facet normal -5.680790e-01 -5.680790e-01 -5.954599e-01
    outer loop
      vertex   6.123724e-02  3.535534e-02  2.100711e+00
      vertex   4.330127e-02  7.500000e-02  2.080000e+00
      vertex   7.500000e-02  4.330127e-02  2.080000e+00
    endloop
  endfacet
  facet normal -2.079316e-01 -7.760105e-01 -5.954596e-01
    outer loop
      vertex   3.535534e-02  6.123724e-02  2.100711e+00
      vertex   4.329780e-18  7.071068e-02  2.100711e+00
      vertex   5.302876e-18  8.660254e-02  2.080000e+00
    endloop
  endfacet
  facet normal -2.079312e-01 -7.760103e-01 -5.954599e-01
    outer loop
      vertex   3.535534e-02  6.123724e-02  2.100711e+00
      vertex   5.302876e-18  8.660254e-02  2.080000e+00
      vertex   4.330127e-02  7.500000e-02  2.080000e+00
    endloop
  endfacet
  facet normal  2.079315e-01 -7.760102e-01 -5.954600e-01
    outer loop
      vertex   4.329780e-18  7.071068e-02  2.100711e+00
      vertex  -3.535534e-02  6.123724e-02  2.100711e+00
      vertex  -4.330127e-02  7.500000e-02  2.080000e+00
    endloop
  endfacet
  facet normal  2.079313e-01 -7.760105e-01 -5.954596e-01
    outer loop
      vertex   4.329780e-18  7.071068e-02  2.100711e+00
      vertex  -4.330127e-02  7.500000e-02  2.080000e+00
      vertex   5.302876e-18  8.660254e-02  2.080000e+00
    endloop
  endfacet
  facet normal  5.680791e-01 -5.680791e-01 -5.954599e-01
    outer loop
      vertex  -3.535534e-02  6.123724e-02  2.100711e+00
      vertex  -6.123724e-02  3.535534e-02  2.100711e+00
      vertex  -7.500000e-02  4.330127e-02  2.080000e+00
    endloop
  endfacet
  facet normal  5.680790e-01 -5.680790e-01 -5.954599e-01
    outer loop
      vertex  -3.535534e-02  6.123724e-02  2.100711e+00
      vertex  -7.500000e-02  4.330127e-02  2.080000e+00
      vertex  -4.330127e-02  7.500000e-02  2.080000e+00
    endloop
  endfacet
  facet normal  7.760105e-01 -2.079316e-01 -5.954596e-01
    outer loop
      vertex  -6.123724e-02  3.535534e-02  2.100711e+00
      vertex  -7.071068e-02  8.659561e-18  2.100711e+00
      vertex  -8.660254e-02  1.060575e-17  2.080000e+00
    endloop
  endfacet
  facet normal  7.760103e-01 -2.079312e-01 -5.954599e-01
    outer loop
      vertex  -6.123724e-02  3.535534e-02  2.100711e+00
      vertex  -8.660254e-02  1.060575e-17  2.080000e+00
      vertex  -7.500000e-02  4.330127e-02  2.080000e+00
    endloop
  endfacet
  facet normal  7.760102e-01  2.079315e-01 -5.954600e-01
    outer loop
      vertex  -7.071068e-02  8.659561e-18  2.100711e+00
      vertex  -6.123724e-02 -3.535534e-02  2.100711e+00
      vertex  -7.500000e-02 -4.330127e-02  2.080000e+00
    endloop
  endfacet
  facet normal  7.760105e-01  2.079313e-01 -5.954596e-01
    outer loop
      vertex  -7.071068e-02  8.659561e-18  2.100711e+00
      vertex  -7.500000e-02 -4.330127e-02  2.080000e+00
      vertex  -8.660254e-02  1.060575e-17  2.080000e+00
    endloop
  endfacet
  facet normal  5.680791e-01  5.680791e-01 -5.954599e-01
    outer loop
      vertex  -6.123724e-02 -3.535534e-02  2.100711e+00
      vertex  -3.535534e-02 -6.123724e-02  2.100711e+00
      vertex  -4.330127e-02 -7.500000e-02  2.080000e+00
    endloop
  endfacet
  facet normal  5.680790e-01  5.680790e-01 -5.954599e-01
    outer loop
      vertex  -6.123724e-02 -3.535534e-02  2.100711e+00
      vertex  -4.330127e-02 -7.500000e-02  2.080000e+00
      vertex  -7.500000e-02 -4.330127e-02  2.080000e+00
    endloop
  endfacet
  facet normal  2.079316e-01  7.760105e-01 -5.954596e-01
    outer loop
      vertex  -3.535534e-02 -6.123724e-02  2.100711e+00
      vertex  -1.298934e-17 -7.071068e-02  2.100711e+00
      vertex  -1.590863e-17 -8.660254e-02  2.080000e+00
    endloop
  endfacet
  facet normal  2.079312e-01  7.760103e-01 -5.954599e-01
    outer loop
      vertex  -3.535534e-02 -6.123724e-02  2.100711e+00
      vertex  -1.590863e-17 -8.660254e-02  2.080000e+00
      vertex  -4.330127e-02 -7.500000e-02  2.080000e+00
    endloop
  endfacet
  facet normal -2.079315e-01  7.760102e-01 -5.954600e-01
    outer loop
      vertex  -1.298934e-17 -7.071068e-02  2.100711e+00
      vertex   3.535534e-02 -6.123724e-02  2.100711e+00
      vertex   4.330127e-02 -7.500000e-02  2.080000e+00
    endloop
  endfacet
  facet normal -2.079313e-01  7.760105e-01 -5.954596e-01
    outer loop
      vertex  -1.298934e-17 -7.071068e-02  2.100711e+00
      vertex   4.330127e-02 -7.500000e-02  2.080000e+00
      vertex  -1.590863e-17 -8.660254e-02  2.080000e+00
    endloop
  endfacet
  facet normal -5.680791e-01  5.680791e-01 -5.954599e-01
    outer loop
      vertex   3.535534e-02 -6.123724e-02  2.100711e+00
      vertex   6.123724e-02 -3.535534e-02  2.100711e+00
      vertex   7.500000e-02 -4.330127e-02  2.080000e+00
    endloop
  endfacet
  facet normal -5.680790e-01  5.680790e-01 -5.954599e-01
    outer loop
      vertex   3.535534e-02 -6.123724e-02  2.100711e+00
      vertex   7.500000e-02 -4.330127e-02  2.080000e+00
      vertex   4.330127e-02 -7.500000e-02  2.080000e+00
    endloop
  endfacet
  facet normal -7.760105e-01  2.079316e-01 -5.954596e-01
    outer loop
      vertex   6.123724e-02 -3.535534e-02  2.100711e+00
      vertex   7.071068e-02  0.000000e+00  2.100711e+00
      vertex   8.660254e-02  0.000000e+00  2.080000e+00
    endloop
  endfacet
  facet normal -7.760103e-01  2.079312e-01 -5.954599e-01
    outer loop
      vertex   6.123724e-02 -3.535534e-02  2.100711e+00
      vertex   8.660254e-02  0.000000e+00  2.080000e+00
      vertex   7.500000e-02 -4.330127e-02  2.080000e+00
    endloop
  endfacet
  facet normal -8.968093e-01 -2.402992e-01 -3.714691e-01
    outer loop
      vertex   8.660254e-02  0.000000e+00  2.080000e+00
      vertex   7.500000e-02  4.330127e-02  2.080000e+00
      vertex   8.365163e-02  4.829629e-02  2.055882e+00
    endloop
  endfacet
  facet normal -8.968093e-01 -2.402993e-01 -3.714693e-01
    outer loop
      vertex   8.660254e-02  0.000000e+00  2.080000e+00
      vertex   8.365163e-02  4.829629e-02  2.055882e+00
      vertex   9.659258e-02  0.000000e+00  2.055882e+00
    endloop
  endfacet
  facet normal -6.565101e-01 -6.565101e-01 -3.714692e-01
    outer loop
      vertex   7.500000e-02  4.330127e-02  2.080000e+00
      vertex   4.330127e-02  7.500000e-02  2.080000e+00
      vertex   4.829629e-02  8.365163e-02  2.055882e+00
    endloop
  endfacet
  facet normal -6.565099e-01 -6.565100e-01 -3.714692e-01
    outer loop
      vertex   7.500000e-02  4.330127e-02  2.080000e+00
      vertex   4.829629e-02  8.365163e-02  2.055882e+00
      vertex   8.365163e-02  4.829629e-02  2.055882e+00
    endloop
  endfacet
  facet normal -2.402992e-01 -8.968093e-01 -3.714693e-01
    outer loop
      vertex   4.330127e-02  7.500000e-02  2.080000e+00
      vertex   5.302876e-18  8.660254e-02  2.080000e+00
      vertex   5.914590e-18  9.659258e-02  2.055882e+00
    endloop
  endfacet
  facet normal -2.402993e-01 -8.968093e-01 -3.714691e-01
    outer loop
      vertex   4.330127e-02  7.500000e-02  2.080000e+00
      vertex   5.914590e-18  9.659258e-02  2.055882e+00
      vertex   4.829629e-02  8.365163e-02  2.055882e+00
    endloop
  endfacet
  facet normal  2.402992e-01 -8.968093e-01 -3.714691e-01
    outer loop
      vertex   5.302876e-18  8.660254e-02  2.080000e+00
      vertex  -4.330127e-02  7.500000e-02  2.080000e+00
      vertex  -4.829629e-02  8.365163e-02  2.055882e+00
    endloop
  endfacet
  facet normal  2.402993e-01 -8.968093e-01 -3.714693e-01
    outer loop
      vertex   5.302876e-18  8.660254e-02  2.080000e+00
      vertex  -4.829629e-02  8.365163e-02  2.055882e+00
      vertex   5.914590e-18  9.659258e-02  2.055882e+00
    endloop
  endfacet
  facet normal  6.565101e-01 -6.565101e-01 -3.714692e-01
    outer loop
      vertex  -4.330127e-02  7.500000e-02  2.080000e+00
      vertex  -7.500000e-02  4.330127e-02  2.080000e+00
      vertex  -8.365163e-02  4.829629e-02  2.055882e+00
    endloop
  endfacet
  facet normal  6.565100e-01 -6.565099e-01 -3.714692e-01
    outer loop
      vertex  -4.330127e-02  7.500000e-02  2.080000e+00
      vertex  -8.365163e-02  4.829629e-02  2.055882e+00
      vertex  -4.829629e-02  8.365163e-02  2.055882e+00
    endloop
  endfacet
  facet normal  8.968093e-01 -2.402992e-01 -3.714693e-01
    outer loop
      vertex  -7.500000e-02  4.330127e-02  2.080000e+00
      vertex  -8.660254e-02  1.060575e-17  2.080000e+00
      vertex  -9.659258e-02  1.182918e-17  2.055882e+00
    endloop
  endfacet
  facet normal  8.968093e-01 -2.402993e-01 -3.714691e-01
    outer loop
      vertex  -7.500000e-02  4.330127e-02  2.080000e+00
      vertex  -9.659258e-02  1.182918e-17  2.055882e+00
      vertex  -8.365163e-02  4.829629e-02  2.055882e+00
    endloop
  endfacet
  facet normal  8.968093e-01  2.402992e-01 -3.714691e-01
    outer loop
      vertex  -8.660254e-02  1.060575e-17  2.080000e+00
      vertex  -7.500000e-02 -4.330127e-02  2.080000e+00
      vertex  -8.365163e-02 -4.829629e-02  2.055882e+00
    endloop
  endfacet
  facet normal  8.968093e-01  2.402993e-01 -3.714693e-01
    outer loop
      vertex  -8.660254e-02  1.060575e-17  2.080000e+00
      vertex  -8.365163e-02 -4.829629e-02  2.055882e+00
      vertex  -9.659258e-02  1.182918e-17  2.055882e+00
    endloop
  endfacet
  facet normal  6.565101e-01  6.565101e-01 -3.714692e-01
    outer loop
      vertex  -7.500000e-02 -4.330127e-02  2.080000e+00
      vertex  -4.330127e-02 -7.500000e-02  2.080000e+00
      vertex  -4.829629e-02 -8.365163e-02  2.055882e+00
    endloop
  endfacet
  facet normal  6.565099e-01  6.565100e-01 -3.714692e-01
    outer loop
      vertex  -7.500000e-02 -4.330127e-02  2.080000e+00
      vertex  -4.829629e-02 -8.365163e-02  2.055882e+00
      vertex  -8.365163e-02 -4.829629e-02  2.055882e+00
    endloop
  endfacet
  facet normal  2.402992e-01  8.968093e-01 -3.714693e-01
    outer loop
      vertex  -4.330127e-02 -7.500000e-02  2.080000e+00
      vertex  -1.590863e-17 -8.660254e-02  2.080000e+00
      vertex  -1.774377e-17 -9.659258e-02  2.055882e+00
    endloop
  endfacet
  facet normal  2.402993e-01  8.968093e-01 -3.714691e-01
    outer loop
      vertex  -4.330127e-02 -7.500000e-02  2.080000e+00
      vertex  -1.774377e-17 -9.659258e-02  2.055882e+00
      vertex  -4.829629e-02 -8.365163e-02  2.055882e+00
    endloop
  endfacet
  facet normal -2.402992e-01  8.968093e-01 -3.714691e-01
    outer loop
      vertex  -1.590863e-17 -8.660254e-02  2.080000e+00
      vertex   4.330127e-02 -7.500000e-02  2.080000e+00
      vertex   4.829629e-02 -8.365163e-02  2.055882e+00
    endloop
  endfacet
  facet normal -2.402993e-01  8.968093e-01 -3.714693e-01
    outer loop
      vertex  -1.590863e-17 -8.660254e-02  2.080000e+00
      vertex   4.829629e-02 -8.365163e-02  2.055882e+00
      vertex  -1.774377e-17 -9.659258e-02  2.055882e+00
    endloop
  endfacet
  facet normal -6.565101e-01  6.565101e-01 -3.714692e-01
    outer loop
      vertex   4.330127e-02 -7.500000e-02  2.080000e+00
      vertex   7.500000e-02 -4.330127e-02  2.080000e+00
      vertex   8.365163e-02 -4.829629e-02  2.055882e+00
    endloop
  endfacet
  facet normal -6.565100e-01  6.565099e-01 -3.714692e-01
    outer loop
      vertex   4.330127e-02 -7.500000e-02  2.080000e+00
      vertex   8.365163e-02 -4.829629e-02  2.055882e+00
      vertex   4.829629e-02 -8.365163e-02  2.055882e+00
    endloop
  endfacet
  facet normal -8.968093e-01  2.402992e-01 -3.714693e-01
    outer loop
      vertex   7.500000e-02 -4.330127e-02  2.080000e+00
      vertex   8.660254e-02  0.000000e+00  2.080000e+00
      vertex   9.659258e-02  0.000000e+00  2.055882e+00
    endloop
  endfacet
  facet normal -8.968093e-01  2.402993e-01 -3.714691e-01
    outer loop
      vertex   7.500000e-02 -4.330127e-02  2.080000e+00
      vertex   9.659258e-02  0.000000e+00  2.055882e+00
      vertex   8.365163e-02 -4.829629e-02  2.055882e+00
    endloop
  endfacet
  facet normal -9.582090e-01 -2.567513e-01 -1.261512e-01
    outer loop
      vertex   9.659258e-02  0.000000e+00  2.055882e+00
      vertex   8.365163e-02  4.829629e-02  2.055882e+00
      vertex   8.660254e-02  5.000000e-02  2.030000e+00
    endloop
  endfacet
  facet normal -9.582090e-01 -2.567514e-01 -1.261513e-01
    outer loop
      vertex   9.659258e-02  0.000000e+00  2.055882e+00
      vertex   8.660254e-02  5.000000e-02  2.030000e+00
      vertex   1.000000e-01  0.000000e+00  2.030000e+00
    endloop
  endfacet
  facet normal -7.014577e-01 -7.014577e-01 -1.261512e-01
    outer loop
      vertex   8.365163e-02  4.829629e-02  2.055882e+00
      vertex   4.829629e-02  8.365163e-02  2.055882e+00
      vertex   5.000000e-02  8.660254e-02  2.030000e+00
    endloop
  endfacet
  facet normal -7.014577e-01 -7.014577e-01 -1.261512e-01
    outer loop
      vertex   8.365163e-02  4.829629e-02  2.055882e+00
      vertex   5.000000e-02  8.660254e-02  2.030000e+00
      vertex   8.660254e-02  5.000000e-02  2.030000e+00
    endloop
  endfacet
  facet normal -2.567513e-01 -9.582090e-01 -1.261513e-01
    outer loop
      vertex   4.829629e-02  8.365163e-02  2.055882e+00
      vertex   5.914590e-18  9.659258e-02  2.055882e+00
      vertex   6.123234e-18  1.000000e-01  2.030000e+00
    endloop
  endfacet
  facet normal -2.567514e-01 -9.582091e-01 -1.261512e-01
    outer loop
      vertex   4.829629e-02  8.365163e-02  2.055882e+00
      vertex   6.123234e-18  1.000000e-01  2.030000e+00
      vertex   5.000000e-02  8.660254e-02  2.030000e+00
    endloop
  endfacet
  facet normal  2.567513e-01 -9.582090e-01 -1.261512e-01
    outer loop
      vertex   5.914590e-18  9.659258e-02  2.055882e+00
      vertex  -4.829629e-02  8.365163e-02  2.055882e+00
      vertex  -5.000000e-02  8.660254e-02  2.030000e+00
    endloop
  endfacet
  facet normal  2.567514e-01 -9.582090e-01 -1.261513e-01
    outer loop
      vertex   5.914590e-18  9.659258e-02  2.055882e+00
      vertex  -5.000000e-02  8.660254e-02  2.030000e+00
      vertex   6.123234e-18  1.000000e-01  2.030000e+00
    endloop
  endfacet
  facet normal  7.014577e-01 -7.014577e-01 -1.261512e-01
    outer loop
      vertex  -4.829629e-02  8.365163e-02  2.055882e+00
      vertex  -8.365163e-02  4.829629e-02  2.055882e+00
      vertex  -8.660254e-02  5.000000e-02  2.030000e+00
    endloop
  endfacet
  facet normal  7.014577e-01 -7.014577e-01 -1.261512e-01
    outer loop
      vertex  -4.829629e-02  8.365163e-02  2.055882e+00
      vertex  -8.660254e-02  5.000000e-02  2.030000e+00
      vertex  -5.000000e-02  8.660254e-02  2.030000e+00
    endloop
  endfacet
  facet normal  9.582090e-01 -2.567513e-01 -1.261513e-01
    outer loop
      vertex  -8.365163e-02  4.829629e-02  2.055882e+00
      vertex  -9.659258e-02  1.182918e-17  2.055882e+00
      vertex  -1.000000e-01  1.224647e-17  2.030000e+00
    endloop
  endfacet
  facet normal  9.582091e-01 -2.567514e-01 -1.261512e-01
    outer loop
      vertex  -8.365163e-02  4.829629e-02  2.055882e+00
      vertex  -1.000000e-01  1.224647e-17  2.030000e+00
      vertex  -8.660254e-02  5.000000e-02  2.030000e+00
    endloop
  endfacet
  facet normal  9.582090e-01  2.567513e-01 -1.261512e-01
    outer loop
      vertex  -9.659258e-02  1.182918e-17  2.055882e+00
      vertex  -8.365163e-02 -4.829629e-02  2.055882e+00
      vertex  -8.660254e-02 -5.000000e-02  2.030000e+00
    endloop
  endfacet
  facet normal  9.582090e-01  2.567514e-01 -1.261513e-01
    outer loop
      vertex  -9.659258e-02  1.182918e-17  2.055882e+00
      vertex  -8.660254e-02 -5.000000e-02  2.030000e+00
      vertex  -1.000000e-01  1.224647e-17  2.030000e+00
    endloop
  endfacet
  facet normal  7.014577e-01  7.014577e-01 -1.261512e-01
    outer loop
      vertex  -8.365163e-02 -4.829629e-02  2.055882e+00
      vertex  -4.829629e-02 -8.365163e-02  2.055882e+00
      vertex  -5.000000e-02 -8.660254e-02  2.030000e+00
    endloop
  endfacet
  facet normal  7.014577e-01  7.014577e-01 -1.261512e-01
    outer loop
      vertex  -8.365163e-02 -4.829629e-02  2.055882e+00
      vertex  -5.000000e-02 -8.660254e-02  2.030000e+00
      vertex  -8.660254e-02 -5.000000e-02  2.030000e+00
    endloop
  endfacet
  facet normal  2.567513e-01  9.582090e-01 -1.261513e-01
    outer loop
      vertex  -4.829629e-02 -8.365163e-02  2.055882e+00
      vertex  -1.774377e-17 -9.659258e-02  2.055882e+00
      vertex  -1.836970e-17 -1.000000e-01  2.030000e+00
    endloop
  endfacet
  facet normal  2.567514e-01  9.582091e-01 -1.261512e-01
    outer loop
      vertex  -4.829629e-02 -8.365163e-02  2.055882e+00
      vertex  -1.836970e-17 -1.000000e-01  2.030000e+00
      vertex  -5.000000e-02 -8.660254e-02  2.030000e+00
    endloop
  endfacet
  facet normal -2.567513e-01  9.582090e-01 -1.261512e-01
    outer loop
      vertex  -1.774377e-17 -9.659258e-02  2.055882e+00
      vertex   4.829629e-02 -8.365163e-02  2.055882e+00
      vertex   5.000000e-02 -8.660254e-02  2.030000e+00
    endloop
  endfacet
  facet normal -2.567514e-01  9.582090e-01 -1.261513e-01
    outer loop
      vertex  -1.774377e-17 -9.659258e-02  2.055882e+00
      vertex   5.000000e-02 -8.660254e-02  2.030000e+00
      vertex  -1.836970e-17 -1.000000e-01  2.030000e+00
    endloop
  endfacet
  facet normal -7.014577e-01  7.014577e-01 -1.261512e-01
    outer loop
      vertex   4.829629e-02 -8.365163e-02  2.055882e+00
      vertex   8.365163e-02 -4.829629e-02  2.055882e+00
      vertex   8.660254e-02 -5.000000e-02  2.030000e+00
    endloop
  endfacet
  facet normal -7.014577e-01  7.014577e-01 -1.261512e-01
    outer loop
      vertex   4.829629e-02 -8.365163e-02  2.055882e+00
      vertex   8.660254e-02 -5.000000e-02  2.030000e+00
      vertex   5.000000e-02 -8.660254e-02  2.030000e+00
    endloop
  endfacet
  facet normal -9.582090e-01  2.567513e-01 -1.261513e-01
    outer loop
      vertex   8.365163e-02 -4.829629e-02  2.055882e+00
      vertex   9.659258e-02  0.000000e+00  2.055882e+00
      vertex   1.000000e-01  0.000000e+00  2.030000e+00
    endloop
  endfacet
  facet normal -9.582091e-01  2.567514e-01 -1.261512e-01
    outer loop
      vertex   8.365163e-02 -4.829629e-02  2.055882e+00
      vertex   1.000000e-01  0.000000e+00  2.030000e+00
      vertex   8.660254e-02 -5.000000e-02  2.030000e+00
    endloop
  endfacet
  facet normal -9.582092e-01 -2.567514e-01  1.261500e-01
    outer loop
      vertex   1.000000e-01  0.000000e+00  2.030000e+00
      vertex   8.660254e-02  5.000000e-02  2.030000e+00
      vertex   8.365163e-02  4.829629e-02  2.004118e+00
    endloop
  endfacet
  facet normal -9.582092e-01 -2.567514e-01  1.261502e-01
    outer loop
      vertex   1.000000e-01  0.000000e+00  2.030000e+00
      vertex   8.365163e-02  4.829629e-02  2.004118e+00
      vertex   9.659258e-02  0.000000e+00  2.004118e+00
    endloop
  endfacet
  facet normal -7.014579e-01 -7.014579e-01  1.261501e-01
    outer loop
      vertex   8.660254e-02  5.000000e-02  2.030000e+00
      vertex   5.000000e-02  8.660254e-02  2.030000e+00
      vertex   4.829629e-02  8.365163e-02  2.004118e+00
    endloop
  endfacet
  facet normal -7.014579e-01 -7.014578e-01  1.261501e-01
    outer loop
      vertex   8.660254e-02  5.000000e-02  2.030000e+00
      vertex   4.829629e-02  8.365163e-02  2.004118e+00
      vertex   8.365163e-02  4.829629e-02  2.004118e+00
    endloop
  endfacet
  facet normal -2.567514e-01 -9.582092e-01  1.261502e-01
    outer loop
      vertex   5.000000e-02  8.660254e-02  2.030000e+00
      vertex   6.123234e-18  1.000000e-01  2.030000e+00
      vertex   5.914590e-18  9.659258e-02  2.004118e+00
    endloop
  endfacet
  facet normal -2.567514e-01 -9.582093e-01  1.261500e-01
    outer loop
      vertex   5.000000e-02  8.660254e-02  2.030000e+00
      vertex   5.914590e-18  9.659258e-02  2.004118e+00
      vertex   4.829629e-02  8.365163e-02  2.004118e+00
    endloop
  endfacet
  facet normal  2.567514e-01 -9.582092e-01  1.261500e-01
    outer loop
      vertex   6.123234e-18  1.000000e-01  2.030000e+00
      vertex  -5.000000e-02  8.660254e-02  2.030000e+00
      vertex  -4.829629e-02  8.365163e-02  2.004118e+00
    endloop
  endfacet
  facet normal  2.567514e-01 -9.582092e-01  1.261502e-01
    outer loop
      vertex   6.123234e-18  1.000000e-01  2.030000e+00
      vertex  -4.829629e-02  8.365163e-02  2.004118e+00
      vertex   5.914590e-18  9.659258e-02  2.004118e+00
    endloop
  endfacet
  facet normal  7.014579e-01 -7.014579e-01  1.261501e-01
    outer loop
      vertex  -5.000000e-02  8.660254e-02  2.030000e+00
      vertex  -8.660254e-02  5.000000e-02  2.030000e+00
      vertex  -8.365163e-02  4.829629e-02  2.004118e+00
    endloop
  endfacet
  facet normal  7.014578e-01 -7.014579e-01  1.261501e-01
    outer loop
      vertex  -5.000000e-02  8.660254e-02  2.030000e+00
      vertex  -8.365163e-02  4.829629e-02  2.004118e+00
      vertex  -4.829629e-02  8.365163e-02  2.004118e+00
    endloop
  endfacet
  facet normal  9.582092e-01 -2.567514e-01  1.261502e-01
    outer loop
      vertex  -8.660254e-02  5.000000e-02  2.030000e+00
      vertex  -1.000000e-01  1.224647e-17  2.030000e+00
      vertex  -9.659258e-02  1.182918e-17  2.004118e+00
    endloop
  endfacet
  facet normal  9.582093e-01 -2.567514e-01  1.261500e-01
    outer loop
      vertex  -8.660254e-02  5.000000e-02  2.030000e+00
      vertex  -9.659258e-02  1.182918e-17  2.004118e+00
      vertex  -8.365163e-02  4.829629e-02  2.004118e+00
    endloop
  endfacet
  facet normal  9.582092e-01  2.567514e-01  1.261500e-01
    outer loop
      vertex  -1.000000e-01  1.224647e-17  2.030000e+00
      vertex  -8.660254e-02 -5.000000e-02  2.030000e+00
      vertex  -8.365163e-02 -4.829629e-02  2.004118e+00
    endloop
  endfacet
  facet normal  9.582092e-01  2.567514e-01  1.261502e-01
    outer loop
      vertex  -1.000000e-01  1.224647e-17  2.030000e+00
      vertex  -8.365163e-02 -4.829629e-02  2.004118e+00
      vertex  -9.659258e-02  1.182918e-17  2.004118e+00
    endloop
  endfacet
  facet normal  7.014579e-01  7.014579e-01  1.261501e-01
    outer loop
      vertex  -8.660254e-02 -5.000000e-02  2.030000e+00
      vertex  -5.000000e-02 -8.660254e-02  2.030000e+00
      vertex  -4.829629e-02 -8.365163e-02  2.004118e+00
    endloop
  endfacet
  facet normal  7.014579e-01  7.014578e-01  1.261501e-01
    outer loop
      vertex  -8.660254e-02 -5.000000e-02  2.030000e+00
      vertex  -4.829629e-02 -8.365163e-02  2.004118e+00
      vertex  -8.365163e-02 -4.829629e-02  2.004118e+00
    endloop
  endfacet
  facet normal  2.567514e-01  9.582092e-01  1.261502e-01
    outer loop
      vertex  -5.000000e-02 -8.660254e-02  2.030000e+00
      vertex  -1.836970e-17 -1.000000e-01  2.030000e+00
      vertex  -1.774377e-17 -9.659258e-02  2.004118e+00
    endloop
  endfacet
  facet normal  2.567514e-01  9.582093e-01  1.261500e-01
    outer loop
      vertex  -5.000000e-02 -8.660254e-02  2.030000e+00
      vertex  -1.774377e-17 -9.659258e-02  2.004118e+00
      vertex  -4.829629e-02 -8.365163e-02  2.004118e+00
    endloop
  endfacet
  facet normal -2.567514e-01  9.582092e-01  1.261500e-01
    outer loop
      vertex  -1.836970e-17 -1.000000e-01  2.030000e+00
      vertex   5.000000e-02 -8.660254e-02  2.030000e+00
      vertex   4.829629e-02 -8.365163e-02  2.004118e+00
    endloop
  endfacet
  facet normal -2.567514e-01  9.582092e-01  1.261502e-01
    outer loop
      vertex  -1.836970e-17 -1.000000e-01  2.030000e+00
      vertex   4.829629e-02 -8.365163e-02  2.004118e+00
      vertex  -1.774377e-17 -9.659258e-02  2.004118e+00
    endloop
  endfacet
  facet normal -7.014579e-01  7.014579e-01  1.261501e-01
    outer loop
      vertex   5.000000e-02 -8.660254e-02  2.030000e+00
      vertex   8.660254e-02 -5.000000e-02  2.030000e+00
      vertex   8.365163e-02 -4.829629e-02  2.004118e+00
    endloop
  endfacet
  facet normal -7.014578e-01  7.014579e-01  1.261501e-01
    outer loop
      vertex   5.000000e-02 -8.660254e-02  2.030000e+00
      vertex   8.365163e-02 -4.829629e-02  2.004118e+00
      vertex   4.829629e-02 -8.365163e-02  2.004118e+00
    endloop
  endfacet
  facet normal -9.582092e-01  2.567514e-01  1.261502e-01
    outer loop
      vertex   8.660254e-02 -5.000000e-02  2.030000e+00
      vertex   1.000000e-01  0.000000e+00  2.030000e+00
      vertex   9.659258e-02  0.000000e+00  2.004118e+00
    endloop
  endfacet
  facet normal -9.582093e-01  2.567514e-01  1.261500e-01
    outer loop
      vertex   8.660254e-02 -5.000000e-02  2.030000e+00
      vertex   9.659258e-02  0.000000e+00  2.004118e+00
      vertex   8.365163e-02 -4.829629e-02  2.004118e+00
    endloop
  endfacet
  facet normal -8.968093e-01 -2.402993e-01  3.714691e-01
    outer loop
      vertex   9.659258e-02  0.000000e+00  2.004118e+00
      vertex   8.365163e-02  4.829629e-02  2.004118e+00
      vertex   7.500000e-02  4.330127e-02  1.980000e+00
    endloop
  endfacet
  facet normal -8.968093e-01 -2.402992e-01  3.714693e-01
    outer loop
      vertex   9.659258e-02  0.000000e+00  2.004118e+00
      vertex   7.500000e-02  4.330127e-02  1.980000e+00
      vertex   8.660254e-02  0.000000e+00  1.980000e+00
    endloop
  endfacet
  facet normal -6.565099e-01 -6.565099e-01  3.714692e-01
    outer loop
      vertex   8.365163e-02  4.829629e-02  2.004118e+00
      vertex   4.829629e-02  8.365163e-02  2.004118e+00
      vertex   4.330127e-02  7.500000e-02  1.980000e+00
    endloop
  endfacet
  facet normal -6.565099e-01 -6.565099e-01  3.714692e-01
    outer loop
      vertex   8.365163e-02  4.829629e-02  2.004118e+00
      vertex   4.330127e-02  7.500000e-02  1.980000e+00
      vertex   7.500000e-02  4.330127e-02  1.980000e+00
    endloop
  endfacet
  facet normal -2.402993e-01 -8.968093e-01  3.714693e-01
    outer loop
      vertex   4.829629e-02  8.365163e-02  2.004118e+00
      vertex   5.914590e-18  9.659258e-02  2.004118e+00
      vertex   5.302876e-18  8.660254e-02  1.980000e+00
    endloop
  endfacet
  facet normal -2.402992e-01 -8.968093e-01  3.714691e-01
    outer loop
      vertex   4.829629e-02  8.365163e-02  2.004118e+00
      vertex   5.302876e-18  8.660254e-02  1.980000e+00
      vertex   4.330127e-02  7.500000e-02  1.980000e+00
    endloop
  endfacet
  facet normal  2.402993e-01 -8.968093e-01  3.714691e-01
    outer loop
      vertex   5.914590e-18  9.659258e-02  2.004118e+00
      vertex  -4.829629e-02  8.365163e-02  2.004118e+00
      vertex  -4.330127e-02  7.500000e-02  1.980000e+00
    endloop
  endfacet
  facet normal  2.402992e-01 -8.968093e-01  3.714693e-01
    outer loop
      vertex   5.914590e-18  9.659258e-02  2.004118e+00
      vertex  -4.330127e-02  7.500000e-02  1.980000e+00
      vertex   5.302876e-18  8.660254e-02  1.980000e+00
    endloop
  endfacet
  facet normal  6.565099e-01 -6.565099e-01  3.714692e-01
    outer loop
      vertex  -4.829629e-02  8.365163e-02  2.004118e+00
      vertex  -8.365163e-02  4.829629e-02  2.004118e+00
      vertex  -7.500000e-02  4.330127e-02  1.980000e+00
    endloop
  endfacet
  facet normal  6.565099e-01 -6.565099e-01  3.714692e-01
    outer loop
      vertex  -4.829629e-02  8.365163e-02  2.004118e+00
      vertex  -7.500000e-02  4.330127e-02  1.980000e+00
      vertex  -4.330127e-02  7.500000e-02  1.980000e+00
    endloop
  endfacet
  facet normal  8.968093e-01 -2.402993e-01  3.714693e-01
    outer loop
      vertex  -8.365163e-02  4.829629e-02  2.004118e+00
      vertex  -9.659258e-02  1.182918e-17  2.004118e+00
      vertex  -8.660254e-02  1.060575e-17  1.980000e+00
    endloop
  endfacet
  facet normal  8.968093e-01 -2.402992e-01  3.714691e-01
    outer loop
      vertex  -8.365163e-02  4.829629e-02  2.004118e+00
      vertex  -8.660254e-02  1.060575e-17  1.980000e+00
      vertex  -7.500000e-02  4.330127e-02  1.980000e+00
    endloop
  endfacet
  facet normal  8.968093e-01  2.402993e-01  3.714691e-01
    outer loop
      vertex  -9.659258e-02  1.182918e-17  2.004118e+00
      vertex  -8.365163e-02 -4.829629e-02  2.004118e+00
      vertex  -7.500000e-02 -4.330127e-02  1.980000e+00
    endloop
  endfacet
  facet normal  8.968093e-01  2.402992e-01  3.714693e-01
    outer loop
      vertex  -9.659258e-02  1.182918e-17  2.004118e+00
      vertex  -7.500000e-02 -4.330127e-02  1.980000e+00
      vertex  -8.660254e-02  1.060575e-17  1.980000e+00
    endloop
  endfacet
  facet normal  6.565099e-01  6.565099e-01  3.714692e-01
    outer loop
      vertex  -8.365163e-02 -4.829629e-02  2.004118e+00
      vertex  -4.829629e-02 -8.365163e-02  2.004118e+00
      vertex  -4.330127e-02 -7.500000e-02  1.980000e+00
    endloop
  endfacet
  facet normal  6.565099e-01  6.565099e-01  3.714692e-01
    outer loop
      vertex  -8.365163e-02 -4.829629e-02  2.004118e+00
      vertex  -4.330127e-02 -7.500000e-02  1.980000e+00
      vertex  -7.500000e-02 -4.330127e-02  1.980000e+00
    endloop
  endfacet
  facet normal  2.402993e-01  8.968093e-01  3.714693e-01
    outer loop
      vertex  -4.829629e-02 -8.365163e-02  2.004118e+00
      vertex  -1.774377e-17 -9.659258e-02  2.004118e+00
      vertex  -1.590863e-17 -8.660254e-02  1.980000e+00
    endloop
  endfacet
  facet normal  2.402992e-01  8.968093e-01  3.714691e-01
    outer loop
      vertex  -4.829629e-02 -8.365163e-02  2.004118e+00
      vertex  -1.590863e-17 -8.660254e-02  1.980000e+00
      vertex  -4.330127e-02 -7.500000e-02  1.980000e+00
    endloop
  endfacet
  facet normal -2.402993e-01  8.968093e-01  3.714691e-01
    outer loop
      vertex  -1.774377e-17 -9.659258e-02  2.004118e+00
      vertex   4.829629e-02 -8.365163e-02  2.004118e+00
      vertex   4.330127e-02 -7.500000e-02  1.980000e+00
    endloop
  endfacet
  facet normal -2.402992e-01  8.968093e-01  3.714693e-01
    outer loop
      vertex  -1.774377e-17 -9.659258e-02  2.004118e+00
      vertex   4.330127e-02 -7.500000e-02  1.980000e+00
      vertex  -1.590863e-17 -8.660254e-02  1.980000e+00
    endloop
  endfacet
  facet normal -6.565099e-01  6.565099e-01  3.714692e-01
    outer loop
      vertex   4.829629e-02 -8.365163e-02  2.004118e+00
      vertex   8.365163e-02 -4.829629e-02  2.004118e+00
      vertex   7.500000e-02 -4.330127e-02  1.980000e+00
    endloop
  endfacet
  facet normal -6.565099e-01  6.565099e-01  3.714692e-01
    outer loop
      vertex   4.829629e-02 -8.365163e-02  2.004118e+00
      vertex   7.500000e-02 -4.330127e-02  1.980000e+00
      vertex   4.330127e-02 -7.500000e-02  1.980000e+00
    endloop
  endfacet
  facet normal -8.968093e-01  2.402993e-01  3.714693e-01
    outer loop
      vertex   8.365163e-02 -4.829629e-02  2.004118e+00
      vertex   9.659258e-02  0.000000e+00  2.004118e+00
      vertex   8.660254e-02  0.000000e+00  1.980000e+00
    endloop
  endfacet
  facet normal -8.968093e-01  2.402992e-01  3.714691e-01
    outer loop
      vertex   8.365163e-02 -4.829629e-02  2.004118e+00
      vertex   8.660254e-02  0.000000e+00  1.980000e+00
      vertex   7.500000e-02 -4.330127e-02  1.980000e+00
    endloop
  endfacet
  facet normal -7.760135e-01 -2.079321e-01  5.954555e-01
    outer loop
      vertex   8.660254e-02  0.000000e+00  1.980000e+00
      vertex   7.500000e-02  4.330127e-02  1.980000e+00
      vertex   6.123724e-02  3.535534e-02  1.959289e+00
    endloop
  endfacet
  facet normal -7.760136e-01 -2.079324e-01  5.954552e-01
    outer loop
      vertex   8.660254e-02  0.000000e+00  1.980000e+00
      vertex   6.123724e-02  3.535534e-02  1.959289e+00
      vertex   7.071068e-02  0.000000e+00  1.959289e+00
    endloop
  endfacet
  facet normal -5.680813e-01 -5.680813e-01  5.954554e-01
    outer loop
      vertex   7.500000e-02  4.330127e-02  1.980000e+00
      vertex   4.330127e-02  7.500000e-02  1.980000e+00
      vertex   3.535534e-02  6.123724e-02  1.959289e+00
    endloop
  endfacet
  facet normal -5.680813e-01 -5.680814e-01  5.954555e-01
    outer loop
      vertex   7.500000e-02  4.330127e-02  1.980000e+00
      vertex   3.535534e-02  6.123724e-02  1.959289e+00
      vertex   6.123724e-02  3.535534e-02  1.959289e+00
    endloop
  endfacet
  facet normal -2.079322e-01 -7.760137e-01  5.954553e-01
    outer loop
      vertex   4.330127e-02  7.500000e-02  1.980000e+00
      vertex   5.302876e-18  8.660254e-02  1.980000e+00
      vertex   4.329780e-18  7.071068e-02  1.959289e+00
    endloop
  endfacet
  facet normal -2.079323e-01 -7.760134e-01  5.954555e-01
    outer loop
      vertex   4.330127e-02  7.500000e-02  1.980000e+00
      vertex   4.329780e-18  7.071068e-02  1.959289e+00
      vertex   3.535534e-02  6.123724e-02  1.959289e+00
    endloop
  endfacet
  facet normal  2.079321e-01 -7.760135e-01  5.954555e-01
    outer loop
      vertex   5.302876e-18  8.660254e-02  1.980000e+00
      vertex  -4.330127e-02  7.500000e-02  1.980000e+00
      vertex  -3.535534e-02  6.123724e-02  1.959289e+00
    endloop
  endfacet
  facet normal  2.079324e-01 -7.760136e-01  5.954552e-01
    outer loop
      vertex   5.302876e-18  8.660254e-02  1.980000e+00
      vertex  -3.535534e-02  6.123724e-02  1.959289e+00
      vertex   4.329780e-18  7.071068e-02  1.959289e+00
    endloop
  endfacet
  facet normal  5.680813e-01 -5.680813e-01  5.954554e-01
    outer loop
      vertex  -4.330127e-02  7.500000e-02  1.980000e+00
      vertex  -7.500000e-02  4.330127e-02  1.980000e+00
      vertex  -6.123724e-02  3.535534e-02  1.959289e+00
    endloop
  endfacet
  facet normal  5.680814e-01 -5.680813e-01  5.954555e-01
    outer loop
      vertex  -4.330127e-02  7.500000e-02  1.980000e+00
      vertex  -6.123724e-02  3.535534e-02  1.959289e+00
      vertex  -3.535534e-02  6.123724e-02  1.959289e+00
    endloop
  endfacet
  facet normal  7.760137e-01 -2.079322e-01  5.954553e-01
    outer loop
      vertex  -7.500000e-02  4.330127e-02  1.980000e+00
      vertex  -8.660254e-02  1.060575e-17  1.980000e+00
      vertex  -7.071068e-02  8.659561e-18  1.959289e+00
    endloop
  endfacet
  facet normal  7.760134e-01 -2.079323e-01  5.954555e-01
    outer loop
      vertex  -7.500000e-02  4.330127e-02  1.980000e+00
      vertex  -7.071068e-02  8.659561e-18  1.959289e+00
      vertex  -6.123724e-02  3.535534e-02  1.959289e+00
    endloop
  endfacet
  facet normal  7.760135e-01  2.079321e-01  5.954555e-01
    outer loop
      vertex  -8.660254e-02  1.060575e-17  1.980000e+00
      vertex  -7.500000e-02 -4.330127e-02  1.980000e+00
      vertex  -6.123724e-02 -3.535534e-02  1.959289e+00
    endloop
  endfacet
  facet normal  7.760136e-01  2.079324e-01  5.954552e-01
    outer loop
      vertex  -8.660254e-02  1.060575e-17  1.980000e+00
      vertex  -6.123724e-02 -3.535534e-02  1.959289e+00
      vertex  -7.071068e-02  8.659561e-18  1.959289e+00
    endloop
  endfacet
  facet normal  5.680813e-01  5.680813e-01  5.954554e-01
    outer loop
      vertex  -7.500000e-02 -4.330127e-02  1.980000e+00
      vertex  -4.330127e-02 -7.500000e-02  1.980000e+00
      vertex  -3.535534e-02 -6.123724e-02  1.959289e+00
    endloop
  endfacet
  facet normal  5.680813e-01  5.680814e-01  5.954555e-01
    outer loop
      vertex  -7.500000e-02 -4.330127e-02  1.980000e+00
      vertex  -3.535534e-02 -6.123724e-02  1.959289e+00
      vertex  -6.123724e-02 -3.535534e-02  1.959289e+00
    endloop
  endfacet
  facet normal  2.079322e-01  7.760137e-01  5.954553e-01
    outer loop
      vertex  -4.330127e-02 -7.500000e-02  1.980000e+00
      vertex  -1.590863e-17 -8.660254e-02  1.980000e+00
      vertex  -1.298934e-17 -7.071068e-02  1.959289e+00
    endloop
  endfacet
  facet normal  2.079323e-01  7.760134e-01  5.954555e-01
    outer loop
      vertex  -4.330127e-02 -7.500000e-02  1.980000e+00
      vertex  -1.298934e-17 -7.071068e-02  1.959289e+00
      vertex  -3.535534e-02 -6.123724e-02  1.959289e+00
    endloop
  endfacet
  facet normal -2.079321e-01  7.760135e-01  5.954555e-01
    outer loop
      vertex  -1.590863e-17 -8.660254e-02  1.980000e+00
      vertex   4.330127e-02 -7.500000e-02  1.980000e+00
      vertex   3.535534e-02 -6.123724e-02  1.959289e+00
    endloop
  endfacet
  facet normal -2.079324e-01  7.760136e-01  5.954552e-01
    outer loop
      vertex  -1.590863e-17 -8.660254e-02  1.980000e+00
      vertex   3.535534e-02 -6.123724e-02  1.959289e+00
      vertex  -1.298934e-17 -7.071068e-02  1.959289e+00
    endloop
  endfacet
  facet normal -5.680813e-01  5.680813e-01  5.954554e-01
    outer loop
      vertex   4.330127e-02 -7.500000e-02  1.980000e+00
      vertex   7.500000e-02 -4.330127e-02  1.980000e+00
      vertex   6.123724e-02 -3.535534e-02  1.959289e+00
    endloop
  endfacet
  facet normal -5.680814e-01  5.680813e-01  5.954555e-01
    outer loop
      vertex   4.330127e-02 -7.500000e-02  1.980000e+00
      vertex   6.123724e-02 -3.535534e-02  1.959289e+00
      vertex   3.535534e-02 -6.123724e-02  1.959289e+00
    endloop
  endfacet
  facet normal -7.760137e-01  2.079322e-01  5.954553e-01
    outer loop
      vertex   7.500000e-02 -4.330127e-02  1.980000e+00
      vertex   8.660254e-02  0.000000e+00  1.980000e+00
      vertex   7.071068e-02  0.000000e+00  1.959289e+00
    endloop
  endfacet
  facet normal -7.760134e-01  2.079323e-01  5.954555e-01
    outer loop
      vertex   7.500000e-02 -4.330127e-02  1.980000e+00
      vertex   7.071068e-02  0.000000e+00  1.959289e+00
      vertex   6.123724e-02 -3.535534e-02  1.959289e+00
    endloop
  endfacet
  facet normal -6.008192e-01 -1.609892e-01  7.830063e-01
    outer loop
      vertex   7.071068e-02  0.000000e+00  1.959289e+00
      vertex   6.123724e-02  3.535534e-02  1.959289e+00
      vertex   4.330127e-02  2.500000e-02  1.943398e+00
    endloop
  endfacet
  facet normal -6.008191e-01 -1.609890e-01  7.830064e-01
    outer loop
      vertex   7.071068e-02  0.000000e+00  1.959289e+00
      vertex   4.330127e-02  2.500000e-02  1.943398e+00
      vertex   5.000000e-02  0.000000e+00  1.943398e+00
    endloop
  endfacet
  facet normal -4.398302e-01 -4.398302e-01  7.830063e-01
    outer loop
      vertex   6.123724e-02  3.535534e-02  1.959289e+00
      vertex   3.535534e-02  6.123724e-02  1.959289e+00
      vertex   2.500000e-02  4.330127e-02  1.943398e+00
    endloop
  endfacet
  facet normal -4.398302e-01 -4.398302e-01  7.830063e-01
    outer loop
      vertex   6.123724e-02  3.535534e-02  1.959289e+00
      vertex   2.500000e-02  4.330127e-02  1.943398e+00
      vertex   4.330127e-02  2.500000e-02  1.943398e+00
    endloop
  endfacet
  facet normal -1.609891e-01 -6.008191e-01  7.830063e-01
    outer loop
      vertex   3.535534e-02  6.123724e-02  1.959289e+00
      vertex   4.329780e-18  7.071068e-02  1.959289e+00
      vertex   3.061617e-18  5.000000e-02  1.943398e+00
    endloop
  endfacet
  facet normal -1.609890e-01 -6.008192e-01  7.830063e-01
    outer loop
      vertex   3.535534e-02  6.123724e-02  1.959289e+00
      vertex   3.061617e-18  5.000000e-02  1.943398e+00
      vertex   2.500000e-02  4.330127e-02  1.943398e+00
    endloop
  endfacet
  facet normal  1.609892e-01 -6.008192e-01  7.830063e-01
    outer loop
      vertex   4.329780e-18  7.071068e-02  1.959289e+00
      vertex  -3.535534e-02  6.123724e-02  1.959289e+00
      vertex  -2.500000e-02  4.330127e-02  1.943398e+00
    endloop
  endfacet
  facet normal  1.609890e-01 -6.008191e-01  7.830064e-01
    outer loop
      vertex   4.329780e-18  7.071068e-02  1.959289e+00
      vertex  -2.500000e-02  4.330127e-02  1.943398e+00
      vertex   3.061617e-18  5.000000e-02  1.943398e+00
    endloop
  endfacet
  facet normal  4.398302e-01 -4.398302e-01  7.830063e-01
    outer loop
      vertex  -3.535534e-02  6.123724e-02  1.959289e+00
      vertex  -6.123724e-02  3.535534e-02  1.959289e+00
      vertex  -4.330127e-02  2.500000e-02  1.943398e+00
    endloop
  endfacet
  facet normal  4.398302e-01 -4.398302e-01  7.830063e-01
    outer loop
      vertex  -3.535534e-02  6.123724e-02  1.959289e+00
      vertex  -4.330127e-02  2.500000e-02  1.943398e+00
      vertex  -2.500000e-02  4.330127e-02  1.943398e+00
    endloop
  endfacet
  facet normal  6.008191e-01 -1.609891e-01  7.830063e-01
    outer loop
      vertex  -6.123724e-02  3.535534e-02  1.959289e+00
      vertex  -7.071068e-02  8.659561e-18  1.959289e+00
      vertex  -5.000000e-02  6.123234e-18  1.943398e+00
    endloop
  endfacet
  facet normal  6.008192e-01 -1.609890e-01  7.830063e-01
    outer loop
      vertex  -6.123724e-02  3.535534e-02  1.959289e+00
      vertex  -5.000000e-02  6.123234e-18  1.943398e+00
      vertex  -4.330127e-02  2.500000e-02  1.943398e+00
    endloop
  endfacet
  facet normal  6.008192e-01  1.609892e-01  7.830063e-01
    outer loop
      vertex  -7.071068e-02  8.659561e-18  1.959289e+00
      vertex  -6.123724e-02 -3.535534e-02  1.959289e+00
      vertex  -4.330127e-02 -2.500000e-02  1.943398e+00
    endloop
  endfacet
  facet normal  6.008191e-01  1.609890e-01  7.830064e-01
    outer loop
      vertex  -7.071068e-02  8.659561e-18  1.959289e+00
      vertex  -4.330127e-02 -2.500000e-02  1.943398e+00
      vertex  -5.000000e-02  6.123234e-18  1.943398e+00
    endloop
  endfacet
  facet normal  4.398302e-01  4.398302e-01  7.830063e-01
    outer loop
      vertex  -6.123724e-02 -3.535534e-02  1.959289e+00
      vertex  -3.535534e-02 -6.123724e-02  1.959289e+00
      vertex  -2.500000e-02 -4.330127e-02  1.943398e+00
    endloop
  endfacet
  facet normal  4.398302e-01  4.398302e-01  7.830063e-01
    outer loop
      vertex  -6.123724e-02 -3.535534e-02  1.959289e+00
      vertex  -2.500000e-02 -4.330127e-02  1.943398e+00
      vertex  -4.330127e-02 -2.500000e-02  1.943398e+00
    endloop
  endfacet
  facet normal  1.609891e-01  6.008191e-01  7.830063e-01
    outer loop
      vertex  -3.535534e-02 -6.123724e-02  1.959289e+00
      vertex  -1.298934e-17 -7.071068e-02  1.959289e+00
      vertex  -9.184851e-18 -5.000000e-02  1.943398e+00
    endloop
  endfacet
  facet normal  1.609890e-01  6.008192e-01  7.830063e-01
    outer loop
      vertex  -3.535534e-02 -6.123724e-02  1.959289e+00
      vertex  -9.184851e-18 -5.000000e-02  1.943398e+00
      vertex  -2.500000e-02 -4.330127e-02  1.943398e+00
    endloop
  endfacet
  facet normal -1.609892e-01  6.008192e-01  7.830063e-01
    outer loop
      vertex  -1.298934e-17 -7.071068e-02  1.959289e+00
      vertex   3.535534e-02 -6.123724e-02  1.959289e+00
      vertex   2.500000e-02 -4.330127e-02  1.943398e+00
    endloop
  endfacet
  facet normal -1.609890e-01  6.008191e-01  7.830064e-01
    outer loop
      vertex  -1.298934e-17 -7.071068e-02  1.959289e+00
      vertex   2.500000e-02 -4.330127e-02  1.943398e+00
      vertex  -9.184851e-18 -5.000000e-02  1.943398e+00
    endloop
  endfacet
  facet normal -4.398302e-01  4.398302e-01  7.830063e-01
    outer loop
      vertex   3.535534e-02 -6.123724e-02  1.959289e+00
      vertex   6.123724e-02 -3.535534e-02  1.959289e+00
      vertex   4.330127e-02 -2.500000e-02  1.943398e+00
    endloop
  endfacet
  facet normal -4.398302e-01  4.398302e-01  7.830063e-01
    outer loop
      vertex   3.535534e-02 -6.123724e-02  1.959289e+00
      vertex   4.330127e-02 -2.500000e-02  1.943398e+00
      vertex   2.500000e-02 -4.330127e-02  1.943398e+00
    endloop
  endfacet
  facet normal -6.008191e-01  1.609891e-01  7.830063e-01
    outer loop
      vertex   6.123724e-02 -3.535534e-02  1.959289e+00
      vertex   7.071068e-02  0.000000e+00  1.959289e+00
      vertex   5.000000e-02  0.000000e+00  1.943398e+00
    endloop
  endfacet
  facet normal -6.008192e-01  1.609890e-01  7.830063e-01
    outer loop
      vertex   6.123724e-02 -3.535534e-02  1.959289e+00
      vertex   5.000000e-02  0.000000e+00  1.943398e+00
      vertex   4.330127e-02 -2.500000e-02  1.943398e+00
    endloop
  endfacet
  facet normal -3.806891e-01 -1.020054e-01  9.190597e-01
    outer loop
      vertex   5.000000e-02  0.000000e+00  1.943398e+00
      vertex   4.330127e-02  2.500000e-02  1.943398e+00
      vertex   2.241439e-02  1.294095e-02  1.933407e+00
    endloop
  endfacet
  facet normal -3.806890e-01 -1.020051e-01  9.190598e-01
    outer loop
      vertex   5.000000e-02  0.000000e+00  1.943398e+00
      vertex   2.241439e-02  1.294095e-02  1.933407e+00
      vertex   2.588190e-02  0.000000e+00  1.933407e+00
    endloop
  endfacet
  facet normal -2.786838e-01 -2.786838e-01  9.190597e-01
    outer loop
      vertex   4.330127e-02  2.500000e-02  1.943398e+00
      vertex   2.500000e-02  4.330127e-02  1.943398e+00
      vertex   1.294095e-02  2.241439e-02  1.933407e+00
    endloop
  endfacet
  facet normal -2.786838e-01 -2.786838e-01  9.190597e-01
    outer loop
      vertex   4.330127e-02  2.500000e-02  1.943398e+00
      vertex   1.294095e-02  2.241439e-02  1.933407e+00
      vertex   2.241439e-02  1.294095e-02  1.933407e+00
    endloop
  endfacet
  facet normal -1.020053e-01 -3.806889e-01  9.190598e-01
    outer loop
      vertex   2.500000e-02  4.330127e-02  1.943398e+00
      vertex   3.061617e-18  5.000000e-02  1.943398e+00
      vertex   1.584810e-18  2.588190e-02  1.933407e+00
    endloop
  endfacet
  facet normal -1.020052e-01 -3.806891e-01  9.190597e-01
    outer loop
      vertex   2.500000e-02  4.330127e-02  1.943398e+00
      vertex   1.584810e-18  2.588190e-02  1.933407e+00
      vertex   1.294095e-02  2.241439e-02  1.933407e+00
    endloop
  endfacet
  facet normal  1.020054e-01 -3.806891e-01  9.190597e-01
    outer loop
      vertex   3.061617e-18  5.000000e-02  1.943398e+00
      vertex  -2.500000e-02  4.330127e-02  1.943398e+00
      vertex  -1.294095e-02  2.241439e-02  1.933407e+00
    endloop
  endfacet
  facet normal  1.020051e-01 -3.806890e-01  9.190598e-01
    outer loop
      vertex   3.061617e-18  5.000000e-02  1.943398e+00
      vertex  -1.294095e-02  2.241439e-02  1.933407e+00
      vertex   1.584810e-18  2.588190e-02  1.933407e+00
    endloop
  endfacet
  facet normal  2.786838e-01 -2.786838e-01  9.190597e-01
    outer loop
      vertex  -2.500000e-02  4.330127e-02  1.943398e+00
      vertex  -4.330127e-02  2.500000e-02  1.943398e+00
      vertex  -2.241439e-02  1.294095e-02  1.933407e+00
    endloop
  endfacet
  facet normal  2.786838e-01 -2.786838e-01  9.190597e-01
    outer loop
      vertex  -2.500000e-02  4.330127e-02  1.943398e+00
      vertex  -2.241439e-02  1.294095e-02  1.933407e+00
      vertex  -1.294095e-02  2.241439e-02  1.933407e+00
    endloop
  endfacet
  facet normal  3.806889e-01 -1.020053e-01  9.190598e-01
    outer loop
      vertex  -4.330127e-02  2.500000e-02  1.943398e+00
      vertex  -5.000000e-02  6.123234e-18  1.943398e+00
      vertex  -2.588190e-02  3.169619e-18  1.933407e+00
    endloop
  endfacet
  facet normal  3.806891e-01 -1.020052e-01  9.190597e-01
    outer loop
      vertex  -4.330127e-02  2.500000e-02  1.943398e+00
      vertex  -2.588190e-02  3.169619e-18  1.933407e+00
      vertex  -2.241439e-02  1.294095e-02  1.933407e+00
    endloop
  endfacet
  facet normal  3.806891e-01  1.020054e-01  9.190597e-01
    outer loop
      vertex  -5.000000e-02  6.123234e-18  1.943398e+00
      vertex  -4.330127e-02 -2.500000e-02  1.943398e+00
      vertex  -2.241439e-02 -1.294095e-02  1.933407e+00
    endloop
  endfacet
  facet normal  3.806890e-01  1.020051e-01  9.190598e-01
    outer loop
      vertex  -5.000000e-02  6.123234e-18  1.943398e+00
      vertex  -2.241439e-02 -1.294095e-02  1.933407e+00
      vertex  -2.588190e-02  3.169619e-18  1.933407e+00
    endloop
  endfacet
  facet normal  2.786838e-01  2.786838e-01  9.190597e-01
    outer loop
      vertex  -4.330127e-02 -2.500000e-02  1.943398e+00
      vertex  -2.500000e-02 -4.330127e-02  1.943398e+00
      vertex  -1.294095e-02 -2.241439e-02  1.933407e+00
    endloop
  endfacet
  facet normal  2.786838e-01  2.786838e-01  9.190597e-01
    outer loop
      vertex  -4.330127e-02 -2.500000e-02  1.943398e+00
      vertex  -1.294095e-02 -2.241439e-02  1.933407e+00
      vertex  -2.241439e-02 -1.294095e-02  1.933407e+00
    endloop
  endfacet
  facet normal  1.020053e-01  3.806889e-01  9.190598e-01
    outer loop
      vertex  -2.500000e-02 -4.330127e-02  1.943398e+00
      vertex  -9.184851e-18 -5.000000e-02  1.943398e+00
      vertex  -4.754429e-18 -2.588190e-02  1.933407e+00
    endloop
  endfacet
  facet normal  1.020052e-01  3.806891e-01  9.190597e-01
    outer loop
      vertex  -2.500000e-02 -4.330127e-02  1.943398e+00
      vertex  -4.754429e-18 -2.588190e-02  1.933407e+00
      vertex  -1.294095e-02 -2.241439e-02  1.933407e+00
    endloop
  endfacet
  facet normal -1.020054e-01  3.806891e-01  9.190597e-01
    outer loop
      vertex  -9.184851e-18 -5.000000e-02  1.943398e+00
      vertex   2.500000e-02 -4.330127e-02  1.943398e+00
      vertex   1.294095e-02 -2.241439e-02  1.933407e+00
    endloop
  endfacet
  facet normal -1.020051e-01  3.806890e-01  9.190598e-01
    outer loop
      vertex  -9.184851e-18 -5.000000e-02  1.943398e+00
      vertex   1.294095e-02 -2.241439e-02  1.933407e+00
      vertex  -4.754429e-18 -2.588190e-02  1.933407e+00
    endloop
  endfacet
  facet normal -2.786838e-01  2.786838e-01  9.190597e-01
    outer loop
      vertex   2.500000e-02 -4.330127e-02  1.943398e+00
      vertex   4.330127e-02 -2.500000e-02  1.943398e+00
      vertex   2.241439e-02 -1.294095e-02  1.933407e+00
    endloop
  endfacet
  facet normal -2.786838e-01  2.786838e-01  9.190597e-01
    outer loop
      vertex   2.500000e-02 -4.330127e-02  1.943398e+00
      vertex   2.241439e-02 -1.294095e-02  1.933407e+00
      vertex   1.294095e-02 -2.241439e-02  1.933407e+00
    endloop
  endfacet
  facet normal -3.806889e-01  1.020053e-01  9.190598e-01
    outer loop
      vertex   4.330127e-02 -2.500000e-02  1.943398e+00
      vertex   5.000000e-02  0.000000e+00  1.943398e+00
      vertex   2.588190e-02  0.000000e+00  1.933407e+00
    endloop
  endfacet
  facet normal -3.806891e-01  1.020052e-01  9.190597e-01
    outer loop
      vertex   4.330127e-02 -2.500000e-02  1.943398e+00
      vertex   2.588190e-02  0.000000e+00  1.933407e+00
      vertex   2.241439e-02 -1.294095e-02  1.933407e+00
    endloop
  endfacet
  facet normal -1.304443e-01 -3.495236e-02  9.908394e-01
    outer loop
      vertex   2.588190e-02  0.000000e+00  1.933407e+00
      vertex   2.241439e-02  1.294095e-02  1.933407e+00
      vertex   1.060575e-17  6.123234e-18  1.930000e+00
    endloop
  endfacet
  facet normal -9.549180e-02 -9.549180e-02  9.908393e-01
    outer loop
      vertex   2.241439e-02  1.294095e-02  1.933407e+00
      vertex   1.294095e-02  2.241439e-02  1.933407e+00
      vertex   1.060575e-17  6.123234e-18  1.930000e+00
    endloop
  endfacet
  facet normal -3.495236e-02 -1.304443e-01  9.908394e-01
    outer loop
      vertex   1.294095e-02  2.241439e-02  1.933407e+00
      vertex   1.584810e-18  2.588190e-02  1.933407e+00
      vertex   1.060575e-17  6.123234e-18  1.930000e+00
    endloop
  endfacet
  facet normal  3.495236e-02 -1.304443e-01  9.908394e-01
    outer loop
      vertex   1.584810e-18  2.588190e-02  1.933407e+00
      vertex  -1.294095e-02  2.241439e-02  1.933407e+00
      vertex   1.060575e-17  6.123234e-18  1.930000e+00
    endloop
  endfacet
  facet normal  9.549180e-02 -9.549180e-02  9.908393e-01
    outer loop
      vertex  -1.294095e-02  2.241439e-02  1.933407e+00
      vertex  -2.241439e-02  1.294095e-02  1.933407e+00
      vertex   1.060575e-17  6.123234e-18  1.930000e+00
    endloop
  endfacet
  facet normal  1.304443e-01 -3.495236e-02  9.908394e-01
    outer loop
      vertex  -2.241439e-02  1.294095e-02  1.933407e+00
      vertex  -2.588190e-02  3.169619e-18  1.933407e+00
      vertex   1.060575e-17  6.123234e-18  1.930000e+00
    endloop
  endfacet
  facet normal  1.304443e-01  3.495236e-02  9.908394e-01
    outer loop
      vertex  -2.588190e-02  3.169619e-18  1.933407e+00
      vertex  -2.241439e-02 -1.294095e-02  1.933407e+00
      vertex   1.060575e-17  6.123234e-18  1.930000e+00
    endloop
  endfacet
  facet normal  9.549180e-02  9.549180e-02  9.908393e-01
    outer loop
      vertex  -2.241439e-02 -1.294095e-02  1.933407e+00
      vertex  -1.294095e-02 -2.241439e-02  1.933407e+00
      vertex   1.060575e-17  6.123234e-18  1.930000e+00
    endloop
  endfacet
  facet normal  3.495236e-02  1.304443e-01  9.908394e-01
    outer loop
      vertex  -1.294095e-02 -2.241439e-02  1.933407e+00
      vertex  -4.754429e-18 -2.588190e-02  1.933407e+00
      vertex   1.060575e-17  6.123234e-18  1.930000e+00
    endloop
  endfacet
  facet normal -3.495236e-02  1.304443e-01  9.908394e-01
    outer loop
      vertex  -4.754429e-18 -2.588190e-02  1.933407e+00
      vertex   1.294095e-02 -2.241439e-02  1.933407e+00
      vertex   1.060575e-17  6.123234e-18  1.930000e+00
    endloop
  endfacet
  facet normal -9.549180e-02  9.549180e-02  9.908393e-01
    outer loop
      vertex   1.294095e-02 -2.241439e-02  1.933407e+00
      vertex   2.241439e-02 -1.294095e-02  1.933407e+00
      vertex   1.060575e-17  6.123234e-18  1.930000e+00
    endloop
  endfacet
  facet normal -1.304443e-01  3.495236e-02  9.908394e-01
    outer loop
      vertex   2.241439e-02 -1.294095e-02  1.933407e+00
      vertex   2.588190e-02  0.000000e+00  1.933407e+00
      vertex   1.060575e-17  6.123234e-18  1.930000e+00
    endloop
  endfacet
  facet normal  0.000000e+00  0.000000e+00  1.000000e+00
    outer loop
      vertex   1.000000e-01  0.000000e+00  0.000000e+00
      vertex   8.660254e-02  5.000000e-02  0.000000e+00
      vertex   5.000000e-02  8.660254e-02  0.000000e+00
    endloop
  endfacet
  facet normal  0.000000e+00  0.000000e+00  1.000000e+00
    outer loop
      vertex   1.000000e-01  0.000000e+00  0.000000e+00
      vertex   5.000000e-02  8.660254e-02  0.000000e+00
      vertex   6.123234e-18  1.000000e-01  0.000000e+00
    endloop
  endfacet
  facet normal  0.000000e+00  0.000000e+00  1.000000e+00
    outer loop
      vertex   1.000000e-01  0.000000e+00  0.000000e+00
      vertex   6.123234e-18  1.000000e-01  0.000000e+00
      vertex  -5.000000e-02  8.660254e-02  0.000000e+00
    endloop
  endfacet
  facet normal  0.000000e+00  0.000000e+00  1.000000e+00
    outer loop
      vertex   1.000000e-01  0.000000e+00  0.000000e+00
      vertex  -5.000000e-02  8.660254e-02  0.000000e+00
      vertex  -8.660254e-02  5.000000e-02  0.000000e+00
    endloop
  endfacet
  facet normal  0.000000e+00  0.000000e+00  1.000000e+00
    outer loop
      vertex   1.000000e-01  0.000000e+00  0.000000e+00
      vertex  -8.660254e-02  5.000000e-02  0.000000e+00
      vertex  -1.000000e-01  1.224647e-17  0.000000e+00
    endloop
  endfacet
  facet normal  0.000000e+00  0.000000e+00  1.000000e+00
    outer loop
      vertex   1.000000e-01  0.000000e+00  0.000000e+00
      vertex  -1.000000e-01  1.224647e-17  0.000000e+00
      vertex  -8.660254e-02 -5.000000e-02  0.000000e+00
    endloop
  endfacet
  facet normal  0.000000e+00  0.000000e+00  1.000000e+00
    outer loop
      vertex   1.000000e-01  0.000000e+00  0.000000e+00
      vertex  -8.660254e-02 -5.000000e-02  0.000000e+00
      vertex  -5.000000e-02 -8.660254e-02  0.000000e+00
    endloop
  endfacet
  facet normal  0.000000e+00  0.000000e+00  1.000000e+00
    outer loop
      vertex   1.000000e-01  0.000000e+00  0.000000e+00
      vertex  -5.000000e-02 -8.660254e-02  0.000000e+00
      vertex  -1.836970e-17 -1.000000e-01  0.000000e+00
    endloop
  endfacet
  facet normal  0.000000e+00  0.000000e+00  1.000000e+00
    outer loop
      vertex   1.000000e-01  0.000000e+00  0.000000e+00
      vertex  -1.836970e-17 -1.000000e-01  0.000000e+00
      vertex   5.000000e-02 -8.660254e-02  0.000000e+00
    endloop
  endfacet
  facet normal  0.000000e+00  0.000000e+00  1.000000e+00
    outer loop
      vertex   1.000000e-01  0.000000e+00  0.000000e+00
      vertex   5.000000e-02 -8.660254e-02  0.000000e+00
      vertex   8.660254e-02 -5.000000e-02  0.000000e+00
    endloop
  endfacet
  facet normal  9.659258e-01  2.588191e-01  0.000000e+00
    outer loop
      vertex   1.000000e-01  0.000000e+00  0.000000e+00
      vertex   8.660254e-02  5.000000e-02  0.000000e+00
      vertex   8.660254e-02  5.000000e-02  2.033333e+00
    endloop
  endfacet
  facet normal  9.659258e-01  2.588191e-01 -0.000000e+00
    outer loop
      vertex   1.000000e-01  0.000000e+00  0.000000e+00
      vertex   8.660254e-02  5.000000e-02  2.033333e+00
      vertex   1.000000e-01  0.000000e+00  2.033333e+00
    endloop
  endfacet
  facet normal  7.071068e-01  7.071068e-01  0.000000e+00
    outer loop
      vertex   8.660254e-02  5.000000e-02  0.000000e+00
      vertex   5.000000e-02  8.660254e-02  0.000000e+00
      vertex   5.000000e-02  8.660254e-02  2.033333e+00
    endloop
  endfacet
  facet normal  7.071068e-01  7.071068e-01 -0.000000e+00
    outer loop
      vertex   8.660254e-02  5.000000e-02  0.000000e+00
      vertex   5.000000e-02  8.660254e-02  2.033333e+00
      vertex   8.660254e-02  5.000000e-02  2.033333e+00
    endloop
  endfacet
  facet normal  2.588191e-01  9.659258e-01  0.000000e+00
    outer loop
      vertex   5.000000e-02  8.660254e-02  0.000000e+00
      vertex   6.123234e-18  1.000000e-01  0.000000e+00
      vertex   6.123234e-18  1.000000e-01  2.033333e+00
    endloop
  endfacet
  facet normal  2.588191e-01  9.659258e-01 -0.000000e+00
    outer loop
      vertex   5.000000e-02  8.660254e-02  0.000000e+00
      vertex   6.123234e-18  1.000000e-01  2.033333e+00
      vertex   5.000000e-02  8.660254e-02  2.033333e+00
    endloop
  endfacet
  facet normal -2.588191e-01  9.659258e-01  0.000000e+00
    outer loop
      vertex   6.123234e-18  1.000000e-01  0.000000e+00
      vertex  -5.000000e-02  8.660254e-02  0.000000e+00
      vertex  -5.000000e-02  8.660254e-02  2.033333e+00
    endloop
  endfacet
  facet normal -2.588191e-01  9.659258e-01  0.000000e+00
    outer loop
      vertex   6.123234e-18  1.000000e-01  0.000000e+00
      vertex  -5.000000e-02  8.660254e-02  2.033333e+00
      vertex   6.123234e-18  1.000000e-01  2.033333e+00
    endloop
  endfacet
  facet normal -7.071068e-01  7.071068e-01  0.000000e+00
    outer loop
      vertex  -5.000000e-02  8.660254e-02  0.000000e+00
      vertex  -8.660254e-02  5.000000e-02  0.000000e+00
      vertex  -8.660254e-02  5.000000e-02  2.033333e+00
    endloop
  endfacet
  facet normal -7.071068e-01  7.071068e-01  0.000000e+00
    outer loop
      vertex  -5.000000e-02  8.660254e-02  0.000000e+00
      vertex  -8.660254e-02  5.000000e-02  2.033333e+00
      vertex  -5.000000e-02  8.660254e-02  2.033333e+00
    endloop
  endfacet
  facet normal -9.659258e-01  2.588191e-01  0.000000e+00
    outer loop
      vertex  -8.660254e-02  5.000000e-02  0.000000e+00
      vertex  -1.000000e-01  1.224647e-17  0.000000e+00
      vertex  -1.000000e-01  1.224647e-17  2.033333e+00
    endloop
  endfacet
  facet normal -9.659258e-01  2.588191e-01  0.000000e+00
    outer loop
      vertex  -8.660254e-02  5.000000e-02  0.000000e+00
      vertex  -1.000000e-01  1.224647e-17  2.033333e+00
      vertex  -8.660254e-02  5.000000e-02  2.033333e+00
    endloop
  endfacet
  facet normal -9.659258e-01 -2.588191e-01  0.000000e+00
    outer loop
      vertex  -1.000000e-01  1.224647e-17  0.000000e+00
      vertex  -8.660254e-02 -5.000000e-02  0.000000e+00
      vertex  -8.660254e-02 -5.000000e-02  2.033333e+00
    endloop
  endfacet
  facet normal -9.659258e-01 -2.588191e-01  0.000000e+00
    outer loop
      vertex  -1.000000e-01  1.224647e-17  0.000000e+00
      vertex  -8.660254e-02 -5.000000e-02  2.033333e+00
      vertex  -1.000000e-01  1.224647e-17  2.033333e+00
    endloop
  endfacet
  facet normal -7.071068e-01 -7.071068e-01  0.000000e+00
    outer loop
      vertex  -8.660254e-02 -5.000000e-02  0.000000e+00
      vertex  -5.000000e-02 -8.660254e-02  0.000000e+00
      vertex  -5.000000e-02 -8.660254e-02  2.033333e+00
    endloop
  endfacet
  facet normal -7.071068e-01 -7.071068e-01  0.000000e+00
    outer loop
      vertex  -8.660254e-02 -5.000000e-02  0.000000e+00
      vertex  -5.000000e-02 -8.660254e-02  2.033333e+00
      vertex  -8.660254e-02 -5.000000e-02  2.033333e+00
    endloop
  endfacet
  facet normal -2.588191e-01 -9.659258e-01  0.000000e+00
    outer loop
      vertex  -5.000000e-02 -8.660254e-02  0.000000e+00
      vertex  -1.836970e-17 -1.000000e-01  0.000000e+00
      vertex  -1.836970e-17 -1.000000e-01  2.033333e+00
    endloop
  endfacet
  facet normal -2.588191e-01 -9.659258e-01  0.000000e+00
    outer loop
      vertex  -5.000000e-02 -8.660254e-02  0.000000e+00
      vertex  -1.836970e-17 -1.000000e-01  2.033333e+00
      vertex  -5.000000e-02 -8.660254e-02  2.033333e+00
    endloop
  endfacet
  facet normal  2.588191e-01 -9.659258e-01  0.000000e+00
    outer loop
      vertex  -1.836970e-17 -1.000000e-01  0.000000e+00
      vertex   5.000000e-02 -8.660254e-02  0.000000e+00
      vertex   5.000000e-02 -8.660254e-02  2.033333e+00
    endloop
  endfacet
  facet normal  2.588191e-01 -9.659258e-01  0.000000e+00
    outer loop
      vertex  -1.836970e-17 -1.000000e-01  0.000000e+00
      vertex   5.000000e-02 -8.660254e-02  2.033333e+00
      vertex  -1.836970e-17 -1.000000e-01  2.033333e+00
    endloop
  endfacet
  facet normal  7.071068e-01 -7.071068e-01  0.000000e+00
    outer loop
      vertex   5.000000e-02 -8.660254e-02  0.000000e+00
      vertex   8.660254e-02 -5.000000e-02  0.000000e+00
      vertex   8.660254e-02 -5.000000e-02  2.033333e+00
    endloop
  endfacet
  facet normal  7.071068e-01 -7.071068e-01  0.000000e+00
    outer loop
      vertex   5.000000e-02 -8.660254e-02  0.000000e+00
      vertex   8.660254e-02 -5.000000e-02  2.033333e+00
      vertex   5.000000e-02 -8.660254e-02  2.033333e+00
    endloop
  endfacet
  facet normal  9.659258e-01 -2.588191e-01  0.000000e+00
    outer loop
      vertex   8.660254e-02 -5.000000e-02  0.000000e+00
      vertex   1.000000e-01  0.000000e+00  0.000000e+00
      vertex   1.000000e-01  0.000000e+00  2.033333e+00
    endloop
  endfacet
  facet normal  9.659258e-01 -2.588191e-01  0.000000e+00
    outer loop
      vertex   8.660254e-02 -5.000000e-02  0.000000e+00
      vertex   1.000000e-01  0.000000e+00  2.033333e+00
      vertex   8.660254e-02 -5.000000e-02  2.033333e+00
    endloop
  endfacet
  facet normal -6.850757e-01 -8.443029e-02  7.235626e-01
    outer loop
      vertex  -5.821450e-02  0.000000e+00  2.108108e+00
      vertex   1.089938e+00  0.000000e+00  3.195189e+00
      vertex   9.078047e-01  7.500000e-01  3.110259e+00
    endloop
  endfacet
  facet normal -6.085557e-01 -2.306681e-01  7.592444e-01
    outer loop
      vertex  -5.821450e-02  0.000000e+00  2.108108e+00
      vertex   9.078047e-01  7.500000e-01  3.110259e+00
      vertex   4.102073e-01  1.299038e+00  2.878225e+00
    endloop
  endfacet
  facet normal -4.760189e-01 -3.150988e-01  8.210474e-01
    outer loop
      vertex  -5.821450e-02  0.000000e+00  2.108108e+00
      vertex   4.102073e-01  1.299038e+00  2.878225e+00
      vertex  -2.695237e-01  1.500000e+00  2.561262e+00
    endloop
  endfacet
  facet normal -3.229796e-01 -3.150988e-01  8.924108e-01
    outer loop
      vertex  -5.821450e-02  0.000000e+00  2.108108e+00
      vertex  -2.695237e-01  1.500000e+00  2.561262e+00
      vertex  -9.492544e-01  1.299038e+00  2.244298e+00
    endloop
  endfacet
  facet normal -1.904430e-01 -2.306683e-01  9.542137e-01
    outer loop
      vertex  -5.821450e-02  0.000000e+00  2.108108e+00
      vertex  -9.492544e-01  1.299038e+00  2.244298e+00
      vertex  -1.446852e+00  7.500000e-01  2.012264e+00
    endloop
  endfacet
  facet normal -1.139230e-01 -8.443044e-02  9.898955e-01
    outer loop
      vertex  -5.821450e-02  0.000000e+00  2.108108e+00
      vertex  -1.446852e+00  7.500000e-01  2.012264e+00
      vertex  -1.628985e+00  0.000000e+00  1.927334e+00
    endloop
  endfacet
  facet normal -1.139230e-01  8.443044e-02  9.898955e-01
    outer loop
      vertex  -5.821450e-02  0.000000e+00  2.108108e+00
      vertex  -1.628985e+00  0.000000e+00  1.927334e+00
      vertex  -1.446852e+00 -7.500000e-01  2.012264e+00
    endloop
  endfacet
  facet normal -1.904430e-01  2.306683e-01  9.542137e-01
    outer loop
      vertex  -5.821450e-02  0.000000e+00  2.108108e+00
      vertex  -1.446852e+00 -7.500000e-01  2.012264e+00
      vertex  -9.492544e-01 -1.299038e+00  2.244298e+00
    endloop
  endfacet
  facet normal -3.229796e-01  3.150988e-01  8.924108e-01
    outer loop
      vertex  -5.821450e-02  0.000000e+00  2.108108e+00
      vertex  -9.492544e-01 -1.299038e+00  2.244298e+00
      vertex  -2.695237e-01 -1.500000e+00  2.561262e+00
    endloop
  endfacet
  facet normal -4.760189e-01  3.150988e-01  8.210474e-01
    outer loop
      vertex  -5.821450e-02  0.000000e+00  2.108108e+00
      vertex  -2.695237e-01 -1.500000e+00  2.561262e+00
      vertex   4.102073e-01 -1.299038e+00  2.878225e+00
    endloop
  endfacet
  facet normal -6.085557e-01  2.306681e-01  7.592444e-01
    outer loop
      vertex  -5.821450e-02  0.000000e+00  2.108108e+00
      vertex   4.102073e-01 -1.299038e+00  2.878225e+00
      vertex   9.078047e-01 -7.500000e-01  3.110259e+00
    endloop
  endfacet
  facet normal -6.850757e-01  8.443029e-02  7.235626e-01
    outer loop
      vertex  -5.821450e-02  0.000000e+00  2.108108e+00
      vertex   9.078047e-01 -7.500000e-01  3.110259e+00
      vertex   1.089938e+00  0.000000e+00  3.195189e+00
    endloop
  endfacet
  facet normal  8.754264e-01  2.588193e-01  4.082171e-01
    outer loop
      vertex   1.089938e+00  0.000000e+00  3.195189e+00
      vertex   9.078047e-01  7.500000e-01  3.110259e+00
      vertex   8.655429e-01  7.500000e-01  3.200890e+00
    endloop
  endfacet
  facet normal  8.754256e-01  2.588190e-01  4.082189e-01
    outer loop
      vertex   1.089938e+00  0.000000e+00  3.195189e+00
      vertex   8.655429e-01  7.500000e-01  3.200890e+00
      vertex   1.047676e+00  0.000000e+00  3.285820e+00
    endloop
  endfacet
  facet normal  6.408564e-01  7.071068e-01  2.988362e-01
    outer loop
      vertex   9.078047e-01  7.500000e-01  3.110259e+00
      vertex   4.102073e-01  1.299038e+00  2.878225e+00
      vertex   3.679455e-01  1.299038e+00  2.968856e+00
    endloop
  endfacet
  facet normal  6.408567e-01  7.071068e-01  2.988357e-01
    outer loop
      vertex   9.078047e-01  7.500000e-01  3.110259e+00
      vertex   3.679455e-01  1.299038e+00  2.968856e+00
      vertex   8.655429e-01  7.500000e-01  3.200890e+00
    endloop
  endfacet
  facet normal  2.345698e-01  9.659258e-01  1.093817e-01
    outer loop
      vertex   4.102073e-01  1.299038e+00  2.878225e+00
      vertex  -2.695237e-01  1.500000e+00  2.561262e+00
      vertex  -3.117855e-01  1.500000e+00  2.651892e+00
    endloop
  endfacet
  facet normal  2.345698e-01  9.659259e-01  1.093817e-01
    outer loop
      vertex   4.102073e-01  1.299038e+00  2.878225e+00
      vertex  -3.117855e-01  1.500000e+00  2.651892e+00
      vertex   3.679455e-01  1.299038e+00  2.968856e+00
    endloop
  endfacet
  facet normal -2.345700e-01  9.659259e-01 -1.093815e-01
    outer loop
      vertex  -2.695237e-01  1.500000e+00  2.561262e+00
      vertex  -9.492544e-01  1.299038e+00  2.244298e+00
      vertex  -9.915162e-01  1.299038e+00  2.334929e+00
    endloop
  endfacet
  facet normal -2.345698e-01  9.659258e-01 -1.093817e-01
    outer loop
      vertex  -2.695237e-01  1.500000e+00  2.561262e+00
      vertex  -9.915162e-01  1.299038e+00  2.334929e+00
      vertex  -3.117855e-01  1.500000e+00  2.651892e+00
    endloop
  endfacet
  facet normal -6.408564e-01  7.071068e-01 -2.988362e-01
    outer loop
      vertex  -9.492544e-01  1.299038e+00  2.244298e+00
      vertex  -1.446852e+00  7.500000e-01  2.012264e+00
      vertex  -1.489114e+00  7.500000e-01  2.102895e+00
    endloop
  endfacet
  facet normal -6.408567e-01  7.071068e-01 -2.988357e-01
    outer loop
      vertex  -9.492544e-01  1.299038e+00  2.244298e+00
      vertex  -1.489114e+00  7.500000e-01  2.102895e+00
      vertex  -9.915162e-01  1.299038e+00  2.334929e+00
    endloop
  endfacet
  facet normal -8.754261e-01  2.588192e-01 -4.082180e-01
    outer loop
      vertex  -1.446852e+00  7.500000e-01  2.012264e+00
      vertex  -1.628985e+00  0.000000e+00  1.927334e+00
      vertex  -1.671247e+00  0.000000e+00  2.017965e+00
    endloop
  endfacet
  facet normal -8.754261e-01  2.588192e-01 -4.082180e-01
    outer loop
      vertex  -1.446852e+00  7.500000e-01  2.012264e+00
      vertex  -1.671247e+00  0.000000e+00  2.017965e+00
      vertex  -1.489114e+00  7.500000e-01  2.102895e+00
    endloop
  endfacet
  facet normal -8.754261e-01 -2.588192e-01 -4.082180e-01
    outer loop
      vertex  -1.628985e+00  0.000000e+00  1.927334e+00
      vertex  -1.446852e+00 -7.500000e-01  2.012264e+00
      vertex  -1.489114e+00 -7.500000e-01  2.102895e+00
    endloop
  endfacet
  facet normal -8.754261e-01 -2.588192e-01 -4.082180e-01
    outer loop
      vertex  -1.628985e+00  0.000000e+00  1.927334e+00
      vertex  -1.489114e+00 -7.500000e-01  2.102895e+00
      vertex  -1.671247e+00  0.000000e+00  2.017965e+00
    endloop
  endfacet
  facet normal -6.408567e-01 -7.071066e-01 -2.988359e-01
    outer loop
      vertex  -1.446852e+00 -7.500000e-01  2.012264e+00
      vertex  -9.492544e-01 -1.299038e+00  2.244298e+00
      vertex  -9.915162e-01 -1.299038e+00  2.334929e+00
    endloop
  endfacet
  facet normal -6.408563e-01 -7.071068e-01 -2.988364e-01
    outer loop
      vertex  -1.446852e+00 -7.500000e-01  2.012264e+00
      vertex  -9.915162e-01 -1.299038e+00  2.334929e+00
      vertex  -1.489114e+00 -7.500000e-01  2.102895e+00
    endloop
  endfacet
  facet normal -2.345697e-01 -9.659259e-01 -1.093815e-01
    outer loop
      vertex  -9.492544e-01 -1.299038e+00  2.244298e+00
      vertex  -2.695237e-01 -1.500000e+00  2.561262e+00
      vertex  -3.117855e-01 -1.500000e+00  2.651892e+00
    endloop
  endfacet
  facet normal -2.345699e-01 -9.659259e-01 -1.093815e-01
    outer loop
      vertex  -9.492544e-01 -1.299038e+00  2.244298e+00
      vertex  -3.117855e-01 -1.500000e+00  2.651892e+00
      vertex  -9.915162e-01 -1.299038e+00  2.334929e+00
    endloop
  endfacet
  facet normal  2.345697e-01 -9.659259e-01  1.093817e-01
    outer loop
      vertex  -2.695237e-01 -1.500000e+00  2.561262e+00
      vertex   4.102073e-01 -1.299038e+00  2.878225e+00
      vertex   3.679455e-01 -1.299038e+00  2.968856e+00
    endloop
  endfacet
  facet normal  2.345698e-01 -9.659258e-01  1.093817e-01
    outer loop
      vertex  -2.695237e-01 -1.500000e+00  2.561262e+00
      vertex   3.679455e-01 -1.299038e+00  2.968856e+00
      vertex  -3.117855e-01 -1.500000e+00  2.651892e+00
    endloop
  endfacet
  facet normal  6.408567e-01 -7.071066e-01  2.988359e-01
    outer loop
      vertex   4.102073e-01 -1.299038e+00  2.878225e+00
      vertex   9.078047e-01 -7.500000e-01  3.110259e+00
      vertex   8.655429e-01 -7.500000e-01  3.200890e+00
    endloop
  endfacet
  facet normal  6.408563e-01 -7.071068e-01  2.988363e-01
    outer loop
      vertex   4.102073e-01 -1.299038e+00  2.878225e+00
      vertex   8.655429e-01 -7.500000e-01  3.200890e+00
      vertex   3.679455e-01 -1.299038e+00  2.968856e+00
    endloop
  endfacet
  facet normal  8.754256e-01 -2.588193e-01  4.082189e-01
    outer loop
      vertex   9.078047e-01 -7.500000e-01  3.110259e+00
      vertex   1.089938e+00  0.000000e+00  3.195189e+00
      vertex   1.047676e+00  0.000000e+00  3.285820e+00
    endloop
  endfacet
  facet normal  8.754264e-01 -2.588190e-01  4.082171e-01
    outer loop
      vertex   9.078047e-01 -7.500000e-01  3.110259e+00
      vertex   1.047676e+00  0.000000e+00  3.285820e+00
      vertex   8.655429e-01 -7.500000e-01  3.200890e+00
    endloop
  endfacet
  facet normal -6.850756e-01 -8.443069e-02  7.235627e-01
    outer loop
      vertex  -1.004763e-01  0.000000e+00  2.198738e+00
      vertex   1.047676e+00  0.000000e+00  3.285820e+00
      vertex   8.655429e-01  7.500000e-01  3.200890e+00
    endloop
  endfacet
  facet normal -6.085558e-01 -2.306680e-01  7.592443e-01
    outer loop
      vertex  -1.004763e-01  0.000000e+00  2.198738e+00
      vertex   8.655429e-01  7.500000e-01  3.200890e+00
      vertex   3.679455e-01  1.299038e+00  2.968856e+00
    endloop
  endfacet
  facet normal -4.760190e-01 -3.150988e-01  8.210474e-01
    outer loop
      vertex  -1.004763e-01  0.000000e+00  2.198738e+00
      vertex   3.679455e-01  1.299038e+00  2.968856e+00
      vertex  -3.117855e-01  1.500000e+00  2.651892e+00
    endloop
  endfacet
  facet normal -3.229793e-01 -3.150987e-01  8.924109e-01
    outer loop
      vertex  -1.004763e-01  0.000000e+00  2.198738e+00
      vertex  -3.117855e-01  1.500000e+00  2.651892e+00
      vertex  -9.915162e-01  1.299038e+00  2.334929e+00
    endloop
  endfacet
  facet normal -1.904431e-01 -2.306685e-01  9.542136e-01
    outer loop
      vertex  -1.004763e-01  0.000000e+00  2.198738e+00
      vertex  -9.915162e-01  1.299038e+00  2.334929e+00
      vertex  -1.489114e+00  7.500000e-01  2.102895e+00
    endloop
  endfacet
  facet normal -1.139230e-01 -8.443043e-02  9.898955e-01
    outer loop
      vertex  -1.004763e-01  0.000000e+00  2.198738e+00
      vertex  -1.489114e+00  7.500000e-01  2.102895e+00
      vertex  -1.671247e+00  0.000000e+00  2.017965e+00
    endloop
  endfacet
  facet normal -1.139230e-01  8.443043e-02  9.898955e-01
    outer loop
      vertex  -1.004763e-01  0.000000e+00  2.198738e+00
      vertex  -1.671247e+00  0.000000e+00  2.017965e+00
      vertex  -1.489114e+00 -7.500000e-01  2.102895e+00
    endloop
  endfacet
  facet normal -1.904431e-01  2.306685e-01  9.542136e-01
    outer loop
      vertex  -1.004763e-01  0.000000e+00  2.198738e+00
      vertex  -1.489114e+00 -7.500000e-01  2.102895e+00
      vertex  -9.915162e-01 -1.299038e+00  2.334929e+00
    endloop
  endfacet
  facet normal -3.229793e-01  3.150987e-01  8.924109e-01
    outer loop
      vertex  -1.004763e-01  0.000000e+00  2.198738e+00
      vertex  -9.915162e-01 -1.299038e+00  2.334929e+00
      vertex  -3.117855e-01 -1.500000e+00  2.651892e+00
    endloop
  endfacet
  facet normal -4.760190e-01  3.150988e-01  8.210474e-01
    outer loop
      vertex  -1.004763e-01  0.000000e+00  2.198738e+00
      vertex  -3.117855e-01 -1.500000e+00  2.651892e+00
      vertex   3.679455e-01 -1.299038e+00  2.968856e+00
    endloop
  endfacet
  facet normal -6.085558e-01  2.306680e-01  7.592443e-01
    outer loop
      vertex  -1.004763e-01  0.000000e+00  2.198738e+00
      vertex   3.679455e-01 -1.299038e+00  2.968856e+00
      vertex   8.655429e-01 -7.500000e-01  3.200890e+00
    endloop
  endfacet
  facet normal -6.850756e-01  8.443069e-02  7.235627e-01
    outer loop
      vertex  -1.004763e-01  0.000000e+00  2.198738e+00
      vertex   8.655429e-01 -7.500000e-01  3.200890e+00
      vertex   1.047676e+00  0.000000e+00  3.285820e+00
    endloop
  endfacet
endsolid vcg
