solid STL generated by MeshLab
  facet normal  0.000000e+00  0.000000e+00  1.000000e+00
    outer loop
      vertex   1.000000e-01  0.000000e+00  0.000000e+00
      vertex   8.660254e-02  5.000000e-02  0.000000e+00
      vertex   5.000000e-02  8.660254e-02  0.000000e+00
    endloop
  endfacet
  facet normal  0.000000e+00  0.000000e+00  1.000000e+00
    outer loop
      vertex   1.000000e-01  0.000000e+00  0.000000e+00
      vertex   5.000000e-02  8.660254e-02  0.000000e+00
      vertex   6.123234e-18  1.000000e-01  0.000000e+00
    endloop
  endfacet
  facet normal  0.000000e+00  0.000000e+00  1.000000e+00
    outer loop
      vertex   1.000000e-01  0.000000e+00  0.000000e+00
      vertex   6.123234e-18  1.000000e-01  0.000000e+00
      vertex  -5.000000e-02  8.660254e-02  0.000000e+00
    endloop
  endfacet
  facet normal  0.000000e+00  0.000000e+00  1.000000e+00
    outer loop
      vertex   1.000000e-01  0.000000e+00  0.000000e+00
      vertex  -5.000000e-02  8.660254e-02  0.000000e+00
      vertex  -8.660254e-02  5.000000e-02  0.000000e+00
    endloop
  endfacet
  facet normal  0.000000e+00  0.000000e+00  1.000000e+00
    outer loop
      vertex   1.000000e-01  0.000000e+00  0.000000e+00
      vertex  -8.660254e-02  5.000000e-02  0.000000e+00
      vertex  -1.000000e-01  1.224647e-17  0.000000e+00
    endloop
  endfacet
  facet normal  0.000000e+00  0.000000e+00  1.000000e+00
    outer loop
      vertex   1.000000e-01  0.000000e+00  0.000000e+00
      vertex  -1.000000e-01  1.224647e-17  0.000000e+00
      vertex  -8.660254e-02 -5.000000e-02  0.000000e+00
    endloop
  endfacet
  facet normal  0.000000e+00  0.000000e+00  1.000000e+00
    outer loop
      vertex   1.000000e-01  0.000000e+00  0.000000e+00
      vertex  -8.660254e-02 -5.000000e-02  0.000000e+00
      vertex  -5.000000e-02 -8.660254e-02  0.000000e+00
    endloop
  endfacet
  facet normal  0.000000e+00  0.000000e+00  1.000000e+00
    outer loop
      vertex   1.000000e-01  0.000000e+00  0.000000e+00
      vertex  -5.000000e-02 -8.660254e-02  0.000000e+00
      vertex  -1.836970e-17 -1.000000e-01  0.000000e+00
    endloop
  endfacet
  facet normal  0.000000e+00  0.000000e+00  1.000000e+00
    outer loop
      vertex   1.000000e-01  0.000000e+00  0.000000e+00
      vertex  -1.836970e-17 -1.000000e-01  0.000000e+00
      vertex   5.000000e-02 -8.660254e-02  0.000000e+00
    endloop
  endfacet
  facet normal  0.000000e+00  0.000000e+00  1.000000e+00
    outer loop
      vertex   1.000000e-01  0.000000e+00  0.000000e+00
      vertex   5.000000e-02 -8.660254e-02  0.000000e+00
      vertex   8.660254e-02 -5.000000e-02  0.000000e+00
    endloop
  endfacet
  facet normal  9.659258e-01  2.588191e-01  0.000000e+00
    outer loop
      vertex   1.000000e-01  0.000000e+00  0.000000e+00
      vertex   8.660254e-02  5.000000e-02  0.000000e+00
      vertex   8.660254e-02  5.000000e-02  2.033333e+00
    endloop
  endfacet
  facet normal  9.659258e-01  2.588191e-01 -0.000000e+00
    outer loop
      vertex   1.000000e-01  0.000000e+00  0.000000e+00
      vertex   8.660254e-02  5.000000e-02  2.033333e+00
      vertex   1.000000e-01  0.000000e+00  2.033333e+00
    endloop
  endfacet
  facet normal  7.071068e-01  7.071068e-01  0.000000e+00
    outer loop
      vertex   8.660254e-02  5.000000e-02  0.000000e+00
      vertex   5.000000e-02  8.660254e-02  0.000000e+00
      vertex   5.000000e-02  8.660254e-02  2.033333e+00
    endloop
  endfacet
  facet normal  7.071068e-01  7.071068e-01 -0.000000e+00
    outer loop
      vertex   8.660254e-02  5.000000e-02  0.000000e+00
      vertex   5.000000e-02  8.660254e-02  2.033333e+00
      vertex   8.660254e-02  5.000000e-02  2.033333e+00
    endloop
  endfacet
  facet normal  2.588191e-01  9.659258e-01  0.000000e+00
    outer loop
      vertex   5.000000e-02  8.660254e-02  0.000000e+00
      vertex   6.123234e-18  1.000000e-01  0.000000e+00
      vertex   6.123234e-18  1.000000e-01  2.033333e+00
    endloop
  endfacet
  facet normal  2.588191e-01  9.659258e-01 -0.000000e+00
    outer loop
      vertex   5.000000e-02  8.660254e-02  0.000000e+00
      vertex   6.123234e-18  1.000000e-01  2.033333e+00
      vertex   5.000000e-02  8.660254e-02  2.033333e+00
    endloop
  endfacet
  facet normal -2.588191e-01  9.659258e-01  0.000000e+00
    outer loop
      vertex   6.123234e-18  1.000000e-01  0.000000e+00
      vertex  -5.000000e-02  8.660254e-02  0.000000e+00
      vertex  -5.000000e-02  8.660254e-02  2.033333e+00
    endloop
  endfacet
  facet normal -2.588191e-01  9.659258e-01  0.000000e+00
    outer loop
      vertex   6.123234e-18  1.000000e-01  0.000000e+00
      vertex  -5.000000e-02  8.660254e-02  2.033333e+00
      vertex   6.123234e-18  1.000000e-01  2.033333e+00
    endloop
  endfacet
  facet normal -7.071068e-01  7.071068e-01  0.000000e+00
    outer loop
      vertex  -5.000000e-02  8.660254e-02  0.000000e+00
      vertex  -8.660254e-02  5.000000e-02  0.000000e+00
      vertex  -8.660254e-02  5.000000e-02  2.033333e+00
    endloop
  endfacet
  facet normal -7.071068e-01  7.071068e-01  0.000000e+00
    outer loop
      vertex  -5.000000e-02  8.660254e-02  0.000000e+00
      vertex  -8.660254e-02  5.000000e-02  2.033333e+00
      vertex  -5.000000e-02  8.660254e-02  2.033333e+00
    endloop
  endfacet
  facet normal -9.659258e-01  2.588191e-01  0.000000e+00
    outer loop
      vertex  -8.660254e-02  5.000000e-02  0.000000e+00
      vertex  -1.000000e-01  1.224647e-17  0.000000e+00
      vertex  -1.000000e-01  1.224647e-17  2.033333e+00
    endloop
  endfacet
  facet normal -9.659258e-01  2.588191e-01  0.000000e+00
    outer loop
      vertex  -8.660254e-02  5.000000e-02  0.000000e+00
      vertex  -1.000000e-01  1.224647e-17  2.033333e+00
      vertex  -8.660254e-02  5.000000e-02  2.033333e+00
    endloop
  endfacet
  facet normal -9.659258e-01 -2.588191e-01  0.000000e+00
    outer loop
      vertex  -1.000000e-01  1.224647e-17  0.000000e+00
      vertex  -8.660254e-02 -5.000000e-02  0.000000e+00
      vertex  -8.660254e-02 -5.000000e-02  2.033333e+00
    endloop
  endfacet
  facet normal -9.659258e-01 -2.588191e-01  0.000000e+00
    outer loop
      vertex  -1.000000e-01  1.224647e-17  0.000000e+00
      vertex  -8.660254e-02 -5.000000e-02  2.033333e+00
      vertex  -1.000000e-01  1.224647e-17  2.033333e+00
    endloop
  endfacet
  facet normal -7.071068e-01 -7.071068e-01  0.000000e+00
    outer loop
      vertex  -8.660254e-02 -5.000000e-02  0.000000e+00
      vertex  -5.000000e-02 -8.660254e-02  0.000000e+00
      vertex  -5.000000e-02 -8.660254e-02  2.033333e+00
    endloop
  endfacet
  facet normal -7.071068e-01 -7.071068e-01  0.000000e+00
    outer loop
      vertex  -8.660254e-02 -5.000000e-02  0.000000e+00
      vertex  -5.000000e-02 -8.660254e-02  2.033333e+00
      vertex  -8.660254e-02 -5.000000e-02  2.033333e+00
    endloop
  endfacet
  facet normal -2.588191e-01 -9.659258e-01  0.000000e+00
    outer loop
      vertex  -5.000000e-02 -8.660254e-02  0.000000e+00
      vertex  -1.836970e-17 -1.000000e-01  0.000000e+00
      vertex  -1.836970e-17 -1.000000e-01  2.033333e+00
    endloop
  endfacet
  facet normal -2.588191e-01 -9.659258e-01  0.000000e+00
    outer loop
      vertex  -5.000000e-02 -8.660254e-02  0.000000e+00
      vertex  -1.836970e-17 -1.000000e-01  2.033333e+00
      vertex  -5.000000e-02 -8.660254e-02  2.033333e+00
    endloop
  endfacet
  facet normal  2.588191e-01 -9.659258e-01  0.000000e+00
    outer loop
      vertex  -1.836970e-17 -1.000000e-01  0.000000e+00
      vertex   5.000000e-02 -8.660254e-02  0.000000e+00
      vertex   5.000000e-02 -8.660254e-02  2.033333e+00
    endloop
  endfacet
  facet normal  2.588191e-01 -9.659258e-01  0.000000e+00
    outer loop
      vertex  -1.836970e-17 -1.000000e-01  0.000000e+00
      vertex   5.000000e-02 -8.660254e-02  2.033333e+00
      vertex  -1.836970e-17 -1.000000e-01  2.033333e+00
    endloop
  endfacet
  facet normal  7.071068e-01 -7.071068e-01  0.000000e+00
    outer loop
      vertex   5.000000e-02 -8.660254e-02  0.000000e+00
      vertex   8.660254e-02 -5.000000e-02  0.000000e+00
      vertex   8.660254e-02 -5.000000e-02  2.033333e+00
    endloop
  endfacet
  facet normal  7.071068e-01 -7.071068e-01  0.000000e+00
    outer loop
      vertex   5.000000e-02 -8.660254e-02  0.000000e+00
      vertex   8.660254e-02 -5.000000e-02  2.033333e+00
      vertex   5.000000e-02 -8.660254e-02  2.033333e+00
    endloop
  endfacet
  facet normal  9.659258e-01 -2.588191e-01  0.000000e+00
    outer loop
      vertex   8.660254e-02 -5.000000e-02  0.000000e+00
      vertex   1.000000e-01  0.000000e+00  0.000000e+00
      vertex   1.000000e-01  0.000000e+00  2.033333e+00
    endloop
  endfacet
  facet normal  9.659258e-01 -2.588191e-01  0.000000e+00
    outer loop
      vertex   8.660254e-02 -5.000000e-02  0.000000e+00
      vertex   1.000000e-01  0.000000e+00  2.033333e+00
      vertex   8.660254e-02 -5.000000e-02  2.033333e+00
    endloop
  endfacet
  facet normal -3.150986e-01 -8.443045e-02  9.452959e-01
    outer loop
      vertex   0.000000e+00  0.000000e+00  2.000000e+00
      vertex   1.500000e+00  0.000000e+00  2.500000e+00
      vertex   1.299038e+00  7.500000e-01  2.500000e+00
    endloop
  endfacet
  facet normal -2.306682e-01 -2.306682e-01  9.452959e-01
    outer loop
      vertex   0.000000e+00  0.000000e+00  2.000000e+00
      vertex   1.299038e+00  7.500000e-01  2.500000e+00
      vertex   7.500000e-01  1.299038e+00  2.500000e+00
    endloop
  endfacet
  facet normal -8.443045e-02 -3.150986e-01  9.452959e-01
    outer loop
      vertex   0.000000e+00  0.000000e+00  2.000000e+00
      vertex   7.500000e-01  1.299038e+00  2.500000e+00
      vertex   0.000000e+00  1.500000e+00  2.500000e+00
    endloop
  endfacet
  facet normal  8.443045e-02 -3.150986e-01  9.452959e-01
    outer loop
      vertex   0.000000e+00  0.000000e+00  2.000000e+00
      vertex   0.000000e+00  1.500000e+00  2.500000e+00
      vertex  -7.500000e-01  1.299038e+00  2.500000e+00
    endloop
  endfacet
  facet normal  2.306682e-01 -2.306682e-01  9.452959e-01
    outer loop
      vertex   0.000000e+00  0.000000e+00  2.000000e+00
      vertex  -7.500000e-01  1.299038e+00  2.500000e+00
      vertex  -1.299038e+00  7.500000e-01  2.500000e+00
    endloop
  endfacet
  facet normal  3.150986e-01 -8.443045e-02  9.452959e-01
    outer loop
      vertex   0.000000e+00  0.000000e+00  2.000000e+00
      vertex  -1.299038e+00  7.500000e-01  2.500000e+00
      vertex  -1.500000e+00  0.000000e+00  2.500000e+00
    endloop
  endfacet
  facet normal  3.150986e-01  8.443045e-02  9.452959e-01
    outer loop
      vertex   0.000000e+00  0.000000e+00  2.000000e+00
      vertex  -1.500000e+00  0.000000e+00  2.500000e+00
      vertex  -1.299038e+00 -7.500000e-01  2.500000e+00
    endloop
  endfacet
  facet normal  2.306682e-01  2.306682e-01  9.452959e-01
    outer loop
      vertex   0.000000e+00  0.000000e+00  2.000000e+00
      vertex  -1.299038e+00 -7.500000e-01  2.500000e+00
      vertex  -7.500000e-01 -1.299038e+00  2.500000e+00
    endloop
  endfacet
  facet normal  8.443045e-02  3.150986e-01  9.452959e-01
    outer loop
      vertex   0.000000e+00  0.000000e+00  2.000000e+00
      vertex  -7.500000e-01 -1.299038e+00  2.500000e+00
      vertex   0.000000e+00 -1.500000e+00  2.500000e+00
    endloop
  endfacet
  facet normal -8.443045e-02  3.150986e-01  9.452959e-01
    outer loop
      vertex   0.000000e+00  0.000000e+00  2.000000e+00
      vertex   0.000000e+00 -1.500000e+00  2.500000e+00
      vertex   7.500000e-01 -1.299038e+00  2.500000e+00
    endloop
  endfacet
  facet normal -2.306682e-01  2.306682e-01  9.452959e-01
    outer loop
      vertex   0.000000e+00  0.000000e+00  2.000000e+00
      vertex   7.500000e-01 -1.299038e+00  2.500000e+00
      vertex   1.299038e+00 -7.500000e-01  2.500000e+00
    endloop
  endfacet
  facet normal -3.150986e-01  8.443045e-02  9.452959e-01
    outer loop
      vertex   0.000000e+00  0.000000e+00  2.000000e+00
      vertex   1.299038e+00 -7.500000e-01  2.500000e+00
      vertex   1.500000e+00  0.000000e+00  2.500000e+00
    endloop
  endfacet
  facet normal  9.659259e-01  2.588191e-01  0.000000e+00
    outer loop
      vertex   1.500000e+00  0.000000e+00  2.500000e+00
      vertex   1.299038e+00  7.500000e-01  2.500000e+00
      vertex   1.299038e+00  7.500000e-01  2.600000e+00
    endloop
  endfacet
  facet normal  9.659259e-01  2.588191e-01 -0.000000e+00
    outer loop
      vertex   1.500000e+00  0.000000e+00  2.500000e+00
      vertex   1.299038e+00  7.500000e-01  2.600000e+00
      vertex   1.500000e+00  0.000000e+00  2.600000e+00
    endloop
  endfacet
  facet normal  7.071068e-01  7.071068e-01  0.000000e+00
    outer loop
      vertex   1.299038e+00  7.500000e-01  2.500000e+00
      vertex   7.500000e-01  1.299038e+00  2.500000e+00
      vertex   7.500000e-01  1.299038e+00  2.600000e+00
    endloop
  endfacet
  facet normal  7.071068e-01  7.071068e-01 -0.000000e+00
    outer loop
      vertex   1.299038e+00  7.500000e-01  2.500000e+00
      vertex   7.500000e-01  1.299038e+00  2.600000e+00
      vertex   1.299038e+00  7.500000e-01  2.600000e+00
    endloop
  endfacet
  facet normal  2.588191e-01  9.659259e-01  0.000000e+00
    outer loop
      vertex   7.500000e-01  1.299038e+00  2.500000e+00
      vertex   0.000000e+00  1.500000e+00  2.500000e+00
      vertex   0.000000e+00  1.500000e+00  2.600000e+00
    endloop
  endfacet
  facet normal  2.588191e-01  9.659259e-01 -0.000000e+00
    outer loop
      vertex   7.500000e-01  1.299038e+00  2.500000e+00
      vertex   0.000000e+00  1.500000e+00  2.600000e+00
      vertex   7.500000e-01  1.299038e+00  2.600000e+00
    endloop
  endfacet
  facet normal -2.588191e-01  9.659259e-01  0.000000e+00
    outer loop
      vertex   0.000000e+00  1.500000e+00  2.500000e+00
      vertex  -7.500000e-01  1.299038e+00  2.500000e+00
      vertex  -7.500000e-01  1.299038e+00  2.600000e+00
    endloop
  endfacet
  facet normal -2.588191e-01  9.659259e-01  0.000000e+00
    outer loop
      vertex   0.000000e+00  1.500000e+00  2.500000e+00
      vertex  -7.500000e-01  1.299038e+00  2.600000e+00
      vertex   0.000000e+00  1.500000e+00  2.600000e+00
    endloop
  endfacet
  facet normal -7.071068e-01  7.071068e-01  0.000000e+00
    outer loop
      vertex  -7.500000e-01  1.299038e+00  2.500000e+00
      vertex  -1.299038e+00  7.500000e-01  2.500000e+00
      vertex  -1.299038e+00  7.500000e-01  2.600000e+00
    endloop
  endfacet
  facet normal -7.071068e-01  7.071068e-01  0.000000e+00
    outer loop
      vertex  -7.500000e-01  1.299038e+00  2.500000e+00
      vertex  -1.299038e+00  7.500000e-01  2.600000e+00
      vertex  -7.500000e-01  1.299038e+00  2.600000e+00
    endloop
  endfacet
  facet normal -9.659259e-01  2.588191e-01  0.000000e+00
    outer loop
      vertex  -1.299038e+00  7.500000e-01  2.500000e+00
      vertex  -1.500000e+00  0.000000e+00  2.500000e+00
      vertex  -1.500000e+00  0.000000e+00  2.600000e+00
    endloop
  endfacet
  facet normal -9.659259e-01  2.588191e-01  0.000000e+00
    outer loop
      vertex  -1.299038e+00  7.500000e-01  2.500000e+00
      vertex  -1.500000e+00  0.000000e+00  2.600000e+00
      vertex  -1.299038e+00  7.500000e-01  2.600000e+00
    endloop
  endfacet
  facet normal -9.659259e-01 -2.588191e-01  0.000000e+00
    outer loop
      vertex  -1.500000e+00  0.000000e+00  2.500000e+00
      vertex  -1.299038e+00 -7.500000e-01  2.500000e+00
      vertex  -1.299038e+00 -7.500000e-01  2.600000e+00
    endloop
  endfacet
  facet normal -9.659259e-01 -2.588191e-01  0.000000e+00
    outer loop
      vertex  -1.500000e+00  0.000000e+00  2.500000e+00
      vertex  -1.299038e+00 -7.500000e-01  2.600000e+00
      vertex  -1.500000e+00  0.000000e+00  2.600000e+00
    endloop
  endfacet
  facet normal -7.071068e-01 -7.071068e-01  0.000000e+00
    outer loop
      vertex  -1.299038e+00 -7.500000e-01  2.500000e+00
      vertex  -7.500000e-01 -1.299038e+00  2.500000e+00
      vertex  -7.500000e-01 -1.299038e+00  2.600000e+00
    endloop
  endfacet
  facet normal -7.071068e-01 -7.071068e-01  0.000000e+00
    outer loop
      vertex  -1.299038e+00 -7.500000e-01  2.500000e+00
      vertex  -7.500000e-01 -1.299038e+00  2.600000e+00
      vertex  -1.299038e+00 -7.500000e-01  2.600000e+00
    endloop
  endfacet
  facet normal -2.588191e-01 -9.659259e-01  0.000000e+00
    outer loop
      vertex  -7.500000e-01 -1.299038e+00  2.500000e+00
      vertex   0.000000e+00 -1.500000e+00  2.500000e+00
      vertex   0.000000e+00 -1.500000e+00  2.600000e+00
    endloop
  endfacet
  facet normal -2.588191e-01 -9.659259e-01  0.000000e+00
    outer loop
      vertex  -7.500000e-01 -1.299038e+00  2.500000e+00
      vertex   0.000000e+00 -1.500000e+00  2.600000e+00
      vertex  -7.500000e-01 -1.299038e+00  2.600000e+00
    endloop
  endfacet
  facet normal  2.588191e-01 -9.659259e-01  0.000000e+00
    outer loop
      vertex   0.000000e+00 -1.500000e+00  2.500000e+00
      vertex   7.500000e-01 -1.299038e+00  2.500000e+00
      vertex   7.500000e-01 -1.299038e+00  2.600000e+00
    endloop
  endfacet
  facet normal  2.588191e-01 -9.659259e-01  0.000000e+00
    outer loop
      vertex   0.000000e+00 -1.500000e+00  2.500000e+00
      vertex   7.500000e-01 -1.299038e+00  2.600000e+00
      vertex   0.000000e+00 -1.500000e+00  2.600000e+00
    endloop
  endfacet
  facet normal  7.071068e-01 -7.071068e-01  0.000000e+00
    outer loop
      vertex   7.500000e-01 -1.299038e+00  2.500000e+00
      vertex   1.299038e+00 -7.500000e-01  2.500000e+00
      vertex   1.299038e+00 -7.500000e-01  2.600000e+00
    endloop
  endfacet
  facet normal  7.071068e-01 -7.071068e-01  0.000000e+00
    outer loop
      vertex   7.500000e-01 -1.299038e+00  2.500000e+00
      vertex   1.299038e+00 -7.500000e-01  2.600000e+00
      vertex   7.500000e-01 -1.299038e+00  2.600000e+00
    endloop
  endfacet
  facet normal  9.659259e-01 -2.588191e-01  0.000000e+00
    outer loop
      vertex   1.299038e+00 -7.500000e-01  2.500000e+00
      vertex   1.500000e+00  0.000000e+00  2.500000e+00
      vertex   1.500000e+00  0.000000e+00  2.600000e+00
    endloop
  endfacet
  facet normal  9.659259e-01 -2.588191e-01  0.000000e+00
    outer loop
      vertex   1.299038e+00 -7.500000e-01  2.500000e+00
      vertex   1.500000e+00  0.000000e+00  2.600000e+00
      vertex   1.299038e+00 -7.500000e-01  2.600000e+00
    endloop
  endfacet
  facet normal -3.150986e-01 -8.443045e-02  9.452959e-01
    outer loop
      vertex   0.000000e+00  0.000000e+00  2.100000e+00
      vertex   1.500000e+00  0.000000e+00  2.600000e+00
      vertex   1.299038e+00  7.500000e-01  2.600000e+00
    endloop
  endfacet
  facet normal -2.306682e-01 -2.306682e-01  9.452959e-01
    outer loop
      vertex   0.000000e+00  0.000000e+00  2.100000e+00
      vertex   1.299038e+00  7.500000e-01  2.600000e+00
      vertex   7.500000e-01  1.299038e+00  2.600000e+00
    endloop
  endfacet
  facet normal -8.443045e-02 -3.150986e-01  9.452959e-01
    outer loop
      vertex   0.000000e+00  0.000000e+00  2.100000e+00
      vertex   7.500000e-01  1.299038e+00  2.600000e+00
      vertex   0.000000e+00  1.500000e+00  2.600000e+00
    endloop
  endfacet
  facet normal  8.443045e-02 -3.150986e-01  9.452959e-01
    outer loop
      vertex   0.000000e+00  0.000000e+00  2.100000e+00
      vertex   0.000000e+00  1.500000e+00  2.600000e+00
      vertex  -7.500000e-01  1.299038e+00  2.600000e+00
    endloop
  endfacet
  facet normal  2.306682e-01 -2.306682e-01  9.452959e-01
    outer loop
      vertex   0.000000e+00  0.000000e+00  2.100000e+00
      vertex  -7.500000e-01  1.299038e+00  2.600000e+00
      vertex  -1.299038e+00  7.500000e-01  2.600000e+00
    endloop
  endfacet
  facet normal  3.150986e-01 -8.443045e-02  9.452959e-01
    outer loop
      vertex   0.000000e+00  0.000000e+00  2.100000e+00
      vertex  -1.299038e+00  7.500000e-01  2.600000e+00
      vertex  -1.500000e+00  0.000000e+00  2.600000e+00
    endloop
  endfacet
  facet normal  3.150986e-01  8.443045e-02  9.452959e-01
    outer loop
      vertex   0.000000e+00  0.000000e+00  2.100000e+00
      vertex  -1.500000e+00  0.000000e+00  2.600000e+00
      vertex  -1.299038e+00 -7.500000e-01  2.600000e+00
    endloop
  endfacet
  facet normal  2.306682e-01  2.306682e-01  9.452959e-01
    outer loop
      vertex   0.000000e+00  0.000000e+00  2.100000e+00
      vertex  -1.299038e+00 -7.500000e-01  2.600000e+00
      vertex  -7.500000e-01 -1.299038e+00  2.600000e+00
    endloop
  endfacet
  facet normal  8.443045e-02  3.150986e-01  9.452959e-01
    outer loop
      vertex   0.000000e+00  0.000000e+00  2.100000e+00
      vertex  -7.500000e-01 -1.299038e+00  2.600000e+00
      vertex   0.000000e+00 -1.500000e+00  2.600000e+00
    endloop
  endfacet
  facet normal -8.443045e-02  3.150986e-01  9.452959e-01
    outer loop
      vertex   0.000000e+00  0.000000e+00  2.100000e+00
      vertex   0.000000e+00 -1.500000e+00  2.600000e+00
      vertex   7.500000e-01 -1.299038e+00  2.600000e+00
    endloop
  endfacet
  facet normal -2.306682e-01  2.306682e-01  9.452959e-01
    outer loop
      vertex   0.000000e+00  0.000000e+00  2.100000e+00
      vertex   7.500000e-01 -1.299038e+00  2.600000e+00
      vertex   1.299038e+00 -7.500000e-01  2.600000e+00
    endloop
  endfacet
  facet normal -3.150986e-01  8.443045e-02  9.452959e-01
    outer loop
      vertex   0.000000e+00  0.000000e+00  2.100000e+00
      vertex   1.299038e+00 -7.500000e-01  2.600000e+00
      vertex   1.500000e+00  0.000000e+00  2.600000e+00
    endloop
  endfacet
endsolid vcg
