solid STL generated by MeshLab
  facet normal  1.304303e-01  3.494431e-02 -9.908414e-01
    outer loop
      vertex   5.695295e-02  4.620087e-08  2.130000e+00
      vertex   3.453803e-02 -1.294091e-02  2.126593e+00
      vertex   3.107095e-02  4.393820e-08  2.126593e+00
    endloop
  endfacet
  facet normal  9.547877e-02  9.548359e-02 -9.908414e-01
    outer loop
      vertex   5.695295e-02  4.620087e-08  2.130000e+00
      vertex   4.401195e-02 -2.241435e-02  2.126593e+00
      vertex   3.453803e-02 -1.294091e-02  2.126593e+00
    endloop
  endfacet
  facet normal  3.494852e-02  1.304308e-01 -9.908412e-01
    outer loop
      vertex   5.695295e-02  4.620087e-08  2.130000e+00
      vertex   5.695295e-02 -2.588185e-02  2.126593e+00
      vertex   4.401195e-02 -2.241435e-02  2.126593e+00
    endloop
  endfacet
  facet normal -3.494863e-02  1.304308e-01 -9.908412e-01
    outer loop
      vertex   5.695295e-02  4.620087e-08  2.130000e+00
      vertex   6.989396e-02 -2.241434e-02  2.126593e+00
      vertex   5.695295e-02 -2.588185e-02  2.126593e+00
    endloop
  endfacet
  facet normal -9.548410e-02  9.548055e-02 -9.908412e-01
    outer loop
      vertex   5.695295e-02  4.620087e-08  2.130000e+00
      vertex   7.936704e-02 -1.294090e-02  2.126593e+00
      vertex   6.989396e-02 -2.241434e-02  2.126593e+00
    endloop
  endfacet
  facet normal -1.304303e-01  3.495272e-02 -9.908412e-01
    outer loop
      vertex   5.695295e-02  4.620087e-08  2.130000e+00
      vertex   8.283496e-02  4.846354e-08  2.126593e+00
      vertex   7.936704e-02 -1.294090e-02  2.126593e+00
    endloop
  endfacet
  facet normal -1.304303e-01 -3.495271e-02 -9.908412e-01
    outer loop
      vertex   5.695295e-02  4.620087e-08  2.130000e+00
      vertex   7.936704e-02  1.294100e-02  2.126593e+00
      vertex   8.283496e-02  4.846354e-08  2.126593e+00
    endloop
  endfacet
  facet normal -9.548409e-02 -9.548052e-02 -9.908412e-01
    outer loop
      vertex   5.695295e-02  4.620087e-08  2.130000e+00
      vertex   6.989396e-02  2.241444e-02  2.126593e+00
      vertex   7.936704e-02  1.294100e-02  2.126593e+00
    endloop
  endfacet
  facet normal -3.494859e-02 -1.304308e-01 -9.908412e-01
    outer loop
      vertex   5.695295e-02  4.620087e-08  2.130000e+00
      vertex   5.695295e-02  2.588195e-02  2.126593e+00
      vertex   6.989396e-02  2.241444e-02  2.126593e+00
    endloop
  endfacet
  facet normal  3.494872e-02 -1.304308e-01 -9.908412e-01
    outer loop
      vertex   5.695295e-02  4.620087e-08  2.130000e+00
      vertex   4.401195e-02  2.241443e-02  2.126593e+00
      vertex   5.695295e-02  2.588195e-02  2.126593e+00
    endloop
  endfacet
  facet normal  9.547879e-02 -9.548365e-02 -9.908414e-01
    outer loop
      vertex   5.695295e-02  4.620087e-08  2.130000e+00
      vertex   3.453803e-02  1.294099e-02  2.126593e+00
      vertex   4.401195e-02  2.241443e-02  2.126593e+00
    endloop
  endfacet
  facet normal  1.304303e-01 -3.494434e-02 -9.908414e-01
    outer loop
      vertex   5.695295e-02  4.620087e-08  2.130000e+00
      vertex   3.107095e-02  4.393820e-08  2.126593e+00
      vertex   3.453803e-02  1.294099e-02  2.126593e+00
    endloop
  endfacet
  facet normal  3.806970e-01  1.019946e-01 -9.190576e-01
    outer loop
      vertex   3.107095e-02  4.393820e-08  2.126593e+00
      vertex   3.453803e-02 -1.294091e-02  2.126593e+00
      vertex   1.365101e-02 -2.499996e-02  2.116603e+00
    endloop
  endfacet
  facet normal  3.806953e-01  1.019961e-01 -9.190582e-01
    outer loop
      vertex   3.107095e-02  4.393820e-08  2.126593e+00
      vertex   1.365101e-02 -2.499996e-02  2.116603e+00
      vertex   6.953001e-03  4.182974e-08  2.116603e+00
    endloop
  endfacet
  facet normal  2.786785e-01  2.786925e-01 -9.190586e-01
    outer loop
      vertex   3.453803e-02 -1.294091e-02  2.126593e+00
      vertex   4.401195e-02 -2.241435e-02  2.126593e+00
      vertex   3.195298e-02 -4.330123e-02  2.116603e+00
    endloop
  endfacet
  facet normal  2.786815e-01  2.786921e-01 -9.190578e-01
    outer loop
      vertex   3.453803e-02 -1.294091e-02  2.126593e+00
      vertex   3.195298e-02 -4.330123e-02  2.116603e+00
      vertex   1.365101e-02 -2.499996e-02  2.116603e+00
    endloop
  endfacet
  facet normal  1.020053e-01  3.806927e-01 -9.190582e-01
    outer loop
      vertex   4.401195e-02 -2.241435e-02  2.126593e+00
      vertex   5.695295e-02 -2.588185e-02  2.126593e+00
      vertex   5.695295e-02 -4.999996e-02  2.116603e+00
    endloop
  endfacet
  facet normal  1.020065e-01  3.806932e-01 -9.190578e-01
    outer loop
      vertex   4.401195e-02 -2.241435e-02  2.126593e+00
      vertex   5.695295e-02 -4.999996e-02  2.116603e+00
      vertex   3.195298e-02 -4.330123e-02  2.116603e+00
    endloop
  endfacet
  facet normal -1.020057e-01  3.806930e-01 -9.190580e-01
    outer loop
      vertex   5.695295e-02 -2.588185e-02  2.126593e+00
      vertex   6.989396e-02 -2.241434e-02  2.126593e+00
      vertex   8.195305e-02 -4.330122e-02  2.116603e+00
    endloop
  endfacet
  facet normal -1.020061e-01  3.806927e-01 -9.190581e-01
    outer loop
      vertex   5.695295e-02 -2.588185e-02  2.126593e+00
      vertex   8.195305e-02 -4.330122e-02  2.116603e+00
      vertex   5.695295e-02 -4.999996e-02  2.116603e+00
    endloop
  endfacet
  facet normal -2.786896e-01  2.786792e-01 -9.190593e-01
    outer loop
      vertex   6.989396e-02 -2.241434e-02  2.126593e+00
      vertex   7.936704e-02 -1.294090e-02  2.126593e+00
      vertex   1.002541e-01 -2.499995e-02  2.116603e+00
    endloop
  endfacet
  facet normal -2.786886e-01  2.786847e-01 -9.190579e-01
    outer loop
      vertex   6.989396e-02 -2.241434e-02  2.126593e+00
      vertex   1.002541e-01 -2.499995e-02  2.116603e+00
      vertex   8.195305e-02 -4.330122e-02  2.116603e+00
    endloop
  endfacet
  facet normal -3.806928e-01  1.020181e-01 -9.190567e-01
    outer loop
      vertex   7.936704e-02 -1.294090e-02  2.126593e+00
      vertex   8.283496e-02  4.846354e-08  2.126593e+00
      vertex   1.069530e-01  5.057201e-08  2.116603e+00
    endloop
  endfacet
  facet normal -3.806895e-01  1.020090e-01 -9.190592e-01
    outer loop
      vertex   7.936704e-02 -1.294090e-02  2.126593e+00
      vertex   1.069530e-01  5.057201e-08  2.116603e+00
      vertex   1.002541e-01 -2.499995e-02  2.116603e+00
    endloop
  endfacet
  facet normal -3.806857e-01 -1.020162e-01 -9.190599e-01
    outer loop
      vertex   8.283496e-02  4.846354e-08  2.126593e+00
      vertex   7.936704e-02  1.294100e-02  2.126593e+00
      vertex   1.002541e-01  2.500005e-02  2.116603e+00
    endloop
  endfacet
  facet normal -3.806931e-01 -1.020100e-01 -9.190575e-01
    outer loop
      vertex   8.283496e-02  4.846354e-08  2.126593e+00
      vertex   1.002541e-01  2.500005e-02  2.116603e+00
      vertex   1.069530e-01  5.057201e-08  2.116603e+00
    endloop
  endfacet
  facet normal -2.786926e-01 -2.786822e-01 -9.190575e-01
    outer loop
      vertex   7.936704e-02  1.294100e-02  2.126593e+00
      vertex   6.989396e-02  2.241444e-02  2.126593e+00
      vertex   8.195305e-02  4.330132e-02  2.116603e+00
    endloop
  endfacet
  facet normal -2.786871e-01 -2.786831e-01 -9.190588e-01
    outer loop
      vertex   7.936704e-02  1.294100e-02  2.126593e+00
      vertex   8.195305e-02  4.330132e-02  2.116603e+00
      vertex   1.002541e-01  2.500005e-02  2.116603e+00
    endloop
  endfacet
  facet normal -1.020057e-01 -3.806929e-01 -9.190581e-01
    outer loop
      vertex   6.989396e-02  2.241444e-02  2.126593e+00
      vertex   5.695295e-02  2.588195e-02  2.126593e+00
      vertex   5.695295e-02  5.000005e-02  2.116603e+00
    endloop
  endfacet
  facet normal -1.020060e-01 -3.806929e-01 -9.190580e-01
    outer loop
      vertex   6.989396e-02  2.241444e-02  2.126593e+00
      vertex   5.695295e-02  5.000005e-02  2.116603e+00
      vertex   8.195305e-02  4.330132e-02  2.116603e+00
    endloop
  endfacet
  facet normal  1.020062e-01 -3.806933e-01 -9.190578e-01
    outer loop
      vertex   5.695295e-02  2.588195e-02  2.126593e+00
      vertex   4.401195e-02  2.241443e-02  2.126593e+00
      vertex   3.195298e-02  4.330131e-02  2.116603e+00
    endloop
  endfacet
  facet normal  1.020066e-01 -3.806928e-01 -9.190580e-01
    outer loop
      vertex   5.695295e-02  2.588195e-02  2.126593e+00
      vertex   3.195298e-02  4.330131e-02  2.116603e+00
      vertex   5.695295e-02  5.000005e-02  2.116603e+00
    endloop
  endfacet
  facet normal  2.786801e-01 -2.786942e-01 -9.190576e-01
    outer loop
      vertex   4.401195e-02  2.241443e-02  2.126593e+00
      vertex   3.453803e-02  1.294099e-02  2.126593e+00
      vertex   1.365101e-02  2.500004e-02  2.116603e+00
    endloop
  endfacet
  facet normal  2.786806e-01 -2.786911e-01 -9.190584e-01
    outer loop
      vertex   4.401195e-02  2.241443e-02  2.126593e+00
      vertex   1.365101e-02  2.500004e-02  2.116603e+00
      vertex   3.195298e-02  4.330131e-02  2.116603e+00
    endloop
  endfacet
  facet normal  3.806954e-01 -1.019943e-01 -9.190583e-01
    outer loop
      vertex   3.453803e-02  1.294099e-02  2.126593e+00
      vertex   3.107095e-02  4.393820e-08  2.126593e+00
      vertex   6.953001e-03  4.182974e-08  2.116603e+00
    endloop
  endfacet
  facet normal  3.806961e-01 -1.019963e-01 -9.190577e-01
    outer loop
      vertex   3.453803e-02  1.294099e-02  2.126593e+00
      vertex   6.953001e-03  4.182974e-08  2.116603e+00
      vertex   1.365101e-02  2.500004e-02  2.116603e+00
    endloop
  endfacet
  facet normal  6.008343e-01  1.609758e-01 -7.829974e-01
    outer loop
      vertex   6.953001e-03  4.182974e-08  2.116603e+00
      vertex   1.365101e-02 -2.499996e-02  2.116603e+00
      vertex  -4.284501e-03 -3.535530e-02  2.100711e+00
    endloop
  endfacet
  facet normal  6.008167e-01  1.609865e-01 -7.830087e-01
    outer loop
      vertex   6.953001e-03  4.182974e-08  2.116603e+00
      vertex  -4.284501e-03 -3.535530e-02  2.100711e+00
      vertex  -1.375782e-02  4.001915e-08  2.100711e+00
    endloop
  endfacet
  facet normal  4.398237e-01  4.398404e-01 -7.830042e-01
    outer loop
      vertex   1.365101e-02 -2.499996e-02  2.116603e+00
      vertex   3.195298e-02 -4.330123e-02  2.116603e+00
      vertex   2.159798e-02 -6.123720e-02  2.100711e+00
    endloop
  endfacet
  facet normal  4.398304e-01  4.398402e-01 -7.830005e-01
    outer loop
      vertex   1.365101e-02 -2.499996e-02  2.116603e+00
      vertex   2.159798e-02 -6.123720e-02  2.100711e+00
      vertex  -4.284501e-03 -3.535530e-02  2.100711e+00
    endloop
  endfacet
  facet normal  1.609892e-01  6.008192e-01 -7.830063e-01
    outer loop
      vertex   3.195298e-02 -4.330123e-02  2.116603e+00
      vertex   5.695295e-02 -4.999996e-02  2.116603e+00
      vertex   5.695295e-02 -7.071064e-02  2.100711e+00
    endloop
  endfacet
  facet normal  1.609910e-01  6.008201e-01 -7.830052e-01
    outer loop
      vertex   3.195298e-02 -4.330123e-02  2.116603e+00
      vertex   5.695295e-02 -7.071064e-02  2.100711e+00
      vertex   2.159798e-02 -6.123720e-02  2.100711e+00
    endloop
  endfacet
  facet normal -1.609891e-01  6.008210e-01 -7.830048e-01
    outer loop
      vertex   5.695295e-02 -4.999996e-02  2.116603e+00
      vertex   8.195305e-02 -4.330122e-02  2.116603e+00
      vertex   9.230804e-02 -6.123719e-02  2.100711e+00
    endloop
  endfacet
  facet normal -1.609903e-01  6.008191e-01 -7.830062e-01
    outer loop
      vertex   5.695295e-02 -4.999996e-02  2.116603e+00
      vertex   9.230804e-02 -6.123719e-02  2.100711e+00
      vertex   5.695295e-02 -7.071064e-02  2.100711e+00
    endloop
  endfacet
  facet normal -4.398326e-01  4.398263e-01 -7.830071e-01
    outer loop
      vertex   8.195305e-02 -4.330122e-02  2.116603e+00
      vertex   1.002541e-01 -2.499995e-02  2.116603e+00
      vertex   1.181901e-01 -3.535529e-02  2.100711e+00
    endloop
  endfacet
  facet normal -4.398324e-01  4.398342e-01 -7.830027e-01
    outer loop
      vertex   8.195305e-02 -4.330122e-02  2.116603e+00
      vertex   1.181901e-01 -3.535529e-02  2.100711e+00
      vertex   9.230804e-02 -6.123719e-02  2.100711e+00
    endloop
  endfacet
  facet normal -6.008308e-01  1.609978e-01 -7.829955e-01
    outer loop
      vertex   1.002541e-01 -2.499995e-02  2.116603e+00
      vertex   1.069530e-01  5.057201e-08  2.116603e+00
      vertex   1.276630e-01  5.238260e-08  2.100711e+00
    endloop
  endfacet
  facet normal -6.008220e-01  1.609818e-01 -7.830055e-01
    outer loop
      vertex   1.002541e-01 -2.499995e-02  2.116603e+00
      vertex   1.276630e-01  5.238260e-08  2.100711e+00
      vertex   1.181901e-01 -3.535529e-02  2.100711e+00
    endloop
  endfacet
  facet normal -6.008165e-01 -1.609940e-01 -7.830073e-01
    outer loop
      vertex   1.069530e-01  5.057201e-08  2.116603e+00
      vertex   1.002541e-01  2.500005e-02  2.116603e+00
      vertex   1.181901e-01  3.535539e-02  2.100711e+00
    endloop
  endfacet
  facet normal -6.008321e-01 -1.609845e-01 -7.829973e-01
    outer loop
      vertex   1.069530e-01  5.057201e-08  2.116603e+00
      vertex   1.181901e-01  3.535539e-02  2.100711e+00
      vertex   1.276630e-01  5.238260e-08  2.100711e+00
    endloop
  endfacet
  facet normal -4.398371e-01 -4.398308e-01 -7.830020e-01
    outer loop
      vertex   1.002541e-01  2.500005e-02  2.116603e+00
      vertex   8.195305e-02  4.330132e-02  2.116603e+00
      vertex   9.230804e-02  6.123729e-02  2.100711e+00
    endloop
  endfacet
  facet normal -4.398293e-01 -4.398310e-01 -7.830064e-01
    outer loop
      vertex   1.002541e-01  2.500005e-02  2.116603e+00
      vertex   9.230804e-02  6.123729e-02  2.100711e+00
      vertex   1.181901e-01  3.535539e-02  2.100711e+00
    endloop
  endfacet
  facet normal -1.609883e-01 -6.008191e-01 -7.830065e-01
    outer loop
      vertex   8.195305e-02  4.330132e-02  2.116603e+00
      vertex   5.695295e-02  5.000005e-02  2.116603e+00
      vertex   5.695295e-02  7.071073e-02  2.100711e+00
    endloop
  endfacet
  facet normal -1.609906e-01 -6.008204e-01 -7.830051e-01
    outer loop
      vertex   8.195305e-02  4.330132e-02  2.116603e+00
      vertex   5.695295e-02  7.071073e-02  2.100711e+00
      vertex   9.230804e-02  6.123729e-02  2.100711e+00
    endloop
  endfacet
  facet normal  1.609898e-01 -6.008207e-01 -7.830049e-01
    outer loop
      vertex   5.695295e-02  5.000005e-02  2.116603e+00
      vertex   3.195298e-02  4.330131e-02  2.116603e+00
      vertex   2.159798e-02  6.123728e-02  2.100711e+00
    endloop
  endfacet
  facet normal  1.609909e-01 -6.008189e-01 -7.830061e-01
    outer loop
      vertex   5.695295e-02  5.000005e-02  2.116603e+00
      vertex   2.159798e-02  6.123728e-02  2.100711e+00
      vertex   5.695295e-02  7.071073e-02  2.100711e+00
    endloop
  endfacet
  facet normal  4.398275e-01 -4.398442e-01 -7.829999e-01
    outer loop
      vertex   3.195298e-02  4.330131e-02  2.116603e+00
      vertex   1.365101e-02  2.500004e-02  2.116603e+00
      vertex  -4.284501e-03  3.535538e-02  2.100711e+00
    endloop
  endfacet
  facet normal  4.398277e-01 -4.398376e-01 -7.830035e-01
    outer loop
      vertex   3.195298e-02  4.330131e-02  2.116603e+00
      vertex  -4.284501e-03  3.535538e-02  2.100711e+00
      vertex   2.159798e-02  6.123728e-02  2.100711e+00
    endloop
  endfacet
  facet normal  6.008182e-01 -1.609715e-01 -7.830107e-01
    outer loop
      vertex   1.365101e-02  2.500004e-02  2.116603e+00
      vertex   6.953001e-03  4.182974e-08  2.116603e+00
      vertex  -1.375782e-02  4.001915e-08  2.100711e+00
    endloop
  endfacet
  facet normal  6.008281e-01 -1.609895e-01 -7.829993e-01
    outer loop
      vertex   1.365101e-02  2.500004e-02  2.116603e+00
      vertex  -1.375782e-02  4.001915e-08  2.100711e+00
      vertex  -4.284501e-03  3.535538e-02  2.100711e+00
    endloop
  endfacet
  facet normal  7.760215e-01  2.079319e-01 -5.954451e-01
    outer loop
      vertex  -1.375782e-02  4.001915e-08  2.100711e+00
      vertex  -4.284501e-03 -3.535530e-02  2.100711e+00
      vertex  -1.804721e-02 -4.330123e-02  2.080000e+00
    endloop
  endfacet
  facet normal  7.760216e-01  2.079319e-01 -5.954450e-01
    outer loop
      vertex  -1.375782e-02  4.001915e-08  2.100711e+00
      vertex  -1.804721e-02 -4.330123e-02  2.080000e+00
      vertex  -2.964962e-02  3.862985e-08  2.080000e+00
    endloop
  endfacet
  facet normal  5.680693e-01  5.680820e-01 -5.954663e-01
    outer loop
      vertex  -4.284501e-03 -3.535530e-02  2.100711e+00
      vertex   2.159798e-02 -6.123720e-02  2.100711e+00
      vertex   1.365101e-02 -7.499997e-02  2.080000e+00
    endloop
  endfacet
  facet normal  5.680906e-01  5.680814e-01 -5.954465e-01
    outer loop
      vertex  -4.284501e-03 -3.535530e-02  2.100711e+00
      vertex   1.365101e-02 -7.499997e-02  2.080000e+00
      vertex  -1.804721e-02 -4.330123e-02  2.080000e+00
    endloop
  endfacet
  facet normal  2.079361e-01  7.760198e-01 -5.954459e-01
    outer loop
      vertex   2.159798e-02 -6.123720e-02  2.100711e+00
      vertex   5.695295e-02 -7.071064e-02  2.100711e+00
      vertex   5.695295e-02 -8.660249e-02  2.080000e+00
    endloop
  endfacet
  facet normal  2.079292e-01  7.760161e-01 -5.954531e-01
    outer loop
      vertex   2.159798e-02 -6.123720e-02  2.100711e+00
      vertex   5.695295e-02 -8.660249e-02  2.080000e+00
      vertex   1.365101e-02 -7.499997e-02  2.080000e+00
    endloop
  endfacet
  facet normal -2.079354e-01  7.760189e-01 -5.954474e-01
    outer loop
      vertex   5.695295e-02 -7.071064e-02  2.100711e+00
      vertex   9.230804e-02 -6.123719e-02  2.100711e+00
      vertex   1.002541e-01 -7.499995e-02  2.080000e+00
    endloop
  endfacet
  facet normal -2.079347e-01  7.760201e-01 -5.954462e-01
    outer loop
      vertex   5.695295e-02 -7.071064e-02  2.100711e+00
      vertex   1.002541e-01 -7.499995e-02  2.080000e+00
      vertex   5.695295e-02 -8.660249e-02  2.080000e+00
    endloop
  endfacet
  facet normal -5.680832e-01  5.680855e-01 -5.954497e-01
    outer loop
      vertex   9.230804e-02 -6.123719e-02  2.100711e+00
      vertex   1.181901e-01 -3.535529e-02  2.100711e+00
      vertex   1.319530e-01 -4.330122e-02  2.080000e+00
    endloop
  endfacet
  facet normal -5.680831e-01  5.680869e-01 -5.954484e-01
    outer loop
      vertex   9.230804e-02 -6.123719e-02  2.100711e+00
      vertex   1.319530e-01 -4.330122e-02  2.080000e+00
      vertex   1.002541e-01 -7.499995e-02  2.080000e+00
    endloop
  endfacet
  facet normal -7.760187e-01  2.079233e-01 -5.954518e-01
    outer loop
      vertex   1.181901e-01 -3.535529e-02  2.100711e+00
      vertex   1.276630e-01  5.238260e-08  2.100711e+00
      vertex   1.435550e-01  5.377191e-08  2.080000e+00
    endloop
  endfacet
  facet normal -7.760195e-01  2.079249e-01 -5.954501e-01
    outer loop
      vertex   1.181901e-01 -3.535529e-02  2.100711e+00
      vertex   1.435550e-01  5.377191e-08  2.080000e+00
      vertex   1.319530e-01 -4.330122e-02  2.080000e+00
    endloop
  endfacet
  facet normal -7.760201e-01 -2.079237e-01 -5.954499e-01
    outer loop
      vertex   1.276630e-01  5.238260e-08  2.100711e+00
      vertex   1.181901e-01  3.535539e-02  2.100711e+00
      vertex   1.319530e-01  4.330132e-02  2.080000e+00
    endloop
  endfacet
  facet normal -7.760186e-01 -2.079246e-01 -5.954517e-01
    outer loop
      vertex   1.276630e-01  5.238260e-08  2.100711e+00
      vertex   1.319530e-01  4.330132e-02  2.080000e+00
      vertex   1.435550e-01  5.377191e-08  2.080000e+00
    endloop
  endfacet
  facet normal -5.680838e-01 -5.680861e-01 -5.954485e-01
    outer loop
      vertex   1.181901e-01  3.535539e-02  2.100711e+00
      vertex   9.230804e-02  6.123729e-02  2.100711e+00
      vertex   1.002541e-01  7.500006e-02  2.080000e+00
    endloop
  endfacet
  facet normal -5.680826e-01 -5.680861e-01 -5.954496e-01
    outer loop
      vertex   1.181901e-01  3.535539e-02  2.100711e+00
      vertex   1.002541e-01  7.500006e-02  2.080000e+00
      vertex   1.319530e-01  4.330132e-02  2.080000e+00
    endloop
  endfacet
  facet normal -2.079356e-01 -7.760199e-01 -5.954460e-01
    outer loop
      vertex   9.230804e-02  6.123729e-02  2.100711e+00
      vertex   5.695295e-02  7.071073e-02  2.100711e+00
      vertex   5.695295e-02  8.660258e-02  2.080000e+00
    endloop
  endfacet
  facet normal -2.079341e-01 -7.760192e-01 -5.954474e-01
    outer loop
      vertex   9.230804e-02  6.123729e-02  2.100711e+00
      vertex   5.695295e-02  8.660258e-02  2.080000e+00
      vertex   1.002541e-01  7.500006e-02  2.080000e+00
    endloop
  endfacet
  facet normal  2.079350e-01 -7.760141e-01 -5.954536e-01
    outer loop
      vertex   5.695295e-02  7.071073e-02  2.100711e+00
      vertex   2.159798e-02  6.123728e-02  2.100711e+00
      vertex   1.365101e-02  7.500004e-02  2.080000e+00
    endloop
  endfacet
  facet normal  2.079310e-01 -7.760207e-01 -5.954466e-01
    outer loop
      vertex   5.695295e-02  7.071073e-02  2.100711e+00
      vertex   1.365101e-02  7.500004e-02  2.080000e+00
      vertex   5.695295e-02  8.660258e-02  2.080000e+00
    endloop
  endfacet
  facet normal  5.680806e-01 -5.680934e-01 -5.954446e-01
    outer loop
      vertex   2.159798e-02  6.123728e-02  2.100711e+00
      vertex  -4.284501e-03  3.535538e-02  2.100711e+00
      vertex  -1.804721e-02  4.330131e-02  2.080000e+00
    endloop
  endfacet
  facet normal  5.680813e-01 -5.680723e-01 -5.954641e-01
    outer loop
      vertex   2.159798e-02  6.123728e-02  2.100711e+00
      vertex  -1.804721e-02  4.330131e-02  2.080000e+00
      vertex   1.365101e-02  7.500004e-02  2.080000e+00
    endloop
  endfacet
  facet normal  7.760215e-01 -2.079319e-01 -5.954450e-01
    outer loop
      vertex  -4.284501e-03  3.535538e-02  2.100711e+00
      vertex  -1.375782e-02  4.001915e-08  2.100711e+00
      vertex  -2.964962e-02  3.862985e-08  2.080000e+00
    endloop
  endfacet
  facet normal  7.760215e-01 -2.079318e-01 -5.954451e-01
    outer loop
      vertex  -4.284501e-03  3.535538e-02  2.100711e+00
      vertex  -2.964962e-02  3.862985e-08  2.080000e+00
      vertex  -1.804721e-02  4.330131e-02  2.080000e+00
    endloop
  endfacet
  facet normal  8.968105e-01  2.402968e-01 -3.714678e-01
    outer loop
      vertex  -2.964962e-02  3.862985e-08  2.080000e+00
      vertex  -1.804721e-02 -4.330123e-02  2.080000e+00
      vertex  -2.669871e-02 -4.829625e-02  2.055882e+00
    endloop
  endfacet
  facet normal  8.968062e-01  2.403006e-01 -3.714758e-01
    outer loop
      vertex  -2.964962e-02  3.862985e-08  2.080000e+00
      vertex  -2.669871e-02 -4.829625e-02  2.055882e+00
      vertex  -3.963977e-02  3.775648e-08  2.055882e+00
    endloop
  endfacet
  facet normal  6.565213e-01  6.565105e-01 -3.714482e-01
    outer loop
      vertex  -1.804721e-02 -4.330123e-02  2.080000e+00
      vertex   1.365101e-02 -7.499997e-02  2.080000e+00
      vertex   8.656979e-03 -8.365159e-02  2.055882e+00
    endloop
  endfacet
  facet normal  6.565068e-01  6.565133e-01 -3.714687e-01
    outer loop
      vertex  -1.804721e-02 -4.330123e-02  2.080000e+00
      vertex   8.656979e-03 -8.365159e-02  2.055882e+00
      vertex  -2.669871e-02 -4.829625e-02  2.055882e+00
    endloop
  endfacet
  facet normal  2.402949e-01  8.968088e-01 -3.714730e-01
    outer loop
      vertex   1.365101e-02 -7.499997e-02  2.080000e+00
      vertex   5.695295e-02 -8.660249e-02  2.080000e+00
      vertex   5.695295e-02 -9.659254e-02  2.055882e+00
    endloop
  endfacet
  facet normal  2.403014e-01  8.968111e-01 -3.714635e-01
    outer loop
      vertex   1.365101e-02 -7.499997e-02  2.080000e+00
      vertex   5.695295e-02 -9.659254e-02  2.055882e+00
      vertex   8.656979e-03 -8.365159e-02  2.055882e+00
    endloop
  endfacet
  facet normal -2.402998e-01  8.968079e-01 -3.714721e-01
    outer loop
      vertex   5.695295e-02 -8.660249e-02  2.080000e+00
      vertex   1.002541e-01 -7.499995e-02  2.080000e+00
      vertex   1.052490e-01 -8.365158e-02  2.055882e+00
    endloop
  endfacet
  facet normal -2.403000e-01  8.968077e-01 -3.714726e-01
    outer loop
      vertex   5.695295e-02 -8.660249e-02  2.080000e+00
      vertex   1.052490e-01 -8.365158e-02  2.055882e+00
      vertex   5.695295e-02 -9.659254e-02  2.055882e+00
    endloop
  endfacet
  facet normal -6.565111e-01  6.565154e-01 -3.714576e-01
    outer loop
      vertex   1.002541e-01 -7.499995e-02  2.080000e+00
      vertex   1.319530e-01 -4.330122e-02  2.080000e+00
      vertex   1.406040e-01 -4.829624e-02  2.055882e+00
    endloop
  endfacet
  facet normal -6.565129e-01  6.565060e-01 -3.714711e-01
    outer loop
      vertex   1.002541e-01 -7.499995e-02  2.080000e+00
      vertex   1.406040e-01 -4.829624e-02  2.055882e+00
      vertex   1.052490e-01 -8.365158e-02  2.055882e+00
    endloop
  endfacet
  facet normal -8.968111e-01  2.402895e-01 -3.714711e-01
    outer loop
      vertex   1.319530e-01 -4.330122e-02  2.080000e+00
      vertex   1.435550e-01  5.377191e-08  2.080000e+00
      vertex   1.535450e-01  5.464526e-08  2.055882e+00
    endloop
  endfacet
  facet normal -8.968154e-01  2.403019e-01 -3.714528e-01
    outer loop
      vertex   1.319530e-01 -4.330122e-02  2.080000e+00
      vertex   1.535450e-01  5.464526e-08  2.055882e+00
      vertex   1.406040e-01 -4.829624e-02  2.055882e+00
    endloop
  endfacet
  facet normal -8.968185e-01 -2.402915e-01 -3.714517e-01
    outer loop
      vertex   1.435550e-01  5.377191e-08  2.080000e+00
      vertex   1.319530e-01  4.330132e-02  2.080000e+00
      vertex   1.406040e-01  4.829634e-02  2.055882e+00
    endloop
  endfacet
  facet normal -8.968087e-01 -2.403001e-01 -3.714702e-01
    outer loop
      vertex   1.435550e-01  5.377191e-08  2.080000e+00
      vertex   1.406040e-01  4.829634e-02  2.055882e+00
      vertex   1.535450e-01  5.464526e-08  2.055882e+00
    endloop
  endfacet
  facet normal -6.565072e-01 -6.565114e-01 -3.714714e-01
    outer loop
      vertex   1.319530e-01  4.330132e-02  2.080000e+00
      vertex   1.002541e-01  7.500006e-02  2.080000e+00
      vertex   1.052490e-01  8.365168e-02  2.055882e+00
    endloop
  endfacet
  facet normal -6.565164e-01 -6.565096e-01 -3.714584e-01
    outer loop
      vertex   1.319530e-01  4.330132e-02  2.080000e+00
      vertex   1.052490e-01  8.365168e-02  2.055882e+00
      vertex   1.406040e-01  4.829634e-02  2.055882e+00
    endloop
  endfacet
  facet normal -2.402995e-01 -8.968079e-01 -3.714724e-01
    outer loop
      vertex   1.002541e-01  7.500006e-02  2.080000e+00
      vertex   5.695295e-02  8.660258e-02  2.080000e+00
      vertex   5.695295e-02  9.659263e-02  2.055882e+00
    endloop
  endfacet
  facet normal -2.403000e-01 -8.968081e-01 -3.714716e-01
    outer loop
      vertex   1.002541e-01  7.500006e-02  2.080000e+00
      vertex   5.695295e-02  9.659263e-02  2.055882e+00
      vertex   1.052490e-01  8.365168e-02  2.055882e+00
    endloop
  endfacet
  facet normal  2.402965e-01 -8.968124e-01 -3.714635e-01
    outer loop
      vertex   5.695295e-02  8.660258e-02  2.080000e+00
      vertex   1.365101e-02  7.500004e-02  2.080000e+00
      vertex   8.656979e-03  8.365167e-02  2.055882e+00
    endloop
  endfacet
  facet normal  2.403006e-01 -8.968077e-01 -3.714722e-01
    outer loop
      vertex   5.695295e-02  8.660258e-02  2.080000e+00
      vertex   8.656979e-03  8.365167e-02  2.055882e+00
      vertex   5.695295e-02  9.659263e-02  2.055882e+00
    endloop
  endfacet
  facet normal  6.565150e-01 -6.565046e-01 -3.714698e-01
    outer loop
      vertex   1.365101e-02  7.500004e-02  2.080000e+00
      vertex  -1.804721e-02  4.330131e-02  2.080000e+00
      vertex  -2.669871e-02  4.829633e-02  2.055882e+00
    endloop
  endfacet
  facet normal  6.565123e-01 -6.565187e-01 -3.714496e-01
    outer loop
      vertex   1.365101e-02  7.500004e-02  2.080000e+00
      vertex  -2.669871e-02  4.829633e-02  2.055882e+00
      vertex   8.656979e-03  8.365167e-02  2.055882e+00
    endloop
  endfacet
  facet normal  8.968073e-01 -2.402959e-01 -3.714763e-01
    outer loop
      vertex  -1.804721e-02  4.330131e-02  2.080000e+00
      vertex  -2.964962e-02  3.862985e-08  2.080000e+00
      vertex  -3.963977e-02  3.775648e-08  2.055882e+00
    endloop
  endfacet
  facet normal  8.968092e-01 -2.403013e-01 -3.714682e-01
    outer loop
      vertex  -1.804721e-02  4.330131e-02  2.080000e+00
      vertex  -3.963977e-02  3.775648e-08  2.055882e+00
      vertex  -2.669871e-02  4.829633e-02  2.055882e+00
    endloop
  endfacet
  facet normal  9.582086e-01  2.567534e-01 -1.261501e-01
    outer loop
      vertex  -3.963977e-02  3.775648e-08  2.055882e+00
      vertex  -2.669871e-02 -4.829625e-02  2.055882e+00
      vertex  -2.964962e-02 -4.999996e-02  2.030000e+00
    endloop
  endfacet
  facet normal  9.582097e-01  2.567514e-01 -1.261458e-01
    outer loop
      vertex  -3.963977e-02  3.775648e-08  2.055882e+00
      vertex  -2.964962e-02 -4.999996e-02  2.030000e+00
      vertex  -4.304707e-02  3.745861e-08  2.030000e+00
    endloop
  endfacet
  facet normal  7.014537e-01  7.014607e-01 -1.261576e-01
    outer loop
      vertex  -2.669871e-02 -4.829625e-02  2.055882e+00
      vertex   8.656979e-03 -8.365159e-02  2.055882e+00
      vertex   6.953001e-03 -8.660250e-02  2.030000e+00
    endloop
  endfacet
  facet normal  7.014571e-01  7.014586e-01 -1.261500e-01
    outer loop
      vertex  -2.669871e-02 -4.829625e-02  2.055882e+00
      vertex   6.953001e-03 -8.660250e-02  2.030000e+00
      vertex  -2.964962e-02 -4.999996e-02  2.030000e+00
    endloop
  endfacet
  facet normal  2.567529e-01  9.582088e-01 -1.261501e-01
    outer loop
      vertex   8.656979e-03 -8.365159e-02  2.055882e+00
      vertex   5.695295e-02 -9.659254e-02  2.055882e+00
      vertex   5.695295e-02 -9.999996e-02  2.030000e+00
    endloop
  endfacet
  facet normal  2.567514e-01  9.582089e-01 -1.261529e-01
    outer loop
      vertex   8.656979e-03 -8.365159e-02  2.055882e+00
      vertex   5.695295e-02 -9.999996e-02  2.030000e+00
      vertex   6.953001e-03 -8.660250e-02  2.030000e+00
    endloop
  endfacet
  facet normal -2.567524e-01  9.582086e-01 -1.261527e-01
    outer loop
      vertex   5.695295e-02 -9.659254e-02  2.055882e+00
      vertex   1.052490e-01 -8.365158e-02  2.055882e+00
      vertex   1.069530e-01 -8.660249e-02  2.030000e+00
    endloop
  endfacet
  facet normal -2.567512e-01  9.582092e-01 -1.261502e-01
    outer loop
      vertex   5.695295e-02 -9.659254e-02  2.055882e+00
      vertex   1.069530e-01 -8.660249e-02  2.030000e+00
      vertex   5.695295e-02 -9.999996e-02  2.030000e+00
    endloop
  endfacet
  facet normal -7.014612e-01  7.014539e-01 -1.261534e-01
    outer loop
      vertex   1.052490e-01 -8.365158e-02  2.055882e+00
      vertex   1.406040e-01 -4.829624e-02  2.055882e+00
      vertex   1.435550e-01 -4.999995e-02  2.030000e+00
    endloop
  endfacet
  facet normal -7.014622e-01  7.014523e-01 -1.261570e-01
    outer loop
      vertex   1.052490e-01 -8.365158e-02  2.055882e+00
      vertex   1.435550e-01 -4.999995e-02  2.030000e+00
      vertex   1.069530e-01 -8.660249e-02  2.030000e+00
    endloop
  endfacet
  facet normal -9.582065e-01  2.567517e-01 -1.261697e-01
    outer loop
      vertex   1.406040e-01 -4.829624e-02  2.055882e+00
      vertex   1.535450e-01  5.464526e-08  2.055882e+00
      vertex   1.569530e-01  5.494315e-08  2.030000e+00
    endloop
  endfacet
  facet normal -9.582064e-01  2.567597e-01 -1.261547e-01
    outer loop
      vertex   1.406040e-01 -4.829624e-02  2.055882e+00
      vertex   1.569530e-01  5.494315e-08  2.030000e+00
      vertex   1.435550e-01 -4.999995e-02  2.030000e+00
    endloop
  endfacet
  facet normal -9.582084e-01 -2.567522e-01 -1.261544e-01
    outer loop
      vertex   1.535450e-01  5.464526e-08  2.055882e+00
      vertex   1.406040e-01  4.829634e-02  2.055882e+00
      vertex   1.435550e-01  5.000005e-02  2.030000e+00
    endloop
  endfacet
  facet normal -9.582045e-01 -2.567592e-01 -1.261694e-01
    outer loop
      vertex   1.535450e-01  5.464526e-08  2.055882e+00
      vertex   1.435550e-01  5.000005e-02  2.030000e+00
      vertex   1.569530e-01  5.494315e-08  2.030000e+00
    endloop
  endfacet
  facet normal -7.014608e-01 -7.014536e-01 -1.261573e-01
    outer loop
      vertex   1.406040e-01  4.829634e-02  2.055882e+00
      vertex   1.052490e-01  8.365168e-02  2.055882e+00
      vertex   1.069530e-01  8.660259e-02  2.030000e+00
    endloop
  endfacet
  facet normal -7.014624e-01 -7.014525e-01 -1.261535e-01
    outer loop
      vertex   1.406040e-01  4.829634e-02  2.055882e+00
      vertex   1.069530e-01  8.660259e-02  2.030000e+00
      vertex   1.435550e-01  5.000005e-02  2.030000e+00
    endloop
  endfacet
  facet normal -2.567524e-01 -9.582092e-01 -1.261485e-01
    outer loop
      vertex   1.052490e-01  8.365168e-02  2.055882e+00
      vertex   5.695295e-02  9.659263e-02  2.055882e+00
      vertex   5.695295e-02  1.000000e-01  2.030000e+00
    endloop
  endfacet
  facet normal -2.567501e-01 -9.582092e-01 -1.261529e-01
    outer loop
      vertex   1.052490e-01  8.365168e-02  2.055882e+00
      vertex   5.695295e-02  1.000000e-01  2.030000e+00
      vertex   1.069530e-01  8.660259e-02  2.030000e+00
    endloop
  endfacet
  facet normal  2.567529e-01 -9.582084e-01 -1.261530e-01
    outer loop
      vertex   5.695295e-02  9.659263e-02  2.055882e+00
      vertex   8.656979e-03  8.365167e-02  2.055882e+00
      vertex   6.953001e-03  8.660258e-02  2.030000e+00
    endloop
  endfacet
  facet normal  2.567509e-01 -9.582095e-01 -1.261486e-01
    outer loop
      vertex   5.695295e-02  9.659263e-02  2.055882e+00
      vertex   6.953001e-03  8.660258e-02  2.030000e+00
      vertex   5.695295e-02  1.000000e-01  2.030000e+00
    endloop
  endfacet
  facet normal  7.014544e-01 -7.014613e-01 -1.261500e-01
    outer loop
      vertex   8.656979e-03  8.365167e-02  2.055882e+00
      vertex  -2.669871e-02  4.829633e-02  2.055882e+00
      vertex  -2.964962e-02  5.000004e-02  2.030000e+00
    endloop
  endfacet
  facet normal  7.014564e-01 -7.014579e-01 -1.261575e-01
    outer loop
      vertex   8.656979e-03  8.365167e-02  2.055882e+00
      vertex  -2.964962e-02  5.000004e-02  2.030000e+00
      vertex   6.953001e-03  8.660258e-02  2.030000e+00
    endloop
  endfacet
  facet normal  9.582092e-01 -2.567536e-01 -1.261458e-01
    outer loop
      vertex  -2.669871e-02  4.829633e-02  2.055882e+00
      vertex  -3.963977e-02  3.775648e-08  2.055882e+00
      vertex  -4.304707e-02  3.745861e-08  2.030000e+00
    endloop
  endfacet
  facet normal  9.582092e-01 -2.567513e-01 -1.261501e-01
    outer loop
      vertex  -2.669871e-02  4.829633e-02  2.055882e+00
      vertex  -4.304707e-02  3.745861e-08  2.030000e+00
      vertex  -2.964962e-02  5.000004e-02  2.030000e+00
    endloop
  endfacet
  facet normal  9.582092e-01  2.567513e-01  1.261500e-01
    outer loop
      vertex  -4.304707e-02  3.745861e-08  2.030000e+00
      vertex  -2.964962e-02 -4.999996e-02  2.030000e+00
      vertex  -2.669871e-02 -4.829625e-02  2.004118e+00
    endloop
  endfacet
  facet normal  9.582092e-01  2.567536e-01  1.261458e-01
    outer loop
      vertex  -4.304707e-02  3.745861e-08  2.030000e+00
      vertex  -2.669871e-02 -4.829625e-02  2.004118e+00
      vertex  -3.963977e-02  3.775648e-08  2.004118e+00
    endloop
  endfacet
  facet normal  7.014565e-01  7.014579e-01  1.261574e-01
    outer loop
      vertex  -2.964962e-02 -4.999996e-02  2.030000e+00
      vertex   6.953001e-03 -8.660250e-02  2.030000e+00
      vertex   8.656979e-03 -8.365159e-02  2.004118e+00
    endloop
  endfacet
  facet normal  7.014544e-01  7.014613e-01  1.261499e-01
    outer loop
      vertex  -2.964962e-02 -4.999996e-02  2.030000e+00
      vertex   8.656979e-03 -8.365159e-02  2.004118e+00
      vertex  -2.669871e-02 -4.829625e-02  2.004118e+00
    endloop
  endfacet
  facet normal  2.567515e-01  9.582092e-01  1.261502e-01
    outer loop
      vertex   6.953001e-03 -8.660250e-02  2.030000e+00
      vertex   5.695295e-02 -9.999996e-02  2.030000e+00
      vertex   5.695295e-02 -9.659254e-02  2.004118e+00
    endloop
  endfacet
  facet normal  2.567528e-01  9.582085e-01  1.261530e-01
    outer loop
      vertex   6.953001e-03 -8.660250e-02  2.030000e+00
      vertex   5.695295e-02 -9.659254e-02  2.004118e+00
      vertex   8.656979e-03 -8.365159e-02  2.004118e+00
    endloop
  endfacet
  facet normal -2.567511e-01  9.582090e-01  1.261526e-01
    outer loop
      vertex   5.695295e-02 -9.999996e-02  2.030000e+00
      vertex   1.069530e-01 -8.660249e-02  2.030000e+00
      vertex   1.052490e-01 -8.365158e-02  2.004118e+00
    endloop
  endfacet
  facet normal -2.567525e-01  9.582089e-01  1.261502e-01
    outer loop
      vertex   5.695295e-02 -9.999996e-02  2.030000e+00
      vertex   1.052490e-01 -8.365158e-02  2.004118e+00
      vertex   5.695295e-02 -9.659254e-02  2.004118e+00
    endloop
  endfacet
  facet normal -7.014625e-01  7.014526e-01  1.261534e-01
    outer loop
      vertex   1.069530e-01 -8.660249e-02  2.030000e+00
      vertex   1.435550e-01 -4.999995e-02  2.030000e+00
      vertex   1.406040e-01 -4.829624e-02  2.004118e+00
    endloop
  endfacet
  facet normal -7.014608e-01  7.014536e-01  1.261570e-01
    outer loop
      vertex   1.069530e-01 -8.660249e-02  2.030000e+00
      vertex   1.406040e-01 -4.829624e-02  2.004118e+00
      vertex   1.052490e-01 -8.365158e-02  2.004118e+00
    endloop
  endfacet
  facet normal -9.582046e-01  2.567592e-01  1.261694e-01
    outer loop
      vertex   1.435550e-01 -4.999995e-02  2.030000e+00
      vertex   1.569530e-01  5.494315e-08  2.030000e+00
      vertex   1.535450e-01  5.464526e-08  2.004118e+00
    endloop
  endfacet
  facet normal -9.582084e-01  2.567521e-01  1.261544e-01
    outer loop
      vertex   1.435550e-01 -4.999995e-02  2.030000e+00
      vertex   1.535450e-01  5.464526e-08  2.004118e+00
      vertex   1.406040e-01 -4.829624e-02  2.004118e+00
    endloop
  endfacet
  facet normal -9.582064e-01 -2.567597e-01  1.261547e-01
    outer loop
      vertex   1.569530e-01  5.494315e-08  2.030000e+00
      vertex   1.435550e-01  5.000005e-02  2.030000e+00
      vertex   1.406040e-01  4.829634e-02  2.004118e+00
    endloop
  endfacet
  facet normal -9.582065e-01 -2.567517e-01  1.261697e-01
    outer loop
      vertex   1.569530e-01  5.494315e-08  2.030000e+00
      vertex   1.406040e-01  4.829634e-02  2.004118e+00
      vertex   1.535450e-01  5.464526e-08  2.004118e+00
    endloop
  endfacet
  facet normal -7.014622e-01 -7.014522e-01  1.261573e-01
    outer loop
      vertex   1.435550e-01  5.000005e-02  2.030000e+00
      vertex   1.069530e-01  8.660259e-02  2.030000e+00
      vertex   1.052490e-01  8.365168e-02  2.004118e+00
    endloop
  endfacet
  facet normal -7.014611e-01 -7.014539e-01  1.261534e-01
    outer loop
      vertex   1.435550e-01  5.000005e-02  2.030000e+00
      vertex   1.052490e-01  8.365168e-02  2.004118e+00
      vertex   1.406040e-01  4.829634e-02  2.004118e+00
    endloop
  endfacet
  facet normal -2.567502e-01 -9.582097e-01  1.261486e-01
    outer loop
      vertex   1.069530e-01  8.660259e-02  2.030000e+00
      vertex   5.695295e-02  1.000000e-01  2.030000e+00
      vertex   5.695295e-02  9.659263e-02  2.004118e+00
    endloop
  endfacet
  facet normal -2.567522e-01 -9.582086e-01  1.261529e-01
    outer loop
      vertex   1.069530e-01  8.660259e-02  2.030000e+00
      vertex   5.695295e-02  9.659263e-02  2.004118e+00
      vertex   1.052490e-01  8.365168e-02  2.004118e+00
    endloop
  endfacet
  facet normal  2.567508e-01 -9.582090e-01  1.261529e-01
    outer loop
      vertex   5.695295e-02  1.000000e-01  2.030000e+00
      vertex   6.953001e-03  8.660258e-02  2.030000e+00
      vertex   8.656979e-03  8.365167e-02  2.004118e+00
    endloop
  endfacet
  facet normal  2.567531e-01 -9.582090e-01  1.261485e-01
    outer loop
      vertex   5.695295e-02  1.000000e-01  2.030000e+00
      vertex   8.656979e-03  8.365167e-02  2.004118e+00
      vertex   5.695295e-02  9.659263e-02  2.004118e+00
    endloop
  endfacet
  facet normal  7.014571e-01 -7.014585e-01  1.261501e-01
    outer loop
      vertex   6.953001e-03  8.660258e-02  2.030000e+00
      vertex  -2.964962e-02  5.000004e-02  2.030000e+00
      vertex  -2.669871e-02  4.829633e-02  2.004118e+00
    endloop
  endfacet
  facet normal  7.014537e-01 -7.014606e-01  1.261576e-01
    outer loop
      vertex   6.953001e-03  8.660258e-02  2.030000e+00
      vertex  -2.669871e-02  4.829633e-02  2.004118e+00
      vertex   8.656979e-03  8.365167e-02  2.004118e+00
    endloop
  endfacet
  facet normal  9.582098e-01 -2.567514e-01  1.261458e-01
    outer loop
      vertex  -2.964962e-02  5.000004e-02  2.030000e+00
      vertex  -4.304707e-02  3.745861e-08  2.030000e+00
      vertex  -3.963977e-02  3.775648e-08  2.004118e+00
    endloop
  endfacet
  facet normal  9.582087e-01 -2.567534e-01  1.261501e-01
    outer loop
      vertex  -2.964962e-02  5.000004e-02  2.030000e+00
      vertex  -3.963977e-02  3.775648e-08  2.004118e+00
      vertex  -2.669871e-02  4.829633e-02  2.004118e+00
    endloop
  endfacet
  facet normal  8.968092e-01  2.403014e-01  3.714682e-01
    outer loop
      vertex  -3.963977e-02  3.775648e-08  2.004118e+00
      vertex  -2.669871e-02 -4.829625e-02  2.004118e+00
      vertex  -1.804721e-02 -4.330123e-02  1.980000e+00
    endloop
  endfacet
  facet normal  8.968073e-01  2.402959e-01  3.714763e-01
    outer loop
      vertex  -3.963977e-02  3.775648e-08  2.004118e+00
      vertex  -1.804721e-02 -4.330123e-02  1.980000e+00
      vertex  -2.964962e-02  3.862985e-08  1.980000e+00
    endloop
  endfacet
  facet normal  6.565124e-01  6.565189e-01  3.714493e-01
    outer loop
      vertex  -2.669871e-02 -4.829625e-02  2.004118e+00
      vertex   8.656979e-03 -8.365159e-02  2.004118e+00
      vertex   1.365101e-02 -7.499997e-02  1.980000e+00
    endloop
  endfacet
  facet normal  6.565151e-01  6.565044e-01  3.714699e-01
    outer loop
      vertex  -2.669871e-02 -4.829625e-02  2.004118e+00
      vertex   1.365101e-02 -7.499997e-02  1.980000e+00
      vertex  -1.804721e-02 -4.330123e-02  1.980000e+00
    endloop
  endfacet
  facet normal  2.403004e-01  8.968076e-01  3.714725e-01
    outer loop
      vertex   8.656979e-03 -8.365159e-02  2.004118e+00
      vertex   5.695295e-02 -9.659254e-02  2.004118e+00
      vertex   5.695295e-02 -8.660249e-02  1.980000e+00
    endloop
  endfacet
  facet normal  2.402960e-01  8.968127e-01  3.714630e-01
    outer loop
      vertex   8.656979e-03 -8.365159e-02  2.004118e+00
      vertex   5.695295e-02 -8.660249e-02  1.980000e+00
      vertex   1.365101e-02 -7.499997e-02  1.980000e+00
    endloop
  endfacet
  facet normal -2.403000e-01  8.968079e-01  3.714721e-01
    outer loop
      vertex   5.695295e-02 -9.659254e-02  2.004118e+00
      vertex   1.052490e-01 -8.365158e-02  2.004118e+00
      vertex   1.002541e-01 -7.499995e-02  1.980000e+00
    endloop
  endfacet
  facet normal -2.402997e-01  8.968077e-01  3.714726e-01
    outer loop
      vertex   5.695295e-02 -9.659254e-02  2.004118e+00
      vertex   1.002541e-01 -7.499995e-02  1.980000e+00
      vertex   5.695295e-02 -8.660249e-02  1.980000e+00
    endloop
  endfacet
  facet normal -6.565164e-01  6.565096e-01  3.714584e-01
    outer loop
      vertex   1.052490e-01 -8.365158e-02  2.004118e+00
      vertex   1.406040e-01 -4.829624e-02  2.004118e+00
      vertex   1.319530e-01 -4.330122e-02  1.980000e+00
    endloop
  endfacet
  facet normal -6.565070e-01  6.565114e-01  3.714718e-01
    outer loop
      vertex   1.052490e-01 -8.365158e-02  2.004118e+00
      vertex   1.319530e-01 -4.330122e-02  1.980000e+00
      vertex   1.002541e-01 -7.499995e-02  1.980000e+00
    endloop
  endfacet
  facet normal -8.968087e-01  2.403001e-01  3.714701e-01
    outer loop
      vertex   1.406040e-01 -4.829624e-02  2.004118e+00
      vertex   1.535450e-01  5.464526e-08  2.004118e+00
      vertex   1.435550e-01  5.377191e-08  1.980000e+00
    endloop
  endfacet
  facet normal -8.968185e-01  2.402915e-01  3.714518e-01
    outer loop
      vertex   1.406040e-01 -4.829624e-02  2.004118e+00
      vertex   1.435550e-01  5.377191e-08  1.980000e+00
      vertex   1.319530e-01 -4.330122e-02  1.980000e+00
    endloop
  endfacet
  facet normal -8.968154e-01 -2.403019e-01  3.714528e-01
    outer loop
      vertex   1.535450e-01  5.464526e-08  2.004118e+00
      vertex   1.406040e-01  4.829634e-02  2.004118e+00
      vertex   1.319530e-01  4.330132e-02  1.980000e+00
    endloop
  endfacet
  facet normal -8.968111e-01 -2.402895e-01  3.714712e-01
    outer loop
      vertex   1.535450e-01  5.464526e-08  2.004118e+00
      vertex   1.319530e-01  4.330132e-02  1.980000e+00
      vertex   1.435550e-01  5.377191e-08  1.980000e+00
    endloop
  endfacet
  facet normal -6.565129e-01 -6.565061e-01  3.714707e-01
    outer loop
      vertex   1.406040e-01  4.829634e-02  2.004118e+00
      vertex   1.052490e-01  8.365168e-02  2.004118e+00
      vertex   1.002541e-01  7.500006e-02  1.980000e+00
    endloop
  endfacet
  facet normal -6.565112e-01 -6.565153e-01  3.714577e-01
    outer loop
      vertex   1.406040e-01  4.829634e-02  2.004118e+00
      vertex   1.002541e-01  7.500006e-02  1.980000e+00
      vertex   1.319530e-01  4.330132e-02  1.980000e+00
    endloop
  endfacet
  facet normal -2.402999e-01 -8.968078e-01  3.714723e-01
    outer loop
      vertex   1.052490e-01  8.365168e-02  2.004118e+00
      vertex   5.695295e-02  9.659263e-02  2.004118e+00
      vertex   5.695295e-02  8.660258e-02  1.980000e+00
    endloop
  endfacet
  facet normal -2.402995e-01 -8.968082e-01  3.714716e-01
    outer loop
      vertex   1.052490e-01  8.365168e-02  2.004118e+00
      vertex   5.695295e-02  8.660258e-02  1.980000e+00
      vertex   1.002541e-01  7.500006e-02  1.980000e+00
    endloop
  endfacet
  facet normal  2.403014e-01 -8.968109e-01  3.714640e-01
    outer loop
      vertex   5.695295e-02  9.659263e-02  2.004118e+00
      vertex   8.656979e-03  8.365167e-02  2.004118e+00
      vertex   1.365101e-02  7.500004e-02  1.980000e+00
    endloop
  endfacet
  facet normal  2.402955e-01 -8.968088e-01  3.714727e-01
    outer loop
      vertex   5.695295e-02  9.659263e-02  2.004118e+00
      vertex   1.365101e-02  7.500004e-02  1.980000e+00
      vertex   5.695295e-02  8.660258e-02  1.980000e+00
    endloop
  endfacet
  facet normal  6.565069e-01 -6.565133e-01  3.714687e-01
    outer loop
      vertex   8.656979e-03  8.365167e-02  2.004118e+00
      vertex  -2.669871e-02  4.829633e-02  2.004118e+00
      vertex  -1.804721e-02  4.330131e-02  1.980000e+00
    endloop
  endfacet
  facet normal  6.565210e-01 -6.565106e-01  3.714485e-01
    outer loop
      vertex   8.656979e-03  8.365167e-02  2.004118e+00
      vertex  -1.804721e-02  4.330131e-02  1.980000e+00
      vertex   1.365101e-02  7.500004e-02  1.980000e+00
    endloop
  endfacet
  facet normal  8.968062e-01 -2.403006e-01  3.714758e-01
    outer loop
      vertex  -2.669871e-02  4.829633e-02  2.004118e+00
      vertex  -3.963977e-02  3.775648e-08  2.004118e+00
      vertex  -2.964962e-02  3.862985e-08  1.980000e+00
    endloop
  endfacet
  facet normal  8.968106e-01 -2.402968e-01  3.714678e-01
    outer loop
      vertex  -2.669871e-02  4.829633e-02  2.004118e+00
      vertex  -2.964962e-02  3.862985e-08  1.980000e+00
      vertex  -1.804721e-02  4.330131e-02  1.980000e+00
    endloop
  endfacet
  facet normal  7.760199e-01  2.079314e-01  5.954473e-01
    outer loop
      vertex  -2.964962e-02  3.862985e-08  1.980000e+00
      vertex  -1.804721e-02 -4.330123e-02  1.980000e+00
      vertex  -4.284501e-03 -3.535530e-02  1.959289e+00
    endloop
  endfacet
  facet normal  7.760199e-01  2.079315e-01  5.954473e-01
    outer loop
      vertex  -2.964962e-02  3.862985e-08  1.980000e+00
      vertex  -4.284501e-03 -3.535530e-02  1.959289e+00
      vertex  -1.375782e-02  4.001915e-08  1.959289e+00
    endloop
  endfacet
  facet normal  5.680801e-01  5.680709e-01  5.954665e-01
    outer loop
      vertex  -1.804721e-02 -4.330123e-02  1.980000e+00
      vertex   1.365101e-02 -7.499997e-02  1.980000e+00
      vertex   2.159798e-02 -6.123720e-02  1.959289e+00
    endloop
  endfacet
  facet normal  5.680795e-01  5.680923e-01  5.954467e-01
    outer loop
      vertex  -1.804721e-02 -4.330123e-02  1.980000e+00
      vertex   2.159798e-02 -6.123720e-02  1.959289e+00
      vertex  -4.284501e-03 -3.535530e-02  1.959289e+00
    endloop
  endfacet
  facet normal  2.079300e-01  7.760192e-01  5.954489e-01
    outer loop
      vertex   1.365101e-02 -7.499997e-02  1.980000e+00
      vertex   5.695295e-02 -8.660249e-02  1.980000e+00
      vertex   5.695295e-02 -7.071064e-02  1.959289e+00
    endloop
  endfacet
  facet normal  2.079341e-01  7.760125e-01  5.954561e-01
    outer loop
      vertex   1.365101e-02 -7.499997e-02  1.980000e+00
      vertex   5.695295e-02 -7.071064e-02  1.959289e+00
      vertex   2.159798e-02 -6.123720e-02  1.959289e+00
    endloop
  endfacet
  facet normal -2.079340e-01  7.760176e-01  5.954494e-01
    outer loop
      vertex   5.695295e-02 -8.660249e-02  1.980000e+00
      vertex   1.002541e-01 -7.499995e-02  1.980000e+00
      vertex   9.230804e-02 -6.123719e-02  1.959289e+00
    endloop
  endfacet
  facet normal -2.079352e-01  7.760183e-01  5.954483e-01
    outer loop
      vertex   5.695295e-02 -8.660249e-02  1.980000e+00
      vertex   9.230804e-02 -6.123719e-02  1.959289e+00
      vertex   5.695295e-02 -7.071064e-02  1.959289e+00
    endloop
  endfacet
  facet normal -5.680813e-01  5.680851e-01  5.954518e-01
    outer loop
      vertex   1.002541e-01 -7.499995e-02  1.980000e+00
      vertex   1.319530e-01 -4.330122e-02  1.980000e+00
      vertex   1.181901e-01 -3.535529e-02  1.959289e+00
    endloop
  endfacet
  facet normal -5.680827e-01  5.680851e-01  5.954505e-01
    outer loop
      vertex   1.002541e-01 -7.499995e-02  1.980000e+00
      vertex   1.181901e-01 -3.535529e-02  1.959289e+00
      vertex   9.230804e-02 -6.123719e-02  1.959289e+00
    endloop
  endfacet
  facet normal -7.760170e-01  2.079242e-01  5.954539e-01
    outer loop
      vertex   1.319530e-01 -4.330122e-02  1.980000e+00
      vertex   1.435550e-01  5.377191e-08  1.980000e+00
      vertex   1.276630e-01  5.238260e-08  1.959289e+00
    endloop
  endfacet
  facet normal -7.760184e-01  2.079232e-01  5.954522e-01
    outer loop
      vertex   1.319530e-01 -4.330122e-02  1.980000e+00
      vertex   1.276630e-01  5.238260e-08  1.959289e+00
      vertex   1.181901e-01 -3.535529e-02  1.959289e+00
    endloop
  endfacet
  facet normal -7.760180e-01 -2.079245e-01  5.954524e-01
    outer loop
      vertex   1.435550e-01  5.377191e-08  1.980000e+00
      vertex   1.319530e-01  4.330132e-02  1.980000e+00
      vertex   1.181901e-01  3.535539e-02  1.959289e+00
    endloop
  endfacet
  facet normal -7.760171e-01 -2.079229e-01  5.954540e-01
    outer loop
      vertex   1.435550e-01  5.377191e-08  1.980000e+00
      vertex   1.181901e-01  3.535539e-02  1.959289e+00
      vertex   1.276630e-01  5.238260e-08  1.959289e+00
    endloop
  endfacet
  facet normal -5.680819e-01 -5.680856e-01  5.954508e-01
    outer loop
      vertex   1.319530e-01  4.330132e-02  1.980000e+00
      vertex   1.002541e-01  7.500006e-02  1.980000e+00
      vertex   9.230804e-02  6.123729e-02  1.959289e+00
    endloop
  endfacet
  facet normal -5.680820e-01 -5.680844e-01  5.954520e-01
    outer loop
      vertex   1.319530e-01  4.330132e-02  1.980000e+00
      vertex   9.230804e-02  6.123729e-02  1.959289e+00
      vertex   1.181901e-01  3.535539e-02  1.959289e+00
    endloop
  endfacet
  facet normal -2.079340e-01 -7.760185e-01  5.954483e-01
    outer loop
      vertex   1.002541e-01  7.500006e-02  1.980000e+00
      vertex   5.695295e-02  8.660258e-02  1.980000e+00
      vertex   5.695295e-02  7.071073e-02  1.959289e+00
    endloop
  endfacet
  facet normal -2.079348e-01 -7.760171e-01  5.954498e-01
    outer loop
      vertex   1.002541e-01  7.500006e-02  1.980000e+00
      vertex   5.695295e-02  7.071073e-02  1.959289e+00
      vertex   9.230804e-02  6.123729e-02  1.959289e+00
    endloop
  endfacet
  facet normal  2.079293e-01 -7.760146e-01  5.954552e-01
    outer loop
      vertex   5.695295e-02  8.660258e-02  1.980000e+00
      vertex   1.365101e-02  7.500004e-02  1.980000e+00
      vertex   2.159798e-02  6.123728e-02  1.959289e+00
    endloop
  endfacet
  facet normal  2.079360e-01 -7.760181e-01  5.954481e-01
    outer loop
      vertex   5.695295e-02  8.660258e-02  1.980000e+00
      vertex   2.159798e-02  6.123728e-02  1.959289e+00
      vertex   5.695295e-02  7.071073e-02  1.959289e+00
    endloop
  endfacet
  facet normal  5.680894e-01 -5.680804e-01  5.954487e-01
    outer loop
      vertex   1.365101e-02  7.500004e-02  1.980000e+00
      vertex  -1.804721e-02  4.330131e-02  1.980000e+00
      vertex  -4.284501e-03  3.535538e-02  1.959289e+00
    endloop
  endfacet
  facet normal  5.680682e-01 -5.680810e-01  5.954683e-01
    outer loop
      vertex   1.365101e-02  7.500004e-02  1.980000e+00
      vertex  -4.284501e-03  3.535538e-02  1.959289e+00
      vertex   2.159798e-02  6.123728e-02  1.959289e+00
    endloop
  endfacet
  facet normal  7.760201e-01 -2.079314e-01  5.954473e-01
    outer loop
      vertex  -1.804721e-02  4.330131e-02  1.980000e+00
      vertex  -2.964962e-02  3.862985e-08  1.980000e+00
      vertex  -1.375782e-02  4.001915e-08  1.959289e+00
    endloop
  endfacet
  facet normal  7.760200e-01 -2.079315e-01  5.954473e-01
    outer loop
      vertex  -1.804721e-02  4.330131e-02  1.980000e+00
      vertex  -1.375782e-02  4.001915e-08  1.959289e+00
      vertex  -4.284501e-03  3.535538e-02  1.959289e+00
    endloop
  endfacet
  facet normal  6.008087e-01  1.609843e-01  7.830153e-01
    outer loop
      vertex  -1.375782e-02  4.001915e-08  1.959289e+00
      vertex  -4.284501e-03 -3.535530e-02  1.959289e+00
      vertex   1.365101e-02 -2.499996e-02  1.943398e+00
    endloop
  endfacet
  facet normal  6.007988e-01  1.609664e-01  7.830266e-01
    outer loop
      vertex  -1.375782e-02  4.001915e-08  1.959289e+00
      vertex   1.365101e-02 -2.499996e-02  1.943398e+00
      vertex   6.953001e-03  4.182974e-08  1.943398e+00
    endloop
  endfacet
  facet normal  4.398135e-01  4.398234e-01  7.830195e-01
    outer loop
      vertex  -4.284501e-03 -3.535530e-02  1.959289e+00
      vertex   2.159798e-02 -6.123720e-02  1.959289e+00
      vertex   3.195298e-02 -4.330123e-02  1.943398e+00
    endloop
  endfacet
  facet normal  4.398134e-01  4.398300e-01  7.830158e-01
    outer loop
      vertex  -4.284501e-03 -3.535530e-02  1.959289e+00
      vertex   3.195298e-02 -4.330123e-02  1.943398e+00
      vertex   1.365101e-02 -2.499996e-02  1.943398e+00
    endloop
  endfacet
  facet normal  1.609855e-01  6.007997e-01  7.830220e-01
    outer loop
      vertex   2.159798e-02 -6.123720e-02  1.959289e+00
      vertex   5.695295e-02 -7.071064e-02  1.959289e+00
      vertex   5.695295e-02 -4.999996e-02  1.943398e+00
    endloop
  endfacet
  facet normal  1.609844e-01  6.008014e-01  7.830209e-01
    outer loop
      vertex   2.159798e-02 -6.123720e-02  1.959289e+00
      vertex   5.695295e-02 -4.999996e-02  1.943398e+00
      vertex   3.195298e-02 -4.330123e-02  1.943398e+00
    endloop
  endfacet
  facet normal -1.609855e-01  6.008011e-01  7.830210e-01
    outer loop
      vertex   5.695295e-02 -7.071064e-02  1.959289e+00
      vertex   9.230804e-02 -6.123719e-02  1.959289e+00
      vertex   8.195305e-02 -4.330122e-02  1.943398e+00
    endloop
  endfacet
  facet normal -1.609834e-01  6.007999e-01  7.830223e-01
    outer loop
      vertex   5.695295e-02 -7.071064e-02  1.959289e+00
      vertex   8.195305e-02 -4.330122e-02  1.943398e+00
      vertex   5.695295e-02 -4.999996e-02  1.943398e+00
    endloop
  endfacet
  facet normal -4.398150e-01  4.398168e-01  7.830222e-01
    outer loop
      vertex   9.230804e-02 -6.123719e-02  1.959289e+00
      vertex   1.181901e-01 -3.535529e-02  1.959289e+00
      vertex   1.002541e-01 -2.499995e-02  1.943398e+00
    endloop
  endfacet
  facet normal -4.398229e-01  4.398167e-01  7.830179e-01
    outer loop
      vertex   9.230804e-02 -6.123719e-02  1.959289e+00
      vertex   1.002541e-01 -2.499995e-02  1.943398e+00
      vertex   8.195305e-02 -4.330122e-02  1.943398e+00
    endloop
  endfacet
  facet normal -6.008128e-01  1.609793e-01  7.830132e-01
    outer loop
      vertex   1.181901e-01 -3.535529e-02  1.959289e+00
      vertex   1.276630e-01  5.238260e-08  1.959289e+00
      vertex   1.069530e-01  5.057201e-08  1.943398e+00
    endloop
  endfacet
  facet normal -6.007972e-01  1.609888e-01  7.830231e-01
    outer loop
      vertex   1.181901e-01 -3.535529e-02  1.959289e+00
      vertex   1.069530e-01  5.057201e-08  1.943398e+00
      vertex   1.002541e-01 -2.499995e-02  1.943398e+00
    endloop
  endfacet
  facet normal -6.008027e-01 -1.609766e-01  7.830215e-01
    outer loop
      vertex   1.276630e-01  5.238260e-08  1.959289e+00
      vertex   1.181901e-01  3.535539e-02  1.959289e+00
      vertex   1.002541e-01  2.500005e-02  1.943398e+00
    endloop
  endfacet
  facet normal -6.008114e-01 -1.609926e-01  7.830114e-01
    outer loop
      vertex   1.276630e-01  5.238260e-08  1.959289e+00
      vertex   1.002541e-01  2.500005e-02  1.943398e+00
      vertex   1.069530e-01  5.057201e-08  1.943398e+00
    endloop
  endfacet
  facet normal -4.398183e-01 -4.398200e-01  7.830186e-01
    outer loop
      vertex   1.181901e-01  3.535539e-02  1.959289e+00
      vertex   9.230804e-02  6.123729e-02  1.959289e+00
      vertex   8.195305e-02  4.330132e-02  1.943398e+00
    endloop
  endfacet
  facet normal -4.398184e-01 -4.398122e-01  7.830230e-01
    outer loop
      vertex   1.181901e-01  3.535539e-02  1.959289e+00
      vertex   8.195305e-02  4.330132e-02  1.943398e+00
      vertex   1.002541e-01  2.500005e-02  1.943398e+00
    endloop
  endfacet
  facet normal -1.609850e-01 -6.007996e-01  7.830221e-01
    outer loop
      vertex   9.230804e-02  6.123729e-02  1.959289e+00
      vertex   5.695295e-02  7.071073e-02  1.959289e+00
      vertex   5.695295e-02  5.000005e-02  1.943398e+00
    endloop
  endfacet
  facet normal -1.609837e-01 -6.008018e-01  7.830207e-01
    outer loop
      vertex   9.230804e-02  6.123729e-02  1.959289e+00
      vertex   5.695295e-02  5.000005e-02  1.943398e+00
      vertex   8.195305e-02  4.330132e-02  1.943398e+00
    endloop
  endfacet
  facet normal  1.609861e-01 -6.008008e-01  7.830210e-01
    outer loop
      vertex   5.695295e-02  7.071073e-02  1.959289e+00
      vertex   2.159798e-02  6.123728e-02  1.959289e+00
      vertex   3.195298e-02  4.330131e-02  1.943398e+00
    endloop
  endfacet
  facet normal  1.609841e-01 -6.007997e-01  7.830223e-01
    outer loop
      vertex   5.695295e-02  7.071073e-02  1.959289e+00
      vertex   3.195298e-02  4.330131e-02  1.943398e+00
      vertex   5.695295e-02  5.000005e-02  1.943398e+00
    endloop
  endfacet
  facet normal  4.398162e-01 -4.398261e-01  7.830164e-01
    outer loop
      vertex   2.159798e-02  6.123728e-02  1.959289e+00
      vertex  -4.284501e-03  3.535538e-02  1.959289e+00
      vertex   1.365101e-02  2.500004e-02  1.943398e+00
    endloop
  endfacet
  facet normal  4.398096e-01 -4.398263e-01  7.830201e-01
    outer loop
      vertex   2.159798e-02  6.123728e-02  1.959289e+00
      vertex   1.365101e-02  2.500004e-02  1.943398e+00
      vertex   3.195298e-02  4.330131e-02  1.943398e+00
    endloop
  endfacet
  facet normal  6.007974e-01 -1.609813e-01  7.830245e-01
    outer loop
      vertex  -4.284501e-03  3.535538e-02  1.959289e+00
      vertex  -1.375782e-02  4.001915e-08  1.959289e+00
      vertex   6.953001e-03  4.182974e-08  1.943398e+00
    endloop
  endfacet
  facet normal  6.008149e-01 -1.609706e-01  7.830133e-01
    outer loop
      vertex  -4.284501e-03  3.535538e-02  1.959289e+00
      vertex   6.953001e-03  4.182974e-08  1.943398e+00
      vertex   1.365101e-02  2.500004e-02  1.943398e+00
    endloop
  endfacet
  facet normal  3.807230e-01  1.020035e-01  9.190459e-01
    outer loop
      vertex   6.953001e-03  4.182974e-08  1.943398e+00
      vertex   1.365101e-02 -2.499996e-02  1.943398e+00
      vertex   3.453803e-02 -1.294091e-02  1.933407e+00
    endloop
  endfacet
  facet normal  3.807222e-01  1.020014e-01  9.190464e-01
    outer loop
      vertex   6.953001e-03  4.182974e-08  1.943398e+00
      vertex   3.453803e-02 -1.294091e-02  1.933407e+00
      vertex   3.107095e-02  4.393820e-08  1.933407e+00
    endloop
  endfacet
  facet normal  2.787003e-01  2.787108e-01  9.190465e-01
    outer loop
      vertex   1.365101e-02 -2.499996e-02  1.943398e+00
      vertex   3.195298e-02 -4.330123e-02  1.943398e+00
      vertex   4.401195e-02 -2.241435e-02  1.933407e+00
    endloop
  endfacet
  facet normal  2.786998e-01  2.787139e-01  9.190457e-01
    outer loop
      vertex   1.365101e-02 -2.499996e-02  1.943398e+00
      vertex   4.401195e-02 -2.241435e-02  1.933407e+00
      vertex   3.453803e-02 -1.294091e-02  1.933407e+00
    endloop
  endfacet
  facet normal  1.020136e-01  3.807195e-01  9.190462e-01
    outer loop
      vertex   3.195298e-02 -4.330123e-02  1.943398e+00
      vertex   5.695295e-02 -4.999996e-02  1.943398e+00
      vertex   5.695295e-02 -2.588185e-02  1.933407e+00
    endloop
  endfacet
  facet normal  1.020128e-01  3.807206e-01  9.190459e-01
    outer loop
      vertex   3.195298e-02 -4.330123e-02  1.943398e+00
      vertex   5.695295e-02 -2.588185e-02  1.933407e+00
      vertex   4.401195e-02 -2.241435e-02  1.933407e+00
    endloop
  endfacet
  facet normal -1.020133e-01  3.807197e-01  9.190462e-01
    outer loop
      vertex   5.695295e-02 -4.999996e-02  1.943398e+00
      vertex   8.195305e-02 -4.330122e-02  1.943398e+00
      vertex   6.989396e-02 -2.241434e-02  1.933407e+00
    endloop
  endfacet
  facet normal -1.020129e-01  3.807196e-01  9.190462e-01
    outer loop
      vertex   5.695295e-02 -4.999996e-02  1.943398e+00
      vertex   6.989396e-02 -2.241434e-02  1.933407e+00
      vertex   5.695295e-02 -2.588185e-02  1.933407e+00
    endloop
  endfacet
  facet normal -2.787068e-01  2.787028e-01  9.190469e-01
    outer loop
      vertex   8.195305e-02 -4.330122e-02  1.943398e+00
      vertex   1.002541e-01 -2.499995e-02  1.943398e+00
      vertex   7.936704e-02 -1.294090e-02  1.933407e+00
    endloop
  endfacet
  facet normal -2.787122e-01  2.787019e-01  9.190455e-01
    outer loop
      vertex   8.195305e-02 -4.330122e-02  1.943398e+00
      vertex   7.936704e-02 -1.294090e-02  1.933407e+00
      vertex   6.989396e-02 -2.241434e-02  1.933407e+00
    endloop
  endfacet
  facet normal -3.807200e-01  1.020172e-01  9.190456e-01
    outer loop
      vertex   1.002541e-01 -2.499995e-02  1.943398e+00
      vertex   1.069530e-01  5.057201e-08  1.943398e+00
      vertex   8.283496e-02  4.846354e-08  1.933407e+00
    endloop
  endfacet
  facet normal -3.807125e-01  1.020234e-01  9.190480e-01
    outer loop
      vertex   1.002541e-01 -2.499995e-02  1.943398e+00
      vertex   8.283496e-02  4.846354e-08  1.933407e+00
      vertex   7.936704e-02 -1.294090e-02  1.933407e+00
    endloop
  endfacet
  facet normal -3.807163e-01 -1.020162e-01  9.190472e-01
    outer loop
      vertex   1.069530e-01  5.057201e-08  1.943398e+00
      vertex   1.002541e-01  2.500005e-02  1.943398e+00
      vertex   7.936704e-02  1.294100e-02  1.933407e+00
    endloop
  endfacet
  facet normal -3.807197e-01 -1.020253e-01  9.190449e-01
    outer loop
      vertex   1.069530e-01  5.057201e-08  1.943398e+00
      vertex   7.936704e-02  1.294100e-02  1.933407e+00
      vertex   8.283496e-02  4.846354e-08  1.933407e+00
    endloop
  endfacet
  facet normal -2.787083e-01 -2.787044e-01  9.190460e-01
    outer loop
      vertex   1.002541e-01  2.500005e-02  1.943398e+00
      vertex   8.195305e-02  4.330132e-02  1.943398e+00
      vertex   6.989396e-02  2.241444e-02  1.933407e+00
    endloop
  endfacet
  facet normal -2.787093e-01 -2.786988e-01  9.190474e-01
    outer loop
      vertex   1.002541e-01  2.500005e-02  1.943398e+00
      vertex   6.989396e-02  2.241444e-02  1.933407e+00
      vertex   7.936704e-02  1.294100e-02  1.933407e+00
    endloop
  endfacet
  facet normal -1.020131e-01 -3.807197e-01  9.190462e-01
    outer loop
      vertex   8.195305e-02  4.330132e-02  1.943398e+00
      vertex   5.695295e-02  5.000005e-02  1.943398e+00
      vertex   5.695295e-02  2.588195e-02  1.933407e+00
    endloop
  endfacet
  facet normal -1.020130e-01 -3.807199e-01  9.190460e-01
    outer loop
      vertex   8.195305e-02  4.330132e-02  1.943398e+00
      vertex   5.695295e-02  2.588195e-02  1.933407e+00
      vertex   6.989396e-02  2.241444e-02  1.933407e+00
    endloop
  endfacet
  facet normal  1.020138e-01 -3.807199e-01  9.190460e-01
    outer loop
      vertex   5.695295e-02  5.000005e-02  1.943398e+00
      vertex   3.195298e-02  4.330131e-02  1.943398e+00
      vertex   4.401195e-02  2.241443e-02  1.933407e+00
    endloop
  endfacet
  facet normal  1.020133e-01 -3.807197e-01  9.190461e-01
    outer loop
      vertex   5.695295e-02  5.000005e-02  1.943398e+00
      vertex   4.401195e-02  2.241443e-02  1.933407e+00
      vertex   5.695295e-02  2.588195e-02  1.933407e+00
    endloop
  endfacet
  facet normal  2.787011e-01 -2.787117e-01  9.190460e-01
    outer loop
      vertex   3.195298e-02  4.330131e-02  1.943398e+00
      vertex   1.365101e-02  2.500004e-02  1.943398e+00
      vertex   3.453803e-02  1.294099e-02  1.933407e+00
    endloop
  endfacet
  facet normal  2.786981e-01 -2.787122e-01  9.190467e-01
    outer loop
      vertex   3.195298e-02  4.330131e-02  1.943398e+00
      vertex   3.453803e-02  1.294099e-02  1.933407e+00
      vertex   4.401195e-02  2.241443e-02  1.933407e+00
    endloop
  endfacet
  facet normal  3.807222e-01 -1.020033e-01  9.190462e-01
    outer loop
      vertex   1.365101e-02  2.500004e-02  1.943398e+00
      vertex   6.953001e-03  4.182974e-08  1.943398e+00
      vertex   3.107095e-02  4.393820e-08  1.933407e+00
    endloop
  endfacet
  facet normal  3.807238e-01 -1.020019e-01  9.190457e-01
    outer loop
      vertex   1.365101e-02  2.500004e-02  1.943398e+00
      vertex   3.107095e-02  4.393820e-08  1.933407e+00
      vertex   3.453803e-02  1.294099e-02  1.933407e+00
    endloop
  endfacet
  facet normal  1.304303e-01  3.494432e-02  9.908414e-01
    outer loop
      vertex   3.107095e-02  4.393820e-08  1.933407e+00
      vertex   3.453803e-02 -1.294091e-02  1.933407e+00
      vertex   5.695295e-02  4.620087e-08  1.930000e+00
    endloop
  endfacet
  facet normal  9.547877e-02  9.548359e-02  9.908414e-01
    outer loop
      vertex   3.453803e-02 -1.294091e-02  1.933407e+00
      vertex   4.401195e-02 -2.241435e-02  1.933407e+00
      vertex   5.695295e-02  4.620087e-08  1.930000e+00
    endloop
  endfacet
  facet normal  3.494851e-02  1.304308e-01  9.908412e-01
    outer loop
      vertex   4.401195e-02 -2.241435e-02  1.933407e+00
      vertex   5.695295e-02 -2.588185e-02  1.933407e+00
      vertex   5.695295e-02  4.620087e-08  1.930000e+00
    endloop
  endfacet
  facet normal -3.494862e-02  1.304308e-01  9.908412e-01
    outer loop
      vertex   5.695295e-02 -2.588185e-02  1.933407e+00
      vertex   6.989396e-02 -2.241434e-02  1.933407e+00
      vertex   5.695295e-02  4.620087e-08  1.930000e+00
    endloop
  endfacet
  facet normal -9.548409e-02  9.548053e-02  9.908413e-01
    outer loop
      vertex   6.989396e-02 -2.241434e-02  1.933407e+00
      vertex   7.936704e-02 -1.294090e-02  1.933407e+00
      vertex   5.695295e-02  4.620087e-08  1.930000e+00
    endloop
  endfacet
  facet normal -1.304303e-01  3.495273e-02  9.908412e-01
    outer loop
      vertex   7.936704e-02 -1.294090e-02  1.933407e+00
      vertex   8.283496e-02  4.846354e-08  1.933407e+00
      vertex   5.695295e-02  4.620087e-08  1.930000e+00
    endloop
  endfacet
  facet normal -1.304303e-01 -3.495272e-02  9.908412e-01
    outer loop
      vertex   8.283496e-02  4.846354e-08  1.933407e+00
      vertex   7.936704e-02  1.294100e-02  1.933407e+00
      vertex   5.695295e-02  4.620087e-08  1.930000e+00
    endloop
  endfacet
  facet normal -9.548408e-02 -9.548051e-02  9.908412e-01
    outer loop
      vertex   7.936704e-02  1.294100e-02  1.933407e+00
      vertex   6.989396e-02  2.241444e-02  1.933407e+00
      vertex   5.695295e-02  4.620087e-08  1.930000e+00
    endloop
  endfacet
  facet normal -3.494861e-02 -1.304308e-01  9.908412e-01
    outer loop
      vertex   6.989396e-02  2.241444e-02  1.933407e+00
      vertex   5.695295e-02  2.588195e-02  1.933407e+00
      vertex   5.695295e-02  4.620087e-08  1.930000e+00
    endloop
  endfacet
  facet normal  3.494872e-02 -1.304308e-01  9.908412e-01
    outer loop
      vertex   5.695295e-02  2.588195e-02  1.933407e+00
      vertex   4.401195e-02  2.241443e-02  1.933407e+00
      vertex   5.695295e-02  4.620087e-08  1.930000e+00
    endloop
  endfacet
  facet normal  9.547878e-02 -9.548362e-02  9.908414e-01
    outer loop
      vertex   4.401195e-02  2.241443e-02  1.933407e+00
      vertex   3.453803e-02  1.294099e-02  1.933407e+00
      vertex   5.695295e-02  4.620087e-08  1.930000e+00
    endloop
  endfacet
  facet normal  1.304303e-01 -3.494433e-02  9.908414e-01
    outer loop
      vertex   3.453803e-02  1.294099e-02  1.933407e+00
      vertex   3.107095e-02  4.393820e-08  1.933407e+00
      vertex   5.695295e-02  4.620087e-08  1.930000e+00
    endloop
  endfacet
  facet normal  0.000000e+00  0.000000e+00  1.000000e+00
    outer loop
      vertex  -4.304707e-02  3.745861e-08  0.000000e+00
      vertex  -2.964962e-02 -4.999996e-02  0.000000e+00
      vertex   6.953001e-03 -8.660250e-02  0.000000e+00
    endloop
  endfacet
  facet normal  0.000000e+00  0.000000e+00  1.000000e+00
    outer loop
      vertex  -4.304707e-02  3.745861e-08  0.000000e+00
      vertex   6.953001e-03 -8.660250e-02  0.000000e+00
      vertex   5.695295e-02 -9.999996e-02  0.000000e+00
    endloop
  endfacet
  facet normal  0.000000e+00  0.000000e+00  1.000000e+00
    outer loop
      vertex  -4.304707e-02  3.745861e-08  0.000000e+00
      vertex   5.695295e-02 -9.999996e-02  0.000000e+00
      vertex   1.069530e-01 -8.660249e-02  0.000000e+00
    endloop
  endfacet
  facet normal  0.000000e+00  0.000000e+00  1.000000e+00
    outer loop
      vertex  -4.304707e-02  3.745861e-08  0.000000e+00
      vertex   1.069530e-01 -8.660249e-02  0.000000e+00
      vertex   1.435550e-01 -4.999995e-02  0.000000e+00
    endloop
  endfacet
  facet normal -0.000000e+00  0.000000e+00  1.000000e+00
    outer loop
      vertex  -4.304707e-02  3.745861e-08  0.000000e+00
      vertex   1.435550e-01 -4.999995e-02  0.000000e+00
      vertex   1.569530e-01  5.494315e-08  0.000000e+00
    endloop
  endfacet
  facet normal  0.000000e+00  0.000000e+00  1.000000e+00
    outer loop
      vertex  -4.304707e-02  3.745861e-08  0.000000e+00
      vertex   1.569530e-01  5.494315e-08  0.000000e+00
      vertex   1.435550e-01  5.000005e-02  0.000000e+00
    endloop
  endfacet
  facet normal  0.000000e+00  0.000000e+00  1.000000e+00
    outer loop
      vertex  -4.304707e-02  3.745861e-08  0.000000e+00
      vertex   1.435550e-01  5.000005e-02  0.000000e+00
      vertex   1.069530e-01  8.660259e-02  0.000000e+00
    endloop
  endfacet
  facet normal  0.000000e+00  0.000000e+00  1.000000e+00
    outer loop
      vertex  -4.304707e-02  3.745861e-08  0.000000e+00
      vertex   1.069530e-01  8.660259e-02  0.000000e+00
      vertex   5.695295e-02  1.000000e-01  0.000000e+00
    endloop
  endfacet
  facet normal  0.000000e+00  0.000000e+00  1.000000e+00
    outer loop
      vertex  -4.304707e-02  3.745861e-08  0.000000e+00
      vertex   5.695295e-02  1.000000e-01  0.000000e+00
      vertex   6.953001e-03  8.660258e-02  0.000000e+00
    endloop
  endfacet
  facet normal  0.000000e+00  0.000000e+00  1.000000e+00
    outer loop
      vertex  -4.304707e-02  3.745861e-08  0.000000e+00
      vertex   6.953001e-03  8.660258e-02  0.000000e+00
      vertex  -2.964962e-02  5.000004e-02  0.000000e+00
    endloop
  endfacet
  facet normal -9.659258e-01 -2.588190e-01  0.000000e+00
    outer loop
      vertex  -4.304707e-02  3.745861e-08  0.000000e+00
      vertex  -2.964962e-02 -4.999996e-02  0.000000e+00
      vertex  -2.964962e-02 -4.999996e-02  2.033333e+00
    endloop
  endfacet
  facet normal -9.659258e-01 -2.588190e-01  0.000000e+00
    outer loop
      vertex  -4.304707e-02  3.745861e-08  0.000000e+00
      vertex  -2.964962e-02 -4.999996e-02  2.033333e+00
      vertex  -4.304707e-02  3.745861e-08  2.033333e+00
    endloop
  endfacet
  facet normal -7.071061e-01 -7.071075e-01  0.000000e+00
    outer loop
      vertex  -2.964962e-02 -4.999996e-02  0.000000e+00
      vertex   6.953001e-03 -8.660250e-02  0.000000e+00
      vertex   6.953001e-03 -8.660250e-02  2.033333e+00
    endloop
  endfacet
  facet normal -7.071061e-01 -7.071075e-01  0.000000e+00
    outer loop
      vertex  -2.964962e-02 -4.999996e-02  0.000000e+00
      vertex   6.953001e-03 -8.660250e-02  2.033333e+00
      vertex  -2.964962e-02 -4.999996e-02  2.033333e+00
    endloop
  endfacet
  facet normal -2.588192e-01 -9.659258e-01  0.000000e+00
    outer loop
      vertex   6.953001e-03 -8.660250e-02  0.000000e+00
      vertex   5.695295e-02 -9.999996e-02  0.000000e+00
      vertex   5.695295e-02 -9.999996e-02  2.033333e+00
    endloop
  endfacet
  facet normal -2.588192e-01 -9.659258e-01  0.000000e+00
    outer loop
      vertex   6.953001e-03 -8.660250e-02  0.000000e+00
      vertex   5.695295e-02 -9.999996e-02  2.033333e+00
      vertex   6.953001e-03 -8.660250e-02  2.033333e+00
    endloop
  endfacet
  facet normal  2.588189e-01 -9.659259e-01  0.000000e+00
    outer loop
      vertex   5.695295e-02 -9.999996e-02  0.000000e+00
      vertex   1.069530e-01 -8.660249e-02  0.000000e+00
      vertex   1.069530e-01 -8.660249e-02  2.033333e+00
    endloop
  endfacet
  facet normal  2.588189e-01 -9.659259e-01  0.000000e+00
    outer loop
      vertex   5.695295e-02 -9.999996e-02  0.000000e+00
      vertex   1.069530e-01 -8.660249e-02  2.033333e+00
      vertex   5.695295e-02 -9.999996e-02  2.033333e+00
    endloop
  endfacet
  facet normal  7.071118e-01 -7.071018e-01  0.000000e+00
    outer loop
      vertex   1.069530e-01 -8.660249e-02  0.000000e+00
      vertex   1.435550e-01 -4.999995e-02  0.000000e+00
      vertex   1.435550e-01 -4.999995e-02  2.033333e+00
    endloop
  endfacet
  facet normal  7.071118e-01 -7.071018e-01  0.000000e+00
    outer loop
      vertex   1.069530e-01 -8.660249e-02  0.000000e+00
      vertex   1.435550e-01 -4.999995e-02  2.033333e+00
      vertex   1.069530e-01 -8.660249e-02  2.033333e+00
    endloop
  endfacet
  facet normal  9.659235e-01 -2.588275e-01  0.000000e+00
    outer loop
      vertex   1.435550e-01 -4.999995e-02  0.000000e+00
      vertex   1.569530e-01  5.494315e-08  0.000000e+00
      vertex   1.569530e-01  5.494315e-08  2.033333e+00
    endloop
  endfacet
  facet normal  9.659235e-01 -2.588275e-01  0.000000e+00
    outer loop
      vertex   1.435550e-01 -4.999995e-02  0.000000e+00
      vertex   1.569530e-01  5.494315e-08  2.033333e+00
      vertex   1.435550e-01 -4.999995e-02  2.033333e+00
    endloop
  endfacet
  facet normal  9.659235e-01  2.588276e-01  0.000000e+00
    outer loop
      vertex   1.569530e-01  5.494315e-08  0.000000e+00
      vertex   1.435550e-01  5.000005e-02  0.000000e+00
      vertex   1.435550e-01  5.000005e-02  2.033333e+00
    endloop
  endfacet
  facet normal  9.659235e-01  2.588276e-01 -0.000000e+00
    outer loop
      vertex   1.569530e-01  5.494315e-08  0.000000e+00
      vertex   1.435550e-01  5.000005e-02  2.033333e+00
      vertex   1.569530e-01  5.494315e-08  2.033333e+00
    endloop
  endfacet
  facet normal  7.071118e-01  7.071017e-01  0.000000e+00
    outer loop
      vertex   1.435550e-01  5.000005e-02  0.000000e+00
      vertex   1.069530e-01  8.660259e-02  0.000000e+00
      vertex   1.069530e-01  8.660259e-02  2.033333e+00
    endloop
  endfacet
  facet normal  7.071118e-01  7.071017e-01 -0.000000e+00
    outer loop
      vertex   1.435550e-01  5.000005e-02  0.000000e+00
      vertex   1.069530e-01  8.660259e-02  2.033333e+00
      vertex   1.435550e-01  5.000005e-02  2.033333e+00
    endloop
  endfacet
  facet normal  2.588178e-01  9.659262e-01  0.000000e+00
    outer loop
      vertex   1.069530e-01  8.660259e-02  0.000000e+00
      vertex   5.695295e-02  1.000000e-01  0.000000e+00
      vertex   5.695295e-02  1.000000e-01  2.033333e+00
    endloop
  endfacet
  facet normal  2.588178e-01  9.659262e-01 -0.000000e+00
    outer loop
      vertex   1.069530e-01  8.660259e-02  0.000000e+00
      vertex   5.695295e-02  1.000000e-01  2.033333e+00
      vertex   1.069530e-01  8.660259e-02  2.033333e+00
    endloop
  endfacet
  facet normal -2.588185e-01  9.659260e-01  0.000000e+00
    outer loop
      vertex   5.695295e-02  1.000000e-01  0.000000e+00
      vertex   6.953001e-03  8.660258e-02  0.000000e+00
      vertex   6.953001e-03  8.660258e-02  2.033333e+00
    endloop
  endfacet
  facet normal -2.588185e-01  9.659260e-01  0.000000e+00
    outer loop
      vertex   5.695295e-02  1.000000e-01  0.000000e+00
      vertex   6.953001e-03  8.660258e-02  2.033333e+00
      vertex   5.695295e-02  1.000000e-01  2.033333e+00
    endloop
  endfacet
  facet normal -7.071061e-01  7.071075e-01  0.000000e+00
    outer loop
      vertex   6.953001e-03  8.660258e-02  0.000000e+00
      vertex  -2.964962e-02  5.000004e-02  0.000000e+00
      vertex  -2.964962e-02  5.000004e-02  2.033333e+00
    endloop
  endfacet
  facet normal -7.071061e-01  7.071075e-01  0.000000e+00
    outer loop
      vertex   6.953001e-03  8.660258e-02  0.000000e+00
      vertex  -2.964962e-02  5.000004e-02  2.033333e+00
      vertex   6.953001e-03  8.660258e-02  2.033333e+00
    endloop
  endfacet
  facet normal -9.659259e-01  2.588190e-01  0.000000e+00
    outer loop
      vertex  -2.964962e-02  5.000004e-02  0.000000e+00
      vertex  -4.304707e-02  3.745861e-08  0.000000e+00
      vertex  -4.304707e-02  3.745861e-08  2.033333e+00
    endloop
  endfacet
  facet normal -9.659259e-01  2.588190e-01  0.000000e+00
    outer loop
      vertex  -2.964962e-02  5.000004e-02  0.000000e+00
      vertex  -4.304707e-02  3.745861e-08  2.033333e+00
      vertex  -2.964962e-02  5.000004e-02  2.033333e+00
    endloop
  endfacet
  facet normal -6.611011e-01  8.443101e-02  7.455312e-01
    outer loop
      vertex   4.789948e-03  4.164067e-08  2.114058e+00
      vertex  -1.178222e+00 -6.178154e-08  1.065020e+00
      vertex  -1.077741e+00 -7.500001e-01  1.239059e+00
    endloop
  endfacet
  facet normal -7.033162e-01  2.306686e-01  6.724123e-01
    outer loop
      vertex   4.789948e-03  4.164067e-08  2.114058e+00
      vertex  -1.077741e+00 -7.500001e-01  1.239059e+00
      vertex  -8.032222e-01 -1.299038e+00  1.714540e+00
    endloop
  endfacet
  facet normal -7.764347e-01  3.150983e-01  5.457675e-01
    outer loop
      vertex   4.789948e-03  4.164067e-08  2.114058e+00
      vertex  -8.032222e-01 -1.299038e+00  1.714540e+00
      vertex  -4.282222e-01 -1.500000e+00  2.364058e+00
    endloop
  endfacet
  facet normal -8.608657e-01  3.150983e-01  3.995290e-01
    outer loop
      vertex   4.789948e-03  4.164067e-08  2.114058e+00
      vertex  -4.282222e-01 -1.500000e+00  2.364058e+00
      vertex  -5.322242e-02 -1.299038e+00  3.013577e+00
    endloop
  endfacet
  facet normal -9.339842e-01  2.306683e-01  2.728839e-01
    outer loop
      vertex   4.789948e-03  4.164067e-08  2.114058e+00
      vertex  -5.322242e-02 -1.299038e+00  3.013577e+00
      vertex   2.212970e-01 -7.499999e-01  3.489058e+00
    endloop
  endfacet
  facet normal -9.761995e-01  8.443048e-02  1.997651e-01
    outer loop
      vertex   4.789948e-03  4.164067e-08  2.114058e+00
      vertex   2.212970e-01 -7.499999e-01  3.489058e+00
      vertex   3.217781e-01  6.935259e-08  3.663096e+00
    endloop
  endfacet
  facet normal -9.761995e-01 -8.443046e-02  1.997650e-01
    outer loop
      vertex   4.789948e-03  4.164067e-08  2.114058e+00
      vertex   3.217781e-01  6.935259e-08  3.663096e+00
      vertex   2.212970e-01  7.500001e-01  3.489058e+00
    endloop
  endfacet
  facet normal -9.339840e-01 -2.306686e-01  2.728841e-01
    outer loop
      vertex   4.789948e-03  4.164067e-08  2.114058e+00
      vertex   2.212970e-01  7.500001e-01  3.489058e+00
      vertex  -5.322272e-02  1.299038e+00  3.013577e+00
    endloop
  endfacet
  facet normal -8.608657e-01 -3.150984e-01  3.995288e-01
    outer loop
      vertex   4.789948e-03  4.164067e-08  2.114058e+00
      vertex  -5.322272e-02  1.299038e+00  3.013577e+00
      vertex  -4.282224e-01  1.500000e+00  2.364058e+00
    endloop
  endfacet
  facet normal -7.764347e-01 -3.150985e-01  5.457675e-01
    outer loop
      vertex   4.789948e-03  4.164067e-08  2.114058e+00
      vertex  -4.282224e-01  1.500000e+00  2.364058e+00
      vertex  -8.032224e-01  1.299038e+00  1.714540e+00
    endloop
  endfacet
  facet normal -7.033161e-01 -2.306686e-01  6.724123e-01
    outer loop
      vertex   4.789948e-03  4.164067e-08  2.114058e+00
      vertex  -8.032224e-01  1.299038e+00  1.714540e+00
      vertex  -1.077741e+00  7.499999e-01  1.239059e+00
    endloop
  endfacet
  facet normal -6.611011e-01 -8.443123e-02  7.455311e-01
    outer loop
      vertex   4.789948e-03  4.164067e-08  2.114058e+00
      vertex  -1.077741e+00  7.499999e-01  1.239059e+00
      vertex  -1.178222e+00 -6.178154e-08  1.065020e+00
    endloop
  endfacet
  facet normal -4.829636e-01 -2.588201e-01 -8.365155e-01
    outer loop
      vertex  -1.178222e+00 -6.178154e-08  1.065020e+00
      vertex  -1.077741e+00 -7.500001e-01  1.239059e+00
      vertex  -1.164343e+00 -7.500001e-01  1.289059e+00
    endloop
  endfacet
  facet normal -4.829631e-01 -2.588201e-01 -8.365158e-01
    outer loop
      vertex  -1.178222e+00 -6.178154e-08  1.065020e+00
      vertex  -1.164343e+00 -7.500001e-01  1.289059e+00
      vertex  -1.264825e+00 -6.935259e-08  1.115020e+00
    endloop
  endfacet
  facet normal -3.535489e-01 -7.071068e-01 -6.123749e-01
    outer loop
      vertex  -1.077741e+00 -7.500001e-01  1.239059e+00
      vertex  -8.032222e-01 -1.299038e+00  1.714540e+00
      vertex  -8.898244e-01 -1.299038e+00  1.764539e+00
    endloop
  endfacet
  facet normal -3.535543e-01 -7.071064e-01 -6.123725e-01
    outer loop
      vertex  -1.077741e+00 -7.500001e-01  1.239059e+00
      vertex  -8.898244e-01 -1.299038e+00  1.764539e+00
      vertex  -1.164343e+00 -7.500001e-01  1.289059e+00
    endloop
  endfacet
  facet normal -1.294097e-01 -9.659258e-01 -2.241441e-01
    outer loop
      vertex  -8.032222e-01 -1.299038e+00  1.714540e+00
      vertex  -4.282222e-01 -1.500000e+00  2.364058e+00
      vertex  -5.148246e-01 -1.500000e+00  2.414058e+00
    endloop
  endfacet
  facet normal -1.294080e-01 -9.659258e-01 -2.241449e-01
    outer loop
      vertex  -8.032222e-01 -1.299038e+00  1.714540e+00
      vertex  -5.148246e-01 -1.500000e+00  2.414058e+00
      vertex  -8.898244e-01 -1.299038e+00  1.764539e+00
    endloop
  endfacet
  facet normal  1.294113e-01 -9.659258e-01  2.241430e-01
    outer loop
      vertex  -4.282222e-01 -1.500000e+00  2.364058e+00
      vertex  -5.322242e-02 -1.299038e+00  3.013577e+00
      vertex  -1.398249e-01 -1.299038e+00  3.063578e+00
    endloop
  endfacet
  facet normal  1.294095e-01 -9.659259e-01  2.241438e-01
    outer loop
      vertex  -4.282222e-01 -1.500000e+00  2.364058e+00
      vertex  -1.398249e-01 -1.299038e+00  3.063578e+00
      vertex  -5.148246e-01 -1.500000e+00  2.414058e+00
    endloop
  endfacet
  facet normal  3.535518e-01 -7.071069e-01  6.123734e-01
    outer loop
      vertex  -5.322242e-02 -1.299038e+00  3.013577e+00
      vertex   2.212970e-01 -7.499999e-01  3.489058e+00
      vertex   1.346940e-01 -7.499999e-01  3.539058e+00
    endloop
  endfacet
  facet normal  3.535585e-01 -7.071062e-01  6.123701e-01
    outer loop
      vertex  -5.322242e-02 -1.299038e+00  3.013577e+00
      vertex   1.346940e-01 -7.499999e-01  3.539058e+00
      vertex  -1.398249e-01 -1.299038e+00  3.063578e+00
    endloop
  endfacet
  facet normal  4.829692e-01 -2.588190e-01  8.365127e-01
    outer loop
      vertex   2.212970e-01 -7.499999e-01  3.489058e+00
      vertex   3.217781e-01  6.935259e-08  3.663096e+00
      vertex   2.351750e-01  6.178155e-08  3.713097e+00
    endloop
  endfacet
  facet normal  4.829603e-01 -2.588202e-01  8.365174e-01
    outer loop
      vertex   2.212970e-01 -7.499999e-01  3.489058e+00
      vertex   2.351750e-01  6.178155e-08  3.713097e+00
      vertex   1.346940e-01 -7.499999e-01  3.539058e+00
    endloop
  endfacet
  facet normal  4.829605e-01  2.588189e-01  8.365178e-01
    outer loop
      vertex   3.217781e-01  6.935259e-08  3.663096e+00
      vertex   2.212970e-01  7.500001e-01  3.489058e+00
      vertex   1.346940e-01  7.500001e-01  3.539058e+00
    endloop
  endfacet
  facet normal  4.829689e-01  2.588201e-01  8.365124e-01
    outer loop
      vertex   3.217781e-01  6.935259e-08  3.663096e+00
      vertex   1.346940e-01  7.500001e-01  3.539058e+00
      vertex   2.351750e-01  6.178155e-08  3.713097e+00
    endloop
  endfacet
  facet normal  3.535586e-01  7.071071e-01  6.123690e-01
    outer loop
      vertex   2.212970e-01  7.500001e-01  3.489058e+00
      vertex  -5.322272e-02  1.299038e+00  3.013577e+00
      vertex  -1.398251e-01  1.299038e+00  3.063578e+00
    endloop
  endfacet
  facet normal  3.535518e-01  7.071064e-01  6.123738e-01
    outer loop
      vertex   2.212970e-01  7.500001e-01  3.489058e+00
      vertex  -1.398251e-01  1.299038e+00  3.063578e+00
      vertex   1.346940e-01  7.500001e-01  3.539058e+00
    endloop
  endfacet
  facet normal  1.294096e-01  9.659258e-01  2.241440e-01
    outer loop
      vertex  -5.322272e-02  1.299038e+00  3.013577e+00
      vertex  -4.282224e-01  1.500000e+00  2.364058e+00
      vertex  -5.148249e-01  1.500000e+00  2.414058e+00
    endloop
  endfacet
  facet normal  1.294114e-01  9.659258e-01  2.241426e-01
    outer loop
      vertex  -5.322272e-02  1.299038e+00  3.013577e+00
      vertex  -5.148249e-01  1.500000e+00  2.414058e+00
      vertex  -1.398251e-01  1.299038e+00  3.063578e+00
    endloop
  endfacet
  facet normal -1.294081e-01  9.659258e-01 -2.241451e-01
    outer loop
      vertex  -4.282224e-01  1.500000e+00  2.364058e+00
      vertex  -8.032224e-01  1.299038e+00  1.714540e+00
      vertex  -8.898246e-01  1.299038e+00  1.764539e+00
    endloop
  endfacet
  facet normal -1.294096e-01  9.659258e-01 -2.241440e-01
    outer loop
      vertex  -4.282224e-01  1.500000e+00  2.364058e+00
      vertex  -8.898246e-01  1.299038e+00  1.764539e+00
      vertex  -5.148249e-01  1.500000e+00  2.414058e+00
    endloop
  endfacet
  facet normal -3.535540e-01  7.071068e-01 -6.123721e-01
    outer loop
      vertex  -8.032224e-01  1.299038e+00  1.714540e+00
      vertex  -1.077741e+00  7.499999e-01  1.239059e+00
      vertex  -1.164344e+00  7.499999e-01  1.289059e+00
    endloop
  endfacet
  facet normal -3.535494e-01  7.071062e-01 -6.123754e-01
    outer loop
      vertex  -8.032224e-01  1.299038e+00  1.714540e+00
      vertex  -1.164344e+00  7.499999e-01  1.289059e+00
      vertex  -8.898246e-01  1.299038e+00  1.764539e+00
    endloop
  endfacet
  facet normal -4.829631e-01  2.588200e-01 -8.365158e-01
    outer loop
      vertex  -1.077741e+00  7.499999e-01  1.239059e+00
      vertex  -1.178222e+00 -6.178154e-08  1.065020e+00
      vertex  -1.264825e+00 -6.935259e-08  1.115020e+00
    endloop
  endfacet
  facet normal -4.829637e-01  2.588201e-01 -8.365155e-01
    outer loop
      vertex  -1.077741e+00  7.499999e-01  1.239059e+00
      vertex  -1.264825e+00 -6.935259e-08  1.115020e+00
      vertex  -1.164344e+00  7.499999e-01  1.289059e+00
    endloop
  endfacet
  facet normal -6.611010e-01  8.443101e-02  7.455313e-01
    outer loop
      vertex  -8.181232e-02  3.406964e-08  2.164058e+00
      vertex  -1.264825e+00 -6.935259e-08  1.115020e+00
      vertex  -1.164343e+00 -7.500001e-01  1.289059e+00
    endloop
  endfacet
  facet normal -7.033160e-01  2.306677e-01  6.724129e-01
    outer loop
      vertex  -8.181232e-02  3.406964e-08  2.164058e+00
      vertex  -1.164343e+00 -7.500001e-01  1.289059e+00
      vertex  -8.898244e-01 -1.299038e+00  1.764539e+00
    endloop
  endfacet
  facet normal -7.764352e-01  3.150985e-01  5.457668e-01
    outer loop
      vertex  -8.181232e-02  3.406964e-08  2.164058e+00
      vertex  -8.898244e-01 -1.299038e+00  1.764539e+00
      vertex  -5.148246e-01 -1.500000e+00  2.414058e+00
    endloop
  endfacet
  facet normal -8.608660e-01  3.150984e-01  3.995284e-01
    outer loop
      vertex  -8.181232e-02  3.406964e-08  2.164058e+00
      vertex  -5.148246e-01 -1.500000e+00  2.414058e+00
      vertex  -1.398249e-01 -1.299038e+00  3.063578e+00
    endloop
  endfacet
  facet normal -9.339844e-01  2.306684e-01  2.728834e-01
    outer loop
      vertex  -8.181232e-02  3.406964e-08  2.164058e+00
      vertex  -1.398249e-01 -1.299038e+00  3.063578e+00
      vertex   1.346940e-01 -7.499999e-01  3.539058e+00
    endloop
  endfacet
  facet normal -9.761996e-01  8.443030e-02  1.997644e-01
    outer loop
      vertex  -8.181232e-02  3.406964e-08  2.164058e+00
      vertex   1.346940e-01 -7.499999e-01  3.539058e+00
      vertex   2.351750e-01  6.178155e-08  3.713097e+00
    endloop
  endfacet
  facet normal -9.761996e-01 -8.443028e-02  1.997644e-01
    outer loop
      vertex  -8.181232e-02  3.406964e-08  2.164058e+00
      vertex   2.351750e-01  6.178155e-08  3.713097e+00
      vertex   1.346940e-01  7.500001e-01  3.539058e+00
    endloop
  endfacet
  facet normal -9.339842e-01 -2.306686e-01  2.728836e-01
    outer loop
      vertex  -8.181232e-02  3.406964e-08  2.164058e+00
      vertex   1.346940e-01  7.500001e-01  3.539058e+00
      vertex  -1.398251e-01  1.299038e+00  3.063578e+00
    endloop
  endfacet
  facet normal -8.608658e-01 -3.150985e-01  3.995284e-01
    outer loop
      vertex  -8.181232e-02  3.406964e-08  2.164058e+00
      vertex  -1.398251e-01  1.299038e+00  3.063578e+00
      vertex  -5.148249e-01  1.500000e+00  2.414058e+00
    endloop
  endfacet
  facet normal -7.764351e-01 -3.150986e-01  5.457667e-01
    outer loop
      vertex  -8.181232e-02  3.406964e-08  2.164058e+00
      vertex  -5.148249e-01  1.500000e+00  2.414058e+00
      vertex  -8.898246e-01  1.299038e+00  1.764539e+00
    endloop
  endfacet
  facet normal -7.033158e-01 -2.306677e-01  6.724130e-01
    outer loop
      vertex  -8.181232e-02  3.406964e-08  2.164058e+00
      vertex  -8.898246e-01  1.299038e+00  1.764539e+00
      vertex  -1.164344e+00  7.499999e-01  1.289059e+00
    endloop
  endfacet
  facet normal -6.611010e-01 -8.443122e-02  7.455312e-01
    outer loop
      vertex  -8.181232e-02  3.406964e-08  2.164058e+00
      vertex  -1.164344e+00  7.499999e-01  1.289059e+00
      vertex  -1.264825e+00 -6.935259e-08  1.115020e+00
    endloop
  endfacet
endsolid vcg
