solid STL generated by MeshLab
  facet normal -6.723015e-01  3.150984e-01  6.698684e-01
    outer loop
      vertex  -4.646673e-02 -2.139524e-03  2.116978e+00
      vertex  -3.678603e-01 -1.502140e+00  2.500000e+00
      vertex   2.066730e-01 -1.301178e+00  2.982090e+00
    endloop
  endfacet
  facet normal -7.843269e-01  2.306675e-01  5.758679e-01
    outer loop
      vertex  -4.646673e-02 -2.139524e-03  2.116978e+00
      vertex   2.066730e-01 -1.301178e+00  2.982090e+00
      vertex   6.272600e-01 -7.521400e-01  3.335005e+00
    endloop
  endfacet
  facet normal -8.490040e-01  8.443061e-02  5.215972e-01
    outer loop
      vertex  -4.646673e-02 -2.139524e-03  2.116978e+00
      vertex   6.272600e-01 -7.521400e-01  3.335005e+00
      vertex   7.812060e-01 -2.139404e-03  3.464181e+00
    endloop
  endfacet
  facet normal -8.490039e-01 -8.443071e-02  5.215973e-01
    outer loop
      vertex  -4.646673e-02 -2.139524e-03  2.116978e+00
      vertex   7.812060e-01 -2.139404e-03  3.464181e+00
      vertex   6.272600e-01  7.478603e-01  3.335005e+00
    endloop
  endfacet
  facet normal -7.843269e-01 -2.306677e-01  5.758678e-01
    outer loop
      vertex  -4.646673e-02 -2.139524e-03  2.116978e+00
      vertex   6.272600e-01  7.478603e-01  3.335005e+00
      vertex   2.066728e-01  1.296898e+00  2.982090e+00
    endloop
  endfacet
  facet normal -6.723012e-01 -3.150988e-01  6.698685e-01
    outer loop
      vertex  -4.646673e-02 -2.139524e-03  2.116978e+00
      vertex   2.066728e-01  1.296898e+00  2.982090e+00
      vertex  -3.678607e-01  1.497860e+00  2.500000e+00
    endloop
  endfacet
  facet normal -5.429473e-01 -3.150987e-01  7.784092e-01
    outer loop
      vertex  -4.646673e-02 -2.139524e-03  2.116978e+00
      vertex  -3.678607e-01  1.497860e+00  2.500000e+00
      vertex  -9.423941e-01  1.296898e+00  2.017909e+00
    endloop
  endfacet
  facet normal -4.309227e-01 -2.306683e-01  8.724092e-01
    outer loop
      vertex  -4.646673e-02 -2.139524e-03  2.116978e+00
      vertex  -9.423941e-01  1.296898e+00  2.017909e+00
      vertex  -1.362982e+00  7.478602e-01  1.664994e+00
    endloop
  endfacet
  facet normal -3.662448e-01 -8.442952e-02  9.266803e-01
    outer loop
      vertex  -4.646673e-02 -2.139524e-03  2.116978e+00
      vertex  -1.362982e+00  7.478602e-01  1.664994e+00
      vertex  -1.516927e+00 -2.139762e-03  1.535819e+00
    endloop
  endfacet
  facet normal -3.662448e-01  8.442943e-02  9.266804e-01
    outer loop
      vertex  -4.646673e-02 -2.139524e-03  2.116978e+00
      vertex  -1.516927e+00 -2.139762e-03  1.535819e+00
      vertex  -1.362981e+00 -7.521400e-01  1.664994e+00
    endloop
  endfacet
  facet normal -4.309227e-01  2.306681e-01  8.724092e-01
    outer loop
      vertex  -4.646673e-02 -2.139524e-03  2.116978e+00
      vertex  -1.362981e+00 -7.521400e-01  1.664994e+00
      vertex  -9.423938e-01 -1.301178e+00  2.017909e+00
    endloop
  endfacet
  facet normal -5.429472e-01  3.150984e-01  7.784095e-01
    outer loop
      vertex  -4.646673e-02 -2.139524e-03  2.116978e+00
      vertex  -9.423938e-01 -1.301178e+00  2.017909e+00
      vertex  -3.678603e-01 -1.502140e+00  2.500000e+00
    endloop
  endfacet
  facet normal  1.982679e-01 -9.659258e-01  1.663650e-01
    outer loop
      vertex  -3.678603e-01 -1.502140e+00  2.500000e+00
      vertex   2.066730e-01 -1.301178e+00  2.982090e+00
      vertex   1.423943e-01 -1.301178e+00  3.058695e+00
    endloop
  endfacet
  facet normal  1.982664e-01 -9.659258e-01  1.663664e-01
    outer loop
      vertex  -3.678603e-01 -1.502140e+00  2.500000e+00
      vertex   1.423943e-01 -1.301178e+00  3.058695e+00
      vertex  -4.321391e-01 -1.502140e+00  2.576604e+00
    endloop
  endfacet
  facet normal  5.416778e-01 -7.071066e-01  4.545168e-01
    outer loop
      vertex   2.066730e-01 -1.301178e+00  2.982090e+00
      vertex   6.272600e-01 -7.521400e-01  3.335005e+00
      vertex   5.629815e-01 -7.521400e-01  3.411610e+00
    endloop
  endfacet
  facet normal  5.416773e-01 -7.071066e-01  4.545172e-01
    outer loop
      vertex   2.066730e-01 -1.301178e+00  2.982090e+00
      vertex   5.629815e-01 -7.521400e-01  3.411610e+00
      vertex   1.423943e-01 -1.301178e+00  3.058695e+00
    endloop
  endfacet
  facet normal  7.399399e-01 -2.588192e-01  6.208878e-01
    outer loop
      vertex   6.272600e-01 -7.521400e-01  3.335005e+00
      vertex   7.812060e-01 -2.139404e-03  3.464181e+00
      vertex   7.169271e-01 -2.139404e-03  3.540785e+00
    endloop
  endfacet
  facet normal  7.399455e-01 -2.588181e-01  6.208815e-01
    outer loop
      vertex   6.272600e-01 -7.521400e-01  3.335005e+00
      vertex   7.169271e-01 -2.139404e-03  3.540785e+00
      vertex   5.629815e-01 -7.521400e-01  3.411610e+00
    endloop
  endfacet
  facet normal  7.399440e-01  2.588195e-01  6.208826e-01
    outer loop
      vertex   7.812060e-01 -2.139404e-03  3.464181e+00
      vertex   6.272600e-01  7.478603e-01  3.335005e+00
      vertex   5.629813e-01  7.478603e-01  3.411610e+00
    endloop
  endfacet
  facet normal  7.399400e-01  2.588187e-01  6.208879e-01
    outer loop
      vertex   7.812060e-01 -2.139404e-03  3.464181e+00
      vertex   5.629813e-01  7.478603e-01  3.411610e+00
      vertex   7.169271e-01 -2.139404e-03  3.540785e+00
    endloop
  endfacet
  facet normal  5.416769e-01  7.071066e-01  4.545176e-01
    outer loop
      vertex   6.272600e-01  7.478603e-01  3.335005e+00
      vertex   2.066728e-01  1.296898e+00  2.982090e+00
      vertex   1.423940e-01  1.296898e+00  3.058695e+00
    endloop
  endfacet
  facet normal  5.416768e-01  7.071066e-01  4.545178e-01
    outer loop
      vertex   6.272600e-01  7.478603e-01  3.335005e+00
      vertex   1.423940e-01  1.296898e+00  3.058695e+00
      vertex   5.629813e-01  7.478603e-01  3.411610e+00
    endloop
  endfacet
  facet normal  1.982658e-01  9.659259e-01  1.663663e-01
    outer loop
      vertex   2.066728e-01  1.296898e+00  2.982090e+00
      vertex  -3.678607e-01  1.497860e+00  2.500000e+00
      vertex  -4.321395e-01  1.497860e+00  2.576604e+00
    endloop
  endfacet
  facet normal  1.982669e-01  9.659261e-01  1.663645e-01
    outer loop
      vertex   2.066728e-01  1.296898e+00  2.982090e+00
      vertex  -4.321395e-01  1.497860e+00  2.576604e+00
      vertex   1.423940e-01  1.296898e+00  3.058695e+00
    endloop
  endfacet
  facet normal -1.982670e-01  9.659261e-01 -1.663644e-01
    outer loop
      vertex  -3.678607e-01  1.497860e+00  2.500000e+00
      vertex  -9.423941e-01  1.296898e+00  2.017909e+00
      vertex  -1.006673e+00  1.296898e+00  2.094514e+00
    endloop
  endfacet
  facet normal -1.982659e-01  9.659260e-01 -1.663662e-01
    outer loop
      vertex  -3.678607e-01  1.497860e+00  2.500000e+00
      vertex  -1.006673e+00  1.296898e+00  2.094514e+00
      vertex  -4.321395e-01  1.497860e+00  2.576604e+00
    endloop
  endfacet
  facet normal -5.416785e-01  7.071068e-01 -4.545155e-01
    outer loop
      vertex  -9.423941e-01  1.296898e+00  2.017909e+00
      vertex  -1.362982e+00  7.478602e-01  1.664994e+00
      vertex  -1.427260e+00  7.478602e-01  1.741599e+00
    endloop
  endfacet
  facet normal -5.416771e-01  7.071065e-01 -4.545176e-01
    outer loop
      vertex  -9.423941e-01  1.296898e+00  2.017909e+00
      vertex  -1.427260e+00  7.478602e-01  1.741599e+00
      vertex  -1.006673e+00  1.296898e+00  2.094514e+00
    endloop
  endfacet
  facet normal -7.399397e-01  2.588182e-01 -6.208884e-01
    outer loop
      vertex  -1.362982e+00  7.478602e-01  1.664994e+00
      vertex  -1.516927e+00 -2.139762e-03  1.535819e+00
      vertex  -1.581206e+00 -2.139762e-03  1.612423e+00
    endloop
  endfacet
  facet normal -7.399465e-01  2.588196e-01 -6.208797e-01
    outer loop
      vertex  -1.362982e+00  7.478602e-01  1.664994e+00
      vertex  -1.581206e+00 -2.139762e-03  1.612423e+00
      vertex  -1.427260e+00  7.478602e-01  1.741599e+00
    endloop
  endfacet
  facet normal -7.399462e-01 -2.588182e-01 -6.208805e-01
    outer loop
      vertex  -1.516927e+00 -2.139762e-03  1.535819e+00
      vertex  -1.362981e+00 -7.521400e-01  1.664994e+00
      vertex  -1.427260e+00 -7.521400e-01  1.741599e+00
    endloop
  endfacet
  facet normal -7.399394e-01 -2.588195e-01 -6.208882e-01
    outer loop
      vertex  -1.516927e+00 -2.139762e-03  1.535819e+00
      vertex  -1.427260e+00 -7.521400e-01  1.741599e+00
      vertex  -1.581206e+00 -2.139762e-03  1.612423e+00
    endloop
  endfacet
  facet normal -5.416764e-01 -7.071069e-01 -4.545178e-01
    outer loop
      vertex  -1.362981e+00 -7.521400e-01  1.664994e+00
      vertex  -9.423938e-01 -1.301178e+00  2.017909e+00
      vertex  -1.006673e+00 -1.301178e+00  2.094514e+00
    endloop
  endfacet
  facet normal -5.416781e-01 -7.071066e-01 -4.545161e-01
    outer loop
      vertex  -1.362981e+00 -7.521400e-01  1.664994e+00
      vertex  -1.006673e+00 -1.301178e+00  2.094514e+00
      vertex  -1.427260e+00 -7.521400e-01  1.741599e+00
    endloop
  endfacet
  facet normal -1.982664e-01 -9.659259e-01 -1.663664e-01
    outer loop
      vertex  -9.423938e-01 -1.301178e+00  2.017909e+00
      vertex  -3.678603e-01 -1.502140e+00  2.500000e+00
      vertex  -4.321391e-01 -1.502140e+00  2.576604e+00
    endloop
  endfacet
  facet normal -1.982676e-01 -9.659257e-01 -1.663653e-01
    outer loop
      vertex  -9.423938e-01 -1.301178e+00  2.017909e+00
      vertex  -4.321391e-01 -1.502140e+00  2.576604e+00
      vertex  -1.006673e+00 -1.301178e+00  2.094514e+00
    endloop
  endfacet
  facet normal -6.723022e-01  3.150983e-01  6.698677e-01
    outer loop
      vertex  -1.107455e-01 -2.139583e-03  2.193582e+00
      vertex  -4.321391e-01 -1.502140e+00  2.576604e+00
      vertex   1.423943e-01 -1.301178e+00  3.058695e+00
    endloop
  endfacet
  facet normal -7.843268e-01  2.306680e-01  5.758679e-01
    outer loop
      vertex  -1.107455e-01 -2.139583e-03  2.193582e+00
      vertex   1.423943e-01 -1.301178e+00  3.058695e+00
      vertex   5.629815e-01 -7.521400e-01  3.411610e+00
    endloop
  endfacet
  facet normal -8.490041e-01  8.443052e-02  5.215972e-01
    outer loop
      vertex  -1.107455e-01 -2.139583e-03  2.193582e+00
      vertex   5.629815e-01 -7.521400e-01  3.411610e+00
      vertex   7.169271e-01 -2.139404e-03  3.540785e+00
    endloop
  endfacet
  facet normal -8.490040e-01 -8.443087e-02  5.215972e-01
    outer loop
      vertex  -1.107455e-01 -2.139583e-03  2.193582e+00
      vertex   7.169271e-01 -2.139404e-03  3.540785e+00
      vertex   5.629813e-01  7.478603e-01  3.411610e+00
    endloop
  endfacet
  facet normal -7.843267e-01 -2.306681e-01  5.758678e-01
    outer loop
      vertex  -1.107455e-01 -2.139583e-03  2.193582e+00
      vertex   5.629813e-01  7.478603e-01  3.411610e+00
      vertex   1.423940e-01  1.296898e+00  3.058695e+00
    endloop
  endfacet
  facet normal -6.723019e-01 -3.150987e-01  6.698678e-01
    outer loop
      vertex  -1.107455e-01 -2.139583e-03  2.193582e+00
      vertex   1.423940e-01  1.296898e+00  3.058695e+00
      vertex  -4.321395e-01  1.497860e+00  2.576604e+00
    endloop
  endfacet
  facet normal -5.429467e-01 -3.150987e-01  7.784098e-01
    outer loop
      vertex  -1.107455e-01 -2.139583e-03  2.193582e+00
      vertex  -4.321395e-01  1.497860e+00  2.576604e+00
      vertex  -1.006673e+00  1.296898e+00  2.094514e+00
    endloop
  endfacet
  facet normal -4.309224e-01 -2.306686e-01  8.724092e-01
    outer loop
      vertex  -1.107455e-01 -2.139583e-03  2.193582e+00
      vertex  -1.006673e+00  1.296898e+00  2.094514e+00
      vertex  -1.427260e+00  7.478602e-01  1.741599e+00
    endloop
  endfacet
  facet normal -3.662449e-01 -8.443046e-02  9.266802e-01
    outer loop
      vertex  -1.107455e-01 -2.139583e-03  2.193582e+00
      vertex  -1.427260e+00  7.478602e-01  1.741599e+00
      vertex  -1.581206e+00 -2.139762e-03  1.612423e+00
    endloop
  endfacet
  facet normal -3.662449e-01  8.443041e-02  9.266801e-01
    outer loop
      vertex  -1.107455e-01 -2.139583e-03  2.193582e+00
      vertex  -1.581206e+00 -2.139762e-03  1.612423e+00
      vertex  -1.427260e+00 -7.521400e-01  1.741599e+00
    endloop
  endfacet
  facet normal -4.309225e-01  2.306684e-01  8.724092e-01
    outer loop
      vertex  -1.107455e-01 -2.139583e-03  2.193582e+00
      vertex  -1.427260e+00 -7.521400e-01  1.741599e+00
      vertex  -1.006673e+00 -1.301178e+00  2.094514e+00
    endloop
  endfacet
  facet normal -5.429465e-01  3.150983e-01  7.784101e-01
    outer loop
      vertex  -1.107455e-01 -2.139583e-03  2.193582e+00
      vertex  -1.006673e+00 -1.301178e+00  2.094514e+00
      vertex  -4.321391e-01 -1.502140e+00  2.576604e+00
    endloop
  endfacet
  facet normal -3.494948e-02  1.304309e-01 -9.908412e-01
    outer loop
      vertex   2.139546e-03 -2.139524e-03  2.130000e+00
      vertex   1.508043e-02 -2.455385e-02  2.126593e+00
      vertex   2.139546e-03 -2.802141e-02  2.126593e+00
    endloop
  endfacet
  facet normal -9.548193e-02  9.548254e-02 -9.908412e-01
    outer loop
      vertex   2.139546e-03 -2.139524e-03  2.130000e+00
      vertex   2.455387e-02 -1.508047e-02  2.126593e+00
      vertex   1.508043e-02 -2.455385e-02  2.126593e+00
    endloop
  endfacet
  facet normal -1.304309e-01  3.494932e-02 -9.908413e-01
    outer loop
      vertex   2.139546e-03 -2.139524e-03  2.130000e+00
      vertex   2.802143e-02 -2.139524e-03  2.126593e+00
      vertex   2.455387e-02 -1.508047e-02  2.126593e+00
    endloop
  endfacet
  facet normal -1.304309e-01 -3.494940e-02 -9.908412e-01
    outer loop
      vertex   2.139546e-03 -2.139524e-03  2.130000e+00
      vertex   2.455387e-02  1.080139e-02  2.126593e+00
      vertex   2.802143e-02 -2.139524e-03  2.126593e+00
    endloop
  endfacet
  facet normal -9.548201e-02 -9.548262e-02 -9.908412e-01
    outer loop
      vertex   2.139546e-03 -2.139524e-03  2.130000e+00
      vertex   1.508043e-02  2.027477e-02  2.126593e+00
      vertex   2.455387e-02  1.080139e-02  2.126593e+00
    endloop
  endfacet
  facet normal -3.494952e-02 -1.304310e-01 -9.908412e-01
    outer loop
      vertex   2.139546e-03 -2.139524e-03  2.130000e+00
      vertex   2.139546e-03  2.374233e-02  2.126593e+00
      vertex   1.508043e-02  2.027477e-02  2.126593e+00
    endloop
  endfacet
  facet normal  3.494919e-02 -1.304310e-01 -9.908412e-01
    outer loop
      vertex   2.139546e-03 -2.139524e-03  2.130000e+00
      vertex  -1.080146e-02  2.027477e-02  2.126593e+00
      vertex   2.139546e-03  2.374233e-02  2.126593e+00
    endloop
  endfacet
  facet normal  9.548169e-02 -9.548230e-02 -9.908413e-01
    outer loop
      vertex   2.139546e-03 -2.139524e-03  2.130000e+00
      vertex  -2.027490e-02  1.080139e-02  2.126593e+00
      vertex  -1.080146e-02  2.027477e-02  2.126593e+00
    endloop
  endfacet
  facet normal  1.304306e-01 -3.494870e-02 -9.908413e-01
    outer loop
      vertex   2.139546e-03 -2.139524e-03  2.130000e+00
      vertex  -2.374240e-02 -2.139524e-03  2.126593e+00
      vertex  -2.027490e-02  1.080139e-02  2.126593e+00
    endloop
  endfacet
  facet normal  1.304306e-01  3.494861e-02 -9.908413e-01
    outer loop
      vertex   2.139546e-03 -2.139524e-03  2.130000e+00
      vertex  -2.027490e-02 -1.508047e-02  2.126593e+00
      vertex  -2.374240e-02 -2.139524e-03  2.126593e+00
    endloop
  endfacet
  facet normal  9.548162e-02  9.548223e-02 -9.908413e-01
    outer loop
      vertex   2.139546e-03 -2.139524e-03  2.130000e+00
      vertex  -1.080146e-02 -2.455385e-02  2.126593e+00
      vertex  -2.027490e-02 -1.508047e-02  2.126593e+00
    endloop
  endfacet
  facet normal  3.494916e-02  1.304309e-01 -9.908412e-01
    outer loop
      vertex   2.139546e-03 -2.139524e-03  2.130000e+00
      vertex   2.139546e-03 -2.802141e-02  2.126593e+00
      vertex  -1.080146e-02 -2.455385e-02  2.126593e+00
    endloop
  endfacet
  facet normal -1.020160e-01  3.807224e-01 -9.190447e-01
    outer loop
      vertex   2.139546e-03 -2.802141e-02  2.126593e+00
      vertex   1.508043e-02 -2.455385e-02  2.126593e+00
      vertex   2.713952e-02 -4.544075e-02  2.116602e+00
    endloop
  endfacet
  facet normal -1.020161e-01  3.807223e-01 -9.190447e-01
    outer loop
      vertex   2.139546e-03 -2.802141e-02  2.126593e+00
      vertex   2.713952e-02 -4.544075e-02  2.116602e+00
      vertex   2.139546e-03 -5.213960e-02  2.116602e+00
    endloop
  endfacet
  facet normal -2.787075e-01  2.787092e-01 -9.190447e-01
    outer loop
      vertex   1.508043e-02 -2.455385e-02  2.126593e+00
      vertex   2.455387e-02 -1.508047e-02  2.126593e+00
      vertex   4.544077e-02 -2.713962e-02  2.116602e+00
    endloop
  endfacet
  facet normal -2.787074e-01  2.787093e-01 -9.190447e-01
    outer loop
      vertex   1.508043e-02 -2.455385e-02  2.126593e+00
      vertex   4.544077e-02 -2.713962e-02  2.116602e+00
      vertex   2.713952e-02 -4.544075e-02  2.116602e+00
    endloop
  endfacet
  facet normal -3.807239e-01  1.020160e-01 -9.190441e-01
    outer loop
      vertex   2.455387e-02 -1.508047e-02  2.126593e+00
      vertex   2.802143e-02 -2.139524e-03  2.126593e+00
      vertex   5.213950e-02 -2.139524e-03  2.116602e+00
    endloop
  endfacet
  facet normal -3.807232e-01  1.020140e-01 -9.190446e-01
    outer loop
      vertex   2.455387e-02 -1.508047e-02  2.126593e+00
      vertex   5.213950e-02 -2.139524e-03  2.116602e+00
      vertex   4.544077e-02 -2.713962e-02  2.116602e+00
    endloop
  endfacet
  facet normal -3.807226e-01 -1.020158e-01 -9.190447e-01
    outer loop
      vertex   2.802143e-02 -2.139524e-03  2.126593e+00
      vertex   2.455387e-02  1.080139e-02  2.126593e+00
      vertex   4.544077e-02  2.286048e-02  2.116602e+00
    endloop
  endfacet
  facet normal -3.807240e-01 -1.020146e-01 -9.190443e-01
    outer loop
      vertex   2.802143e-02 -2.139524e-03  2.126593e+00
      vertex   4.544077e-02  2.286048e-02  2.116602e+00
      vertex   5.213950e-02 -2.139524e-03  2.116602e+00
    endloop
  endfacet
  facet normal -2.787074e-01 -2.787092e-01 -9.190447e-01
    outer loop
      vertex   2.455387e-02  1.080139e-02  2.126593e+00
      vertex   1.508043e-02  2.027477e-02  2.126593e+00
      vertex   2.713952e-02  4.116168e-02  2.116602e+00
    endloop
  endfacet
  facet normal -2.787083e-01 -2.787091e-01 -9.190446e-01
    outer loop
      vertex   2.455387e-02  1.080139e-02  2.126593e+00
      vertex   2.713952e-02  4.116168e-02  2.116602e+00
      vertex   4.544077e-02  2.286048e-02  2.116602e+00
    endloop
  endfacet
  facet normal -1.020160e-01 -3.807222e-01 -9.190447e-01
    outer loop
      vertex   1.508043e-02  2.027477e-02  2.126593e+00
      vertex   2.139546e-03  2.374233e-02  2.126593e+00
      vertex   2.139546e-03  4.786053e-02  2.116602e+00
    endloop
  endfacet
  facet normal -1.020161e-01 -3.807222e-01 -9.190448e-01
    outer loop
      vertex   1.508043e-02  2.027477e-02  2.126593e+00
      vertex   2.139546e-03  4.786053e-02  2.116602e+00
      vertex   2.713952e-02  4.116168e-02  2.116602e+00
    endloop
  endfacet
  facet normal  1.020151e-01 -3.807225e-01 -9.190448e-01
    outer loop
      vertex   2.139546e-03  2.374233e-02  2.126593e+00
      vertex  -1.080146e-02  2.027477e-02  2.126593e+00
      vertex  -2.286061e-02  4.116168e-02  2.116602e+00
    endloop
  endfacet
  facet normal  1.020154e-01 -3.807222e-01 -9.190448e-01
    outer loop
      vertex   2.139546e-03  2.374233e-02  2.126593e+00
      vertex  -2.286061e-02  4.116168e-02  2.116602e+00
      vertex   2.139546e-03  4.786053e-02  2.116602e+00
    endloop
  endfacet
  facet normal  2.787079e-01 -2.787097e-01 -9.190444e-01
    outer loop
      vertex  -1.080146e-02  2.027477e-02  2.126593e+00
      vertex  -2.027490e-02  1.080139e-02  2.126593e+00
      vertex  -4.116180e-02  2.286048e-02  2.116602e+00
    endloop
  endfacet
  facet normal  2.787082e-01 -2.787080e-01 -9.190449e-01
    outer loop
      vertex  -1.080146e-02  2.027477e-02  2.126593e+00
      vertex  -4.116180e-02  2.286048e-02  2.116602e+00
      vertex  -2.286061e-02  4.116168e-02  2.116602e+00
    endloop
  endfacet
  facet normal  3.807232e-01 -1.020143e-01 -9.190446e-01
    outer loop
      vertex  -2.027490e-02  1.080139e-02  2.126593e+00
      vertex  -2.374240e-02 -2.139524e-03  2.126593e+00
      vertex  -4.786053e-02 -2.139524e-03  2.116602e+00
    endloop
  endfacet
  facet normal  3.807233e-01 -1.020144e-01 -9.190446e-01
    outer loop
      vertex  -2.027490e-02  1.080139e-02  2.126593e+00
      vertex  -4.786053e-02 -2.139524e-03  2.116602e+00
      vertex  -4.116180e-02  2.286048e-02  2.116602e+00
    endloop
  endfacet
  facet normal  3.807232e-01  1.020140e-01 -9.190446e-01
    outer loop
      vertex  -2.374240e-02 -2.139524e-03  2.126593e+00
      vertex  -2.027490e-02 -1.508047e-02  2.126593e+00
      vertex  -4.116180e-02 -2.713962e-02  2.116602e+00
    endloop
  endfacet
  facet normal  3.807232e-01  1.020140e-01 -9.190446e-01
    outer loop
      vertex  -2.374240e-02 -2.139524e-03  2.126593e+00
      vertex  -4.116180e-02 -2.713962e-02  2.116602e+00
      vertex  -4.786053e-02 -2.139524e-03  2.116602e+00
    endloop
  endfacet
  facet normal  2.787071e-01  2.787088e-01 -9.190450e-01
    outer loop
      vertex  -2.027490e-02 -1.508047e-02  2.126593e+00
      vertex  -1.080146e-02 -2.455385e-02  2.126593e+00
      vertex  -2.286061e-02 -4.544075e-02  2.116602e+00
    endloop
  endfacet
  facet normal  2.787078e-01  2.787087e-01 -9.190449e-01
    outer loop
      vertex  -2.027490e-02 -1.508047e-02  2.126593e+00
      vertex  -2.286061e-02 -4.544075e-02  2.116602e+00
      vertex  -4.116180e-02 -2.713962e-02  2.116602e+00
    endloop
  endfacet
  facet normal  1.020151e-01  3.807223e-01 -9.190448e-01
    outer loop
      vertex  -1.080146e-02 -2.455385e-02  2.126593e+00
      vertex   2.139546e-03 -2.802141e-02  2.126593e+00
      vertex   2.139546e-03 -5.213960e-02  2.116602e+00
    endloop
  endfacet
  facet normal  1.020154e-01  3.807225e-01 -9.190447e-01
    outer loop
      vertex  -1.080146e-02 -2.455385e-02  2.126593e+00
      vertex   2.139546e-03 -5.213960e-02  2.116602e+00
      vertex  -2.286061e-02 -4.544075e-02  2.116602e+00
    endloop
  endfacet
  facet normal -1.609857e-01  6.007957e-01 -7.830249e-01
    outer loop
      vertex   2.139546e-03 -5.213960e-02  2.116602e+00
      vertex   2.713952e-02 -4.544075e-02  2.116602e+00
      vertex   3.749482e-02 -6.337674e-02  2.100711e+00
    endloop
  endfacet
  facet normal -1.609840e-01  6.007986e-01 -7.830231e-01
    outer loop
      vertex   2.139546e-03 -5.213960e-02  2.116602e+00
      vertex   3.749482e-02 -6.337674e-02  2.100711e+00
      vertex   2.139546e-03 -7.285018e-02  2.100711e+00
    endloop
  endfacet
  facet normal -4.398136e-01  4.398165e-01 -7.830233e-01
    outer loop
      vertex   2.713952e-02 -4.544075e-02  2.116602e+00
      vertex   4.544077e-02 -2.713962e-02  2.116602e+00
      vertex   6.337676e-02 -3.749485e-02  2.100711e+00
    endloop
  endfacet
  facet normal -4.398137e-01  4.398147e-01 -7.830243e-01
    outer loop
      vertex   2.713952e-02 -4.544075e-02  2.116602e+00
      vertex   6.337676e-02 -3.749485e-02  2.100711e+00
      vertex   3.749482e-02 -6.337674e-02  2.100711e+00
    endloop
  endfacet
  facet normal -6.007966e-01  1.609823e-01 -7.830250e-01
    outer loop
      vertex   4.544077e-02 -2.713962e-02  2.116602e+00
      vertex   5.213950e-02 -2.139524e-03  2.116602e+00
      vertex   7.285021e-02 -2.139524e-03  2.100711e+00
    endloop
  endfacet
  facet normal -6.007972e-01  1.609833e-01 -7.830244e-01
    outer loop
      vertex   4.544077e-02 -2.713962e-02  2.116602e+00
      vertex   7.285021e-02 -2.139524e-03  2.100711e+00
      vertex   6.337676e-02 -3.749485e-02  2.100711e+00
    endloop
  endfacet
  facet normal -6.007969e-01 -1.609830e-01 -7.830245e-01
    outer loop
      vertex   5.213950e-02 -2.139524e-03  2.116602e+00
      vertex   4.544077e-02  2.286048e-02  2.116602e+00
      vertex   6.337676e-02  3.321578e-02  2.100711e+00
    endloop
  endfacet
  facet normal -6.007965e-01 -1.609832e-01 -7.830249e-01
    outer loop
      vertex   5.213950e-02 -2.139524e-03  2.116602e+00
      vertex   6.337676e-02  3.321578e-02  2.100711e+00
      vertex   7.285021e-02 -2.139524e-03  2.100711e+00
    endloop
  endfacet
  facet normal -4.398135e-01 -4.398148e-01 -7.830243e-01
    outer loop
      vertex   4.544077e-02  2.286048e-02  2.116602e+00
      vertex   2.713952e-02  4.116168e-02  2.116602e+00
      vertex   3.749482e-02  5.909767e-02  2.100711e+00
    endloop
  endfacet
  facet normal -4.398138e-01 -4.398147e-01 -7.830242e-01
    outer loop
      vertex   4.544077e-02  2.286048e-02  2.116602e+00
      vertex   3.749482e-02  5.909767e-02  2.100711e+00
      vertex   6.337676e-02  3.321578e-02  2.100711e+00
    endloop
  endfacet
  facet normal -1.609864e-01 -6.007984e-01 -7.830228e-01
    outer loop
      vertex   2.713952e-02  4.116168e-02  2.116602e+00
      vertex   2.139546e-03  4.786053e-02  2.116602e+00
      vertex   2.139546e-03  6.857111e-02  2.100711e+00
    endloop
  endfacet
  facet normal -1.609835e-01 -6.007968e-01 -7.830247e-01
    outer loop
      vertex   2.713952e-02  4.116168e-02  2.116602e+00
      vertex   2.139546e-03  6.857111e-02  2.100711e+00
      vertex   3.749482e-02  5.909767e-02  2.100711e+00
    endloop
  endfacet
  facet normal  1.609848e-01 -6.007968e-01 -7.830243e-01
    outer loop
      vertex   2.139546e-03  4.786053e-02  2.116602e+00
      vertex  -2.286061e-02  4.116168e-02  2.116602e+00
      vertex  -3.321578e-02  5.909767e-02  2.100711e+00
    endloop
  endfacet
  facet normal  1.609837e-01 -6.007986e-01 -7.830232e-01
    outer loop
      vertex   2.139546e-03  4.786053e-02  2.116602e+00
      vertex  -3.321578e-02  5.909767e-02  2.100711e+00
      vertex   2.139546e-03  6.857111e-02  2.100711e+00
    endloop
  endfacet
  facet normal  4.398143e-01 -4.398141e-01 -7.830243e-01
    outer loop
      vertex  -2.286061e-02  4.116168e-02  2.116602e+00
      vertex  -4.116180e-02  2.286048e-02  2.116602e+00
      vertex  -5.909779e-02  3.321578e-02  2.100711e+00
    endloop
  endfacet
  facet normal  4.398142e-01 -4.398162e-01 -7.830231e-01
    outer loop
      vertex  -2.286061e-02  4.116168e-02  2.116602e+00
      vertex  -5.909779e-02  3.321578e-02  2.100711e+00
      vertex  -3.321578e-02  5.909767e-02  2.100711e+00
    endloop
  endfacet
  facet normal  6.007968e-01 -1.609829e-01 -7.830247e-01
    outer loop
      vertex  -4.116180e-02  2.286048e-02  2.116602e+00
      vertex  -4.786053e-02 -2.139524e-03  2.116602e+00
      vertex  -6.857123e-02 -2.139583e-03  2.100711e+00
    endloop
  endfacet
  facet normal  6.007969e-01 -1.609831e-01 -7.830246e-01
    outer loop
      vertex  -4.116180e-02  2.286048e-02  2.116602e+00
      vertex  -6.857123e-02 -2.139583e-03  2.100711e+00
      vertex  -5.909779e-02  3.321578e-02  2.100711e+00
    endloop
  endfacet
  facet normal  6.007975e-01  1.609825e-01 -7.830243e-01
    outer loop
      vertex  -4.786053e-02 -2.139524e-03  2.116602e+00
      vertex  -4.116180e-02 -2.713962e-02  2.116602e+00
      vertex  -5.909779e-02 -3.749485e-02  2.100711e+00
    endloop
  endfacet
  facet normal  6.007962e-01  1.609833e-01 -7.830251e-01
    outer loop
      vertex  -4.786053e-02 -2.139524e-03  2.116602e+00
      vertex  -5.909779e-02 -3.749485e-02  2.100711e+00
      vertex  -6.857123e-02 -2.139583e-03  2.100711e+00
    endloop
  endfacet
  facet normal  4.398145e-01  4.398160e-01 -7.830231e-01
    outer loop
      vertex  -4.116180e-02 -2.713962e-02  2.116602e+00
      vertex  -2.286061e-02 -4.544075e-02  2.116602e+00
      vertex  -3.321578e-02 -6.337674e-02  2.100711e+00
    endloop
  endfacet
  facet normal  4.398139e-01  4.398160e-01 -7.830234e-01
    outer loop
      vertex  -4.116180e-02 -2.713962e-02  2.116602e+00
      vertex  -3.321578e-02 -6.337674e-02  2.100711e+00
      vertex  -5.909779e-02 -3.749485e-02  2.100711e+00
    endloop
  endfacet
  facet normal  1.609853e-01  6.007985e-01 -7.830229e-01
    outer loop
      vertex  -2.286061e-02 -4.544075e-02  2.116602e+00
      vertex   2.139546e-03 -5.213960e-02  2.116602e+00
      vertex   2.139546e-03 -7.285018e-02  2.100711e+00
    endloop
  endfacet
  facet normal  1.609834e-01  6.007974e-01 -7.830241e-01
    outer loop
      vertex  -2.286061e-02 -4.544075e-02  2.116602e+00
      vertex   2.139546e-03 -7.285018e-02  2.100711e+00
      vertex  -3.321578e-02 -6.337674e-02  2.100711e+00
    endloop
  endfacet
  facet normal -2.079341e-01  7.760182e-01 -5.954488e-01
    outer loop
      vertex   2.139546e-03 -7.285018e-02  2.100711e+00
      vertex   3.749482e-02 -6.337674e-02  2.100711e+00
      vertex   4.544077e-02 -7.713958e-02  2.080000e+00
    endloop
  endfacet
  facet normal -2.079335e-01  7.760190e-01 -5.954478e-01
    outer loop
      vertex   2.139546e-03 -7.285018e-02  2.100711e+00
      vertex   4.544077e-02 -7.713958e-02  2.080000e+00
      vertex   2.139546e-03 -8.874210e-02  2.080000e+00
    endloop
  endfacet
  facet normal -5.680861e-01  5.680875e-01 -5.954450e-01
    outer loop
      vertex   3.749482e-02 -6.337674e-02  2.100711e+00
      vertex   6.337676e-02 -3.749485e-02  2.100711e+00
      vertex   7.713947e-02 -4.544075e-02  2.080000e+00
    endloop
  endfacet
  facet normal -5.680863e-01  5.680839e-01 -5.954482e-01
    outer loop
      vertex   3.749482e-02 -6.337674e-02  2.100711e+00
      vertex   7.713947e-02 -4.544075e-02  2.080000e+00
      vertex   4.544077e-02 -7.713958e-02  2.080000e+00
    endloop
  endfacet
  facet normal -7.760212e-01  2.079345e-01 -5.954447e-01
    outer loop
      vertex   6.337676e-02 -3.749485e-02  2.100711e+00
      vertex   7.285021e-02 -2.139524e-03  2.100711e+00
      vertex   8.874200e-02 -2.139524e-03  2.080000e+00
    endloop
  endfacet
  facet normal -7.760209e-01  2.079340e-01 -5.954452e-01
    outer loop
      vertex   6.337676e-02 -3.749485e-02  2.100711e+00
      vertex   8.874200e-02 -2.139524e-03  2.080000e+00
      vertex   7.713947e-02 -4.544075e-02  2.080000e+00
    endloop
  endfacet
  facet normal -7.760207e-01 -2.079345e-01 -5.954452e-01
    outer loop
      vertex   7.285021e-02 -2.139524e-03  2.100711e+00
      vertex   6.337676e-02  3.321578e-02  2.100711e+00
      vertex   7.713947e-02  4.116168e-02  2.080000e+00
    endloop
  endfacet
  facet normal -7.760212e-01 -2.079342e-01 -5.954447e-01
    outer loop
      vertex   7.285021e-02 -2.139524e-03  2.100711e+00
      vertex   7.713947e-02  4.116168e-02  2.080000e+00
      vertex   8.874200e-02 -2.139524e-03  2.080000e+00
    endloop
  endfacet
  facet normal -5.680844e-01 -5.680857e-01 -5.954484e-01
    outer loop
      vertex   6.337676e-02  3.321578e-02  2.100711e+00
      vertex   3.749482e-02  5.909767e-02  2.100711e+00
      vertex   4.544077e-02  7.286050e-02  2.080000e+00
    endloop
  endfacet
  facet normal -5.680877e-01 -5.680856e-01 -5.954453e-01
    outer loop
      vertex   6.337676e-02  3.321578e-02  2.100711e+00
      vertex   4.544077e-02  7.286050e-02  2.080000e+00
      vertex   7.713947e-02  4.116168e-02  2.080000e+00
    endloop
  endfacet
  facet normal -2.079343e-01 -7.760190e-01 -5.954476e-01
    outer loop
      vertex   3.749482e-02  5.909767e-02  2.100711e+00
      vertex   2.139546e-03  6.857111e-02  2.100711e+00
      vertex   2.139546e-03  8.446302e-02  2.080000e+00
    endloop
  endfacet
  facet normal -2.079334e-01 -7.760186e-01 -5.954485e-01
    outer loop
      vertex   3.749482e-02  5.909767e-02  2.100711e+00
      vertex   2.139546e-03  8.446302e-02  2.080000e+00
      vertex   4.544077e-02  7.286050e-02  2.080000e+00
    endloop
  endfacet
  facet normal  2.079337e-01 -7.760181e-01 -5.954489e-01
    outer loop
      vertex   2.139546e-03  6.857111e-02  2.100711e+00
      vertex  -3.321578e-02  5.909767e-02  2.100711e+00
      vertex  -4.116180e-02  7.286050e-02  2.080000e+00
    endloop
  endfacet
  facet normal  2.079330e-01 -7.760192e-01 -5.954477e-01
    outer loop
      vertex   2.139546e-03  6.857111e-02  2.100711e+00
      vertex  -4.116180e-02  7.286050e-02  2.080000e+00
      vertex   2.139546e-03  8.446302e-02  2.080000e+00
    endloop
  endfacet
  facet normal  5.680856e-01 -5.680882e-01 -5.954449e-01
    outer loop
      vertex  -3.321578e-02  5.909767e-02  2.100711e+00
      vertex  -5.909779e-02  3.321578e-02  2.100711e+00
      vertex  -7.286050e-02  4.116168e-02  2.080000e+00
    endloop
  endfacet
  facet normal  5.680857e-01 -5.680836e-01 -5.954491e-01
    outer loop
      vertex  -3.321578e-02  5.909767e-02  2.100711e+00
      vertex  -7.286050e-02  4.116168e-02  2.080000e+00
      vertex  -4.116180e-02  7.286050e-02  2.080000e+00
    endloop
  endfacet
  facet normal  7.760212e-01 -2.079343e-01 -5.954447e-01
    outer loop
      vertex  -5.909779e-02  3.321578e-02  2.100711e+00
      vertex  -6.857123e-02 -2.139583e-03  2.100711e+00
      vertex  -8.446302e-02 -2.139583e-03  2.080000e+00
    endloop
  endfacet
  facet normal  7.760210e-01 -2.079339e-01 -5.954452e-01
    outer loop
      vertex  -5.909779e-02  3.321578e-02  2.100711e+00
      vertex  -8.446302e-02 -2.139583e-03  2.080000e+00
      vertex  -7.286050e-02  4.116168e-02  2.080000e+00
    endloop
  endfacet
  facet normal  7.760202e-01  2.079346e-01 -5.954461e-01
    outer loop
      vertex  -6.857123e-02 -2.139583e-03  2.100711e+00
      vertex  -5.909779e-02 -3.749485e-02  2.100711e+00
      vertex  -7.286050e-02 -4.544087e-02  2.080000e+00
    endloop
  endfacet
  facet normal  7.760213e-01  2.079339e-01 -5.954449e-01
    outer loop
      vertex  -6.857123e-02 -2.139583e-03  2.100711e+00
      vertex  -7.286050e-02 -4.544087e-02  2.080000e+00
      vertex  -8.446302e-02 -2.139583e-03  2.080000e+00
    endloop
  endfacet
  facet normal  5.680841e-01  5.680868e-01 -5.954475e-01
    outer loop
      vertex  -5.909779e-02 -3.749485e-02  2.100711e+00
      vertex  -3.321578e-02 -6.337674e-02  2.100711e+00
      vertex  -4.116168e-02 -7.713958e-02  2.080000e+00
    endloop
  endfacet
  facet normal  5.680848e-01  5.680868e-01 -5.954470e-01
    outer loop
      vertex  -5.909779e-02 -3.749485e-02  2.100711e+00
      vertex  -4.116168e-02 -7.713958e-02  2.080000e+00
      vertex  -7.286050e-02 -4.544087e-02  2.080000e+00
    endloop
  endfacet
  facet normal  2.079339e-01  7.760190e-01 -5.954478e-01
    outer loop
      vertex  -3.321578e-02 -6.337674e-02  2.100711e+00
      vertex   2.139546e-03 -7.285018e-02  2.100711e+00
      vertex   2.139546e-03 -8.874210e-02  2.080000e+00
    endloop
  endfacet
  facet normal  2.079334e-01  7.760187e-01 -5.954483e-01
    outer loop
      vertex  -3.321578e-02 -6.337674e-02  2.100711e+00
      vertex   2.139546e-03 -8.874210e-02  2.080000e+00
      vertex  -4.116168e-02 -7.713958e-02  2.080000e+00
    endloop
  endfacet
  facet normal -2.402989e-01  8.968084e-01 -3.714715e-01
    outer loop
      vertex   2.139546e-03 -8.874210e-02  2.080000e+00
      vertex   4.544077e-02 -7.713958e-02  2.080000e+00
      vertex   5.043576e-02 -8.579119e-02  2.055882e+00
    endloop
  endfacet
  facet normal -2.402984e-01  8.968091e-01 -3.714704e-01
    outer loop
      vertex   2.139546e-03 -8.874210e-02  2.080000e+00
      vertex   5.043576e-02 -8.579119e-02  2.055882e+00
      vertex   2.139546e-03 -9.873208e-02  2.055882e+00
    endloop
  endfacet
  facet normal -6.565107e-01  6.565080e-01 -3.714714e-01
    outer loop
      vertex   4.544077e-02 -7.713958e-02  2.080000e+00
      vertex   7.713947e-02 -4.544075e-02  2.080000e+00
      vertex   8.579109e-02 -5.043574e-02  2.055882e+00
    endloop
  endfacet
  facet normal -6.565105e-01  6.565083e-01 -3.714710e-01
    outer loop
      vertex   4.544077e-02 -7.713958e-02  2.080000e+00
      vertex   8.579109e-02 -5.043574e-02  2.055882e+00
      vertex   5.043576e-02 -8.579119e-02  2.055882e+00
    endloop
  endfacet
  facet normal -8.968074e-01  2.402987e-01 -3.714741e-01
    outer loop
      vertex   7.713947e-02 -4.544075e-02  2.080000e+00
      vertex   8.874200e-02 -2.139524e-03  2.080000e+00
      vertex   9.873209e-02 -2.139524e-03  2.055882e+00
    endloop
  endfacet
  facet normal -8.968080e-01  2.403003e-01 -3.714717e-01
    outer loop
      vertex   7.713947e-02 -4.544075e-02  2.080000e+00
      vertex   9.873209e-02 -2.139524e-03  2.055882e+00
      vertex   8.579109e-02 -5.043574e-02  2.055882e+00
    endloop
  endfacet
  facet normal -8.968080e-01 -2.402989e-01 -3.714725e-01
    outer loop
      vertex   8.874200e-02 -2.139524e-03  2.080000e+00
      vertex   7.713947e-02  4.116168e-02  2.080000e+00
      vertex   8.579109e-02  4.615679e-02  2.055882e+00
    endloop
  endfacet
  facet normal -8.968072e-01 -2.402996e-01 -3.714740e-01
    outer loop
      vertex   8.874200e-02 -2.139524e-03  2.080000e+00
      vertex   8.579109e-02  4.615679e-02  2.055882e+00
      vertex   9.873209e-02 -2.139524e-03  2.055882e+00
    endloop
  endfacet
  facet normal -6.565107e-01 -6.565082e-01 -3.714710e-01
    outer loop
      vertex   7.713947e-02  4.116168e-02  2.080000e+00
      vertex   4.544077e-02  7.286050e-02  2.080000e+00
      vertex   5.043576e-02  8.151212e-02  2.055882e+00
    endloop
  endfacet
  facet normal -6.565086e-01 -6.565086e-01 -3.714740e-01
    outer loop
      vertex   7.713947e-02  4.116168e-02  2.080000e+00
      vertex   5.043576e-02  8.151212e-02  2.055882e+00
      vertex   8.579109e-02  4.615679e-02  2.055882e+00
    endloop
  endfacet
  facet normal -2.402991e-01 -8.968089e-01 -3.714703e-01
    outer loop
      vertex   4.544077e-02  7.286050e-02  2.080000e+00
      vertex   2.139546e-03  8.446302e-02  2.080000e+00
      vertex   2.139546e-03  9.445300e-02  2.055882e+00
    endloop
  endfacet
  facet normal -2.402983e-01 -8.968086e-01 -3.714715e-01
    outer loop
      vertex   4.544077e-02  7.286050e-02  2.080000e+00
      vertex   2.139546e-03  9.445300e-02  2.055882e+00
      vertex   5.043576e-02  8.151212e-02  2.055882e+00
    endloop
  endfacet
  facet normal  2.402983e-01 -8.968085e-01 -3.714715e-01
    outer loop
      vertex   2.139546e-03  8.446302e-02  2.080000e+00
      vertex  -4.116180e-02  7.286050e-02  2.080000e+00
      vertex  -4.615679e-02  8.151212e-02  2.055882e+00
    endloop
  endfacet
  facet normal  2.402978e-01 -8.968092e-01 -3.714704e-01
    outer loop
      vertex   2.139546e-03  8.446302e-02  2.080000e+00
      vertex  -4.615679e-02  8.151212e-02  2.055882e+00
      vertex   2.139546e-03  9.445300e-02  2.055882e+00
    endloop
  endfacet
  facet normal  6.565105e-01 -6.565081e-01 -3.714713e-01
    outer loop
      vertex  -4.116180e-02  7.286050e-02  2.080000e+00
      vertex  -7.286050e-02  4.116168e-02  2.080000e+00
      vertex  -8.151212e-02  4.615667e-02  2.055882e+00
    endloop
  endfacet
  facet normal  6.565105e-01 -6.565084e-01 -3.714711e-01
    outer loop
      vertex  -4.116180e-02  7.286050e-02  2.080000e+00
      vertex  -8.151212e-02  4.615667e-02  2.055882e+00
      vertex  -4.615679e-02  8.151212e-02  2.055882e+00
    endloop
  endfacet
  facet normal  8.968074e-01 -2.402985e-01 -3.714741e-01
    outer loop
      vertex  -7.286050e-02  4.116168e-02  2.080000e+00
      vertex  -8.446302e-02 -2.139583e-03  2.080000e+00
      vertex  -9.445312e-02 -2.139583e-03  2.055882e+00
    endloop
  endfacet
  facet normal  8.968080e-01 -2.403001e-01 -3.714716e-01
    outer loop
      vertex  -7.286050e-02  4.116168e-02  2.080000e+00
      vertex  -9.445312e-02 -2.139583e-03  2.055882e+00
      vertex  -8.151212e-02  4.615667e-02  2.055882e+00
    endloop
  endfacet
  facet normal  8.968085e-01  2.402986e-01 -3.714715e-01
    outer loop
      vertex  -8.446302e-02 -2.139583e-03  2.080000e+00
      vertex  -7.286050e-02 -4.544087e-02  2.080000e+00
      vertex  -8.151212e-02 -5.043586e-02  2.055882e+00
    endloop
  endfacet
  facet normal  8.968072e-01  2.402998e-01 -3.714740e-01
    outer loop
      vertex  -8.446302e-02 -2.139583e-03  2.080000e+00
      vertex  -8.151212e-02 -5.043586e-02  2.055882e+00
      vertex  -9.445312e-02 -2.139583e-03  2.055882e+00
    endloop
  endfacet
  facet normal  6.565074e-01  6.565097e-01 -3.714741e-01
    outer loop
      vertex  -7.286050e-02 -4.544087e-02  2.080000e+00
      vertex  -4.116168e-02 -7.713958e-02  2.080000e+00
      vertex  -4.615679e-02 -8.579119e-02  2.055882e+00
    endloop
  endfacet
  facet normal  6.565095e-01  6.565093e-01 -3.714712e-01
    outer loop
      vertex  -7.286050e-02 -4.544087e-02  2.080000e+00
      vertex  -4.615679e-02 -8.579119e-02  2.055882e+00
      vertex  -8.151212e-02 -5.043586e-02  2.055882e+00
    endloop
  endfacet
  facet normal  2.402991e-01  8.968089e-01 -3.714703e-01
    outer loop
      vertex  -4.116168e-02 -7.713958e-02  2.080000e+00
      vertex   2.139546e-03 -8.874210e-02  2.080000e+00
      vertex   2.139546e-03 -9.873208e-02  2.055882e+00
    endloop
  endfacet
  facet normal  2.402976e-01  8.968083e-01 -3.714724e-01
    outer loop
      vertex  -4.116168e-02 -7.713958e-02  2.080000e+00
      vertex   2.139546e-03 -9.873208e-02  2.055882e+00
      vertex  -4.615679e-02 -8.579119e-02  2.055882e+00
    endloop
  endfacet
  facet normal -2.567505e-01  9.582093e-01 -1.261503e-01
    outer loop
      vertex   2.139546e-03 -9.873208e-02  2.055882e+00
      vertex   5.043576e-02 -8.579119e-02  2.055882e+00
      vertex   5.213950e-02 -8.874210e-02  2.030000e+00
    endloop
  endfacet
  facet normal -2.567505e-01  9.582095e-01 -1.261502e-01
    outer loop
      vertex   2.139546e-03 -9.873208e-02  2.055882e+00
      vertex   5.213950e-02 -8.874210e-02  2.030000e+00
      vertex   2.139546e-03 -1.021395e-01  2.030000e+00
    endloop
  endfacet
  facet normal -7.014590e-01  7.014565e-01 -1.261509e-01
    outer loop
      vertex   5.043576e-02 -8.579119e-02  2.055882e+00
      vertex   8.579109e-02 -5.043574e-02  2.055882e+00
      vertex   8.874200e-02 -5.213948e-02  2.030000e+00
    endloop
  endfacet
  facet normal -7.014590e-01  7.014565e-01 -1.261508e-01
    outer loop
      vertex   5.043576e-02 -8.579119e-02  2.055882e+00
      vertex   8.874200e-02 -5.213948e-02  2.030000e+00
      vertex   5.213950e-02 -8.874210e-02  2.030000e+00
    endloop
  endfacet
  facet normal -9.582083e-01  2.567526e-01 -1.261545e-01
    outer loop
      vertex   8.579109e-02 -5.043574e-02  2.055882e+00
      vertex   9.873209e-02 -2.139524e-03  2.055882e+00
      vertex   1.021396e-01 -2.139524e-03  2.030000e+00
    endloop
  endfacet
  facet normal -9.582083e-01  2.567547e-01 -1.261504e-01
    outer loop
      vertex   8.579109e-02 -5.043574e-02  2.055882e+00
      vertex   1.021396e-01 -2.139524e-03  2.030000e+00
      vertex   8.874200e-02 -5.213948e-02  2.030000e+00
    endloop
  endfacet
  facet normal -9.582089e-01 -2.567522e-01 -1.261504e-01
    outer loop
      vertex   9.873209e-02 -2.139524e-03  2.055882e+00
      vertex   8.579109e-02  4.615679e-02  2.055882e+00
      vertex   8.874200e-02  4.786053e-02  2.030000e+00
    endloop
  endfacet
  facet normal -9.582080e-01 -2.567541e-01 -1.261544e-01
    outer loop
      vertex   9.873209e-02 -2.139524e-03  2.055882e+00
      vertex   8.874200e-02  4.786053e-02  2.030000e+00
      vertex   1.021396e-01 -2.139524e-03  2.030000e+00
    endloop
  endfacet
  facet normal -7.014577e-01 -7.014577e-01 -1.261509e-01
    outer loop
      vertex   8.579109e-02  4.615679e-02  2.055882e+00
      vertex   5.043576e-02  8.151212e-02  2.055882e+00
      vertex   5.213950e-02  8.446302e-02  2.030000e+00
    endloop
  endfacet
  facet normal -7.014577e-01 -7.014577e-01 -1.261509e-01
    outer loop
      vertex   8.579109e-02  4.615679e-02  2.055882e+00
      vertex   5.213950e-02  8.446302e-02  2.030000e+00
      vertex   8.874200e-02  4.786053e-02  2.030000e+00
    endloop
  endfacet
  facet normal -2.567505e-01 -9.582096e-01 -1.261480e-01
    outer loop
      vertex   5.043576e-02  8.151212e-02  2.055882e+00
      vertex   2.139546e-03  9.445300e-02  2.055882e+00
      vertex   2.139546e-03  9.786036e-02  2.030000e+00
    endloop
  endfacet
  facet normal -2.567494e-01 -9.582097e-01 -1.261502e-01
    outer loop
      vertex   5.043576e-02  8.151212e-02  2.055882e+00
      vertex   2.139546e-03  9.786036e-02  2.030000e+00
      vertex   5.213950e-02  8.446302e-02  2.030000e+00
    endloop
  endfacet
  facet normal  2.567499e-01 -9.582095e-01 -1.261503e-01
    outer loop
      vertex   2.139546e-03  9.445300e-02  2.055882e+00
      vertex  -4.615679e-02  8.151212e-02  2.055882e+00
      vertex  -4.786053e-02  8.446302e-02  2.030000e+00
    endloop
  endfacet
  facet normal  2.567489e-01 -9.582101e-01 -1.261481e-01
    outer loop
      vertex   2.139546e-03  9.445300e-02  2.055882e+00
      vertex  -4.786053e-02  8.446302e-02  2.030000e+00
      vertex   2.139546e-03  9.786036e-02  2.030000e+00
    endloop
  endfacet
  facet normal  7.014589e-01 -7.014565e-01 -1.261509e-01
    outer loop
      vertex  -4.615679e-02  8.151212e-02  2.055882e+00
      vertex  -8.151212e-02  4.615667e-02  2.055882e+00
      vertex  -8.446302e-02  4.786041e-02  2.030000e+00
    endloop
  endfacet
  facet normal  7.014589e-01 -7.014566e-01 -1.261508e-01
    outer loop
      vertex  -4.615679e-02  8.151212e-02  2.055882e+00
      vertex  -8.446302e-02  4.786041e-02  2.030000e+00
      vertex  -4.786053e-02  8.446302e-02  2.030000e+00
    endloop
  endfacet
  facet normal  9.582092e-01 -2.567526e-01 -1.261480e-01
    outer loop
      vertex  -8.151212e-02  4.615667e-02  2.055882e+00
      vertex  -9.445312e-02 -2.139583e-03  2.055882e+00
      vertex  -9.786048e-02 -2.139583e-03  2.030000e+00
    endloop
  endfacet
  facet normal  9.582092e-01 -2.567514e-01 -1.261503e-01
    outer loop
      vertex  -8.151212e-02  4.615667e-02  2.055882e+00
      vertex  -9.786048e-02 -2.139583e-03  2.030000e+00
      vertex  -8.446302e-02  4.786041e-02  2.030000e+00
    endloop
  endfacet
  facet normal  9.582089e-01  2.567524e-01 -1.261503e-01
    outer loop
      vertex  -9.445312e-02 -2.139583e-03  2.055882e+00
      vertex  -8.151212e-02 -5.043586e-02  2.055882e+00
      vertex  -8.446302e-02 -5.213960e-02  2.030000e+00
    endloop
  endfacet
  facet normal  9.582095e-01  2.567513e-01 -1.261480e-01
    outer loop
      vertex  -9.445312e-02 -2.139583e-03  2.055882e+00
      vertex  -8.446302e-02 -5.213960e-02  2.030000e+00
      vertex  -9.786048e-02 -2.139583e-03  2.030000e+00
    endloop
  endfacet
  facet normal  7.014579e-01  7.014577e-01 -1.261509e-01
    outer loop
      vertex  -8.151212e-02 -5.043586e-02  2.055882e+00
      vertex  -4.615679e-02 -8.579119e-02  2.055882e+00
      vertex  -4.786053e-02 -8.874210e-02  2.030000e+00
    endloop
  endfacet
  facet normal  7.014579e-01  7.014577e-01 -1.261509e-01
    outer loop
      vertex  -8.151212e-02 -5.043586e-02  2.055882e+00
      vertex  -4.786053e-02 -8.874210e-02  2.030000e+00
      vertex  -8.446302e-02 -5.213960e-02  2.030000e+00
    endloop
  endfacet
  facet normal  2.567499e-01  9.582095e-01 -1.261503e-01
    outer loop
      vertex  -4.615679e-02 -8.579119e-02  2.055882e+00
      vertex   2.139546e-03 -9.873208e-02  2.055882e+00
      vertex   2.139546e-03 -1.021395e-01  2.030000e+00
    endloop
  endfacet
  facet normal  2.567499e-01  9.582096e-01 -1.261503e-01
    outer loop
      vertex  -4.615679e-02 -8.579119e-02  2.055882e+00
      vertex   2.139546e-03 -1.021395e-01  2.030000e+00
      vertex  -4.786053e-02 -8.874210e-02  2.030000e+00
    endloop
  endfacet
  facet normal -2.567505e-01  9.582095e-01  1.261503e-01
    outer loop
      vertex   2.139546e-03 -1.021395e-01  2.030000e+00
      vertex   5.213950e-02 -8.874210e-02  2.030000e+00
      vertex   5.043576e-02 -8.579119e-02  2.004118e+00
    endloop
  endfacet
  facet normal -2.567505e-01  9.582093e-01  1.261502e-01
    outer loop
      vertex   2.139546e-03 -1.021395e-01  2.030000e+00
      vertex   5.043576e-02 -8.579119e-02  2.004118e+00
      vertex   2.139546e-03 -9.873208e-02  2.004118e+00
    endloop
  endfacet
  facet normal -7.014589e-01  7.014565e-01  1.261510e-01
    outer loop
      vertex   5.213950e-02 -8.874210e-02  2.030000e+00
      vertex   8.874200e-02 -5.213948e-02  2.030000e+00
      vertex   8.579109e-02 -5.043574e-02  2.004118e+00
    endloop
  endfacet
  facet normal -7.014590e-01  7.014565e-01  1.261508e-01
    outer loop
      vertex   5.213950e-02 -8.874210e-02  2.030000e+00
      vertex   8.579109e-02 -5.043574e-02  2.004118e+00
      vertex   5.043576e-02 -8.579119e-02  2.004118e+00
    endloop
  endfacet
  facet normal -9.582078e-01  2.567546e-01  1.261544e-01
    outer loop
      vertex   8.874200e-02 -5.213948e-02  2.030000e+00
      vertex   1.021396e-01 -2.139524e-03  2.030000e+00
      vertex   9.873209e-02 -2.139524e-03  2.004118e+00
    endloop
  endfacet
  facet normal -9.582087e-01  2.567527e-01  1.261504e-01
    outer loop
      vertex   8.874200e-02 -5.213948e-02  2.030000e+00
      vertex   9.873209e-02 -2.139524e-03  2.004118e+00
      vertex   8.579109e-02 -5.043574e-02  2.004118e+00
    endloop
  endfacet
  facet normal -9.582084e-01 -2.567543e-01  1.261504e-01
    outer loop
      vertex   1.021396e-01 -2.139524e-03  2.030000e+00
      vertex   8.874200e-02  4.786053e-02  2.030000e+00
      vertex   8.579109e-02  4.615679e-02  2.004118e+00
    endloop
  endfacet
  facet normal -9.582085e-01 -2.567521e-01  1.261545e-01
    outer loop
      vertex   1.021396e-01 -2.139524e-03  2.030000e+00
      vertex   8.579109e-02  4.615679e-02  2.004118e+00
      vertex   9.873209e-02 -2.139524e-03  2.004118e+00
    endloop
  endfacet
  facet normal -7.014577e-01 -7.014577e-01  1.261509e-01
    outer loop
      vertex   8.874200e-02  4.786053e-02  2.030000e+00
      vertex   5.213950e-02  8.446302e-02  2.030000e+00
      vertex   5.043576e-02  8.151212e-02  2.004118e+00
    endloop
  endfacet
  facet normal -7.014577e-01 -7.014577e-01  1.261509e-01
    outer loop
      vertex   8.874200e-02  4.786053e-02  2.030000e+00
      vertex   5.043576e-02  8.151212e-02  2.004118e+00
      vertex   8.579109e-02  4.615679e-02  2.004118e+00
    endloop
  endfacet
  facet normal -2.567495e-01 -9.582100e-01  1.261481e-01
    outer loop
      vertex   5.213950e-02  8.446302e-02  2.030000e+00
      vertex   2.139546e-03  9.786036e-02  2.030000e+00
      vertex   2.139546e-03  9.445300e-02  2.004118e+00
    endloop
  endfacet
  facet normal -2.567505e-01 -9.582093e-01  1.261503e-01
    outer loop
      vertex   5.213950e-02  8.446302e-02  2.030000e+00
      vertex   2.139546e-03  9.445300e-02  2.004118e+00
      vertex   5.043576e-02  8.151212e-02  2.004118e+00
    endloop
  endfacet
  facet normal  2.567488e-01 -9.582099e-01  1.261503e-01
    outer loop
      vertex   2.139546e-03  9.786036e-02  2.030000e+00
      vertex  -4.786053e-02  8.446302e-02  2.030000e+00
      vertex  -4.615679e-02  8.151212e-02  2.004118e+00
    endloop
  endfacet
  facet normal  2.567500e-01 -9.582098e-01  1.261481e-01
    outer loop
      vertex   2.139546e-03  9.786036e-02  2.030000e+00
      vertex  -4.615679e-02  8.151212e-02  2.004118e+00
      vertex   2.139546e-03  9.445300e-02  2.004118e+00
    endloop
  endfacet
  facet normal  7.014589e-01 -7.014566e-01  1.261509e-01
    outer loop
      vertex  -4.786053e-02  8.446302e-02  2.030000e+00
      vertex  -8.446302e-02  4.786041e-02  2.030000e+00
      vertex  -8.151212e-02  4.615667e-02  2.004118e+00
    endloop
  endfacet
  facet normal  7.014589e-01 -7.014565e-01  1.261508e-01
    outer loop
      vertex  -4.786053e-02  8.446302e-02  2.030000e+00
      vertex  -8.151212e-02  4.615667e-02  2.004118e+00
      vertex  -4.615679e-02  8.151212e-02  2.004118e+00
    endloop
  endfacet
  facet normal  9.582095e-01 -2.567514e-01  1.261480e-01
    outer loop
      vertex  -8.446302e-02  4.786041e-02  2.030000e+00
      vertex  -9.786048e-02 -2.139583e-03  2.030000e+00
      vertex  -9.445312e-02 -2.139583e-03  2.004118e+00
    endloop
  endfacet
  facet normal  9.582089e-01 -2.567525e-01  1.261504e-01
    outer loop
      vertex  -8.446302e-02  4.786041e-02  2.030000e+00
      vertex  -9.445312e-02 -2.139583e-03  2.004118e+00
      vertex  -8.151212e-02  4.615667e-02  2.004118e+00
    endloop
  endfacet
  facet normal  9.582092e-01  2.567513e-01  1.261503e-01
    outer loop
      vertex  -9.786048e-02 -2.139583e-03  2.030000e+00
      vertex  -8.446302e-02 -5.213960e-02  2.030000e+00
      vertex  -8.151212e-02 -5.043586e-02  2.004118e+00
    endloop
  endfacet
  facet normal  9.582092e-01  2.567525e-01  1.261480e-01
    outer loop
      vertex  -9.786048e-02 -2.139583e-03  2.030000e+00
      vertex  -8.151212e-02 -5.043586e-02  2.004118e+00
      vertex  -9.445312e-02 -2.139583e-03  2.004118e+00
    endloop
  endfacet
  facet normal  7.014578e-01  7.014577e-01  1.261508e-01
    outer loop
      vertex  -8.446302e-02 -5.213960e-02  2.030000e+00
      vertex  -4.786053e-02 -8.874210e-02  2.030000e+00
      vertex  -4.615679e-02 -8.579119e-02  2.004118e+00
    endloop
  endfacet
  facet normal  7.014579e-01  7.014577e-01  1.261509e-01
    outer loop
      vertex  -8.446302e-02 -5.213960e-02  2.030000e+00
      vertex  -4.615679e-02 -8.579119e-02  2.004118e+00
      vertex  -8.151212e-02 -5.043586e-02  2.004118e+00
    endloop
  endfacet
  facet normal  2.567499e-01  9.582096e-01  1.261503e-01
    outer loop
      vertex  -4.786053e-02 -8.874210e-02  2.030000e+00
      vertex   2.139546e-03 -1.021395e-01  2.030000e+00
      vertex   2.139546e-03 -9.873208e-02  2.004118e+00
    endloop
  endfacet
  facet normal  2.567499e-01  9.582096e-01  1.261503e-01
    outer loop
      vertex  -4.786053e-02 -8.874210e-02  2.030000e+00
      vertex   2.139546e-03 -9.873208e-02  2.004118e+00
      vertex  -4.615679e-02 -8.579119e-02  2.004118e+00
    endloop
  endfacet
  facet normal -2.402982e-01  8.968086e-01  3.714715e-01
    outer loop
      vertex   2.139546e-03 -9.873208e-02  2.004118e+00
      vertex   5.043576e-02 -8.579119e-02  2.004118e+00
      vertex   4.544077e-02 -7.713958e-02  1.980000e+00
    endloop
  endfacet
  facet normal -2.402991e-01  8.968089e-01  3.714703e-01
    outer loop
      vertex   2.139546e-03 -9.873208e-02  2.004118e+00
      vertex   4.544077e-02 -7.713958e-02  1.980000e+00
      vertex   2.139546e-03 -8.874210e-02  1.980000e+00
    endloop
  endfacet
  facet normal -6.565105e-01  6.565081e-01  3.714714e-01
    outer loop
      vertex   5.043576e-02 -8.579119e-02  2.004118e+00
      vertex   8.579109e-02 -5.043574e-02  2.004118e+00
      vertex   7.713947e-02 -4.544075e-02  1.980000e+00
    endloop
  endfacet
  facet normal -6.565108e-01  6.565081e-01  3.714710e-01
    outer loop
      vertex   5.043576e-02 -8.579119e-02  2.004118e+00
      vertex   7.713947e-02 -4.544075e-02  1.980000e+00
      vertex   4.544077e-02 -7.713958e-02  1.980000e+00
    endloop
  endfacet
  facet normal -8.968071e-01  2.403001e-01  3.714740e-01
    outer loop
      vertex   8.579109e-02 -5.043574e-02  2.004118e+00
      vertex   9.873209e-02 -2.139524e-03  2.004118e+00
      vertex   8.874200e-02 -2.139524e-03  1.980000e+00
    endloop
  endfacet
  facet normal -8.968084e-01  2.402989e-01  3.714716e-01
    outer loop
      vertex   8.579109e-02 -5.043574e-02  2.004118e+00
      vertex   8.874200e-02 -2.139524e-03  1.980000e+00
      vertex   7.713947e-02 -4.544075e-02  1.980000e+00
    endloop
  endfacet
  facet normal -8.968077e-01 -2.402997e-01  3.714726e-01
    outer loop
      vertex   9.873209e-02 -2.139524e-03  2.004118e+00
      vertex   8.579109e-02  4.615679e-02  2.004118e+00
      vertex   7.713947e-02  4.116168e-02  1.980000e+00
    endloop
  endfacet
  facet normal -8.968074e-01 -2.402988e-01  3.714741e-01
    outer loop
      vertex   9.873209e-02 -2.139524e-03  2.004118e+00
      vertex   7.713947e-02  4.116168e-02  1.980000e+00
      vertex   8.874200e-02 -2.139524e-03  1.980000e+00
    endloop
  endfacet
  facet normal -6.565094e-01 -6.565094e-01  3.714712e-01
    outer loop
      vertex   8.579109e-02  4.615679e-02  2.004118e+00
      vertex   5.043576e-02  8.151212e-02  2.004118e+00
      vertex   4.544077e-02  7.286050e-02  1.980000e+00
    endloop
  endfacet
  facet normal -6.565098e-01 -6.565073e-01  3.714741e-01
    outer loop
      vertex   8.579109e-02  4.615679e-02  2.004118e+00
      vertex   4.544077e-02  7.286050e-02  1.980000e+00
      vertex   7.713947e-02  4.116168e-02  1.980000e+00
    endloop
  endfacet
  facet normal -2.402984e-01 -8.968091e-01  3.714704e-01
    outer loop
      vertex   5.043576e-02  8.151212e-02  2.004118e+00
      vertex   2.139546e-03  9.445300e-02  2.004118e+00
      vertex   2.139546e-03  8.446302e-02  1.980000e+00
    endloop
  endfacet
  facet normal -2.402989e-01 -8.968084e-01  3.714716e-01
    outer loop
      vertex   5.043576e-02  8.151212e-02  2.004118e+00
      vertex   2.139546e-03  8.446302e-02  1.980000e+00
      vertex   4.544077e-02  7.286050e-02  1.980000e+00
    endloop
  endfacet
  facet normal  2.402977e-01 -8.968089e-01  3.714714e-01
    outer loop
      vertex   2.139546e-03  9.445300e-02  2.004118e+00
      vertex  -4.615679e-02  8.151212e-02  2.004118e+00
      vertex  -4.116180e-02  7.286050e-02  1.980000e+00
    endloop
  endfacet
  facet normal  2.402984e-01 -8.968090e-01  3.714703e-01
    outer loop
      vertex   2.139546e-03  9.445300e-02  2.004118e+00
      vertex  -4.116180e-02  7.286050e-02  1.980000e+00
      vertex   2.139546e-03  8.446302e-02  1.980000e+00
    endloop
  endfacet
  facet normal  6.565105e-01 -6.565083e-01  3.714713e-01
    outer loop
      vertex  -4.615679e-02  8.151212e-02  2.004118e+00
      vertex  -8.151212e-02  4.615667e-02  2.004118e+00
      vertex  -7.286050e-02  4.116168e-02  1.980000e+00
    endloop
  endfacet
  facet normal  6.565107e-01 -6.565082e-01  3.714710e-01
    outer loop
      vertex  -4.615679e-02  8.151212e-02  2.004118e+00
      vertex  -7.286050e-02  4.116168e-02  1.980000e+00
      vertex  -4.116180e-02  7.286050e-02  1.980000e+00
    endloop
  endfacet
  facet normal  8.968071e-01 -2.402999e-01  3.714740e-01
    outer loop
      vertex  -8.151212e-02  4.615667e-02  2.004118e+00
      vertex  -9.445312e-02 -2.139583e-03  2.004118e+00
      vertex  -8.446302e-02 -2.139583e-03  1.980000e+00
    endloop
  endfacet
  facet normal  8.968085e-01 -2.402987e-01  3.714716e-01
    outer loop
      vertex  -8.151212e-02  4.615667e-02  2.004118e+00
      vertex  -8.446302e-02 -2.139583e-03  1.980000e+00
      vertex  -7.286050e-02  4.116168e-02  1.980000e+00
    endloop
  endfacet
  facet normal  8.968081e-01  2.403000e-01  3.714716e-01
    outer loop
      vertex  -9.445312e-02 -2.139583e-03  2.004118e+00
      vertex  -8.151212e-02 -5.043586e-02  2.004118e+00
      vertex  -7.286050e-02 -4.544087e-02  1.980000e+00
    endloop
  endfacet
  facet normal  8.968075e-01  2.402983e-01  3.714741e-01
    outer loop
      vertex  -9.445312e-02 -2.139583e-03  2.004118e+00
      vertex  -7.286050e-02 -4.544087e-02  1.980000e+00
      vertex  -8.446302e-02 -2.139583e-03  1.980000e+00
    endloop
  endfacet
  facet normal  6.565086e-01  6.565085e-01  3.714740e-01
    outer loop
      vertex  -8.151212e-02 -5.043586e-02  2.004118e+00
      vertex  -4.615679e-02 -8.579119e-02  2.004118e+00
      vertex  -4.116168e-02 -7.713958e-02  1.980000e+00
    endloop
  endfacet
  facet normal  6.565083e-01  6.565107e-01  3.714711e-01
    outer loop
      vertex  -8.151212e-02 -5.043586e-02  2.004118e+00
      vertex  -4.116168e-02 -7.713958e-02  1.980000e+00
      vertex  -7.286050e-02 -4.544087e-02  1.980000e+00
    endloop
  endfacet
  facet normal  2.402978e-01  8.968092e-01  3.714704e-01
    outer loop
      vertex  -4.615679e-02 -8.579119e-02  2.004118e+00
      vertex   2.139546e-03 -9.873208e-02  2.004118e+00
      vertex   2.139546e-03 -8.874210e-02  1.980000e+00
    endloop
  endfacet
  facet normal  2.402988e-01  8.968081e-01  3.714726e-01
    outer loop
      vertex  -4.615679e-02 -8.579119e-02  2.004118e+00
      vertex   2.139546e-03 -8.874210e-02  1.980000e+00
      vertex  -4.116168e-02 -7.713958e-02  1.980000e+00
    endloop
  endfacet
  facet normal -2.079291e-01  7.760026e-01  5.954708e-01
    outer loop
      vertex   2.139546e-03 -8.874210e-02  1.980000e+00
      vertex   4.544077e-02 -7.713958e-02  1.980000e+00
      vertex   3.749482e-02 -6.337674e-02  1.959290e+00
    endloop
  endfacet
  facet normal -2.079300e-01  7.760031e-01  5.954699e-01
    outer loop
      vertex   2.139546e-03 -8.874210e-02  1.980000e+00
      vertex   3.749482e-02 -6.337674e-02  1.959290e+00
      vertex   2.139546e-03 -7.285018e-02  1.959290e+00
    endloop
  endfacet
  facet normal -5.680762e-01  5.680739e-01  5.954674e-01
    outer loop
      vertex   4.544077e-02 -7.713958e-02  1.980000e+00
      vertex   7.713947e-02 -4.544075e-02  1.980000e+00
      vertex   6.337676e-02 -3.749485e-02  1.959290e+00
    endloop
  endfacet
  facet normal -5.680727e-01  5.680740e-01  5.954707e-01
    outer loop
      vertex   4.544077e-02 -7.713958e-02  1.980000e+00
      vertex   6.337676e-02 -3.749485e-02  1.959290e+00
      vertex   3.749482e-02 -6.337674e-02  1.959290e+00
    endloop
  endfacet
  facet normal -7.760053e-01  2.079299e-01  5.954669e-01
    outer loop
      vertex   7.713947e-02 -4.544075e-02  1.980000e+00
      vertex   8.874200e-02 -2.139524e-03  1.980000e+00
      vertex   7.285021e-02 -2.139524e-03  1.959290e+00
    endloop
  endfacet
  facet normal -7.760049e-01  2.079301e-01  5.954673e-01
    outer loop
      vertex   7.713947e-02 -4.544075e-02  1.980000e+00
      vertex   7.285021e-02 -2.139524e-03  1.959290e+00
      vertex   6.337676e-02 -3.749485e-02  1.959290e+00
    endloop
  endfacet
  facet normal -7.760050e-01 -2.079299e-01  5.954674e-01
    outer loop
      vertex   8.874200e-02 -2.139524e-03  1.980000e+00
      vertex   7.713947e-02  4.116168e-02  1.980000e+00
      vertex   6.337676e-02  3.321578e-02  1.959290e+00
    endloop
  endfacet
  facet normal -7.760053e-01 -2.079304e-01  5.954668e-01
    outer loop
      vertex   8.874200e-02 -2.139524e-03  1.980000e+00
      vertex   6.337676e-02  3.321578e-02  1.959290e+00
      vertex   7.285021e-02 -2.139524e-03  1.959290e+00
    endloop
  endfacet
  facet normal -5.680747e-01 -5.680726e-01  5.954701e-01
    outer loop
      vertex   7.713947e-02  4.116168e-02  1.980000e+00
      vertex   4.544077e-02  7.286050e-02  1.980000e+00
      vertex   3.749482e-02  5.909767e-02  1.959290e+00
    endloop
  endfacet
  facet normal -5.680745e-01 -5.680759e-01  5.954670e-01
    outer loop
      vertex   7.713947e-02  4.116168e-02  1.980000e+00
      vertex   3.749482e-02  5.909767e-02  1.959290e+00
      vertex   6.337676e-02  3.321578e-02  1.959290e+00
    endloop
  endfacet
  facet normal -2.079293e-01 -7.760033e-01  5.954698e-01
    outer loop
      vertex   4.544077e-02  7.286050e-02  1.980000e+00
      vertex   2.139546e-03  8.446302e-02  1.980000e+00
      vertex   2.139546e-03  6.857111e-02  1.959290e+00
    endloop
  endfacet
  facet normal -2.079298e-01 -7.760025e-01  5.954707e-01
    outer loop
      vertex   4.544077e-02  7.286050e-02  1.980000e+00
      vertex   2.139546e-03  6.857111e-02  1.959290e+00
      vertex   3.749482e-02  5.909767e-02  1.959290e+00
    endloop
  endfacet
  facet normal  2.079286e-01 -7.760026e-01  5.954709e-01
    outer loop
      vertex   2.139546e-03  8.446302e-02  1.980000e+00
      vertex  -4.116180e-02  7.286050e-02  1.980000e+00
      vertex  -3.321578e-02  5.909767e-02  1.959290e+00
    endloop
  endfacet
  facet normal  2.079297e-01 -7.760032e-01  5.954698e-01
    outer loop
      vertex   2.139546e-03  8.446302e-02  1.980000e+00
      vertex  -3.321578e-02  5.909767e-02  1.959290e+00
      vertex   2.139546e-03  6.857111e-02  1.959290e+00
    endloop
  endfacet
  facet normal  5.680761e-01 -5.680740e-01  5.954674e-01
    outer loop
      vertex  -4.116180e-02  7.286050e-02  1.980000e+00
      vertex  -7.286050e-02  4.116168e-02  1.980000e+00
      vertex  -5.909779e-02  3.321578e-02  1.959290e+00
    endloop
  endfacet
  facet normal  5.680715e-01 -5.680742e-01  5.954717e-01
    outer loop
      vertex  -4.116180e-02  7.286050e-02  1.980000e+00
      vertex  -5.909779e-02  3.321578e-02  1.959290e+00
      vertex  -3.321578e-02  5.909767e-02  1.959290e+00
    endloop
  endfacet
  facet normal  7.760054e-01 -2.079297e-01  5.954669e-01
    outer loop
      vertex  -7.286050e-02  4.116168e-02  1.980000e+00
      vertex  -8.446302e-02 -2.139583e-03  1.980000e+00
      vertex  -6.857123e-02 -2.139583e-03  1.959290e+00
    endloop
  endfacet
  facet normal  7.760050e-01 -2.079299e-01  5.954673e-01
    outer loop
      vertex  -7.286050e-02  4.116168e-02  1.980000e+00
      vertex  -6.857123e-02 -2.139583e-03  1.959290e+00
      vertex  -5.909779e-02  3.321578e-02  1.959290e+00
    endloop
  endfacet
  facet normal  7.760046e-01  2.079294e-01  5.954680e-01
    outer loop
      vertex  -8.446302e-02 -2.139583e-03  1.980000e+00
      vertex  -7.286050e-02 -4.544087e-02  1.980000e+00
      vertex  -5.909779e-02 -3.749485e-02  1.959290e+00
    endloop
  endfacet
  facet normal  7.760053e-01  2.079306e-01  5.954669e-01
    outer loop
      vertex  -8.446302e-02 -2.139583e-03  1.980000e+00
      vertex  -5.909779e-02 -3.749485e-02  1.959290e+00
      vertex  -6.857123e-02 -2.139583e-03  1.959290e+00
    endloop
  endfacet
  facet normal  5.680729e-01  5.680749e-01  5.954697e-01
    outer loop
      vertex  -7.286050e-02 -4.544087e-02  1.980000e+00
      vertex  -4.116168e-02 -7.713958e-02  1.980000e+00
      vertex  -3.321578e-02 -6.337674e-02  1.959290e+00
    endloop
  endfacet
  facet normal  5.680729e-01  5.680755e-01  5.954691e-01
    outer loop
      vertex  -7.286050e-02 -4.544087e-02  1.980000e+00
      vertex  -3.321578e-02 -6.337674e-02  1.959290e+00
      vertex  -5.909779e-02 -3.749485e-02  1.959290e+00
    endloop
  endfacet
  facet normal  2.079293e-01  7.760032e-01  5.954700e-01
    outer loop
      vertex  -4.116168e-02 -7.713958e-02  1.980000e+00
      vertex   2.139546e-03 -8.874210e-02  1.980000e+00
      vertex   2.139546e-03 -7.285018e-02  1.959290e+00
    endloop
  endfacet
  facet normal  2.079296e-01  7.760028e-01  5.954704e-01
    outer loop
      vertex  -4.116168e-02 -7.713958e-02  1.980000e+00
      vertex   2.139546e-03 -7.285018e-02  1.959290e+00
      vertex  -3.321578e-02 -6.337674e-02  1.959290e+00
    endloop
  endfacet
  facet normal -1.609908e-01  6.008244e-01  7.830019e-01
    outer loop
      vertex   2.139546e-03 -7.285018e-02  1.959290e+00
      vertex   3.749482e-02 -6.337674e-02  1.959290e+00
      vertex   2.713952e-02 -4.544075e-02  1.943398e+00
    endloop
  endfacet
  facet normal -1.609938e-01  6.008260e-01  7.830001e-01
    outer loop
      vertex   2.139546e-03 -7.285018e-02  1.959290e+00
      vertex   2.713952e-02 -4.544075e-02  1.943398e+00
      vertex   2.139546e-03 -5.213960e-02  1.943398e+00
    endloop
  endfacet
  facet normal -4.398346e-01  4.398356e-01  7.830007e-01
    outer loop
      vertex   3.749482e-02 -6.337674e-02  1.959290e+00
      vertex   6.337676e-02 -3.749485e-02  1.959290e+00
      vertex   4.544077e-02 -2.713962e-02  1.943398e+00
    endloop
  endfacet
  facet normal -4.398328e-01  4.398356e-01  7.830017e-01
    outer loop
      vertex   3.749482e-02 -6.337674e-02  1.959290e+00
      vertex   4.544077e-02 -2.713962e-02  1.943398e+00
      vertex   2.713952e-02 -4.544075e-02  1.943398e+00
    endloop
  endfacet
  facet normal -6.008242e-01  1.609905e-01  7.830022e-01
    outer loop
      vertex   6.337676e-02 -3.749485e-02  1.959290e+00
      vertex   7.285021e-02 -2.139524e-03  1.959290e+00
      vertex   5.213950e-02 -2.139524e-03  1.943398e+00
    endloop
  endfacet
  facet normal -6.008251e-01  1.609899e-01  7.830015e-01
    outer loop
      vertex   6.337676e-02 -3.749485e-02  1.959290e+00
      vertex   5.213950e-02 -2.139524e-03  1.943398e+00
      vertex   4.544077e-02 -2.713962e-02  1.943398e+00
    endloop
  endfacet
  facet normal -6.008244e-01 -1.609907e-01  7.830019e-01
    outer loop
      vertex   7.285021e-02 -2.139524e-03  1.959290e+00
      vertex   6.337676e-02  3.321578e-02  1.959290e+00
      vertex   4.544077e-02  2.286048e-02  1.943398e+00
    endloop
  endfacet
  facet normal -6.008242e-01 -1.609903e-01  7.830022e-01
    outer loop
      vertex   7.285021e-02 -2.139524e-03  1.959290e+00
      vertex   4.544077e-02  2.286048e-02  1.943398e+00
      vertex   5.213950e-02 -2.139524e-03  1.943398e+00
    endloop
  endfacet
  facet normal -4.398339e-01 -4.398349e-01  7.830016e-01
    outer loop
      vertex   6.337676e-02  3.321578e-02  1.959290e+00
      vertex   3.749482e-02  5.909767e-02  1.959290e+00
      vertex   2.713952e-02  4.116168e-02  1.943398e+00
    endloop
  endfacet
  facet normal -4.398338e-01 -4.398351e-01  7.830014e-01
    outer loop
      vertex   6.337676e-02  3.321578e-02  1.959290e+00
      vertex   2.713952e-02  4.116168e-02  1.943398e+00
      vertex   4.544077e-02  2.286048e-02  1.943398e+00
    endloop
  endfacet
  facet normal -1.609914e-01 -6.008263e-01  7.830004e-01
    outer loop
      vertex   3.749482e-02  5.909767e-02  1.959290e+00
      vertex   2.139546e-03  6.857111e-02  1.959290e+00
      vertex   2.139546e-03  4.786053e-02  1.943398e+00
    endloop
  endfacet
  facet normal -1.609931e-01 -6.008233e-01  7.830023e-01
    outer loop
      vertex   3.749482e-02  5.909767e-02  1.959290e+00
      vertex   2.139546e-03  4.786053e-02  1.943398e+00
      vertex   2.713952e-02  4.116168e-02  1.943398e+00
    endloop
  endfacet
  facet normal  1.609908e-01 -6.008251e-01  7.830014e-01
    outer loop
      vertex   2.139546e-03  6.857111e-02  1.959290e+00
      vertex  -3.321578e-02  5.909767e-02  1.959290e+00
      vertex  -2.286061e-02  4.116168e-02  1.943398e+00
    endloop
  endfacet
  facet normal  1.609927e-01 -6.008260e-01  7.830002e-01
    outer loop
      vertex   2.139546e-03  6.857111e-02  1.959290e+00
      vertex  -2.286061e-02  4.116168e-02  1.943398e+00
      vertex   2.139546e-03  4.786053e-02  1.943398e+00
    endloop
  endfacet
  facet normal  4.398336e-01 -4.398356e-01  7.830014e-01
    outer loop
      vertex  -3.321578e-02  5.909767e-02  1.959290e+00
      vertex  -5.909779e-02  3.321578e-02  1.959290e+00
      vertex  -4.116180e-02  2.286048e-02  1.943398e+00
    endloop
  endfacet
  facet normal  4.398357e-01 -4.398355e-01  7.830002e-01
    outer loop
      vertex  -3.321578e-02  5.909767e-02  1.959290e+00
      vertex  -4.116180e-02  2.286048e-02  1.943398e+00
      vertex  -2.286061e-02  4.116168e-02  1.943398e+00
    endloop
  endfacet
  facet normal  6.008244e-01 -1.609904e-01  7.830020e-01
    outer loop
      vertex  -5.909779e-02  3.321578e-02  1.959290e+00
      vertex  -6.857123e-02 -2.139583e-03  1.959290e+00
      vertex  -4.786053e-02 -2.139524e-03  1.943398e+00
    endloop
  endfacet
  facet normal  6.008246e-01 -1.609904e-01  7.830019e-01
    outer loop
      vertex  -5.909779e-02  3.321578e-02  1.959290e+00
      vertex  -4.786053e-02 -2.139524e-03  1.943398e+00
      vertex  -4.116180e-02  2.286048e-02  1.943398e+00
    endloop
  endfacet
  facet normal  6.008247e-01  1.609909e-01  7.830017e-01
    outer loop
      vertex  -6.857123e-02 -2.139583e-03  1.959290e+00
      vertex  -5.909779e-02 -3.749485e-02  1.959290e+00
      vertex  -4.116180e-02 -2.713962e-02  1.943398e+00
    endloop
  endfacet
  facet normal  6.008239e-01  1.609896e-01  7.830025e-01
    outer loop
      vertex  -6.857123e-02 -2.139583e-03  1.959290e+00
      vertex  -4.116180e-02 -2.713962e-02  1.943398e+00
      vertex  -4.786053e-02 -2.139524e-03  1.943398e+00
    endloop
  endfacet
  facet normal  4.398344e-01  4.398364e-01  7.830004e-01
    outer loop
      vertex  -5.909779e-02 -3.749485e-02  1.959290e+00
      vertex  -3.321578e-02 -6.337674e-02  1.959290e+00
      vertex  -2.286061e-02 -4.544075e-02  1.943398e+00
    endloop
  endfacet
  facet normal  4.398344e-01  4.398359e-01  7.830006e-01
    outer loop
      vertex  -5.909779e-02 -3.749485e-02  1.959290e+00
      vertex  -2.286061e-02 -4.544075e-02  1.943398e+00
      vertex  -4.116180e-02 -2.713962e-02  1.943398e+00
    endloop
  endfacet
  facet normal  1.609911e-01  6.008263e-01  7.830005e-01
    outer loop
      vertex  -3.321578e-02 -6.337674e-02  1.959290e+00
      vertex   2.139546e-03 -7.285018e-02  1.959290e+00
      vertex   2.139546e-03 -5.213960e-02  1.943398e+00
    endloop
  endfacet
  facet normal  1.609922e-01  6.008244e-01  7.830017e-01
    outer loop
      vertex  -3.321578e-02 -6.337674e-02  1.959290e+00
      vertex   2.139546e-03 -5.213960e-02  1.943398e+00
      vertex  -2.286061e-02 -4.544075e-02  1.943398e+00
    endloop
  endfacet
  facet normal -1.020151e-01  3.807185e-01  9.190465e-01
    outer loop
      vertex   2.139546e-03 -5.213960e-02  1.943398e+00
      vertex   2.713952e-02 -4.544075e-02  1.943398e+00
      vertex   1.508043e-02 -2.455385e-02  1.933407e+00
    endloop
  endfacet
  facet normal -1.020149e-01  3.807185e-01  9.190464e-01
    outer loop
      vertex   2.139546e-03 -5.213960e-02  1.943398e+00
      vertex   1.508043e-02 -2.455385e-02  1.933407e+00
      vertex   2.139546e-03 -2.802141e-02  1.933407e+00
    endloop
  endfacet
  facet normal -2.787046e-01  2.787064e-01  9.190465e-01
    outer loop
      vertex   2.713952e-02 -4.544075e-02  1.943398e+00
      vertex   4.544077e-02 -2.713962e-02  1.943398e+00
      vertex   2.455387e-02 -1.508047e-02  1.933407e+00
    endloop
  endfacet
  facet normal -2.787047e-01  2.787065e-01  9.190465e-01
    outer loop
      vertex   2.713952e-02 -4.544075e-02  1.943398e+00
      vertex   2.455387e-02 -1.508047e-02  1.933407e+00
      vertex   1.508043e-02 -2.455385e-02  1.933407e+00
    endloop
  endfacet
  facet normal -3.807202e-01  1.020132e-01  9.190460e-01
    outer loop
      vertex   4.544077e-02 -2.713962e-02  1.943398e+00
      vertex   5.213950e-02 -2.139524e-03  1.943398e+00
      vertex   2.802143e-02 -2.139524e-03  1.933407e+00
    endloop
  endfacet
  facet normal -3.807186e-01  1.020145e-01  9.190465e-01
    outer loop
      vertex   4.544077e-02 -2.713962e-02  1.943398e+00
      vertex   2.802143e-02 -2.139524e-03  1.933407e+00
      vertex   2.455387e-02 -1.508047e-02  1.933407e+00
    endloop
  endfacet
  facet normal -3.807194e-01 -1.020134e-01  9.190462e-01
    outer loop
      vertex   5.213950e-02 -2.139524e-03  1.943398e+00
      vertex   4.544077e-02  2.286048e-02  1.943398e+00
      vertex   2.455387e-02  1.080139e-02  1.933407e+00
    endloop
  endfacet
  facet normal -3.807201e-01 -1.020151e-01  9.190458e-01
    outer loop
      vertex   5.213950e-02 -2.139524e-03  1.943398e+00
      vertex   2.455387e-02  1.080139e-02  1.933407e+00
      vertex   2.802143e-02 -2.139524e-03  1.933407e+00
    endloop
  endfacet
  facet normal -2.787052e-01 -2.787060e-01  9.190464e-01
    outer loop
      vertex   4.544077e-02  2.286048e-02  1.943398e+00
      vertex   2.713952e-02  4.116168e-02  1.943398e+00
      vertex   1.508043e-02  2.027477e-02  1.933407e+00
    endloop
  endfacet
  facet normal -2.787051e-01 -2.787068e-01  9.190462e-01
    outer loop
      vertex   4.544077e-02  2.286048e-02  1.943398e+00
      vertex   1.508043e-02  2.027477e-02  1.933407e+00
      vertex   2.455387e-02  1.080139e-02  1.933407e+00
    endloop
  endfacet
  facet normal -1.020151e-01 -3.807184e-01  9.190465e-01
    outer loop
      vertex   2.713952e-02  4.116168e-02  1.943398e+00
      vertex   2.139546e-03  4.786053e-02  1.943398e+00
      vertex   2.139546e-03  2.374233e-02  1.933407e+00
    endloop
  endfacet
  facet normal -1.020150e-01 -3.807185e-01  9.190465e-01
    outer loop
      vertex   2.713952e-02  4.116168e-02  1.943398e+00
      vertex   2.139546e-03  2.374233e-02  1.933407e+00
      vertex   1.508043e-02  2.027477e-02  1.933407e+00
    endloop
  endfacet
  facet normal  1.020144e-01 -3.807186e-01  9.190465e-01
    outer loop
      vertex   2.139546e-03  4.786053e-02  1.943398e+00
      vertex  -2.286061e-02  4.116168e-02  1.943398e+00
      vertex  -1.080146e-02  2.027477e-02  1.933407e+00
    endloop
  endfacet
  facet normal  1.020140e-01 -3.807184e-01  9.190466e-01
    outer loop
      vertex   2.139546e-03  4.786053e-02  1.943398e+00
      vertex  -1.080146e-02  2.027477e-02  1.933407e+00
      vertex   2.139546e-03  2.374233e-02  1.933407e+00
    endloop
  endfacet
  facet normal  2.787058e-01 -2.787057e-01  9.190463e-01
    outer loop
      vertex  -2.286061e-02  4.116168e-02  1.943398e+00
      vertex  -4.116180e-02  2.286048e-02  1.943398e+00
      vertex  -2.027490e-02  1.080139e-02  1.933407e+00
    endloop
  endfacet
  facet normal  2.787042e-01 -2.787060e-01  9.190468e-01
    outer loop
      vertex  -2.286061e-02  4.116168e-02  1.943398e+00
      vertex  -2.027490e-02  1.080139e-02  1.933407e+00
      vertex  -1.080146e-02  2.027477e-02  1.933407e+00
    endloop
  endfacet
  facet normal  3.807194e-01 -1.020134e-01  9.190463e-01
    outer loop
      vertex  -4.116180e-02  2.286048e-02  1.943398e+00
      vertex  -4.786053e-02 -2.139524e-03  1.943398e+00
      vertex  -2.374240e-02 -2.139524e-03  1.933407e+00
    endloop
  endfacet
  facet normal  3.807195e-01 -1.020133e-01  9.190463e-01
    outer loop
      vertex  -4.116180e-02  2.286048e-02  1.943398e+00
      vertex  -2.374240e-02 -2.139524e-03  1.933407e+00
      vertex  -2.027490e-02  1.080139e-02  1.933407e+00
    endloop
  endfacet
  facet normal  3.807194e-01  1.020130e-01  9.190463e-01
    outer loop
      vertex  -4.786053e-02 -2.139524e-03  1.943398e+00
      vertex  -4.116180e-02 -2.713962e-02  1.943398e+00
      vertex  -2.027490e-02 -1.508047e-02  1.933407e+00
    endloop
  endfacet
  facet normal  3.807194e-01  1.020130e-01  9.190463e-01
    outer loop
      vertex  -4.786053e-02 -2.139524e-03  1.943398e+00
      vertex  -2.027490e-02 -1.508047e-02  1.933407e+00
      vertex  -2.374240e-02 -2.139524e-03  1.933407e+00
    endloop
  endfacet
  facet normal  2.787048e-01  2.787057e-01  9.190467e-01
    outer loop
      vertex  -4.116180e-02 -2.713962e-02  1.943398e+00
      vertex  -2.286061e-02 -4.544075e-02  1.943398e+00
      vertex  -1.080146e-02 -2.455385e-02  1.933407e+00
    endloop
  endfacet
  facet normal  2.787046e-01  2.787064e-01  9.190465e-01
    outer loop
      vertex  -4.116180e-02 -2.713962e-02  1.943398e+00
      vertex  -1.080146e-02 -2.455385e-02  1.933407e+00
      vertex  -2.027490e-02 -1.508047e-02  1.933407e+00
    endloop
  endfacet
  facet normal  1.020144e-01  3.807185e-01  9.190465e-01
    outer loop
      vertex  -2.286061e-02 -4.544075e-02  1.943398e+00
      vertex   2.139546e-03 -5.213960e-02  1.943398e+00
      vertex   2.139546e-03 -2.802141e-02  1.933407e+00
    endloop
  endfacet
  facet normal  1.020141e-01  3.807188e-01  9.190464e-01
    outer loop
      vertex  -2.286061e-02 -4.544075e-02  1.943398e+00
      vertex   2.139546e-03 -2.802141e-02  1.933407e+00
      vertex  -1.080146e-02 -2.455385e-02  1.933407e+00
    endloop
  endfacet
  facet normal -3.494946e-02  1.304309e-01  9.908412e-01
    outer loop
      vertex   2.139546e-03 -2.802141e-02  1.933407e+00
      vertex   1.508043e-02 -2.455385e-02  1.933407e+00
      vertex   2.139546e-03 -2.139524e-03  1.930000e+00
    endloop
  endfacet
  facet normal -9.548194e-02  9.548254e-02  9.908412e-01
    outer loop
      vertex   1.508043e-02 -2.455385e-02  1.933407e+00
      vertex   2.455387e-02 -1.508047e-02  1.933407e+00
      vertex   2.139546e-03 -2.139524e-03  1.930000e+00
    endloop
  endfacet
  facet normal -1.304309e-01  3.494930e-02  9.908413e-01
    outer loop
      vertex   2.455387e-02 -1.508047e-02  1.933407e+00
      vertex   2.802143e-02 -2.139524e-03  1.933407e+00
      vertex   2.139546e-03 -2.139524e-03  1.930000e+00
    endloop
  endfacet
  facet normal -1.304309e-01 -3.494938e-02  9.908412e-01
    outer loop
      vertex   2.802143e-02 -2.139524e-03  1.933407e+00
      vertex   2.455387e-02  1.080139e-02  1.933407e+00
      vertex   2.139546e-03 -2.139524e-03  1.930000e+00
    endloop
  endfacet
  facet normal -9.548201e-02 -9.548262e-02  9.908412e-01
    outer loop
      vertex   2.455387e-02  1.080139e-02  1.933407e+00
      vertex   1.508043e-02  2.027477e-02  1.933407e+00
      vertex   2.139546e-03 -2.139524e-03  1.930000e+00
    endloop
  endfacet
  facet normal -3.494950e-02 -1.304310e-01  9.908412e-01
    outer loop
      vertex   1.508043e-02  2.027477e-02  1.933407e+00
      vertex   2.139546e-03  2.374233e-02  1.933407e+00
      vertex   2.139546e-03 -2.139524e-03  1.930000e+00
    endloop
  endfacet
  facet normal  3.494918e-02 -1.304310e-01  9.908412e-01
    outer loop
      vertex   2.139546e-03  2.374233e-02  1.933407e+00
      vertex  -1.080146e-02  2.027477e-02  1.933407e+00
      vertex   2.139546e-03 -2.139524e-03  1.930000e+00
    endloop
  endfacet
  facet normal  9.548170e-02 -9.548230e-02  9.908413e-01
    outer loop
      vertex  -1.080146e-02  2.027477e-02  1.933407e+00
      vertex  -2.027490e-02  1.080139e-02  1.933407e+00
      vertex   2.139546e-03 -2.139524e-03  1.930000e+00
    endloop
  endfacet
  facet normal  1.304306e-01 -3.494870e-02  9.908413e-01
    outer loop
      vertex  -2.027490e-02  1.080139e-02  1.933407e+00
      vertex  -2.374240e-02 -2.139524e-03  1.933407e+00
      vertex   2.139546e-03 -2.139524e-03  1.930000e+00
    endloop
  endfacet
  facet normal  1.304306e-01  3.494862e-02  9.908413e-01
    outer loop
      vertex  -2.374240e-02 -2.139524e-03  1.933407e+00
      vertex  -2.027490e-02 -1.508047e-02  1.933407e+00
      vertex   2.139546e-03 -2.139524e-03  1.930000e+00
    endloop
  endfacet
  facet normal  9.548162e-02  9.548222e-02  9.908413e-01
    outer loop
      vertex  -2.027490e-02 -1.508047e-02  1.933407e+00
      vertex  -1.080146e-02 -2.455385e-02  1.933407e+00
      vertex   2.139546e-03 -2.139524e-03  1.930000e+00
    endloop
  endfacet
  facet normal  3.494914e-02  1.304309e-01  9.908413e-01
    outer loop
      vertex  -1.080146e-02 -2.455385e-02  1.933407e+00
      vertex   2.139546e-03 -2.802141e-02  1.933407e+00
      vertex   2.139546e-03 -2.139524e-03  1.930000e+00
    endloop
  endfacet
  facet normal  0.000000e+00  0.000000e+00  1.000000e+00
    outer loop
      vertex   2.139546e-03 -1.021395e-01  3.427267e-07
      vertex   5.213950e-02 -8.874210e-02  3.427267e-07
      vertex   8.874200e-02 -5.213948e-02  3.427267e-07
    endloop
  endfacet
  facet normal  0.000000e+00  0.000000e+00  1.000000e+00
    outer loop
      vertex   2.139546e-03 -1.021395e-01  3.427267e-07
      vertex   8.874200e-02 -5.213948e-02  3.427267e-07
      vertex   1.021396e-01 -2.139524e-03  3.427267e-07
    endloop
  endfacet
  facet normal  0.000000e+00  0.000000e+00  1.000000e+00
    outer loop
      vertex   2.139546e-03 -1.021395e-01  3.427267e-07
      vertex   1.021396e-01 -2.139524e-03  3.427267e-07
      vertex   8.874200e-02  4.786053e-02  3.427267e-07
    endloop
  endfacet
  facet normal  0.000000e+00  0.000000e+00  1.000000e+00
    outer loop
      vertex   2.139546e-03 -1.021395e-01  3.427267e-07
      vertex   8.874200e-02  4.786053e-02  3.427267e-07
      vertex   5.213950e-02  8.446302e-02  3.427267e-07
    endloop
  endfacet
  facet normal  0.000000e+00  0.000000e+00  1.000000e+00
    outer loop
      vertex   2.139546e-03 -1.021395e-01  3.427267e-07
      vertex   5.213950e-02  8.446302e-02  3.427267e-07
      vertex   2.139546e-03  9.786036e-02  3.427267e-07
    endloop
  endfacet
  facet normal  0.000000e+00 -0.000000e+00  1.000000e+00
    outer loop
      vertex   2.139546e-03 -1.021395e-01  3.427267e-07
      vertex   2.139546e-03  9.786036e-02  3.427267e-07
      vertex  -4.786053e-02  8.446302e-02  3.427267e-07
    endloop
  endfacet
  facet normal  0.000000e+00  0.000000e+00  1.000000e+00
    outer loop
      vertex   2.139546e-03 -1.021395e-01  3.427267e-07
      vertex  -4.786053e-02  8.446302e-02  3.427267e-07
      vertex  -8.446302e-02  4.786041e-02  3.427267e-07
    endloop
  endfacet
  facet normal  0.000000e+00  0.000000e+00  1.000000e+00
    outer loop
      vertex   2.139546e-03 -1.021395e-01  3.427267e-07
      vertex  -8.446302e-02  4.786041e-02  3.427267e-07
      vertex  -9.786048e-02 -2.139583e-03  3.427267e-07
    endloop
  endfacet
  facet normal  0.000000e+00  0.000000e+00  1.000000e+00
    outer loop
      vertex   2.139546e-03 -1.021395e-01  3.427267e-07
      vertex  -9.786048e-02 -2.139583e-03  3.427267e-07
      vertex  -8.446302e-02 -5.213960e-02  3.427267e-07
    endloop
  endfacet
  facet normal  0.000000e+00  0.000000e+00  1.000000e+00
    outer loop
      vertex   2.139546e-03 -1.021395e-01  3.427267e-07
      vertex  -8.446302e-02 -5.213960e-02  3.427267e-07
      vertex  -4.786053e-02 -8.874210e-02  3.427267e-07
    endloop
  endfacet
  facet normal  2.588181e-01 -9.659261e-01  0.000000e+00
    outer loop
      vertex   2.139546e-03 -1.021395e-01  3.427267e-07
      vertex   5.213950e-02 -8.874210e-02  3.427267e-07
      vertex   5.213950e-02 -8.874210e-02  2.033333e+00
    endloop
  endfacet
  facet normal  2.588181e-01 -9.659261e-01  0.000000e+00
    outer loop
      vertex   2.139546e-03 -1.021395e-01  3.427267e-07
      vertex   5.213950e-02 -8.874210e-02  2.033333e+00
      vertex   2.139546e-03 -1.021395e-01  2.033333e+00
    endloop
  endfacet
  facet normal  7.071080e-01 -7.071056e-01  0.000000e+00
    outer loop
      vertex   5.213950e-02 -8.874210e-02  3.427267e-07
      vertex   8.874200e-02 -5.213948e-02  3.427267e-07
      vertex   8.874200e-02 -5.213948e-02  2.033333e+00
    endloop
  endfacet
  facet normal  7.071080e-01 -7.071056e-01  0.000000e+00
    outer loop
      vertex   5.213950e-02 -8.874210e-02  3.427267e-07
      vertex   8.874200e-02 -5.213948e-02  2.033333e+00
      vertex   5.213950e-02 -8.874210e-02  2.033333e+00
    endloop
  endfacet
  facet normal  9.659249e-01 -2.588224e-01  0.000000e+00
    outer loop
      vertex   8.874200e-02 -5.213948e-02  3.427267e-07
      vertex   1.021396e-01 -2.139524e-03  3.427267e-07
      vertex   1.021396e-01 -2.139524e-03  2.033333e+00
    endloop
  endfacet
  facet normal  9.659249e-01 -2.588224e-01  0.000000e+00
    outer loop
      vertex   8.874200e-02 -5.213948e-02  3.427267e-07
      vertex   1.021396e-01 -2.139524e-03  2.033333e+00
      vertex   8.874200e-02 -5.213948e-02  2.033333e+00
    endloop
  endfacet
  facet normal  9.659251e-01  2.588220e-01  0.000000e+00
    outer loop
      vertex   1.021396e-01 -2.139524e-03  3.427267e-07
      vertex   8.874200e-02  4.786053e-02  3.427267e-07
      vertex   8.874200e-02  4.786053e-02  2.033333e+00
    endloop
  endfacet
  facet normal  9.659251e-01  2.588220e-01 -0.000000e+00
    outer loop
      vertex   1.021396e-01 -2.139524e-03  3.427267e-07
      vertex   8.874200e-02  4.786053e-02  2.033333e+00
      vertex   1.021396e-01 -2.139524e-03  2.033333e+00
    endloop
  endfacet
  facet normal  7.071068e-01  7.071068e-01  0.000000e+00
    outer loop
      vertex   8.874200e-02  4.786053e-02  3.427267e-07
      vertex   5.213950e-02  8.446302e-02  3.427267e-07
      vertex   5.213950e-02  8.446302e-02  2.033333e+00
    endloop
  endfacet
  facet normal  7.071068e-01  7.071068e-01 -0.000000e+00
    outer loop
      vertex   8.874200e-02  4.786053e-02  3.427267e-07
      vertex   5.213950e-02  8.446302e-02  2.033333e+00
      vertex   8.874200e-02  4.786053e-02  2.033333e+00
    endloop
  endfacet
  facet normal  2.588170e-01  9.659263e-01  0.000000e+00
    outer loop
      vertex   5.213950e-02  8.446302e-02  3.427267e-07
      vertex   2.139546e-03  9.786036e-02  3.427267e-07
      vertex   2.139546e-03  9.786036e-02  2.033333e+00
    endloop
  endfacet
  facet normal  2.588170e-01  9.659263e-01 -0.000000e+00
    outer loop
      vertex   5.213950e-02  8.446302e-02  3.427267e-07
      vertex   2.139546e-03  9.786036e-02  2.033333e+00
      vertex   5.213950e-02  8.446302e-02  2.033333e+00
    endloop
  endfacet
  facet normal -2.588165e-01  9.659265e-01  0.000000e+00
    outer loop
      vertex   2.139546e-03  9.786036e-02  3.427267e-07
      vertex  -4.786053e-02  8.446302e-02  3.427267e-07
      vertex  -4.786053e-02  8.446302e-02  2.033333e+00
    endloop
  endfacet
  facet normal -2.588165e-01  9.659265e-01  0.000000e+00
    outer loop
      vertex   2.139546e-03  9.786036e-02  3.427267e-07
      vertex  -4.786053e-02  8.446302e-02  2.033333e+00
      vertex   2.139546e-03  9.786036e-02  2.033333e+00
    endloop
  endfacet
  facet normal -7.071080e-01  7.071056e-01  0.000000e+00
    outer loop
      vertex  -4.786053e-02  8.446302e-02  3.427267e-07
      vertex  -8.446302e-02  4.786041e-02  3.427267e-07
      vertex  -8.446302e-02  4.786041e-02  2.033333e+00
    endloop
  endfacet
  facet normal -7.071080e-01  7.071056e-01  0.000000e+00
    outer loop
      vertex  -4.786053e-02  8.446302e-02  3.427267e-07
      vertex  -8.446302e-02  4.786041e-02  2.033333e+00
      vertex  -4.786053e-02  8.446302e-02  2.033333e+00
    endloop
  endfacet
  facet normal -9.659258e-01  2.588190e-01  0.000000e+00
    outer loop
      vertex  -8.446302e-02  4.786041e-02  3.427267e-07
      vertex  -9.786048e-02 -2.139583e-03  3.427267e-07
      vertex  -9.786048e-02 -2.139583e-03  2.033333e+00
    endloop
  endfacet
  facet normal -9.659258e-01  2.588190e-01  0.000000e+00
    outer loop
      vertex  -8.446302e-02  4.786041e-02  3.427267e-07
      vertex  -9.786048e-02 -2.139583e-03  2.033333e+00
      vertex  -8.446302e-02  4.786041e-02  2.033333e+00
    endloop
  endfacet
  facet normal -9.659259e-01 -2.588189e-01  0.000000e+00
    outer loop
      vertex  -9.786048e-02 -2.139583e-03  3.427267e-07
      vertex  -8.446302e-02 -5.213960e-02  3.427267e-07
      vertex  -8.446302e-02 -5.213960e-02  2.033333e+00
    endloop
  endfacet
  facet normal -9.659259e-01 -2.588189e-01  0.000000e+00
    outer loop
      vertex  -9.786048e-02 -2.139583e-03  3.427267e-07
      vertex  -8.446302e-02 -5.213960e-02  2.033333e+00
      vertex  -9.786048e-02 -2.139583e-03  2.033333e+00
    endloop
  endfacet
  facet normal -7.071068e-01 -7.071067e-01  0.000000e+00
    outer loop
      vertex  -8.446302e-02 -5.213960e-02  3.427267e-07
      vertex  -4.786053e-02 -8.874210e-02  3.427267e-07
      vertex  -4.786053e-02 -8.874210e-02  2.033333e+00
    endloop
  endfacet
  facet normal -7.071068e-01 -7.071067e-01  0.000000e+00
    outer loop
      vertex  -8.446302e-02 -5.213960e-02  3.427267e-07
      vertex  -4.786053e-02 -8.874210e-02  2.033333e+00
      vertex  -8.446302e-02 -5.213960e-02  2.033333e+00
    endloop
  endfacet
  facet normal -2.588176e-01 -9.659262e-01  0.000000e+00
    outer loop
      vertex  -4.786053e-02 -8.874210e-02  3.427267e-07
      vertex   2.139546e-03 -1.021395e-01  3.427267e-07
      vertex   2.139546e-03 -1.021395e-01  2.033333e+00
    endloop
  endfacet
  facet normal -2.588176e-01 -9.659262e-01  0.000000e+00
    outer loop
      vertex  -4.786053e-02 -8.874210e-02  3.427267e-07
      vertex   2.139546e-03 -1.021395e-01  2.033333e+00
      vertex  -4.786053e-02 -8.874210e-02  2.033333e+00
    endloop
  endfacet
endsolid vcg
