solid STL generated by MeshLab
  facet normal -0.000000e+00 -0.000000e+00 -1.000000e+00
    outer loop
      vertex   4.326251e-01  1.331478e+00  0.000000e+00
      vertex   5.694304e-01  1.278964e+00  0.000000e+00
      vertex   2.910767e-01  1.369407e+00  0.000000e+00
    endloop
  endfacet
  facet normal -0.000000e+00 -0.000000e+00 -1.000000e+00
    outer loop
      vertex   2.910767e-01  1.369407e+00  0.000000e+00
      vertex   5.694304e-01  1.278964e+00  0.000000e+00
      vertex   1.463396e-01  1.392331e+00  0.000000e+00
    endloop
  endfacet
  facet normal -0.000000e+00 -0.000000e+00 -1.000000e+00
    outer loop
      vertex   1.463396e-01  1.392331e+00  0.000000e+00
      vertex   5.694304e-01  1.278964e+00  0.000000e+00
      vertex  -1.180227e-07  1.400000e+00  0.000000e+00
    endloop
  endfacet
  facet normal  0.000000e+00 -0.000000e+00 -1.000000e+00
    outer loop
      vertex  -1.180227e-07  1.400000e+00  0.000000e+00
      vertex   5.694304e-01  1.278964e+00  0.000000e+00
      vertex  -1.463399e-01  1.392331e+00  0.000000e+00
    endloop
  endfacet
  facet normal  0.000000e+00 -0.000000e+00 -1.000000e+00
    outer loop
      vertex  -1.463399e-01  1.392331e+00  0.000000e+00
      vertex   5.694304e-01  1.278964e+00  0.000000e+00
      vertex  -2.910769e-01  1.369407e+00  0.000000e+00
    endloop
  endfacet
  facet normal  0.000000e+00 -0.000000e+00 -1.000000e+00
    outer loop
      vertex  -2.910769e-01  1.369407e+00  0.000000e+00
      vertex   5.694304e-01  1.278964e+00  0.000000e+00
      vertex  -4.326252e-01  1.331478e+00  0.000000e+00
    endloop
  endfacet
  facet normal  0.000000e+00 -0.000000e+00 -1.000000e+00
    outer loop
      vertex  -4.326252e-01  1.331478e+00  0.000000e+00
      vertex   5.694304e-01  1.278964e+00  0.000000e+00
      vertex  -5.694304e-01  1.278964e+00  0.000000e+00
    endloop
  endfacet
  facet normal  0.000000e+00 -0.000000e+00 -1.000000e+00
    outer loop
      vertex  -5.694304e-01  1.278964e+00  0.000000e+00
      vertex   5.694304e-01  1.278964e+00  0.000000e+00
      vertex  -7.000002e-01  1.212436e+00  0.000000e+00
    endloop
  endfacet
  facet normal  0.000000e+00 -0.000000e+00 -1.000000e+00
    outer loop
      vertex   5.694304e-01  1.278964e+00  0.000000e+00
      vertex   6.999999e-01  1.212436e+00  0.000000e+00
      vertex  -7.000002e-01  1.212436e+00  0.000000e+00
    endloop
  endfacet
  facet normal  0.000000e+00 -0.000000e+00 -1.000000e+00
    outer loop
      vertex  -7.000002e-01  1.212436e+00  0.000000e+00
      vertex   6.999999e-01  1.212436e+00  0.000000e+00
      vertex  -8.229006e-01  1.132625e+00  0.000000e+00
    endloop
  endfacet
  facet normal  0.000000e+00 -0.000000e+00 -1.000000e+00
    outer loop
      vertex  -8.229006e-01  1.132625e+00  0.000000e+00
      vertex   6.999999e-01  1.212436e+00  0.000000e+00
      vertex  -9.367822e-01  1.040401e+00  0.000000e+00
    endloop
  endfacet
  facet normal  0.000000e+00 -0.000000e+00 -1.000000e+00
    outer loop
      vertex   6.999999e-01  1.212436e+00  0.000000e+00
      vertex   8.229002e-01  1.132625e+00  0.000000e+00
      vertex  -9.367822e-01  1.040401e+00  0.000000e+00
    endloop
  endfacet
  facet normal  0.000000e+00 -0.000000e+00 -1.000000e+00
    outer loop
      vertex   8.229002e-01  1.132625e+00  0.000000e+00
      vertex   9.367819e-01  1.040401e+00  0.000000e+00
      vertex  -9.367822e-01  1.040401e+00  0.000000e+00
    endloop
  endfacet
  facet normal  0.000000e+00 -2.300903e-06 -1.000000e+00
    outer loop
      vertex  -9.367822e-01  1.040401e+00  0.000000e+00
      vertex   9.367819e-01  1.040401e+00  0.000000e+00
      vertex  -1.040402e+00  9.367818e-01  2.384186e-07
    endloop
  endfacet
  facet normal -1.259295e-07  1.019803e-07 -1.000000e+00
    outer loop
      vertex  -1.040402e+00  9.367818e-01  2.384186e-07
      vertex   9.367819e-01  1.040401e+00  0.000000e+00
      vertex  -1.132625e+00  8.229002e-01  2.384186e-07
    endloop
  endfacet
  facet normal -1.236507e-07  8.029850e-08 -1.000000e+00
    outer loop
      vertex  -1.132625e+00  8.229002e-01  2.384186e-07
      vertex   9.367819e-01  1.040401e+00  0.000000e+00
      vertex  -1.212437e+00  6.999999e-01  2.384186e-07
    endloop
  endfacet
  facet normal -1.206708e-07  6.148441e-08 -1.000000e+00
    outer loop
      vertex  -1.212437e+00  6.999999e-01  2.384186e-07
      vertex   9.367819e-01  1.040401e+00  0.000000e+00
      vertex  -1.278965e+00  5.694302e-01  2.384186e-07
    endloop
  endfacet
  facet normal -1.171613e-07  4.497348e-08 -1.000000e+00
    outer loop
      vertex  -1.278965e+00  5.694302e-01  2.384186e-07
      vertex   9.367819e-01  1.040401e+00  0.000000e+00
      vertex  -1.331479e+00  4.326251e-01  2.384186e-07
    endloop
  endfacet
  facet normal -1.132413e-07  3.034366e-08 -1.000000e+00
    outer loop
      vertex  -1.331479e+00  4.326251e-01  2.384186e-07
      vertex   9.367819e-01  1.040401e+00  0.000000e+00
      vertex  -1.369407e+00  2.910767e-01  2.384186e-07
    endloop
  endfacet
  facet normal -1.089908e-07  1.726208e-08 -1.000000e+00
    outer loop
      vertex  -1.369407e+00  2.910767e-01  2.384186e-07
      vertex   9.367819e-01  1.040401e+00  0.000000e+00
      vertex  -1.392331e+00  1.463397e-01  2.384186e-07
    endloop
  endfacet
  facet normal -1.044660e-07  5.474570e-09 -1.000000e+00
    outer loop
      vertex  -1.392331e+00  1.463397e-01  2.384186e-07
      vertex   9.367819e-01  1.040401e+00  0.000000e+00
      vertex  -1.400000e+00 -2.871455e-10  2.384186e-07
    endloop
  endfacet
  facet normal -9.970232e-08 -5.224926e-09 -1.000000e+00
    outer loop
      vertex  -1.400000e+00 -2.871455e-10  2.384186e-07
      vertex   9.367819e-01  1.040401e+00  0.000000e+00
      vertex  -1.392331e+00 -1.463397e-01  2.384186e-07
    endloop
  endfacet
  facet normal -9.472068e-08 -1.500196e-08 -1.000000e+00
    outer loop
      vertex  -1.392331e+00 -1.463397e-01  2.384186e-07
      vertex   9.367819e-01  1.040401e+00  0.000000e+00
      vertex  -1.369407e+00 -2.910767e-01  2.384186e-07
    endloop
  endfacet
  facet normal -8.953120e-08 -2.399041e-08 -1.000000e+00
    outer loop
      vertex  -1.369407e+00 -2.910767e-01  2.384186e-07
      vertex   9.367819e-01  1.040401e+00  0.000000e+00
      vertex  -1.331479e+00 -4.326251e-01  2.384186e-07
    endloop
  endfacet
  facet normal -8.413699e-08 -3.229678e-08 -1.000000e+00
    outer loop
      vertex  -1.331479e+00 -4.326251e-01  2.384186e-07
      vertex   9.367819e-01  1.040401e+00  0.000000e+00
      vertex  -1.278965e+00 -5.694302e-01  2.384186e-07
    endloop
  endfacet
  facet normal -7.853073e-08 -4.001312e-08 -1.000000e+00
    outer loop
      vertex  -1.278965e+00 -5.694302e-01  2.384186e-07
      vertex   9.367819e-01  1.040401e+00  0.000000e+00
      vertex  -1.212437e+00 -6.999999e-01  2.384186e-07
    endloop
  endfacet
  facet normal -7.270119e-08 -4.721201e-08 -1.000000e+00
    outer loop
      vertex  -1.212437e+00 -6.999999e-01  2.384186e-07
      vertex   9.367819e-01  1.040401e+00  0.000000e+00
      vertex  -1.132625e+00 -8.229002e-01  2.384186e-07
    endloop
  endfacet
  facet normal -6.662813e-08 -5.395683e-08 -1.000000e+00
    outer loop
      vertex  -1.132625e+00 -8.229002e-01  2.384186e-07
      vertex   9.367819e-01  1.040401e+00  0.000000e+00
      vertex  -1.040402e+00 -9.367818e-01  2.384186e-07
    endloop
  endfacet
  facet normal -1.210744e-06  1.090159e-06 -1.000000e+00
    outer loop
      vertex  -1.040402e+00 -9.367818e-01  2.384186e-07
      vertex   9.367819e-01  1.040401e+00  0.000000e+00
      vertex  -9.367822e-01 -1.040401e+00  0.000000e+00
    endloop
  endfacet
  facet normal  0.000000e+00  0.000000e+00 -1.000000e+00
    outer loop
      vertex  -9.367822e-01 -1.040401e+00  0.000000e+00
      vertex   9.367819e-01  1.040401e+00  0.000000e+00
      vertex  -8.229006e-01 -1.132625e+00  0.000000e+00
    endloop
  endfacet
  facet normal  0.000000e+00  0.000000e+00 -1.000000e+00
    outer loop
      vertex  -8.229006e-01 -1.132625e+00  0.000000e+00
      vertex   9.367819e-01  1.040401e+00  0.000000e+00
      vertex  -7.000002e-01 -1.212436e+00  0.000000e+00
    endloop
  endfacet
  facet normal  0.000000e+00  0.000000e+00 -1.000000e+00
    outer loop
      vertex  -7.000002e-01 -1.212436e+00  0.000000e+00
      vertex   9.367819e-01  1.040401e+00  0.000000e+00
      vertex  -5.694304e-01 -1.278964e+00  0.000000e+00
    endloop
  endfacet
  facet normal  0.000000e+00  0.000000e+00 -1.000000e+00
    outer loop
      vertex  -5.694304e-01 -1.278964e+00  0.000000e+00
      vertex   9.367819e-01  1.040401e+00  0.000000e+00
      vertex  -4.326252e-01 -1.331478e+00  0.000000e+00
    endloop
  endfacet
  facet normal  0.000000e+00  0.000000e+00 -1.000000e+00
    outer loop
      vertex  -4.326252e-01 -1.331478e+00  0.000000e+00
      vertex   9.367819e-01  1.040401e+00  0.000000e+00
      vertex  -2.910769e-01 -1.369407e+00  0.000000e+00
    endloop
  endfacet
  facet normal  0.000000e+00  0.000000e+00 -1.000000e+00
    outer loop
      vertex  -2.910769e-01 -1.369407e+00  0.000000e+00
      vertex   9.367819e-01  1.040401e+00  0.000000e+00
      vertex  -1.463399e-01 -1.392331e+00  0.000000e+00
    endloop
  endfacet
  facet normal  0.000000e+00  0.000000e+00 -1.000000e+00
    outer loop
      vertex  -1.463399e-01 -1.392331e+00  0.000000e+00
      vertex   9.367819e-01  1.040401e+00  0.000000e+00
      vertex  -1.174484e-07 -1.400000e+00  0.000000e+00
    endloop
  endfacet
  facet normal  0.000000e+00  0.000000e+00 -1.000000e+00
    outer loop
      vertex  -1.174484e-07 -1.400000e+00  0.000000e+00
      vertex   9.367819e-01  1.040401e+00  0.000000e+00
      vertex   1.463396e-01 -1.392331e+00  0.000000e+00
    endloop
  endfacet
  facet normal  0.000000e+00  0.000000e+00 -1.000000e+00
    outer loop
      vertex   1.463396e-01 -1.392331e+00  0.000000e+00
      vertex   9.367819e-01  1.040401e+00  0.000000e+00
      vertex   2.910767e-01 -1.369407e+00  0.000000e+00
    endloop
  endfacet
  facet normal  0.000000e+00  0.000000e+00 -1.000000e+00
    outer loop
      vertex   2.910767e-01 -1.369407e+00  0.000000e+00
      vertex   9.367819e-01  1.040401e+00  0.000000e+00
      vertex   4.326251e-01 -1.331478e+00  0.000000e+00
    endloop
  endfacet
  facet normal  0.000000e+00  0.000000e+00 -1.000000e+00
    outer loop
      vertex   4.326251e-01 -1.331478e+00  0.000000e+00
      vertex   9.367819e-01  1.040401e+00  0.000000e+00
      vertex   5.694304e-01 -1.278964e+00  0.000000e+00
    endloop
  endfacet
  facet normal  0.000000e+00  0.000000e+00 -1.000000e+00
    outer loop
      vertex   5.694304e-01 -1.278964e+00  0.000000e+00
      vertex   9.367819e-01  1.040401e+00  0.000000e+00
      vertex   6.999999e-01 -1.212436e+00  0.000000e+00
    endloop
  endfacet
  facet normal  0.000000e+00  0.000000e+00 -1.000000e+00
    outer loop
      vertex   6.999999e-01 -1.212436e+00  0.000000e+00
      vertex   9.367819e-01  1.040401e+00  0.000000e+00
      vertex   8.229002e-01 -1.132625e+00  0.000000e+00
    endloop
  endfacet
  facet normal  0.000000e+00  0.000000e+00 -1.000000e+00
    outer loop
      vertex   8.229002e-01 -1.132625e+00  0.000000e+00
      vertex   9.367819e-01  1.040401e+00  0.000000e+00
      vertex   9.367819e-01 -1.040401e+00  0.000000e+00
    endloop
  endfacet
  facet normal  0.000000e+00  0.000000e+00 -1.000000e+00
    outer loop
      vertex   9.367819e-01 -1.040401e+00  0.000000e+00
      vertex   9.367819e-01  1.040401e+00  0.000000e+00
      vertex   1.040401e+00 -9.367818e-01  0.000000e+00
    endloop
  endfacet
  facet normal  0.000000e+00  0.000000e+00 -1.000000e+00
    outer loop
      vertex   1.040401e+00 -9.367818e-01  0.000000e+00
      vertex   9.367819e-01  1.040401e+00  0.000000e+00
      vertex   1.132625e+00 -8.229002e-01  0.000000e+00
    endloop
  endfacet
  facet normal  0.000000e+00  0.000000e+00 -1.000000e+00
    outer loop
      vertex   1.132625e+00 -8.229002e-01  0.000000e+00
      vertex   9.367819e-01  1.040401e+00  0.000000e+00
      vertex   1.212436e+00 -6.999999e-01  0.000000e+00
    endloop
  endfacet
  facet normal  0.000000e+00  0.000000e+00 -1.000000e+00
    outer loop
      vertex   1.212436e+00 -6.999999e-01  0.000000e+00
      vertex   9.367819e-01  1.040401e+00  0.000000e+00
      vertex   1.278964e+00 -5.694302e-01  0.000000e+00
    endloop
  endfacet
  facet normal  0.000000e+00  0.000000e+00 -1.000000e+00
    outer loop
      vertex   1.278964e+00 -5.694302e-01  0.000000e+00
      vertex   9.367819e-01  1.040401e+00  0.000000e+00
      vertex   1.331478e+00 -4.326251e-01  0.000000e+00
    endloop
  endfacet
  facet normal  0.000000e+00  0.000000e+00 -1.000000e+00
    outer loop
      vertex   1.331478e+00 -4.326251e-01  0.000000e+00
      vertex   9.367819e-01  1.040401e+00  0.000000e+00
      vertex   1.369407e+00 -2.910767e-01  0.000000e+00
    endloop
  endfacet
  facet normal  0.000000e+00  0.000000e+00 -1.000000e+00
    outer loop
      vertex   1.369407e+00 -2.910767e-01  0.000000e+00
      vertex   9.367819e-01  1.040401e+00  0.000000e+00
      vertex   1.392331e+00 -1.463397e-01  0.000000e+00
    endloop
  endfacet
  facet normal  0.000000e+00  0.000000e+00 -1.000000e+00
    outer loop
      vertex   1.392331e+00 -1.463397e-01  0.000000e+00
      vertex   9.367819e-01  1.040401e+00  0.000000e+00
      vertex   1.400000e+00  8.614338e-10  0.000000e+00
    endloop
  endfacet
  facet normal  0.000000e+00  0.000000e+00 -1.000000e+00
    outer loop
      vertex   1.400000e+00  8.614338e-10  0.000000e+00
      vertex   9.367819e-01  1.040401e+00  0.000000e+00
      vertex   1.392331e+00  1.463397e-01  0.000000e+00
    endloop
  endfacet
  facet normal  0.000000e+00  0.000000e+00 -1.000000e+00
    outer loop
      vertex   1.392331e+00  1.463397e-01  0.000000e+00
      vertex   9.367819e-01  1.040401e+00  0.000000e+00
      vertex   1.369407e+00  2.910767e-01  0.000000e+00
    endloop
  endfacet
  facet normal  0.000000e+00  0.000000e+00 -1.000000e+00
    outer loop
      vertex   1.369407e+00  2.910767e-01  0.000000e+00
      vertex   9.367819e-01  1.040401e+00  0.000000e+00
      vertex   1.331478e+00  4.326251e-01  0.000000e+00
    endloop
  endfacet
  facet normal  0.000000e+00  0.000000e+00 -1.000000e+00
    outer loop
      vertex   9.367819e-01  1.040401e+00  0.000000e+00
      vertex   1.040401e+00  9.367818e-01  0.000000e+00
      vertex   1.331478e+00  4.326251e-01  0.000000e+00
    endloop
  endfacet
  facet normal  0.000000e+00  0.000000e+00 -1.000000e+00
    outer loop
      vertex   1.040401e+00  9.367818e-01  0.000000e+00
      vertex   1.132625e+00  8.229002e-01  0.000000e+00
      vertex   1.331478e+00  4.326251e-01  0.000000e+00
    endloop
  endfacet
  facet normal  0.000000e+00  0.000000e+00 -1.000000e+00
    outer loop
      vertex   1.132625e+00  8.229002e-01  0.000000e+00
      vertex   1.212436e+00  6.999999e-01  0.000000e+00
      vertex   1.331478e+00  4.326251e-01  0.000000e+00
    endloop
  endfacet
  facet normal -0.000000e+00 -0.000000e+00 -1.000000e+00
    outer loop
      vertex   1.278964e+00  5.694302e-01  0.000000e+00
      vertex   1.331478e+00  4.326251e-01  0.000000e+00
      vertex   1.212436e+00  6.999999e-01  0.000000e+00
    endloop
  endfacet
  facet normal -4.682242e-02  8.934463e-01  4.467230e-01
    outer loop
      vertex   2.491529e-07  0.000000e+00  2.800000e+00
      vertex  -1.180227e-07  1.400000e+00  0.000000e+00
      vertex  -1.463399e-01  1.392331e+00  0.000000e+00
    endloop
  endfacet
  facet normal -1.399547e-01  8.836578e-01  4.467231e-01
    outer loop
      vertex   2.491529e-07  0.000000e+00  2.800000e+00
      vertex  -1.463399e-01  1.392331e+00  0.000000e+00
      vertex  -2.910769e-01  1.369407e+00  0.000000e+00
    endloop
  endfacet
  facet normal -2.315643e-01  8.641855e-01  4.467231e-01
    outer loop
      vertex   2.491529e-07  0.000000e+00  2.800000e+00
      vertex  -2.910769e-01  1.369407e+00  0.000000e+00
      vertex  -4.326252e-01  1.331478e+00  0.000000e+00
    endloop
  endfacet
  facet normal -3.206187e-01  8.352498e-01  4.467230e-01
    outer loop
      vertex   2.491529e-07  0.000000e+00  2.800000e+00
      vertex  -4.326252e-01  1.331478e+00  0.000000e+00
      vertex  -5.694304e-01  1.278964e+00  0.000000e+00
    endloop
  endfacet
  facet normal -4.061700e-01  7.971601e-01  4.467231e-01
    outer loop
      vertex   2.491529e-07  0.000000e+00  2.800000e+00
      vertex  -5.694304e-01  1.278964e+00  0.000000e+00
      vertex  -7.000002e-01  1.212436e+00  0.000000e+00
    endloop
  endfacet
  facet normal -4.872673e-01  7.503391e-01  4.467235e-01
    outer loop
      vertex   2.491529e-07  0.000000e+00  2.800000e+00
      vertex  -7.000002e-01  1.212436e+00  0.000000e+00
      vertex  -8.229006e-01  1.132625e+00  0.000000e+00
    endloop
  endfacet
  facet normal -5.630509e-01  6.952785e-01  4.467228e-01
    outer loop
      vertex   2.491529e-07  0.000000e+00  2.800000e+00
      vertex  -8.229006e-01  1.132625e+00  0.000000e+00
      vertex  -9.367822e-01  1.040401e+00  0.000000e+00
    endloop
  endfacet
  facet normal -6.326286e-01  6.326291e-01  4.467230e-01
    outer loop
      vertex   2.491529e-07  0.000000e+00  2.800000e+00
      vertex  -9.367822e-01  1.040401e+00  0.000000e+00
      vertex  -1.040402e+00  9.367818e-01  2.384186e-07
    endloop
  endfacet
  facet normal -6.952785e-01  5.630508e-01  4.467233e-01
    outer loop
      vertex   2.491529e-07  0.000000e+00  2.800000e+00
      vertex  -1.040402e+00  9.367818e-01  2.384186e-07
      vertex  -1.132625e+00  8.229002e-01  2.384186e-07
    endloop
  endfacet
  facet normal -7.503384e-01  4.872683e-01  4.467235e-01
    outer loop
      vertex   2.491529e-07  0.000000e+00  2.800000e+00
      vertex  -1.132625e+00  8.229002e-01  2.384186e-07
      vertex  -1.212437e+00  6.999999e-01  2.384186e-07
    endloop
  endfacet
  facet normal -7.971600e-01  4.061703e-01  4.467233e-01
    outer loop
      vertex   2.491529e-07  0.000000e+00  2.800000e+00
      vertex  -1.212437e+00  6.999999e-01  2.384186e-07
      vertex  -1.278965e+00  5.694302e-01  2.384186e-07
    endloop
  endfacet
  facet normal -8.352496e-01  3.206187e-01  4.467233e-01
    outer loop
      vertex   2.491529e-07  0.000000e+00  2.800000e+00
      vertex  -1.278965e+00  5.694302e-01  2.384186e-07
      vertex  -1.331479e+00  4.326251e-01  2.384186e-07
    endloop
  endfacet
  facet normal -8.641856e-01  2.315637e-01  4.467232e-01
    outer loop
      vertex   2.491529e-07  0.000000e+00  2.800000e+00
      vertex  -1.331479e+00  4.326251e-01  2.384186e-07
      vertex  -1.369407e+00  2.910767e-01  2.384186e-07
    endloop
  endfacet
  facet normal -8.836578e-01  1.399542e-01  4.467233e-01
    outer loop
      vertex   2.491529e-07  0.000000e+00  2.800000e+00
      vertex  -1.369407e+00  2.910767e-01  2.384186e-07
      vertex  -1.392331e+00  1.463397e-01  2.384186e-07
    endloop
  endfacet
  facet normal -8.934463e-01  4.682139e-02  4.467232e-01
    outer loop
      vertex   2.491529e-07  0.000000e+00  2.800000e+00
      vertex  -1.392331e+00  1.463397e-01  2.384186e-07
      vertex  -1.400000e+00 -2.871455e-10  2.384186e-07
    endloop
  endfacet
  facet normal -8.934463e-01 -4.682139e-02  4.467232e-01
    outer loop
      vertex   2.491529e-07  0.000000e+00  2.800000e+00
      vertex  -1.400000e+00 -2.871455e-10  2.384186e-07
      vertex  -1.392331e+00 -1.463397e-01  2.384186e-07
    endloop
  endfacet
  facet normal -8.836578e-01 -1.399542e-01  4.467233e-01
    outer loop
      vertex   2.491529e-07  0.000000e+00  2.800000e+00
      vertex  -1.392331e+00 -1.463397e-01  2.384186e-07
      vertex  -1.369407e+00 -2.910767e-01  2.384186e-07
    endloop
  endfacet
  facet normal -8.641856e-01 -2.315637e-01  4.467232e-01
    outer loop
      vertex   2.491529e-07  0.000000e+00  2.800000e+00
      vertex  -1.369407e+00 -2.910767e-01  2.384186e-07
      vertex  -1.331479e+00 -4.326251e-01  2.384186e-07
    endloop
  endfacet
  facet normal -8.352496e-01 -3.206187e-01  4.467233e-01
    outer loop
      vertex   2.491529e-07  0.000000e+00  2.800000e+00
      vertex  -1.331479e+00 -4.326251e-01  2.384186e-07
      vertex  -1.278965e+00 -5.694302e-01  2.384186e-07
    endloop
  endfacet
  facet normal -7.971600e-01 -4.061703e-01  4.467233e-01
    outer loop
      vertex   2.491529e-07  0.000000e+00  2.800000e+00
      vertex  -1.278965e+00 -5.694302e-01  2.384186e-07
      vertex  -1.212437e+00 -6.999999e-01  2.384186e-07
    endloop
  endfacet
  facet normal -7.503384e-01 -4.872683e-01  4.467235e-01
    outer loop
      vertex   2.491529e-07  0.000000e+00  2.800000e+00
      vertex  -1.212437e+00 -6.999999e-01  2.384186e-07
      vertex  -1.132625e+00 -8.229002e-01  2.384186e-07
    endloop
  endfacet
  facet normal -6.952785e-01 -5.630508e-01  4.467233e-01
    outer loop
      vertex   2.491529e-07  0.000000e+00  2.800000e+00
      vertex  -1.132625e+00 -8.229002e-01  2.384186e-07
      vertex  -1.040402e+00 -9.367818e-01  2.384186e-07
    endloop
  endfacet
  facet normal -6.326286e-01 -6.326291e-01  4.467230e-01
    outer loop
      vertex   2.491529e-07  0.000000e+00  2.800000e+00
      vertex  -1.040402e+00 -9.367818e-01  2.384186e-07
      vertex  -9.367822e-01 -1.040401e+00  0.000000e+00
    endloop
  endfacet
  facet normal -5.630509e-01 -6.952785e-01  4.467228e-01
    outer loop
      vertex   2.491529e-07  0.000000e+00  2.800000e+00
      vertex  -9.367822e-01 -1.040401e+00  0.000000e+00
      vertex  -8.229006e-01 -1.132625e+00  0.000000e+00
    endloop
  endfacet
  facet normal -4.872673e-01 -7.503391e-01  4.467235e-01
    outer loop
      vertex   2.491529e-07  0.000000e+00  2.800000e+00
      vertex  -8.229006e-01 -1.132625e+00  0.000000e+00
      vertex  -7.000002e-01 -1.212436e+00  0.000000e+00
    endloop
  endfacet
  facet normal -4.061700e-01 -7.971601e-01  4.467231e-01
    outer loop
      vertex   2.491529e-07  0.000000e+00  2.800000e+00
      vertex  -7.000002e-01 -1.212436e+00  0.000000e+00
      vertex  -5.694304e-01 -1.278964e+00  0.000000e+00
    endloop
  endfacet
  facet normal -3.206187e-01 -8.352498e-01  4.467230e-01
    outer loop
      vertex   2.491529e-07  0.000000e+00  2.800000e+00
      vertex  -5.694304e-01 -1.278964e+00  0.000000e+00
      vertex  -4.326252e-01 -1.331478e+00  0.000000e+00
    endloop
  endfacet
  facet normal -2.315643e-01 -8.641855e-01  4.467231e-01
    outer loop
      vertex   2.491529e-07  0.000000e+00  2.800000e+00
      vertex  -4.326252e-01 -1.331478e+00  0.000000e+00
      vertex  -2.910769e-01 -1.369407e+00  0.000000e+00
    endloop
  endfacet
  facet normal -1.399547e-01 -8.836578e-01  4.467231e-01
    outer loop
      vertex   2.491529e-07  0.000000e+00  2.800000e+00
      vertex  -2.910769e-01 -1.369407e+00  0.000000e+00
      vertex  -1.463399e-01 -1.392331e+00  0.000000e+00
    endloop
  endfacet
  facet normal -4.682242e-02 -8.934463e-01  4.467230e-01
    outer loop
      vertex   2.491529e-07  0.000000e+00  2.800000e+00
      vertex  -1.463399e-01 -1.392331e+00  0.000000e+00
      vertex  -1.174484e-07 -1.400000e+00  0.000000e+00
    endloop
  endfacet
  facet normal  4.682242e-02 -8.934463e-01  4.467230e-01
    outer loop
      vertex   2.491529e-07  0.000000e+00  2.800000e+00
      vertex  -1.174484e-07 -1.400000e+00  0.000000e+00
      vertex   1.463396e-01 -1.392331e+00  0.000000e+00
    endloop
  endfacet
  facet normal  1.399547e-01 -8.836578e-01  4.467231e-01
    outer loop
      vertex   2.491529e-07  0.000000e+00  2.800000e+00
      vertex   1.463396e-01 -1.392331e+00  0.000000e+00
      vertex   2.910767e-01 -1.369407e+00  0.000000e+00
    endloop
  endfacet
  facet normal  2.315641e-01 -8.641855e-01  4.467231e-01
    outer loop
      vertex   2.491529e-07  0.000000e+00  2.800000e+00
      vertex   2.910767e-01 -1.369407e+00  0.000000e+00
      vertex   4.326251e-01 -1.331478e+00  0.000000e+00
    endloop
  endfacet
  facet normal  3.206186e-01 -8.352499e-01  4.467229e-01
    outer loop
      vertex   2.491529e-07  0.000000e+00  2.800000e+00
      vertex   4.326251e-01 -1.331478e+00  0.000000e+00
      vertex   5.694304e-01 -1.278964e+00  0.000000e+00
    endloop
  endfacet
  facet normal  4.061705e-01 -7.971599e-01  4.467232e-01
    outer loop
      vertex   2.491529e-07  0.000000e+00  2.800000e+00
      vertex   5.694304e-01 -1.278964e+00  0.000000e+00
      vertex   6.999999e-01 -1.212436e+00  0.000000e+00
    endloop
  endfacet
  facet normal  4.872675e-01 -7.503391e-01  4.467232e-01
    outer loop
      vertex   2.491529e-07  0.000000e+00  2.800000e+00
      vertex   6.999999e-01 -1.212436e+00  0.000000e+00
      vertex   8.229002e-01 -1.132625e+00  0.000000e+00
    endloop
  endfacet
  facet normal  5.630512e-01 -6.952783e-01  4.467230e-01
    outer loop
      vertex   2.491529e-07  0.000000e+00  2.800000e+00
      vertex   8.229002e-01 -1.132625e+00  0.000000e+00
      vertex   9.367819e-01 -1.040401e+00  0.000000e+00
    endloop
  endfacet
  facet normal  6.326290e-01 -6.326290e-01  4.467225e-01
    outer loop
      vertex   2.491529e-07  0.000000e+00  2.800000e+00
      vertex   9.367819e-01 -1.040401e+00  0.000000e+00
      vertex   1.040401e+00 -9.367818e-01  0.000000e+00
    endloop
  endfacet
  facet normal  6.952786e-01 -5.630509e-01  4.467230e-01
    outer loop
      vertex   2.491529e-07  0.000000e+00  2.800000e+00
      vertex   1.040401e+00 -9.367818e-01  0.000000e+00
      vertex   1.132625e+00 -8.229002e-01  0.000000e+00
    endloop
  endfacet
  facet normal  7.503387e-01 -4.872683e-01  4.467231e-01
    outer loop
      vertex   2.491529e-07  0.000000e+00  2.800000e+00
      vertex   1.132625e+00 -8.229002e-01  0.000000e+00
      vertex   1.212436e+00 -6.999999e-01  0.000000e+00
    endloop
  endfacet
  facet normal  7.971600e-01 -4.061703e-01  4.467231e-01
    outer loop
      vertex   2.491529e-07  0.000000e+00  2.800000e+00
      vertex   1.212436e+00 -6.999999e-01  0.000000e+00
      vertex   1.278964e+00 -5.694302e-01  0.000000e+00
    endloop
  endfacet
  facet normal  8.352498e-01 -3.206187e-01  4.467230e-01
    outer loop
      vertex   2.491529e-07  0.000000e+00  2.800000e+00
      vertex   1.278964e+00 -5.694302e-01  0.000000e+00
      vertex   1.331478e+00 -4.326251e-01  0.000000e+00
    endloop
  endfacet
  facet normal  8.641857e-01 -2.315633e-01  4.467231e-01
    outer loop
      vertex   2.491529e-07  0.000000e+00  2.800000e+00
      vertex   1.331478e+00 -4.326251e-01  0.000000e+00
      vertex   1.369407e+00 -2.910767e-01  0.000000e+00
    endloop
  endfacet
  facet normal  8.836579e-01 -1.399547e-01  4.467230e-01
    outer loop
      vertex   2.491529e-07  0.000000e+00  2.800000e+00
      vertex   1.369407e+00 -2.910767e-01  0.000000e+00
      vertex   1.392331e+00 -1.463397e-01  0.000000e+00
    endloop
  endfacet
  facet normal  8.934463e-01 -4.682347e-02  4.467230e-01
    outer loop
      vertex   2.491529e-07  0.000000e+00  2.800000e+00
      vertex   1.392331e+00 -1.463397e-01  0.000000e+00
      vertex   1.400000e+00  8.614338e-10  0.000000e+00
    endloop
  endfacet
  facet normal  8.934463e-01  4.682347e-02  4.467230e-01
    outer loop
      vertex   2.491529e-07  0.000000e+00  2.800000e+00
      vertex   1.400000e+00  8.614338e-10  0.000000e+00
      vertex   1.392331e+00  1.463397e-01  0.000000e+00
    endloop
  endfacet
  facet normal  8.836579e-01  1.399547e-01  4.467230e-01
    outer loop
      vertex   2.491529e-07  0.000000e+00  2.800000e+00
      vertex   1.392331e+00  1.463397e-01  0.000000e+00
      vertex   1.369407e+00  2.910767e-01  0.000000e+00
    endloop
  endfacet
  facet normal  8.641857e-01  2.315633e-01  4.467231e-01
    outer loop
      vertex   2.491529e-07  0.000000e+00  2.800000e+00
      vertex   1.369407e+00  2.910767e-01  0.000000e+00
      vertex   1.331478e+00  4.326251e-01  0.000000e+00
    endloop
  endfacet
  facet normal  8.352498e-01  3.206187e-01  4.467230e-01
    outer loop
      vertex   2.491529e-07  0.000000e+00  2.800000e+00
      vertex   1.331478e+00  4.326251e-01  0.000000e+00
      vertex   1.278964e+00  5.694302e-01  0.000000e+00
    endloop
  endfacet
  facet normal  7.971600e-01  4.061703e-01  4.467231e-01
    outer loop
      vertex   2.491529e-07  0.000000e+00  2.800000e+00
      vertex   1.278964e+00  5.694302e-01  0.000000e+00
      vertex   1.212436e+00  6.999999e-01  0.000000e+00
    endloop
  endfacet
  facet normal  7.503387e-01  4.872683e-01  4.467231e-01
    outer loop
      vertex   2.491529e-07  0.000000e+00  2.800000e+00
      vertex   1.212436e+00  6.999999e-01  0.000000e+00
      vertex   1.132625e+00  8.229002e-01  0.000000e+00
    endloop
  endfacet
  facet normal  6.952786e-01  5.630509e-01  4.467230e-01
    outer loop
      vertex   2.491529e-07  0.000000e+00  2.800000e+00
      vertex   1.132625e+00  8.229002e-01  0.000000e+00
      vertex   1.040401e+00  9.367818e-01  0.000000e+00
    endloop
  endfacet
  facet normal  6.326290e-01  6.326290e-01  4.467225e-01
    outer loop
      vertex   2.491529e-07  0.000000e+00  2.800000e+00
      vertex   1.040401e+00  9.367818e-01  0.000000e+00
      vertex   9.367819e-01  1.040401e+00  0.000000e+00
    endloop
  endfacet
  facet normal  5.630512e-01  6.952783e-01  4.467230e-01
    outer loop
      vertex   2.491529e-07  0.000000e+00  2.800000e+00
      vertex   9.367819e-01  1.040401e+00  0.000000e+00
      vertex   8.229002e-01  1.132625e+00  0.000000e+00
    endloop
  endfacet
  facet normal  4.872675e-01  7.503391e-01  4.467232e-01
    outer loop
      vertex   2.491529e-07  0.000000e+00  2.800000e+00
      vertex   8.229002e-01  1.132625e+00  0.000000e+00
      vertex   6.999999e-01  1.212436e+00  0.000000e+00
    endloop
  endfacet
  facet normal  4.061705e-01  7.971599e-01  4.467232e-01
    outer loop
      vertex   2.491529e-07  0.000000e+00  2.800000e+00
      vertex   6.999999e-01  1.212436e+00  0.000000e+00
      vertex   5.694304e-01  1.278964e+00  0.000000e+00
    endloop
  endfacet
  facet normal  3.206186e-01  8.352499e-01  4.467229e-01
    outer loop
      vertex   2.491529e-07  0.000000e+00  2.800000e+00
      vertex   5.694304e-01  1.278964e+00  0.000000e+00
      vertex   4.326251e-01  1.331478e+00  0.000000e+00
    endloop
  endfacet
  facet normal  2.315641e-01  8.641855e-01  4.467231e-01
    outer loop
      vertex   2.491529e-07  0.000000e+00  2.800000e+00
      vertex   4.326251e-01  1.331478e+00  0.000000e+00
      vertex   2.910767e-01  1.369407e+00  0.000000e+00
    endloop
  endfacet
  facet normal  1.399547e-01  8.836578e-01  4.467231e-01
    outer loop
      vertex   2.491529e-07  0.000000e+00  2.800000e+00
      vertex   2.910767e-01  1.369407e+00  0.000000e+00
      vertex   1.463396e-01  1.392331e+00  0.000000e+00
    endloop
  endfacet
  facet normal  4.682242e-02  8.934463e-01  4.467230e-01
    outer loop
      vertex   2.491529e-07  0.000000e+00  2.800000e+00
      vertex   1.463396e-01  1.392331e+00  0.000000e+00
      vertex  -1.180227e-07  1.400000e+00  0.000000e+00
    endloop
  endfacet
endsolid vcg
