solid STL generated by MeshLab
  facet normal  0.000000e+00  0.000000e+00  1.000000e+00
    outer loop
      vertex   0.000000e+00  0.000000e+00  0.000000e+00
      vertex   5.000000e-01  0.000000e+00  0.000000e+00
      vertex   4.890740e-01  1.039560e-01  0.000000e+00
    endloop
  endfacet
  facet normal  0.000000e+00  0.000000e+00  1.000000e+00
    outer loop
      vertex   0.000000e+00  0.000000e+00  0.000000e+00
      vertex   4.890740e-01  1.039560e-01  0.000000e+00
      vertex   4.567730e-01  2.033679e-01  0.000000e+00
    endloop
  endfacet
  facet normal  0.000000e+00  0.000000e+00  1.000000e+00
    outer loop
      vertex   0.000000e+00  0.000000e+00  0.000000e+00
      vertex   4.567730e-01  2.033679e-01  0.000000e+00
      vertex   4.067371e-01  2.938931e-01  0.000000e+00
    endloop
  endfacet
  facet normal  0.000000e+00  0.000000e+00  1.000000e+00
    outer loop
      vertex   0.000000e+00  0.000000e+00  0.000000e+00
      vertex   4.067371e-01  2.938931e-01  0.000000e+00
      vertex   3.399179e-01  3.660250e-01  0.000000e+00
    endloop
  endfacet
  facet normal  0.000000e+00  0.000000e+00  1.000000e+00
    outer loop
      vertex   0.000000e+00  0.000000e+00  0.000000e+00
      vertex   3.399179e-01  3.660250e-01  0.000000e+00
      vertex   2.588191e-01  4.157350e-01  0.000000e+00
    endloop
  endfacet
  facet normal  0.000000e+00  0.000000e+00  1.000000e+00
    outer loop
      vertex   0.000000e+00  0.000000e+00  0.000000e+00
      vertex   2.588191e-01  4.157350e-01  0.000000e+00
      vertex   1.654351e-01  4.713969e-01  0.000000e+00
    endloop
  endfacet
  facet normal  0.000000e+00  0.000000e+00  1.000000e+00
    outer loop
      vertex   0.000000e+00  0.000000e+00  0.000000e+00
      vertex   1.654351e-01  4.713969e-01  0.000000e+00
      vertex   5.226398e-02  4.972610e-01  0.000000e+00
    endloop
  endfacet
  facet normal  0.000000e+00 -0.000000e+00  1.000000e+00
    outer loop
      vertex   0.000000e+00  0.000000e+00  0.000000e+00
      vertex   5.226398e-02  4.972610e-01  0.000000e+00
      vertex  -5.226398e-02  4.972610e-01  0.000000e+00
    endloop
  endfacet
  facet normal  0.000000e+00  0.000000e+00  1.000000e+00
    outer loop
      vertex   0.000000e+00  0.000000e+00  0.000000e+00
      vertex  -5.226398e-02  4.972610e-01  0.000000e+00
      vertex  -1.654350e-01  4.713969e-01  0.000000e+00
    endloop
  endfacet
  facet normal  0.000000e+00  0.000000e+00  1.000000e+00
    outer loop
      vertex   0.000000e+00  0.000000e+00  0.000000e+00
      vertex  -1.654350e-01  4.713969e-01  0.000000e+00
      vertex  -2.588190e-01  4.157350e-01  0.000000e+00
    endloop
  endfacet
  facet normal  0.000000e+00  0.000000e+00  1.000000e+00
    outer loop
      vertex   0.000000e+00  0.000000e+00  0.000000e+00
      vertex  -2.588190e-01  4.157350e-01  0.000000e+00
      vertex  -3.399180e-01  3.660250e-01  0.000000e+00
    endloop
  endfacet
  facet normal  0.000000e+00  0.000000e+00  1.000000e+00
    outer loop
      vertex   0.000000e+00  0.000000e+00  0.000000e+00
      vertex  -3.399180e-01  3.660250e-01  0.000000e+00
      vertex  -4.067370e-01  2.938931e-01  0.000000e+00
    endloop
  endfacet
  facet normal  0.000000e+00  0.000000e+00  1.000000e+00
    outer loop
      vertex   0.000000e+00  0.000000e+00  0.000000e+00
      vertex  -4.067370e-01  2.938931e-01  0.000000e+00
      vertex  -4.567730e-01  2.033679e-01  0.000000e+00
    endloop
  endfacet
  facet normal  0.000000e+00  0.000000e+00  1.000000e+00
    outer loop
      vertex   0.000000e+00  0.000000e+00  0.000000e+00
      vertex  -4.567730e-01  2.033679e-01  0.000000e+00
      vertex  -4.890740e-01  1.039560e-01  0.000000e+00
    endloop
  endfacet
  facet normal  0.000000e+00  0.000000e+00  1.000000e+00
    outer loop
      vertex   0.000000e+00  0.000000e+00  0.000000e+00
      vertex  -4.890740e-01  1.039560e-01  0.000000e+00
      vertex  -5.000000e-01  0.000000e+00  0.000000e+00
    endloop
  endfacet
  facet normal  0.000000e+00  0.000000e+00  1.000000e+00
    outer loop
      vertex   0.000000e+00  0.000000e+00  6.000000e+00
      vertex   5.000000e-01  0.000000e+00  6.000000e+00
      vertex   4.890740e-01  1.039560e-01  6.000000e+00
    endloop
  endfacet
  facet normal  0.000000e+00  0.000000e+00  1.000000e+00
    outer loop
      vertex   0.000000e+00  0.000000e+00  6.000000e+00
      vertex   4.890740e-01  1.039560e-01  6.000000e+00
      vertex   4.567730e-01  2.033679e-01  6.000000e+00
    endloop
  endfacet
  facet normal  0.000000e+00  0.000000e+00  1.000000e+00
    outer loop
      vertex   0.000000e+00  0.000000e+00  6.000000e+00
      vertex   4.567730e-01  2.033679e-01  6.000000e+00
      vertex   4.067371e-01  2.938931e-01  6.000000e+00
    endloop
  endfacet
  facet normal  0.000000e+00  0.000000e+00  1.000000e+00
    outer loop
      vertex   0.000000e+00  0.000000e+00  6.000000e+00
      vertex   4.067371e-01  2.938931e-01  6.000000e+00
      vertex   3.399179e-01  3.660250e-01  6.000000e+00
    endloop
  endfacet
  facet normal  0.000000e+00  0.000000e+00  1.000000e+00
    outer loop
      vertex   0.000000e+00  0.000000e+00  6.000000e+00
      vertex   3.399179e-01  3.660250e-01  6.000000e+00
      vertex   2.588191e-01  4.157350e-01  6.000000e+00
    endloop
  endfacet
  facet normal  0.000000e+00  0.000000e+00  1.000000e+00
    outer loop
      vertex   0.000000e+00  0.000000e+00  6.000000e+00
      vertex   2.588191e-01  4.157350e-01  6.000000e+00
      vertex   1.654351e-01  4.713969e-01  6.000000e+00
    endloop
  endfacet
  facet normal  0.000000e+00  0.000000e+00  1.000000e+00
    outer loop
      vertex   0.000000e+00  0.000000e+00  6.000000e+00
      vertex   1.654351e-01  4.713969e-01  6.000000e+00
      vertex   5.226398e-02  4.972610e-01  6.000000e+00
    endloop
  endfacet
  facet normal  0.000000e+00 -0.000000e+00  1.000000e+00
    outer loop
      vertex   0.000000e+00  0.000000e+00  6.000000e+00
      vertex   5.226398e-02  4.972610e-01  6.000000e+00
      vertex  -5.226398e-02  4.972610e-01  6.000000e+00
    endloop
  endfacet
  facet normal  0.000000e+00  0.000000e+00  1.000000e+00
    outer loop
      vertex   0.000000e+00  0.000000e+00  6.000000e+00
      vertex  -5.226398e-02  4.972610e-01  6.000000e+00
      vertex  -1.654350e-01  4.713969e-01  6.000000e+00
    endloop
  endfacet
  facet normal  0.000000e+00  0.000000e+00  1.000000e+00
    outer loop
      vertex   0.000000e+00  0.000000e+00  6.000000e+00
      vertex  -1.654350e-01  4.713969e-01  6.000000e+00
      vertex  -2.588190e-01  4.157350e-01  6.000000e+00
    endloop
  endfacet
  facet normal  0.000000e+00  0.000000e+00  1.000000e+00
    outer loop
      vertex   0.000000e+00  0.000000e+00  6.000000e+00
      vertex  -2.588190e-01  4.157350e-01  6.000000e+00
      vertex  -3.399180e-01  3.660250e-01  6.000000e+00
    endloop
  endfacet
  facet normal  0.000000e+00  0.000000e+00  1.000000e+00
    outer loop
      vertex   0.000000e+00  0.000000e+00  6.000000e+00
      vertex  -3.399180e-01  3.660250e-01  6.000000e+00
      vertex  -4.067370e-01  2.938931e-01  6.000000e+00
    endloop
  endfacet
  facet normal  0.000000e+00  0.000000e+00  1.000000e+00
    outer loop
      vertex   0.000000e+00  0.000000e+00  6.000000e+00
      vertex  -4.067370e-01  2.938931e-01  6.000000e+00
      vertex  -4.567730e-01  2.033679e-01  6.000000e+00
    endloop
  endfacet
  facet normal  0.000000e+00  0.000000e+00  1.000000e+00
    outer loop
      vertex   0.000000e+00  0.000000e+00  6.000000e+00
      vertex  -4.567730e-01  2.033679e-01  6.000000e+00
      vertex  -4.890740e-01  1.039560e-01  6.000000e+00
    endloop
  endfacet
  facet normal  0.000000e+00  0.000000e+00  1.000000e+00
    outer loop
      vertex   0.000000e+00  0.000000e+00  6.000000e+00
      vertex  -4.890740e-01  1.039560e-01  6.000000e+00
      vertex  -5.000000e-01  0.000000e+00  6.000000e+00
    endloop
  endfacet
  facet normal -9.945220e-01  1.045265e-01  0.000000e+00
    outer loop
      vertex  -5.000000e-01  0.000000e+00  0.000000e+00
      vertex  -5.000000e-01  0.000000e+00  6.000000e+00
      vertex  -4.890740e-01  1.039560e-01  6.000000e+00
    endloop
  endfacet
  facet normal -9.945220e-01  1.045265e-01  0.000000e+00
    outer loop
      vertex  -5.000000e-01  0.000000e+00  0.000000e+00
      vertex  -4.890740e-01  1.039560e-01  6.000000e+00
      vertex  -4.890740e-01  1.039560e-01  0.000000e+00
    endloop
  endfacet
  facet normal -9.510564e-01  3.090174e-01  0.000000e+00
    outer loop
      vertex  -4.890740e-01  1.039560e-01  0.000000e+00
      vertex  -4.890740e-01  1.039560e-01  6.000000e+00
      vertex  -4.567730e-01  2.033679e-01  6.000000e+00
    endloop
  endfacet
  facet normal -9.510564e-01  3.090174e-01  0.000000e+00
    outer loop
      vertex  -4.890740e-01  1.039560e-01  0.000000e+00
      vertex  -4.567730e-01  2.033679e-01  6.000000e+00
      vertex  -4.567730e-01  2.033679e-01  0.000000e+00
    endloop
  endfacet
  facet normal -8.752047e-01  4.837529e-01  0.000000e+00
    outer loop
      vertex  -4.567730e-01  2.033679e-01  0.000000e+00
      vertex  -4.567730e-01  2.033679e-01  6.000000e+00
      vertex  -4.067370e-01  2.938931e-01  6.000000e+00
    endloop
  endfacet
  facet normal -8.752047e-01  4.837529e-01  0.000000e+00
    outer loop
      vertex  -4.567730e-01  2.033679e-01  0.000000e+00
      vertex  -4.067370e-01  2.938931e-01  6.000000e+00
      vertex  -4.067370e-01  2.938931e-01  0.000000e+00
    endloop
  endfacet
  facet normal -7.336076e-01  6.795733e-01  0.000000e+00
    outer loop
      vertex  -4.067370e-01  2.938931e-01  0.000000e+00
      vertex  -4.067370e-01  2.938931e-01  6.000000e+00
      vertex  -3.399180e-01  3.660250e-01  6.000000e+00
    endloop
  endfacet
  facet normal -7.336076e-01  6.795733e-01  0.000000e+00
    outer loop
      vertex  -4.067370e-01  2.938931e-01  0.000000e+00
      vertex  -3.399180e-01  3.660250e-01  6.000000e+00
      vertex  -3.399180e-01  3.660250e-01  0.000000e+00
    endloop
  endfacet
  facet normal -5.225940e-01  8.525817e-01  0.000000e+00
    outer loop
      vertex  -3.399180e-01  3.660250e-01  0.000000e+00
      vertex  -3.399180e-01  3.660250e-01  6.000000e+00
      vertex  -2.588190e-01  4.157350e-01  6.000000e+00
    endloop
  endfacet
  facet normal -5.225940e-01  8.525817e-01  0.000000e+00
    outer loop
      vertex  -3.399180e-01  3.660250e-01  0.000000e+00
      vertex  -2.588190e-01  4.157350e-01  6.000000e+00
      vertex  -2.588190e-01  4.157350e-01  0.000000e+00
    endloop
  endfacet
  facet normal -5.120012e-01  8.589847e-01  0.000000e+00
    outer loop
      vertex  -2.588190e-01  4.157350e-01  0.000000e+00
      vertex  -2.588190e-01  4.157350e-01  6.000000e+00
      vertex  -1.654350e-01  4.713969e-01  6.000000e+00
    endloop
  endfacet
  facet normal -5.120012e-01  8.589847e-01  0.000000e+00
    outer loop
      vertex  -2.588190e-01  4.157350e-01  0.000000e+00
      vertex  -1.654350e-01  4.713969e-01  6.000000e+00
      vertex  -1.654350e-01  4.713969e-01  0.000000e+00
    endloop
  endfacet
  facet normal -2.227959e-01  9.748651e-01  0.000000e+00
    outer loop
      vertex  -1.654350e-01  4.713969e-01  0.000000e+00
      vertex  -1.654350e-01  4.713969e-01  6.000000e+00
      vertex  -5.226398e-02  4.972610e-01  6.000000e+00
    endloop
  endfacet
  facet normal -2.227959e-01  9.748651e-01  0.000000e+00
    outer loop
      vertex  -1.654350e-01  4.713969e-01  0.000000e+00
      vertex  -5.226398e-02  4.972610e-01  6.000000e+00
      vertex  -5.226398e-02  4.972610e-01  0.000000e+00
    endloop
  endfacet
  facet normal  0.000000e+00  1.000000e+00  0.000000e+00
    outer loop
      vertex  -5.226398e-02  4.972610e-01  0.000000e+00
      vertex  -5.226398e-02  4.972610e-01  6.000000e+00
      vertex   5.226398e-02  4.972610e-01  6.000000e+00
    endloop
  endfacet
  facet normal  0.000000e+00  1.000000e+00  0.000000e+00
    outer loop
      vertex  -5.226398e-02  4.972610e-01  0.000000e+00
      vertex   5.226398e-02  4.972610e-01  6.000000e+00
      vertex   5.226398e-02  4.972610e-01  0.000000e+00
    endloop
  endfacet
  facet normal  2.227957e-01  9.748652e-01 -0.000000e+00
    outer loop
      vertex   5.226398e-02  4.972610e-01  0.000000e+00
      vertex   5.226398e-02  4.972610e-01  6.000000e+00
      vertex   1.654351e-01  4.713969e-01  6.000000e+00
    endloop
  endfacet
  facet normal  2.227957e-01  9.748652e-01  0.000000e+00
    outer loop
      vertex   5.226398e-02  4.972610e-01  0.000000e+00
      vertex   1.654351e-01  4.713969e-01  6.000000e+00
      vertex   1.654351e-01  4.713969e-01  0.000000e+00
    endloop
  endfacet
  facet normal  5.120012e-01  8.589847e-01 -0.000000e+00
    outer loop
      vertex   1.654351e-01  4.713969e-01  0.000000e+00
      vertex   1.654351e-01  4.713969e-01  6.000000e+00
      vertex   2.588191e-01  4.157350e-01  6.000000e+00
    endloop
  endfacet
  facet normal  5.120012e-01  8.589847e-01  0.000000e+00
    outer loop
      vertex   1.654351e-01  4.713969e-01  0.000000e+00
      vertex   2.588191e-01  4.157350e-01  6.000000e+00
      vertex   2.588191e-01  4.157350e-01  0.000000e+00
    endloop
  endfacet
  facet normal  5.225951e-01  8.525810e-01 -0.000000e+00
    outer loop
      vertex   2.588191e-01  4.157350e-01  0.000000e+00
      vertex   2.588191e-01  4.157350e-01  6.000000e+00
      vertex   3.399179e-01  3.660250e-01  6.000000e+00
    endloop
  endfacet
  facet normal  5.225951e-01  8.525810e-01  0.000000e+00
    outer loop
      vertex   2.588191e-01  4.157350e-01  0.000000e+00
      vertex   3.399179e-01  3.660250e-01  6.000000e+00
      vertex   3.399179e-01  3.660250e-01  0.000000e+00
    endloop
  endfacet
  facet normal  7.336065e-01  6.795746e-01 -0.000000e+00
    outer loop
      vertex   3.399179e-01  3.660250e-01  0.000000e+00
      vertex   3.399179e-01  3.660250e-01  6.000000e+00
      vertex   4.067371e-01  2.938931e-01  6.000000e+00
    endloop
  endfacet
  facet normal  7.336065e-01  6.795746e-01  0.000000e+00
    outer loop
      vertex   3.399179e-01  3.660250e-01  0.000000e+00
      vertex   4.067371e-01  2.938931e-01  6.000000e+00
      vertex   4.067371e-01  2.938931e-01  0.000000e+00
    endloop
  endfacet
  facet normal  8.752051e-01  4.837520e-01 -0.000000e+00
    outer loop
      vertex   4.067371e-01  2.938931e-01  0.000000e+00
      vertex   4.067371e-01  2.938931e-01  6.000000e+00
      vertex   4.567730e-01  2.033679e-01  6.000000e+00
    endloop
  endfacet
  facet normal  8.752051e-01  4.837520e-01  0.000000e+00
    outer loop
      vertex   4.067371e-01  2.938931e-01  0.000000e+00
      vertex   4.567730e-01  2.033679e-01  6.000000e+00
      vertex   4.567730e-01  2.033679e-01  0.000000e+00
    endloop
  endfacet
  facet normal  9.510564e-01  3.090174e-01 -0.000000e+00
    outer loop
      vertex   4.567730e-01  2.033679e-01  0.000000e+00
      vertex   4.567730e-01  2.033679e-01  6.000000e+00
      vertex   4.890740e-01  1.039560e-01  6.000000e+00
    endloop
  endfacet
  facet normal  9.510564e-01  3.090174e-01  0.000000e+00
    outer loop
      vertex   4.567730e-01  2.033679e-01  0.000000e+00
      vertex   4.890740e-01  1.039560e-01  6.000000e+00
      vertex   4.890740e-01  1.039560e-01  0.000000e+00
    endloop
  endfacet
  facet normal  9.945220e-01  1.045265e-01 -0.000000e+00
    outer loop
      vertex   4.890740e-01  1.039560e-01  0.000000e+00
      vertex   4.890740e-01  1.039560e-01  6.000000e+00
      vertex   5.000000e-01  0.000000e+00  6.000000e+00
    endloop
  endfacet
  facet normal  9.945220e-01  1.045265e-01  0.000000e+00
    outer loop
      vertex   4.890740e-01  1.039560e-01  0.000000e+00
      vertex   5.000000e-01  0.000000e+00  6.000000e+00
      vertex   5.000000e-01  0.000000e+00  0.000000e+00
    endloop
  endfacet
  facet normal  0.000000e+00  0.000000e+00  1.000000e+00
    outer loop
      vertex   0.000000e+00  0.000000e+00  0.000000e+00
      vertex  -5.000000e-01  0.000000e+00  0.000000e+00
      vertex  -4.890740e-01 -1.039560e-01  0.000000e+00
    endloop
  endfacet
  facet normal  0.000000e+00  0.000000e+00  1.000000e+00
    outer loop
      vertex   0.000000e+00  0.000000e+00  0.000000e+00
      vertex  -4.890740e-01 -1.039560e-01  0.000000e+00
      vertex  -4.567730e-01 -2.033679e-01  0.000000e+00
    endloop
  endfacet
  facet normal  0.000000e+00  0.000000e+00  1.000000e+00
    outer loop
      vertex   0.000000e+00  0.000000e+00  0.000000e+00
      vertex  -4.567730e-01 -2.033679e-01  0.000000e+00
      vertex  -4.067370e-01 -2.938931e-01  0.000000e+00
    endloop
  endfacet
  facet normal  0.000000e+00  0.000000e+00  1.000000e+00
    outer loop
      vertex   0.000000e+00  0.000000e+00  0.000000e+00
      vertex  -4.067370e-01 -2.938931e-01  0.000000e+00
      vertex  -3.399180e-01 -3.660250e-01  0.000000e+00
    endloop
  endfacet
  facet normal  0.000000e+00  0.000000e+00  1.000000e+00
    outer loop
      vertex   0.000000e+00  0.000000e+00  0.000000e+00
      vertex  -3.399180e-01 -3.660250e-01  0.000000e+00
      vertex  -2.588190e-01 -4.157350e-01  0.000000e+00
    endloop
  endfacet
  facet normal  0.000000e+00  0.000000e+00  1.000000e+00
    outer loop
      vertex   0.000000e+00  0.000000e+00  0.000000e+00
      vertex  -2.588190e-01 -4.157350e-01  0.000000e+00
      vertex  -1.654350e-01 -4.713969e-01  0.000000e+00
    endloop
  endfacet
  facet normal  0.000000e+00  0.000000e+00  1.000000e+00
    outer loop
      vertex   0.000000e+00  0.000000e+00  0.000000e+00
      vertex  -1.654350e-01 -4.713969e-01  0.000000e+00
      vertex  -5.226398e-02 -4.972610e-01  0.000000e+00
    endloop
  endfacet
  facet normal  0.000000e+00  0.000000e+00  1.000000e+00
    outer loop
      vertex   0.000000e+00  0.000000e+00  0.000000e+00
      vertex  -5.226398e-02 -4.972610e-01  0.000000e+00
      vertex   5.226398e-02 -4.972610e-01  0.000000e+00
    endloop
  endfacet
  facet normal  0.000000e+00  0.000000e+00  1.000000e+00
    outer loop
      vertex   0.000000e+00  0.000000e+00  0.000000e+00
      vertex   5.226398e-02 -4.972610e-01  0.000000e+00
      vertex   1.654351e-01 -4.713969e-01  0.000000e+00
    endloop
  endfacet
  facet normal  0.000000e+00  0.000000e+00  1.000000e+00
    outer loop
      vertex   0.000000e+00  0.000000e+00  0.000000e+00
      vertex   1.654351e-01 -4.713969e-01  0.000000e+00
      vertex   2.588191e-01 -4.157350e-01  0.000000e+00
    endloop
  endfacet
  facet normal  0.000000e+00  0.000000e+00  1.000000e+00
    outer loop
      vertex   0.000000e+00  0.000000e+00  0.000000e+00
      vertex   2.588191e-01 -4.157350e-01  0.000000e+00
      vertex   3.399179e-01 -3.660250e-01  0.000000e+00
    endloop
  endfacet
  facet normal  0.000000e+00  0.000000e+00  1.000000e+00
    outer loop
      vertex   0.000000e+00  0.000000e+00  0.000000e+00
      vertex   3.399179e-01 -3.660250e-01  0.000000e+00
      vertex   4.067371e-01 -2.938931e-01  0.000000e+00
    endloop
  endfacet
  facet normal  0.000000e+00  0.000000e+00  1.000000e+00
    outer loop
      vertex   0.000000e+00  0.000000e+00  0.000000e+00
      vertex   4.067371e-01 -2.938931e-01  0.000000e+00
      vertex   4.567730e-01 -2.033679e-01  0.000000e+00
    endloop
  endfacet
  facet normal  0.000000e+00  0.000000e+00  1.000000e+00
    outer loop
      vertex   0.000000e+00  0.000000e+00  0.000000e+00
      vertex   4.567730e-01 -2.033679e-01  0.000000e+00
      vertex   4.890740e-01 -1.039560e-01  0.000000e+00
    endloop
  endfacet
  facet normal -0.000000e+00  0.000000e+00  1.000000e+00
    outer loop
      vertex   0.000000e+00  0.000000e+00  0.000000e+00
      vertex   4.890740e-01 -1.039560e-01  0.000000e+00
      vertex   5.000000e-01  0.000000e+00  0.000000e+00
    endloop
  endfacet
  facet normal  0.000000e+00  0.000000e+00  1.000000e+00
    outer loop
      vertex   0.000000e+00  0.000000e+00  6.000000e+00
      vertex  -5.000000e-01  0.000000e+00  6.000000e+00
      vertex  -4.890740e-01 -1.039560e-01  6.000000e+00
    endloop
  endfacet
  facet normal  0.000000e+00  0.000000e+00  1.000000e+00
    outer loop
      vertex   0.000000e+00  0.000000e+00  6.000000e+00
      vertex  -4.890740e-01 -1.039560e-01  6.000000e+00
      vertex  -4.567730e-01 -2.033679e-01  6.000000e+00
    endloop
  endfacet
  facet normal  0.000000e+00  0.000000e+00  1.000000e+00
    outer loop
      vertex   0.000000e+00  0.000000e+00  6.000000e+00
      vertex  -4.567730e-01 -2.033679e-01  6.000000e+00
      vertex  -4.067370e-01 -2.938931e-01  6.000000e+00
    endloop
  endfacet
  facet normal  0.000000e+00  0.000000e+00  1.000000e+00
    outer loop
      vertex   0.000000e+00  0.000000e+00  6.000000e+00
      vertex  -4.067370e-01 -2.938931e-01  6.000000e+00
      vertex  -3.399180e-01 -3.660250e-01  6.000000e+00
    endloop
  endfacet
  facet normal  0.000000e+00  0.000000e+00  1.000000e+00
    outer loop
      vertex   0.000000e+00  0.000000e+00  6.000000e+00
      vertex  -3.399180e-01 -3.660250e-01  6.000000e+00
      vertex  -2.588190e-01 -4.157350e-01  6.000000e+00
    endloop
  endfacet
  facet normal  0.000000e+00  0.000000e+00  1.000000e+00
    outer loop
      vertex   0.000000e+00  0.000000e+00  6.000000e+00
      vertex  -2.588190e-01 -4.157350e-01  6.000000e+00
      vertex  -1.654350e-01 -4.713969e-01  6.000000e+00
    endloop
  endfacet
  facet normal  0.000000e+00  0.000000e+00  1.000000e+00
    outer loop
      vertex   0.000000e+00  0.000000e+00  6.000000e+00
      vertex  -1.654350e-01 -4.713969e-01  6.000000e+00
      vertex  -5.226398e-02 -4.972610e-01  6.000000e+00
    endloop
  endfacet
  facet normal  0.000000e+00  0.000000e+00  1.000000e+00
    outer loop
      vertex   0.000000e+00  0.000000e+00  6.000000e+00
      vertex  -5.226398e-02 -4.972610e-01  6.000000e+00
      vertex   5.226398e-02 -4.972610e-01  6.000000e+00
    endloop
  endfacet
  facet normal  0.000000e+00  0.000000e+00  1.000000e+00
    outer loop
      vertex   0.000000e+00  0.000000e+00  6.000000e+00
      vertex   5.226398e-02 -4.972610e-01  6.000000e+00
      vertex   1.654351e-01 -4.713969e-01  6.000000e+00
    endloop
  endfacet
  facet normal  0.000000e+00  0.000000e+00  1.000000e+00
    outer loop
      vertex   0.000000e+00  0.000000e+00  6.000000e+00
      vertex   1.654351e-01 -4.713969e-01  6.000000e+00
      vertex   2.588191e-01 -4.157350e-01  6.000000e+00
    endloop
  endfacet
  facet normal  0.000000e+00  0.000000e+00  1.000000e+00
    outer loop
      vertex   0.000000e+00  0.000000e+00  6.000000e+00
      vertex   2.588191e-01 -4.157350e-01  6.000000e+00
      vertex   3.399179e-01 -3.660250e-01  6.000000e+00
    endloop
  endfacet
  facet normal  0.000000e+00  0.000000e+00  1.000000e+00
    outer loop
      vertex   0.000000e+00  0.000000e+00  6.000000e+00
      vertex   3.399179e-01 -3.660250e-01  6.000000e+00
      vertex   4.067371e-01 -2.938931e-01  6.000000e+00
    endloop
  endfacet
  facet normal  0.000000e+00  0.000000e+00  1.000000e+00
    outer loop
      vertex   0.000000e+00  0.000000e+00  6.000000e+00
      vertex   4.067371e-01 -2.938931e-01  6.000000e+00
      vertex   4.567730e-01 -2.033679e-01  6.000000e+00
    endloop
  endfacet
  facet normal  0.000000e+00  0.000000e+00  1.000000e+00
    outer loop
      vertex   0.000000e+00  0.000000e+00  6.000000e+00
      vertex   4.567730e-01 -2.033679e-01  6.000000e+00
      vertex   4.890740e-01 -1.039560e-01  6.000000e+00
    endloop
  endfacet
  facet normal -0.000000e+00  0.000000e+00  1.000000e+00
    outer loop
      vertex   0.000000e+00  0.000000e+00  6.000000e+00
      vertex   4.890740e-01 -1.039560e-01  6.000000e+00
      vertex   5.000000e-01  0.000000e+00  6.000000e+00
    endloop
  endfacet
  facet normal  9.945220e-01 -1.045265e-01  0.000000e+00
    outer loop
      vertex   5.000000e-01  0.000000e+00  0.000000e+00
      vertex   5.000000e-01  0.000000e+00  6.000000e+00
      vertex   4.890740e-01 -1.039560e-01  6.000000e+00
    endloop
  endfacet
  facet normal  9.945220e-01 -1.045265e-01  0.000000e+00
    outer loop
      vertex   5.000000e-01  0.000000e+00  0.000000e+00
      vertex   4.890740e-01 -1.039560e-01  6.000000e+00
      vertex   4.890740e-01 -1.039560e-01  0.000000e+00
    endloop
  endfacet
  facet normal  9.510564e-01 -3.090174e-01  0.000000e+00
    outer loop
      vertex   4.890740e-01 -1.039560e-01  0.000000e+00
      vertex   4.890740e-01 -1.039560e-01  6.000000e+00
      vertex   4.567730e-01 -2.033679e-01  6.000000e+00
    endloop
  endfacet
  facet normal  9.510564e-01 -3.090174e-01  0.000000e+00
    outer loop
      vertex   4.890740e-01 -1.039560e-01  0.000000e+00
      vertex   4.567730e-01 -2.033679e-01  6.000000e+00
      vertex   4.567730e-01 -2.033679e-01  0.000000e+00
    endloop
  endfacet
  facet normal  8.752051e-01 -4.837520e-01  0.000000e+00
    outer loop
      vertex   4.567730e-01 -2.033679e-01  0.000000e+00
      vertex   4.567730e-01 -2.033679e-01  6.000000e+00
      vertex   4.067371e-01 -2.938931e-01  6.000000e+00
    endloop
  endfacet
  facet normal  8.752051e-01 -4.837520e-01  0.000000e+00
    outer loop
      vertex   4.567730e-01 -2.033679e-01  0.000000e+00
      vertex   4.067371e-01 -2.938931e-01  6.000000e+00
      vertex   4.067371e-01 -2.938931e-01  0.000000e+00
    endloop
  endfacet
  facet normal  7.336065e-01 -6.795746e-01  0.000000e+00
    outer loop
      vertex   4.067371e-01 -2.938931e-01  0.000000e+00
      vertex   4.067371e-01 -2.938931e-01  6.000000e+00
      vertex   3.399179e-01 -3.660250e-01  6.000000e+00
    endloop
  endfacet
  facet normal  7.336065e-01 -6.795746e-01  0.000000e+00
    outer loop
      vertex   4.067371e-01 -2.938931e-01  0.000000e+00
      vertex   3.399179e-01 -3.660250e-01  6.000000e+00
      vertex   3.399179e-01 -3.660250e-01  0.000000e+00
    endloop
  endfacet
  facet normal  5.225951e-01 -8.525810e-01  0.000000e+00
    outer loop
      vertex   3.399179e-01 -3.660250e-01  0.000000e+00
      vertex   3.399179e-01 -3.660250e-01  6.000000e+00
      vertex   2.588191e-01 -4.157350e-01  6.000000e+00
    endloop
  endfacet
  facet normal  5.225951e-01 -8.525810e-01  0.000000e+00
    outer loop
      vertex   3.399179e-01 -3.660250e-01  0.000000e+00
      vertex   2.588191e-01 -4.157350e-01  6.000000e+00
      vertex   2.588191e-01 -4.157350e-01  0.000000e+00
    endloop
  endfacet
  facet normal  5.120012e-01 -8.589847e-01  0.000000e+00
    outer loop
      vertex   2.588191e-01 -4.157350e-01  0.000000e+00
      vertex   2.588191e-01 -4.157350e-01  6.000000e+00
      vertex   1.654351e-01 -4.713969e-01  6.000000e+00
    endloop
  endfacet
  facet normal  5.120012e-01 -8.589847e-01  0.000000e+00
    outer loop
      vertex   2.588191e-01 -4.157350e-01  0.000000e+00
      vertex   1.654351e-01 -4.713969e-01  6.000000e+00
      vertex   1.654351e-01 -4.713969e-01  0.000000e+00
    endloop
  endfacet
  facet normal  2.227957e-01 -9.748652e-01  0.000000e+00
    outer loop
      vertex   1.654351e-01 -4.713969e-01  0.000000e+00
      vertex   1.654351e-01 -4.713969e-01  6.000000e+00
      vertex   5.226398e-02 -4.972610e-01  6.000000e+00
    endloop
  endfacet
  facet normal  2.227957e-01 -9.748652e-01  0.000000e+00
    outer loop
      vertex   1.654351e-01 -4.713969e-01  0.000000e+00
      vertex   5.226398e-02 -4.972610e-01  6.000000e+00
      vertex   5.226398e-02 -4.972610e-01  0.000000e+00
    endloop
  endfacet
  facet normal  0.000000e+00 -1.000000e+00  0.000000e+00
    outer loop
      vertex   5.226398e-02 -4.972610e-01  0.000000e+00
      vertex   5.226398e-02 -4.972610e-01  6.000000e+00
      vertex  -5.226398e-02 -4.972610e-01  6.000000e+00
    endloop
  endfacet
  facet normal  0.000000e+00 -1.000000e+00  0.000000e+00
    outer loop
      vertex   5.226398e-02 -4.972610e-01  0.000000e+00
      vertex  -5.226398e-02 -4.972610e-01  6.000000e+00
      vertex  -5.226398e-02 -4.972610e-01  0.000000e+00
    endloop
  endfacet
  facet normal -2.227959e-01 -9.748651e-01  0.000000e+00
    outer loop
      vertex  -5.226398e-02 -4.972610e-01  0.000000e+00
      vertex  -5.226398e-02 -4.972610e-01  6.000000e+00
      vertex  -1.654350e-01 -4.713969e-01  6.000000e+00
    endloop
  endfacet
  facet normal -2.227959e-01 -9.748651e-01  0.000000e+00
    outer loop
      vertex  -5.226398e-02 -4.972610e-01  0.000000e+00
      vertex  -1.654350e-01 -4.713969e-01  6.000000e+00
      vertex  -1.654350e-01 -4.713969e-01  0.000000e+00
    endloop
  endfacet
  facet normal -5.120012e-01 -8.589847e-01  0.000000e+00
    outer loop
      vertex  -1.654350e-01 -4.713969e-01  0.000000e+00
      vertex  -1.654350e-01 -4.713969e-01  6.000000e+00
      vertex  -2.588190e-01 -4.157350e-01  6.000000e+00
    endloop
  endfacet
  facet normal -5.120012e-01 -8.589847e-01  0.000000e+00
    outer loop
      vertex  -1.654350e-01 -4.713969e-01  0.000000e+00
      vertex  -2.588190e-01 -4.157350e-01  6.000000e+00
      vertex  -2.588190e-01 -4.157350e-01  0.000000e+00
    endloop
  endfacet
  facet normal -5.225940e-01 -8.525817e-01  0.000000e+00
    outer loop
      vertex  -2.588190e-01 -4.157350e-01  0.000000e+00
      vertex  -2.588190e-01 -4.157350e-01  6.000000e+00
      vertex  -3.399180e-01 -3.660250e-01  6.000000e+00
    endloop
  endfacet
  facet normal -5.225940e-01 -8.525817e-01  0.000000e+00
    outer loop
      vertex  -2.588190e-01 -4.157350e-01  0.000000e+00
      vertex  -3.399180e-01 -3.660250e-01  6.000000e+00
      vertex  -3.399180e-01 -3.660250e-01  0.000000e+00
    endloop
  endfacet
  facet normal -7.336076e-01 -6.795733e-01  0.000000e+00
    outer loop
      vertex  -3.399180e-01 -3.660250e-01  0.000000e+00
      vertex  -3.399180e-01 -3.660250e-01  6.000000e+00
      vertex  -4.067370e-01 -2.938931e-01  6.000000e+00
    endloop
  endfacet
  facet normal -7.336076e-01 -6.795733e-01  0.000000e+00
    outer loop
      vertex  -3.399180e-01 -3.660250e-01  0.000000e+00
      vertex  -4.067370e-01 -2.938931e-01  6.000000e+00
      vertex  -4.067370e-01 -2.938931e-01  0.000000e+00
    endloop
  endfacet
  facet normal -8.752047e-01 -4.837529e-01  0.000000e+00
    outer loop
      vertex  -4.067370e-01 -2.938931e-01  0.000000e+00
      vertex  -4.067370e-01 -2.938931e-01  6.000000e+00
      vertex  -4.567730e-01 -2.033679e-01  6.000000e+00
    endloop
  endfacet
  facet normal -8.752047e-01 -4.837529e-01  0.000000e+00
    outer loop
      vertex  -4.067370e-01 -2.938931e-01  0.000000e+00
      vertex  -4.567730e-01 -2.033679e-01  6.000000e+00
      vertex  -4.567730e-01 -2.033679e-01  0.000000e+00
    endloop
  endfacet
  facet normal -9.510564e-01 -3.090174e-01  0.000000e+00
    outer loop
      vertex  -4.567730e-01 -2.033679e-01  0.000000e+00
      vertex  -4.567730e-01 -2.033679e-01  6.000000e+00
      vertex  -4.890740e-01 -1.039560e-01  6.000000e+00
    endloop
  endfacet
  facet normal -9.510564e-01 -3.090174e-01  0.000000e+00
    outer loop
      vertex  -4.567730e-01 -2.033679e-01  0.000000e+00
      vertex  -4.890740e-01 -1.039560e-01  6.000000e+00
      vertex  -4.890740e-01 -1.039560e-01  0.000000e+00
    endloop
  endfacet
  facet normal -9.945220e-01 -1.045265e-01  0.000000e+00
    outer loop
      vertex  -4.890740e-01 -1.039560e-01  0.000000e+00
      vertex  -4.890740e-01 -1.039560e-01  6.000000e+00
      vertex  -5.000000e-01  0.000000e+00  6.000000e+00
    endloop
  endfacet
  facet normal -9.945220e-01 -1.045265e-01  0.000000e+00
    outer loop
      vertex  -4.890740e-01 -1.039560e-01  0.000000e+00
      vertex  -5.000000e-01  0.000000e+00  6.000000e+00
      vertex  -5.000000e-01  0.000000e+00  0.000000e+00
    endloop
  endfacet
endsolid vcg
