solid STL generated by MeshLab
  facet normal  0.000000e+00  0.000000e+00  1.000000e+00
    outer loop
      vertex   0.000000e+00  0.000000e+00  0.000000e+00
      vertex   1.500000e+00  0.000000e+00  0.000000e+00
      vertex   1.467222e+00  3.118677e-01  0.000000e+00
    endloop
  endfacet
  facet normal  0.000000e+00  0.000000e+00  1.000000e+00
    outer loop
      vertex   0.000000e+00  0.000000e+00  0.000000e+00
      vertex   1.467222e+00  3.118677e-01  0.000000e+00
      vertex   1.370319e+00  6.101036e-01  0.000000e+00
    endloop
  endfacet
  facet normal  0.000000e+00  0.000000e+00  1.000000e+00
    outer loop
      vertex   0.000000e+00  0.000000e+00  0.000000e+00
      vertex   1.370319e+00  6.101036e-01  0.000000e+00
      vertex   1.220211e+00  8.816795e-01  0.000000e+00
    endloop
  endfacet
  facet normal  0.000000e+00  0.000000e+00  1.000000e+00
    outer loop
      vertex   0.000000e+00  0.000000e+00  0.000000e+00
      vertex   1.220211e+00  8.816795e-01  0.000000e+00
      vertex   1.019753e+00  1.098075e+00  0.000000e+00
    endloop
  endfacet
  facet normal  0.000000e+00  0.000000e+00  1.000000e+00
    outer loop
      vertex   0.000000e+00  0.000000e+00  0.000000e+00
      vertex   1.019753e+00  1.098075e+00  0.000000e+00
      vertex   7.764570e-01  1.247205e+00  0.000000e+00
    endloop
  endfacet
  facet normal  0.000000e+00  0.000000e+00  1.000000e+00
    outer loop
      vertex   0.000000e+00  0.000000e+00  0.000000e+00
      vertex   7.764570e-01  1.247205e+00  0.000000e+00
      vertex   4.963050e-01  1.414190e+00  0.000000e+00
    endloop
  endfacet
  facet normal  0.000000e+00  0.000000e+00  1.000000e+00
    outer loop
      vertex   0.000000e+00  0.000000e+00  0.000000e+00
      vertex   4.963050e-01  1.414190e+00  0.000000e+00
      vertex   1.567920e-01  1.491783e+00  0.000000e+00
    endloop
  endfacet
  facet normal  0.000000e+00 -0.000000e+00  1.000000e+00
    outer loop
      vertex   0.000000e+00  0.000000e+00  0.000000e+00
      vertex   1.567920e-01  1.491783e+00  0.000000e+00
      vertex  -1.567919e-01  1.491783e+00  0.000000e+00
    endloop
  endfacet
  facet normal  0.000000e+00  0.000000e+00  1.000000e+00
    outer loop
      vertex   0.000000e+00  0.000000e+00  0.000000e+00
      vertex  -1.567919e-01  1.491783e+00  0.000000e+00
      vertex  -4.963050e-01  1.414190e+00  0.000000e+00
    endloop
  endfacet
  facet normal  0.000000e+00  0.000000e+00  1.000000e+00
    outer loop
      vertex   0.000000e+00  0.000000e+00  0.000000e+00
      vertex  -4.963050e-01  1.414190e+00  0.000000e+00
      vertex  -7.764571e-01  1.247205e+00  0.000000e+00
    endloop
  endfacet
  facet normal  0.000000e+00  0.000000e+00  1.000000e+00
    outer loop
      vertex   0.000000e+00  0.000000e+00  0.000000e+00
      vertex  -7.764571e-01  1.247205e+00  0.000000e+00
      vertex  -1.019754e+00  1.098075e+00  0.000000e+00
    endloop
  endfacet
  facet normal  0.000000e+00  0.000000e+00  1.000000e+00
    outer loop
      vertex   0.000000e+00  0.000000e+00  0.000000e+00
      vertex  -1.019754e+00  1.098075e+00  0.000000e+00
      vertex  -1.220211e+00  8.816795e-01  0.000000e+00
    endloop
  endfacet
  facet normal  0.000000e+00  0.000000e+00  1.000000e+00
    outer loop
      vertex   0.000000e+00  0.000000e+00  0.000000e+00
      vertex  -1.220211e+00  8.816795e-01  0.000000e+00
      vertex  -1.370319e+00  6.101036e-01  0.000000e+00
    endloop
  endfacet
  facet normal  0.000000e+00  0.000000e+00  1.000000e+00
    outer loop
      vertex   0.000000e+00  0.000000e+00  0.000000e+00
      vertex  -1.370319e+00  6.101036e-01  0.000000e+00
      vertex  -1.467222e+00  3.118677e-01  0.000000e+00
    endloop
  endfacet
  facet normal  0.000000e+00  0.000000e+00  1.000000e+00
    outer loop
      vertex   0.000000e+00  0.000000e+00  0.000000e+00
      vertex  -1.467222e+00  3.118677e-01  0.000000e+00
      vertex  -1.500000e+00  0.000000e+00  0.000000e+00
    endloop
  endfacet
  facet normal  0.000000e+00  0.000000e+00  1.000000e+00
    outer loop
      vertex   0.000000e+00  0.000000e+00  3.000000e+00
      vertex   1.500000e+00  0.000000e+00  3.000000e+00
      vertex   1.467222e+00  3.118677e-01  3.000000e+00
    endloop
  endfacet
  facet normal  0.000000e+00  0.000000e+00  1.000000e+00
    outer loop
      vertex   0.000000e+00  0.000000e+00  3.000000e+00
      vertex   1.467222e+00  3.118677e-01  3.000000e+00
      vertex   1.370319e+00  6.101036e-01  3.000000e+00
    endloop
  endfacet
  facet normal  0.000000e+00  0.000000e+00  1.000000e+00
    outer loop
      vertex   0.000000e+00  0.000000e+00  3.000000e+00
      vertex   1.370319e+00  6.101036e-01  3.000000e+00
      vertex   1.220211e+00  8.816795e-01  3.000000e+00
    endloop
  endfacet
  facet normal  0.000000e+00  0.000000e+00  1.000000e+00
    outer loop
      vertex   0.000000e+00  0.000000e+00  3.000000e+00
      vertex   1.220211e+00  8.816795e-01  3.000000e+00
      vertex   1.019753e+00  1.098075e+00  3.000000e+00
    endloop
  endfacet
  facet normal  0.000000e+00  0.000000e+00  1.000000e+00
    outer loop
      vertex   0.000000e+00  0.000000e+00  3.000000e+00
      vertex   1.019753e+00  1.098075e+00  3.000000e+00
      vertex   7.764570e-01  1.247205e+00  3.000000e+00
    endloop
  endfacet
  facet normal  0.000000e+00  0.000000e+00  1.000000e+00
    outer loop
      vertex   0.000000e+00  0.000000e+00  3.000000e+00
      vertex   7.764570e-01  1.247205e+00  3.000000e+00
      vertex   4.963050e-01  1.414190e+00  3.000000e+00
    endloop
  endfacet
  facet normal  0.000000e+00  0.000000e+00  1.000000e+00
    outer loop
      vertex   0.000000e+00  0.000000e+00  3.000000e+00
      vertex   4.963050e-01  1.414190e+00  3.000000e+00
      vertex   1.567920e-01  1.491783e+00  3.000000e+00
    endloop
  endfacet
  facet normal  0.000000e+00 -0.000000e+00  1.000000e+00
    outer loop
      vertex   0.000000e+00  0.000000e+00  3.000000e+00
      vertex   1.567920e-01  1.491783e+00  3.000000e+00
      vertex  -1.567919e-01  1.491783e+00  3.000000e+00
    endloop
  endfacet
  facet normal  0.000000e+00  0.000000e+00  1.000000e+00
    outer loop
      vertex   0.000000e+00  0.000000e+00  3.000000e+00
      vertex  -1.567919e-01  1.491783e+00  3.000000e+00
      vertex  -4.963050e-01  1.414190e+00  3.000000e+00
    endloop
  endfacet
  facet normal  0.000000e+00  0.000000e+00  1.000000e+00
    outer loop
      vertex   0.000000e+00  0.000000e+00  3.000000e+00
      vertex  -4.963050e-01  1.414190e+00  3.000000e+00
      vertex  -7.764571e-01  1.247205e+00  3.000000e+00
    endloop
  endfacet
  facet normal  0.000000e+00  0.000000e+00  1.000000e+00
    outer loop
      vertex   0.000000e+00  0.000000e+00  3.000000e+00
      vertex  -7.764571e-01  1.247205e+00  3.000000e+00
      vertex  -1.019754e+00  1.098075e+00  3.000000e+00
    endloop
  endfacet
  facet normal  0.000000e+00  0.000000e+00  1.000000e+00
    outer loop
      vertex   0.000000e+00  0.000000e+00  3.000000e+00
      vertex  -1.019754e+00  1.098075e+00  3.000000e+00
      vertex  -1.220211e+00  8.816795e-01  3.000000e+00
    endloop
  endfacet
  facet normal  0.000000e+00  0.000000e+00  1.000000e+00
    outer loop
      vertex   0.000000e+00  0.000000e+00  3.000000e+00
      vertex  -1.220211e+00  8.816795e-01  3.000000e+00
      vertex  -1.370319e+00  6.101036e-01  3.000000e+00
    endloop
  endfacet
  facet normal  0.000000e+00  0.000000e+00  1.000000e+00
    outer loop
      vertex   0.000000e+00  0.000000e+00  3.000000e+00
      vertex  -1.370319e+00  6.101036e-01  3.000000e+00
      vertex  -1.467222e+00  3.118677e-01  3.000000e+00
    endloop
  endfacet
  facet normal  0.000000e+00  0.000000e+00  1.000000e+00
    outer loop
      vertex   0.000000e+00  0.000000e+00  3.000000e+00
      vertex  -1.467222e+00  3.118677e-01  3.000000e+00
      vertex  -1.500000e+00  0.000000e+00  3.000000e+00
    endloop
  endfacet
  facet normal -9.945221e-01  1.045266e-01  0.000000e+00
    outer loop
      vertex  -1.500000e+00  0.000000e+00  0.000000e+00
      vertex  -1.500000e+00  0.000000e+00  3.000000e+00
      vertex  -1.467222e+00  3.118677e-01  3.000000e+00
    endloop
  endfacet
  facet normal -9.945221e-01  1.045266e-01  0.000000e+00
    outer loop
      vertex  -1.500000e+00  0.000000e+00  0.000000e+00
      vertex  -1.467222e+00  3.118677e-01  3.000000e+00
      vertex  -1.467222e+00  3.118677e-01  0.000000e+00
    endloop
  endfacet
  facet normal -9.510562e-01  3.090181e-01  0.000000e+00
    outer loop
      vertex  -1.467222e+00  3.118677e-01  0.000000e+00
      vertex  -1.467222e+00  3.118677e-01  3.000000e+00
      vertex  -1.370319e+00  6.101036e-01  3.000000e+00
    endloop
  endfacet
  facet normal -9.510562e-01  3.090181e-01  0.000000e+00
    outer loop
      vertex  -1.467222e+00  3.118677e-01  0.000000e+00
      vertex  -1.370319e+00  6.101036e-01  3.000000e+00
      vertex  -1.370319e+00  6.101036e-01  0.000000e+00
    endloop
  endfacet
  facet normal -8.752055e-01  4.837514e-01  0.000000e+00
    outer loop
      vertex  -1.370319e+00  6.101036e-01  0.000000e+00
      vertex  -1.370319e+00  6.101036e-01  3.000000e+00
      vertex  -1.220211e+00  8.816795e-01  3.000000e+00
    endloop
  endfacet
  facet normal -8.752055e-01  4.837514e-01  0.000000e+00
    outer loop
      vertex  -1.370319e+00  6.101036e-01  0.000000e+00
      vertex  -1.220211e+00  8.816795e-01  3.000000e+00
      vertex  -1.220211e+00  8.816795e-01  0.000000e+00
    endloop
  endfacet
  facet normal -7.336069e-01  6.795740e-01  0.000000e+00
    outer loop
      vertex  -1.220211e+00  8.816795e-01  0.000000e+00
      vertex  -1.220211e+00  8.816795e-01  3.000000e+00
      vertex  -1.019754e+00  1.098075e+00  3.000000e+00
    endloop
  endfacet
  facet normal -7.336069e-01  6.795740e-01  0.000000e+00
    outer loop
      vertex  -1.220211e+00  8.816795e-01  0.000000e+00
      vertex  -1.019754e+00  1.098075e+00  3.000000e+00
      vertex  -1.019754e+00  1.098075e+00  0.000000e+00
    endloop
  endfacet
  facet normal -5.225937e-01  8.525818e-01  0.000000e+00
    outer loop
      vertex  -1.019754e+00  1.098075e+00  0.000000e+00
      vertex  -1.019754e+00  1.098075e+00  3.000000e+00
      vertex  -7.764571e-01  1.247205e+00  3.000000e+00
    endloop
  endfacet
  facet normal -5.225937e-01  8.525818e-01  0.000000e+00
    outer loop
      vertex  -1.019754e+00  1.098075e+00  0.000000e+00
      vertex  -7.764571e-01  1.247205e+00  3.000000e+00
      vertex  -7.764571e-01  1.247205e+00  0.000000e+00
    endloop
  endfacet
  facet normal -5.120007e-01  8.589851e-01  0.000000e+00
    outer loop
      vertex  -7.764571e-01  1.247205e+00  0.000000e+00
      vertex  -7.764571e-01  1.247205e+00  3.000000e+00
      vertex  -4.963050e-01  1.414190e+00  3.000000e+00
    endloop
  endfacet
  facet normal -5.120007e-01  8.589851e-01  0.000000e+00
    outer loop
      vertex  -7.764571e-01  1.247205e+00  0.000000e+00
      vertex  -4.963050e-01  1.414190e+00  3.000000e+00
      vertex  -4.963050e-01  1.414190e+00  0.000000e+00
    endloop
  endfacet
  facet normal -2.227971e-01  9.748648e-01  0.000000e+00
    outer loop
      vertex  -4.963050e-01  1.414190e+00  0.000000e+00
      vertex  -4.963050e-01  1.414190e+00  3.000000e+00
      vertex  -1.567919e-01  1.491783e+00  3.000000e+00
    endloop
  endfacet
  facet normal -2.227971e-01  9.748648e-01  0.000000e+00
    outer loop
      vertex  -4.963050e-01  1.414190e+00  0.000000e+00
      vertex  -1.567919e-01  1.491783e+00  3.000000e+00
      vertex  -1.567919e-01  1.491783e+00  0.000000e+00
    endloop
  endfacet
  facet normal  0.000000e+00  1.000000e+00  0.000000e+00
    outer loop
      vertex  -1.567919e-01  1.491783e+00  0.000000e+00
      vertex  -1.567919e-01  1.491783e+00  3.000000e+00
      vertex   1.567920e-01  1.491783e+00  3.000000e+00
    endloop
  endfacet
  facet normal  0.000000e+00  1.000000e+00  0.000000e+00
    outer loop
      vertex  -1.567919e-01  1.491783e+00  0.000000e+00
      vertex   1.567920e-01  1.491783e+00  3.000000e+00
      vertex   1.567920e-01  1.491783e+00  0.000000e+00
    endloop
  endfacet
  facet normal  2.227972e-01  9.748648e-01 -0.000000e+00
    outer loop
      vertex   1.567920e-01  1.491783e+00  0.000000e+00
      vertex   1.567920e-01  1.491783e+00  3.000000e+00
      vertex   4.963050e-01  1.414190e+00  3.000000e+00
    endloop
  endfacet
  facet normal  2.227972e-01  9.748648e-01  0.000000e+00
    outer loop
      vertex   1.567920e-01  1.491783e+00  0.000000e+00
      vertex   4.963050e-01  1.414190e+00  3.000000e+00
      vertex   4.963050e-01  1.414190e+00  0.000000e+00
    endloop
  endfacet
  facet normal  5.120009e-01  8.589849e-01 -0.000000e+00
    outer loop
      vertex   4.963050e-01  1.414190e+00  0.000000e+00
      vertex   4.963050e-01  1.414190e+00  3.000000e+00
      vertex   7.764570e-01  1.247205e+00  3.000000e+00
    endloop
  endfacet
  facet normal  5.120009e-01  8.589849e-01  0.000000e+00
    outer loop
      vertex   4.963050e-01  1.414190e+00  0.000000e+00
      vertex   7.764570e-01  1.247205e+00  3.000000e+00
      vertex   7.764570e-01  1.247205e+00  0.000000e+00
    endloop
  endfacet
  facet normal  5.225943e-01  8.525815e-01 -0.000000e+00
    outer loop
      vertex   7.764570e-01  1.247205e+00  0.000000e+00
      vertex   7.764570e-01  1.247205e+00  3.000000e+00
      vertex   1.019753e+00  1.098075e+00  3.000000e+00
    endloop
  endfacet
  facet normal  5.225943e-01  8.525815e-01  0.000000e+00
    outer loop
      vertex   7.764570e-01  1.247205e+00  0.000000e+00
      vertex   1.019753e+00  1.098075e+00  3.000000e+00
      vertex   1.019753e+00  1.098075e+00  0.000000e+00
    endloop
  endfacet
  facet normal  7.336061e-01  6.795748e-01 -0.000000e+00
    outer loop
      vertex   1.019753e+00  1.098075e+00  0.000000e+00
      vertex   1.019753e+00  1.098075e+00  3.000000e+00
      vertex   1.220211e+00  8.816795e-01  3.000000e+00
    endloop
  endfacet
  facet normal  7.336061e-01  6.795748e-01  0.000000e+00
    outer loop
      vertex   1.019753e+00  1.098075e+00  0.000000e+00
      vertex   1.220211e+00  8.816795e-01  3.000000e+00
      vertex   1.220211e+00  8.816795e-01  0.000000e+00
    endloop
  endfacet
  facet normal  8.752048e-01  4.837526e-01 -0.000000e+00
    outer loop
      vertex   1.220211e+00  8.816795e-01  0.000000e+00
      vertex   1.220211e+00  8.816795e-01  3.000000e+00
      vertex   1.370319e+00  6.101036e-01  3.000000e+00
    endloop
  endfacet
  facet normal  8.752048e-01  4.837526e-01  0.000000e+00
    outer loop
      vertex   1.220211e+00  8.816795e-01  0.000000e+00
      vertex   1.370319e+00  6.101036e-01  3.000000e+00
      vertex   1.370319e+00  6.101036e-01  0.000000e+00
    endloop
  endfacet
  facet normal  9.510564e-01  3.090174e-01 -0.000000e+00
    outer loop
      vertex   1.370319e+00  6.101036e-01  0.000000e+00
      vertex   1.370319e+00  6.101036e-01  3.000000e+00
      vertex   1.467222e+00  3.118677e-01  3.000000e+00
    endloop
  endfacet
  facet normal  9.510564e-01  3.090174e-01  0.000000e+00
    outer loop
      vertex   1.370319e+00  6.101036e-01  0.000000e+00
      vertex   1.467222e+00  3.118677e-01  3.000000e+00
      vertex   1.467222e+00  3.118677e-01  0.000000e+00
    endloop
  endfacet
  facet normal  9.945222e-01  1.045258e-01 -0.000000e+00
    outer loop
      vertex   1.467222e+00  3.118677e-01  0.000000e+00
      vertex   1.467222e+00  3.118677e-01  3.000000e+00
      vertex   1.500000e+00  0.000000e+00  3.000000e+00
    endloop
  endfacet
  facet normal  9.945222e-01  1.045258e-01  0.000000e+00
    outer loop
      vertex   1.467222e+00  3.118677e-01  0.000000e+00
      vertex   1.500000e+00  0.000000e+00  3.000000e+00
      vertex   1.500000e+00  0.000000e+00  0.000000e+00
    endloop
  endfacet
  facet normal  0.000000e+00  0.000000e+00  1.000000e+00
    outer loop
      vertex   0.000000e+00  0.000000e+00  0.000000e+00
      vertex  -1.500000e+00  0.000000e+00  0.000000e+00
      vertex  -1.467222e+00 -3.118680e-01  0.000000e+00
    endloop
  endfacet
  facet normal  0.000000e+00  0.000000e+00  1.000000e+00
    outer loop
      vertex   0.000000e+00  0.000000e+00  0.000000e+00
      vertex  -1.467222e+00 -3.118680e-01  0.000000e+00
      vertex  -1.370319e+00 -6.101040e-01  0.000000e+00
    endloop
  endfacet
  facet normal  0.000000e+00  0.000000e+00  1.000000e+00
    outer loop
      vertex   0.000000e+00  0.000000e+00  0.000000e+00
      vertex  -1.370319e+00 -6.101040e-01  0.000000e+00
      vertex  -1.220211e+00 -8.816800e-01  0.000000e+00
    endloop
  endfacet
  facet normal  0.000000e+00  0.000000e+00  1.000000e+00
    outer loop
      vertex   0.000000e+00  0.000000e+00  0.000000e+00
      vertex  -1.220211e+00 -8.816800e-01  0.000000e+00
      vertex  -1.019754e+00 -1.098075e+00  0.000000e+00
    endloop
  endfacet
  facet normal  0.000000e+00  0.000000e+00  1.000000e+00
    outer loop
      vertex   0.000000e+00  0.000000e+00  0.000000e+00
      vertex  -1.019754e+00 -1.098075e+00  0.000000e+00
      vertex  -7.764571e-01 -1.247205e+00  0.000000e+00
    endloop
  endfacet
  facet normal  0.000000e+00  0.000000e+00  1.000000e+00
    outer loop
      vertex   0.000000e+00  0.000000e+00  0.000000e+00
      vertex  -7.764571e-01 -1.247205e+00  0.000000e+00
      vertex  -4.963050e-01 -1.414191e+00  0.000000e+00
    endloop
  endfacet
  facet normal  0.000000e+00  0.000000e+00  1.000000e+00
    outer loop
      vertex   0.000000e+00  0.000000e+00  0.000000e+00
      vertex  -4.963050e-01 -1.414191e+00  0.000000e+00
      vertex  -1.567919e-01 -1.491783e+00  0.000000e+00
    endloop
  endfacet
  facet normal  0.000000e+00  0.000000e+00  1.000000e+00
    outer loop
      vertex   0.000000e+00  0.000000e+00  0.000000e+00
      vertex  -1.567919e-01 -1.491783e+00  0.000000e+00
      vertex   1.567920e-01 -1.491783e+00  0.000000e+00
    endloop
  endfacet
  facet normal  0.000000e+00  0.000000e+00  1.000000e+00
    outer loop
      vertex   0.000000e+00  0.000000e+00  0.000000e+00
      vertex   1.567920e-01 -1.491783e+00  0.000000e+00
      vertex   4.963050e-01 -1.414191e+00  0.000000e+00
    endloop
  endfacet
  facet normal  0.000000e+00  0.000000e+00  1.000000e+00
    outer loop
      vertex   0.000000e+00  0.000000e+00  0.000000e+00
      vertex   4.963050e-01 -1.414191e+00  0.000000e+00
      vertex   7.764570e-01 -1.247205e+00  0.000000e+00
    endloop
  endfacet
  facet normal  0.000000e+00  0.000000e+00  1.000000e+00
    outer loop
      vertex   0.000000e+00  0.000000e+00  0.000000e+00
      vertex   7.764570e-01 -1.247205e+00  0.000000e+00
      vertex   1.019753e+00 -1.098075e+00  0.000000e+00
    endloop
  endfacet
  facet normal  0.000000e+00  0.000000e+00  1.000000e+00
    outer loop
      vertex   0.000000e+00  0.000000e+00  0.000000e+00
      vertex   1.019753e+00 -1.098075e+00  0.000000e+00
      vertex   1.220211e+00 -8.816800e-01  0.000000e+00
    endloop
  endfacet
  facet normal  0.000000e+00  0.000000e+00  1.000000e+00
    outer loop
      vertex   0.000000e+00  0.000000e+00  0.000000e+00
      vertex   1.220211e+00 -8.816800e-01  0.000000e+00
      vertex   1.370319e+00 -6.101040e-01  0.000000e+00
    endloop
  endfacet
  facet normal  0.000000e+00  0.000000e+00  1.000000e+00
    outer loop
      vertex   0.000000e+00  0.000000e+00  0.000000e+00
      vertex   1.370319e+00 -6.101040e-01  0.000000e+00
      vertex   1.467222e+00 -3.118680e-01  0.000000e+00
    endloop
  endfacet
  facet normal -0.000000e+00  0.000000e+00  1.000000e+00
    outer loop
      vertex   0.000000e+00  0.000000e+00  0.000000e+00
      vertex   1.467222e+00 -3.118680e-01  0.000000e+00
      vertex   1.500000e+00  0.000000e+00  0.000000e+00
    endloop
  endfacet
  facet normal  0.000000e+00  0.000000e+00  1.000000e+00
    outer loop
      vertex   0.000000e+00  0.000000e+00  3.000000e+00
      vertex  -1.500000e+00  0.000000e+00  3.000000e+00
      vertex  -1.467222e+00 -3.118680e-01  3.000000e+00
    endloop
  endfacet
  facet normal  0.000000e+00  0.000000e+00  1.000000e+00
    outer loop
      vertex   0.000000e+00  0.000000e+00  3.000000e+00
      vertex  -1.467222e+00 -3.118680e-01  3.000000e+00
      vertex  -1.370319e+00 -6.101040e-01  3.000000e+00
    endloop
  endfacet
  facet normal  0.000000e+00  0.000000e+00  1.000000e+00
    outer loop
      vertex   0.000000e+00  0.000000e+00  3.000000e+00
      vertex  -1.370319e+00 -6.101040e-01  3.000000e+00
      vertex  -1.220211e+00 -8.816800e-01  3.000000e+00
    endloop
  endfacet
  facet normal  0.000000e+00  0.000000e+00  1.000000e+00
    outer loop
      vertex   0.000000e+00  0.000000e+00  3.000000e+00
      vertex  -1.220211e+00 -8.816800e-01  3.000000e+00
      vertex  -1.019754e+00 -1.098075e+00  3.000000e+00
    endloop
  endfacet
  facet normal  0.000000e+00  0.000000e+00  1.000000e+00
    outer loop
      vertex   0.000000e+00  0.000000e+00  3.000000e+00
      vertex  -1.019754e+00 -1.098075e+00  3.000000e+00
      vertex  -7.764571e-01 -1.247205e+00  3.000000e+00
    endloop
  endfacet
  facet normal  0.000000e+00  0.000000e+00  1.000000e+00
    outer loop
      vertex   0.000000e+00  0.000000e+00  3.000000e+00
      vertex  -7.764571e-01 -1.247205e+00  3.000000e+00
      vertex  -4.963050e-01 -1.414191e+00  3.000000e+00
    endloop
  endfacet
  facet normal  0.000000e+00  0.000000e+00  1.000000e+00
    outer loop
      vertex   0.000000e+00  0.000000e+00  3.000000e+00
      vertex  -4.963050e-01 -1.414191e+00  3.000000e+00
      vertex  -1.567919e-01 -1.491783e+00  3.000000e+00
    endloop
  endfacet
  facet normal  0.000000e+00  0.000000e+00  1.000000e+00
    outer loop
      vertex   0.000000e+00  0.000000e+00  3.000000e+00
      vertex  -1.567919e-01 -1.491783e+00  3.000000e+00
      vertex   1.567920e-01 -1.491783e+00  3.000000e+00
    endloop
  endfacet
  facet normal  0.000000e+00  0.000000e+00  1.000000e+00
    outer loop
      vertex   0.000000e+00  0.000000e+00  3.000000e+00
      vertex   1.567920e-01 -1.491783e+00  3.000000e+00
      vertex   4.963050e-01 -1.414191e+00  3.000000e+00
    endloop
  endfacet
  facet normal  0.000000e+00  0.000000e+00  1.000000e+00
    outer loop
      vertex   0.000000e+00  0.000000e+00  3.000000e+00
      vertex   4.963050e-01 -1.414191e+00  3.000000e+00
      vertex   7.764570e-01 -1.247205e+00  3.000000e+00
    endloop
  endfacet
  facet normal  0.000000e+00  0.000000e+00  1.000000e+00
    outer loop
      vertex   0.000000e+00  0.000000e+00  3.000000e+00
      vertex   7.764570e-01 -1.247205e+00  3.000000e+00
      vertex   1.019753e+00 -1.098075e+00  3.000000e+00
    endloop
  endfacet
  facet normal  0.000000e+00  0.000000e+00  1.000000e+00
    outer loop
      vertex   0.000000e+00  0.000000e+00  3.000000e+00
      vertex   1.019753e+00 -1.098075e+00  3.000000e+00
      vertex   1.220211e+00 -8.816800e-01  3.000000e+00
    endloop
  endfacet
  facet normal  0.000000e+00  0.000000e+00  1.000000e+00
    outer loop
      vertex   0.000000e+00  0.000000e+00  3.000000e+00
      vertex   1.220211e+00 -8.816800e-01  3.000000e+00
      vertex   1.370319e+00 -6.101040e-01  3.000000e+00
    endloop
  endfacet
  facet normal  0.000000e+00  0.000000e+00  1.000000e+00
    outer loop
      vertex   0.000000e+00  0.000000e+00  3.000000e+00
      vertex   1.370319e+00 -6.101040e-01  3.000000e+00
      vertex   1.467222e+00 -3.118680e-01  3.000000e+00
    endloop
  endfacet
  facet normal -0.000000e+00  0.000000e+00  1.000000e+00
    outer loop
      vertex   0.000000e+00  0.000000e+00  3.000000e+00
      vertex   1.467222e+00 -3.118680e-01  3.000000e+00
      vertex   1.500000e+00  0.000000e+00  3.000000e+00
    endloop
  endfacet
  facet normal  9.945222e-01 -1.045258e-01  0.000000e+00
    outer loop
      vertex   1.500000e+00  0.000000e+00  0.000000e+00
      vertex   1.500000e+00  0.000000e+00  3.000000e+00
      vertex   1.467222e+00 -3.118680e-01  3.000000e+00
    endloop
  endfacet
  facet normal  9.945222e-01 -1.045258e-01  0.000000e+00
    outer loop
      vertex   1.500000e+00  0.000000e+00  0.000000e+00
      vertex   1.467222e+00 -3.118680e-01  3.000000e+00
      vertex   1.467222e+00 -3.118680e-01  0.000000e+00
    endloop
  endfacet
  facet normal  9.510564e-01 -3.090173e-01  0.000000e+00
    outer loop
      vertex   1.467222e+00 -3.118680e-01  0.000000e+00
      vertex   1.467222e+00 -3.118680e-01  3.000000e+00
      vertex   1.370319e+00 -6.101040e-01  3.000000e+00
    endloop
  endfacet
  facet normal  9.510564e-01 -3.090173e-01  0.000000e+00
    outer loop
      vertex   1.467222e+00 -3.118680e-01  0.000000e+00
      vertex   1.370319e+00 -6.101040e-01  3.000000e+00
      vertex   1.370319e+00 -6.101040e-01  0.000000e+00
    endloop
  endfacet
  facet normal  8.752049e-01 -4.837524e-01  0.000000e+00
    outer loop
      vertex   1.370319e+00 -6.101040e-01  0.000000e+00
      vertex   1.370319e+00 -6.101040e-01  3.000000e+00
      vertex   1.220211e+00 -8.816800e-01  3.000000e+00
    endloop
  endfacet
  facet normal  8.752049e-01 -4.837524e-01  0.000000e+00
    outer loop
      vertex   1.370319e+00 -6.101040e-01  0.000000e+00
      vertex   1.220211e+00 -8.816800e-01  3.000000e+00
      vertex   1.220211e+00 -8.816800e-01  0.000000e+00
    endloop
  endfacet
  facet normal  7.336053e-01 -6.795758e-01  0.000000e+00
    outer loop
      vertex   1.220211e+00 -8.816800e-01  0.000000e+00
      vertex   1.220211e+00 -8.816800e-01  3.000000e+00
      vertex   1.019753e+00 -1.098075e+00  3.000000e+00
    endloop
  endfacet
  facet normal  7.336053e-01 -6.795758e-01  0.000000e+00
    outer loop
      vertex   1.220211e+00 -8.816800e-01  0.000000e+00
      vertex   1.019753e+00 -1.098075e+00  3.000000e+00
      vertex   1.019753e+00 -1.098075e+00  0.000000e+00
    endloop
  endfacet
  facet normal  5.225949e-01 -8.525811e-01  0.000000e+00
    outer loop
      vertex   1.019753e+00 -1.098075e+00  0.000000e+00
      vertex   1.019753e+00 -1.098075e+00  3.000000e+00
      vertex   7.764570e-01 -1.247205e+00  3.000000e+00
    endloop
  endfacet
  facet normal  5.225949e-01 -8.525811e-01  0.000000e+00
    outer loop
      vertex   1.019753e+00 -1.098075e+00  0.000000e+00
      vertex   7.764570e-01 -1.247205e+00  3.000000e+00
      vertex   7.764570e-01 -1.247205e+00  0.000000e+00
    endloop
  endfacet
  facet normal  5.120019e-01 -8.589843e-01  0.000000e+00
    outer loop
      vertex   7.764570e-01 -1.247205e+00  0.000000e+00
      vertex   7.764570e-01 -1.247205e+00  3.000000e+00
      vertex   4.963050e-01 -1.414191e+00  3.000000e+00
    endloop
  endfacet
  facet normal  5.120019e-01 -8.589843e-01  0.000000e+00
    outer loop
      vertex   7.764570e-01 -1.247205e+00  0.000000e+00
      vertex   4.963050e-01 -1.414191e+00  3.000000e+00
      vertex   4.963050e-01 -1.414191e+00  0.000000e+00
    endloop
  endfacet
  facet normal  2.227946e-01 -9.748654e-01  0.000000e+00
    outer loop
      vertex   4.963050e-01 -1.414191e+00  0.000000e+00
      vertex   4.963050e-01 -1.414191e+00  3.000000e+00
      vertex   1.567920e-01 -1.491783e+00  3.000000e+00
    endloop
  endfacet
  facet normal  2.227946e-01 -9.748654e-01  0.000000e+00
    outer loop
      vertex   4.963050e-01 -1.414191e+00  0.000000e+00
      vertex   1.567920e-01 -1.491783e+00  3.000000e+00
      vertex   1.567920e-01 -1.491783e+00  0.000000e+00
    endloop
  endfacet
  facet normal  0.000000e+00 -1.000000e+00  0.000000e+00
    outer loop
      vertex   1.567920e-01 -1.491783e+00  0.000000e+00
      vertex   1.567920e-01 -1.491783e+00  3.000000e+00
      vertex  -1.567919e-01 -1.491783e+00  3.000000e+00
    endloop
  endfacet
  facet normal  0.000000e+00 -1.000000e+00  0.000000e+00
    outer loop
      vertex   1.567920e-01 -1.491783e+00  0.000000e+00
      vertex  -1.567919e-01 -1.491783e+00  3.000000e+00
      vertex  -1.567919e-01 -1.491783e+00  0.000000e+00
    endloop
  endfacet
  facet normal -2.227945e-01 -9.748654e-01  0.000000e+00
    outer loop
      vertex  -1.567919e-01 -1.491783e+00  0.000000e+00
      vertex  -1.567919e-01 -1.491783e+00  3.000000e+00
      vertex  -4.963050e-01 -1.414191e+00  3.000000e+00
    endloop
  endfacet
  facet normal -2.227945e-01 -9.748654e-01  0.000000e+00
    outer loop
      vertex  -1.567919e-01 -1.491783e+00  0.000000e+00
      vertex  -4.963050e-01 -1.414191e+00  3.000000e+00
      vertex  -4.963050e-01 -1.414191e+00  0.000000e+00
    endloop
  endfacet
  facet normal -5.120018e-01 -8.589844e-01  0.000000e+00
    outer loop
      vertex  -4.963050e-01 -1.414191e+00  0.000000e+00
      vertex  -4.963050e-01 -1.414191e+00  3.000000e+00
      vertex  -7.764571e-01 -1.247205e+00  3.000000e+00
    endloop
  endfacet
  facet normal -5.120018e-01 -8.589844e-01  0.000000e+00
    outer loop
      vertex  -4.963050e-01 -1.414191e+00  0.000000e+00
      vertex  -7.764571e-01 -1.247205e+00  3.000000e+00
      vertex  -7.764571e-01 -1.247205e+00  0.000000e+00
    endloop
  endfacet
  facet normal -5.225943e-01 -8.525814e-01  0.000000e+00
    outer loop
      vertex  -7.764571e-01 -1.247205e+00  0.000000e+00
      vertex  -7.764571e-01 -1.247205e+00  3.000000e+00
      vertex  -1.019754e+00 -1.098075e+00  3.000000e+00
    endloop
  endfacet
  facet normal -5.225943e-01 -8.525814e-01  0.000000e+00
    outer loop
      vertex  -7.764571e-01 -1.247205e+00  0.000000e+00
      vertex  -1.019754e+00 -1.098075e+00  3.000000e+00
      vertex  -1.019754e+00 -1.098075e+00  0.000000e+00
    endloop
  endfacet
  facet normal -7.336061e-01 -6.795750e-01  0.000000e+00
    outer loop
      vertex  -1.019754e+00 -1.098075e+00  0.000000e+00
      vertex  -1.019754e+00 -1.098075e+00  3.000000e+00
      vertex  -1.220211e+00 -8.816800e-01  3.000000e+00
    endloop
  endfacet
  facet normal -7.336061e-01 -6.795750e-01  0.000000e+00
    outer loop
      vertex  -1.019754e+00 -1.098075e+00  0.000000e+00
      vertex  -1.220211e+00 -8.816800e-01  3.000000e+00
      vertex  -1.220211e+00 -8.816800e-01  0.000000e+00
    endloop
  endfacet
  facet normal -8.752055e-01 -4.837512e-01  0.000000e+00
    outer loop
      vertex  -1.220211e+00 -8.816800e-01  0.000000e+00
      vertex  -1.220211e+00 -8.816800e-01  3.000000e+00
      vertex  -1.370319e+00 -6.101040e-01  3.000000e+00
    endloop
  endfacet
  facet normal -8.752055e-01 -4.837512e-01  0.000000e+00
    outer loop
      vertex  -1.220211e+00 -8.816800e-01  0.000000e+00
      vertex  -1.370319e+00 -6.101040e-01  3.000000e+00
      vertex  -1.370319e+00 -6.101040e-01  0.000000e+00
    endloop
  endfacet
  facet normal -9.510562e-01 -3.090180e-01  0.000000e+00
    outer loop
      vertex  -1.370319e+00 -6.101040e-01  0.000000e+00
      vertex  -1.370319e+00 -6.101040e-01  3.000000e+00
      vertex  -1.467222e+00 -3.118680e-01  3.000000e+00
    endloop
  endfacet
  facet normal -9.510562e-01 -3.090180e-01  0.000000e+00
    outer loop
      vertex  -1.370319e+00 -6.101040e-01  0.000000e+00
      vertex  -1.467222e+00 -3.118680e-01  3.000000e+00
      vertex  -1.467222e+00 -3.118680e-01  0.000000e+00
    endloop
  endfacet
  facet normal -9.945221e-01 -1.045265e-01  0.000000e+00
    outer loop
      vertex  -1.467222e+00 -3.118680e-01  0.000000e+00
      vertex  -1.467222e+00 -3.118680e-01  3.000000e+00
      vertex  -1.500000e+00  0.000000e+00  3.000000e+00
    endloop
  endfacet
  facet normal -9.945221e-01 -1.045265e-01  0.000000e+00
    outer loop
      vertex  -1.467222e+00 -3.118680e-01  0.000000e+00
      vertex  -1.500000e+00  0.000000e+00  3.000000e+00
      vertex  -1.500000e+00  0.000000e+00  0.000000e+00
    endloop
  endfacet
endsolid vcg
