solid STL generated by MeshLab
  facet normal  1.000000e+00  0.000000e+00  0.000000e+00
    outer loop
      vertex   9.999990e-02 -9.999990e-02  0.000000e+00
      vertex   9.999990e-02  9.999990e-02  0.000000e+00
      vertex   9.999990e-02  9.999990e-02  2.673205e+00
    endloop
  endfacet
  facet normal  1.000000e+00  0.000000e+00  0.000000e+00
    outer loop
      vertex   9.999990e-02 -9.999990e-02  0.000000e+00
      vertex   9.999990e-02  9.999990e-02  2.673205e+00
      vertex   9.999990e-02 -9.999990e-02  2.673205e+00
    endloop
  endfacet
  facet normal  1.000000e+00  0.000000e+00  0.000000e+00
    outer loop
      vertex  -1.000000e-01 -9.999990e-02  0.000000e+00
      vertex  -1.000000e-01  9.999990e-02  0.000000e+00
      vertex  -1.000000e-01  9.999990e-02  2.326795e+00
    endloop
  endfacet
  facet normal  1.000000e+00  0.000000e+00  0.000000e+00
    outer loop
      vertex  -1.000000e-01 -9.999990e-02  0.000000e+00
      vertex  -1.000000e-01  9.999990e-02  2.326795e+00
      vertex  -1.000000e-01 -9.999990e-02  2.326795e+00
    endloop
  endfacet
  facet normal  0.000000e+00 -1.000000e+00  0.000000e+00
    outer loop
      vertex  -1.000000e-01 -9.999990e-02  0.000000e+00
      vertex   9.999990e-02 -9.999990e-02  0.000000e+00
      vertex   9.999990e-02 -9.999990e-02  2.673205e+00
    endloop
  endfacet
  facet normal  0.000000e+00 -1.000000e+00  0.000000e+00
    outer loop
      vertex  -1.000000e-01 -9.999990e-02  0.000000e+00
      vertex   9.999990e-02 -9.999990e-02  2.673205e+00
      vertex  -1.000000e-01 -9.999990e-02  2.326795e+00
    endloop
  endfacet
  facet normal  0.000000e+00 -1.000000e+00  0.000000e+00
    outer loop
      vertex  -1.000000e-01  9.999990e-02  0.000000e+00
      vertex   9.999990e-02  9.999990e-02  0.000000e+00
      vertex   9.999990e-02  9.999990e-02  2.673205e+00
    endloop
  endfacet
  facet normal  0.000000e+00 -1.000000e+00  0.000000e+00
    outer loop
      vertex  -1.000000e-01  9.999990e-02  0.000000e+00
      vertex   9.999990e-02  9.999990e-02  2.673205e+00
      vertex  -1.000000e-01  9.999990e-02  2.326795e+00
    endloop
  endfacet
  facet normal  0.000000e+00  0.000000e+00 -1.000000e+00
    outer loop
      vertex  -1.000000e-01 -9.999990e-02  0.000000e+00
      vertex  -1.000000e-01  9.999990e-02  0.000000e+00
      vertex   9.999990e-02  9.999990e-02  0.000000e+00
    endloop
  endfacet
  facet normal  0.000000e+00  0.000000e+00 -1.000000e+00
    outer loop
      vertex  -1.000000e-01 -9.999990e-02  0.000000e+00
      vertex   9.999990e-02  9.999990e-02  0.000000e+00
      vertex   9.999990e-02 -9.999990e-02  0.000000e+00
    endloop
  endfacet
  facet normal -8.660253e-01  0.000000e+00  5.000003e-01
    outer loop
      vertex   9.999990e-02  9.999990e-02  2.673205e+00
      vertex  -1.000000e-01  9.999990e-02  2.326795e+00
      vertex  -1.000000e-01 -9.999990e-02  2.326795e+00
    endloop
  endfacet
  facet normal -8.660253e-01  0.000000e+00  5.000003e-01
    outer loop
      vertex   9.999990e-02  9.999990e-02  2.673205e+00
      vertex  -1.000000e-01 -9.999990e-02  2.326795e+00
      vertex   9.999990e-02 -9.999990e-02  2.673205e+00
    endloop
  endfacet
  facet normal -8.660254e-01  0.000000e+00  5.000001e-01
    outer loop
      vertex   8.660293e-02  0.000000e+00  2.650000e+00
      vertex   8.366029e-01 -4.019239e-01  3.949038e+00
      vertex   8.366029e-01  4.019239e-01  3.949038e+00
    endloop
  endfacet
  facet normal  8.660251e-01  0.000000e+00 -5.000005e-01
    outer loop
      vertex   8.660293e-02  0.000000e+00  2.650000e+00
      vertex  -6.633980e-01 -4.019239e-01  1.350962e+00
      vertex  -6.633980e-01  4.019239e-01  1.350962e+00
    endloop
  endfacet
  facet normal -8.660254e-01  4.943283e-08  5.000001e-01
    outer loop
      vertex   8.660293e-02  0.000000e+00  2.650000e+00
      vertex   8.366029e-01  4.019239e-01  3.949038e+00
      vertex   6.356411e-01  1.098076e+00  3.600962e+00
    endloop
  endfacet
  facet normal  8.660250e-01  1.038089e-06 -5.000007e-01
    outer loop
      vertex   8.660293e-02  0.000000e+00  2.650000e+00
      vertex  -4.624350e-01 -1.098076e+00  1.699038e+00
      vertex  -6.633980e-01 -4.019239e-01  1.350962e+00
    endloop
  endfacet
  facet normal -8.660251e-01 -4.819694e-07  5.000005e-01
    outer loop
      vertex   8.660293e-02  0.000000e+00  2.650000e+00
      vertex   6.356411e-01  1.098076e+00  3.600962e+00
      vertex   2.875640e-01  1.500000e+00  2.998076e+00
    endloop
  endfacet
  facet normal  8.660256e-01 -1.606565e-07 -4.999997e-01
    outer loop
      vertex   8.660293e-02  0.000000e+00  2.650000e+00
      vertex  -1.143590e-01 -1.500000e+00  2.301924e+00
      vertex  -4.624350e-01 -1.098076e+00  1.699038e+00
    endloop
  endfacet
  facet normal -8.660256e-01 -2.039105e-07  4.999996e-01
    outer loop
      vertex   8.660293e-02  0.000000e+00  2.650000e+00
      vertex   2.875640e-01  1.500000e+00  2.998076e+00
      vertex  -1.143590e-01  1.500000e+00  2.301924e+00
    endloop
  endfacet
  facet normal  8.660256e-01 -2.039105e-07 -4.999996e-01
    outer loop
      vertex   8.660293e-02  0.000000e+00  2.650000e+00
      vertex   2.875640e-01 -1.500000e+00  2.998076e+00
      vertex  -1.143590e-01 -1.500000e+00  2.301924e+00
    endloop
  endfacet
  facet normal -8.660256e-01 -1.606565e-07  4.999996e-01
    outer loop
      vertex   8.660293e-02  0.000000e+00  2.650000e+00
      vertex  -1.143590e-01  1.500000e+00  2.301924e+00
      vertex  -4.624350e-01  1.098076e+00  1.699038e+00
    endloop
  endfacet
  facet normal  8.660251e-01 -4.819694e-07 -5.000005e-01
    outer loop
      vertex   8.660293e-02  0.000000e+00  2.650000e+00
      vertex   6.356411e-01 -1.098076e+00  3.600962e+00
      vertex   2.875640e-01 -1.500000e+00  2.998076e+00
    endloop
  endfacet
  facet normal -8.660250e-01  1.038089e-06  5.000007e-01
    outer loop
      vertex   8.660293e-02  0.000000e+00  2.650000e+00
      vertex  -4.624350e-01  1.098076e+00  1.699038e+00
      vertex  -6.633980e-01  4.019239e-01  1.350962e+00
    endloop
  endfacet
  facet normal  8.660254e-01  4.943282e-08 -5.000001e-01
    outer loop
      vertex   8.660293e-02  0.000000e+00  2.650000e+00
      vertex   8.366029e-01 -4.019239e-01  3.949038e+00
      vertex   6.356411e-01 -1.098076e+00  3.600962e+00
    endloop
  endfacet
  facet normal  4.999980e-01 -0.000000e+00  8.660266e-01
    outer loop
      vertex   6.633971e-01 -4.019239e-01  4.049038e+00
      vertex   8.366029e-01 -4.019239e-01  3.949038e+00
      vertex   6.633971e-01  4.019239e-01  4.049038e+00
    endloop
  endfacet
  facet normal  4.999980e-01  0.000000e+00  8.660266e-01
    outer loop
      vertex   6.633971e-01  4.019239e-01  4.049038e+00
      vertex   8.366029e-01 -4.019239e-01  3.949038e+00
      vertex   8.366029e-01  4.019239e-01  3.949038e+00
    endloop
  endfacet
  facet normal  4.999998e-01 -0.000000e+00  8.660256e-01
    outer loop
      vertex  -8.366030e-01 -4.019239e-01  1.450962e+00
      vertex  -6.633980e-01 -4.019239e-01  1.350962e+00
      vertex  -8.366030e-01  4.019239e-01  1.450962e+00
    endloop
  endfacet
  facet normal  4.999998e-01  0.000000e+00  8.660256e-01
    outer loop
      vertex  -8.366030e-01  4.019239e-01  1.450962e+00
      vertex  -6.633980e-01 -4.019239e-01  1.350962e+00
      vertex  -6.633980e-01  4.019239e-01  1.350962e+00
    endloop
  endfacet
  facet normal  4.330111e-01  4.999996e-01  7.500013e-01
    outer loop
      vertex   6.633971e-01  4.019239e-01  4.049038e+00
      vertex   8.366029e-01  4.019239e-01  3.949038e+00
      vertex   4.624360e-01  1.098076e+00  3.700962e+00
    endloop
  endfacet
  facet normal  4.330130e-01  5.000001e-01  7.499997e-01
    outer loop
      vertex   4.624360e-01  1.098076e+00  3.700962e+00
      vertex   8.366029e-01  4.019239e-01  3.949038e+00
      vertex   6.356411e-01  1.098076e+00  3.600962e+00
    endloop
  endfacet
  facet normal  4.330110e-01  5.000002e-01  7.500008e-01
    outer loop
      vertex  -6.356410e-01 -1.098076e+00  1.799038e+00
      vertex  -4.624350e-01 -1.098076e+00  1.699038e+00
      vertex  -8.366030e-01 -4.019239e-01  1.450962e+00
    endloop
  endfacet
  facet normal  4.330123e-01  5.000005e-01  7.499998e-01
    outer loop
      vertex  -8.366030e-01 -4.019239e-01  1.450962e+00
      vertex  -4.624350e-01 -1.098076e+00  1.699038e+00
      vertex  -6.633980e-01 -4.019239e-01  1.350962e+00
    endloop
  endfacet
  facet normal  2.500002e-01  8.660254e-01  4.330126e-01
    outer loop
      vertex   4.624360e-01  1.098076e+00  3.700962e+00
      vertex   6.356411e-01  1.098076e+00  3.600962e+00
      vertex   1.143589e-01  1.500000e+00  3.098076e+00
    endloop
  endfacet
  facet normal  2.500002e-01  8.660254e-01  4.330126e-01
    outer loop
      vertex   1.143589e-01  1.500000e+00  3.098076e+00
      vertex   6.356411e-01  1.098076e+00  3.600962e+00
      vertex   2.875640e-01  1.500000e+00  2.998076e+00
    endloop
  endfacet
  facet normal  2.499999e-01  8.660255e-01  4.330128e-01
    outer loop
      vertex  -2.875640e-01 -1.500000e+00  2.401924e+00
      vertex  -1.143590e-01 -1.500000e+00  2.301924e+00
      vertex  -6.356410e-01 -1.098076e+00  1.799038e+00
    endloop
  endfacet
  facet normal  2.499991e-01  8.660253e-01  4.330133e-01
    outer loop
      vertex  -6.356410e-01 -1.098076e+00  1.799038e+00
      vertex  -1.143590e-01 -1.500000e+00  2.301924e+00
      vertex  -4.624350e-01 -1.098076e+00  1.699038e+00
    endloop
  endfacet
  facet normal  0.000000e+00  1.000000e+00  0.000000e+00
    outer loop
      vertex   1.143589e-01  1.500000e+00  3.098076e+00
      vertex   2.875640e-01  1.500000e+00  2.998076e+00
      vertex  -2.875640e-01  1.500000e+00  2.401924e+00
    endloop
  endfacet
  facet normal -0.000000e+00  1.000000e+00  0.000000e+00
    outer loop
      vertex  -2.875640e-01  1.500000e+00  2.401924e+00
      vertex   2.875640e-01  1.500000e+00  2.998076e+00
      vertex  -1.143590e-01  1.500000e+00  2.301924e+00
    endloop
  endfacet
  facet normal  0.000000e+00  1.000000e+00  0.000000e+00
    outer loop
      vertex   1.143589e-01 -1.500000e+00  3.098076e+00
      vertex   2.875640e-01 -1.500000e+00  2.998076e+00
      vertex  -2.875640e-01 -1.500000e+00  2.401924e+00
    endloop
  endfacet
  facet normal -0.000000e+00  1.000000e+00  0.000000e+00
    outer loop
      vertex  -2.875640e-01 -1.500000e+00  2.401924e+00
      vertex   2.875640e-01 -1.500000e+00  2.998076e+00
      vertex  -1.143590e-01 -1.500000e+00  2.301924e+00
    endloop
  endfacet
  facet normal -2.500001e-01  8.660253e-01 -4.330131e-01
    outer loop
      vertex  -2.875640e-01  1.500000e+00  2.401924e+00
      vertex  -1.143590e-01  1.500000e+00  2.301924e+00
      vertex  -6.356400e-01  1.098076e+00  1.799038e+00
    endloop
  endfacet
  facet normal -2.500002e-01  8.660253e-01 -4.330128e-01
    outer loop
      vertex  -6.356400e-01  1.098076e+00  1.799038e+00
      vertex  -1.143590e-01  1.500000e+00  2.301924e+00
      vertex  -4.624350e-01  1.098076e+00  1.699038e+00
    endloop
  endfacet
  facet normal -2.499992e-01  8.660253e-01 -4.330133e-01
    outer loop
      vertex   4.624350e-01 -1.098076e+00  3.700962e+00
      vertex   6.356411e-01 -1.098076e+00  3.600962e+00
      vertex   1.143589e-01 -1.500000e+00  3.098076e+00
    endloop
  endfacet
  facet normal -2.500001e-01  8.660255e-01 -4.330125e-01
    outer loop
      vertex   1.143589e-01 -1.500000e+00  3.098076e+00
      vertex   6.356411e-01 -1.098076e+00  3.600962e+00
      vertex   2.875640e-01 -1.500000e+00  2.998076e+00
    endloop
  endfacet
  facet normal -4.330127e-01  5.000007e-01 -7.499996e-01
    outer loop
      vertex  -6.356400e-01  1.098076e+00  1.799038e+00
      vertex  -4.624350e-01  1.098076e+00  1.699038e+00
      vertex  -8.366030e-01  4.019239e-01  1.450962e+00
    endloop
  endfacet
  facet normal -4.330124e-01  5.000006e-01 -7.499998e-01
    outer loop
      vertex  -8.366030e-01  4.019239e-01  1.450962e+00
      vertex  -4.624350e-01  1.098076e+00  1.699038e+00
      vertex  -6.633980e-01  4.019239e-01  1.350962e+00
    endloop
  endfacet
  facet normal -4.330109e-01  4.999999e-01 -7.500010e-01
    outer loop
      vertex   6.633971e-01 -4.019239e-01  4.049038e+00
      vertex   8.366029e-01 -4.019239e-01  3.949038e+00
      vertex   4.624350e-01 -1.098076e+00  3.700962e+00
    endloop
  endfacet
  facet normal -4.330113e-01  5.000001e-01 -7.500008e-01
    outer loop
      vertex   4.624350e-01 -1.098076e+00  3.700962e+00
      vertex   8.366029e-01 -4.019239e-01  3.949038e+00
      vertex   6.356411e-01 -1.098076e+00  3.600962e+00
    endloop
  endfacet
  facet normal -8.660256e-01  0.000000e+00  4.999996e-01
    outer loop
      vertex  -8.660197e-02  0.000000e+00  2.750000e+00
      vertex   6.633971e-01 -4.019239e-01  4.049038e+00
      vertex   6.633971e-01  4.019239e-01  4.049038e+00
    endloop
  endfacet
  facet normal  8.660251e-01  0.000000e+00 -5.000005e-01
    outer loop
      vertex  -8.660197e-02  0.000000e+00  2.750000e+00
      vertex  -8.366030e-01 -4.019239e-01  1.450962e+00
      vertex  -8.366030e-01  4.019239e-01  1.450962e+00
    endloop
  endfacet
  facet normal -8.660257e-01  3.460299e-07  4.999995e-01
    outer loop
      vertex  -8.660197e-02  0.000000e+00  2.750000e+00
      vertex   6.633971e-01  4.019239e-01  4.049038e+00
      vertex   4.624360e-01  1.098076e+00  3.700962e+00
    endloop
  endfacet
  facet normal  8.660251e-01 -4.943279e-08 -5.000005e-01
    outer loop
      vertex  -8.660197e-02  0.000000e+00  2.750000e+00
      vertex  -6.356410e-01 -1.098076e+00  1.799038e+00
      vertex  -8.366030e-01 -4.019239e-01  1.450962e+00
    endloop
  endfacet
  facet normal -8.660251e-01 -6.797003e-07  5.000004e-01
    outer loop
      vertex  -8.660197e-02  0.000000e+00  2.750000e+00
      vertex   4.624360e-01  1.098076e+00  3.700962e+00
      vertex   1.143589e-01  1.500000e+00  3.098076e+00
    endloop
  endfacet
  facet normal  8.660250e-01  7.414914e-08 -5.000007e-01
    outer loop
      vertex  -8.660197e-02  0.000000e+00  2.750000e+00
      vertex  -2.875640e-01 -1.500000e+00  2.401924e+00
      vertex  -6.356410e-01 -1.098076e+00  1.799038e+00
    endloop
  endfacet
  facet normal -8.660259e-01 -3.460298e-07  4.999993e-01
    outer loop
      vertex  -8.660197e-02  0.000000e+00  2.750000e+00
      vertex   1.143589e-01  1.500000e+00  3.098076e+00
      vertex  -2.875640e-01  1.500000e+00  2.401924e+00
    endloop
  endfacet
  facet normal  8.660259e-01 -3.460298e-07 -4.999993e-01
    outer loop
      vertex  -8.660197e-02  0.000000e+00  2.750000e+00
      vertex   1.143589e-01 -1.500000e+00  3.098076e+00
      vertex  -2.875640e-01 -1.500000e+00  2.401924e+00
    endloop
  endfacet
  facet normal -8.660255e-01 -2.100893e-07  4.999998e-01
    outer loop
      vertex  -8.660197e-02  0.000000e+00  2.750000e+00
      vertex  -2.875640e-01  1.500000e+00  2.401924e+00
      vertex  -6.356400e-01  1.098076e+00  1.799038e+00
    endloop
  endfacet
  facet normal  8.660257e-01 -3.954623e-07 -4.999995e-01
    outer loop
      vertex  -8.660197e-02  0.000000e+00  2.750000e+00
      vertex   4.624350e-01 -1.098076e+00  3.700962e+00
      vertex   1.143589e-01 -1.500000e+00  3.098076e+00
    endloop
  endfacet
  facet normal -8.660250e-01  9.886559e-07  5.000007e-01
    outer loop
      vertex  -8.660197e-02  0.000000e+00  2.750000e+00
      vertex  -6.356400e-01  1.098076e+00  1.799038e+00
      vertex  -8.366030e-01  4.019239e-01  1.450962e+00
    endloop
  endfacet
  facet normal  8.660256e-01 -6.426267e-07 -4.999997e-01
    outer loop
      vertex  -8.660197e-02  0.000000e+00  2.750000e+00
      vertex   6.633971e-01 -4.019239e-01  4.049038e+00
      vertex   4.624350e-01 -1.098076e+00  3.700962e+00
    endloop
  endfacet
endsolid vcg
