solid STL generated by MeshLab
  facet normal -7.071069e-01  8.897915e-07  7.071066e-01
    outer loop
      vertex   0.000000e+00  0.000000e+00  2.500000e+00
      vertex   1.060659e+00 -4.019229e-01  3.560660e+00
      vertex   1.060660e+00  4.019239e-01  3.560660e+00
    endloop
  endfacet
  facet normal  7.071064e-01  0.000000e+00 -7.071072e-01
    outer loop
      vertex   0.000000e+00  0.000000e+00  2.500000e+00
      vertex  -1.060661e+00 -4.019240e-01  1.439340e+00
      vertex  -1.060661e+00  4.019239e-01  1.439340e+00
    endloop
  endfacet
  facet normal -7.071067e-01 -1.977313e-07  7.071068e-01
    outer loop
      vertex   0.000000e+00  0.000000e+00  2.500000e+00
      vertex   1.060660e+00  4.019239e-01  3.560660e+00
      vertex   7.764568e-01  1.098076e+00  3.276457e+00
    endloop
  endfacet
  facet normal  7.071062e-01  9.392232e-07 -7.071074e-01
    outer loop
      vertex   0.000000e+00  0.000000e+00  2.500000e+00
      vertex  -7.764568e-01 -1.098076e+00  1.723543e+00
      vertex  -1.060661e+00 -4.019240e-01  1.439340e+00
    endloop
  endfacet
  facet normal -7.071069e-01  6.179101e-08  7.071066e-01
    outer loop
      vertex   0.000000e+00  0.000000e+00  2.500000e+00
      vertex   7.764568e-01  1.098076e+00  3.276457e+00
      vertex   2.842031e-01  1.500000e+00  2.784203e+00
    endloop
  endfacet
  facet normal  7.071073e-01 -6.426266e-07 -7.071062e-01
    outer loop
      vertex   0.000000e+00  0.000000e+00  2.500000e+00
      vertex  -2.842040e-01 -1.500000e+00  2.215797e+00
      vertex  -7.764568e-01 -1.098076e+00  1.723543e+00
    endloop
  endfacet
  facet normal -7.071068e-01  0.000000e+00  7.071068e-01
    outer loop
      vertex   0.000000e+00  0.000000e+00  2.500000e+00
      vertex   2.842031e-01  1.500000e+00  2.784203e+00
      vertex  -2.842031e-01  1.500000e+00  2.215797e+00
    endloop
  endfacet
  facet normal  7.071062e-01 -2.286264e-07 -7.071074e-01
    outer loop
      vertex   0.000000e+00  0.000000e+00  2.500000e+00
      vertex   2.842031e-01 -1.500000e+00  2.784203e+00
      vertex  -2.842040e-01 -1.500000e+00  2.215797e+00
    endloop
  endfacet
  facet normal -7.071068e-01 -2.471640e-08  7.071066e-01
    outer loop
      vertex   0.000000e+00  0.000000e+00  2.500000e+00
      vertex  -2.842031e-01  1.500000e+00  2.215797e+00
      vertex  -7.764568e-01  1.098076e+00  1.723543e+00
    endloop
  endfacet
  facet normal  7.071069e-01  6.179099e-08 -7.071066e-01
    outer loop
      vertex   0.000000e+00  0.000000e+00  2.500000e+00
      vertex   7.764568e-01 -1.098076e+00  3.276457e+00
      vertex   2.842031e-01 -1.500000e+00  2.784203e+00
    endloop
  endfacet
  facet normal -7.071062e-01  9.392226e-07  7.071074e-01
    outer loop
      vertex   0.000000e+00  0.000000e+00  2.500000e+00
      vertex  -7.764568e-01  1.098076e+00  1.723543e+00
      vertex  -1.060661e+00  4.019239e-01  1.439340e+00
    endloop
  endfacet
  facet normal  7.071072e-01  3.954624e-07 -7.071063e-01
    outer loop
      vertex   0.000000e+00  0.000000e+00  2.500000e+00
      vertex   1.060659e+00 -4.019229e-01  3.560660e+00
      vertex   7.764568e-01 -1.098076e+00  3.276457e+00
    endloop
  endfacet
  facet normal  7.071121e-01 -0.000000e+00  7.071014e-01
    outer loop
      vertex   9.192390e-01 -4.019240e-01  3.702082e+00
      vertex   1.060659e+00 -4.019229e-01  3.560660e+00
      vertex   9.192390e-01  4.019239e-01  3.702082e+00
    endloop
  endfacet
  facet normal  7.071097e-01 -8.457645e-07  7.071038e-01
    outer loop
      vertex   9.192390e-01  4.019239e-01  3.702082e+00
      vertex   1.060659e+00 -4.019229e-01  3.560660e+00
      vertex   1.060660e+00  4.019239e-01  3.560660e+00
    endloop
  endfacet
  facet normal  7.071083e-01 -0.000000e+00  7.071053e-01
    outer loop
      vertex  -1.202082e+00 -4.019240e-01  1.580761e+00
      vertex  -1.060661e+00 -4.019240e-01  1.439340e+00
      vertex  -1.202082e+00  4.019229e-01  1.580761e+00
    endloop
  endfacet
  facet normal  7.071083e-01  0.000000e+00  7.071053e-01
    outer loop
      vertex  -1.202082e+00  4.019229e-01  1.580761e+00
      vertex  -1.060661e+00 -4.019240e-01  1.439340e+00
      vertex  -1.060661e+00  4.019239e-01  1.439340e+00
    endloop
  endfacet
  facet normal  6.123747e-01  5.000007e-01  6.123695e-01
    outer loop
      vertex   9.192390e-01  4.019239e-01  3.702082e+00
      vertex   1.060660e+00  4.019239e-01  3.560660e+00
      vertex   6.350360e-01  1.098076e+00  3.417878e+00
    endloop
  endfacet
  facet normal  6.123725e-01  5.000000e-01  6.123725e-01
    outer loop
      vertex   6.350360e-01  1.098076e+00  3.417878e+00
      vertex   1.060660e+00  4.019239e-01  3.560660e+00
      vertex   7.764568e-01  1.098076e+00  3.276457e+00
    endloop
  endfacet
  facet normal  6.123690e-01  4.999999e-01  6.123759e-01
    outer loop
      vertex  -9.178791e-01 -1.098076e+00  1.864964e+00
      vertex  -7.764568e-01 -1.098076e+00  1.723543e+00
      vertex  -1.202082e+00 -4.019240e-01  1.580761e+00
    endloop
  endfacet
  facet normal  6.123732e-01  5.000014e-01  6.123706e-01
    outer loop
      vertex  -1.202082e+00 -4.019240e-01  1.580761e+00
      vertex  -7.764568e-01 -1.098076e+00  1.723543e+00
      vertex  -1.060661e+00 -4.019240e-01  1.439340e+00
    endloop
  endfacet
  facet normal  3.535536e-01  8.660253e-01  3.535536e-01
    outer loop
      vertex   6.350360e-01  1.098076e+00  3.417878e+00
      vertex   7.764568e-01  1.098076e+00  3.276457e+00
      vertex   1.427822e-01  1.500000e+00  2.925624e+00
    endloop
  endfacet
  facet normal  3.535536e-01  8.660253e-01  3.535536e-01
    outer loop
      vertex   1.427822e-01  1.500000e+00  2.925624e+00
      vertex   7.764568e-01  1.098076e+00  3.276457e+00
      vertex   2.842031e-01  1.500000e+00  2.784203e+00
    endloop
  endfacet
  facet normal  3.535574e-01  8.660259e-01  3.535483e-01
    outer loop
      vertex  -4.256239e-01 -1.500000e+00  2.357219e+00
      vertex  -2.842040e-01 -1.500000e+00  2.215797e+00
      vertex  -9.178791e-01 -1.098076e+00  1.864964e+00
    endloop
  endfacet
  facet normal  3.535517e-01  8.660246e-01  3.535571e-01
    outer loop
      vertex  -9.178791e-01 -1.098076e+00  1.864964e+00
      vertex  -2.842040e-01 -1.500000e+00  2.215797e+00
      vertex  -7.764568e-01 -1.098076e+00  1.723543e+00
    endloop
  endfacet
  facet normal  0.000000e+00  1.000000e+00  0.000000e+00
    outer loop
      vertex   1.427822e-01  1.500000e+00  2.925624e+00
      vertex   2.842031e-01  1.500000e+00  2.784203e+00
      vertex  -4.256248e-01  1.500000e+00  2.357219e+00
    endloop
  endfacet
  facet normal -0.000000e+00  1.000000e+00  0.000000e+00
    outer loop
      vertex  -4.256248e-01  1.500000e+00  2.357219e+00
      vertex   2.842031e-01  1.500000e+00  2.784203e+00
      vertex  -2.842031e-01  1.500000e+00  2.215797e+00
    endloop
  endfacet
  facet normal  2.107348e-06  1.000000e+00 -2.107352e-06
    outer loop
      vertex   1.427822e-01 -1.500000e+00  2.925624e+00
      vertex   2.842031e-01 -1.500000e+00  2.784203e+00
      vertex  -4.256239e-01 -1.500000e+00  2.357219e+00
    endloop
  endfacet
  facet normal  2.107347e-06  1.000000e+00 -2.107350e-06
    outer loop
      vertex  -4.256239e-01 -1.500000e+00  2.357219e+00
      vertex   2.842031e-01 -1.500000e+00  2.784203e+00
      vertex  -2.842040e-01 -1.500000e+00  2.215797e+00
    endloop
  endfacet
  facet normal -3.535537e-01  8.660254e-01 -3.535532e-01
    outer loop
      vertex  -4.256248e-01  1.500000e+00  2.357219e+00
      vertex  -2.842031e-01  1.500000e+00  2.215797e+00
      vertex  -9.178782e-01  1.098076e+00  1.864964e+00
    endloop
  endfacet
  facet normal -3.535532e-01  8.660252e-01 -3.535541e-01
    outer loop
      vertex  -9.178782e-01  1.098076e+00  1.864964e+00
      vertex  -2.842031e-01  1.500000e+00  2.215797e+00
      vertex  -7.764568e-01  1.098076e+00  1.723543e+00
    endloop
  endfacet
  facet normal -3.535525e-01  8.660253e-01 -3.535547e-01
    outer loop
      vertex   6.350360e-01 -1.098076e+00  3.417878e+00
      vertex   7.764568e-01 -1.098076e+00  3.276457e+00
      vertex   1.427822e-01 -1.500000e+00  2.925624e+00
    endloop
  endfacet
  facet normal -3.535519e-01  8.660251e-01 -3.535556e-01
    outer loop
      vertex   1.427822e-01 -1.500000e+00  2.925624e+00
      vertex   7.764568e-01 -1.098076e+00  3.276457e+00
      vertex   2.842031e-01 -1.500000e+00  2.784203e+00
    endloop
  endfacet
  facet normal -6.123717e-01  4.999999e-01 -6.123732e-01
    outer loop
      vertex  -9.178782e-01  1.098076e+00  1.864964e+00
      vertex  -7.764568e-01  1.098076e+00  1.723543e+00
      vertex  -1.202082e+00  4.019229e-01  1.580761e+00
    endloop
  endfacet
  facet normal -6.123750e-01  5.000011e-01 -6.123691e-01
    outer loop
      vertex  -1.202082e+00  4.019229e-01  1.580761e+00
      vertex  -7.764568e-01  1.098076e+00  1.723543e+00
      vertex  -1.060661e+00  4.019239e-01  1.439340e+00
    endloop
  endfacet
  facet normal -6.123786e-01  5.000010e-01 -6.123655e-01
    outer loop
      vertex   9.192390e-01 -4.019240e-01  3.702082e+00
      vertex   1.060659e+00 -4.019229e-01  3.560660e+00
      vertex   6.350360e-01 -1.098076e+00  3.417878e+00
    endloop
  endfacet
  facet normal -6.123723e-01  4.999987e-01 -6.123735e-01
    outer loop
      vertex   6.350360e-01 -1.098076e+00  3.417878e+00
      vertex   1.060659e+00 -4.019229e-01  3.560660e+00
      vertex   7.764568e-01 -1.098076e+00  3.276457e+00
    endloop
  endfacet
  facet normal -7.071071e-01  0.000000e+00  7.071065e-01
    outer loop
      vertex  -1.414208e-01  0.000000e+00  2.641421e+00
      vertex   9.192390e-01 -4.019240e-01  3.702082e+00
      vertex   9.192390e-01  4.019239e-01  3.702082e+00
    endloop
  endfacet
  facet normal  7.071066e-01  0.000000e+00 -7.071071e-01
    outer loop
      vertex  -1.414208e-01  0.000000e+00  2.641421e+00
      vertex  -1.202082e+00 -4.019240e-01  1.580761e+00
      vertex  -1.202082e+00  4.019229e-01  1.580761e+00
    endloop
  endfacet
  facet normal -7.071072e-01  6.426262e-07  7.071063e-01
    outer loop
      vertex  -1.414208e-01  0.000000e+00  2.641421e+00
      vertex   9.192390e-01  4.019239e-01  3.702082e+00
      vertex   6.350360e-01  1.098076e+00  3.417878e+00
    endloop
  endfacet
  facet normal  7.071066e-01 -5.931937e-07 -7.071069e-01
    outer loop
      vertex  -1.414208e-01  0.000000e+00  2.641421e+00
      vertex  -9.178791e-01 -1.098076e+00  1.864964e+00
      vertex  -1.202082e+00 -4.019240e-01  1.580761e+00
    endloop
  endfacet
  facet normal -7.071068e-01  1.482984e-07  7.071066e-01
    outer loop
      vertex  -1.414208e-01  0.000000e+00  2.641421e+00
      vertex   6.350360e-01  1.098076e+00  3.417878e+00
      vertex   1.427822e-01  1.500000e+00  2.925624e+00
    endloop
  endfacet
  facet normal  7.071065e-01 -3.336709e-07 -7.071071e-01
    outer loop
      vertex  -1.414208e-01  0.000000e+00  2.641421e+00
      vertex  -4.256239e-01 -1.500000e+00  2.357219e+00
      vertex  -9.178791e-01 -1.098076e+00  1.864964e+00
    endloop
  endfacet
  facet normal -7.071055e-01 -3.954624e-07  7.071081e-01
    outer loop
      vertex  -1.414208e-01  0.000000e+00  2.641421e+00
      vertex   1.427822e-01  1.500000e+00  2.925624e+00
      vertex  -4.256248e-01  1.500000e+00  2.357219e+00
    endloop
  endfacet
  facet normal  7.071061e-01 -1.668359e-07 -7.071075e-01
    outer loop
      vertex  -1.414208e-01  0.000000e+00  2.641421e+00
      vertex   1.427822e-01 -1.500000e+00  2.925624e+00
      vertex  -4.256239e-01 -1.500000e+00  2.357219e+00
    endloop
  endfacet
  facet normal -7.071075e-01 -1.161670e-06  7.071060e-01
    outer loop
      vertex  -1.414208e-01  0.000000e+00  2.641421e+00
      vertex  -4.256248e-01  1.500000e+00  2.357219e+00
      vertex  -9.178782e-01  1.098076e+00  1.864964e+00
    endloop
  endfacet
  facet normal  7.071069e-01  1.482985e-07 -7.071066e-01
    outer loop
      vertex  -1.414208e-01  0.000000e+00  2.641421e+00
      vertex   6.350360e-01 -1.098076e+00  3.417878e+00
      vertex   1.427822e-01 -1.500000e+00  2.925624e+00
    endloop
  endfacet
  facet normal -7.071065e-01  2.471637e-07  7.071071e-01
    outer loop
      vertex  -1.414208e-01  0.000000e+00  2.641421e+00
      vertex  -9.178782e-01  1.098076e+00  1.864964e+00
      vertex  -1.202082e+00  4.019229e-01  1.580761e+00
    endloop
  endfacet
  facet normal  7.071072e-01  6.426265e-07 -7.071064e-01
    outer loop
      vertex  -1.414208e-01  0.000000e+00  2.641421e+00
      vertex   9.192390e-01 -4.019240e-01  3.702082e+00
      vertex   6.350360e-01 -1.098076e+00  3.417878e+00
    endloop
  endfacet
  facet normal  1.000000e+00  0.000000e+00  0.000000e+00
    outer loop
      vertex   9.999990e-02 -1.000000e-01  0.000000e+00
      vertex   9.999990e-02  9.999990e-02  0.000000e+00
      vertex   9.999990e-02  9.999990e-02  2.600000e+00
    endloop
  endfacet
  facet normal -1.000000e+00  0.000000e+00  0.000000e+00
    outer loop
      vertex   9.999990e-02 -1.000000e-01  0.000000e+00
      vertex   9.999990e-02 -1.000000e-01  2.600000e+00
      vertex   9.999990e-02  9.999990e-02  2.600000e+00
    endloop
  endfacet
  facet normal  1.000000e+00  0.000000e+00  0.000000e+00
    outer loop
      vertex  -9.999990e-02 -1.000000e-01  0.000000e+00
      vertex  -9.999990e-02  9.999990e-02  0.000000e+00
      vertex  -9.999990e-02  9.999990e-02  2.400000e+00
    endloop
  endfacet
  facet normal -1.000000e+00  0.000000e+00  0.000000e+00
    outer loop
      vertex  -9.999990e-02 -1.000000e-01  0.000000e+00
      vertex  -9.999990e-02 -1.000000e-01  2.400000e+00
      vertex  -9.999990e-02  9.999990e-02  2.400000e+00
    endloop
  endfacet
  facet normal  0.000000e+00 -1.000000e+00  0.000000e+00
    outer loop
      vertex  -9.999990e-02 -1.000000e-01  0.000000e+00
      vertex   9.999990e-02 -1.000000e-01  0.000000e+00
      vertex  -9.999990e-02 -1.000000e-01  2.400000e+00
    endloop
  endfacet
  facet normal  0.000000e+00 -1.000000e+00  0.000000e+00
    outer loop
      vertex   9.999990e-02 -1.000000e-01  0.000000e+00
      vertex   9.999990e-02 -1.000000e-01  2.400000e+00
      vertex  -9.999990e-02 -1.000000e-01  2.400000e+00
    endloop
  endfacet
  facet normal  0.000000e+00  1.000000e+00  0.000000e+00
    outer loop
      vertex   9.999990e-02 -1.000000e-01  2.600000e+00
      vertex   9.999990e-02 -1.000000e-01  2.400000e+00
      vertex  -9.999990e-02 -1.000000e-01  2.400000e+00
    endloop
  endfacet
  facet normal  0.000000e+00 -1.000000e+00  0.000000e+00
    outer loop
      vertex  -9.999990e-02  9.999990e-02  0.000000e+00
      vertex   9.999990e-02  9.999990e-02  0.000000e+00
      vertex  -9.999990e-02  9.999990e-02  2.400000e+00
    endloop
  endfacet
  facet normal  0.000000e+00 -1.000000e+00  0.000000e+00
    outer loop
      vertex   9.999990e-02  9.999990e-02  0.000000e+00
      vertex   9.999990e-02  9.999990e-02  2.400000e+00
      vertex  -9.999990e-02  9.999990e-02  2.400000e+00
    endloop
  endfacet
  facet normal  0.000000e+00  1.000000e+00  0.000000e+00
    outer loop
      vertex   9.999990e-02  9.999990e-02  2.600000e+00
      vertex   9.999990e-02  9.999990e-02  2.400000e+00
      vertex  -9.999990e-02  9.999990e-02  2.400000e+00
    endloop
  endfacet
  facet normal -7.071068e-01  0.000000e+00  7.071068e-01
    outer loop
      vertex   9.999990e-02  9.999990e-02  2.600000e+00
      vertex  -9.999990e-02  9.999990e-02  2.400000e+00
      vertex  -9.999990e-02 -1.000000e-01  2.400000e+00
    endloop
  endfacet
  facet normal  7.071068e-01  0.000000e+00 -7.071068e-01
    outer loop
      vertex   9.999990e-02  9.999990e-02  2.600000e+00
      vertex   9.999990e-02 -1.000000e-01  2.600000e+00
      vertex  -9.999990e-02 -1.000000e-01  2.400000e+00
    endloop
  endfacet
  facet normal  0.000000e+00  0.000000e+00  1.000000e+00
    outer loop
      vertex  -9.999990e-02 -1.000000e-01  0.000000e+00
      vertex   9.999990e-02 -1.000000e-01  0.000000e+00
      vertex   9.999990e-02  9.999990e-02  0.000000e+00
    endloop
  endfacet
  facet normal  0.000000e+00  0.000000e+00 -1.000000e+00
    outer loop
      vertex  -9.999990e-02 -1.000000e-01  0.000000e+00
      vertex  -9.999990e-02  9.999990e-02  0.000000e+00
      vertex   9.999990e-02  9.999990e-02  0.000000e+00
    endloop
  endfacet
endsolid vcg
