solid STL generated by MeshLab
  facet normal  1.000000e+00  0.000000e+00  0.000000e+00
    outer loop
      vertex   9.999990e-02 -9.999990e-02  0.000000e+00
      vertex   9.999990e-02  9.999990e-02  0.000000e+00
      vertex   9.999990e-02  9.999990e-02  2.557735e+00
    endloop
  endfacet
  facet normal  1.000000e+00  0.000000e+00  0.000000e+00
    outer loop
      vertex   9.999990e-02 -9.999990e-02  0.000000e+00
      vertex   9.999990e-02  9.999990e-02  2.557735e+00
      vertex   9.999990e-02 -9.999990e-02  2.557735e+00
    endloop
  endfacet
  facet normal  1.000000e+00  0.000000e+00  0.000000e+00
    outer loop
      vertex  -9.999990e-02 -9.999990e-02  0.000000e+00
      vertex  -9.999990e-02  9.999990e-02  0.000000e+00
      vertex  -9.999990e-02  9.999990e-02  2.442265e+00
    endloop
  endfacet
  facet normal  1.000000e+00  0.000000e+00  0.000000e+00
    outer loop
      vertex  -9.999990e-02 -9.999990e-02  0.000000e+00
      vertex  -9.999990e-02  9.999990e-02  2.442265e+00
      vertex  -9.999990e-02 -9.999990e-02  2.442265e+00
    endloop
  endfacet
  facet normal  0.000000e+00 -1.000000e+00  0.000000e+00
    outer loop
      vertex  -9.999990e-02 -9.999990e-02  0.000000e+00
      vertex   9.999990e-02 -9.999990e-02  0.000000e+00
      vertex   9.999990e-02 -9.999990e-02  2.557735e+00
    endloop
  endfacet
  facet normal  0.000000e+00 -1.000000e+00  0.000000e+00
    outer loop
      vertex  -9.999990e-02 -9.999990e-02  0.000000e+00
      vertex   9.999990e-02 -9.999990e-02  2.557735e+00
      vertex  -9.999990e-02 -9.999990e-02  2.442265e+00
    endloop
  endfacet
  facet normal  0.000000e+00 -1.000000e+00  0.000000e+00
    outer loop
      vertex  -9.999990e-02  9.999990e-02  0.000000e+00
      vertex   9.999990e-02  9.999990e-02  0.000000e+00
      vertex   9.999990e-02  9.999990e-02  2.557735e+00
    endloop
  endfacet
  facet normal  0.000000e+00 -1.000000e+00  0.000000e+00
    outer loop
      vertex  -9.999990e-02  9.999990e-02  0.000000e+00
      vertex   9.999990e-02  9.999990e-02  2.557735e+00
      vertex  -9.999990e-02  9.999990e-02  2.442265e+00
    endloop
  endfacet
  facet normal  0.000000e+00  0.000000e+00 -1.000000e+00
    outer loop
      vertex  -9.999990e-02 -9.999990e-02  0.000000e+00
      vertex  -9.999990e-02  9.999990e-02  0.000000e+00
      vertex   9.999990e-02  9.999990e-02  0.000000e+00
    endloop
  endfacet
  facet normal  0.000000e+00  0.000000e+00 -1.000000e+00
    outer loop
      vertex  -9.999990e-02 -9.999990e-02  0.000000e+00
      vertex   9.999990e-02  9.999990e-02  0.000000e+00
      vertex   9.999990e-02 -9.999990e-02  0.000000e+00
    endloop
  endfacet
  facet normal -5.000000e-01  0.000000e+00  8.660254e-01
    outer loop
      vertex   9.999990e-02  9.999990e-02  2.557735e+00
      vertex  -9.999990e-02  9.999990e-02  2.442265e+00
      vertex  -9.999990e-02 -9.999990e-02  2.442265e+00
    endloop
  endfacet
  facet normal -5.000000e-01  0.000000e+00  8.660254e-01
    outer loop
      vertex   9.999990e-02  9.999990e-02  2.557735e+00
      vertex  -9.999990e-02 -9.999990e-02  2.442265e+00
      vertex   9.999990e-02 -9.999990e-02  2.557735e+00
    endloop
  endfacet
  facet normal -5.000001e-01  0.000000e+00  8.660253e-01
    outer loop
      vertex   5.000019e-02  0.000000e+00  2.529397e+00
      vertex   1.349038e+00 -4.019239e-01  3.279397e+00
      vertex   1.349038e+00  4.019241e-01  3.279397e+00
    endloop
  endfacet
  facet normal  4.999995e-01  0.000000e+00 -8.660257e-01
    outer loop
      vertex   5.000019e-02  0.000000e+00  2.529397e+00
      vertex  -1.249038e+00 -4.019239e-01  1.779398e+00
      vertex  -1.249038e+00  4.019241e-01  1.779398e+00
    endloop
  endfacet
  facet normal -5.000001e-01  9.886566e-08  8.660253e-01
    outer loop
      vertex   5.000019e-02  0.000000e+00  2.529397e+00
      vertex   1.349038e+00  4.019241e-01  3.279397e+00
      vertex   1.000962e+00  1.098076e+00  3.078435e+00
    endloop
  endfacet
  facet normal  4.999993e-01  4.448954e-07 -8.660257e-01
    outer loop
      vertex   5.000019e-02  0.000000e+00  2.529397e+00
      vertex  -9.009621e-01 -1.098076e+00  1.980359e+00
      vertex  -1.249038e+00 -4.019239e-01  1.779398e+00
    endloop
  endfacet
  facet normal -4.999998e-01 -2.965968e-07  8.660256e-01
    outer loop
      vertex   5.000019e-02  0.000000e+00  2.529397e+00
      vertex   1.000962e+00  1.098076e+00  3.078435e+00
      vertex   3.980761e-01  1.500000e+00  2.730359e+00
    endloop
  endfacet
  facet normal  5.000002e-01 -4.819693e-07 -8.660253e-01
    outer loop
      vertex   5.000019e-02  0.000000e+00  2.529397e+00
      vertex  -2.980759e-01 -1.500000e+00  2.328436e+00
      vertex  -9.009621e-01 -1.098076e+00  1.980359e+00
    endloop
  endfacet
  facet normal -4.999996e-01 -3.151343e-07  8.660256e-01
    outer loop
      vertex   5.000019e-02  0.000000e+00  2.529397e+00
      vertex   3.980761e-01  1.500000e+00  2.730359e+00
      vertex  -2.980759e-01  1.500000e+00  2.328436e+00
    endloop
  endfacet
  facet normal  4.999996e-01 -3.151343e-07 -8.660256e-01
    outer loop
      vertex   5.000019e-02  0.000000e+00  2.529397e+00
      vertex   3.980761e-01 -1.500000e+00  2.730359e+00
      vertex  -2.980759e-01 -1.500000e+00  2.328436e+00
    endloop
  endfacet
  facet normal -5.000002e-01 -4.819693e-07  8.660253e-01
    outer loop
      vertex   5.000019e-02  0.000000e+00  2.529397e+00
      vertex  -2.980759e-01  1.500000e+00  2.328436e+00
      vertex  -9.009621e-01  1.098076e+00  1.980359e+00
    endloop
  endfacet
  facet normal  4.999998e-01 -2.965968e-07 -8.660255e-01
    outer loop
      vertex   5.000019e-02  0.000000e+00  2.529397e+00
      vertex   1.000962e+00 -1.098076e+00  3.078435e+00
      vertex   3.980761e-01 -1.500000e+00  2.730359e+00
    endloop
  endfacet
  facet normal -4.999993e-01  4.448957e-07  8.660258e-01
    outer loop
      vertex   5.000019e-02  0.000000e+00  2.529397e+00
      vertex  -9.009621e-01  1.098076e+00  1.980359e+00
      vertex  -1.249038e+00  4.019241e-01  1.779398e+00
    endloop
  endfacet
  facet normal  5.000001e-01  9.886561e-08 -8.660254e-01
    outer loop
      vertex   5.000019e-02  0.000000e+00  2.529397e+00
      vertex   1.349038e+00 -4.019239e-01  3.279397e+00
      vertex   1.000962e+00 -1.098076e+00  3.078435e+00
    endloop
  endfacet
  facet normal  8.660269e-01 -0.000000e+00  4.999974e-01
    outer loop
      vertex   1.249038e+00 -4.019239e-01  3.452603e+00
      vertex   1.349038e+00 -4.019239e-01  3.279397e+00
      vertex   1.249038e+00  4.019241e-01  3.452603e+00
    endloop
  endfacet
  facet normal  8.660269e-01  0.000000e+00  4.999974e-01
    outer loop
      vertex   1.249038e+00  4.019241e-01  3.452603e+00
      vertex   1.349038e+00 -4.019239e-01  3.279397e+00
      vertex   1.349038e+00  4.019241e-01  3.279397e+00
    endloop
  endfacet
  facet normal  8.660256e-01 -0.000000e+00  4.999998e-01
    outer loop
      vertex  -1.349038e+00 -4.019239e-01  1.952603e+00
      vertex  -1.249038e+00 -4.019239e-01  1.779398e+00
      vertex  -1.349038e+00  4.019241e-01  1.952603e+00
    endloop
  endfacet
  facet normal  8.660256e-01  0.000000e+00  4.999998e-01
    outer loop
      vertex  -1.349038e+00  4.019241e-01  1.952603e+00
      vertex  -1.249038e+00 -4.019239e-01  1.779398e+00
      vertex  -1.249038e+00  4.019241e-01  1.779398e+00
    endloop
  endfacet
  facet normal  7.500008e-01  5.000010e-01  4.330102e-01
    outer loop
      vertex   1.249038e+00  4.019241e-01  3.452603e+00
      vertex   1.349038e+00  4.019241e-01  3.279397e+00
      vertex   9.009619e-01  1.098076e+00  3.251640e+00
    endloop
  endfacet
  facet normal  7.500000e-01  5.000005e-01  4.330121e-01
    outer loop
      vertex   9.009619e-01  1.098076e+00  3.251640e+00
      vertex   1.349038e+00  4.019241e-01  3.279397e+00
      vertex   1.000962e+00  1.098076e+00  3.078435e+00
    endloop
  endfacet
  facet normal  7.500004e-01  4.999994e-01  4.330127e-01
    outer loop
      vertex  -1.000962e+00 -1.098076e+00  2.153564e+00
      vertex  -9.009621e-01 -1.098076e+00  1.980359e+00
      vertex  -1.349038e+00 -4.019239e-01  1.952603e+00
    endloop
  endfacet
  facet normal  7.500004e-01  4.999994e-01  4.330127e-01
    outer loop
      vertex  -1.349038e+00 -4.019239e-01  1.952603e+00
      vertex  -9.009621e-01 -1.098076e+00  1.980359e+00
      vertex  -1.249038e+00 -4.019239e-01  1.779398e+00
    endloop
  endfacet
  facet normal  4.330131e-01  8.660253e-01  2.499999e-01
    outer loop
      vertex   9.009619e-01  1.098076e+00  3.251640e+00
      vertex   1.000962e+00  1.098076e+00  3.078435e+00
      vertex   2.980762e-01  1.500000e+00  2.903564e+00
    endloop
  endfacet
  facet normal  4.330131e-01  8.660251e-01  2.500002e-01
    outer loop
      vertex   2.980762e-01  1.500000e+00  2.903564e+00
      vertex   1.000962e+00  1.098076e+00  3.078435e+00
      vertex   3.980761e-01  1.500000e+00  2.730359e+00
    endloop
  endfacet
  facet normal  4.330124e-01  8.660256e-01  2.500001e-01
    outer loop
      vertex  -3.980761e-01 -1.500000e+00  2.501641e+00
      vertex  -2.980759e-01 -1.500000e+00  2.328436e+00
      vertex  -1.000962e+00 -1.098076e+00  2.153564e+00
    endloop
  endfacet
  facet normal  4.330125e-01  8.660256e-01  2.499997e-01
    outer loop
      vertex  -1.000962e+00 -1.098076e+00  2.153564e+00
      vertex  -2.980759e-01 -1.500000e+00  2.328436e+00
      vertex  -9.009621e-01 -1.098076e+00  1.980359e+00
    endloop
  endfacet
  facet normal  0.000000e+00  1.000000e+00  0.000000e+00
    outer loop
      vertex   2.980762e-01  1.500000e+00  2.903564e+00
      vertex   3.980761e-01  1.500000e+00  2.730359e+00
      vertex  -3.980761e-01  1.500000e+00  2.501641e+00
    endloop
  endfacet
  facet normal -0.000000e+00  1.000000e+00  0.000000e+00
    outer loop
      vertex  -3.980761e-01  1.500000e+00  2.501641e+00
      vertex   3.980761e-01  1.500000e+00  2.730359e+00
      vertex  -2.980759e-01  1.500000e+00  2.328436e+00
    endloop
  endfacet
  facet normal  0.000000e+00  1.000000e+00  0.000000e+00
    outer loop
      vertex   2.980762e-01 -1.500000e+00  2.903564e+00
      vertex   3.980761e-01 -1.500000e+00  2.730359e+00
      vertex  -3.980761e-01 -1.500000e+00  2.501641e+00
    endloop
  endfacet
  facet normal -0.000000e+00  1.000000e+00  0.000000e+00
    outer loop
      vertex  -3.980761e-01 -1.500000e+00  2.501641e+00
      vertex   3.980761e-01 -1.500000e+00  2.730359e+00
      vertex  -2.980759e-01 -1.500000e+00  2.328436e+00
    endloop
  endfacet
  facet normal -4.330126e-01  8.660254e-01 -2.500002e-01
    outer loop
      vertex  -3.980761e-01  1.500000e+00  2.501641e+00
      vertex  -2.980759e-01  1.500000e+00  2.328436e+00
      vertex  -1.000962e+00  1.098076e+00  2.153564e+00
    endloop
  endfacet
  facet normal -4.330126e-01  8.660254e-01 -2.499998e-01
    outer loop
      vertex  -1.000962e+00  1.098076e+00  2.153564e+00
      vertex  -2.980759e-01  1.500000e+00  2.328436e+00
      vertex  -9.009621e-01  1.098076e+00  1.980359e+00
    endloop
  endfacet
  facet normal -4.330129e-01  8.660253e-01 -2.499998e-01
    outer loop
      vertex   9.009619e-01 -1.098076e+00  3.251640e+00
      vertex   1.000962e+00 -1.098076e+00  3.078435e+00
      vertex   2.980762e-01 -1.500000e+00  2.903564e+00
    endloop
  endfacet
  facet normal -4.330128e-01  8.660253e-01 -2.500001e-01
    outer loop
      vertex   2.980762e-01 -1.500000e+00  2.903564e+00
      vertex   1.000962e+00 -1.098076e+00  3.078435e+00
      vertex   3.980761e-01 -1.500000e+00  2.730359e+00
    endloop
  endfacet
  facet normal -7.500003e-01  4.999997e-01 -4.330126e-01
    outer loop
      vertex  -1.000962e+00  1.098076e+00  2.153564e+00
      vertex  -9.009621e-01  1.098076e+00  1.980359e+00
      vertex  -1.349038e+00  4.019241e-01  1.952603e+00
    endloop
  endfacet
  facet normal -7.500003e-01  4.999997e-01 -4.330126e-01
    outer loop
      vertex  -1.349038e+00  4.019241e-01  1.952603e+00
      vertex  -9.009621e-01  1.098076e+00  1.980359e+00
      vertex  -1.249038e+00  4.019241e-01  1.779398e+00
    endloop
  endfacet
  facet normal -7.500010e-01  5.000007e-01 -4.330103e-01
    outer loop
      vertex   1.249038e+00 -4.019239e-01  3.452603e+00
      vertex   1.349038e+00 -4.019239e-01  3.279397e+00
      vertex   9.009619e-01 -1.098076e+00  3.251640e+00
    endloop
  endfacet
  facet normal -7.500001e-01  5.000003e-01 -4.330122e-01
    outer loop
      vertex   9.009619e-01 -1.098076e+00  3.251640e+00
      vertex   1.349038e+00 -4.019239e-01  3.279397e+00
      vertex   1.000962e+00 -1.098076e+00  3.078435e+00
    endloop
  endfacet
  facet normal -5.000006e-01  0.000000e+00  8.660251e-01
    outer loop
      vertex  -4.999995e-02  0.000000e+00  2.702602e+00
      vertex   1.249038e+00 -4.019239e-01  3.452603e+00
      vertex   1.249038e+00  4.019241e-01  3.452603e+00
    endloop
  endfacet
  facet normal  4.999996e-01  0.000000e+00 -8.660257e-01
    outer loop
      vertex  -4.999995e-02  0.000000e+00  2.702602e+00
      vertex  -1.349038e+00 -4.019239e-01  1.952603e+00
      vertex  -1.349038e+00  4.019241e-01  1.952603e+00
    endloop
  endfacet
  facet normal -5.000007e-01  7.909248e-07  8.660250e-01
    outer loop
      vertex  -4.999995e-02  0.000000e+00  2.702602e+00
      vertex   1.249038e+00  4.019241e-01  3.452603e+00
      vertex   9.009619e-01  1.098076e+00  3.251640e+00
    endloop
  endfacet
  facet normal  4.999994e-01  4.448955e-07 -8.660257e-01
    outer loop
      vertex  -4.999995e-02  0.000000e+00  2.702602e+00
      vertex  -1.000962e+00 -1.098076e+00  2.153564e+00
      vertex  -1.349038e+00 -4.019239e-01  1.952603e+00
    endloop
  endfacet
  facet normal -4.999999e-01 -1.606565e-07  8.660254e-01
    outer loop
      vertex  -4.999995e-02  0.000000e+00  2.702602e+00
      vertex   9.009619e-01  1.098076e+00  3.251640e+00
      vertex   2.980762e-01  1.500000e+00  2.903564e+00
    endloop
  endfacet
  facet normal  5.000004e-01 -6.797005e-07 -8.660251e-01
    outer loop
      vertex  -4.999995e-02  0.000000e+00  2.702602e+00
      vertex  -3.980761e-01 -1.500000e+00  2.501641e+00
      vertex  -1.000962e+00 -1.098076e+00  2.153564e+00
    endloop
  endfacet
  facet normal -4.999993e-01 -3.460298e-07  8.660259e-01
    outer loop
      vertex  -4.999995e-02  0.000000e+00  2.702602e+00
      vertex   2.980762e-01  1.500000e+00  2.903564e+00
      vertex  -3.980761e-01  1.500000e+00  2.501641e+00
    endloop
  endfacet
  facet normal  4.999993e-01 -3.460298e-07 -8.660259e-01
    outer loop
      vertex  -4.999995e-02  0.000000e+00  2.702602e+00
      vertex   2.980762e-01 -1.500000e+00  2.903564e+00
      vertex  -3.980761e-01 -1.500000e+00  2.501641e+00
    endloop
  endfacet
  facet normal -5.000004e-01 -6.797003e-07  8.660251e-01
    outer loop
      vertex  -4.999995e-02  0.000000e+00  2.702602e+00
      vertex  -3.980761e-01  1.500000e+00  2.501641e+00
      vertex  -1.000962e+00  1.098076e+00  2.153564e+00
    endloop
  endfacet
  facet normal  4.999999e-01 -1.606566e-07 -8.660254e-01
    outer loop
      vertex  -4.999995e-02  0.000000e+00  2.702602e+00
      vertex   9.009619e-01 -1.098076e+00  3.251640e+00
      vertex   2.980762e-01 -1.500000e+00  2.903564e+00
    endloop
  endfacet
  facet normal -4.999994e-01  4.448958e-07  8.660257e-01
    outer loop
      vertex  -4.999995e-02  0.000000e+00  2.702602e+00
      vertex  -1.000962e+00  1.098076e+00  2.153564e+00
      vertex  -1.349038e+00  4.019241e-01  1.952603e+00
    endloop
  endfacet
  facet normal  5.000008e-01  7.909244e-07 -8.660250e-01
    outer loop
      vertex  -4.999995e-02  0.000000e+00  2.702602e+00
      vertex   1.249038e+00 -4.019239e-01  3.452603e+00
      vertex   9.009619e-01 -1.098076e+00  3.251640e+00
    endloop
  endfacet
endsolid vcg
