solid STL generated by MeshLab
  facet normal  0.000000e+00 -1.000000e+00  0.000000e+00
    outer loop
      vertex   1.905017e-01 -1.905017e-01  0.000000e+00
      vertex   1.905017e-01 -1.905017e-01  6.203000e+00
      vertex  -1.905017e-01 -1.905017e-01  6.203000e+00
    endloop
  endfacet
  facet normal  0.000000e+00 -1.000000e+00  0.000000e+00
    outer loop
      vertex   1.905017e-01 -1.905017e-01  0.000000e+00
      vertex  -1.905017e-01 -1.905017e-01  6.203000e+00
      vertex  -1.905017e-01 -1.905017e-01  0.000000e+00
    endloop
  endfacet
  facet normal  0.000000e+00  1.000000e+00  0.000000e+00
    outer loop
      vertex   1.905017e-01  1.905017e-01  6.203000e+00
      vertex   1.905017e-01  1.905017e-01  0.000000e+00
      vertex  -1.905017e-01  1.905017e-01  0.000000e+00
    endloop
  endfacet
  facet normal  0.000000e+00  1.000000e+00  0.000000e+00
    outer loop
      vertex   1.905017e-01  1.905017e-01  6.203000e+00
      vertex  -1.905017e-01  1.905017e-01  0.000000e+00
      vertex  -1.905017e-01  1.905017e-01  6.203000e+00
    endloop
  endfacet
  facet normal  1.000000e+00  0.000000e+00  0.000000e+00
    outer loop
      vertex   1.905017e-01 -1.905017e-01  0.000000e+00
      vertex   1.905017e-01  1.905017e-01  0.000000e+00
      vertex   1.905017e-01  1.905017e-01  6.203000e+00
    endloop
  endfacet
  facet normal  1.000000e+00  0.000000e+00  0.000000e+00
    outer loop
      vertex   1.905017e-01 -1.905017e-01  0.000000e+00
      vertex   1.905017e-01  1.905017e-01  6.203000e+00
      vertex   1.905017e-01 -1.905017e-01  6.203000e+00
    endloop
  endfacet
  facet normal -1.000000e+00  0.000000e+00  0.000000e+00
    outer loop
      vertex  -1.905017e-01 -1.905017e-01  6.203000e+00
      vertex  -1.905017e-01  1.905017e-01  6.203000e+00
      vertex  -1.905017e-01  1.905017e-01  0.000000e+00
    endloop
  endfacet
  facet normal -1.000000e+00  0.000000e+00  0.000000e+00
    outer loop
      vertex  -1.905017e-01 -1.905017e-01  6.203000e+00
      vertex  -1.905017e-01  1.905017e-01  0.000000e+00
      vertex  -1.905017e-01 -1.905017e-01  0.000000e+00
    endloop
  endfacet
  facet normal  0.000000e+00 -0.000000e+00 -1.000000e+00
    outer loop
      vertex   1.905017e-01  1.905017e-01  0.000000e+00
      vertex   1.905017e-01 -1.905017e-01  0.000000e+00
      vertex  -1.905017e-01 -1.905017e-01  0.000000e+00
    endloop
  endfacet
  facet normal -0.000000e+00  0.000000e+00 -1.000000e+00
    outer loop
      vertex   1.905017e-01  1.905017e-01  0.000000e+00
      vertex  -1.905017e-01 -1.905017e-01  0.000000e+00
      vertex  -1.905017e-01  1.905017e-01  0.000000e+00
    endloop
  endfacet
  facet normal  0.000000e+00 -0.000000e+00  1.000000e+00
    outer loop
      vertex   1.905017e-01 -1.905017e-01  6.203000e+00
      vertex   1.905017e-01  1.905017e-01  6.203000e+00
      vertex  -1.905017e-01  1.905017e-01  6.203000e+00
    endloop
  endfacet
  facet normal  0.000000e+00  0.000000e+00  1.000000e+00
    outer loop
      vertex   1.905017e-01 -1.905017e-01  6.203000e+00
      vertex  -1.905017e-01  1.905017e-01  6.203000e+00
      vertex  -1.905017e-01 -1.905017e-01  6.203000e+00
    endloop
  endfacet
  facet normal  0.000000e+00 -1.000000e+00  0.000000e+00
    outer loop
      vertex   9.999896e-02  1.904947e-01  7.030000e-01
      vertex   9.999896e-02  1.904947e-01  6.103000e+00
      vertex  -9.999896e-02  1.904947e-01  6.103000e+00
    endloop
  endfacet
  facet normal  0.000000e+00 -1.000000e+00  0.000000e+00
    outer loop
      vertex   9.999896e-02  1.904947e-01  7.030000e-01
      vertex  -9.999896e-02  1.904947e-01  6.103000e+00
      vertex  -9.999896e-02  1.904947e-01  7.030000e-01
    endloop
  endfacet
  facet normal  0.000000e+00  1.000000e+00  0.000000e+00
    outer loop
      vertex   9.999901e-02  2.082006e+00  6.103000e+00
      vertex   9.999901e-02  2.082006e+00  7.030000e-01
      vertex  -9.999901e-02  2.082006e+00  7.030000e-01
    endloop
  endfacet
  facet normal  0.000000e+00  1.000000e+00  0.000000e+00
    outer loop
      vertex   9.999901e-02  2.082006e+00  6.103000e+00
      vertex  -9.999901e-02  2.082006e+00  7.030000e-01
      vertex  -9.999901e-02  2.082006e+00  6.103000e+00
    endloop
  endfacet
  facet normal  1.000000e+00 -2.757270e-08  0.000000e+00
    outer loop
      vertex   9.999896e-02  1.904947e-01  7.030000e-01
      vertex   9.999901e-02  2.082006e+00  7.030000e-01
      vertex   9.999901e-02  2.082006e+00  6.103000e+00
    endloop
  endfacet
  facet normal  1.000000e+00 -2.757270e-08  0.000000e+00
    outer loop
      vertex   9.999896e-02  1.904947e-01  7.030000e-01
      vertex   9.999901e-02  2.082006e+00  6.103000e+00
      vertex   9.999896e-02  1.904947e-01  6.103000e+00
    endloop
  endfacet
  facet normal -1.000000e+00 -2.757270e-08  0.000000e+00
    outer loop
      vertex  -9.999896e-02  1.904947e-01  6.103000e+00
      vertex  -9.999901e-02  2.082006e+00  6.103000e+00
      vertex  -9.999901e-02  2.082006e+00  7.030000e-01
    endloop
  endfacet
  facet normal -1.000000e+00 -2.757270e-08 -0.000000e+00
    outer loop
      vertex  -9.999896e-02  1.904947e-01  6.103000e+00
      vertex  -9.999901e-02  2.082006e+00  7.030000e-01
      vertex  -9.999896e-02  1.904947e-01  7.030000e-01
    endloop
  endfacet
  facet normal  0.000000e+00  0.000000e+00 -1.000000e+00
    outer loop
      vertex   9.999901e-02  2.082006e+00  7.030000e-01
      vertex   9.999896e-02  1.904947e-01  7.030000e-01
      vertex  -9.999896e-02  1.904947e-01  7.030000e-01
    endloop
  endfacet
  facet normal -0.000000e+00  0.000000e+00 -1.000000e+00
    outer loop
      vertex   9.999901e-02  2.082006e+00  7.030000e-01
      vertex  -9.999896e-02  1.904947e-01  7.030000e-01
      vertex  -9.999901e-02  2.082006e+00  7.030000e-01
    endloop
  endfacet
  facet normal  0.000000e+00 -0.000000e+00  1.000000e+00
    outer loop
      vertex   9.999896e-02  1.904947e-01  6.103000e+00
      vertex   9.999901e-02  2.082006e+00  6.103000e+00
      vertex  -9.999901e-02  2.082006e+00  6.103000e+00
    endloop
  endfacet
  facet normal  0.000000e+00  0.000000e+00  1.000000e+00
    outer loop
      vertex   9.999896e-02  1.904947e-01  6.103000e+00
      vertex  -9.999901e-02  2.082006e+00  6.103000e+00
      vertex  -9.999896e-02  1.904947e-01  6.103000e+00
    endloop
  endfacet
  facet normal -1.221077e-07 -1.000000e+00  0.000000e+00
    outer loop
      vertex  -1.904947e-01  9.999896e-02  7.030000e-01
      vertex  -1.904947e-01  9.999896e-02  6.103000e+00
      vertex  -2.082005e+00  9.999919e-02  6.103000e+00
    endloop
  endfacet
  facet normal -1.221077e-07 -1.000000e+00  0.000000e+00
    outer loop
      vertex  -1.904947e-01  9.999896e-02  7.030000e-01
      vertex  -2.082005e+00  9.999919e-02  6.103000e+00
      vertex  -2.082005e+00  9.999919e-02  7.030000e-01
    endloop
  endfacet
  facet normal -2.757270e-08  1.000000e+00  0.000000e+00
    outer loop
      vertex  -1.904947e-01 -9.999896e-02  6.103000e+00
      vertex  -1.904947e-01 -9.999896e-02  7.030000e-01
      vertex  -2.082006e+00 -9.999901e-02  7.030000e-01
    endloop
  endfacet
  facet normal -2.757270e-08  1.000000e+00  0.000000e+00
    outer loop
      vertex  -1.904947e-01 -9.999896e-02  6.103000e+00
      vertex  -2.082006e+00 -9.999901e-02  7.030000e-01
      vertex  -2.082006e+00 -9.999901e-02  6.103000e+00
    endloop
  endfacet
  facet normal -1.000000e+00  0.000000e+00  0.000000e+00
    outer loop
      vertex  -1.904947e-01  9.999896e-02  7.030000e-01
      vertex  -1.904947e-01 -9.999896e-02  7.030000e-01
      vertex  -1.904947e-01 -9.999896e-02  6.103000e+00
    endloop
  endfacet
  facet normal -1.000000e+00  0.000000e+00  0.000000e+00
    outer loop
      vertex  -1.904947e-01  9.999896e-02  7.030000e-01
      vertex  -1.904947e-01 -9.999896e-02  6.103000e+00
      vertex  -1.904947e-01  9.999896e-02  6.103000e+00
    endloop
  endfacet
  facet normal  1.000000e+00 -1.192104e-06  0.000000e+00
    outer loop
      vertex  -2.082005e+00  9.999919e-02  6.103000e+00
      vertex  -2.082006e+00 -9.999901e-02  6.103000e+00
      vertex  -2.082006e+00 -9.999901e-02  7.030000e-01
    endloop
  endfacet
  facet normal  1.000000e+00 -1.192104e-06  0.000000e+00
    outer loop
      vertex  -2.082005e+00  9.999919e-02  6.103000e+00
      vertex  -2.082006e+00 -9.999901e-02  7.030000e-01
      vertex  -2.082005e+00  9.999919e-02  7.030000e-01
    endloop
  endfacet
  facet normal  0.000000e+00 -0.000000e+00  1.000000e+00
    outer loop
      vertex  -1.904947e-01 -9.999896e-02  7.030000e-01
      vertex  -1.904947e-01  9.999896e-02  7.030000e-01
      vertex  -2.082005e+00  9.999919e-02  7.030000e-01
    endloop
  endfacet
  facet normal  0.000000e+00  0.000000e+00  1.000000e+00
    outer loop
      vertex  -1.904947e-01 -9.999896e-02  7.030000e-01
      vertex  -2.082005e+00  9.999919e-02  7.030000e-01
      vertex  -2.082006e+00 -9.999901e-02  7.030000e-01
    endloop
  endfacet
  facet normal  0.000000e+00 -0.000000e+00 -1.000000e+00
    outer loop
      vertex  -1.904947e-01  9.999896e-02  6.103000e+00
      vertex  -1.904947e-01 -9.999896e-02  6.103000e+00
      vertex  -2.082006e+00 -9.999901e-02  6.103000e+00
    endloop
  endfacet
  facet normal -0.000000e+00  0.000000e+00 -1.000000e+00
    outer loop
      vertex  -1.904947e-01  9.999896e-02  6.103000e+00
      vertex  -2.082006e+00 -9.999901e-02  6.103000e+00
      vertex  -2.082005e+00  9.999919e-02  6.103000e+00
    endloop
  endfacet
  facet normal  0.000000e+00 -1.000000e+00  0.000000e+00
    outer loop
      vertex   9.999919e-02 -2.082005e+00  7.030000e-01
      vertex   9.999919e-02 -2.082005e+00  6.103000e+00
      vertex  -9.999919e-02 -2.082005e+00  6.103000e+00
    endloop
  endfacet
  facet normal  0.000000e+00 -1.000000e+00  0.000000e+00
    outer loop
      vertex   9.999919e-02 -2.082005e+00  7.030000e-01
      vertex  -9.999919e-02 -2.082005e+00  6.103000e+00
      vertex  -9.999919e-02 -2.082005e+00  7.030000e-01
    endloop
  endfacet
  facet normal  0.000000e+00  1.000000e+00  0.000000e+00
    outer loop
      vertex   9.999896e-02 -1.904947e-01  6.103000e+00
      vertex   9.999896e-02 -1.904947e-01  7.030000e-01
      vertex  -9.999896e-02 -1.904947e-01  7.030000e-01
    endloop
  endfacet
  facet normal  0.000000e+00  1.000000e+00  0.000000e+00
    outer loop
      vertex   9.999896e-02 -1.904947e-01  6.103000e+00
      vertex  -9.999896e-02 -1.904947e-01  7.030000e-01
      vertex  -9.999896e-02 -1.904947e-01  6.103000e+00
    endloop
  endfacet
  facet normal  1.000000e+00  1.221077e-07  0.000000e+00
    outer loop
      vertex   9.999919e-02 -2.082005e+00  7.030000e-01
      vertex   9.999896e-02 -1.904947e-01  7.030000e-01
      vertex   9.999896e-02 -1.904947e-01  6.103000e+00
    endloop
  endfacet
  facet normal  1.000000e+00  1.221077e-07 -0.000000e+00
    outer loop
      vertex   9.999919e-02 -2.082005e+00  7.030000e-01
      vertex   9.999896e-02 -1.904947e-01  6.103000e+00
      vertex   9.999919e-02 -2.082005e+00  6.103000e+00
    endloop
  endfacet
  facet normal -1.000000e+00  1.221077e-07  0.000000e+00
    outer loop
      vertex  -9.999919e-02 -2.082005e+00  6.103000e+00
      vertex  -9.999896e-02 -1.904947e-01  6.103000e+00
      vertex  -9.999896e-02 -1.904947e-01  7.030000e-01
    endloop
  endfacet
  facet normal -1.000000e+00  1.221077e-07  0.000000e+00
    outer loop
      vertex  -9.999919e-02 -2.082005e+00  6.103000e+00
      vertex  -9.999896e-02 -1.904947e-01  7.030000e-01
      vertex  -9.999919e-02 -2.082005e+00  7.030000e-01
    endloop
  endfacet
  facet normal  0.000000e+00 -0.000000e+00 -1.000000e+00
    outer loop
      vertex   9.999896e-02 -1.904947e-01  7.030000e-01
      vertex   9.999919e-02 -2.082005e+00  7.030000e-01
      vertex  -9.999919e-02 -2.082005e+00  7.030000e-01
    endloop
  endfacet
  facet normal -0.000000e+00  0.000000e+00 -1.000000e+00
    outer loop
      vertex   9.999896e-02 -1.904947e-01  7.030000e-01
      vertex  -9.999919e-02 -2.082005e+00  7.030000e-01
      vertex  -9.999896e-02 -1.904947e-01  7.030000e-01
    endloop
  endfacet
  facet normal  0.000000e+00  0.000000e+00  1.000000e+00
    outer loop
      vertex   9.999919e-02 -2.082005e+00  6.103000e+00
      vertex   9.999896e-02 -1.904947e-01  6.103000e+00
      vertex  -9.999896e-02 -1.904947e-01  6.103000e+00
    endloop
  endfacet
  facet normal  0.000000e+00  0.000000e+00  1.000000e+00
    outer loop
      vertex   9.999919e-02 -2.082005e+00  6.103000e+00
      vertex  -9.999896e-02 -1.904947e-01  6.103000e+00
      vertex  -9.999919e-02 -2.082005e+00  6.103000e+00
    endloop
  endfacet
  facet normal  1.221077e-07 -1.000000e+00  0.000000e+00
    outer loop
      vertex   2.082005e+00  9.999919e-02  7.030000e-01
      vertex   2.082005e+00  9.999919e-02  6.103000e+00
      vertex   1.904947e-01  9.999896e-02  6.103000e+00
    endloop
  endfacet
  facet normal  1.221077e-07 -1.000000e+00  0.000000e+00
    outer loop
      vertex   2.082005e+00  9.999919e-02  7.030000e-01
      vertex   1.904947e-01  9.999896e-02  6.103000e+00
      vertex   1.904947e-01  9.999896e-02  7.030000e-01
    endloop
  endfacet
  facet normal  2.757270e-08  1.000000e+00  0.000000e+00
    outer loop
      vertex   2.082006e+00 -9.999901e-02  6.103000e+00
      vertex   2.082006e+00 -9.999901e-02  7.030000e-01
      vertex   1.904947e-01 -9.999896e-02  7.030000e-01
    endloop
  endfacet
  facet normal  2.757270e-08  1.000000e+00  0.000000e+00
    outer loop
      vertex   2.082006e+00 -9.999901e-02  6.103000e+00
      vertex   1.904947e-01 -9.999896e-02  7.030000e-01
      vertex   1.904947e-01 -9.999896e-02  6.103000e+00
    endloop
  endfacet
  facet normal -1.000000e+00 -1.192104e-06  0.000000e+00
    outer loop
      vertex   2.082005e+00  9.999919e-02  7.030000e-01
      vertex   2.082006e+00 -9.999901e-02  7.030000e-01
      vertex   2.082006e+00 -9.999901e-02  6.103000e+00
    endloop
  endfacet
  facet normal -1.000000e+00 -1.192104e-06  0.000000e+00
    outer loop
      vertex   2.082005e+00  9.999919e-02  7.030000e-01
      vertex   2.082006e+00 -9.999901e-02  6.103000e+00
      vertex   2.082005e+00  9.999919e-02  6.103000e+00
    endloop
  endfacet
  facet normal  1.000000e+00  0.000000e+00  0.000000e+00
    outer loop
      vertex   1.904947e-01  9.999896e-02  6.103000e+00
      vertex   1.904947e-01 -9.999896e-02  6.103000e+00
      vertex   1.904947e-01 -9.999896e-02  7.030000e-01
    endloop
  endfacet
  facet normal  1.000000e+00  0.000000e+00  0.000000e+00
    outer loop
      vertex   1.904947e-01  9.999896e-02  6.103000e+00
      vertex   1.904947e-01 -9.999896e-02  7.030000e-01
      vertex   1.904947e-01  9.999896e-02  7.030000e-01
    endloop
  endfacet
  facet normal  0.000000e+00  0.000000e+00  1.000000e+00
    outer loop
      vertex   2.082006e+00 -9.999901e-02  7.030000e-01
      vertex   2.082005e+00  9.999919e-02  7.030000e-01
      vertex   1.904947e-01  9.999896e-02  7.030000e-01
    endloop
  endfacet
  facet normal  0.000000e+00  0.000000e+00  1.000000e+00
    outer loop
      vertex   2.082006e+00 -9.999901e-02  7.030000e-01
      vertex   1.904947e-01  9.999896e-02  7.030000e-01
      vertex   1.904947e-01 -9.999896e-02  7.030000e-01
    endloop
  endfacet
  facet normal  0.000000e+00 -0.000000e+00 -1.000000e+00
    outer loop
      vertex   2.082005e+00  9.999919e-02  6.103000e+00
      vertex   2.082006e+00 -9.999901e-02  6.103000e+00
      vertex   1.904947e-01 -9.999896e-02  6.103000e+00
    endloop
  endfacet
  facet normal  0.000000e+00  0.000000e+00 -1.000000e+00
    outer loop
      vertex   2.082005e+00  9.999919e-02  6.103000e+00
      vertex   1.904947e-01 -9.999896e-02  6.103000e+00
      vertex   1.904947e-01  9.999896e-02  6.103000e+00
    endloop
  endfacet
endsolid vcg
