solid STL generated by MeshLab
  facet normal -7.660441e-01  0.000000e+00  6.427880e-01
    outer loop
      vertex  -7.000000e-01 -4.900001e+00  4.000000e+00
      vertex   9.069698e-01 -4.900001e+00  5.915110e+00
      vertex   9.069698e-01  5.099999e+00  5.915110e+00
    endloop
  endfacet
  facet normal -7.660441e-01  0.000000e+00  6.427880e-01
    outer loop
      vertex  -7.000000e-01 -4.900001e+00  4.000000e+00
      vertex   9.069698e-01  5.099999e+00  5.915110e+00
      vertex  -7.000000e-01  5.099999e+00  4.000000e+00
    endloop
  endfacet
  facet normal  7.660443e-01  0.000000e+00 -6.427878e-01
    outer loop
      vertex  -8.532091e-01 -4.900001e+00  4.128560e+00
      vertex   7.537599e-01  5.099999e+00  6.043670e+00
      vertex   7.537599e-01 -4.900001e+00  6.043670e+00
    endloop
  endfacet
  facet normal  7.660443e-01  0.000000e+00 -6.427878e-01
    outer loop
      vertex  -8.532091e-01 -4.900001e+00  4.128560e+00
      vertex  -8.532091e-01  5.099999e+00  4.128560e+00
      vertex   7.537599e-01  5.099999e+00  6.043670e+00
    endloop
  endfacet
  facet normal  0.000000e+00  1.000000e+00 -0.000000e+00
    outer loop
      vertex  -7.000000e-01 -4.900001e+00  4.000000e+00
      vertex  -8.532091e-01 -4.900001e+00  4.128560e+00
      vertex   7.537599e-01 -4.900001e+00  6.043670e+00
    endloop
  endfacet
  facet normal  0.000000e+00  1.000000e+00  0.000000e+00
    outer loop
      vertex  -7.000000e-01 -4.900001e+00  4.000000e+00
      vertex   7.537599e-01 -4.900001e+00  6.043670e+00
      vertex   9.069698e-01 -4.900001e+00  5.915110e+00
    endloop
  endfacet
  facet normal -6.427925e-01  0.000000e+00 -7.660403e-01
    outer loop
      vertex   9.069698e-01 -4.900001e+00  5.915110e+00
      vertex   7.537599e-01 -4.900001e+00  6.043670e+00
      vertex   7.537599e-01  5.099999e+00  6.043670e+00
    endloop
  endfacet
  facet normal -6.427925e-01  0.000000e+00 -7.660403e-01
    outer loop
      vertex   9.069698e-01 -4.900001e+00  5.915110e+00
      vertex   7.537599e-01  5.099999e+00  6.043670e+00
      vertex   9.069698e-01  5.099999e+00  5.915110e+00
    endloop
  endfacet
  facet normal -0.000000e+00 -1.000000e+00  0.000000e+00
    outer loop
      vertex   9.069698e-01  5.099999e+00  5.915110e+00
      vertex   7.537599e-01  5.099999e+00  6.043670e+00
      vertex  -8.532091e-01  5.099999e+00  4.128560e+00
    endloop
  endfacet
  facet normal  0.000000e+00 -1.000000e+00  0.000000e+00
    outer loop
      vertex   9.069698e-01  5.099999e+00  5.915110e+00
      vertex  -8.532091e-01  5.099999e+00  4.128560e+00
      vertex  -7.000000e-01  5.099999e+00  4.000000e+00
    endloop
  endfacet
  facet normal  6.427947e-01  0.000000e+00  7.660385e-01
    outer loop
      vertex  -7.000000e-01  5.099999e+00  4.000000e+00
      vertex  -8.532091e-01  5.099999e+00  4.128560e+00
      vertex  -8.532091e-01 -4.900001e+00  4.128560e+00
    endloop
  endfacet
  facet normal  6.427947e-01  0.000000e+00  7.660385e-01
    outer loop
      vertex  -7.000000e-01  5.099999e+00  4.000000e+00
      vertex  -8.532091e-01 -4.900001e+00  4.128560e+00
      vertex  -7.000000e-01 -4.900001e+00  4.000000e+00
    endloop
  endfacet
  facet normal  0.000000e+00  0.000000e+00  1.000000e+00
    outer loop
      vertex  -7.000000e-01 -2.500001e+00  0.000000e+00
      vertex  -5.000000e-01 -2.500001e+00  0.000000e+00
      vertex  -5.000000e-01 -2.300001e+00  0.000000e+00
    endloop
  endfacet
  facet normal  0.000000e+00  0.000000e+00  1.000000e+00
    outer loop
      vertex  -7.000000e-01 -2.500001e+00  0.000000e+00
      vertex  -5.000000e-01 -2.300001e+00  0.000000e+00
      vertex  -7.000000e-01 -2.300001e+00  0.000000e+00
    endloop
  endfacet
  facet normal -7.660433e-01  0.000000e+00  6.427890e-01
    outer loop
      vertex  -7.000000e-01 -2.500001e+00  4.000000e+00
      vertex  -5.000000e-01 -2.500001e+00  4.238350e+00
      vertex  -5.000000e-01 -2.300001e+00  4.238350e+00
    endloop
  endfacet
  facet normal -7.660433e-01  0.000000e+00  6.427890e-01
    outer loop
      vertex  -7.000000e-01 -2.500001e+00  4.000000e+00
      vertex  -5.000000e-01 -2.300001e+00  4.238350e+00
      vertex  -7.000000e-01 -2.300001e+00  4.000000e+00
    endloop
  endfacet
  facet normal  0.000000e+00 -1.000000e+00  0.000000e+00
    outer loop
      vertex  -7.000000e-01 -2.500001e+00  0.000000e+00
      vertex  -5.000000e-01 -2.500001e+00  0.000000e+00
      vertex  -5.000000e-01 -2.500001e+00  4.238350e+00
    endloop
  endfacet
  facet normal  0.000000e+00 -1.000000e+00  0.000000e+00
    outer loop
      vertex  -7.000000e-01 -2.500001e+00  0.000000e+00
      vertex  -5.000000e-01 -2.500001e+00  4.238350e+00
      vertex  -7.000000e-01 -2.500001e+00  4.000000e+00
    endloop
  endfacet
  facet normal  1.000000e+00  0.000000e+00  0.000000e+00
    outer loop
      vertex  -5.000000e-01 -2.500001e+00  0.000000e+00
      vertex  -5.000000e-01 -2.300001e+00  0.000000e+00
      vertex  -5.000000e-01 -2.300001e+00  4.238350e+00
    endloop
  endfacet
  facet normal  1.000000e+00  0.000000e+00  0.000000e+00
    outer loop
      vertex  -5.000000e-01 -2.500001e+00  0.000000e+00
      vertex  -5.000000e-01 -2.300001e+00  4.238350e+00
      vertex  -5.000000e-01 -2.500001e+00  4.238350e+00
    endloop
  endfacet
  facet normal  0.000000e+00  1.000000e+00  0.000000e+00
    outer loop
      vertex  -5.000000e-01 -2.300001e+00  0.000000e+00
      vertex  -7.000000e-01 -2.300001e+00  0.000000e+00
      vertex  -7.000000e-01 -2.300001e+00  4.000000e+00
    endloop
  endfacet
  facet normal  0.000000e+00  1.000000e+00 -0.000000e+00
    outer loop
      vertex  -5.000000e-01 -2.300001e+00  0.000000e+00
      vertex  -7.000000e-01 -2.300001e+00  4.000000e+00
      vertex  -5.000000e-01 -2.300001e+00  4.238350e+00
    endloop
  endfacet
  facet normal -1.000000e+00  0.000000e+00  0.000000e+00
    outer loop
      vertex  -7.000000e-01 -2.300001e+00  0.000000e+00
      vertex  -7.000000e-01 -2.500001e+00  0.000000e+00
      vertex  -7.000000e-01 -2.500001e+00  4.000000e+00
    endloop
  endfacet
  facet normal -1.000000e+00  0.000000e+00  0.000000e+00
    outer loop
      vertex  -7.000000e-01 -2.300001e+00  0.000000e+00
      vertex  -7.000000e-01 -2.500001e+00  4.000000e+00
      vertex  -7.000000e-01 -2.300001e+00  4.000000e+00
    endloop
  endfacet
  facet normal  0.000000e+00  0.000000e+00  1.000000e+00
    outer loop
      vertex  -7.000000e-01  2.500000e+00  0.000000e+00
      vertex  -5.000000e-01  2.500000e+00  0.000000e+00
      vertex  -5.000000e-01  2.699999e+00  0.000000e+00
    endloop
  endfacet
  facet normal  0.000000e+00  0.000000e+00  1.000000e+00
    outer loop
      vertex  -7.000000e-01  2.500000e+00  0.000000e+00
      vertex  -5.000000e-01  2.699999e+00  0.000000e+00
      vertex  -7.000000e-01  2.699999e+00  0.000000e+00
    endloop
  endfacet
  facet normal -7.660433e-01  0.000000e+00  6.427890e-01
    outer loop
      vertex  -7.000000e-01  2.500000e+00  4.000000e+00
      vertex  -5.000000e-01  2.500000e+00  4.238350e+00
      vertex  -5.000000e-01  2.699999e+00  4.238350e+00
    endloop
  endfacet
  facet normal -7.660433e-01  0.000000e+00  6.427890e-01
    outer loop
      vertex  -7.000000e-01  2.500000e+00  4.000000e+00
      vertex  -5.000000e-01  2.699999e+00  4.238350e+00
      vertex  -7.000000e-01  2.699999e+00  4.000000e+00
    endloop
  endfacet
  facet normal  0.000000e+00 -1.000000e+00  0.000000e+00
    outer loop
      vertex  -7.000000e-01  2.500000e+00  0.000000e+00
      vertex  -5.000000e-01  2.500000e+00  0.000000e+00
      vertex  -5.000000e-01  2.500000e+00  4.238350e+00
    endloop
  endfacet
  facet normal  0.000000e+00 -1.000000e+00  0.000000e+00
    outer loop
      vertex  -7.000000e-01  2.500000e+00  0.000000e+00
      vertex  -5.000000e-01  2.500000e+00  4.238350e+00
      vertex  -7.000000e-01  2.500000e+00  4.000000e+00
    endloop
  endfacet
  facet normal  1.000000e+00  0.000000e+00  0.000000e+00
    outer loop
      vertex  -5.000000e-01  2.500000e+00  0.000000e+00
      vertex  -5.000000e-01  2.699999e+00  0.000000e+00
      vertex  -5.000000e-01  2.699999e+00  4.238350e+00
    endloop
  endfacet
  facet normal  1.000000e+00  0.000000e+00  0.000000e+00
    outer loop
      vertex  -5.000000e-01  2.500000e+00  0.000000e+00
      vertex  -5.000000e-01  2.699999e+00  4.238350e+00
      vertex  -5.000000e-01  2.500000e+00  4.238350e+00
    endloop
  endfacet
  facet normal  0.000000e+00  1.000000e+00  0.000000e+00
    outer loop
      vertex  -5.000000e-01  2.699999e+00  0.000000e+00
      vertex  -7.000000e-01  2.699999e+00  0.000000e+00
      vertex  -7.000000e-01  2.699999e+00  4.000000e+00
    endloop
  endfacet
  facet normal  0.000000e+00  1.000000e+00 -0.000000e+00
    outer loop
      vertex  -5.000000e-01  2.699999e+00  0.000000e+00
      vertex  -7.000000e-01  2.699999e+00  4.000000e+00
      vertex  -5.000000e-01  2.699999e+00  4.238350e+00
    endloop
  endfacet
  facet normal -1.000000e+00  0.000000e+00  0.000000e+00
    outer loop
      vertex  -7.000000e-01  2.699999e+00  0.000000e+00
      vertex  -7.000000e-01  2.500000e+00  0.000000e+00
      vertex  -7.000000e-01  2.500000e+00  4.000000e+00
    endloop
  endfacet
  facet normal -1.000000e+00  0.000000e+00  0.000000e+00
    outer loop
      vertex  -7.000000e-01  2.699999e+00  0.000000e+00
      vertex  -7.000000e-01  2.500000e+00  4.000000e+00
      vertex  -7.000000e-01  2.699999e+00  4.000000e+00
    endloop
  endfacet
  facet normal  0.000000e+00  0.000000e+00  1.000000e+00
    outer loop
      vertex   7.069699e-01 -2.500001e+00  0.000000e+00
      vertex   9.069698e-01 -2.500001e+00  0.000000e+00
      vertex   9.069698e-01 -2.300001e+00  0.000000e+00
    endloop
  endfacet
  facet normal  0.000000e+00  0.000000e+00  1.000000e+00
    outer loop
      vertex   7.069699e-01 -2.500001e+00  0.000000e+00
      vertex   9.069698e-01 -2.300001e+00  0.000000e+00
      vertex   7.069699e-01 -2.300001e+00  0.000000e+00
    endloop
  endfacet
  facet normal -7.660435e-01  0.000000e+00  6.427887e-01
    outer loop
      vertex   7.069699e-01 -2.500001e+00  5.676760e+00
      vertex   9.069698e-01 -2.500001e+00  5.915110e+00
      vertex   9.069698e-01 -2.300001e+00  5.915110e+00
    endloop
  endfacet
  facet normal -7.660435e-01  0.000000e+00  6.427887e-01
    outer loop
      vertex   7.069699e-01 -2.500001e+00  5.676760e+00
      vertex   9.069698e-01 -2.300001e+00  5.915110e+00
      vertex   7.069699e-01 -2.300001e+00  5.676760e+00
    endloop
  endfacet
  facet normal  0.000000e+00 -1.000000e+00  0.000000e+00
    outer loop
      vertex   7.069699e-01 -2.500001e+00  0.000000e+00
      vertex   9.069698e-01 -2.500001e+00  0.000000e+00
      vertex   9.069698e-01 -2.500001e+00  5.915110e+00
    endloop
  endfacet
  facet normal  0.000000e+00 -1.000000e+00  0.000000e+00
    outer loop
      vertex   7.069699e-01 -2.500001e+00  0.000000e+00
      vertex   9.069698e-01 -2.500001e+00  5.915110e+00
      vertex   7.069699e-01 -2.500001e+00  5.676760e+00
    endloop
  endfacet
  facet normal  1.000000e+00  0.000000e+00  0.000000e+00
    outer loop
      vertex   9.069698e-01 -2.500001e+00  0.000000e+00
      vertex   9.069698e-01 -2.300001e+00  0.000000e+00
      vertex   9.069698e-01 -2.300001e+00  5.915110e+00
    endloop
  endfacet
  facet normal  1.000000e+00  0.000000e+00  0.000000e+00
    outer loop
      vertex   9.069698e-01 -2.500001e+00  0.000000e+00
      vertex   9.069698e-01 -2.300001e+00  5.915110e+00
      vertex   9.069698e-01 -2.500001e+00  5.915110e+00
    endloop
  endfacet
  facet normal  0.000000e+00  1.000000e+00  0.000000e+00
    outer loop
      vertex   9.069698e-01 -2.300001e+00  0.000000e+00
      vertex   7.069699e-01 -2.300001e+00  0.000000e+00
      vertex   7.069699e-01 -2.300001e+00  5.676760e+00
    endloop
  endfacet
  facet normal  0.000000e+00  1.000000e+00 -0.000000e+00
    outer loop
      vertex   9.069698e-01 -2.300001e+00  0.000000e+00
      vertex   7.069699e-01 -2.300001e+00  5.676760e+00
      vertex   9.069698e-01 -2.300001e+00  5.915110e+00
    endloop
  endfacet
  facet normal -1.000000e+00  0.000000e+00  0.000000e+00
    outer loop
      vertex   7.069699e-01 -2.300001e+00  0.000000e+00
      vertex   7.069699e-01 -2.500001e+00  0.000000e+00
      vertex   7.069699e-01 -2.500001e+00  5.676760e+00
    endloop
  endfacet
  facet normal -1.000000e+00  0.000000e+00  0.000000e+00
    outer loop
      vertex   7.069699e-01 -2.300001e+00  0.000000e+00
      vertex   7.069699e-01 -2.500001e+00  5.676760e+00
      vertex   7.069699e-01 -2.300001e+00  5.676760e+00
    endloop
  endfacet
  facet normal  0.000000e+00  0.000000e+00  1.000000e+00
    outer loop
      vertex   7.069699e-01  2.500000e+00  0.000000e+00
      vertex   9.069698e-01  2.500000e+00  0.000000e+00
      vertex   9.069698e-01  2.699999e+00  0.000000e+00
    endloop
  endfacet
  facet normal  0.000000e+00  0.000000e+00  1.000000e+00
    outer loop
      vertex   7.069699e-01  2.500000e+00  0.000000e+00
      vertex   9.069698e-01  2.699999e+00  0.000000e+00
      vertex   7.069699e-01  2.699999e+00  0.000000e+00
    endloop
  endfacet
  facet normal -7.660435e-01  0.000000e+00  6.427887e-01
    outer loop
      vertex   7.069699e-01  2.500000e+00  5.676760e+00
      vertex   9.069698e-01  2.500000e+00  5.915110e+00
      vertex   9.069698e-01  2.699999e+00  5.915110e+00
    endloop
  endfacet
  facet normal -7.660435e-01  0.000000e+00  6.427887e-01
    outer loop
      vertex   7.069699e-01  2.500000e+00  5.676760e+00
      vertex   9.069698e-01  2.699999e+00  5.915110e+00
      vertex   7.069699e-01  2.699999e+00  5.676760e+00
    endloop
  endfacet
  facet normal  0.000000e+00 -1.000000e+00  0.000000e+00
    outer loop
      vertex   7.069699e-01  2.500000e+00  0.000000e+00
      vertex   9.069698e-01  2.500000e+00  0.000000e+00
      vertex   9.069698e-01  2.500000e+00  5.915110e+00
    endloop
  endfacet
  facet normal  0.000000e+00 -1.000000e+00  0.000000e+00
    outer loop
      vertex   7.069699e-01  2.500000e+00  0.000000e+00
      vertex   9.069698e-01  2.500000e+00  5.915110e+00
      vertex   7.069699e-01  2.500000e+00  5.676760e+00
    endloop
  endfacet
  facet normal  1.000000e+00  0.000000e+00  0.000000e+00
    outer loop
      vertex   9.069698e-01  2.500000e+00  0.000000e+00
      vertex   9.069698e-01  2.699999e+00  0.000000e+00
      vertex   9.069698e-01  2.699999e+00  5.915110e+00
    endloop
  endfacet
  facet normal  1.000000e+00  0.000000e+00  0.000000e+00
    outer loop
      vertex   9.069698e-01  2.500000e+00  0.000000e+00
      vertex   9.069698e-01  2.699999e+00  5.915110e+00
      vertex   9.069698e-01  2.500000e+00  5.915110e+00
    endloop
  endfacet
  facet normal  0.000000e+00  1.000000e+00  0.000000e+00
    outer loop
      vertex   9.069698e-01  2.699999e+00  0.000000e+00
      vertex   7.069699e-01  2.699999e+00  0.000000e+00
      vertex   7.069699e-01  2.699999e+00  5.676760e+00
    endloop
  endfacet
  facet normal  0.000000e+00  1.000000e+00 -0.000000e+00
    outer loop
      vertex   9.069698e-01  2.699999e+00  0.000000e+00
      vertex   7.069699e-01  2.699999e+00  5.676760e+00
      vertex   9.069698e-01  2.699999e+00  5.915110e+00
    endloop
  endfacet
  facet normal -1.000000e+00  0.000000e+00  0.000000e+00
    outer loop
      vertex   7.069699e-01  2.699999e+00  0.000000e+00
      vertex   7.069699e-01  2.500000e+00  0.000000e+00
      vertex   7.069699e-01  2.500000e+00  5.676760e+00
    endloop
  endfacet
  facet normal -1.000000e+00  0.000000e+00  0.000000e+00
    outer loop
      vertex   7.069699e-01  2.699999e+00  0.000000e+00
      vertex   7.069699e-01  2.500000e+00  5.676760e+00
      vertex   7.069699e-01  2.699999e+00  5.676760e+00
    endloop
  endfacet
endsolid vcg
