solid STL generated by MeshLab
  facet normal -5.000001e-01  5.000001e-01 -7.071068e-01
    outer loop
      vertex   4.242640e+00  0.000000e+00  0.000000e+00
      vertex   0.000000e+00 -4.242640e+00  0.000000e+00
      vertex   0.000000e+00  0.000000e+00  3.000000e+00
    endloop
  endfacet
  facet normal -5.000001e-01  5.000001e-01  7.071068e-01
    outer loop
      vertex   0.000000e+00  4.242640e+00  0.000000e+00
      vertex  -4.242640e+00  0.000000e+00  0.000000e+00
      vertex   0.000000e+00  0.000000e+00  3.000000e+00
    endloop
  endfacet
  facet normal  5.000001e-01  5.000001e-01 -7.071068e-01
    outer loop
      vertex   0.000000e+00 -4.242640e+00  0.000000e+00
      vertex  -4.242640e+00  0.000000e+00  0.000000e+00
      vertex   0.000000e+00  0.000000e+00  3.000000e+00
    endloop
  endfacet
  facet normal  5.000001e-01  5.000001e-01  7.071068e-01
    outer loop
      vertex   4.242640e+00  0.000000e+00  0.000000e+00
      vertex   0.000000e+00  4.242640e+00  0.000000e+00
      vertex   0.000000e+00  0.000000e+00  3.000000e+00
    endloop
  endfacet
  facet normal  0.000000e+00  0.000000e+00  1.000000e+00
    outer loop
      vertex   0.000000e+00 -4.242640e+00  0.000000e+00
      vertex   4.242640e+00  0.000000e+00  0.000000e+00
      vertex   0.000000e+00  4.242640e+00  0.000000e+00
    endloop
  endfacet
  facet normal  0.000000e+00 -0.000000e+00  1.000000e+00
    outer loop
      vertex   0.000000e+00 -4.242640e+00  0.000000e+00
      vertex   0.000000e+00  4.242640e+00  0.000000e+00
      vertex  -4.242640e+00  0.000000e+00  0.000000e+00
    endloop
  endfacet
endsolid vcg
