solid STL generated by MeshLab
  facet normal  0.000000e+00  0.000000e+00  1.000000e+00
    outer loop
      vertex  -9.999990e-02 -9.999990e-02  0.000000e+00
      vertex   1.000000e-01 -9.999990e-02  0.000000e+00
      vertex   1.000000e-01  9.999990e-02  0.000000e+00
    endloop
  endfacet
  facet normal  0.000000e+00  0.000000e+00  1.000000e+00
    outer loop
      vertex  -9.999990e-02 -9.999990e-02  0.000000e+00
      vertex   1.000000e-01  9.999990e-02  0.000000e+00
      vertex  -9.999990e-02  9.999990e-02  0.000000e+00
    endloop
  endfacet
  facet normal  0.000000e+00  0.000000e+00  1.000000e+00
    outer loop
      vertex  -9.999990e-02 -9.999990e-02  4.000000e+00
      vertex   1.000000e-01 -9.999990e-02  4.000000e+00
      vertex   1.000000e-01  9.999990e-02  4.000000e+00
    endloop
  endfacet
  facet normal  0.000000e+00  0.000000e+00  1.000000e+00
    outer loop
      vertex  -9.999990e-02 -9.999990e-02  4.000000e+00
      vertex   1.000000e-01  9.999990e-02  4.000000e+00
      vertex  -9.999990e-02  9.999990e-02  4.000000e+00
    endloop
  endfacet
  facet normal  1.000000e+00  0.000000e+00  0.000000e+00
    outer loop
      vertex   1.000000e-01 -9.999990e-02  0.000000e+00
      vertex   1.000000e-01  9.999990e-02  0.000000e+00
      vertex   1.000000e-01  9.999990e-02  4.000000e+00
    endloop
  endfacet
  facet normal  1.000000e+00  0.000000e+00  0.000000e+00
    outer loop
      vertex   1.000000e-01 -9.999990e-02  0.000000e+00
      vertex   1.000000e-01  9.999990e-02  4.000000e+00
      vertex   1.000000e-01 -9.999990e-02  4.000000e+00
    endloop
  endfacet
  facet normal  1.000000e+00  0.000000e+00  0.000000e+00
    outer loop
      vertex  -9.999990e-02 -9.999990e-02  0.000000e+00
      vertex  -9.999990e-02  9.999990e-02  0.000000e+00
      vertex  -9.999990e-02  9.999990e-02  4.000000e+00
    endloop
  endfacet
  facet normal  1.000000e+00  0.000000e+00  0.000000e+00
    outer loop
      vertex  -9.999990e-02 -9.999990e-02  0.000000e+00
      vertex  -9.999990e-02  9.999990e-02  4.000000e+00
      vertex  -9.999990e-02 -9.999990e-02  4.000000e+00
    endloop
  endfacet
  facet normal  0.000000e+00 -1.000000e+00  0.000000e+00
    outer loop
      vertex  -9.999990e-02  9.999990e-02  0.000000e+00
      vertex   1.000000e-01  9.999990e-02  0.000000e+00
      vertex   1.000000e-01  9.999990e-02  4.000000e+00
    endloop
  endfacet
  facet normal  0.000000e+00 -1.000000e+00  0.000000e+00
    outer loop
      vertex  -9.999990e-02  9.999990e-02  0.000000e+00
      vertex   1.000000e-01  9.999990e-02  4.000000e+00
      vertex  -9.999990e-02  9.999990e-02  4.000000e+00
    endloop
  endfacet
  facet normal  0.000000e+00 -1.000000e+00  0.000000e+00
    outer loop
      vertex  -9.999990e-02 -9.999990e-02  0.000000e+00
      vertex   1.000000e-01 -9.999990e-02  0.000000e+00
      vertex   1.000000e-01 -9.999990e-02  4.000000e+00
    endloop
  endfacet
  facet normal  0.000000e+00 -1.000000e+00  0.000000e+00
    outer loop
      vertex  -9.999990e-02 -9.999990e-02  0.000000e+00
      vertex   1.000000e-01 -9.999990e-02  4.000000e+00
      vertex  -9.999990e-02 -9.999990e-02  4.000000e+00
    endloop
  endfacet
  facet normal -1.304452e-01 -3.495237e-02 -9.908392e-01
    outer loop
      vertex   0.000000e+00  0.000000e+00  5.980020e+00
      vertex   2.241440e-01  1.294100e-01  5.945946e+00
      vertex   2.588190e-01  0.000000e+00  5.945946e+00
    endloop
  endfacet
  facet normal -9.549231e-02 -9.549231e-02 -9.908393e-01
    outer loop
      vertex   0.000000e+00  0.000000e+00  5.980020e+00
      vertex   1.294100e-01  2.241440e-01  5.945946e+00
      vertex   2.241440e-01  1.294100e-01  5.945946e+00
    endloop
  endfacet
  facet normal -3.495247e-02 -1.304451e-01 -9.908392e-01
    outer loop
      vertex   0.000000e+00  0.000000e+00  5.980020e+00
      vertex   0.000000e+00  2.588191e-01  5.945946e+00
      vertex   1.294100e-01  2.241440e-01  5.945946e+00
    endloop
  endfacet
  facet normal  3.495247e-02 -1.304451e-01 -9.908392e-01
    outer loop
      vertex   0.000000e+00  0.000000e+00  5.980020e+00
      vertex  -1.294100e-01  2.241440e-01  5.945946e+00
      vertex   0.000000e+00  2.588191e-01  5.945946e+00
    endloop
  endfacet
  facet normal  9.549231e-02 -9.549231e-02 -9.908393e-01
    outer loop
      vertex   0.000000e+00  0.000000e+00  5.980020e+00
      vertex  -2.241440e-01  1.294100e-01  5.945946e+00
      vertex  -1.294100e-01  2.241440e-01  5.945946e+00
    endloop
  endfacet
  facet normal  1.304451e-01 -3.495247e-02 -9.908392e-01
    outer loop
      vertex   0.000000e+00  0.000000e+00  5.980020e+00
      vertex  -2.588191e-01  0.000000e+00  5.945946e+00
      vertex  -2.241440e-01  1.294100e-01  5.945946e+00
    endloop
  endfacet
  facet normal  1.304451e-01  3.495247e-02 -9.908392e-01
    outer loop
      vertex   0.000000e+00  0.000000e+00  5.980020e+00
      vertex  -2.241440e-01 -1.294100e-01  5.945946e+00
      vertex  -2.588191e-01  0.000000e+00  5.945946e+00
    endloop
  endfacet
  facet normal  9.549231e-02  9.549231e-02 -9.908393e-01
    outer loop
      vertex   0.000000e+00  0.000000e+00  5.980020e+00
      vertex  -1.294100e-01 -2.241440e-01  5.945946e+00
      vertex  -2.241440e-01 -1.294100e-01  5.945946e+00
    endloop
  endfacet
  facet normal  3.495247e-02  1.304451e-01 -9.908392e-01
    outer loop
      vertex   0.000000e+00  0.000000e+00  5.980020e+00
      vertex   0.000000e+00 -2.588191e-01  5.945946e+00
      vertex  -1.294100e-01 -2.241440e-01  5.945946e+00
    endloop
  endfacet
  facet normal -3.495247e-02  1.304451e-01 -9.908392e-01
    outer loop
      vertex   0.000000e+00  0.000000e+00  5.980020e+00
      vertex   1.294100e-01 -2.241440e-01  5.945946e+00
      vertex   0.000000e+00 -2.588191e-01  5.945946e+00
    endloop
  endfacet
  facet normal -9.549231e-02  9.549231e-02 -9.908393e-01
    outer loop
      vertex   0.000000e+00  0.000000e+00  5.980020e+00
      vertex   2.241440e-01 -1.294100e-01  5.945946e+00
      vertex   1.294100e-01 -2.241440e-01  5.945946e+00
    endloop
  endfacet
  facet normal -1.304452e-01  3.495237e-02 -9.908392e-01
    outer loop
      vertex   0.000000e+00  0.000000e+00  5.980020e+00
      vertex   2.588190e-01  0.000000e+00  5.945946e+00
      vertex   2.241440e-01 -1.294100e-01  5.945946e+00
    endloop
  endfacet
  facet normal -3.806902e-01 -1.020047e-01 -9.190593e-01
    outer loop
      vertex   2.588190e-01  0.000000e+00  5.945946e+00
      vertex   2.241440e-01  1.294100e-01  5.945946e+00
      vertex   4.330130e-01  2.500000e-01  5.846045e+00
    endloop
  endfacet
  facet normal -3.806898e-01 -1.020051e-01 -9.190595e-01
    outer loop
      vertex   2.588190e-01  0.000000e+00  5.945946e+00
      vertex   4.330130e-01  2.500000e-01  5.846045e+00
      vertex   5.000000e-01  0.000000e+00  5.846045e+00
    endloop
  endfacet
  facet normal -2.786846e-01 -2.786846e-01 -9.190592e-01
    outer loop
      vertex   2.241440e-01  1.294100e-01  5.945946e+00
      vertex   1.294100e-01  2.241440e-01  5.945946e+00
      vertex   2.500000e-01  4.330130e-01  5.846045e+00
    endloop
  endfacet
  facet normal -2.786846e-01 -2.786846e-01 -9.190592e-01
    outer loop
      vertex   2.241440e-01  1.294100e-01  5.945946e+00
      vertex   2.500000e-01  4.330130e-01  5.846045e+00
      vertex   4.330130e-01  2.500000e-01  5.846045e+00
    endloop
  endfacet
  facet normal -1.020050e-01 -3.806899e-01 -9.190594e-01
    outer loop
      vertex   1.294100e-01  2.241440e-01  5.945946e+00
      vertex   0.000000e+00  2.588191e-01  5.945946e+00
      vertex   0.000000e+00  5.000000e-01  5.846045e+00
    endloop
  endfacet
  facet normal -1.020052e-01 -3.806900e-01 -9.190593e-01
    outer loop
      vertex   1.294100e-01  2.241440e-01  5.945946e+00
      vertex   0.000000e+00  5.000000e-01  5.846045e+00
      vertex   2.500000e-01  4.330130e-01  5.846045e+00
    endloop
  endfacet
  facet normal  1.020050e-01 -3.806901e-01 -9.190594e-01
    outer loop
      vertex   0.000000e+00  2.588191e-01  5.945946e+00
      vertex  -1.294100e-01  2.241440e-01  5.945946e+00
      vertex  -2.500000e-01  4.330130e-01  5.846045e+00
    endloop
  endfacet
  facet normal  1.020052e-01 -3.806899e-01 -9.190593e-01
    outer loop
      vertex   0.000000e+00  2.588191e-01  5.945946e+00
      vertex  -2.500000e-01  4.330130e-01  5.846045e+00
      vertex   0.000000e+00  5.000000e-01  5.846045e+00
    endloop
  endfacet
  facet normal  2.786846e-01 -2.786846e-01 -9.190592e-01
    outer loop
      vertex  -1.294100e-01  2.241440e-01  5.945946e+00
      vertex  -2.241440e-01  1.294100e-01  5.945946e+00
      vertex  -4.330130e-01  2.500000e-01  5.846045e+00
    endloop
  endfacet
  facet normal  2.786846e-01 -2.786846e-01 -9.190592e-01
    outer loop
      vertex  -1.294100e-01  2.241440e-01  5.945946e+00
      vertex  -4.330130e-01  2.500000e-01  5.846045e+00
      vertex  -2.500000e-01  4.330130e-01  5.846045e+00
    endloop
  endfacet
  facet normal  3.806899e-01 -1.020050e-01 -9.190594e-01
    outer loop
      vertex  -2.241440e-01  1.294100e-01  5.945946e+00
      vertex  -2.588191e-01  0.000000e+00  5.945946e+00
      vertex  -5.000000e-01  0.000000e+00  5.846045e+00
    endloop
  endfacet
  facet normal  3.806900e-01 -1.020052e-01 -9.190593e-01
    outer loop
      vertex  -2.241440e-01  1.294100e-01  5.945946e+00
      vertex  -5.000000e-01  0.000000e+00  5.846045e+00
      vertex  -4.330130e-01  2.500000e-01  5.846045e+00
    endloop
  endfacet
  facet normal  3.806901e-01  1.020050e-01 -9.190594e-01
    outer loop
      vertex  -2.588191e-01  0.000000e+00  5.945946e+00
      vertex  -2.241440e-01 -1.294100e-01  5.945946e+00
      vertex  -4.330130e-01 -2.500000e-01  5.846045e+00
    endloop
  endfacet
  facet normal  3.806899e-01  1.020052e-01 -9.190593e-01
    outer loop
      vertex  -2.588191e-01  0.000000e+00  5.945946e+00
      vertex  -4.330130e-01 -2.500000e-01  5.846045e+00
      vertex  -5.000000e-01  0.000000e+00  5.846045e+00
    endloop
  endfacet
  facet normal  2.786846e-01  2.786846e-01 -9.190592e-01
    outer loop
      vertex  -2.241440e-01 -1.294100e-01  5.945946e+00
      vertex  -1.294100e-01 -2.241440e-01  5.945946e+00
      vertex  -2.500000e-01 -4.330130e-01  5.846045e+00
    endloop
  endfacet
  facet normal  2.786846e-01  2.786846e-01 -9.190592e-01
    outer loop
      vertex  -2.241440e-01 -1.294100e-01  5.945946e+00
      vertex  -2.500000e-01 -4.330130e-01  5.846045e+00
      vertex  -4.330130e-01 -2.500000e-01  5.846045e+00
    endloop
  endfacet
  facet normal  1.020050e-01  3.806899e-01 -9.190594e-01
    outer loop
      vertex  -1.294100e-01 -2.241440e-01  5.945946e+00
      vertex   0.000000e+00 -2.588191e-01  5.945946e+00
      vertex   0.000000e+00 -5.000000e-01  5.846045e+00
    endloop
  endfacet
  facet normal  1.020052e-01  3.806900e-01 -9.190593e-01
    outer loop
      vertex  -1.294100e-01 -2.241440e-01  5.945946e+00
      vertex   0.000000e+00 -5.000000e-01  5.846045e+00
      vertex  -2.500000e-01 -4.330130e-01  5.846045e+00
    endloop
  endfacet
  facet normal -1.020050e-01  3.806901e-01 -9.190594e-01
    outer loop
      vertex   0.000000e+00 -2.588191e-01  5.945946e+00
      vertex   1.294100e-01 -2.241440e-01  5.945946e+00
      vertex   2.500000e-01 -4.330130e-01  5.846045e+00
    endloop
  endfacet
  facet normal -1.020052e-01  3.806899e-01 -9.190593e-01
    outer loop
      vertex   0.000000e+00 -2.588191e-01  5.945946e+00
      vertex   2.500000e-01 -4.330130e-01  5.846045e+00
      vertex   0.000000e+00 -5.000000e-01  5.846045e+00
    endloop
  endfacet
  facet normal -2.786846e-01  2.786846e-01 -9.190592e-01
    outer loop
      vertex   1.294100e-01 -2.241440e-01  5.945946e+00
      vertex   2.241440e-01 -1.294100e-01  5.945946e+00
      vertex   4.330130e-01 -2.500000e-01  5.846045e+00
    endloop
  endfacet
  facet normal -2.786846e-01  2.786846e-01 -9.190592e-01
    outer loop
      vertex   1.294100e-01 -2.241440e-01  5.945946e+00
      vertex   4.330130e-01 -2.500000e-01  5.846045e+00
      vertex   2.500000e-01 -4.330130e-01  5.846045e+00
    endloop
  endfacet
  facet normal -3.806897e-01  1.020046e-01 -9.190595e-01
    outer loop
      vertex   2.241440e-01 -1.294100e-01  5.945946e+00
      vertex   2.588190e-01  0.000000e+00  5.945946e+00
      vertex   5.000000e-01  0.000000e+00  5.846045e+00
    endloop
  endfacet
  facet normal -3.806900e-01  1.020052e-01 -9.190593e-01
    outer loop
      vertex   2.241440e-01 -1.294100e-01  5.945946e+00
      vertex   5.000000e-01  0.000000e+00  5.846045e+00
      vertex   4.330130e-01 -2.500000e-01  5.846045e+00
    endloop
  endfacet
  facet normal -6.008207e-01 -1.609888e-01 -7.830052e-01
    outer loop
      vertex   5.000000e-01  0.000000e+00  5.846045e+00
      vertex   4.330130e-01  2.500000e-01  5.846045e+00
      vertex   6.123720e-01  3.535531e-01  5.687127e+00
    endloop
  endfacet
  facet normal -6.008188e-01 -1.609900e-01 -7.830064e-01
    outer loop
      vertex   5.000000e-01  0.000000e+00  5.846045e+00
      vertex   6.123720e-01  3.535531e-01  5.687127e+00
      vertex   7.071069e-01  0.000000e+00  5.687127e+00
    endloop
  endfacet
  facet normal -4.398312e-01 -4.398312e-01 -7.830051e-01
    outer loop
      vertex   4.330130e-01  2.500000e-01  5.846045e+00
      vertex   2.500000e-01  4.330130e-01  5.846045e+00
      vertex   3.535531e-01  6.123719e-01  5.687127e+00
    endloop
  endfacet
  facet normal -4.398310e-01 -4.398312e-01 -7.830052e-01
    outer loop
      vertex   4.330130e-01  2.500000e-01  5.846045e+00
      vertex   3.535531e-01  6.123719e-01  5.687127e+00
      vertex   6.123720e-01  3.535531e-01  5.687127e+00
    endloop
  endfacet
  facet normal -1.609883e-01 -6.008187e-01 -7.830068e-01
    outer loop
      vertex   2.500000e-01  4.330130e-01  5.846045e+00
      vertex   0.000000e+00  5.000000e-01  5.846045e+00
      vertex   0.000000e+00  7.071071e-01  5.687127e+00
    endloop
  endfacet
  facet normal -1.609908e-01 -6.008200e-01 -7.830052e-01
    outer loop
      vertex   2.500000e-01  4.330130e-01  5.846045e+00
      vertex   0.000000e+00  7.071071e-01  5.687127e+00
      vertex   3.535531e-01  6.123719e-01  5.687127e+00
    endloop
  endfacet
  facet normal  1.609889e-01 -6.008210e-01 -7.830050e-01
    outer loop
      vertex   0.000000e+00  5.000000e-01  5.846045e+00
      vertex  -2.500000e-01  4.330130e-01  5.846045e+00
      vertex  -3.535531e-01  6.123719e-01  5.687127e+00
    endloop
  endfacet
  facet normal  1.609903e-01 -6.008185e-01 -7.830065e-01
    outer loop
      vertex   0.000000e+00  5.000000e-01  5.846045e+00
      vertex  -3.535531e-01  6.123719e-01  5.687127e+00
      vertex   0.000000e+00  7.071071e-01  5.687127e+00
    endloop
  endfacet
  facet normal  4.398312e-01 -4.398312e-01 -7.830051e-01
    outer loop
      vertex  -2.500000e-01  4.330130e-01  5.846045e+00
      vertex  -4.330130e-01  2.500000e-01  5.846045e+00
      vertex  -6.123719e-01  3.535531e-01  5.687127e+00
    endloop
  endfacet
  facet normal  4.398312e-01 -4.398312e-01 -7.830051e-01
    outer loop
      vertex  -2.500000e-01  4.330130e-01  5.846045e+00
      vertex  -6.123719e-01  3.535531e-01  5.687127e+00
      vertex  -3.535531e-01  6.123719e-01  5.687127e+00
    endloop
  endfacet
  facet normal  6.008187e-01 -1.609883e-01 -7.830068e-01
    outer loop
      vertex  -4.330130e-01  2.500000e-01  5.846045e+00
      vertex  -5.000000e-01  0.000000e+00  5.846045e+00
      vertex  -7.071071e-01  0.000000e+00  5.687127e+00
    endloop
  endfacet
  facet normal  6.008200e-01 -1.609908e-01 -7.830052e-01
    outer loop
      vertex  -4.330130e-01  2.500000e-01  5.846045e+00
      vertex  -7.071071e-01  0.000000e+00  5.687127e+00
      vertex  -6.123719e-01  3.535531e-01  5.687127e+00
    endloop
  endfacet
  facet normal  6.008210e-01  1.609889e-01 -7.830050e-01
    outer loop
      vertex  -5.000000e-01  0.000000e+00  5.846045e+00
      vertex  -4.330130e-01 -2.500000e-01  5.846045e+00
      vertex  -6.123719e-01 -3.535531e-01  5.687127e+00
    endloop
  endfacet
  facet normal  6.008185e-01  1.609903e-01 -7.830065e-01
    outer loop
      vertex  -5.000000e-01  0.000000e+00  5.846045e+00
      vertex  -6.123719e-01 -3.535531e-01  5.687127e+00
      vertex  -7.071071e-01  0.000000e+00  5.687127e+00
    endloop
  endfacet
  facet normal  4.398312e-01  4.398312e-01 -7.830051e-01
    outer loop
      vertex  -4.330130e-01 -2.500000e-01  5.846045e+00
      vertex  -2.500000e-01 -4.330130e-01  5.846045e+00
      vertex  -3.535531e-01 -6.123719e-01  5.687127e+00
    endloop
  endfacet
  facet normal  4.398312e-01  4.398312e-01 -7.830051e-01
    outer loop
      vertex  -4.330130e-01 -2.500000e-01  5.846045e+00
      vertex  -3.535531e-01 -6.123719e-01  5.687127e+00
      vertex  -6.123719e-01 -3.535531e-01  5.687127e+00
    endloop
  endfacet
  facet normal  1.609883e-01  6.008187e-01 -7.830068e-01
    outer loop
      vertex  -2.500000e-01 -4.330130e-01  5.846045e+00
      vertex   0.000000e+00 -5.000000e-01  5.846045e+00
      vertex   0.000000e+00 -7.071071e-01  5.687127e+00
    endloop
  endfacet
  facet normal  1.609908e-01  6.008200e-01 -7.830052e-01
    outer loop
      vertex  -2.500000e-01 -4.330130e-01  5.846045e+00
      vertex   0.000000e+00 -7.071071e-01  5.687127e+00
      vertex  -3.535531e-01 -6.123719e-01  5.687127e+00
    endloop
  endfacet
  facet normal -1.609889e-01  6.008210e-01 -7.830050e-01
    outer loop
      vertex   0.000000e+00 -5.000000e-01  5.846045e+00
      vertex   2.500000e-01 -4.330130e-01  5.846045e+00
      vertex   3.535531e-01 -6.123719e-01  5.687127e+00
    endloop
  endfacet
  facet normal -1.609903e-01  6.008185e-01 -7.830065e-01
    outer loop
      vertex   0.000000e+00 -5.000000e-01  5.846045e+00
      vertex   3.535531e-01 -6.123719e-01  5.687127e+00
      vertex   0.000000e+00 -7.071071e-01  5.687127e+00
    endloop
  endfacet
  facet normal -4.398311e-01  4.398311e-01 -7.830052e-01
    outer loop
      vertex   2.500000e-01 -4.330130e-01  5.846045e+00
      vertex   4.330130e-01 -2.500000e-01  5.846045e+00
      vertex   6.123720e-01 -3.535531e-01  5.687127e+00
    endloop
  endfacet
  facet normal -4.398311e-01  4.398313e-01 -7.830052e-01
    outer loop
      vertex   2.500000e-01 -4.330130e-01  5.846045e+00
      vertex   6.123720e-01 -3.535531e-01  5.687127e+00
      vertex   3.535531e-01 -6.123719e-01  5.687127e+00
    endloop
  endfacet
  facet normal -6.008189e-01  1.609883e-01 -7.830066e-01
    outer loop
      vertex   4.330130e-01 -2.500000e-01  5.846045e+00
      vertex   5.000000e-01  0.000000e+00  5.846045e+00
      vertex   7.071069e-01  0.000000e+00  5.687127e+00
    endloop
  endfacet
  facet normal -6.008200e-01  1.609903e-01 -7.830054e-01
    outer loop
      vertex   4.330130e-01 -2.500000e-01  5.846045e+00
      vertex   7.071069e-01  0.000000e+00  5.687127e+00
      vertex   6.123720e-01 -3.535531e-01  5.687127e+00
    endloop
  endfacet
  facet normal -7.760121e-01 -2.079333e-01 -5.954569e-01
    outer loop
      vertex   7.071069e-01  0.000000e+00  5.687127e+00
      vertex   6.123720e-01  3.535531e-01  5.687127e+00
      vertex   7.500000e-01  4.330130e-01  5.480020e+00
    endloop
  endfacet
  facet normal -7.760148e-01 -2.079316e-01 -5.954540e-01
    outer loop
      vertex   7.071069e-01  0.000000e+00  5.687127e+00
      vertex   7.500000e-01  4.330130e-01  5.480020e+00
      vertex   8.660250e-01  0.000000e+00  5.480020e+00
    endloop
  endfacet
  facet normal -5.680802e-01 -5.680805e-01 -5.954574e-01
    outer loop
      vertex   6.123720e-01  3.535531e-01  5.687127e+00
      vertex   3.535531e-01  6.123719e-01  5.687127e+00
      vertex   4.330130e-01  7.500000e-01  5.480020e+00
    endloop
  endfacet
  facet normal -5.680805e-01 -5.680805e-01 -5.954571e-01
    outer loop
      vertex   6.123720e-01  3.535531e-01  5.687127e+00
      vertex   4.330130e-01  7.500000e-01  5.480020e+00
      vertex   7.500000e-01  4.330130e-01  5.480020e+00
    endloop
  endfacet
  facet normal -2.079344e-01 -7.760145e-01 -5.954533e-01
    outer loop
      vertex   3.535531e-01  6.123719e-01  5.687127e+00
      vertex   0.000000e+00  7.071071e-01  5.687127e+00
      vertex   0.000000e+00  8.660250e-01  5.480020e+00
    endloop
  endfacet
  facet normal -2.079311e-01 -7.760127e-01 -5.954569e-01
    outer loop
      vertex   3.535531e-01  6.123719e-01  5.687127e+00
      vertex   0.000000e+00  8.660250e-01  5.480020e+00
      vertex   4.330130e-01  7.500000e-01  5.480020e+00
    endloop
  endfacet
  facet normal  2.079337e-01 -7.760118e-01 -5.954573e-01
    outer loop
      vertex   0.000000e+00  7.071071e-01  5.687127e+00
      vertex  -3.535531e-01  6.123719e-01  5.687127e+00
      vertex  -4.330130e-01  7.500000e-01  5.480020e+00
    endloop
  endfacet
  facet normal  2.079317e-01 -7.760150e-01 -5.954537e-01
    outer loop
      vertex   0.000000e+00  7.071071e-01  5.687127e+00
      vertex  -4.330130e-01  7.500000e-01  5.480020e+00
      vertex   0.000000e+00  8.660250e-01  5.480020e+00
    endloop
  endfacet
  facet normal  5.680804e-01 -5.680804e-01 -5.954573e-01
    outer loop
      vertex  -3.535531e-01  6.123719e-01  5.687127e+00
      vertex  -6.123719e-01  3.535531e-01  5.687127e+00
      vertex  -7.500000e-01  4.330130e-01  5.480020e+00
    endloop
  endfacet
  facet normal  5.680804e-01 -5.680804e-01 -5.954573e-01
    outer loop
      vertex  -3.535531e-01  6.123719e-01  5.687127e+00
      vertex  -7.500000e-01  4.330130e-01  5.480020e+00
      vertex  -4.330130e-01  7.500000e-01  5.480020e+00
    endloop
  endfacet
  facet normal  7.760145e-01 -2.079344e-01 -5.954533e-01
    outer loop
      vertex  -6.123719e-01  3.535531e-01  5.687127e+00
      vertex  -7.071071e-01  0.000000e+00  5.687127e+00
      vertex  -8.660250e-01  0.000000e+00  5.480020e+00
    endloop
  endfacet
  facet normal  7.760127e-01 -2.079311e-01 -5.954569e-01
    outer loop
      vertex  -6.123719e-01  3.535531e-01  5.687127e+00
      vertex  -8.660250e-01  0.000000e+00  5.480020e+00
      vertex  -7.500000e-01  4.330130e-01  5.480020e+00
    endloop
  endfacet
  facet normal  7.760118e-01  2.079337e-01 -5.954573e-01
    outer loop
      vertex  -7.071071e-01  0.000000e+00  5.687127e+00
      vertex  -6.123719e-01 -3.535531e-01  5.687127e+00
      vertex  -7.500000e-01 -4.330130e-01  5.480020e+00
    endloop
  endfacet
  facet normal  7.760150e-01  2.079317e-01 -5.954537e-01
    outer loop
      vertex  -7.071071e-01  0.000000e+00  5.687127e+00
      vertex  -7.500000e-01 -4.330130e-01  5.480020e+00
      vertex  -8.660250e-01  0.000000e+00  5.480020e+00
    endloop
  endfacet
  facet normal  5.680804e-01  5.680804e-01 -5.954573e-01
    outer loop
      vertex  -6.123719e-01 -3.535531e-01  5.687127e+00
      vertex  -3.535531e-01 -6.123719e-01  5.687127e+00
      vertex  -4.330130e-01 -7.500000e-01  5.480020e+00
    endloop
  endfacet
  facet normal  5.680804e-01  5.680804e-01 -5.954573e-01
    outer loop
      vertex  -6.123719e-01 -3.535531e-01  5.687127e+00
      vertex  -4.330130e-01 -7.500000e-01  5.480020e+00
      vertex  -7.500000e-01 -4.330130e-01  5.480020e+00
    endloop
  endfacet
  facet normal  2.079344e-01  7.760145e-01 -5.954533e-01
    outer loop
      vertex  -3.535531e-01 -6.123719e-01  5.687127e+00
      vertex   0.000000e+00 -7.071071e-01  5.687127e+00
      vertex   0.000000e+00 -8.660250e-01  5.480020e+00
    endloop
  endfacet
  facet normal  2.079311e-01  7.760127e-01 -5.954569e-01
    outer loop
      vertex  -3.535531e-01 -6.123719e-01  5.687127e+00
      vertex   0.000000e+00 -8.660250e-01  5.480020e+00
      vertex  -4.330130e-01 -7.500000e-01  5.480020e+00
    endloop
  endfacet
  facet normal -2.079337e-01  7.760118e-01 -5.954573e-01
    outer loop
      vertex   0.000000e+00 -7.071071e-01  5.687127e+00
      vertex   3.535531e-01 -6.123719e-01  5.687127e+00
      vertex   4.330130e-01 -7.500000e-01  5.480020e+00
    endloop
  endfacet
  facet normal -2.079317e-01  7.760150e-01 -5.954537e-01
    outer loop
      vertex   0.000000e+00 -7.071071e-01  5.687127e+00
      vertex   4.330130e-01 -7.500000e-01  5.480020e+00
      vertex   0.000000e+00 -8.660250e-01  5.480020e+00
    endloop
  endfacet
  facet normal -5.680803e-01  5.680805e-01 -5.954571e-01
    outer loop
      vertex   3.535531e-01 -6.123719e-01  5.687127e+00
      vertex   6.123720e-01 -3.535531e-01  5.687127e+00
      vertex   7.500000e-01 -4.330130e-01  5.480020e+00
    endloop
  endfacet
  facet normal -5.680804e-01  5.680804e-01 -5.954573e-01
    outer loop
      vertex   3.535531e-01 -6.123719e-01  5.687127e+00
      vertex   7.500000e-01 -4.330130e-01  5.480020e+00
      vertex   4.330130e-01 -7.500000e-01  5.480020e+00
    endloop
  endfacet
  facet normal -7.760144e-01  2.079339e-01 -5.954537e-01
    outer loop
      vertex   6.123720e-01 -3.535531e-01  5.687127e+00
      vertex   7.071069e-01  0.000000e+00  5.687127e+00
      vertex   8.660250e-01  0.000000e+00  5.480020e+00
    endloop
  endfacet
  facet normal -7.760130e-01  2.079311e-01 -5.954566e-01
    outer loop
      vertex   6.123720e-01 -3.535531e-01  5.687127e+00
      vertex   8.660250e-01  0.000000e+00  5.480020e+00
      vertex   7.500000e-01 -4.330130e-01  5.480020e+00
    endloop
  endfacet
  facet normal -8.968095e-01 -2.402983e-01 -3.714694e-01
    outer loop
      vertex   8.660250e-01  0.000000e+00  5.480020e+00
      vertex   7.500000e-01  4.330130e-01  5.480020e+00
      vertex   8.365160e-01  4.829631e-01  5.238839e+00
    endloop
  endfacet
  facet normal -8.968078e-01 -2.402998e-01 -3.714725e-01
    outer loop
      vertex   8.660250e-01  0.000000e+00  5.480020e+00
      vertex   8.365160e-01  4.829631e-01  5.238839e+00
      vertex   9.659261e-01  0.000000e+00  5.238839e+00
    endloop
  endfacet
  facet normal -6.565100e-01 -6.565100e-01 -3.714691e-01
    outer loop
      vertex   7.500000e-01  4.330130e-01  5.480020e+00
      vertex   4.330130e-01  7.500000e-01  5.480020e+00
      vertex   4.829630e-01  8.365159e-01  5.238839e+00
    endloop
  endfacet
  facet normal -6.565096e-01 -6.565100e-01 -3.714695e-01
    outer loop
      vertex   7.500000e-01  4.330130e-01  5.480020e+00
      vertex   4.829630e-01  8.365159e-01  5.238839e+00
      vertex   8.365160e-01  4.829631e-01  5.238839e+00
    endloop
  endfacet
  facet normal -2.402980e-01 -8.968084e-01 -3.714723e-01
    outer loop
      vertex   4.330130e-01  7.500000e-01  5.480020e+00
      vertex   0.000000e+00  8.660250e-01  5.480020e+00
      vertex   0.000000e+00  9.659259e-01  5.238839e+00
    endloop
  endfacet
  facet normal -2.403002e-01 -8.968091e-01 -3.714691e-01
    outer loop
      vertex   4.330130e-01  7.500000e-01  5.480020e+00
      vertex   0.000000e+00  9.659259e-01  5.238839e+00
      vertex   4.829630e-01  8.365159e-01  5.238839e+00
    endloop
  endfacet
  facet normal  2.402984e-01 -8.968096e-01 -3.714690e-01
    outer loop
      vertex   0.000000e+00  8.660250e-01  5.480020e+00
      vertex  -4.330130e-01  7.500000e-01  5.480020e+00
      vertex  -4.829631e-01  8.365159e-01  5.238839e+00
    endloop
  endfacet
  facet normal  2.402998e-01 -8.968079e-01 -3.714721e-01
    outer loop
      vertex   0.000000e+00  8.660250e-01  5.480020e+00
      vertex  -4.829631e-01  8.365159e-01  5.238839e+00
      vertex   0.000000e+00  9.659259e-01  5.238839e+00
    endloop
  endfacet
  facet normal  6.565099e-01 -6.565099e-01 -3.714693e-01
    outer loop
      vertex  -4.330130e-01  7.500000e-01  5.480020e+00
      vertex  -7.500000e-01  4.330130e-01  5.480020e+00
      vertex  -8.365159e-01  4.829631e-01  5.238839e+00
    endloop
  endfacet
  facet normal  6.565099e-01 -6.565099e-01 -3.714693e-01
    outer loop
      vertex  -4.330130e-01  7.500000e-01  5.480020e+00
      vertex  -8.365159e-01  4.829631e-01  5.238839e+00
      vertex  -4.829631e-01  8.365159e-01  5.238839e+00
    endloop
  endfacet
  facet normal  8.968084e-01 -2.402980e-01 -3.714723e-01
    outer loop
      vertex  -7.500000e-01  4.330130e-01  5.480020e+00
      vertex  -8.660250e-01  0.000000e+00  5.480020e+00
      vertex  -9.659259e-01  0.000000e+00  5.238839e+00
    endloop
  endfacet
  facet normal  8.968091e-01 -2.403002e-01 -3.714692e-01
    outer loop
      vertex  -7.500000e-01  4.330130e-01  5.480020e+00
      vertex  -9.659259e-01  0.000000e+00  5.238839e+00
      vertex  -8.365159e-01  4.829631e-01  5.238839e+00
    endloop
  endfacet
  facet normal  8.968096e-01  2.402984e-01 -3.714690e-01
    outer loop
      vertex  -8.660250e-01  0.000000e+00  5.480020e+00
      vertex  -7.500000e-01 -4.330130e-01  5.480020e+00
      vertex  -8.365159e-01 -4.829631e-01  5.238839e+00
    endloop
  endfacet
  facet normal  8.968079e-01  2.402998e-01 -3.714721e-01
    outer loop
      vertex  -8.660250e-01  0.000000e+00  5.480020e+00
      vertex  -8.365159e-01 -4.829631e-01  5.238839e+00
      vertex  -9.659259e-01  0.000000e+00  5.238839e+00
    endloop
  endfacet
  facet normal  6.565099e-01  6.565099e-01 -3.714693e-01
    outer loop
      vertex  -7.500000e-01 -4.330130e-01  5.480020e+00
      vertex  -4.330130e-01 -7.500000e-01  5.480020e+00
      vertex  -4.829631e-01 -8.365159e-01  5.238839e+00
    endloop
  endfacet
  facet normal  6.565099e-01  6.565099e-01 -3.714693e-01
    outer loop
      vertex  -7.500000e-01 -4.330130e-01  5.480020e+00
      vertex  -4.829631e-01 -8.365159e-01  5.238839e+00
      vertex  -8.365159e-01 -4.829631e-01  5.238839e+00
    endloop
  endfacet
  facet normal  2.402980e-01  8.968081e-01 -3.714731e-01
    outer loop
      vertex  -4.330130e-01 -7.500000e-01  5.480020e+00
      vertex   0.000000e+00 -8.660250e-01  5.480020e+00
      vertex   0.000000e+00 -9.659262e-01  5.238839e+00
    endloop
  endfacet
  facet normal  2.403005e-01  8.968089e-01 -3.714692e-01
    outer loop
      vertex  -4.330130e-01 -7.500000e-01  5.480020e+00
      vertex   0.000000e+00 -9.659262e-01  5.238839e+00
      vertex  -4.829631e-01 -8.365159e-01  5.238839e+00
    endloop
  endfacet
  facet normal -2.402984e-01  8.968097e-01 -3.714689e-01
    outer loop
      vertex   0.000000e+00 -8.660250e-01  5.480020e+00
      vertex   4.330130e-01 -7.500000e-01  5.480020e+00
      vertex   4.829630e-01 -8.365159e-01  5.238839e+00
    endloop
  endfacet
  facet normal -2.403002e-01  8.968076e-01 -3.714728e-01
    outer loop
      vertex   0.000000e+00 -8.660250e-01  5.480020e+00
      vertex   4.829630e-01 -8.365159e-01  5.238839e+00
      vertex   0.000000e+00 -9.659262e-01  5.238839e+00
    endloop
  endfacet
  facet normal -6.565098e-01  6.565098e-01 -3.714696e-01
    outer loop
      vertex   4.330130e-01 -7.500000e-01  5.480020e+00
      vertex   7.500000e-01 -4.330130e-01  5.480020e+00
      vertex   8.365160e-01 -4.829631e-01  5.238839e+00
    endloop
  endfacet
  facet normal -6.565098e-01  6.565102e-01 -3.714691e-01
    outer loop
      vertex   4.330130e-01 -7.500000e-01  5.480020e+00
      vertex   8.365160e-01 -4.829631e-01  5.238839e+00
      vertex   4.829630e-01 -8.365159e-01  5.238839e+00
    endloop
  endfacet
  facet normal -8.968082e-01  2.402980e-01 -3.714727e-01
    outer loop
      vertex   7.500000e-01 -4.330130e-01  5.480020e+00
      vertex   8.660250e-01  0.000000e+00  5.480020e+00
      vertex   9.659261e-01  0.000000e+00  5.238839e+00
    endloop
  endfacet
  facet normal -8.968089e-01  2.403001e-01 -3.714695e-01
    outer loop
      vertex   7.500000e-01 -4.330130e-01  5.480020e+00
      vertex   9.659261e-01  0.000000e+00  5.238839e+00
      vertex   8.365160e-01 -4.829631e-01  5.238839e+00
    endloop
  endfacet
  facet normal -9.582090e-01 -2.567522e-01 -1.261499e-01
    outer loop
      vertex   9.659261e-01  0.000000e+00  5.238839e+00
      vertex   8.365160e-01  4.829631e-01  5.238839e+00
      vertex   8.660250e-01  5.000000e-01  4.980020e+00
    endloop
  endfacet
  facet normal -9.582090e-01 -2.567522e-01 -1.261497e-01
    outer loop
      vertex   9.659261e-01  0.000000e+00  5.238839e+00
      vertex   8.660250e-01  5.000000e-01  4.980020e+00
      vertex   1.000000e+00  0.000000e+00  4.980020e+00
    endloop
  endfacet
  facet normal -7.014576e-01 -7.014580e-01 -1.261504e-01
    outer loop
      vertex   8.365160e-01  4.829631e-01  5.238839e+00
      vertex   4.829630e-01  8.365159e-01  5.238839e+00
      vertex   5.000000e-01  8.660250e-01  4.980020e+00
    endloop
  endfacet
  facet normal -7.014579e-01 -7.014578e-01 -1.261497e-01
    outer loop
      vertex   8.365160e-01  4.829631e-01  5.238839e+00
      vertex   5.000000e-01  8.660250e-01  4.980020e+00
      vertex   8.660250e-01  5.000000e-01  4.980020e+00
    endloop
  endfacet
  facet normal -2.567523e-01 -9.582089e-01 -1.261501e-01
    outer loop
      vertex   4.829630e-01  8.365159e-01  5.238839e+00
      vertex   0.000000e+00  9.659259e-01  5.238839e+00
      vertex   0.000000e+00  1.000000e+00  4.980020e+00
    endloop
  endfacet
  facet normal -2.567521e-01 -9.582089e-01 -1.261504e-01
    outer loop
      vertex   4.829630e-01  8.365159e-01  5.238839e+00
      vertex   0.000000e+00  1.000000e+00  4.980020e+00
      vertex   5.000000e-01  8.660250e-01  4.980020e+00
    endloop
  endfacet
  facet normal  2.567522e-01 -9.582089e-01 -1.261503e-01
    outer loop
      vertex   0.000000e+00  9.659259e-01  5.238839e+00
      vertex  -4.829631e-01  8.365159e-01  5.238839e+00
      vertex  -5.000000e-01  8.660250e-01  4.980020e+00
    endloop
  endfacet
  facet normal  2.567522e-01 -9.582090e-01 -1.261502e-01
    outer loop
      vertex   0.000000e+00  9.659259e-01  5.238839e+00
      vertex  -5.000000e-01  8.660250e-01  4.980020e+00
      vertex   0.000000e+00  1.000000e+00  4.980020e+00
    endloop
  endfacet
  facet normal  7.014579e-01 -7.014579e-01 -1.261501e-01
    outer loop
      vertex  -4.829631e-01  8.365159e-01  5.238839e+00
      vertex  -8.365159e-01  4.829631e-01  5.238839e+00
      vertex  -8.660250e-01  5.000000e-01  4.980020e+00
    endloop
  endfacet
  facet normal  7.014577e-01 -7.014578e-01 -1.261501e-01
    outer loop
      vertex  -4.829631e-01  8.365159e-01  5.238839e+00
      vertex  -8.660250e-01  5.000000e-01  4.980020e+00
      vertex  -5.000000e-01  8.660250e-01  4.980020e+00
    endloop
  endfacet
  facet normal  9.582089e-01 -2.567522e-01 -1.261502e-01
    outer loop
      vertex  -8.365159e-01  4.829631e-01  5.238839e+00
      vertex  -9.659259e-01  0.000000e+00  5.238839e+00
      vertex  -1.000000e+00  0.000000e+00  4.980020e+00
    endloop
  endfacet
  facet normal  9.582089e-01 -2.567521e-01 -1.261503e-01
    outer loop
      vertex  -8.365159e-01  4.829631e-01  5.238839e+00
      vertex  -1.000000e+00  0.000000e+00  4.980020e+00
      vertex  -8.660250e-01  5.000000e-01  4.980020e+00
    endloop
  endfacet
  facet normal  9.582089e-01  2.567522e-01 -1.261503e-01
    outer loop
      vertex  -9.659259e-01  0.000000e+00  5.238839e+00
      vertex  -8.365159e-01 -4.829631e-01  5.238839e+00
      vertex  -8.660250e-01 -5.000000e-01  4.980020e+00
    endloop
  endfacet
  facet normal  9.582090e-01  2.567522e-01 -1.261502e-01
    outer loop
      vertex  -9.659259e-01  0.000000e+00  5.238839e+00
      vertex  -8.660250e-01 -5.000000e-01  4.980020e+00
      vertex  -1.000000e+00  0.000000e+00  4.980020e+00
    endloop
  endfacet
  facet normal  7.014579e-01  7.014579e-01 -1.261501e-01
    outer loop
      vertex  -8.365159e-01 -4.829631e-01  5.238839e+00
      vertex  -4.829631e-01 -8.365159e-01  5.238839e+00
      vertex  -5.000000e-01 -8.660250e-01  4.980020e+00
    endloop
  endfacet
  facet normal  7.014578e-01  7.014577e-01 -1.261501e-01
    outer loop
      vertex  -8.365159e-01 -4.829631e-01  5.238839e+00
      vertex  -5.000000e-01 -8.660250e-01  4.980020e+00
      vertex  -8.660250e-01 -5.000000e-01  4.980020e+00
    endloop
  endfacet
  facet normal  2.567527e-01  9.582089e-01 -1.261493e-01
    outer loop
      vertex  -4.829631e-01 -8.365159e-01  5.238839e+00
      vertex   0.000000e+00 -9.659262e-01  5.238839e+00
      vertex   0.000000e+00 -1.000000e+00  4.980020e+00
    endloop
  endfacet
  facet normal  2.567521e-01  9.582089e-01 -1.261503e-01
    outer loop
      vertex  -4.829631e-01 -8.365159e-01  5.238839e+00
      vertex   0.000000e+00 -1.000000e+00  4.980020e+00
      vertex  -5.000000e-01 -8.660250e-01  4.980020e+00
    endloop
  endfacet
  facet normal -2.567527e-01  9.582088e-01 -1.261505e-01
    outer loop
      vertex   0.000000e+00 -9.659262e-01  5.238839e+00
      vertex   4.829630e-01 -8.365159e-01  5.238839e+00
      vertex   5.000000e-01 -8.660250e-01  4.980020e+00
    endloop
  endfacet
  facet normal -2.567522e-01  9.582091e-01 -1.261493e-01
    outer loop
      vertex   0.000000e+00 -9.659262e-01  5.238839e+00
      vertex   5.000000e-01 -8.660250e-01  4.980020e+00
      vertex   0.000000e+00 -1.000000e+00  4.980020e+00
    endloop
  endfacet
  facet normal -7.014576e-01  7.014582e-01 -1.261497e-01
    outer loop
      vertex   4.829630e-01 -8.365159e-01  5.238839e+00
      vertex   8.365160e-01 -4.829631e-01  5.238839e+00
      vertex   8.660250e-01 -5.000000e-01  4.980020e+00
    endloop
  endfacet
  facet normal -7.014577e-01  7.014578e-01 -1.261504e-01
    outer loop
      vertex   4.829630e-01 -8.365159e-01  5.238839e+00
      vertex   8.660250e-01 -5.000000e-01  4.980020e+00
      vertex   5.000000e-01 -8.660250e-01  4.980020e+00
    endloop
  endfacet
  facet normal -9.582090e-01  2.567522e-01 -1.261497e-01
    outer loop
      vertex   8.365160e-01 -4.829631e-01  5.238839e+00
      vertex   9.659261e-01  0.000000e+00  5.238839e+00
      vertex   1.000000e+00  0.000000e+00  4.980020e+00
    endloop
  endfacet
  facet normal -9.582090e-01  2.567522e-01 -1.261499e-01
    outer loop
      vertex   8.365160e-01 -4.829631e-01  5.238839e+00
      vertex   1.000000e+00  0.000000e+00  4.980020e+00
      vertex   8.660250e-01 -5.000000e-01  4.980020e+00
    endloop
  endfacet
  facet normal -9.582093e-01 -2.567522e-01  1.261481e-01
    outer loop
      vertex   1.000000e+00  0.000000e+00  4.980020e+00
      vertex   8.660250e-01  5.000000e-01  4.980020e+00
      vertex   8.365160e-01  4.829631e-01  4.721197e+00
    endloop
  endfacet
  facet normal -9.582092e-01 -2.567523e-01  1.261479e-01
    outer loop
      vertex   1.000000e+00  0.000000e+00  4.980020e+00
      vertex   8.365160e-01  4.829631e-01  4.721197e+00
      vertex   9.659261e-01  0.000000e+00  4.721197e+00
    endloop
  endfacet
  facet normal -7.014580e-01 -7.014580e-01  1.261485e-01
    outer loop
      vertex   8.660250e-01  5.000000e-01  4.980020e+00
      vertex   5.000000e-01  8.660250e-01  4.980020e+00
      vertex   4.829630e-01  8.365159e-01  4.721197e+00
    endloop
  endfacet
  facet normal -7.014578e-01 -7.014583e-01  1.261479e-01
    outer loop
      vertex   8.660250e-01  5.000000e-01  4.980020e+00
      vertex   4.829630e-01  8.365159e-01  4.721197e+00
      vertex   8.365160e-01  4.829631e-01  4.721197e+00
    endloop
  endfacet
  facet normal -2.567522e-01 -9.582093e-01  1.261484e-01
    outer loop
      vertex   5.000000e-01  8.660250e-01  4.980020e+00
      vertex   0.000000e+00  1.000000e+00  4.980020e+00
      vertex   0.000000e+00  9.659259e-01  4.721197e+00
    endloop
  endfacet
  facet normal -2.567524e-01 -9.582092e-01  1.261486e-01
    outer loop
      vertex   5.000000e-01  8.660250e-01  4.980020e+00
      vertex   0.000000e+00  9.659259e-01  4.721197e+00
      vertex   4.829630e-01  8.365159e-01  4.721197e+00
    endloop
  endfacet
  facet normal  2.567522e-01 -9.582092e-01  1.261485e-01
    outer loop
      vertex   0.000000e+00  1.000000e+00  4.980020e+00
      vertex  -5.000000e-01  8.660250e-01  4.980020e+00
      vertex  -4.829631e-01  8.365159e-01  4.721197e+00
    endloop
  endfacet
  facet normal  2.567523e-01 -9.582092e-01  1.261483e-01
    outer loop
      vertex   0.000000e+00  1.000000e+00  4.980020e+00
      vertex  -4.829631e-01  8.365159e-01  4.721197e+00
      vertex   0.000000e+00  9.659259e-01  4.721197e+00
    endloop
  endfacet
  facet normal  7.014580e-01 -7.014580e-01  1.261482e-01
    outer loop
      vertex  -5.000000e-01  8.660250e-01  4.980020e+00
      vertex  -8.660250e-01  5.000000e-01  4.980020e+00
      vertex  -8.365159e-01  4.829631e-01  4.721197e+00
    endloop
  endfacet
  facet normal  7.014580e-01 -7.014579e-01  1.261482e-01
    outer loop
      vertex  -5.000000e-01  8.660250e-01  4.980020e+00
      vertex  -8.365159e-01  4.829631e-01  4.721197e+00
      vertex  -4.829631e-01  8.365159e-01  4.721197e+00
    endloop
  endfacet
  facet normal  9.582093e-01 -2.567522e-01  1.261484e-01
    outer loop
      vertex  -8.660250e-01  5.000000e-01  4.980020e+00
      vertex  -1.000000e+00  0.000000e+00  4.980020e+00
      vertex  -9.659259e-01  0.000000e+00  4.721197e+00
    endloop
  endfacet
  facet normal  9.582092e-01 -2.567523e-01  1.261485e-01
    outer loop
      vertex  -8.660250e-01  5.000000e-01  4.980020e+00
      vertex  -9.659259e-01  0.000000e+00  4.721197e+00
      vertex  -8.365159e-01  4.829631e-01  4.721197e+00
    endloop
  endfacet
  facet normal  9.582092e-01  2.567522e-01  1.261485e-01
    outer loop
      vertex  -1.000000e+00  0.000000e+00  4.980020e+00
      vertex  -8.660250e-01 -5.000000e-01  4.980020e+00
      vertex  -8.365159e-01 -4.829631e-01  4.721197e+00
    endloop
  endfacet
  facet normal  9.582092e-01  2.567523e-01  1.261483e-01
    outer loop
      vertex  -1.000000e+00  0.000000e+00  4.980020e+00
      vertex  -8.365159e-01 -4.829631e-01  4.721197e+00
      vertex  -9.659259e-01  0.000000e+00  4.721197e+00
    endloop
  endfacet
  facet normal  7.014580e-01  7.014580e-01  1.261482e-01
    outer loop
      vertex  -8.660250e-01 -5.000000e-01  4.980020e+00
      vertex  -5.000000e-01 -8.660250e-01  4.980020e+00
      vertex  -4.829631e-01 -8.365159e-01  4.721197e+00
    endloop
  endfacet
  facet normal  7.014579e-01  7.014580e-01  1.261482e-01
    outer loop
      vertex  -8.660250e-01 -5.000000e-01  4.980020e+00
      vertex  -4.829631e-01 -8.365159e-01  4.721197e+00
      vertex  -8.365159e-01 -4.829631e-01  4.721197e+00
    endloop
  endfacet
  facet normal  2.567522e-01  9.582093e-01  1.261475e-01
    outer loop
      vertex  -5.000000e-01 -8.660250e-01  4.980020e+00
      vertex   0.000000e+00 -1.000000e+00  4.980020e+00
      vertex   0.000000e+00 -9.659262e-01  4.721197e+00
    endloop
  endfacet
  facet normal  2.567527e-01  9.582090e-01  1.261485e-01
    outer loop
      vertex  -5.000000e-01 -8.660250e-01  4.980020e+00
      vertex   0.000000e+00 -9.659262e-01  4.721197e+00
      vertex  -4.829631e-01 -8.365159e-01  4.721197e+00
    endloop
  endfacet
  facet normal -2.567522e-01  9.582092e-01  1.261486e-01
    outer loop
      vertex   0.000000e+00 -1.000000e+00  4.980020e+00
      vertex   5.000000e-01 -8.660250e-01  4.980020e+00
      vertex   4.829630e-01 -8.365159e-01  4.721197e+00
    endloop
  endfacet
  facet normal -2.567528e-01  9.582092e-01  1.261475e-01
    outer loop
      vertex   0.000000e+00 -1.000000e+00  4.980020e+00
      vertex   4.829630e-01 -8.365159e-01  4.721197e+00
      vertex   0.000000e+00 -9.659262e-01  4.721197e+00
    endloop
  endfacet
  facet normal -7.014580e-01  7.014580e-01  1.261479e-01
    outer loop
      vertex   5.000000e-01 -8.660250e-01  4.980020e+00
      vertex   8.660250e-01 -5.000000e-01  4.980020e+00
      vertex   8.365160e-01 -4.829631e-01  4.721197e+00
    endloop
  endfacet
  facet normal -7.014577e-01  7.014582e-01  1.261485e-01
    outer loop
      vertex   5.000000e-01 -8.660250e-01  4.980020e+00
      vertex   8.365160e-01 -4.829631e-01  4.721197e+00
      vertex   4.829630e-01 -8.365159e-01  4.721197e+00
    endloop
  endfacet
  facet normal -9.582093e-01  2.567522e-01  1.261479e-01
    outer loop
      vertex   8.660250e-01 -5.000000e-01  4.980020e+00
      vertex   1.000000e+00  0.000000e+00  4.980020e+00
      vertex   9.659261e-01  0.000000e+00  4.721197e+00
    endloop
  endfacet
  facet normal -9.582092e-01  2.567523e-01  1.261481e-01
    outer loop
      vertex   8.660250e-01 -5.000000e-01  4.980020e+00
      vertex   9.659261e-01  0.000000e+00  4.721197e+00
      vertex   8.365160e-01 -4.829631e-01  4.721197e+00
    endloop
  endfacet
  facet normal -8.968115e-01 -2.403008e-01  3.714626e-01
    outer loop
      vertex   9.659261e-01  0.000000e+00  4.721197e+00
      vertex   8.365160e-01  4.829631e-01  4.721197e+00
      vertex   7.500000e-01  4.330130e-01  4.480011e+00
    endloop
  endfacet
  facet normal -8.968109e-01 -2.402987e-01  3.714657e-01
    outer loop
      vertex   9.659261e-01  0.000000e+00  4.721197e+00
      vertex   7.500000e-01  4.330130e-01  4.480011e+00
      vertex   8.660250e-01  0.000000e+00  4.480011e+00
    endloop
  endfacet
  facet normal -6.565117e-01 -6.565121e-01  3.714621e-01
    outer loop
      vertex   8.365160e-01  4.829631e-01  4.721197e+00
      vertex   4.829630e-01  8.365159e-01  4.721197e+00
      vertex   4.330130e-01  7.500000e-01  4.480011e+00
    endloop
  endfacet
  facet normal -6.565118e-01 -6.565118e-01  3.714626e-01
    outer loop
      vertex   8.365160e-01  4.829631e-01  4.721197e+00
      vertex   4.330130e-01  7.500000e-01  4.480011e+00
      vertex   7.500000e-01  4.330130e-01  4.480011e+00
    endloop
  endfacet
  facet normal -2.403006e-01 -8.968106e-01  3.714651e-01
    outer loop
      vertex   4.829630e-01  8.365159e-01  4.721197e+00
      vertex   0.000000e+00  9.659259e-01  4.721197e+00
      vertex   0.000000e+00  8.660250e-01  4.480011e+00
    endloop
  endfacet
  facet normal -2.402991e-01 -8.968123e-01  3.714619e-01
    outer loop
      vertex   4.829630e-01  8.365159e-01  4.721197e+00
      vertex   0.000000e+00  8.660250e-01  4.480011e+00
      vertex   4.330130e-01  7.500000e-01  4.480011e+00
    endloop
  endfacet
  facet normal  2.403008e-01 -8.968118e-01  3.714622e-01
    outer loop
      vertex   0.000000e+00  9.659259e-01  4.721197e+00
      vertex  -4.829631e-01  8.365159e-01  4.721197e+00
      vertex  -4.330130e-01  7.500000e-01  4.480011e+00
    endloop
  endfacet
  facet normal  2.402988e-01 -8.968111e-01  3.714653e-01
    outer loop
      vertex   0.000000e+00  9.659259e-01  4.721197e+00
      vertex  -4.330130e-01  7.500000e-01  4.480011e+00
      vertex   0.000000e+00  8.660250e-01  4.480011e+00
    endloop
  endfacet
  facet normal  6.565118e-01 -6.565118e-01  3.714623e-01
    outer loop
      vertex  -4.829631e-01  8.365159e-01  4.721197e+00
      vertex  -8.365159e-01  4.829631e-01  4.721197e+00
      vertex  -7.500000e-01  4.330130e-01  4.480011e+00
    endloop
  endfacet
  facet normal  6.565119e-01 -6.565119e-01  3.714623e-01
    outer loop
      vertex  -4.829631e-01  8.365159e-01  4.721197e+00
      vertex  -7.500000e-01  4.330130e-01  4.480011e+00
      vertex  -4.330130e-01  7.500000e-01  4.480011e+00
    endloop
  endfacet
  facet normal  8.968107e-01 -2.403005e-01  3.714651e-01
    outer loop
      vertex  -8.365159e-01  4.829631e-01  4.721197e+00
      vertex  -9.659259e-01  0.000000e+00  4.721197e+00
      vertex  -8.660250e-01  0.000000e+00  4.480011e+00
    endloop
  endfacet
  facet normal  8.968123e-01 -2.402991e-01  3.714620e-01
    outer loop
      vertex  -8.365159e-01  4.829631e-01  4.721197e+00
      vertex  -8.660250e-01  0.000000e+00  4.480011e+00
      vertex  -7.500000e-01  4.330130e-01  4.480011e+00
    endloop
  endfacet
  facet normal  8.968118e-01  2.403008e-01  3.714622e-01
    outer loop
      vertex  -9.659259e-01  0.000000e+00  4.721197e+00
      vertex  -8.365159e-01 -4.829631e-01  4.721197e+00
      vertex  -7.500000e-01 -4.330130e-01  4.480011e+00
    endloop
  endfacet
  facet normal  8.968111e-01  2.402988e-01  3.714653e-01
    outer loop
      vertex  -9.659259e-01  0.000000e+00  4.721197e+00
      vertex  -7.500000e-01 -4.330130e-01  4.480011e+00
      vertex  -8.660250e-01  0.000000e+00  4.480011e+00
    endloop
  endfacet
  facet normal  6.565118e-01  6.565118e-01  3.714623e-01
    outer loop
      vertex  -8.365159e-01 -4.829631e-01  4.721197e+00
      vertex  -4.829631e-01 -8.365159e-01  4.721197e+00
      vertex  -4.330130e-01 -7.500000e-01  4.480011e+00
    endloop
  endfacet
  facet normal  6.565119e-01  6.565119e-01  3.714623e-01
    outer loop
      vertex  -8.365159e-01 -4.829631e-01  4.721197e+00
      vertex  -4.330130e-01 -7.500000e-01  4.480011e+00
      vertex  -7.500000e-01 -4.330130e-01  4.480011e+00
    endloop
  endfacet
  facet normal  2.403009e-01  8.968102e-01  3.714658e-01
    outer loop
      vertex  -4.829631e-01 -8.365159e-01  4.721197e+00
      vertex   0.000000e+00 -9.659262e-01  4.721197e+00
      vertex   0.000000e+00 -8.660250e-01  4.480011e+00
    endloop
  endfacet
  facet normal  2.402991e-01  8.968123e-01  3.714620e-01
    outer loop
      vertex  -4.829631e-01 -8.365159e-01  4.721197e+00
      vertex   0.000000e+00 -8.660250e-01  4.480011e+00
      vertex  -4.330130e-01 -7.500000e-01  4.480011e+00
    endloop
  endfacet
  facet normal -2.403013e-01  8.968116e-01  3.714622e-01
    outer loop
      vertex   0.000000e+00 -9.659262e-01  4.721197e+00
      vertex   4.829630e-01 -8.365159e-01  4.721197e+00
      vertex   4.330130e-01 -7.500000e-01  4.480011e+00
    endloop
  endfacet
  facet normal -2.402987e-01  8.968107e-01  3.714661e-01
    outer loop
      vertex   0.000000e+00 -9.659262e-01  4.721197e+00
      vertex   4.330130e-01 -7.500000e-01  4.480011e+00
      vertex   0.000000e+00 -8.660250e-01  4.480011e+00
    endloop
  endfacet
  facet normal -6.565117e-01  6.565120e-01  3.714626e-01
    outer loop
      vertex   4.829630e-01 -8.365159e-01  4.721197e+00
      vertex   8.365160e-01 -4.829631e-01  4.721197e+00
      vertex   7.500000e-01 -4.330130e-01  4.480011e+00
    endloop
  endfacet
  facet normal -6.565120e-01  6.565120e-01  3.714620e-01
    outer loop
      vertex   4.829630e-01 -8.365159e-01  4.721197e+00
      vertex   7.500000e-01 -4.330130e-01  4.480011e+00
      vertex   4.330130e-01 -7.500000e-01  4.480011e+00
    endloop
  endfacet
  facet normal -8.968104e-01  2.403005e-01  3.714655e-01
    outer loop
      vertex   8.365160e-01 -4.829631e-01  4.721197e+00
      vertex   9.659261e-01  0.000000e+00  4.721197e+00
      vertex   8.660250e-01  0.000000e+00  4.480011e+00
    endloop
  endfacet
  facet normal -8.968121e-01  2.402990e-01  3.714624e-01
    outer loop
      vertex   8.365160e-01 -4.829631e-01  4.721197e+00
      vertex   8.660250e-01  0.000000e+00  4.480011e+00
      vertex   7.500000e-01 -4.330130e-01  4.480011e+00
    endloop
  endfacet
  facet normal -7.760193e-01 -2.079328e-01  5.954477e-01
    outer loop
      vertex   8.660250e-01  0.000000e+00  4.480011e+00
      vertex   7.500000e-01  4.330130e-01  4.480011e+00
      vertex   6.123720e-01  3.535531e-01  4.272899e+00
    endloop
  endfacet
  facet normal -7.760207e-01 -2.079356e-01  5.954449e-01
    outer loop
      vertex   8.660250e-01  0.000000e+00  4.480011e+00
      vertex   6.123720e-01  3.535531e-01  4.272899e+00
      vertex   7.071069e-01  0.000000e+00  4.272899e+00
    endloop
  endfacet
  facet normal -5.680850e-01 -5.680850e-01  5.954485e-01
    outer loop
      vertex   7.500000e-01  4.330130e-01  4.480011e+00
      vertex   4.330130e-01  7.500000e-01  4.480011e+00
      vertex   3.535531e-01  6.123719e-01  4.272899e+00
    endloop
  endfacet
  facet normal -5.680849e-01 -5.680853e-01  5.954482e-01
    outer loop
      vertex   7.500000e-01  4.330130e-01  4.480011e+00
      vertex   3.535531e-01  6.123719e-01  4.272899e+00
      vertex   6.123720e-01  3.535531e-01  4.272899e+00
    endloop
  endfacet
  facet normal -2.079334e-01 -7.760214e-01  5.954449e-01
    outer loop
      vertex   4.330130e-01  7.500000e-01  4.480011e+00
      vertex   0.000000e+00  8.660250e-01  4.480011e+00
      vertex   0.000000e+00  7.071071e-01  4.272899e+00
    endloop
  endfacet
  facet normal -2.079354e-01 -7.760181e-01  5.954484e-01
    outer loop
      vertex   4.330130e-01  7.500000e-01  4.480011e+00
      vertex   0.000000e+00  7.071071e-01  4.272899e+00
      vertex   3.535531e-01  6.123719e-01  4.272899e+00
    endloop
  endfacet
  facet normal  2.079328e-01 -7.760191e-01  5.954480e-01
    outer loop
      vertex   0.000000e+00  8.660250e-01  4.480011e+00
      vertex  -4.330130e-01  7.500000e-01  4.480011e+00
      vertex  -3.535531e-01  6.123719e-01  4.272899e+00
    endloop
  endfacet
  facet normal  2.079361e-01 -7.760208e-01  5.954446e-01
    outer loop
      vertex   0.000000e+00  8.660250e-01  4.480011e+00
      vertex  -3.535531e-01  6.123719e-01  4.272899e+00
      vertex   0.000000e+00  7.071071e-01  4.272899e+00
    endloop
  endfacet
  facet normal  5.680850e-01 -5.680850e-01  5.954485e-01
    outer loop
      vertex  -4.330130e-01  7.500000e-01  4.480011e+00
      vertex  -7.500000e-01  4.330130e-01  4.480011e+00
      vertex  -6.123719e-01  3.535531e-01  4.272899e+00
    endloop
  endfacet
  facet normal  5.680850e-01 -5.680850e-01  5.954485e-01
    outer loop
      vertex  -4.330130e-01  7.500000e-01  4.480011e+00
      vertex  -6.123719e-01  3.535531e-01  4.272899e+00
      vertex  -3.535531e-01  6.123719e-01  4.272899e+00
    endloop
  endfacet
  facet normal  7.760214e-01 -2.079334e-01  5.954449e-01
    outer loop
      vertex  -7.500000e-01  4.330130e-01  4.480011e+00
      vertex  -8.660250e-01  0.000000e+00  4.480011e+00
      vertex  -7.071071e-01  0.000000e+00  4.272899e+00
    endloop
  endfacet
  facet normal  7.760181e-01 -2.079354e-01  5.954484e-01
    outer loop
      vertex  -7.500000e-01  4.330130e-01  4.480011e+00
      vertex  -7.071071e-01  0.000000e+00  4.272899e+00
      vertex  -6.123719e-01  3.535531e-01  4.272899e+00
    endloop
  endfacet
  facet normal  7.760191e-01  2.079328e-01  5.954480e-01
    outer loop
      vertex  -8.660250e-01  0.000000e+00  4.480011e+00
      vertex  -7.500000e-01 -4.330130e-01  4.480011e+00
      vertex  -6.123719e-01 -3.535531e-01  4.272899e+00
    endloop
  endfacet
  facet normal  7.760208e-01  2.079361e-01  5.954446e-01
    outer loop
      vertex  -8.660250e-01  0.000000e+00  4.480011e+00
      vertex  -6.123719e-01 -3.535531e-01  4.272899e+00
      vertex  -7.071071e-01  0.000000e+00  4.272899e+00
    endloop
  endfacet
  facet normal  5.680850e-01  5.680850e-01  5.954485e-01
    outer loop
      vertex  -7.500000e-01 -4.330130e-01  4.480011e+00
      vertex  -4.330130e-01 -7.500000e-01  4.480011e+00
      vertex  -3.535531e-01 -6.123719e-01  4.272899e+00
    endloop
  endfacet
  facet normal  5.680850e-01  5.680850e-01  5.954485e-01
    outer loop
      vertex  -7.500000e-01 -4.330130e-01  4.480011e+00
      vertex  -3.535531e-01 -6.123719e-01  4.272899e+00
      vertex  -6.123719e-01 -3.535531e-01  4.272899e+00
    endloop
  endfacet
  facet normal  2.079334e-01  7.760214e-01  5.954449e-01
    outer loop
      vertex  -4.330130e-01 -7.500000e-01  4.480011e+00
      vertex   0.000000e+00 -8.660250e-01  4.480011e+00
      vertex   0.000000e+00 -7.071071e-01  4.272899e+00
    endloop
  endfacet
  facet normal  2.079354e-01  7.760181e-01  5.954484e-01
    outer loop
      vertex  -4.330130e-01 -7.500000e-01  4.480011e+00
      vertex   0.000000e+00 -7.071071e-01  4.272899e+00
      vertex  -3.535531e-01 -6.123719e-01  4.272899e+00
    endloop
  endfacet
  facet normal -2.079328e-01  7.760191e-01  5.954480e-01
    outer loop
      vertex   0.000000e+00 -8.660250e-01  4.480011e+00
      vertex   4.330130e-01 -7.500000e-01  4.480011e+00
      vertex   3.535531e-01 -6.123719e-01  4.272899e+00
    endloop
  endfacet
  facet normal -2.079361e-01  7.760208e-01  5.954446e-01
    outer loop
      vertex   0.000000e+00 -8.660250e-01  4.480011e+00
      vertex   3.535531e-01 -6.123719e-01  4.272899e+00
      vertex   0.000000e+00 -7.071071e-01  4.272899e+00
    endloop
  endfacet
  facet normal -5.680851e-01  5.680851e-01  5.954483e-01
    outer loop
      vertex   4.330130e-01 -7.500000e-01  4.480011e+00
      vertex   7.500000e-01 -4.330130e-01  4.480011e+00
      vertex   6.123720e-01 -3.535531e-01  4.272899e+00
    endloop
  endfacet
  facet normal -5.680849e-01  5.680851e-01  5.954485e-01
    outer loop
      vertex   4.330130e-01 -7.500000e-01  4.480011e+00
      vertex   6.123720e-01 -3.535531e-01  4.272899e+00
      vertex   3.535531e-01 -6.123719e-01  4.272899e+00
    endloop
  endfacet
  facet normal -7.760211e-01  2.079333e-01  5.954452e-01
    outer loop
      vertex   7.500000e-01 -4.330130e-01  4.480011e+00
      vertex   8.660250e-01  0.000000e+00  4.480011e+00
      vertex   7.071069e-01  0.000000e+00  4.272899e+00
    endloop
  endfacet
  facet normal -7.760185e-01  2.079350e-01  5.954480e-01
    outer loop
      vertex   7.500000e-01 -4.330130e-01  4.480011e+00
      vertex   7.071069e-01  0.000000e+00  4.272899e+00
      vertex   6.123720e-01 -3.535531e-01  4.272899e+00
    endloop
  endfacet
  facet normal -6.008322e-01 -1.609936e-01  7.829954e-01
    outer loop
      vertex   7.071069e-01  0.000000e+00  4.272899e+00
      vertex   6.123720e-01  3.535531e-01  4.272899e+00
      vertex   4.330130e-01  2.500000e-01  4.113976e+00
    endloop
  endfacet
  facet normal -6.008311e-01 -1.609916e-01  7.829967e-01
    outer loop
      vertex   7.071069e-01  0.000000e+00  4.272899e+00
      vertex   4.330130e-01  2.500000e-01  4.113976e+00
      vertex   5.000000e-01  0.000000e+00  4.113976e+00
    endloop
  endfacet
  facet normal -4.398400e-01 -4.398402e-01  7.829952e-01
    outer loop
      vertex   6.123720e-01  3.535531e-01  4.272899e+00
      vertex   3.535531e-01  6.123719e-01  4.272899e+00
      vertex   2.500000e-01  4.330130e-01  4.113976e+00
    endloop
  endfacet
  facet normal -4.398400e-01 -4.398400e-01  7.829953e-01
    outer loop
      vertex   6.123720e-01  3.535531e-01  4.272899e+00
      vertex   2.500000e-01  4.330130e-01  4.113976e+00
      vertex   4.330130e-01  2.500000e-01  4.113976e+00
    endloop
  endfacet
  facet normal -1.609936e-01 -6.008307e-01  7.829966e-01
    outer loop
      vertex   3.535531e-01  6.123719e-01  4.272899e+00
      vertex   0.000000e+00  7.071071e-01  4.272899e+00
      vertex   0.000000e+00  5.000000e-01  4.113976e+00
    endloop
  endfacet
  facet normal -1.609921e-01 -6.008331e-01  7.829950e-01
    outer loop
      vertex   3.535531e-01  6.123719e-01  4.272899e+00
      vertex   0.000000e+00  5.000000e-01  4.113976e+00
      vertex   2.500000e-01  4.330130e-01  4.113976e+00
    endloop
  endfacet
  facet normal  1.609940e-01 -6.008322e-01  7.829952e-01
    outer loop
      vertex   0.000000e+00  7.071071e-01  4.272899e+00
      vertex  -3.535531e-01  6.123719e-01  4.272899e+00
      vertex  -2.500000e-01  4.330130e-01  4.113976e+00
    endloop
  endfacet
  facet normal  1.609915e-01 -6.008309e-01  7.829968e-01
    outer loop
      vertex   0.000000e+00  7.071071e-01  4.272899e+00
      vertex  -2.500000e-01  4.330130e-01  4.113976e+00
      vertex   0.000000e+00  5.000000e-01  4.113976e+00
    endloop
  endfacet
  facet normal  4.398401e-01 -4.398401e-01  7.829952e-01
    outer loop
      vertex  -3.535531e-01  6.123719e-01  4.272899e+00
      vertex  -6.123719e-01  3.535531e-01  4.272899e+00
      vertex  -4.330130e-01  2.500000e-01  4.113976e+00
    endloop
  endfacet
  facet normal  4.398401e-01 -4.398401e-01  7.829951e-01
    outer loop
      vertex  -3.535531e-01  6.123719e-01  4.272899e+00
      vertex  -4.330130e-01  2.500000e-01  4.113976e+00
      vertex  -2.500000e-01  4.330130e-01  4.113976e+00
    endloop
  endfacet
  facet normal  6.008307e-01 -1.609936e-01  7.829966e-01
    outer loop
      vertex  -6.123719e-01  3.535531e-01  4.272899e+00
      vertex  -7.071071e-01  0.000000e+00  4.272899e+00
      vertex  -5.000000e-01  0.000000e+00  4.113976e+00
    endloop
  endfacet
  facet normal  6.008331e-01 -1.609921e-01  7.829950e-01
    outer loop
      vertex  -6.123719e-01  3.535531e-01  4.272899e+00
      vertex  -5.000000e-01  0.000000e+00  4.113976e+00
      vertex  -4.330130e-01  2.500000e-01  4.113976e+00
    endloop
  endfacet
  facet normal  6.008322e-01  1.609940e-01  7.829952e-01
    outer loop
      vertex  -7.071071e-01  0.000000e+00  4.272899e+00
      vertex  -6.123719e-01 -3.535531e-01  4.272899e+00
      vertex  -4.330130e-01 -2.500000e-01  4.113976e+00
    endloop
  endfacet
  facet normal  6.008309e-01  1.609915e-01  7.829968e-01
    outer loop
      vertex  -7.071071e-01  0.000000e+00  4.272899e+00
      vertex  -4.330130e-01 -2.500000e-01  4.113976e+00
      vertex  -5.000000e-01  0.000000e+00  4.113976e+00
    endloop
  endfacet
  facet normal  4.398401e-01  4.398401e-01  7.829952e-01
    outer loop
      vertex  -6.123719e-01 -3.535531e-01  4.272899e+00
      vertex  -3.535531e-01 -6.123719e-01  4.272899e+00
      vertex  -2.500000e-01 -4.330130e-01  4.113976e+00
    endloop
  endfacet
  facet normal  4.398401e-01  4.398401e-01  7.829951e-01
    outer loop
      vertex  -6.123719e-01 -3.535531e-01  4.272899e+00
      vertex  -2.500000e-01 -4.330130e-01  4.113976e+00
      vertex  -4.330130e-01 -2.500000e-01  4.113976e+00
    endloop
  endfacet
  facet normal  1.609936e-01  6.008307e-01  7.829966e-01
    outer loop
      vertex  -3.535531e-01 -6.123719e-01  4.272899e+00
      vertex   0.000000e+00 -7.071071e-01  4.272899e+00
      vertex   0.000000e+00 -5.000000e-01  4.113976e+00
    endloop
  endfacet
  facet normal  1.609921e-01  6.008331e-01  7.829950e-01
    outer loop
      vertex  -3.535531e-01 -6.123719e-01  4.272899e+00
      vertex   0.000000e+00 -5.000000e-01  4.113976e+00
      vertex  -2.500000e-01 -4.330130e-01  4.113976e+00
    endloop
  endfacet
  facet normal -1.609940e-01  6.008322e-01  7.829952e-01
    outer loop
      vertex   0.000000e+00 -7.071071e-01  4.272899e+00
      vertex   3.535531e-01 -6.123719e-01  4.272899e+00
      vertex   2.500000e-01 -4.330130e-01  4.113976e+00
    endloop
  endfacet
  facet normal -1.609915e-01  6.008309e-01  7.829968e-01
    outer loop
      vertex   0.000000e+00 -7.071071e-01  4.272899e+00
      vertex   2.500000e-01 -4.330130e-01  4.113976e+00
      vertex   0.000000e+00 -5.000000e-01  4.113976e+00
    endloop
  endfacet
  facet normal -4.398399e-01  4.398401e-01  7.829952e-01
    outer loop
      vertex   3.535531e-01 -6.123719e-01  4.272899e+00
      vertex   6.123720e-01 -3.535531e-01  4.272899e+00
      vertex   4.330130e-01 -2.500000e-01  4.113976e+00
    endloop
  endfacet
  facet normal -4.398401e-01  4.398401e-01  7.829951e-01
    outer loop
      vertex   3.535531e-01 -6.123719e-01  4.272899e+00
      vertex   4.330130e-01 -2.500000e-01  4.113976e+00
      vertex   2.500000e-01 -4.330130e-01  4.113976e+00
    endloop
  endfacet
  facet normal -6.008309e-01  1.609933e-01  7.829964e-01
    outer loop
      vertex   6.123720e-01 -3.535531e-01  4.272899e+00
      vertex   7.071069e-01  0.000000e+00  4.272899e+00
      vertex   5.000000e-01  0.000000e+00  4.113976e+00
    endloop
  endfacet
  facet normal -6.008329e-01  1.609921e-01  7.829952e-01
    outer loop
      vertex   6.123720e-01 -3.535531e-01  4.272899e+00
      vertex   5.000000e-01  0.000000e+00  4.113976e+00
      vertex   4.330130e-01 -2.500000e-01  4.113976e+00
    endloop
  endfacet
  facet normal -3.806930e-01 -1.020060e-01  9.190580e-01
    outer loop
      vertex   5.000000e-01  0.000000e+00  4.113976e+00
      vertex   4.330130e-01  2.500000e-01  4.113976e+00
      vertex   2.241440e-01  1.294100e-01  4.014074e+00
    endloop
  endfacet
  facet normal -3.806929e-01 -1.020054e-01  9.190581e-01
    outer loop
      vertex   5.000000e-01  0.000000e+00  4.113976e+00
      vertex   2.241440e-01  1.294100e-01  4.014074e+00
      vertex   2.588190e-01  0.000000e+00  4.014074e+00
    endloop
  endfacet
  facet normal -2.786868e-01 -2.786868e-01  9.190579e-01
    outer loop
      vertex   4.330130e-01  2.500000e-01  4.113976e+00
      vertex   2.500000e-01  4.330130e-01  4.113976e+00
      vertex   1.294100e-01  2.241440e-01  4.014074e+00
    endloop
  endfacet
  facet normal -2.786868e-01 -2.786868e-01  9.190578e-01
    outer loop
      vertex   4.330130e-01  2.500000e-01  4.113976e+00
      vertex   1.294100e-01  2.241440e-01  4.014074e+00
      vertex   2.241440e-01  1.294100e-01  4.014074e+00
    endloop
  endfacet
  facet normal -1.020060e-01 -3.806930e-01  9.190580e-01
    outer loop
      vertex   2.500000e-01  4.330130e-01  4.113976e+00
      vertex   0.000000e+00  5.000000e-01  4.113976e+00
      vertex   0.000000e+00  2.588191e-01  4.014074e+00
    endloop
  endfacet
  facet normal -1.020059e-01 -3.806931e-01  9.190580e-01
    outer loop
      vertex   2.500000e-01  4.330130e-01  4.113976e+00
      vertex   0.000000e+00  2.588191e-01  4.014074e+00
      vertex   1.294100e-01  2.241440e-01  4.014074e+00
    endloop
  endfacet
  facet normal  1.020060e-01 -3.806930e-01  9.190580e-01
    outer loop
      vertex   0.000000e+00  5.000000e-01  4.113976e+00
      vertex  -2.500000e-01  4.330130e-01  4.113976e+00
      vertex  -1.294100e-01  2.241440e-01  4.014074e+00
    endloop
  endfacet
  facet normal  1.020058e-01 -3.806930e-01  9.190580e-01
    outer loop
      vertex   0.000000e+00  5.000000e-01  4.113976e+00
      vertex  -1.294100e-01  2.241440e-01  4.014074e+00
      vertex   0.000000e+00  2.588191e-01  4.014074e+00
    endloop
  endfacet
  facet normal  2.786868e-01 -2.786868e-01  9.190579e-01
    outer loop
      vertex  -2.500000e-01  4.330130e-01  4.113976e+00
      vertex  -4.330130e-01  2.500000e-01  4.113976e+00
      vertex  -2.241440e-01  1.294100e-01  4.014074e+00
    endloop
  endfacet
  facet normal  2.786868e-01 -2.786868e-01  9.190578e-01
    outer loop
      vertex  -2.500000e-01  4.330130e-01  4.113976e+00
      vertex  -2.241440e-01  1.294100e-01  4.014074e+00
      vertex  -1.294100e-01  2.241440e-01  4.014074e+00
    endloop
  endfacet
  facet normal  3.806930e-01 -1.020060e-01  9.190580e-01
    outer loop
      vertex  -4.330130e-01  2.500000e-01  4.113976e+00
      vertex  -5.000000e-01  0.000000e+00  4.113976e+00
      vertex  -2.588191e-01  0.000000e+00  4.014074e+00
    endloop
  endfacet
  facet normal  3.806931e-01 -1.020059e-01  9.190580e-01
    outer loop
      vertex  -4.330130e-01  2.500000e-01  4.113976e+00
      vertex  -2.588191e-01  0.000000e+00  4.014074e+00
      vertex  -2.241440e-01  1.294100e-01  4.014074e+00
    endloop
  endfacet
  facet normal  3.806930e-01  1.020060e-01  9.190580e-01
    outer loop
      vertex  -5.000000e-01  0.000000e+00  4.113976e+00
      vertex  -4.330130e-01 -2.500000e-01  4.113976e+00
      vertex  -2.241440e-01 -1.294100e-01  4.014074e+00
    endloop
  endfacet
  facet normal  3.806930e-01  1.020058e-01  9.190580e-01
    outer loop
      vertex  -5.000000e-01  0.000000e+00  4.113976e+00
      vertex  -2.241440e-01 -1.294100e-01  4.014074e+00
      vertex  -2.588191e-01  0.000000e+00  4.014074e+00
    endloop
  endfacet
  facet normal  2.786868e-01  2.786868e-01  9.190579e-01
    outer loop
      vertex  -4.330130e-01 -2.500000e-01  4.113976e+00
      vertex  -2.500000e-01 -4.330130e-01  4.113976e+00
      vertex  -1.294100e-01 -2.241440e-01  4.014074e+00
    endloop
  endfacet
  facet normal  2.786868e-01  2.786868e-01  9.190578e-01
    outer loop
      vertex  -4.330130e-01 -2.500000e-01  4.113976e+00
      vertex  -1.294100e-01 -2.241440e-01  4.014074e+00
      vertex  -2.241440e-01 -1.294100e-01  4.014074e+00
    endloop
  endfacet
  facet normal  1.020060e-01  3.806930e-01  9.190580e-01
    outer loop
      vertex  -2.500000e-01 -4.330130e-01  4.113976e+00
      vertex   0.000000e+00 -5.000000e-01  4.113976e+00
      vertex   0.000000e+00 -2.588191e-01  4.014074e+00
    endloop
  endfacet
  facet normal  1.020059e-01  3.806931e-01  9.190580e-01
    outer loop
      vertex  -2.500000e-01 -4.330130e-01  4.113976e+00
      vertex   0.000000e+00 -2.588191e-01  4.014074e+00
      vertex  -1.294100e-01 -2.241440e-01  4.014074e+00
    endloop
  endfacet
  facet normal -1.020060e-01  3.806930e-01  9.190580e-01
    outer loop
      vertex   0.000000e+00 -5.000000e-01  4.113976e+00
      vertex   2.500000e-01 -4.330130e-01  4.113976e+00
      vertex   1.294100e-01 -2.241440e-01  4.014074e+00
    endloop
  endfacet
  facet normal -1.020058e-01  3.806930e-01  9.190580e-01
    outer loop
      vertex   0.000000e+00 -5.000000e-01  4.113976e+00
      vertex   1.294100e-01 -2.241440e-01  4.014074e+00
      vertex   0.000000e+00 -2.588191e-01  4.014074e+00
    endloop
  endfacet
  facet normal -2.786868e-01  2.786868e-01  9.190579e-01
    outer loop
      vertex   2.500000e-01 -4.330130e-01  4.113976e+00
      vertex   4.330130e-01 -2.500000e-01  4.113976e+00
      vertex   2.241440e-01 -1.294100e-01  4.014074e+00
    endloop
  endfacet
  facet normal -2.786868e-01  2.786868e-01  9.190578e-01
    outer loop
      vertex   2.500000e-01 -4.330130e-01  4.113976e+00
      vertex   2.241440e-01 -1.294100e-01  4.014074e+00
      vertex   1.294100e-01 -2.241440e-01  4.014074e+00
    endloop
  endfacet
  facet normal -3.806928e-01  1.020059e-01  9.190581e-01
    outer loop
      vertex   4.330130e-01 -2.500000e-01  4.113976e+00
      vertex   5.000000e-01  0.000000e+00  4.113976e+00
      vertex   2.588190e-01  0.000000e+00  4.014074e+00
    endloop
  endfacet
  facet normal -3.806933e-01  1.020056e-01  9.190580e-01
    outer loop
      vertex   4.330130e-01 -2.500000e-01  4.113976e+00
      vertex   2.588190e-01  0.000000e+00  4.014074e+00
      vertex   2.241440e-01 -1.294100e-01  4.014074e+00
    endloop
  endfacet
  facet normal -1.304488e-01 -3.495333e-02  9.908387e-01
    outer loop
      vertex   2.588190e-01  0.000000e+00  4.014074e+00
      vertex   2.241440e-01  1.294100e-01  4.014074e+00
      vertex   0.000000e+00  0.000000e+00  3.979999e+00
    endloop
  endfacet
  facet normal -9.549494e-02 -9.549494e-02  9.908388e-01
    outer loop
      vertex   2.241440e-01  1.294100e-01  4.014074e+00
      vertex   1.294100e-01  2.241440e-01  4.014074e+00
      vertex   0.000000e+00  0.000000e+00  3.979999e+00
    endloop
  endfacet
  facet normal -3.495343e-02 -1.304487e-01  9.908387e-01
    outer loop
      vertex   1.294100e-01  2.241440e-01  4.014074e+00
      vertex   0.000000e+00  2.588191e-01  4.014074e+00
      vertex   0.000000e+00  0.000000e+00  3.979999e+00
    endloop
  endfacet
  facet normal  3.495343e-02 -1.304487e-01  9.908387e-01
    outer loop
      vertex   0.000000e+00  2.588191e-01  4.014074e+00
      vertex  -1.294100e-01  2.241440e-01  4.014074e+00
      vertex   0.000000e+00  0.000000e+00  3.979999e+00
    endloop
  endfacet
  facet normal  9.549494e-02 -9.549494e-02  9.908388e-01
    outer loop
      vertex  -1.294100e-01  2.241440e-01  4.014074e+00
      vertex  -2.241440e-01  1.294100e-01  4.014074e+00
      vertex   0.000000e+00  0.000000e+00  3.979999e+00
    endloop
  endfacet
  facet normal  1.304487e-01 -3.495343e-02  9.908387e-01
    outer loop
      vertex  -2.241440e-01  1.294100e-01  4.014074e+00
      vertex  -2.588191e-01  0.000000e+00  4.014074e+00
      vertex   0.000000e+00  0.000000e+00  3.979999e+00
    endloop
  endfacet
  facet normal  1.304487e-01  3.495343e-02  9.908387e-01
    outer loop
      vertex  -2.588191e-01  0.000000e+00  4.014074e+00
      vertex  -2.241440e-01 -1.294100e-01  4.014074e+00
      vertex   0.000000e+00  0.000000e+00  3.979999e+00
    endloop
  endfacet
  facet normal  9.549494e-02  9.549494e-02  9.908388e-01
    outer loop
      vertex  -2.241440e-01 -1.294100e-01  4.014074e+00
      vertex  -1.294100e-01 -2.241440e-01  4.014074e+00
      vertex   0.000000e+00  0.000000e+00  3.979999e+00
    endloop
  endfacet
  facet normal  3.495343e-02  1.304487e-01  9.908387e-01
    outer loop
      vertex  -1.294100e-01 -2.241440e-01  4.014074e+00
      vertex   0.000000e+00 -2.588191e-01  4.014074e+00
      vertex   0.000000e+00  0.000000e+00  3.979999e+00
    endloop
  endfacet
  facet normal -3.495343e-02  1.304487e-01  9.908387e-01
    outer loop
      vertex   0.000000e+00 -2.588191e-01  4.014074e+00
      vertex   1.294100e-01 -2.241440e-01  4.014074e+00
      vertex   0.000000e+00  0.000000e+00  3.979999e+00
    endloop
  endfacet
  facet normal -9.549494e-02  9.549494e-02  9.908388e-01
    outer loop
      vertex   1.294100e-01 -2.241440e-01  4.014074e+00
      vertex   2.241440e-01 -1.294100e-01  4.014074e+00
      vertex   0.000000e+00  0.000000e+00  3.979999e+00
    endloop
  endfacet
  facet normal -1.304488e-01  3.495333e-02  9.908387e-01
    outer loop
      vertex   2.241440e-01 -1.294100e-01  4.014074e+00
      vertex   2.588190e-01  0.000000e+00  4.014074e+00
      vertex   0.000000e+00  0.000000e+00  3.979999e+00
    endloop
  endfacet
endsolid vcg
