solid STL generated by MeshLab
  facet normal  0.000000e+00  0.000000e+00  1.000000e+00
    outer loop
      vertex  -1.000000e-01 -1.000000e-01  0.000000e+00
      vertex   1.000000e-01 -1.000000e-01  0.000000e+00
      vertex   1.000000e-01  1.000000e-01  0.000000e+00
    endloop
  endfacet
  facet normal  0.000000e+00  0.000000e+00  1.000000e+00
    outer loop
      vertex  -1.000000e-01 -1.000000e-01  0.000000e+00
      vertex   1.000000e-01  1.000000e-01  0.000000e+00
      vertex  -1.000000e-01  1.000000e-01  0.000000e+00
    endloop
  endfacet
  facet normal  0.000000e+00  0.000000e+00  1.000000e+00
    outer loop
      vertex  -1.000000e-01 -1.000000e-01  1.000000e+01
      vertex   1.000000e-01 -1.000000e-01  1.000000e+01
      vertex   1.000000e-01  1.000000e-01  1.000000e+01
    endloop
  endfacet
  facet normal  0.000000e+00  0.000000e+00  1.000000e+00
    outer loop
      vertex  -1.000000e-01 -1.000000e-01  1.000000e+01
      vertex   1.000000e-01  1.000000e-01  1.000000e+01
      vertex  -1.000000e-01  1.000000e-01  1.000000e+01
    endloop
  endfacet
  facet normal  1.000000e+00  0.000000e+00  0.000000e+00
    outer loop
      vertex   1.000000e-01 -1.000000e-01  0.000000e+00
      vertex   1.000000e-01  1.000000e-01  0.000000e+00
      vertex   1.000000e-01  1.000000e-01  1.000000e+01
    endloop
  endfacet
  facet normal  1.000000e+00  0.000000e+00  0.000000e+00
    outer loop
      vertex   1.000000e-01 -1.000000e-01  0.000000e+00
      vertex   1.000000e-01  1.000000e-01  1.000000e+01
      vertex   1.000000e-01 -1.000000e-01  1.000000e+01
    endloop
  endfacet
  facet normal  1.000000e+00  0.000000e+00  0.000000e+00
    outer loop
      vertex  -1.000000e-01 -1.000000e-01  0.000000e+00
      vertex  -1.000000e-01  1.000000e-01  0.000000e+00
      vertex  -1.000000e-01  1.000000e-01  1.000000e+01
    endloop
  endfacet
  facet normal  1.000000e+00  0.000000e+00  0.000000e+00
    outer loop
      vertex  -1.000000e-01 -1.000000e-01  0.000000e+00
      vertex  -1.000000e-01  1.000000e-01  1.000000e+01
      vertex  -1.000000e-01 -1.000000e-01  1.000000e+01
    endloop
  endfacet
  facet normal  0.000000e+00 -1.000000e+00  0.000000e+00
    outer loop
      vertex  -1.000000e-01  1.000000e-01  0.000000e+00
      vertex   1.000000e-01  1.000000e-01  0.000000e+00
      vertex   1.000000e-01  1.000000e-01  1.000000e+01
    endloop
  endfacet
  facet normal  0.000000e+00 -1.000000e+00  0.000000e+00
    outer loop
      vertex  -1.000000e-01  1.000000e-01  0.000000e+00
      vertex   1.000000e-01  1.000000e-01  1.000000e+01
      vertex  -1.000000e-01  1.000000e-01  1.000000e+01
    endloop
  endfacet
  facet normal  0.000000e+00 -1.000000e+00  0.000000e+00
    outer loop
      vertex  -1.000000e-01 -1.000000e-01  0.000000e+00
      vertex   1.000000e-01 -1.000000e-01  0.000000e+00
      vertex   1.000000e-01 -1.000000e-01  1.000000e+01
    endloop
  endfacet
  facet normal  0.000000e+00 -1.000000e+00  0.000000e+00
    outer loop
      vertex  -1.000000e-01 -1.000000e-01  0.000000e+00
      vertex   1.000000e-01 -1.000000e-01  1.000000e+01
      vertex  -1.000000e-01 -1.000000e-01  1.000000e+01
    endloop
  endfacet
  facet normal -1.304452e-01 -3.495261e-02 -9.908392e-01
    outer loop
      vertex   0.000000e+00  0.000000e+00  1.198000e+01
      vertex   2.241439e-01  1.294095e-01  1.194593e+01
      vertex   2.588190e-01  0.000000e+00  1.194593e+01
    endloop
  endfacet
  facet normal -9.549247e-02 -9.549247e-02 -9.908392e-01
    outer loop
      vertex   0.000000e+00  0.000000e+00  1.198000e+01
      vertex   1.294095e-01  2.241439e-01  1.194593e+01
      vertex   2.241439e-01  1.294095e-01  1.194593e+01
    endloop
  endfacet
  facet normal -3.495261e-02 -1.304452e-01 -9.908392e-01
    outer loop
      vertex   0.000000e+00  0.000000e+00  1.198000e+01
      vertex   1.584810e-17  2.588190e-01  1.194593e+01
      vertex   1.294095e-01  2.241439e-01  1.194593e+01
    endloop
  endfacet
  facet normal  3.495261e-02 -1.304452e-01 -9.908392e-01
    outer loop
      vertex   0.000000e+00  0.000000e+00  1.198000e+01
      vertex  -1.294095e-01  2.241439e-01  1.194593e+01
      vertex   1.584810e-17  2.588190e-01  1.194593e+01
    endloop
  endfacet
  facet normal  9.549247e-02 -9.549247e-02 -9.908392e-01
    outer loop
      vertex   0.000000e+00  0.000000e+00  1.198000e+01
      vertex  -2.241439e-01  1.294095e-01  1.194593e+01
      vertex  -1.294095e-01  2.241439e-01  1.194593e+01
    endloop
  endfacet
  facet normal  1.304452e-01 -3.495261e-02 -9.908392e-01
    outer loop
      vertex   0.000000e+00  0.000000e+00  1.198000e+01
      vertex  -2.588190e-01  3.169619e-17  1.194593e+01
      vertex  -2.241439e-01  1.294095e-01  1.194593e+01
    endloop
  endfacet
  facet normal  1.304452e-01  3.495261e-02 -9.908392e-01
    outer loop
      vertex   0.000000e+00  0.000000e+00  1.198000e+01
      vertex  -2.241439e-01 -1.294095e-01  1.194593e+01
      vertex  -2.588190e-01  3.169619e-17  1.194593e+01
    endloop
  endfacet
  facet normal  9.549247e-02  9.549247e-02 -9.908392e-01
    outer loop
      vertex   0.000000e+00  0.000000e+00  1.198000e+01
      vertex  -1.294095e-01 -2.241439e-01  1.194593e+01
      vertex  -2.241439e-01 -1.294095e-01  1.194593e+01
    endloop
  endfacet
  facet normal  3.495261e-02  1.304452e-01 -9.908392e-01
    outer loop
      vertex   0.000000e+00  0.000000e+00  1.198000e+01
      vertex  -4.754429e-17 -2.588190e-01  1.194593e+01
      vertex  -1.294095e-01 -2.241439e-01  1.194593e+01
    endloop
  endfacet
  facet normal -3.495261e-02  1.304452e-01 -9.908392e-01
    outer loop
      vertex   0.000000e+00  0.000000e+00  1.198000e+01
      vertex   1.294095e-01 -2.241439e-01  1.194593e+01
      vertex  -4.754429e-17 -2.588190e-01  1.194593e+01
    endloop
  endfacet
  facet normal -9.549247e-02  9.549247e-02 -9.908392e-01
    outer loop
      vertex   0.000000e+00  0.000000e+00  1.198000e+01
      vertex   2.241439e-01 -1.294095e-01  1.194593e+01
      vertex   1.294095e-01 -2.241439e-01  1.194593e+01
    endloop
  endfacet
  facet normal -1.304452e-01  3.495261e-02 -9.908392e-01
    outer loop
      vertex   0.000000e+00  0.000000e+00  1.198000e+01
      vertex   2.588190e-01  0.000000e+00  1.194593e+01
      vertex   2.241439e-01 -1.294095e-01  1.194593e+01
    endloop
  endfacet
  facet normal -3.806900e-01 -1.020054e-01 -9.190594e-01
    outer loop
      vertex   2.588190e-01  0.000000e+00  1.194593e+01
      vertex   2.241439e-01  1.294095e-01  1.194593e+01
      vertex   4.330127e-01  2.500000e-01  1.184603e+01
    endloop
  endfacet
  facet normal -3.806898e-01 -1.020055e-01 -9.190594e-01
    outer loop
      vertex   2.588190e-01  0.000000e+00  1.194593e+01
      vertex   4.330127e-01  2.500000e-01  1.184603e+01
      vertex   5.000000e-01  0.000000e+00  1.184603e+01
    endloop
  endfacet
  facet normal -2.786843e-01 -2.786843e-01 -9.190593e-01
    outer loop
      vertex   2.241439e-01  1.294095e-01  1.194593e+01
      vertex   1.294095e-01  2.241439e-01  1.194593e+01
      vertex   2.500000e-01  4.330127e-01  1.184603e+01
    endloop
  endfacet
  facet normal -2.786843e-01 -2.786843e-01 -9.190593e-01
    outer loop
      vertex   2.241439e-01  1.294095e-01  1.194593e+01
      vertex   2.500000e-01  4.330127e-01  1.184603e+01
      vertex   4.330127e-01  2.500000e-01  1.184603e+01
    endloop
  endfacet
  facet normal -1.020053e-01 -3.806898e-01 -9.190594e-01
    outer loop
      vertex   1.294095e-01  2.241439e-01  1.194593e+01
      vertex   1.584810e-17  2.588190e-01  1.194593e+01
      vertex   3.061617e-17  5.000000e-01  1.184603e+01
    endloop
  endfacet
  facet normal -1.020055e-01 -3.806899e-01 -9.190593e-01
    outer loop
      vertex   1.294095e-01  2.241439e-01  1.194593e+01
      vertex   3.061617e-17  5.000000e-01  1.184603e+01
      vertex   2.500000e-01  4.330127e-01  1.184603e+01
    endloop
  endfacet
  facet normal  1.020054e-01 -3.806900e-01 -9.190594e-01
    outer loop
      vertex   1.584810e-17  2.588190e-01  1.194593e+01
      vertex  -1.294095e-01  2.241439e-01  1.194593e+01
      vertex  -2.500000e-01  4.330127e-01  1.184603e+01
    endloop
  endfacet
  facet normal  1.020055e-01 -3.806898e-01 -9.190594e-01
    outer loop
      vertex   1.584810e-17  2.588190e-01  1.194593e+01
      vertex  -2.500000e-01  4.330127e-01  1.184603e+01
      vertex   3.061617e-17  5.000000e-01  1.184603e+01
    endloop
  endfacet
  facet normal  2.786843e-01 -2.786843e-01 -9.190593e-01
    outer loop
      vertex  -1.294095e-01  2.241439e-01  1.194593e+01
      vertex  -2.241439e-01  1.294095e-01  1.194593e+01
      vertex  -4.330127e-01  2.500000e-01  1.184603e+01
    endloop
  endfacet
  facet normal  2.786843e-01 -2.786843e-01 -9.190593e-01
    outer loop
      vertex  -1.294095e-01  2.241439e-01  1.194593e+01
      vertex  -4.330127e-01  2.500000e-01  1.184603e+01
      vertex  -2.500000e-01  4.330127e-01  1.184603e+01
    endloop
  endfacet
  facet normal  3.806898e-01 -1.020053e-01 -9.190594e-01
    outer loop
      vertex  -2.241439e-01  1.294095e-01  1.194593e+01
      vertex  -2.588190e-01  3.169619e-17  1.194593e+01
      vertex  -5.000000e-01  6.123234e-17  1.184603e+01
    endloop
  endfacet
  facet normal  3.806899e-01 -1.020055e-01 -9.190593e-01
    outer loop
      vertex  -2.241439e-01  1.294095e-01  1.194593e+01
      vertex  -5.000000e-01  6.123234e-17  1.184603e+01
      vertex  -4.330127e-01  2.500000e-01  1.184603e+01
    endloop
  endfacet
  facet normal  3.806900e-01  1.020054e-01 -9.190594e-01
    outer loop
      vertex  -2.588190e-01  3.169619e-17  1.194593e+01
      vertex  -2.241439e-01 -1.294095e-01  1.194593e+01
      vertex  -4.330127e-01 -2.500000e-01  1.184603e+01
    endloop
  endfacet
  facet normal  3.806898e-01  1.020055e-01 -9.190594e-01
    outer loop
      vertex  -2.588190e-01  3.169619e-17  1.194593e+01
      vertex  -4.330127e-01 -2.500000e-01  1.184603e+01
      vertex  -5.000000e-01  6.123234e-17  1.184603e+01
    endloop
  endfacet
  facet normal  2.786843e-01  2.786843e-01 -9.190593e-01
    outer loop
      vertex  -2.241439e-01 -1.294095e-01  1.194593e+01
      vertex  -1.294095e-01 -2.241439e-01  1.194593e+01
      vertex  -2.500000e-01 -4.330127e-01  1.184603e+01
    endloop
  endfacet
  facet normal  2.786843e-01  2.786843e-01 -9.190593e-01
    outer loop
      vertex  -2.241439e-01 -1.294095e-01  1.194593e+01
      vertex  -2.500000e-01 -4.330127e-01  1.184603e+01
      vertex  -4.330127e-01 -2.500000e-01  1.184603e+01
    endloop
  endfacet
  facet normal  1.020053e-01  3.806898e-01 -9.190594e-01
    outer loop
      vertex  -1.294095e-01 -2.241439e-01  1.194593e+01
      vertex  -4.754429e-17 -2.588190e-01  1.194593e+01
      vertex  -9.184851e-17 -5.000000e-01  1.184603e+01
    endloop
  endfacet
  facet normal  1.020055e-01  3.806899e-01 -9.190593e-01
    outer loop
      vertex  -1.294095e-01 -2.241439e-01  1.194593e+01
      vertex  -9.184851e-17 -5.000000e-01  1.184603e+01
      vertex  -2.500000e-01 -4.330127e-01  1.184603e+01
    endloop
  endfacet
  facet normal -1.020054e-01  3.806900e-01 -9.190594e-01
    outer loop
      vertex  -4.754429e-17 -2.588190e-01  1.194593e+01
      vertex   1.294095e-01 -2.241439e-01  1.194593e+01
      vertex   2.500000e-01 -4.330127e-01  1.184603e+01
    endloop
  endfacet
  facet normal -1.020055e-01  3.806898e-01 -9.190594e-01
    outer loop
      vertex  -4.754429e-17 -2.588190e-01  1.194593e+01
      vertex   2.500000e-01 -4.330127e-01  1.184603e+01
      vertex  -9.184851e-17 -5.000000e-01  1.184603e+01
    endloop
  endfacet
  facet normal -2.786843e-01  2.786843e-01 -9.190593e-01
    outer loop
      vertex   1.294095e-01 -2.241439e-01  1.194593e+01
      vertex   2.241439e-01 -1.294095e-01  1.194593e+01
      vertex   4.330127e-01 -2.500000e-01  1.184603e+01
    endloop
  endfacet
  facet normal -2.786843e-01  2.786843e-01 -9.190593e-01
    outer loop
      vertex   1.294095e-01 -2.241439e-01  1.194593e+01
      vertex   4.330127e-01 -2.500000e-01  1.184603e+01
      vertex   2.500000e-01 -4.330127e-01  1.184603e+01
    endloop
  endfacet
  facet normal -3.806898e-01  1.020053e-01 -9.190594e-01
    outer loop
      vertex   2.241439e-01 -1.294095e-01  1.194593e+01
      vertex   2.588190e-01  0.000000e+00  1.194593e+01
      vertex   5.000000e-01  0.000000e+00  1.184603e+01
    endloop
  endfacet
  facet normal -3.806899e-01  1.020055e-01 -9.190593e-01
    outer loop
      vertex   2.241439e-01 -1.294095e-01  1.194593e+01
      vertex   5.000000e-01  0.000000e+00  1.184603e+01
      vertex   4.330127e-01 -2.500000e-01  1.184603e+01
    endloop
  endfacet
  facet normal -6.008203e-01 -1.609893e-01 -7.830054e-01
    outer loop
      vertex   5.000000e-01  0.000000e+00  1.184603e+01
      vertex   4.330127e-01  2.500000e-01  1.184603e+01
      vertex   6.123724e-01  3.535534e-01  1.168711e+01
    endloop
  endfacet
  facet normal -6.008201e-01 -1.609894e-01 -7.830055e-01
    outer loop
      vertex   5.000000e-01  0.000000e+00  1.184603e+01
      vertex   6.123724e-01  3.535534e-01  1.168711e+01
      vertex   7.071068e-01  0.000000e+00  1.168711e+01
    endloop
  endfacet
  facet normal -4.398310e-01 -4.398310e-01 -7.830054e-01
    outer loop
      vertex   4.330127e-01  2.500000e-01  1.184603e+01
      vertex   2.500000e-01  4.330127e-01  1.184603e+01
      vertex   3.535534e-01  6.123724e-01  1.168711e+01
    endloop
  endfacet
  facet normal -4.398310e-01 -4.398310e-01 -7.830054e-01
    outer loop
      vertex   4.330127e-01  2.500000e-01  1.184603e+01
      vertex   3.535534e-01  6.123724e-01  1.168711e+01
      vertex   6.123724e-01  3.535534e-01  1.168711e+01
    endloop
  endfacet
  facet normal -1.609893e-01 -6.008202e-01 -7.830055e-01
    outer loop
      vertex   2.500000e-01  4.330127e-01  1.184603e+01
      vertex   3.061617e-17  5.000000e-01  1.184603e+01
      vertex   4.329780e-17  7.071068e-01  1.168711e+01
    endloop
  endfacet
  facet normal -1.609894e-01 -6.008202e-01 -7.830054e-01
    outer loop
      vertex   2.500000e-01  4.330127e-01  1.184603e+01
      vertex   4.329780e-17  7.071068e-01  1.168711e+01
      vertex   3.535534e-01  6.123724e-01  1.168711e+01
    endloop
  endfacet
  facet normal  1.609893e-01 -6.008203e-01 -7.830054e-01
    outer loop
      vertex   3.061617e-17  5.000000e-01  1.184603e+01
      vertex  -2.500000e-01  4.330127e-01  1.184603e+01
      vertex  -3.535534e-01  6.123724e-01  1.168711e+01
    endloop
  endfacet
  facet normal  1.609894e-01 -6.008201e-01 -7.830055e-01
    outer loop
      vertex   3.061617e-17  5.000000e-01  1.184603e+01
      vertex  -3.535534e-01  6.123724e-01  1.168711e+01
      vertex   4.329780e-17  7.071068e-01  1.168711e+01
    endloop
  endfacet
  facet normal  4.398310e-01 -4.398310e-01 -7.830054e-01
    outer loop
      vertex  -2.500000e-01  4.330127e-01  1.184603e+01
      vertex  -4.330127e-01  2.500000e-01  1.184603e+01
      vertex  -6.123724e-01  3.535534e-01  1.168711e+01
    endloop
  endfacet
  facet normal  4.398310e-01 -4.398310e-01 -7.830054e-01
    outer loop
      vertex  -2.500000e-01  4.330127e-01  1.184603e+01
      vertex  -6.123724e-01  3.535534e-01  1.168711e+01
      vertex  -3.535534e-01  6.123724e-01  1.168711e+01
    endloop
  endfacet
  facet normal  6.008202e-01 -1.609893e-01 -7.830055e-01
    outer loop
      vertex  -4.330127e-01  2.500000e-01  1.184603e+01
      vertex  -5.000000e-01  6.123234e-17  1.184603e+01
      vertex  -7.071068e-01  8.659561e-17  1.168711e+01
    endloop
  endfacet
  facet normal  6.008202e-01 -1.609894e-01 -7.830054e-01
    outer loop
      vertex  -4.330127e-01  2.500000e-01  1.184603e+01
      vertex  -7.071068e-01  8.659561e-17  1.168711e+01
      vertex  -6.123724e-01  3.535534e-01  1.168711e+01
    endloop
  endfacet
  facet normal  6.008203e-01  1.609893e-01 -7.830054e-01
    outer loop
      vertex  -5.000000e-01  6.123234e-17  1.184603e+01
      vertex  -4.330127e-01 -2.500000e-01  1.184603e+01
      vertex  -6.123724e-01 -3.535534e-01  1.168711e+01
    endloop
  endfacet
  facet normal  6.008201e-01  1.609894e-01 -7.830055e-01
    outer loop
      vertex  -5.000000e-01  6.123234e-17  1.184603e+01
      vertex  -6.123724e-01 -3.535534e-01  1.168711e+01
      vertex  -7.071068e-01  8.659561e-17  1.168711e+01
    endloop
  endfacet
  facet normal  4.398310e-01  4.398310e-01 -7.830054e-01
    outer loop
      vertex  -4.330127e-01 -2.500000e-01  1.184603e+01
      vertex  -2.500000e-01 -4.330127e-01  1.184603e+01
      vertex  -3.535534e-01 -6.123724e-01  1.168711e+01
    endloop
  endfacet
  facet normal  4.398310e-01  4.398310e-01 -7.830054e-01
    outer loop
      vertex  -4.330127e-01 -2.500000e-01  1.184603e+01
      vertex  -3.535534e-01 -6.123724e-01  1.168711e+01
      vertex  -6.123724e-01 -3.535534e-01  1.168711e+01
    endloop
  endfacet
  facet normal  1.609893e-01  6.008202e-01 -7.830055e-01
    outer loop
      vertex  -2.500000e-01 -4.330127e-01  1.184603e+01
      vertex  -9.184851e-17 -5.000000e-01  1.184603e+01
      vertex  -1.298934e-16 -7.071068e-01  1.168711e+01
    endloop
  endfacet
  facet normal  1.609894e-01  6.008202e-01 -7.830054e-01
    outer loop
      vertex  -2.500000e-01 -4.330127e-01  1.184603e+01
      vertex  -1.298934e-16 -7.071068e-01  1.168711e+01
      vertex  -3.535534e-01 -6.123724e-01  1.168711e+01
    endloop
  endfacet
  facet normal -1.609893e-01  6.008203e-01 -7.830054e-01
    outer loop
      vertex  -9.184851e-17 -5.000000e-01  1.184603e+01
      vertex   2.500000e-01 -4.330127e-01  1.184603e+01
      vertex   3.535534e-01 -6.123724e-01  1.168711e+01
    endloop
  endfacet
  facet normal -1.609894e-01  6.008201e-01 -7.830055e-01
    outer loop
      vertex  -9.184851e-17 -5.000000e-01  1.184603e+01
      vertex   3.535534e-01 -6.123724e-01  1.168711e+01
      vertex  -1.298934e-16 -7.071068e-01  1.168711e+01
    endloop
  endfacet
  facet normal -4.398310e-01  4.398310e-01 -7.830054e-01
    outer loop
      vertex   2.500000e-01 -4.330127e-01  1.184603e+01
      vertex   4.330127e-01 -2.500000e-01  1.184603e+01
      vertex   6.123724e-01 -3.535534e-01  1.168711e+01
    endloop
  endfacet
  facet normal -4.398310e-01  4.398310e-01 -7.830054e-01
    outer loop
      vertex   2.500000e-01 -4.330127e-01  1.184603e+01
      vertex   6.123724e-01 -3.535534e-01  1.168711e+01
      vertex   3.535534e-01 -6.123724e-01  1.168711e+01
    endloop
  endfacet
  facet normal -6.008202e-01  1.609893e-01 -7.830055e-01
    outer loop
      vertex   4.330127e-01 -2.500000e-01  1.184603e+01
      vertex   5.000000e-01  0.000000e+00  1.184603e+01
      vertex   7.071068e-01  0.000000e+00  1.168711e+01
    endloop
  endfacet
  facet normal -6.008202e-01  1.609894e-01 -7.830054e-01
    outer loop
      vertex   4.330127e-01 -2.500000e-01  1.184603e+01
      vertex   7.071068e-01  0.000000e+00  1.168711e+01
      vertex   6.123724e-01 -3.535534e-01  1.168711e+01
    endloop
  endfacet
  facet normal -7.760129e-01 -2.079322e-01 -5.954564e-01
    outer loop
      vertex   7.071068e-01  0.000000e+00  1.168711e+01
      vertex   6.123724e-01  3.535534e-01  1.168711e+01
      vertex   7.500000e-01  4.330127e-01  1.148000e+01
    endloop
  endfacet
  facet normal -7.760131e-01 -2.079321e-01 -5.954561e-01
    outer loop
      vertex   7.071068e-01  0.000000e+00  1.168711e+01
      vertex   7.500000e-01  4.330127e-01  1.148000e+01
      vertex   8.660254e-01  0.000000e+00  1.148000e+01
    endloop
  endfacet
  facet normal -5.680809e-01 -5.680809e-01 -5.954563e-01
    outer loop
      vertex   6.123724e-01  3.535534e-01  1.168711e+01
      vertex   3.535534e-01  6.123724e-01  1.168711e+01
      vertex   4.330127e-01  7.500000e-01  1.148000e+01
    endloop
  endfacet
  facet normal -5.680810e-01 -5.680809e-01 -5.954562e-01
    outer loop
      vertex   6.123724e-01  3.535534e-01  1.168711e+01
      vertex   4.330127e-01  7.500000e-01  1.148000e+01
      vertex   7.500000e-01  4.330127e-01  1.148000e+01
    endloop
  endfacet
  facet normal -2.079322e-01 -7.760131e-01 -5.954561e-01
    outer loop
      vertex   3.535534e-01  6.123724e-01  1.168711e+01
      vertex   4.329780e-17  7.071068e-01  1.168711e+01
      vertex   5.302876e-17  8.660254e-01  1.148000e+01
    endloop
  endfacet
  facet normal -2.079320e-01 -7.760129e-01 -5.954564e-01
    outer loop
      vertex   3.535534e-01  6.123724e-01  1.168711e+01
      vertex   5.302876e-17  8.660254e-01  1.148000e+01
      vertex   4.330127e-01  7.500000e-01  1.148000e+01
    endloop
  endfacet
  facet normal  2.079322e-01 -7.760129e-01 -5.954564e-01
    outer loop
      vertex   4.329780e-17  7.071068e-01  1.168711e+01
      vertex  -3.535534e-01  6.123724e-01  1.168711e+01
      vertex  -4.330127e-01  7.500000e-01  1.148000e+01
    endloop
  endfacet
  facet normal  2.079321e-01 -7.760131e-01 -5.954561e-01
    outer loop
      vertex   4.329780e-17  7.071068e-01  1.168711e+01
      vertex  -4.330127e-01  7.500000e-01  1.148000e+01
      vertex   5.302876e-17  8.660254e-01  1.148000e+01
    endloop
  endfacet
  facet normal  5.680809e-01 -5.680809e-01 -5.954563e-01
    outer loop
      vertex  -3.535534e-01  6.123724e-01  1.168711e+01
      vertex  -6.123724e-01  3.535534e-01  1.168711e+01
      vertex  -7.500000e-01  4.330127e-01  1.148000e+01
    endloop
  endfacet
  facet normal  5.680809e-01 -5.680810e-01 -5.954562e-01
    outer loop
      vertex  -3.535534e-01  6.123724e-01  1.168711e+01
      vertex  -7.500000e-01  4.330127e-01  1.148000e+01
      vertex  -4.330127e-01  7.500000e-01  1.148000e+01
    endloop
  endfacet
  facet normal  7.760131e-01 -2.079322e-01 -5.954561e-01
    outer loop
      vertex  -6.123724e-01  3.535534e-01  1.168711e+01
      vertex  -7.071068e-01  8.659561e-17  1.168711e+01
      vertex  -8.660254e-01  1.060575e-16  1.148000e+01
    endloop
  endfacet
  facet normal  7.760129e-01 -2.079320e-01 -5.954564e-01
    outer loop
      vertex  -6.123724e-01  3.535534e-01  1.168711e+01
      vertex  -8.660254e-01  1.060575e-16  1.148000e+01
      vertex  -7.500000e-01  4.330127e-01  1.148000e+01
    endloop
  endfacet
  facet normal  7.760129e-01  2.079322e-01 -5.954564e-01
    outer loop
      vertex  -7.071068e-01  8.659561e-17  1.168711e+01
      vertex  -6.123724e-01 -3.535534e-01  1.168711e+01
      vertex  -7.500000e-01 -4.330127e-01  1.148000e+01
    endloop
  endfacet
  facet normal  7.760131e-01  2.079321e-01 -5.954561e-01
    outer loop
      vertex  -7.071068e-01  8.659561e-17  1.168711e+01
      vertex  -7.500000e-01 -4.330127e-01  1.148000e+01
      vertex  -8.660254e-01  1.060575e-16  1.148000e+01
    endloop
  endfacet
  facet normal  5.680809e-01  5.680809e-01 -5.954563e-01
    outer loop
      vertex  -6.123724e-01 -3.535534e-01  1.168711e+01
      vertex  -3.535534e-01 -6.123724e-01  1.168711e+01
      vertex  -4.330127e-01 -7.500000e-01  1.148000e+01
    endloop
  endfacet
  facet normal  5.680810e-01  5.680809e-01 -5.954562e-01
    outer loop
      vertex  -6.123724e-01 -3.535534e-01  1.168711e+01
      vertex  -4.330127e-01 -7.500000e-01  1.148000e+01
      vertex  -7.500000e-01 -4.330127e-01  1.148000e+01
    endloop
  endfacet
  facet normal  2.079322e-01  7.760131e-01 -5.954561e-01
    outer loop
      vertex  -3.535534e-01 -6.123724e-01  1.168711e+01
      vertex  -1.298934e-16 -7.071068e-01  1.168711e+01
      vertex  -1.590863e-16 -8.660254e-01  1.148000e+01
    endloop
  endfacet
  facet normal  2.079320e-01  7.760129e-01 -5.954564e-01
    outer loop
      vertex  -3.535534e-01 -6.123724e-01  1.168711e+01
      vertex  -1.590863e-16 -8.660254e-01  1.148000e+01
      vertex  -4.330127e-01 -7.500000e-01  1.148000e+01
    endloop
  endfacet
  facet normal -2.079322e-01  7.760129e-01 -5.954564e-01
    outer loop
      vertex  -1.298934e-16 -7.071068e-01  1.168711e+01
      vertex   3.535534e-01 -6.123724e-01  1.168711e+01
      vertex   4.330127e-01 -7.500000e-01  1.148000e+01
    endloop
  endfacet
  facet normal -2.079321e-01  7.760131e-01 -5.954561e-01
    outer loop
      vertex  -1.298934e-16 -7.071068e-01  1.168711e+01
      vertex   4.330127e-01 -7.500000e-01  1.148000e+01
      vertex  -1.590863e-16 -8.660254e-01  1.148000e+01
    endloop
  endfacet
  facet normal -5.680809e-01  5.680809e-01 -5.954563e-01
    outer loop
      vertex   3.535534e-01 -6.123724e-01  1.168711e+01
      vertex   6.123724e-01 -3.535534e-01  1.168711e+01
      vertex   7.500000e-01 -4.330127e-01  1.148000e+01
    endloop
  endfacet
  facet normal -5.680809e-01  5.680810e-01 -5.954562e-01
    outer loop
      vertex   3.535534e-01 -6.123724e-01  1.168711e+01
      vertex   7.500000e-01 -4.330127e-01  1.148000e+01
      vertex   4.330127e-01 -7.500000e-01  1.148000e+01
    endloop
  endfacet
  facet normal -7.760131e-01  2.079322e-01 -5.954561e-01
    outer loop
      vertex   6.123724e-01 -3.535534e-01  1.168711e+01
      vertex   7.071068e-01  0.000000e+00  1.168711e+01
      vertex   8.660254e-01  0.000000e+00  1.148000e+01
    endloop
  endfacet
  facet normal -7.760129e-01  2.079320e-01 -5.954564e-01
    outer loop
      vertex   6.123724e-01 -3.535534e-01  1.168711e+01
      vertex   8.660254e-01  0.000000e+00  1.148000e+01
      vertex   7.500000e-01 -4.330127e-01  1.148000e+01
    endloop
  endfacet
  facet normal -8.968090e-01 -2.402992e-01 -3.714699e-01
    outer loop
      vertex   8.660254e-01  0.000000e+00  1.148000e+01
      vertex   7.500000e-01  4.330127e-01  1.148000e+01
      vertex   8.365163e-01  4.829629e-01  1.123882e+01
    endloop
  endfacet
  facet normal -8.968090e-01 -2.402992e-01 -3.714698e-01
    outer loop
      vertex   8.660254e-01  0.000000e+00  1.148000e+01
      vertex   8.365163e-01  4.829629e-01  1.123882e+01
      vertex   9.659258e-01  0.000000e+00  1.123882e+01
    endloop
  endfacet
  facet normal -6.565098e-01 -6.565098e-01 -3.714699e-01
    outer loop
      vertex   7.500000e-01  4.330127e-01  1.148000e+01
      vertex   4.330127e-01  7.500000e-01  1.148000e+01
      vertex   4.829629e-01  8.365163e-01  1.123882e+01
    endloop
  endfacet
  facet normal -6.565098e-01 -6.565098e-01 -3.714699e-01
    outer loop
      vertex   7.500000e-01  4.330127e-01  1.148000e+01
      vertex   4.829629e-01  8.365163e-01  1.123882e+01
      vertex   8.365163e-01  4.829629e-01  1.123882e+01
    endloop
  endfacet
  facet normal -2.402992e-01 -8.968090e-01 -3.714698e-01
    outer loop
      vertex   4.330127e-01  7.500000e-01  1.148000e+01
      vertex   5.302876e-17  8.660254e-01  1.148000e+01
      vertex   5.914590e-17  9.659258e-01  1.123882e+01
    endloop
  endfacet
  facet normal -2.402992e-01 -8.968090e-01 -3.714699e-01
    outer loop
      vertex   4.330127e-01  7.500000e-01  1.148000e+01
      vertex   5.914590e-17  9.659258e-01  1.123882e+01
      vertex   4.829629e-01  8.365163e-01  1.123882e+01
    endloop
  endfacet
  facet normal  2.402992e-01 -8.968090e-01 -3.714699e-01
    outer loop
      vertex   5.302876e-17  8.660254e-01  1.148000e+01
      vertex  -4.330127e-01  7.500000e-01  1.148000e+01
      vertex  -4.829629e-01  8.365163e-01  1.123882e+01
    endloop
  endfacet
  facet normal  2.402992e-01 -8.968090e-01 -3.714698e-01
    outer loop
      vertex   5.302876e-17  8.660254e-01  1.148000e+01
      vertex  -4.829629e-01  8.365163e-01  1.123882e+01
      vertex   5.914590e-17  9.659258e-01  1.123882e+01
    endloop
  endfacet
  facet normal  6.565098e-01 -6.565098e-01 -3.714699e-01
    outer loop
      vertex  -4.330127e-01  7.500000e-01  1.148000e+01
      vertex  -7.500000e-01  4.330127e-01  1.148000e+01
      vertex  -8.365163e-01  4.829629e-01  1.123882e+01
    endloop
  endfacet
  facet normal  6.565098e-01 -6.565098e-01 -3.714699e-01
    outer loop
      vertex  -4.330127e-01  7.500000e-01  1.148000e+01
      vertex  -8.365163e-01  4.829629e-01  1.123882e+01
      vertex  -4.829629e-01  8.365163e-01  1.123882e+01
    endloop
  endfacet
  facet normal  8.968090e-01 -2.402992e-01 -3.714698e-01
    outer loop
      vertex  -7.500000e-01  4.330127e-01  1.148000e+01
      vertex  -8.660254e-01  1.060575e-16  1.148000e+01
      vertex  -9.659258e-01  1.182918e-16  1.123882e+01
    endloop
  endfacet
  facet normal  8.968090e-01 -2.402992e-01 -3.714699e-01
    outer loop
      vertex  -7.500000e-01  4.330127e-01  1.148000e+01
      vertex  -9.659258e-01  1.182918e-16  1.123882e+01
      vertex  -8.365163e-01  4.829629e-01  1.123882e+01
    endloop
  endfacet
  facet normal  8.968090e-01  2.402992e-01 -3.714699e-01
    outer loop
      vertex  -8.660254e-01  1.060575e-16  1.148000e+01
      vertex  -7.500000e-01 -4.330127e-01  1.148000e+01
      vertex  -8.365163e-01 -4.829629e-01  1.123882e+01
    endloop
  endfacet
  facet normal  8.968090e-01  2.402992e-01 -3.714698e-01
    outer loop
      vertex  -8.660254e-01  1.060575e-16  1.148000e+01
      vertex  -8.365163e-01 -4.829629e-01  1.123882e+01
      vertex  -9.659258e-01  1.182918e-16  1.123882e+01
    endloop
  endfacet
  facet normal  6.565098e-01  6.565098e-01 -3.714699e-01
    outer loop
      vertex  -7.500000e-01 -4.330127e-01  1.148000e+01
      vertex  -4.330127e-01 -7.500000e-01  1.148000e+01
      vertex  -4.829629e-01 -8.365163e-01  1.123882e+01
    endloop
  endfacet
  facet normal  6.565098e-01  6.565098e-01 -3.714699e-01
    outer loop
      vertex  -7.500000e-01 -4.330127e-01  1.148000e+01
      vertex  -4.829629e-01 -8.365163e-01  1.123882e+01
      vertex  -8.365163e-01 -4.829629e-01  1.123882e+01
    endloop
  endfacet
  facet normal  2.402992e-01  8.968090e-01 -3.714698e-01
    outer loop
      vertex  -4.330127e-01 -7.500000e-01  1.148000e+01
      vertex  -1.590863e-16 -8.660254e-01  1.148000e+01
      vertex  -1.774377e-16 -9.659258e-01  1.123882e+01
    endloop
  endfacet
  facet normal  2.402992e-01  8.968090e-01 -3.714699e-01
    outer loop
      vertex  -4.330127e-01 -7.500000e-01  1.148000e+01
      vertex  -1.774377e-16 -9.659258e-01  1.123882e+01
      vertex  -4.829629e-01 -8.365163e-01  1.123882e+01
    endloop
  endfacet
  facet normal -2.402992e-01  8.968090e-01 -3.714699e-01
    outer loop
      vertex  -1.590863e-16 -8.660254e-01  1.148000e+01
      vertex   4.330127e-01 -7.500000e-01  1.148000e+01
      vertex   4.829629e-01 -8.365163e-01  1.123882e+01
    endloop
  endfacet
  facet normal -2.402992e-01  8.968090e-01 -3.714698e-01
    outer loop
      vertex  -1.590863e-16 -8.660254e-01  1.148000e+01
      vertex   4.829629e-01 -8.365163e-01  1.123882e+01
      vertex  -1.774377e-16 -9.659258e-01  1.123882e+01
    endloop
  endfacet
  facet normal -6.565098e-01  6.565098e-01 -3.714699e-01
    outer loop
      vertex   4.330127e-01 -7.500000e-01  1.148000e+01
      vertex   7.500000e-01 -4.330127e-01  1.148000e+01
      vertex   8.365163e-01 -4.829629e-01  1.123882e+01
    endloop
  endfacet
  facet normal -6.565098e-01  6.565098e-01 -3.714699e-01
    outer loop
      vertex   4.330127e-01 -7.500000e-01  1.148000e+01
      vertex   8.365163e-01 -4.829629e-01  1.123882e+01
      vertex   4.829629e-01 -8.365163e-01  1.123882e+01
    endloop
  endfacet
  facet normal -8.968090e-01  2.402992e-01 -3.714698e-01
    outer loop
      vertex   7.500000e-01 -4.330127e-01  1.148000e+01
      vertex   8.660254e-01  0.000000e+00  1.148000e+01
      vertex   9.659258e-01  0.000000e+00  1.123882e+01
    endloop
  endfacet
  facet normal -8.968090e-01  2.402992e-01 -3.714699e-01
    outer loop
      vertex   7.500000e-01 -4.330127e-01  1.148000e+01
      vertex   9.659258e-01  0.000000e+00  1.123882e+01
      vertex   8.365163e-01 -4.829629e-01  1.123882e+01
    endloop
  endfacet
  facet normal -9.582092e-01 -2.567513e-01 -1.261507e-01
    outer loop
      vertex   9.659258e-01  0.000000e+00  1.123882e+01
      vertex   8.365163e-01  4.829629e-01  1.123882e+01
      vertex   8.660254e-01  5.000000e-01  1.098000e+01
    endloop
  endfacet
  facet normal -9.582092e-01 -2.567514e-01 -1.261509e-01
    outer loop
      vertex   9.659258e-01  0.000000e+00  1.123882e+01
      vertex   8.660254e-01  5.000000e-01  1.098000e+01
      vertex   1.000000e+00  0.000000e+00  1.098000e+01
    endloop
  endfacet
  facet normal -7.014579e-01 -7.014579e-01 -1.261508e-01
    outer loop
      vertex   8.365163e-01  4.829629e-01  1.123882e+01
      vertex   4.829629e-01  8.365163e-01  1.123882e+01
      vertex   5.000000e-01  8.660254e-01  1.098000e+01
    endloop
  endfacet
  facet normal -7.014578e-01 -7.014577e-01 -1.261508e-01
    outer loop
      vertex   8.365163e-01  4.829629e-01  1.123882e+01
      vertex   5.000000e-01  8.660254e-01  1.098000e+01
      vertex   8.660254e-01  5.000000e-01  1.098000e+01
    endloop
  endfacet
  facet normal -2.567513e-01 -9.582091e-01 -1.261509e-01
    outer loop
      vertex   4.829629e-01  8.365163e-01  1.123882e+01
      vertex   5.914590e-17  9.659258e-01  1.123882e+01
      vertex   6.123234e-17  1.000000e+00  1.098000e+01
    endloop
  endfacet
  facet normal -2.567514e-01 -9.582092e-01 -1.261507e-01
    outer loop
      vertex   4.829629e-01  8.365163e-01  1.123882e+01
      vertex   6.123234e-17  1.000000e+00  1.098000e+01
      vertex   5.000000e-01  8.660254e-01  1.098000e+01
    endloop
  endfacet
  facet normal  2.567513e-01 -9.582092e-01 -1.261507e-01
    outer loop
      vertex   5.914590e-17  9.659258e-01  1.123882e+01
      vertex  -4.829629e-01  8.365163e-01  1.123882e+01
      vertex  -5.000000e-01  8.660254e-01  1.098000e+01
    endloop
  endfacet
  facet normal  2.567514e-01 -9.582092e-01 -1.261509e-01
    outer loop
      vertex   5.914590e-17  9.659258e-01  1.123882e+01
      vertex  -5.000000e-01  8.660254e-01  1.098000e+01
      vertex   6.123234e-17  1.000000e+00  1.098000e+01
    endloop
  endfacet
  facet normal  7.014579e-01 -7.014579e-01 -1.261508e-01
    outer loop
      vertex  -4.829629e-01  8.365163e-01  1.123882e+01
      vertex  -8.365163e-01  4.829629e-01  1.123882e+01
      vertex  -8.660254e-01  5.000000e-01  1.098000e+01
    endloop
  endfacet
  facet normal  7.014577e-01 -7.014578e-01 -1.261508e-01
    outer loop
      vertex  -4.829629e-01  8.365163e-01  1.123882e+01
      vertex  -8.660254e-01  5.000000e-01  1.098000e+01
      vertex  -5.000000e-01  8.660254e-01  1.098000e+01
    endloop
  endfacet
  facet normal  9.582091e-01 -2.567513e-01 -1.261509e-01
    outer loop
      vertex  -8.365163e-01  4.829629e-01  1.123882e+01
      vertex  -9.659258e-01  1.182918e-16  1.123882e+01
      vertex  -1.000000e+00  1.224647e-16  1.098000e+01
    endloop
  endfacet
  facet normal  9.582092e-01 -2.567514e-01 -1.261507e-01
    outer loop
      vertex  -8.365163e-01  4.829629e-01  1.123882e+01
      vertex  -1.000000e+00  1.224647e-16  1.098000e+01
      vertex  -8.660254e-01  5.000000e-01  1.098000e+01
    endloop
  endfacet
  facet normal  9.582092e-01  2.567513e-01 -1.261507e-01
    outer loop
      vertex  -9.659258e-01  1.182918e-16  1.123882e+01
      vertex  -8.365163e-01 -4.829629e-01  1.123882e+01
      vertex  -8.660254e-01 -5.000000e-01  1.098000e+01
    endloop
  endfacet
  facet normal  9.582092e-01  2.567514e-01 -1.261509e-01
    outer loop
      vertex  -9.659258e-01  1.182918e-16  1.123882e+01
      vertex  -8.660254e-01 -5.000000e-01  1.098000e+01
      vertex  -1.000000e+00  1.224647e-16  1.098000e+01
    endloop
  endfacet
  facet normal  7.014579e-01  7.014579e-01 -1.261508e-01
    outer loop
      vertex  -8.365163e-01 -4.829629e-01  1.123882e+01
      vertex  -4.829629e-01 -8.365163e-01  1.123882e+01
      vertex  -5.000000e-01 -8.660254e-01  1.098000e+01
    endloop
  endfacet
  facet normal  7.014578e-01  7.014577e-01 -1.261508e-01
    outer loop
      vertex  -8.365163e-01 -4.829629e-01  1.123882e+01
      vertex  -5.000000e-01 -8.660254e-01  1.098000e+01
      vertex  -8.660254e-01 -5.000000e-01  1.098000e+01
    endloop
  endfacet
  facet normal  2.567513e-01  9.582091e-01 -1.261509e-01
    outer loop
      vertex  -4.829629e-01 -8.365163e-01  1.123882e+01
      vertex  -1.774377e-16 -9.659258e-01  1.123882e+01
      vertex  -1.836970e-16 -1.000000e+00  1.098000e+01
    endloop
  endfacet
  facet normal  2.567514e-01  9.582092e-01 -1.261507e-01
    outer loop
      vertex  -4.829629e-01 -8.365163e-01  1.123882e+01
      vertex  -1.836970e-16 -1.000000e+00  1.098000e+01
      vertex  -5.000000e-01 -8.660254e-01  1.098000e+01
    endloop
  endfacet
  facet normal -2.567513e-01  9.582092e-01 -1.261507e-01
    outer loop
      vertex  -1.774377e-16 -9.659258e-01  1.123882e+01
      vertex   4.829629e-01 -8.365163e-01  1.123882e+01
      vertex   5.000000e-01 -8.660254e-01  1.098000e+01
    endloop
  endfacet
  facet normal -2.567514e-01  9.582092e-01 -1.261509e-01
    outer loop
      vertex  -1.774377e-16 -9.659258e-01  1.123882e+01
      vertex   5.000000e-01 -8.660254e-01  1.098000e+01
      vertex  -1.836970e-16 -1.000000e+00  1.098000e+01
    endloop
  endfacet
  facet normal -7.014579e-01  7.014579e-01 -1.261508e-01
    outer loop
      vertex   4.829629e-01 -8.365163e-01  1.123882e+01
      vertex   8.365163e-01 -4.829629e-01  1.123882e+01
      vertex   8.660254e-01 -5.000000e-01  1.098000e+01
    endloop
  endfacet
  facet normal -7.014577e-01  7.014578e-01 -1.261508e-01
    outer loop
      vertex   4.829629e-01 -8.365163e-01  1.123882e+01
      vertex   8.660254e-01 -5.000000e-01  1.098000e+01
      vertex   5.000000e-01 -8.660254e-01  1.098000e+01
    endloop
  endfacet
  facet normal -9.582091e-01  2.567513e-01 -1.261509e-01
    outer loop
      vertex   8.365163e-01 -4.829629e-01  1.123882e+01
      vertex   9.659258e-01  0.000000e+00  1.123882e+01
      vertex   1.000000e+00  0.000000e+00  1.098000e+01
    endloop
  endfacet
  facet normal -9.582092e-01  2.567514e-01 -1.261507e-01
    outer loop
      vertex   8.365163e-01 -4.829629e-01  1.123882e+01
      vertex   1.000000e+00  0.000000e+00  1.098000e+01
      vertex   8.660254e-01 -5.000000e-01  1.098000e+01
    endloop
  endfacet
  facet normal -9.582092e-01 -2.567514e-01  1.261507e-01
    outer loop
      vertex   1.000000e+00  0.000000e+00  1.098000e+01
      vertex   8.660254e-01  5.000000e-01  1.098000e+01
      vertex   8.365163e-01  4.829629e-01  1.072118e+01
    endloop
  endfacet
  facet normal -9.582091e-01 -2.567513e-01  1.261509e-01
    outer loop
      vertex   1.000000e+00  0.000000e+00  1.098000e+01
      vertex   8.365163e-01  4.829629e-01  1.072118e+01
      vertex   9.659258e-01  0.000000e+00  1.072118e+01
    endloop
  endfacet
  facet normal -7.014578e-01 -7.014578e-01  1.261508e-01
    outer loop
      vertex   8.660254e-01  5.000000e-01  1.098000e+01
      vertex   5.000000e-01  8.660254e-01  1.098000e+01
      vertex   4.829629e-01  8.365163e-01  1.072118e+01
    endloop
  endfacet
  facet normal -7.014577e-01 -7.014578e-01  1.261508e-01
    outer loop
      vertex   8.660254e-01  5.000000e-01  1.098000e+01
      vertex   4.829629e-01  8.365163e-01  1.072118e+01
      vertex   8.365163e-01  4.829629e-01  1.072118e+01
    endloop
  endfacet
  facet normal -2.567514e-01 -9.582092e-01  1.261509e-01
    outer loop
      vertex   5.000000e-01  8.660254e-01  1.098000e+01
      vertex   6.123234e-17  1.000000e+00  1.098000e+01
      vertex   5.914590e-17  9.659258e-01  1.072118e+01
    endloop
  endfacet
  facet normal -2.567513e-01 -9.582092e-01  1.261507e-01
    outer loop
      vertex   5.000000e-01  8.660254e-01  1.098000e+01
      vertex   5.914590e-17  9.659258e-01  1.072118e+01
      vertex   4.829629e-01  8.365163e-01  1.072118e+01
    endloop
  endfacet
  facet normal  2.567514e-01 -9.582092e-01  1.261507e-01
    outer loop
      vertex   6.123234e-17  1.000000e+00  1.098000e+01
      vertex  -5.000000e-01  8.660254e-01  1.098000e+01
      vertex  -4.829629e-01  8.365163e-01  1.072118e+01
    endloop
  endfacet
  facet normal  2.567513e-01 -9.582091e-01  1.261509e-01
    outer loop
      vertex   6.123234e-17  1.000000e+00  1.098000e+01
      vertex  -4.829629e-01  8.365163e-01  1.072118e+01
      vertex   5.914590e-17  9.659258e-01  1.072118e+01
    endloop
  endfacet
  facet normal  7.014578e-01 -7.014578e-01  1.261508e-01
    outer loop
      vertex  -5.000000e-01  8.660254e-01  1.098000e+01
      vertex  -8.660254e-01  5.000000e-01  1.098000e+01
      vertex  -8.365163e-01  4.829629e-01  1.072118e+01
    endloop
  endfacet
  facet normal  7.014578e-01 -7.014577e-01  1.261508e-01
    outer loop
      vertex  -5.000000e-01  8.660254e-01  1.098000e+01
      vertex  -8.365163e-01  4.829629e-01  1.072118e+01
      vertex  -4.829629e-01  8.365163e-01  1.072118e+01
    endloop
  endfacet
  facet normal  9.582092e-01 -2.567514e-01  1.261509e-01
    outer loop
      vertex  -8.660254e-01  5.000000e-01  1.098000e+01
      vertex  -1.000000e+00  1.224647e-16  1.098000e+01
      vertex  -9.659258e-01  1.182918e-16  1.072118e+01
    endloop
  endfacet
  facet normal  9.582092e-01 -2.567513e-01  1.261507e-01
    outer loop
      vertex  -8.660254e-01  5.000000e-01  1.098000e+01
      vertex  -9.659258e-01  1.182918e-16  1.072118e+01
      vertex  -8.365163e-01  4.829629e-01  1.072118e+01
    endloop
  endfacet
  facet normal  9.582092e-01  2.567514e-01  1.261507e-01
    outer loop
      vertex  -1.000000e+00  1.224647e-16  1.098000e+01
      vertex  -8.660254e-01 -5.000000e-01  1.098000e+01
      vertex  -8.365163e-01 -4.829629e-01  1.072118e+01
    endloop
  endfacet
  facet normal  9.582091e-01  2.567513e-01  1.261509e-01
    outer loop
      vertex  -1.000000e+00  1.224647e-16  1.098000e+01
      vertex  -8.365163e-01 -4.829629e-01  1.072118e+01
      vertex  -9.659258e-01  1.182918e-16  1.072118e+01
    endloop
  endfacet
  facet normal  7.014578e-01  7.014578e-01  1.261508e-01
    outer loop
      vertex  -8.660254e-01 -5.000000e-01  1.098000e+01
      vertex  -5.000000e-01 -8.660254e-01  1.098000e+01
      vertex  -4.829629e-01 -8.365163e-01  1.072118e+01
    endloop
  endfacet
  facet normal  7.014577e-01  7.014578e-01  1.261508e-01
    outer loop
      vertex  -8.660254e-01 -5.000000e-01  1.098000e+01
      vertex  -4.829629e-01 -8.365163e-01  1.072118e+01
      vertex  -8.365163e-01 -4.829629e-01  1.072118e+01
    endloop
  endfacet
  facet normal  2.567514e-01  9.582092e-01  1.261509e-01
    outer loop
      vertex  -5.000000e-01 -8.660254e-01  1.098000e+01
      vertex  -1.836970e-16 -1.000000e+00  1.098000e+01
      vertex  -1.774377e-16 -9.659258e-01  1.072118e+01
    endloop
  endfacet
  facet normal  2.567513e-01  9.582092e-01  1.261507e-01
    outer loop
      vertex  -5.000000e-01 -8.660254e-01  1.098000e+01
      vertex  -1.774377e-16 -9.659258e-01  1.072118e+01
      vertex  -4.829629e-01 -8.365163e-01  1.072118e+01
    endloop
  endfacet
  facet normal -2.567514e-01  9.582092e-01  1.261507e-01
    outer loop
      vertex  -1.836970e-16 -1.000000e+00  1.098000e+01
      vertex   5.000000e-01 -8.660254e-01  1.098000e+01
      vertex   4.829629e-01 -8.365163e-01  1.072118e+01
    endloop
  endfacet
  facet normal -2.567513e-01  9.582091e-01  1.261509e-01
    outer loop
      vertex  -1.836970e-16 -1.000000e+00  1.098000e+01
      vertex   4.829629e-01 -8.365163e-01  1.072118e+01
      vertex  -1.774377e-16 -9.659258e-01  1.072118e+01
    endloop
  endfacet
  facet normal -7.014578e-01  7.014578e-01  1.261508e-01
    outer loop
      vertex   5.000000e-01 -8.660254e-01  1.098000e+01
      vertex   8.660254e-01 -5.000000e-01  1.098000e+01
      vertex   8.365163e-01 -4.829629e-01  1.072118e+01
    endloop
  endfacet
  facet normal -7.014578e-01  7.014577e-01  1.261508e-01
    outer loop
      vertex   5.000000e-01 -8.660254e-01  1.098000e+01
      vertex   8.365163e-01 -4.829629e-01  1.072118e+01
      vertex   4.829629e-01 -8.365163e-01  1.072118e+01
    endloop
  endfacet
  facet normal -9.582092e-01  2.567514e-01  1.261509e-01
    outer loop
      vertex   8.660254e-01 -5.000000e-01  1.098000e+01
      vertex   1.000000e+00  0.000000e+00  1.098000e+01
      vertex   9.659258e-01  0.000000e+00  1.072118e+01
    endloop
  endfacet
  facet normal -9.582092e-01  2.567513e-01  1.261507e-01
    outer loop
      vertex   8.660254e-01 -5.000000e-01  1.098000e+01
      vertex   9.659258e-01  0.000000e+00  1.072118e+01
      vertex   8.365163e-01 -4.829629e-01  1.072118e+01
    endloop
  endfacet
  facet normal -8.968090e-01 -2.402992e-01  3.714699e-01
    outer loop
      vertex   9.659258e-01  0.000000e+00  1.072118e+01
      vertex   8.365163e-01  4.829629e-01  1.072118e+01
      vertex   7.500000e-01  4.330127e-01  1.048000e+01
    endloop
  endfacet
  facet normal -8.968090e-01 -2.402992e-01  3.714698e-01
    outer loop
      vertex   9.659258e-01  0.000000e+00  1.072118e+01
      vertex   7.500000e-01  4.330127e-01  1.048000e+01
      vertex   8.660254e-01  0.000000e+00  1.048000e+01
    endloop
  endfacet
  facet normal -6.565098e-01 -6.565098e-01  3.714698e-01
    outer loop
      vertex   8.365163e-01  4.829629e-01  1.072118e+01
      vertex   4.829629e-01  8.365163e-01  1.072118e+01
      vertex   4.330127e-01  7.500000e-01  1.048000e+01
    endloop
  endfacet
  facet normal -6.565098e-01 -6.565098e-01  3.714699e-01
    outer loop
      vertex   8.365163e-01  4.829629e-01  1.072118e+01
      vertex   4.330127e-01  7.500000e-01  1.048000e+01
      vertex   7.500000e-01  4.330127e-01  1.048000e+01
    endloop
  endfacet
  facet normal -2.402992e-01 -8.968090e-01  3.714699e-01
    outer loop
      vertex   4.829629e-01  8.365163e-01  1.072118e+01
      vertex   5.914590e-17  9.659258e-01  1.072118e+01
      vertex   5.302876e-17  8.660254e-01  1.048000e+01
    endloop
  endfacet
  facet normal -2.402992e-01 -8.968090e-01  3.714699e-01
    outer loop
      vertex   4.829629e-01  8.365163e-01  1.072118e+01
      vertex   5.302876e-17  8.660254e-01  1.048000e+01
      vertex   4.330127e-01  7.500000e-01  1.048000e+01
    endloop
  endfacet
  facet normal  2.402992e-01 -8.968090e-01  3.714699e-01
    outer loop
      vertex   5.914590e-17  9.659258e-01  1.072118e+01
      vertex  -4.829629e-01  8.365163e-01  1.072118e+01
      vertex  -4.330127e-01  7.500000e-01  1.048000e+01
    endloop
  endfacet
  facet normal  2.402992e-01 -8.968090e-01  3.714698e-01
    outer loop
      vertex   5.914590e-17  9.659258e-01  1.072118e+01
      vertex  -4.330127e-01  7.500000e-01  1.048000e+01
      vertex   5.302876e-17  8.660254e-01  1.048000e+01
    endloop
  endfacet
  facet normal  6.565098e-01 -6.565098e-01  3.714698e-01
    outer loop
      vertex  -4.829629e-01  8.365163e-01  1.072118e+01
      vertex  -8.365163e-01  4.829629e-01  1.072118e+01
      vertex  -7.500000e-01  4.330127e-01  1.048000e+01
    endloop
  endfacet
  facet normal  6.565098e-01 -6.565098e-01  3.714699e-01
    outer loop
      vertex  -4.829629e-01  8.365163e-01  1.072118e+01
      vertex  -7.500000e-01  4.330127e-01  1.048000e+01
      vertex  -4.330127e-01  7.500000e-01  1.048000e+01
    endloop
  endfacet
  facet normal  8.968090e-01 -2.402992e-01  3.714699e-01
    outer loop
      vertex  -8.365163e-01  4.829629e-01  1.072118e+01
      vertex  -9.659258e-01  1.182918e-16  1.072118e+01
      vertex  -8.660254e-01  1.060575e-16  1.048000e+01
    endloop
  endfacet
  facet normal  8.968090e-01 -2.402992e-01  3.714699e-01
    outer loop
      vertex  -8.365163e-01  4.829629e-01  1.072118e+01
      vertex  -8.660254e-01  1.060575e-16  1.048000e+01
      vertex  -7.500000e-01  4.330127e-01  1.048000e+01
    endloop
  endfacet
  facet normal  8.968090e-01  2.402992e-01  3.714699e-01
    outer loop
      vertex  -9.659258e-01  1.182918e-16  1.072118e+01
      vertex  -8.365163e-01 -4.829629e-01  1.072118e+01
      vertex  -7.500000e-01 -4.330127e-01  1.048000e+01
    endloop
  endfacet
  facet normal  8.968090e-01  2.402992e-01  3.714698e-01
    outer loop
      vertex  -9.659258e-01  1.182918e-16  1.072118e+01
      vertex  -7.500000e-01 -4.330127e-01  1.048000e+01
      vertex  -8.660254e-01  1.060575e-16  1.048000e+01
    endloop
  endfacet
  facet normal  6.565098e-01  6.565098e-01  3.714698e-01
    outer loop
      vertex  -8.365163e-01 -4.829629e-01  1.072118e+01
      vertex  -4.829629e-01 -8.365163e-01  1.072118e+01
      vertex  -4.330127e-01 -7.500000e-01  1.048000e+01
    endloop
  endfacet
  facet normal  6.565098e-01  6.565098e-01  3.714699e-01
    outer loop
      vertex  -8.365163e-01 -4.829629e-01  1.072118e+01
      vertex  -4.330127e-01 -7.500000e-01  1.048000e+01
      vertex  -7.500000e-01 -4.330127e-01  1.048000e+01
    endloop
  endfacet
  facet normal  2.402992e-01  8.968090e-01  3.714699e-01
    outer loop
      vertex  -4.829629e-01 -8.365163e-01  1.072118e+01
      vertex  -1.774377e-16 -9.659258e-01  1.072118e+01
      vertex  -1.590863e-16 -8.660254e-01  1.048000e+01
    endloop
  endfacet
  facet normal  2.402992e-01  8.968090e-01  3.714699e-01
    outer loop
      vertex  -4.829629e-01 -8.365163e-01  1.072118e+01
      vertex  -1.590863e-16 -8.660254e-01  1.048000e+01
      vertex  -4.330127e-01 -7.500000e-01  1.048000e+01
    endloop
  endfacet
  facet normal -2.402992e-01  8.968090e-01  3.714699e-01
    outer loop
      vertex  -1.774377e-16 -9.659258e-01  1.072118e+01
      vertex   4.829629e-01 -8.365163e-01  1.072118e+01
      vertex   4.330127e-01 -7.500000e-01  1.048000e+01
    endloop
  endfacet
  facet normal -2.402992e-01  8.968090e-01  3.714698e-01
    outer loop
      vertex  -1.774377e-16 -9.659258e-01  1.072118e+01
      vertex   4.330127e-01 -7.500000e-01  1.048000e+01
      vertex  -1.590863e-16 -8.660254e-01  1.048000e+01
    endloop
  endfacet
  facet normal -6.565098e-01  6.565098e-01  3.714698e-01
    outer loop
      vertex   4.829629e-01 -8.365163e-01  1.072118e+01
      vertex   8.365163e-01 -4.829629e-01  1.072118e+01
      vertex   7.500000e-01 -4.330127e-01  1.048000e+01
    endloop
  endfacet
  facet normal -6.565098e-01  6.565098e-01  3.714699e-01
    outer loop
      vertex   4.829629e-01 -8.365163e-01  1.072118e+01
      vertex   7.500000e-01 -4.330127e-01  1.048000e+01
      vertex   4.330127e-01 -7.500000e-01  1.048000e+01
    endloop
  endfacet
  facet normal -8.968090e-01  2.402992e-01  3.714699e-01
    outer loop
      vertex   8.365163e-01 -4.829629e-01  1.072118e+01
      vertex   9.659258e-01  0.000000e+00  1.072118e+01
      vertex   8.660254e-01  0.000000e+00  1.048000e+01
    endloop
  endfacet
  facet normal -8.968090e-01  2.402992e-01  3.714699e-01
    outer loop
      vertex   8.365163e-01 -4.829629e-01  1.072118e+01
      vertex   8.660254e-01  0.000000e+00  1.048000e+01
      vertex   7.500000e-01 -4.330127e-01  1.048000e+01
    endloop
  endfacet
  facet normal -7.760130e-01 -2.079320e-01  5.954563e-01
    outer loop
      vertex   8.660254e-01  0.000000e+00  1.048000e+01
      vertex   7.500000e-01  4.330127e-01  1.048000e+01
      vertex   6.123724e-01  3.535534e-01  1.027289e+01
    endloop
  endfacet
  facet normal -7.760131e-01 -2.079322e-01  5.954561e-01
    outer loop
      vertex   8.660254e-01  0.000000e+00  1.048000e+01
      vertex   6.123724e-01  3.535534e-01  1.027289e+01
      vertex   7.071068e-01  0.000000e+00  1.027289e+01
    endloop
  endfacet
  facet normal -5.680809e-01 -5.680809e-01  5.954563e-01
    outer loop
      vertex   7.500000e-01  4.330127e-01  1.048000e+01
      vertex   4.330127e-01  7.500000e-01  1.048000e+01
      vertex   3.535534e-01  6.123724e-01  1.027289e+01
    endloop
  endfacet
  facet normal -5.680809e-01 -5.680810e-01  5.954562e-01
    outer loop
      vertex   7.500000e-01  4.330127e-01  1.048000e+01
      vertex   3.535534e-01  6.123724e-01  1.027289e+01
      vertex   6.123724e-01  3.535534e-01  1.027289e+01
    endloop
  endfacet
  facet normal -2.079320e-01 -7.760131e-01  5.954561e-01
    outer loop
      vertex   4.330127e-01  7.500000e-01  1.048000e+01
      vertex   5.302876e-17  8.660254e-01  1.048000e+01
      vertex   4.329780e-17  7.071068e-01  1.027289e+01
    endloop
  endfacet
  facet normal -2.079322e-01 -7.760129e-01  5.954563e-01
    outer loop
      vertex   4.330127e-01  7.500000e-01  1.048000e+01
      vertex   4.329780e-17  7.071068e-01  1.027289e+01
      vertex   3.535534e-01  6.123724e-01  1.027289e+01
    endloop
  endfacet
  facet normal  2.079320e-01 -7.760130e-01  5.954563e-01
    outer loop
      vertex   5.302876e-17  8.660254e-01  1.048000e+01
      vertex  -4.330127e-01  7.500000e-01  1.048000e+01
      vertex  -3.535534e-01  6.123724e-01  1.027289e+01
    endloop
  endfacet
  facet normal  2.079322e-01 -7.760131e-01  5.954561e-01
    outer loop
      vertex   5.302876e-17  8.660254e-01  1.048000e+01
      vertex  -3.535534e-01  6.123724e-01  1.027289e+01
      vertex   4.329780e-17  7.071068e-01  1.027289e+01
    endloop
  endfacet
  facet normal  5.680809e-01 -5.680809e-01  5.954563e-01
    outer loop
      vertex  -4.330127e-01  7.500000e-01  1.048000e+01
      vertex  -7.500000e-01  4.330127e-01  1.048000e+01
      vertex  -6.123724e-01  3.535534e-01  1.027289e+01
    endloop
  endfacet
  facet normal  5.680810e-01 -5.680809e-01  5.954562e-01
    outer loop
      vertex  -4.330127e-01  7.500000e-01  1.048000e+01
      vertex  -6.123724e-01  3.535534e-01  1.027289e+01
      vertex  -3.535534e-01  6.123724e-01  1.027289e+01
    endloop
  endfacet
  facet normal  7.760131e-01 -2.079320e-01  5.954561e-01
    outer loop
      vertex  -7.500000e-01  4.330127e-01  1.048000e+01
      vertex  -8.660254e-01  1.060575e-16  1.048000e+01
      vertex  -7.071068e-01  8.659561e-17  1.027289e+01
    endloop
  endfacet
  facet normal  7.760129e-01 -2.079322e-01  5.954563e-01
    outer loop
      vertex  -7.500000e-01  4.330127e-01  1.048000e+01
      vertex  -7.071068e-01  8.659561e-17  1.027289e+01
      vertex  -6.123724e-01  3.535534e-01  1.027289e+01
    endloop
  endfacet
  facet normal  7.760130e-01  2.079320e-01  5.954563e-01
    outer loop
      vertex  -8.660254e-01  1.060575e-16  1.048000e+01
      vertex  -7.500000e-01 -4.330127e-01  1.048000e+01
      vertex  -6.123724e-01 -3.535534e-01  1.027289e+01
    endloop
  endfacet
  facet normal  7.760131e-01  2.079322e-01  5.954561e-01
    outer loop
      vertex  -8.660254e-01  1.060575e-16  1.048000e+01
      vertex  -6.123724e-01 -3.535534e-01  1.027289e+01
      vertex  -7.071068e-01  8.659561e-17  1.027289e+01
    endloop
  endfacet
  facet normal  5.680809e-01  5.680809e-01  5.954563e-01
    outer loop
      vertex  -7.500000e-01 -4.330127e-01  1.048000e+01
      vertex  -4.330127e-01 -7.500000e-01  1.048000e+01
      vertex  -3.535534e-01 -6.123724e-01  1.027289e+01
    endloop
  endfacet
  facet normal  5.680809e-01  5.680810e-01  5.954562e-01
    outer loop
      vertex  -7.500000e-01 -4.330127e-01  1.048000e+01
      vertex  -3.535534e-01 -6.123724e-01  1.027289e+01
      vertex  -6.123724e-01 -3.535534e-01  1.027289e+01
    endloop
  endfacet
  facet normal  2.079320e-01  7.760131e-01  5.954561e-01
    outer loop
      vertex  -4.330127e-01 -7.500000e-01  1.048000e+01
      vertex  -1.590863e-16 -8.660254e-01  1.048000e+01
      vertex  -1.298934e-16 -7.071068e-01  1.027289e+01
    endloop
  endfacet
  facet normal  2.079322e-01  7.760129e-01  5.954563e-01
    outer loop
      vertex  -4.330127e-01 -7.500000e-01  1.048000e+01
      vertex  -1.298934e-16 -7.071068e-01  1.027289e+01
      vertex  -3.535534e-01 -6.123724e-01  1.027289e+01
    endloop
  endfacet
  facet normal -2.079320e-01  7.760130e-01  5.954563e-01
    outer loop
      vertex  -1.590863e-16 -8.660254e-01  1.048000e+01
      vertex   4.330127e-01 -7.500000e-01  1.048000e+01
      vertex   3.535534e-01 -6.123724e-01  1.027289e+01
    endloop
  endfacet
  facet normal -2.079322e-01  7.760131e-01  5.954561e-01
    outer loop
      vertex  -1.590863e-16 -8.660254e-01  1.048000e+01
      vertex   3.535534e-01 -6.123724e-01  1.027289e+01
      vertex  -1.298934e-16 -7.071068e-01  1.027289e+01
    endloop
  endfacet
  facet normal -5.680809e-01  5.680809e-01  5.954563e-01
    outer loop
      vertex   4.330127e-01 -7.500000e-01  1.048000e+01
      vertex   7.500000e-01 -4.330127e-01  1.048000e+01
      vertex   6.123724e-01 -3.535534e-01  1.027289e+01
    endloop
  endfacet
  facet normal -5.680810e-01  5.680809e-01  5.954562e-01
    outer loop
      vertex   4.330127e-01 -7.500000e-01  1.048000e+01
      vertex   6.123724e-01 -3.535534e-01  1.027289e+01
      vertex   3.535534e-01 -6.123724e-01  1.027289e+01
    endloop
  endfacet
  facet normal -7.760131e-01  2.079320e-01  5.954561e-01
    outer loop
      vertex   7.500000e-01 -4.330127e-01  1.048000e+01
      vertex   8.660254e-01  0.000000e+00  1.048000e+01
      vertex   7.071068e-01  0.000000e+00  1.027289e+01
    endloop
  endfacet
  facet normal -7.760129e-01  2.079322e-01  5.954563e-01
    outer loop
      vertex   7.500000e-01 -4.330127e-01  1.048000e+01
      vertex   7.071068e-01  0.000000e+00  1.027289e+01
      vertex   6.123724e-01 -3.535534e-01  1.027289e+01
    endloop
  endfacet
  facet normal -6.008202e-01 -1.609894e-01  7.830054e-01
    outer loop
      vertex   7.071068e-01  0.000000e+00  1.027289e+01
      vertex   6.123724e-01  3.535534e-01  1.027289e+01
      vertex   4.330127e-01  2.500000e-01  1.011398e+01
    endloop
  endfacet
  facet normal -6.008202e-01 -1.609893e-01  7.830055e-01
    outer loop
      vertex   7.071068e-01  0.000000e+00  1.027289e+01
      vertex   4.330127e-01  2.500000e-01  1.011398e+01
      vertex   5.000000e-01  0.000000e+00  1.011398e+01
    endloop
  endfacet
  facet normal -4.398310e-01 -4.398310e-01  7.830054e-01
    outer loop
      vertex   6.123724e-01  3.535534e-01  1.027289e+01
      vertex   3.535534e-01  6.123724e-01  1.027289e+01
      vertex   2.500000e-01  4.330127e-01  1.011398e+01
    endloop
  endfacet
  facet normal -4.398310e-01 -4.398310e-01  7.830054e-01
    outer loop
      vertex   6.123724e-01  3.535534e-01  1.027289e+01
      vertex   2.500000e-01  4.330127e-01  1.011398e+01
      vertex   4.330127e-01  2.500000e-01  1.011398e+01
    endloop
  endfacet
  facet normal -1.609894e-01 -6.008202e-01  7.830055e-01
    outer loop
      vertex   3.535534e-01  6.123724e-01  1.027289e+01
      vertex   4.329780e-17  7.071068e-01  1.027289e+01
      vertex   3.061617e-17  5.000000e-01  1.011398e+01
    endloop
  endfacet
  facet normal -1.609893e-01 -6.008203e-01  7.830053e-01
    outer loop
      vertex   3.535534e-01  6.123724e-01  1.027289e+01
      vertex   3.061617e-17  5.000000e-01  1.011398e+01
      vertex   2.500000e-01  4.330127e-01  1.011398e+01
    endloop
  endfacet
  facet normal  1.609894e-01 -6.008202e-01  7.830054e-01
    outer loop
      vertex   4.329780e-17  7.071068e-01  1.027289e+01
      vertex  -3.535534e-01  6.123724e-01  1.027289e+01
      vertex  -2.500000e-01  4.330127e-01  1.011398e+01
    endloop
  endfacet
  facet normal  1.609893e-01 -6.008202e-01  7.830055e-01
    outer loop
      vertex   4.329780e-17  7.071068e-01  1.027289e+01
      vertex  -2.500000e-01  4.330127e-01  1.011398e+01
      vertex   3.061617e-17  5.000000e-01  1.011398e+01
    endloop
  endfacet
  facet normal  4.398310e-01 -4.398310e-01  7.830054e-01
    outer loop
      vertex  -3.535534e-01  6.123724e-01  1.027289e+01
      vertex  -6.123724e-01  3.535534e-01  1.027289e+01
      vertex  -4.330127e-01  2.500000e-01  1.011398e+01
    endloop
  endfacet
  facet normal  4.398310e-01 -4.398310e-01  7.830054e-01
    outer loop
      vertex  -3.535534e-01  6.123724e-01  1.027289e+01
      vertex  -4.330127e-01  2.500000e-01  1.011398e+01
      vertex  -2.500000e-01  4.330127e-01  1.011398e+01
    endloop
  endfacet
  facet normal  6.008202e-01 -1.609894e-01  7.830055e-01
    outer loop
      vertex  -6.123724e-01  3.535534e-01  1.027289e+01
      vertex  -7.071068e-01  8.659561e-17  1.027289e+01
      vertex  -5.000000e-01  6.123234e-17  1.011398e+01
    endloop
  endfacet
  facet normal  6.008203e-01 -1.609893e-01  7.830053e-01
    outer loop
      vertex  -6.123724e-01  3.535534e-01  1.027289e+01
      vertex  -5.000000e-01  6.123234e-17  1.011398e+01
      vertex  -4.330127e-01  2.500000e-01  1.011398e+01
    endloop
  endfacet
  facet normal  6.008202e-01  1.609894e-01  7.830054e-01
    outer loop
      vertex  -7.071068e-01  8.659561e-17  1.027289e+01
      vertex  -6.123724e-01 -3.535534e-01  1.027289e+01
      vertex  -4.330127e-01 -2.500000e-01  1.011398e+01
    endloop
  endfacet
  facet normal  6.008202e-01  1.609893e-01  7.830055e-01
    outer loop
      vertex  -7.071068e-01  8.659561e-17  1.027289e+01
      vertex  -4.330127e-01 -2.500000e-01  1.011398e+01
      vertex  -5.000000e-01  6.123234e-17  1.011398e+01
    endloop
  endfacet
  facet normal  4.398310e-01  4.398310e-01  7.830054e-01
    outer loop
      vertex  -6.123724e-01 -3.535534e-01  1.027289e+01
      vertex  -3.535534e-01 -6.123724e-01  1.027289e+01
      vertex  -2.500000e-01 -4.330127e-01  1.011398e+01
    endloop
  endfacet
  facet normal  4.398310e-01  4.398310e-01  7.830054e-01
    outer loop
      vertex  -6.123724e-01 -3.535534e-01  1.027289e+01
      vertex  -2.500000e-01 -4.330127e-01  1.011398e+01
      vertex  -4.330127e-01 -2.500000e-01  1.011398e+01
    endloop
  endfacet
  facet normal  1.609894e-01  6.008202e-01  7.830055e-01
    outer loop
      vertex  -3.535534e-01 -6.123724e-01  1.027289e+01
      vertex  -1.298934e-16 -7.071068e-01  1.027289e+01
      vertex  -9.184851e-17 -5.000000e-01  1.011398e+01
    endloop
  endfacet
  facet normal  1.609893e-01  6.008203e-01  7.830053e-01
    outer loop
      vertex  -3.535534e-01 -6.123724e-01  1.027289e+01
      vertex  -9.184851e-17 -5.000000e-01  1.011398e+01
      vertex  -2.500000e-01 -4.330127e-01  1.011398e+01
    endloop
  endfacet
  facet normal -1.609894e-01  6.008202e-01  7.830054e-01
    outer loop
      vertex  -1.298934e-16 -7.071068e-01  1.027289e+01
      vertex   3.535534e-01 -6.123724e-01  1.027289e+01
      vertex   2.500000e-01 -4.330127e-01  1.011398e+01
    endloop
  endfacet
  facet normal -1.609893e-01  6.008202e-01  7.830055e-01
    outer loop
      vertex  -1.298934e-16 -7.071068e-01  1.027289e+01
      vertex   2.500000e-01 -4.330127e-01  1.011398e+01
      vertex  -9.184851e-17 -5.000000e-01  1.011398e+01
    endloop
  endfacet
  facet normal -4.398310e-01  4.398310e-01  7.830054e-01
    outer loop
      vertex   3.535534e-01 -6.123724e-01  1.027289e+01
      vertex   6.123724e-01 -3.535534e-01  1.027289e+01
      vertex   4.330127e-01 -2.500000e-01  1.011398e+01
    endloop
  endfacet
  facet normal -4.398310e-01  4.398310e-01  7.830054e-01
    outer loop
      vertex   3.535534e-01 -6.123724e-01  1.027289e+01
      vertex   4.330127e-01 -2.500000e-01  1.011398e+01
      vertex   2.500000e-01 -4.330127e-01  1.011398e+01
    endloop
  endfacet
  facet normal -6.008202e-01  1.609894e-01  7.830055e-01
    outer loop
      vertex   6.123724e-01 -3.535534e-01  1.027289e+01
      vertex   7.071068e-01  0.000000e+00  1.027289e+01
      vertex   5.000000e-01  0.000000e+00  1.011398e+01
    endloop
  endfacet
  facet normal -6.008203e-01  1.609893e-01  7.830053e-01
    outer loop
      vertex   6.123724e-01 -3.535534e-01  1.027289e+01
      vertex   5.000000e-01  0.000000e+00  1.011398e+01
      vertex   4.330127e-01 -2.500000e-01  1.011398e+01
    endloop
  endfacet
  facet normal -3.806899e-01 -1.020056e-01  9.190593e-01
    outer loop
      vertex   5.000000e-01  0.000000e+00  1.011398e+01
      vertex   4.330127e-01  2.500000e-01  1.011398e+01
      vertex   2.241439e-01  1.294095e-01  1.001408e+01
    endloop
  endfacet
  facet normal -3.806898e-01 -1.020053e-01  9.190593e-01
    outer loop
      vertex   5.000000e-01  0.000000e+00  1.011398e+01
      vertex   2.241439e-01  1.294095e-01  1.001408e+01
      vertex   2.588190e-01  0.000000e+00  1.001408e+01
    endloop
  endfacet
  facet normal -2.786843e-01 -2.786843e-01  9.190593e-01
    outer loop
      vertex   4.330127e-01  2.500000e-01  1.011398e+01
      vertex   2.500000e-01  4.330127e-01  1.011398e+01
      vertex   1.294095e-01  2.241439e-01  1.001408e+01
    endloop
  endfacet
  facet normal -2.786843e-01 -2.786843e-01  9.190594e-01
    outer loop
      vertex   4.330127e-01  2.500000e-01  1.011398e+01
      vertex   1.294095e-01  2.241439e-01  1.001408e+01
      vertex   2.241439e-01  1.294095e-01  1.001408e+01
    endloop
  endfacet
  facet normal -1.020055e-01 -3.806898e-01  9.190594e-01
    outer loop
      vertex   2.500000e-01  4.330127e-01  1.011398e+01
      vertex   3.061617e-17  5.000000e-01  1.011398e+01
      vertex   1.584810e-17  2.588190e-01  1.001408e+01
    endloop
  endfacet
  facet normal -1.020054e-01 -3.806900e-01  9.190594e-01
    outer loop
      vertex   2.500000e-01  4.330127e-01  1.011398e+01
      vertex   1.584810e-17  2.588190e-01  1.001408e+01
      vertex   1.294095e-01  2.241439e-01  1.001408e+01
    endloop
  endfacet
  facet normal  1.020056e-01 -3.806899e-01  9.190593e-01
    outer loop
      vertex   3.061617e-17  5.000000e-01  1.011398e+01
      vertex  -2.500000e-01  4.330127e-01  1.011398e+01
      vertex  -1.294095e-01  2.241439e-01  1.001408e+01
    endloop
  endfacet
  facet normal  1.020053e-01 -3.806898e-01  9.190593e-01
    outer loop
      vertex   3.061617e-17  5.000000e-01  1.011398e+01
      vertex  -1.294095e-01  2.241439e-01  1.001408e+01
      vertex   1.584810e-17  2.588190e-01  1.001408e+01
    endloop
  endfacet
  facet normal  2.786843e-01 -2.786843e-01  9.190593e-01
    outer loop
      vertex  -2.500000e-01  4.330127e-01  1.011398e+01
      vertex  -4.330127e-01  2.500000e-01  1.011398e+01
      vertex  -2.241439e-01  1.294095e-01  1.001408e+01
    endloop
  endfacet
  facet normal  2.786843e-01 -2.786843e-01  9.190594e-01
    outer loop
      vertex  -2.500000e-01  4.330127e-01  1.011398e+01
      vertex  -2.241439e-01  1.294095e-01  1.001408e+01
      vertex  -1.294095e-01  2.241439e-01  1.001408e+01
    endloop
  endfacet
  facet normal  3.806898e-01 -1.020055e-01  9.190594e-01
    outer loop
      vertex  -4.330127e-01  2.500000e-01  1.011398e+01
      vertex  -5.000000e-01  6.123234e-17  1.011398e+01
      vertex  -2.588190e-01  3.169619e-17  1.001408e+01
    endloop
  endfacet
  facet normal  3.806900e-01 -1.020054e-01  9.190594e-01
    outer loop
      vertex  -4.330127e-01  2.500000e-01  1.011398e+01
      vertex  -2.588190e-01  3.169619e-17  1.001408e+01
      vertex  -2.241439e-01  1.294095e-01  1.001408e+01
    endloop
  endfacet
  facet normal  3.806899e-01  1.020056e-01  9.190593e-01
    outer loop
      vertex  -5.000000e-01  6.123234e-17  1.011398e+01
      vertex  -4.330127e-01 -2.500000e-01  1.011398e+01
      vertex  -2.241439e-01 -1.294095e-01  1.001408e+01
    endloop
  endfacet
  facet normal  3.806898e-01  1.020053e-01  9.190593e-01
    outer loop
      vertex  -5.000000e-01  6.123234e-17  1.011398e+01
      vertex  -2.241439e-01 -1.294095e-01  1.001408e+01
      vertex  -2.588190e-01  3.169619e-17  1.001408e+01
    endloop
  endfacet
  facet normal  2.786843e-01  2.786843e-01  9.190593e-01
    outer loop
      vertex  -4.330127e-01 -2.500000e-01  1.011398e+01
      vertex  -2.500000e-01 -4.330127e-01  1.011398e+01
      vertex  -1.294095e-01 -2.241439e-01  1.001408e+01
    endloop
  endfacet
  facet normal  2.786843e-01  2.786843e-01  9.190594e-01
    outer loop
      vertex  -4.330127e-01 -2.500000e-01  1.011398e+01
      vertex  -1.294095e-01 -2.241439e-01  1.001408e+01
      vertex  -2.241439e-01 -1.294095e-01  1.001408e+01
    endloop
  endfacet
  facet normal  1.020055e-01  3.806898e-01  9.190594e-01
    outer loop
      vertex  -2.500000e-01 -4.330127e-01  1.011398e+01
      vertex  -9.184851e-17 -5.000000e-01  1.011398e+01
      vertex  -4.754429e-17 -2.588190e-01  1.001408e+01
    endloop
  endfacet
  facet normal  1.020054e-01  3.806900e-01  9.190594e-01
    outer loop
      vertex  -2.500000e-01 -4.330127e-01  1.011398e+01
      vertex  -4.754429e-17 -2.588190e-01  1.001408e+01
      vertex  -1.294095e-01 -2.241439e-01  1.001408e+01
    endloop
  endfacet
  facet normal -1.020056e-01  3.806899e-01  9.190593e-01
    outer loop
      vertex  -9.184851e-17 -5.000000e-01  1.011398e+01
      vertex   2.500000e-01 -4.330127e-01  1.011398e+01
      vertex   1.294095e-01 -2.241439e-01  1.001408e+01
    endloop
  endfacet
  facet normal -1.020053e-01  3.806898e-01  9.190593e-01
    outer loop
      vertex  -9.184851e-17 -5.000000e-01  1.011398e+01
      vertex   1.294095e-01 -2.241439e-01  1.001408e+01
      vertex  -4.754429e-17 -2.588190e-01  1.001408e+01
    endloop
  endfacet
  facet normal -2.786843e-01  2.786843e-01  9.190593e-01
    outer loop
      vertex   2.500000e-01 -4.330127e-01  1.011398e+01
      vertex   4.330127e-01 -2.500000e-01  1.011398e+01
      vertex   2.241439e-01 -1.294095e-01  1.001408e+01
    endloop
  endfacet
  facet normal -2.786843e-01  2.786843e-01  9.190594e-01
    outer loop
      vertex   2.500000e-01 -4.330127e-01  1.011398e+01
      vertex   2.241439e-01 -1.294095e-01  1.001408e+01
      vertex   1.294095e-01 -2.241439e-01  1.001408e+01
    endloop
  endfacet
  facet normal -3.806898e-01  1.020055e-01  9.190594e-01
    outer loop
      vertex   4.330127e-01 -2.500000e-01  1.011398e+01
      vertex   5.000000e-01  0.000000e+00  1.011398e+01
      vertex   2.588190e-01  0.000000e+00  1.001408e+01
    endloop
  endfacet
  facet normal -3.806900e-01  1.020054e-01  9.190594e-01
    outer loop
      vertex   4.330127e-01 -2.500000e-01  1.011398e+01
      vertex   2.588190e-01  0.000000e+00  1.001408e+01
      vertex   2.241439e-01 -1.294095e-01  1.001408e+01
    endloop
  endfacet
  facet normal -1.304452e-01 -3.495261e-02  9.908392e-01
    outer loop
      vertex   2.588190e-01  0.000000e+00  1.001408e+01
      vertex   2.241439e-01  1.294095e-01  1.001408e+01
      vertex   1.060575e-16  6.123234e-17  9.980001e+00
    endloop
  endfacet
  facet normal -9.549247e-02 -9.549247e-02  9.908392e-01
    outer loop
      vertex   2.241439e-01  1.294095e-01  1.001408e+01
      vertex   1.294095e-01  2.241439e-01  1.001408e+01
      vertex   1.060575e-16  6.123234e-17  9.980001e+00
    endloop
  endfacet
  facet normal -3.495261e-02 -1.304452e-01  9.908392e-01
    outer loop
      vertex   1.294095e-01  2.241439e-01  1.001408e+01
      vertex   1.584810e-17  2.588190e-01  1.001408e+01
      vertex   1.060575e-16  6.123234e-17  9.980001e+00
    endloop
  endfacet
  facet normal  3.495261e-02 -1.304452e-01  9.908392e-01
    outer loop
      vertex   1.584810e-17  2.588190e-01  1.001408e+01
      vertex  -1.294095e-01  2.241439e-01  1.001408e+01
      vertex   1.060575e-16  6.123234e-17  9.980001e+00
    endloop
  endfacet
  facet normal  9.549247e-02 -9.549247e-02  9.908392e-01
    outer loop
      vertex  -1.294095e-01  2.241439e-01  1.001408e+01
      vertex  -2.241439e-01  1.294095e-01  1.001408e+01
      vertex   1.060575e-16  6.123234e-17  9.980001e+00
    endloop
  endfacet
  facet normal  1.304452e-01 -3.495261e-02  9.908392e-01
    outer loop
      vertex  -2.241439e-01  1.294095e-01  1.001408e+01
      vertex  -2.588190e-01  3.169619e-17  1.001408e+01
      vertex   1.060575e-16  6.123234e-17  9.980001e+00
    endloop
  endfacet
  facet normal  1.304452e-01  3.495261e-02  9.908392e-01
    outer loop
      vertex  -2.588190e-01  3.169619e-17  1.001408e+01
      vertex  -2.241439e-01 -1.294095e-01  1.001408e+01
      vertex   1.060575e-16  6.123234e-17  9.980001e+00
    endloop
  endfacet
  facet normal  9.549247e-02  9.549247e-02  9.908392e-01
    outer loop
      vertex  -2.241439e-01 -1.294095e-01  1.001408e+01
      vertex  -1.294095e-01 -2.241439e-01  1.001408e+01
      vertex   1.060575e-16  6.123234e-17  9.980001e+00
    endloop
  endfacet
  facet normal  3.495261e-02  1.304452e-01  9.908392e-01
    outer loop
      vertex  -1.294095e-01 -2.241439e-01  1.001408e+01
      vertex  -4.754429e-17 -2.588190e-01  1.001408e+01
      vertex   1.060575e-16  6.123234e-17  9.980001e+00
    endloop
  endfacet
  facet normal -3.495261e-02  1.304452e-01  9.908392e-01
    outer loop
      vertex  -4.754429e-17 -2.588190e-01  1.001408e+01
      vertex   1.294095e-01 -2.241439e-01  1.001408e+01
      vertex   1.060575e-16  6.123234e-17  9.980001e+00
    endloop
  endfacet
  facet normal -9.549247e-02  9.549247e-02  9.908392e-01
    outer loop
      vertex   1.294095e-01 -2.241439e-01  1.001408e+01
      vertex   2.241439e-01 -1.294095e-01  1.001408e+01
      vertex   1.060575e-16  6.123234e-17  9.980001e+00
    endloop
  endfacet
  facet normal -1.304452e-01  3.495261e-02  9.908392e-01
    outer loop
      vertex   2.241439e-01 -1.294095e-01  1.001408e+01
      vertex   2.588190e-01  0.000000e+00  1.001408e+01
      vertex   1.060575e-16  6.123234e-17  9.980001e+00
    endloop
  endfacet
endsolid vcg
