solid STL generated by MeshLab
  facet normal  0.000000e+00  0.000000e+00  1.000000e+00
    outer loop
      vertex  -1.750000e+00 -1.750000e+00  3.000000e+00
      vertex   1.750000e+00 -1.750000e+00  3.000000e+00
      vertex   1.750000e+00  1.750000e+00  3.000000e+00
    endloop
  endfacet
  facet normal  0.000000e+00  0.000000e+00  1.000000e+00
    outer loop
      vertex  -1.750000e+00 -1.750000e+00  3.000000e+00
      vertex   1.750000e+00  1.750000e+00  3.000000e+00
      vertex  -1.750000e+00  1.750000e+00  3.000000e+00
    endloop
  endfacet
  facet normal  0.000000e+00  0.000000e+00  1.000000e+00
    outer loop
      vertex  -1.750000e+00 -1.750000e+00  3.200000e+00
      vertex   1.750000e+00 -1.750000e+00  3.200000e+00
      vertex   1.750000e+00  1.750000e+00  3.200000e+00
    endloop
  endfacet
  facet normal  0.000000e+00  0.000000e+00  1.000000e+00
    outer loop
      vertex  -1.750000e+00 -1.750000e+00  3.200000e+00
      vertex   1.750000e+00  1.750000e+00  3.200000e+00
      vertex  -1.750000e+00  1.750000e+00  3.200000e+00
    endloop
  endfacet
  facet normal  1.000000e+00  0.000000e+00  0.000000e+00
    outer loop
      vertex   1.750000e+00 -1.750000e+00  3.000000e+00
      vertex   1.750000e+00  1.750000e+00  3.000000e+00
      vertex   1.750000e+00  1.750000e+00  3.200000e+00
    endloop
  endfacet
  facet normal  1.000000e+00  0.000000e+00  0.000000e+00
    outer loop
      vertex   1.750000e+00 -1.750000e+00  3.000000e+00
      vertex   1.750000e+00  1.750000e+00  3.200000e+00
      vertex   1.750000e+00 -1.750000e+00  3.200000e+00
    endloop
  endfacet
  facet normal  1.000000e+00  0.000000e+00  0.000000e+00
    outer loop
      vertex  -1.750000e+00 -1.750000e+00  3.000000e+00
      vertex  -1.750000e+00  1.750000e+00  3.000000e+00
      vertex  -1.750000e+00  1.750000e+00  3.200000e+00
    endloop
  endfacet
  facet normal  1.000000e+00  0.000000e+00  0.000000e+00
    outer loop
      vertex  -1.750000e+00 -1.750000e+00  3.000000e+00
      vertex  -1.750000e+00  1.750000e+00  3.200000e+00
      vertex  -1.750000e+00 -1.750000e+00  3.200000e+00
    endloop
  endfacet
  facet normal  0.000000e+00 -1.000000e+00  0.000000e+00
    outer loop
      vertex  -1.750000e+00  1.750000e+00  3.000000e+00
      vertex   1.750000e+00  1.750000e+00  3.000000e+00
      vertex   1.750000e+00  1.750000e+00  3.200000e+00
    endloop
  endfacet
  facet normal  0.000000e+00 -1.000000e+00  0.000000e+00
    outer loop
      vertex  -1.750000e+00  1.750000e+00  3.000000e+00
      vertex   1.750000e+00  1.750000e+00  3.200000e+00
      vertex  -1.750000e+00  1.750000e+00  3.200000e+00
    endloop
  endfacet
  facet normal  0.000000e+00 -1.000000e+00  0.000000e+00
    outer loop
      vertex  -1.750000e+00 -1.750000e+00  3.000000e+00
      vertex   1.750000e+00 -1.750000e+00  3.000000e+00
      vertex   1.750000e+00 -1.750000e+00  3.200000e+00
    endloop
  endfacet
  facet normal  0.000000e+00 -1.000000e+00  0.000000e+00
    outer loop
      vertex  -1.750000e+00 -1.750000e+00  3.000000e+00
      vertex   1.750000e+00 -1.750000e+00  3.200000e+00
      vertex  -1.750000e+00 -1.750000e+00  3.200000e+00
    endloop
  endfacet
  facet normal  0.000000e+00  0.000000e+00  1.000000e+00
    outer loop
      vertex   1.550000e+00  1.550000e+00  0.000000e+00
      vertex   1.750000e+00  1.750000e+00  0.000000e+00
      vertex   1.550000e+00  1.750000e+00  0.000000e+00
    endloop
  endfacet
  facet normal  0.000000e+00  0.000000e+00  1.000000e+00
    outer loop
      vertex   1.550000e+00  1.550000e+00  3.000000e+00
      vertex   1.750000e+00  1.550000e+00  3.000000e+00
      vertex   1.750000e+00  1.750000e+00  3.000000e+00
    endloop
  endfacet
  facet normal  0.000000e+00  0.000000e+00  1.000000e+00
    outer loop
      vertex   1.550000e+00  1.550000e+00  3.000000e+00
      vertex   1.750000e+00  1.750000e+00  3.000000e+00
      vertex   1.550000e+00  1.750000e+00  3.000000e+00
    endloop
  endfacet
  facet normal  1.000000e+00  0.000000e+00  0.000000e+00
    outer loop
      vertex   1.750000e+00  1.550000e+00  0.000000e+00
      vertex   1.750000e+00  1.750000e+00  0.000000e+00
      vertex   1.750000e+00  1.750000e+00  3.000000e+00
    endloop
  endfacet
  facet normal  1.000000e+00  0.000000e+00  0.000000e+00
    outer loop
      vertex   1.750000e+00  1.550000e+00  0.000000e+00
      vertex   1.750000e+00  1.750000e+00  3.000000e+00
      vertex   1.750000e+00  1.550000e+00  3.000000e+00
    endloop
  endfacet
  facet normal  1.000000e+00  0.000000e+00  0.000000e+00
    outer loop
      vertex   1.550000e+00  1.550000e+00  0.000000e+00
      vertex   1.550000e+00  1.750000e+00  0.000000e+00
      vertex   1.550000e+00  1.750000e+00  3.000000e+00
    endloop
  endfacet
  facet normal  1.000000e+00  0.000000e+00  0.000000e+00
    outer loop
      vertex   1.550000e+00  1.550000e+00  0.000000e+00
      vertex   1.550000e+00  1.750000e+00  3.000000e+00
      vertex   1.550000e+00  1.550000e+00  3.000000e+00
    endloop
  endfacet
  facet normal  0.000000e+00 -1.000000e+00  0.000000e+00
    outer loop
      vertex   1.550000e+00  1.750000e+00  0.000000e+00
      vertex   1.750000e+00  1.750000e+00  0.000000e+00
      vertex   1.750000e+00  1.750000e+00  3.000000e+00
    endloop
  endfacet
  facet normal  0.000000e+00 -1.000000e+00  0.000000e+00
    outer loop
      vertex   1.550000e+00  1.750000e+00  0.000000e+00
      vertex   1.750000e+00  1.750000e+00  3.000000e+00
      vertex   1.550000e+00  1.750000e+00  3.000000e+00
    endloop
  endfacet
  facet normal  0.000000e+00 -1.000000e+00  0.000000e+00
    outer loop
      vertex   1.550000e+00  1.550000e+00  0.000000e+00
      vertex   1.750000e+00  1.550000e+00  0.000000e+00
      vertex   1.750000e+00  1.550000e+00  3.000000e+00
    endloop
  endfacet
  facet normal  0.000000e+00 -1.000000e+00  0.000000e+00
    outer loop
      vertex   1.550000e+00  1.550000e+00  0.000000e+00
      vertex   1.750000e+00  1.550000e+00  3.000000e+00
      vertex   1.550000e+00  1.550000e+00  3.000000e+00
    endloop
  endfacet
  facet normal  0.000000e+00  0.000000e+00  1.000000e+00
    outer loop
      vertex  -1.750000e+00  1.550000e+00  0.000000e+00
      vertex  -1.550000e+00  1.750000e+00  0.000000e+00
      vertex  -1.750000e+00  1.750000e+00  0.000000e+00
    endloop
  endfacet
  facet normal  0.000000e+00  0.000000e+00  1.000000e+00
    outer loop
      vertex  -1.750000e+00  1.550000e+00  3.000000e+00
      vertex  -1.550000e+00  1.550000e+00  3.000000e+00
      vertex  -1.550000e+00  1.750000e+00  3.000000e+00
    endloop
  endfacet
  facet normal  0.000000e+00  0.000000e+00  1.000000e+00
    outer loop
      vertex  -1.750000e+00  1.550000e+00  3.000000e+00
      vertex  -1.550000e+00  1.750000e+00  3.000000e+00
      vertex  -1.750000e+00  1.750000e+00  3.000000e+00
    endloop
  endfacet
  facet normal  1.000000e+00  0.000000e+00  0.000000e+00
    outer loop
      vertex  -1.550000e+00  1.550000e+00  0.000000e+00
      vertex  -1.550000e+00  1.750000e+00  0.000000e+00
      vertex  -1.550000e+00  1.750000e+00  3.000000e+00
    endloop
  endfacet
  facet normal  1.000000e+00  0.000000e+00  0.000000e+00
    outer loop
      vertex  -1.550000e+00  1.550000e+00  0.000000e+00
      vertex  -1.550000e+00  1.750000e+00  3.000000e+00
      vertex  -1.550000e+00  1.550000e+00  3.000000e+00
    endloop
  endfacet
  facet normal  1.000000e+00  0.000000e+00  0.000000e+00
    outer loop
      vertex  -1.750000e+00  1.550000e+00  0.000000e+00
      vertex  -1.750000e+00  1.750000e+00  0.000000e+00
      vertex  -1.750000e+00  1.750000e+00  3.000000e+00
    endloop
  endfacet
  facet normal  1.000000e+00  0.000000e+00  0.000000e+00
    outer loop
      vertex  -1.750000e+00  1.550000e+00  0.000000e+00
      vertex  -1.750000e+00  1.750000e+00  3.000000e+00
      vertex  -1.750000e+00  1.550000e+00  3.000000e+00
    endloop
  endfacet
  facet normal  0.000000e+00 -1.000000e+00  0.000000e+00
    outer loop
      vertex  -1.750000e+00  1.750000e+00  0.000000e+00
      vertex  -1.550000e+00  1.750000e+00  0.000000e+00
      vertex  -1.550000e+00  1.750000e+00  3.000000e+00
    endloop
  endfacet
  facet normal  0.000000e+00 -1.000000e+00  0.000000e+00
    outer loop
      vertex  -1.750000e+00  1.750000e+00  0.000000e+00
      vertex  -1.550000e+00  1.750000e+00  3.000000e+00
      vertex  -1.750000e+00  1.750000e+00  3.000000e+00
    endloop
  endfacet
  facet normal  0.000000e+00 -1.000000e+00  0.000000e+00
    outer loop
      vertex  -1.750000e+00  1.550000e+00  0.000000e+00
      vertex  -1.550000e+00  1.550000e+00  0.000000e+00
      vertex  -1.550000e+00  1.550000e+00  3.000000e+00
    endloop
  endfacet
  facet normal  0.000000e+00 -1.000000e+00  0.000000e+00
    outer loop
      vertex  -1.750000e+00  1.550000e+00  0.000000e+00
      vertex  -1.550000e+00  1.550000e+00  3.000000e+00
      vertex  -1.750000e+00  1.550000e+00  3.000000e+00
    endloop
  endfacet
  facet normal  0.000000e+00  0.000000e+00  1.000000e+00
    outer loop
      vertex   1.550000e+00 -1.750000e+00  0.000000e+00
      vertex   1.750000e+00 -1.550000e+00  0.000000e+00
      vertex   1.550000e+00 -1.550000e+00  0.000000e+00
    endloop
  endfacet
  facet normal  0.000000e+00  0.000000e+00  1.000000e+00
    outer loop
      vertex   1.550000e+00 -1.750000e+00  3.000000e+00
      vertex   1.750000e+00 -1.750000e+00  3.000000e+00
      vertex   1.750000e+00 -1.550000e+00  3.000000e+00
    endloop
  endfacet
  facet normal  0.000000e+00  0.000000e+00  1.000000e+00
    outer loop
      vertex   1.550000e+00 -1.750000e+00  3.000000e+00
      vertex   1.750000e+00 -1.550000e+00  3.000000e+00
      vertex   1.550000e+00 -1.550000e+00  3.000000e+00
    endloop
  endfacet
  facet normal  1.000000e+00  0.000000e+00  0.000000e+00
    outer loop
      vertex   1.750000e+00 -1.750000e+00  0.000000e+00
      vertex   1.750000e+00 -1.550000e+00  0.000000e+00
      vertex   1.750000e+00 -1.550000e+00  3.000000e+00
    endloop
  endfacet
  facet normal  1.000000e+00  0.000000e+00  0.000000e+00
    outer loop
      vertex   1.750000e+00 -1.750000e+00  0.000000e+00
      vertex   1.750000e+00 -1.550000e+00  3.000000e+00
      vertex   1.750000e+00 -1.750000e+00  3.000000e+00
    endloop
  endfacet
  facet normal  1.000000e+00  0.000000e+00  0.000000e+00
    outer loop
      vertex   1.550000e+00 -1.750000e+00  0.000000e+00
      vertex   1.550000e+00 -1.550000e+00  0.000000e+00
      vertex   1.550000e+00 -1.550000e+00  3.000000e+00
    endloop
  endfacet
  facet normal  1.000000e+00  0.000000e+00  0.000000e+00
    outer loop
      vertex   1.550000e+00 -1.750000e+00  0.000000e+00
      vertex   1.550000e+00 -1.550000e+00  3.000000e+00
      vertex   1.550000e+00 -1.750000e+00  3.000000e+00
    endloop
  endfacet
  facet normal  0.000000e+00 -1.000000e+00  0.000000e+00
    outer loop
      vertex   1.550000e+00 -1.550000e+00  0.000000e+00
      vertex   1.750000e+00 -1.550000e+00  0.000000e+00
      vertex   1.750000e+00 -1.550000e+00  3.000000e+00
    endloop
  endfacet
  facet normal  0.000000e+00 -1.000000e+00  0.000000e+00
    outer loop
      vertex   1.550000e+00 -1.550000e+00  0.000000e+00
      vertex   1.750000e+00 -1.550000e+00  3.000000e+00
      vertex   1.550000e+00 -1.550000e+00  3.000000e+00
    endloop
  endfacet
  facet normal  0.000000e+00 -1.000000e+00  0.000000e+00
    outer loop
      vertex   1.550000e+00 -1.750000e+00  0.000000e+00
      vertex   1.750000e+00 -1.750000e+00  0.000000e+00
      vertex   1.750000e+00 -1.750000e+00  3.000000e+00
    endloop
  endfacet
  facet normal  0.000000e+00 -1.000000e+00  0.000000e+00
    outer loop
      vertex   1.550000e+00 -1.750000e+00  0.000000e+00
      vertex   1.750000e+00 -1.750000e+00  3.000000e+00
      vertex   1.550000e+00 -1.750000e+00  3.000000e+00
    endloop
  endfacet
  facet normal  0.000000e+00  0.000000e+00  1.000000e+00
    outer loop
      vertex  -1.750000e+00 -1.750000e+00  0.000000e+00
      vertex  -1.550000e+00 -1.550000e+00  0.000000e+00
      vertex  -1.750000e+00 -1.550000e+00  0.000000e+00
    endloop
  endfacet
  facet normal  0.000000e+00  0.000000e+00  1.000000e+00
    outer loop
      vertex  -1.750000e+00 -1.750000e+00  3.000000e+00
      vertex  -1.550000e+00 -1.750000e+00  3.000000e+00
      vertex  -1.550000e+00 -1.550000e+00  3.000000e+00
    endloop
  endfacet
  facet normal  0.000000e+00  0.000000e+00  1.000000e+00
    outer loop
      vertex  -1.750000e+00 -1.750000e+00  3.000000e+00
      vertex  -1.550000e+00 -1.550000e+00  3.000000e+00
      vertex  -1.750000e+00 -1.550000e+00  3.000000e+00
    endloop
  endfacet
  facet normal  1.000000e+00  0.000000e+00  0.000000e+00
    outer loop
      vertex  -1.550000e+00 -1.750000e+00  0.000000e+00
      vertex  -1.550000e+00 -1.550000e+00  0.000000e+00
      vertex  -1.550000e+00 -1.550000e+00  3.000000e+00
    endloop
  endfacet
  facet normal  1.000000e+00  0.000000e+00  0.000000e+00
    outer loop
      vertex  -1.550000e+00 -1.750000e+00  0.000000e+00
      vertex  -1.550000e+00 -1.550000e+00  3.000000e+00
      vertex  -1.550000e+00 -1.750000e+00  3.000000e+00
    endloop
  endfacet
  facet normal  1.000000e+00  0.000000e+00  0.000000e+00
    outer loop
      vertex  -1.750000e+00 -1.750000e+00  0.000000e+00
      vertex  -1.750000e+00 -1.550000e+00  0.000000e+00
      vertex  -1.750000e+00 -1.550000e+00  3.000000e+00
    endloop
  endfacet
  facet normal  1.000000e+00  0.000000e+00  0.000000e+00
    outer loop
      vertex  -1.750000e+00 -1.750000e+00  0.000000e+00
      vertex  -1.750000e+00 -1.550000e+00  3.000000e+00
      vertex  -1.750000e+00 -1.750000e+00  3.000000e+00
    endloop
  endfacet
  facet normal  0.000000e+00 -1.000000e+00  0.000000e+00
    outer loop
      vertex  -1.750000e+00 -1.550000e+00  0.000000e+00
      vertex  -1.550000e+00 -1.550000e+00  0.000000e+00
      vertex  -1.550000e+00 -1.550000e+00  3.000000e+00
    endloop
  endfacet
  facet normal  0.000000e+00 -1.000000e+00  0.000000e+00
    outer loop
      vertex  -1.750000e+00 -1.550000e+00  0.000000e+00
      vertex  -1.550000e+00 -1.550000e+00  3.000000e+00
      vertex  -1.750000e+00 -1.550000e+00  3.000000e+00
    endloop
  endfacet
  facet normal  0.000000e+00 -1.000000e+00  0.000000e+00
    outer loop
      vertex  -1.750000e+00 -1.750000e+00  0.000000e+00
      vertex  -1.550000e+00 -1.750000e+00  0.000000e+00
      vertex  -1.550000e+00 -1.750000e+00  3.000000e+00
    endloop
  endfacet
  facet normal  0.000000e+00 -1.000000e+00  0.000000e+00
    outer loop
      vertex  -1.750000e+00 -1.750000e+00  0.000000e+00
      vertex  -1.550000e+00 -1.750000e+00  3.000000e+00
      vertex  -1.750000e+00 -1.750000e+00  3.000000e+00
    endloop
  endfacet
endsolid vcg
