solid STL generated by MeshLab
  facet normal -7.091407e-01  0.000000e+00  7.050670e-01
    outer loop
      vertex  -1.066797e+00  1.500000e+00  1.834671e+00
      vertex  -1.066797e+00 -1.500000e+00  1.834671e+00
      vertex   1.298068e+00 -1.500000e+00  4.213199e+00
    endloop
  endfacet
  facet normal -7.091407e-01 -1.421655e-07  7.050670e-01
    outer loop
      vertex  -1.066797e+00  1.500000e+00  1.834671e+00
      vertex   1.298068e+00 -1.500000e+00  4.213199e+00
      vertex   1.298068e+00  1.500000e+00  4.213199e+00
    endloop
  endfacet
  facet normal -7.091410e-01 -1.127149e-07  7.050667e-01
    outer loop
      vertex  -1.208626e+00  1.500000e+00  1.975683e+00
      vertex  -1.208626e+00 -1.500000e+00  1.975683e+00
      vertex   1.156240e+00 -1.500000e+00  4.354214e+00
    endloop
  endfacet
  facet normal -7.091410e-01 -1.421654e-07  7.050667e-01
    outer loop
      vertex  -1.208626e+00  1.500000e+00  1.975683e+00
      vertex   1.156240e+00 -1.500000e+00  4.354214e+00
      vertex   1.156240e+00  1.500000e+00  4.354214e+00
    endloop
  endfacet
  facet normal -7.050630e-01 -0.000000e+00 -7.091447e-01
    outer loop
      vertex  -1.066797e+00  1.500000e+00  1.834671e+00
      vertex  -1.066797e+00 -1.500000e+00  1.834671e+00
      vertex  -1.208626e+00 -1.500000e+00  1.975683e+00
    endloop
  endfacet
  facet normal -7.050618e-01 -1.117588e-07 -7.091459e-01
    outer loop
      vertex  -1.066797e+00  1.500000e+00  1.834671e+00
      vertex  -1.208626e+00 -1.500000e+00  1.975683e+00
      vertex  -1.208626e+00  1.500000e+00  1.975683e+00
    endloop
  endfacet
  facet normal -7.050713e-01 -1.120681e-07 -7.091363e-01
    outer loop
      vertex   1.298068e+00  1.500000e+00  4.213199e+00
      vertex   1.298068e+00 -1.500000e+00  4.213199e+00
      vertex   1.156240e+00 -1.500000e+00  4.354214e+00
    endloop
  endfacet
  facet normal -7.050713e-01 -1.117581e-07 -7.091363e-01
    outer loop
      vertex   1.298068e+00  1.500000e+00  4.213199e+00
      vertex   1.156240e+00 -1.500000e+00  4.354214e+00
      vertex   1.156240e+00  1.500000e+00  4.354214e+00
    endloop
  endfacet
  facet normal  5.011841e-08 -1.000000e+00  5.040736e-08
    outer loop
      vertex  -1.066797e+00 -1.500000e+00  1.834671e+00
      vertex   1.298068e+00 -1.500000e+00  4.213199e+00
      vertex   1.156240e+00 -1.500000e+00  4.354214e+00
    endloop
  endfacet
  facet normal  5.011776e-08 -1.000000e+00  5.040791e-08
    outer loop
      vertex  -1.066797e+00 -1.500000e+00  1.834671e+00
      vertex   1.156240e+00 -1.500000e+00  4.354214e+00
      vertex  -1.208626e+00 -1.500000e+00  1.975683e+00
    endloop
  endfacet
  facet normal -5.011771e-08  1.000000e+00 -5.040802e-08
    outer loop
      vertex   1.298068e+00  1.500000e+00  4.213199e+00
      vertex  -1.066797e+00  1.500000e+00  1.834671e+00
      vertex  -1.208626e+00  1.500000e+00  1.975683e+00
    endloop
  endfacet
  facet normal -5.011836e-08  1.000000e+00 -5.040732e-08
    outer loop
      vertex   1.298068e+00  1.500000e+00  4.213199e+00
      vertex  -1.208626e+00  1.500000e+00  1.975683e+00
      vertex   1.156240e+00  1.500000e+00  4.354214e+00
    endloop
  endfacet
  facet normal  0.000000e+00  0.000000e+00  1.000000e+00
    outer loop
      vertex  -1.605587e-01  2.500000e-01  0.000000e+00
      vertex  -1.605587e-01 -2.500000e-01  0.000000e+00
      vertex   3.394413e-01 -2.500000e-01  0.000000e+00
    endloop
  endfacet
  facet normal -0.000000e+00  0.000000e+00  1.000000e+00
    outer loop
      vertex  -1.605587e-01  2.500000e-01  0.000000e+00
      vertex   3.394413e-01 -2.500000e-01  0.000000e+00
      vertex   3.394413e-01  2.500000e-01  0.000000e+00
    endloop
  endfacet
  facet normal -7.071068e-01  0.000000e+00  7.071068e-01
    outer loop
      vertex  -1.605587e-01  2.500000e-01  2.750000e+00
      vertex  -1.605587e-01 -2.500000e-01  2.750000e+00
      vertex   3.394413e-01 -2.500000e-01  3.250000e+00
    endloop
  endfacet
  facet normal -7.071068e-01  0.000000e+00  7.071068e-01
    outer loop
      vertex  -1.605587e-01  2.500000e-01  2.750000e+00
      vertex   3.394413e-01 -2.500000e-01  3.250000e+00
      vertex   3.394413e-01  2.500000e-01  3.250000e+00
    endloop
  endfacet
  facet normal -1.000000e+00  0.000000e+00  0.000000e+00
    outer loop
      vertex  -1.605587e-01  2.500000e-01  0.000000e+00
      vertex  -1.605587e-01 -2.500000e-01  0.000000e+00
      vertex  -1.605587e-01 -2.500000e-01  2.750000e+00
    endloop
  endfacet
  facet normal -1.000000e+00  0.000000e+00  0.000000e+00
    outer loop
      vertex  -1.605587e-01  2.500000e-01  0.000000e+00
      vertex  -1.605587e-01 -2.500000e-01  2.750000e+00
      vertex  -1.605587e-01  2.500000e-01  2.750000e+00
    endloop
  endfacet
  facet normal -1.000000e+00  0.000000e+00  0.000000e+00
    outer loop
      vertex   3.394413e-01  2.500000e-01  0.000000e+00
      vertex   3.394413e-01 -2.500000e-01  0.000000e+00
      vertex   3.394413e-01 -2.500000e-01  3.250000e+00
    endloop
  endfacet
  facet normal -1.000000e+00  0.000000e+00  0.000000e+00
    outer loop
      vertex   3.394413e-01  2.500000e-01  0.000000e+00
      vertex   3.394413e-01 -2.500000e-01  3.250000e+00
      vertex   3.394413e-01  2.500000e-01  3.250000e+00
    endloop
  endfacet
  facet normal  0.000000e+00 -1.000000e+00  0.000000e+00
    outer loop
      vertex  -1.605587e-01 -2.500000e-01  0.000000e+00
      vertex   3.394413e-01 -2.500000e-01  0.000000e+00
      vertex   3.394413e-01 -2.500000e-01  3.250000e+00
    endloop
  endfacet
  facet normal  0.000000e+00 -1.000000e+00  0.000000e+00
    outer loop
      vertex  -1.605587e-01 -2.500000e-01  0.000000e+00
      vertex   3.394413e-01 -2.500000e-01  3.250000e+00
      vertex  -1.605587e-01 -2.500000e-01  2.750000e+00
    endloop
  endfacet
  facet normal  0.000000e+00 -1.000000e+00  0.000000e+00
    outer loop
      vertex  -1.605587e-01  2.500000e-01  0.000000e+00
      vertex   3.394413e-01  2.500000e-01  0.000000e+00
      vertex   3.394413e-01  2.500000e-01  3.250000e+00
    endloop
  endfacet
  facet normal  0.000000e+00 -1.000000e+00  0.000000e+00
    outer loop
      vertex  -1.605587e-01  2.500000e-01  0.000000e+00
      vertex   3.394413e-01  2.500000e-01  3.250000e+00
      vertex  -1.605587e-01  2.500000e-01  2.750000e+00
    endloop
  endfacet
endsolid vcg
