solid STL generated by MeshLab
  facet normal  0.000000e+00  0.000000e+00  1.000000e+00
    outer loop
      vertex  -1.605687e-01  2.499999e-01  0.000000e+00
      vertex  -1.605685e-01 -2.500002e-01  0.000000e+00
      vertex   3.394313e-01 -2.500003e-01  0.000000e+00
    endloop
  endfacet
  facet normal -0.000000e+00  0.000000e+00  1.000000e+00
    outer loop
      vertex  -1.605687e-01  2.499999e-01  0.000000e+00
      vertex   3.394313e-01 -2.500003e-01  0.000000e+00
      vertex   3.394314e-01  2.500001e-01  0.000000e+00
    endloop
  endfacet
  facet normal -8.619344e-01 -4.110022e-07  5.070199e-01
    outer loop
      vertex  -1.605687e-01  2.499999e-01  2.600000e+00
      vertex  -1.605685e-01 -2.500002e-01  2.600000e+00
      vertex   3.394313e-01 -2.500003e-01  3.450000e+00
    endloop
  endfacet
  facet normal -8.619343e-01 -1.208830e-07  5.070200e-01
    outer loop
      vertex  -1.605687e-01  2.499999e-01  2.600000e+00
      vertex   3.394313e-01 -2.500003e-01  3.450000e+00
      vertex   3.394312e-01  2.499999e-01  3.450000e+00
    endloop
  endfacet
  facet normal -1.000000e+00 -4.768370e-07  0.000000e+00
    outer loop
      vertex  -1.605687e-01  2.499999e-01  0.000000e+00
      vertex  -1.605685e-01 -2.500002e-01  0.000000e+00
      vertex  -1.605685e-01 -2.500002e-01  2.600000e+00
    endloop
  endfacet
  facet normal -1.000000e+00 -4.768370e-07  0.000000e+00
    outer loop
      vertex  -1.605687e-01  2.499999e-01  0.000000e+00
      vertex  -1.605685e-01 -2.500002e-01  2.600000e+00
      vertex  -1.605687e-01  2.499999e-01  2.600000e+00
    endloop
  endfacet
  facet normal -1.000000e+00  1.192092e-07 -1.727671e-08
    outer loop
      vertex   3.394314e-01  2.500001e-01  0.000000e+00
      vertex   3.394313e-01 -2.500003e-01  0.000000e+00
      vertex   3.394313e-01 -2.500003e-01  3.450000e+00
    endloop
  endfacet
  facet normal -1.000000e+00 -1.192093e-07 -5.183013e-08
    outer loop
      vertex   3.394314e-01  2.500001e-01  0.000000e+00
      vertex   3.394313e-01 -2.500003e-01  3.450000e+00
      vertex   3.394312e-01  2.499999e-01  3.450000e+00
    endloop
  endfacet
  facet normal -1.192093e-07 -1.000000e+00 -2.059545e-15
    outer loop
      vertex  -1.605685e-01 -2.500002e-01  0.000000e+00
      vertex   3.394313e-01 -2.500003e-01  0.000000e+00
      vertex   3.394313e-01 -2.500003e-01  3.450000e+00
    endloop
  endfacet
  facet normal -1.192093e-07 -1.000000e+00  0.000000e+00
    outer loop
      vertex  -1.605685e-01 -2.500002e-01  0.000000e+00
      vertex   3.394313e-01 -2.500003e-01  3.450000e+00
      vertex  -1.605685e-01 -2.500002e-01  2.600000e+00
    endloop
  endfacet
  facet normal  2.980232e-07 -1.000000e+00 -5.614929e-08
    outer loop
      vertex  -1.605687e-01  2.499999e-01  0.000000e+00
      vertex   3.394314e-01  2.500001e-01  0.000000e+00
      vertex   3.394312e-01  2.499999e-01  3.450000e+00
    endloop
  endfacet
  facet normal -8.940697e-08 -1.000000e+00  0.000000e+00
    outer loop
      vertex  -1.605687e-01  2.499999e-01  0.000000e+00
      vertex   3.394312e-01  2.499999e-01  3.450000e+00
      vertex  -1.605687e-01  2.499999e-01  2.600000e+00
    endloop
  endfacet
  facet normal -8.622044e-01  6.852186e-08  5.065604e-01
    outer loop
      vertex  -7.185891e-01  1.500000e+00  1.648827e+00
      vertex  -7.185893e-01 -1.500000e+00  1.648827e+00
      vertex   9.804623e-01 -1.500000e+00  4.540742e+00
    endloop
  endfacet
  facet normal -8.622044e-01  0.000000e+00  5.065604e-01
    outer loop
      vertex  -7.185891e-01  1.500000e+00  1.648827e+00
      vertex   9.804623e-01 -1.500000e+00  4.540742e+00
      vertex   9.804623e-01  1.500000e+00  4.540742e+00
    endloop
  endfacet
  facet normal -8.622046e-01 -3.426093e-07  5.065602e-01
    outer loop
      vertex  -8.910310e-01  1.500000e+00  1.750138e+00
      vertex  -8.910298e-01 -1.500000e+00  1.750138e+00
      vertex   8.080222e-01 -1.500000e+00  4.642056e+00
    endloop
  endfacet
  facet normal -8.622046e-01 -1.421656e-07  5.065604e-01
    outer loop
      vertex  -8.910310e-01  1.500000e+00  1.750138e+00
      vertex   8.080222e-01 -1.500000e+00  4.642056e+00
      vertex   8.080218e-01  1.499999e+00  4.642056e+00
    endloop
  endfacet
  facet normal -5.065575e-01  4.025758e-08 -8.622062e-01
    outer loop
      vertex  -7.185891e-01  1.500000e+00  1.648827e+00
      vertex  -7.185893e-01 -1.500000e+00  1.648827e+00
      vertex  -8.910298e-01 -1.500000e+00  1.750138e+00
    endloop
  endfacet
  facet normal -5.065544e-01 -1.986817e-07 -8.622079e-01
    outer loop
      vertex  -7.185891e-01  1.500000e+00  1.648827e+00
      vertex  -8.910298e-01 -1.500000e+00  1.750138e+00
      vertex  -8.910310e-01  1.500000e+00  1.750138e+00
    endloop
  endfacet
  facet normal -5.065696e-01  1.006464e-08 -8.621991e-01
    outer loop
      vertex   9.804623e-01  1.500000e+00  4.540742e+00
      vertex   9.804623e-01 -1.500000e+00  4.540742e+00
      vertex   8.080222e-01 -1.500000e+00  4.642056e+00
    endloop
  endfacet
  facet normal -5.065686e-01 -7.140119e-08 -8.621997e-01
    outer loop
      vertex   9.804623e-01  1.500000e+00  4.540742e+00
      vertex   8.080222e-01 -1.500000e+00  4.642056e+00
      vertex   8.080218e-01  1.499999e+00  4.642056e+00
    endloop
  endfacet
  facet normal -2.019644e-06 -1.000000e+00  1.269020e-06
    outer loop
      vertex  -7.185893e-01 -1.500000e+00  1.648827e+00
      vertex   9.804623e-01 -1.500000e+00  4.540742e+00
      vertex   8.080222e-01 -1.500000e+00  4.642056e+00
    endloop
  endfacet
  facet normal  1.171862e-06 -1.000000e+00 -3.587172e-07
    outer loop
      vertex  -7.185893e-01 -1.500000e+00  1.648827e+00
      vertex   8.080222e-01 -1.500000e+00  4.642056e+00
      vertex  -8.910298e-01 -1.500000e+00  1.750138e+00
    endloop
  endfacet
  facet normal  0.000000e+00  1.000000e+00  0.000000e+00
    outer loop
      vertex   9.804623e-01  1.500000e+00  4.540742e+00
      vertex  -7.185891e-01  1.500000e+00  1.648827e+00
      vertex  -8.910310e-01  1.500000e+00  1.750138e+00
    endloop
  endfacet
  facet normal -1.983632e-06  1.000000e+00  1.330305e-06
    outer loop
      vertex   9.804623e-01  1.500000e+00  4.540742e+00
      vertex  -8.910310e-01  1.500000e+00  1.750138e+00
      vertex   8.080218e-01  1.499999e+00  4.642056e+00
    endloop
  endfacet
endsolid vcg
