solid STL generated by MeshLab
  facet normal  0.000000e+00  0.000000e+00  1.000000e+00
    outer loop
      vertex  -2.473050e-01  2.347043e-01  0.000000e+00
      vertex  -2.473043e-01 -2.652955e-01  0.000000e+00
      vertex   2.526941e-01 -2.652948e-01  0.000000e+00
    endloop
  endfacet
  facet normal  0.000000e+00  0.000000e+00  1.000000e+00
    outer loop
      vertex  -2.473050e-01  2.347043e-01  0.000000e+00
      vertex   2.526941e-01 -2.652948e-01  0.000000e+00
      vertex   2.526942e-01  2.347043e-01  0.000000e+00
    endloop
  endfacet
  facet normal -4.472148e-01 -5.997619e-07  8.944266e-01
    outer loop
      vertex  -2.473050e-01  2.347043e-01  2.875000e+00
      vertex  -2.473043e-01 -2.652955e-01  2.875000e+00
      vertex   2.526941e-01 -2.652948e-01  3.125000e+00
    endloop
  endfacet
  facet normal -4.472143e-01  5.331219e-08  8.944269e-01
    outer loop
      vertex  -2.473050e-01  2.347043e-01  2.875000e+00
      vertex   2.526941e-01 -2.652948e-01  3.125000e+00
      vertex   2.526942e-01  2.347043e-01  3.125000e+00
    endloop
  endfacet
  facet normal -1.000000e+00 -1.341105e-06  0.000000e+00
    outer loop
      vertex  -2.473050e-01  2.347043e-01  0.000000e+00
      vertex  -2.473043e-01 -2.652955e-01  0.000000e+00
      vertex  -2.473043e-01 -2.652955e-01  2.875000e+00
    endloop
  endfacet
  facet normal -1.000000e+00 -1.341105e-06  0.000000e+00
    outer loop
      vertex  -2.473050e-01  2.347043e-01  0.000000e+00
      vertex  -2.473043e-01 -2.652955e-01  2.875000e+00
      vertex  -2.473050e-01  2.347043e-01  2.875000e+00
    endloop
  endfacet
  facet normal -1.000000e+00  1.192095e-07  0.000000e+00
    outer loop
      vertex   2.526942e-01  2.347043e-01  0.000000e+00
      vertex   2.526941e-01 -2.652948e-01  0.000000e+00
      vertex   2.526941e-01 -2.652948e-01  3.125000e+00
    endloop
  endfacet
  facet normal -1.000000e+00  1.192095e-07  0.000000e+00
    outer loop
      vertex   2.526942e-01  2.347043e-01  0.000000e+00
      vertex   2.526941e-01 -2.652948e-01  3.125000e+00
      vertex   2.526942e-01  2.347043e-01  3.125000e+00
    endloop
  endfacet
  facet normal  1.430516e-06 -1.000000e+00  0.000000e+00
    outer loop
      vertex  -2.473043e-01 -2.652955e-01  0.000000e+00
      vertex   2.526941e-01 -2.652948e-01  0.000000e+00
      vertex   2.526941e-01 -2.652948e-01  3.125000e+00
    endloop
  endfacet
  facet normal  1.430516e-06 -1.000000e+00  0.000000e+00
    outer loop
      vertex  -2.473043e-01 -2.652955e-01  0.000000e+00
      vertex   2.526941e-01 -2.652948e-01  3.125000e+00
      vertex  -2.473043e-01 -2.652955e-01  2.875000e+00
    endloop
  endfacet
  facet normal -5.960475e-08 -1.000000e+00  0.000000e+00
    outer loop
      vertex  -2.473050e-01  2.347043e-01  0.000000e+00
      vertex   2.526942e-01  2.347043e-01  0.000000e+00
      vertex   2.526942e-01  2.347043e-01  3.125000e+00
    endloop
  endfacet
  facet normal -5.960475e-08 -1.000000e+00  0.000000e+00
    outer loop
      vertex  -2.473050e-01  2.347043e-01  0.000000e+00
      vertex   2.526942e-01  2.347043e-01  3.125000e+00
      vertex  -2.473050e-01  2.347043e-01  2.875000e+00
    endloop
  endfacet
  facet normal -4.472136e-01  5.686623e-07  8.944272e-01
    outer loop
      vertex  -1.497301e+00  1.484702e+00  2.250000e+00
      vertex  -1.497305e+00 -1.515294e+00  2.250000e+00
      vertex   1.502694e+00 -1.515295e+00  3.750000e+00
    endloop
  endfacet
  facet normal -4.472140e-01  1.895539e-07  8.944270e-01
    outer loop
      vertex  -1.497301e+00  1.484702e+00  2.250000e+00
      vertex   1.502694e+00 -1.515295e+00  3.750000e+00
      vertex   1.502695e+00  1.484706e+00  3.750000e+00
    endloop
  endfacet
  facet normal -4.472138e-01 -1.777068e-07  8.944272e-01
    outer loop
      vertex  -1.586749e+00  1.484704e+00  2.428885e+00
      vertex  -1.586748e+00 -1.515295e+00  2.428885e+00
      vertex   1.413251e+00 -1.515294e+00  3.928885e+00
    endloop
  endfacet
  facet normal -4.472138e-01 -1.895540e-07  8.944271e-01
    outer loop
      vertex  -1.586749e+00  1.484704e+00  2.428885e+00
      vertex   1.413251e+00 -1.515294e+00  3.928885e+00
      vertex   1.413249e+00  1.484704e+00  3.928885e+00
    endloop
  endfacet
  facet normal -8.944265e-01  1.137323e-06 -4.472150e-01
    outer loop
      vertex  -1.497301e+00  1.484702e+00  2.250000e+00
      vertex  -1.497305e+00 -1.515294e+00  2.250000e+00
      vertex  -1.586748e+00 -1.515295e+00  2.428885e+00
    endloop
  endfacet
  facet normal -8.944164e-01 -3.538994e-07 -4.472350e-01
    outer loop
      vertex  -1.497301e+00  1.484702e+00  2.250000e+00
      vertex  -1.586748e+00 -1.515295e+00  2.428885e+00
      vertex  -1.586749e+00  1.484704e+00  2.428885e+00
    endloop
  endfacet
  facet normal -8.944251e-01  3.554125e-07 -4.472179e-01
    outer loop
      vertex   1.502695e+00  1.484706e+00  3.750000e+00
      vertex   1.502694e+00 -1.515295e+00  3.750000e+00
      vertex   1.413251e+00 -1.515294e+00  3.928885e+00
    endloop
  endfacet
  facet normal -8.944198e-01 -4.284063e-07 -4.472284e-01
    outer loop
      vertex   1.502695e+00  1.484706e+00  3.750000e+00
      vertex   1.413251e+00 -1.515294e+00  3.928885e+00
      vertex   1.413249e+00  1.484704e+00  3.928885e+00
    endloop
  endfacet
  facet normal -1.022204e-06 -1.000000e+00  1.488097e-06
    outer loop
      vertex  -1.497305e+00 -1.515294e+00  2.250000e+00
      vertex   1.502694e+00 -1.515295e+00  3.750000e+00
      vertex   1.413251e+00 -1.515294e+00  3.928885e+00
    endloop
  endfacet
  facet normal  2.557991e-06 -1.000000e+00 -4.718616e-06
    outer loop
      vertex  -1.497305e+00 -1.515294e+00  2.250000e+00
      vertex   1.413251e+00 -1.515294e+00  3.928885e+00
      vertex  -1.586748e+00 -1.515295e+00  2.428885e+00
    endloop
  endfacet
  facet normal  3.076493e-06  1.000000e+00 -8.457693e-06
    outer loop
      vertex   1.502695e+00  1.484706e+00  3.750000e+00
      vertex  -1.497301e+00  1.484702e+00  2.250000e+00
      vertex  -1.586749e+00  1.484704e+00  2.428885e+00
    endloop
  endfacet
  facet normal -4.436130e-06  1.000000e+00  9.110674e-06
    outer loop
      vertex   1.502695e+00  1.484706e+00  3.750000e+00
      vertex  -1.586749e+00  1.484704e+00  2.428885e+00
      vertex   1.413249e+00  1.484704e+00  3.928885e+00
    endloop
  endfacet
endsolid vcg
