solid STL generated by MeshLab
  facet normal  5.401672e-08  5.401667e-08  1.000000e+00
    outer loop
      vertex   5.000004e-01 -5.000000e-01 -1.862645e-09
      vertex   5.000004e-01  5.000008e-01 -5.587935e-08
      vertex  -4.999993e-01  5.000008e-01 -1.862645e-09
    endloop
  endfacet
  facet normal  1.676380e-08  1.676378e-08  1.000000e+00
    outer loop
      vertex   5.000004e-01 -5.000000e-01 -1.862645e-09
      vertex  -4.999993e-01  5.000008e-01 -1.862645e-09
      vertex  -5.000007e-01 -4.999996e-01  1.490116e-08
    endloop
  endfacet
  facet normal  3.814698e-06 -9.536719e-07 -1.000000e+00
    outer loop
      vertex   5.000012e-01 -4.999987e-01  1.200001e+01
      vertex  -4.999996e-01  5.000006e-01  1.200000e+01
      vertex   5.000005e-01  5.000012e-01  1.200000e+01
    endloop
  endfacet
  facet normal  5.722030e-06  9.536639e-07 -1.000000e+00
    outer loop
      vertex   5.000012e-01 -4.999987e-01  1.200001e+01
      vertex  -5.000011e-01 -5.000004e-01  1.200000e+01
      vertex  -4.999996e-01  5.000006e-01  1.200000e+01
    endloop
  endfacet
  facet normal  1.000000e+00  5.960459e-08 -1.490116e-08
    outer loop
      vertex   5.000004e-01 -5.000000e-01 -1.862645e-09
      vertex   5.000004e-01  5.000008e-01 -5.587935e-08
      vertex   5.000005e-01  5.000012e-01  1.200000e+01
    endloop
  endfacet
  facet normal  1.000000e+00  6.556511e-07 -6.457174e-08
    outer loop
      vertex   5.000004e-01 -5.000000e-01 -1.862645e-09
      vertex   5.000005e-01  5.000012e-01  1.200000e+01
      vertex   5.000012e-01 -4.999987e-01  1.200001e+01
    endloop
  endfacet
  facet normal -1.000000e+00  1.311302e-06 -1.738466e-08
    outer loop
      vertex  -5.000007e-01 -4.999996e-01  1.490116e-08
      vertex  -4.999996e-01  5.000006e-01  1.200000e+01
      vertex  -4.999993e-01  5.000008e-01 -1.862645e-09
    endloop
  endfacet
  facet normal -1.000000e+00  1.579522e-06 -3.973632e-08
    outer loop
      vertex  -5.000007e-01 -4.999996e-01  1.490116e-08
      vertex  -5.000011e-01 -5.000004e-01  1.200000e+01
      vertex  -4.999996e-01  5.000006e-01  1.200000e+01
    endloop
  endfacet
  facet normal -5.960467e-08  1.000000e+00  1.490116e-08
    outer loop
      vertex   5.000004e-01  5.000008e-01 -5.587935e-08
      vertex  -4.999993e-01  5.000008e-01 -1.862645e-09
      vertex  -4.999996e-01  5.000006e-01  1.200000e+01
    endloop
  endfacet
  facet normal -5.960464e-07  1.000000e+00 -2.980230e-08
    outer loop
      vertex   5.000004e-01  5.000008e-01 -5.587935e-08
      vertex  -4.999996e-01  5.000006e-01  1.200000e+01
      vertex   5.000005e-01  5.000012e-01  1.200000e+01
    endloop
  endfacet
  facet normal -4.470344e-07 -1.000000e+00 -6.705524e-08
    outer loop
      vertex   5.000004e-01 -5.000000e-01 -1.862645e-09
      vertex  -5.000011e-01 -5.000004e-01  1.200000e+01
      vertex  -5.000007e-01 -4.999996e-01  1.490116e-08
    endloop
  endfacet
  facet normal  1.668925e-06 -1.000000e+00  1.092750e-07
    outer loop
      vertex   5.000004e-01 -5.000000e-01 -1.862645e-09
      vertex   5.000012e-01 -4.999987e-01  1.200001e+01
      vertex  -5.000011e-01 -5.000004e-01  1.200000e+01
    endloop
  endfacet
endsolid vcg
