solid STL generated by MeshLab
  facet normal  0.000000e+00  0.000000e+00  1.000000e+00
    outer loop
      vertex   0.000000e+00  0.000000e+00  0.000000e+00
      vertex   5.000000e-01  0.000000e+00  0.000000e+00
      vertex   4.890738e-01  1.039560e-01  0.000000e+00
    endloop
  endfacet
  facet normal  0.000000e+00  0.000000e+00  1.000000e+00
    outer loop
      vertex   0.000000e+00  0.000000e+00  0.000000e+00
      vertex   4.890738e-01  1.039560e-01  0.000000e+00
      vertex   4.567728e-01  2.033679e-01  0.000000e+00
    endloop
  endfacet
  facet normal  0.000000e+00  0.000000e+00  1.000000e+00
    outer loop
      vertex   0.000000e+00  0.000000e+00  0.000000e+00
      vertex   4.567728e-01  2.033679e-01  0.000000e+00
      vertex   4.067373e-01  2.938931e-01  0.000000e+00
    endloop
  endfacet
  facet normal  0.000000e+00  0.000000e+00  1.000000e+00
    outer loop
      vertex   0.000000e+00  0.000000e+00  0.000000e+00
      vertex   4.067373e-01  2.938931e-01  0.000000e+00
      vertex   3.399181e-01  3.660250e-01  0.000000e+00
    endloop
  endfacet
  facet normal  0.000000e+00  0.000000e+00  1.000000e+00
    outer loop
      vertex   0.000000e+00  0.000000e+00  0.000000e+00
      vertex   3.399181e-01  3.660250e-01  0.000000e+00
      vertex   2.588196e-01  4.157350e-01  0.000000e+00
    endloop
  endfacet
  facet normal  0.000000e+00  0.000000e+00  1.000000e+00
    outer loop
      vertex   0.000000e+00  0.000000e+00  0.000000e+00
      vertex   2.588196e-01  4.157350e-01  0.000000e+00
      vertex   1.654348e-01  4.713969e-01  0.000000e+00
    endloop
  endfacet
  facet normal  0.000000e+00  0.000000e+00  1.000000e+00
    outer loop
      vertex   0.000000e+00  0.000000e+00  0.000000e+00
      vertex   1.654348e-01  4.713969e-01  0.000000e+00
      vertex   5.226421e-02  4.972610e-01  0.000000e+00
    endloop
  endfacet
  facet normal  0.000000e+00 -0.000000e+00  1.000000e+00
    outer loop
      vertex   0.000000e+00  0.000000e+00  0.000000e+00
      vertex   5.226421e-02  4.972610e-01  0.000000e+00
      vertex  -5.226040e-02  4.972610e-01  0.000000e+00
    endloop
  endfacet
  facet normal  0.000000e+00  0.000000e+00  1.000000e+00
    outer loop
      vertex   0.000000e+00  0.000000e+00  0.000000e+00
      vertex  -5.226040e-02  4.972610e-01  0.000000e+00
      vertex  -1.654301e-01  4.713969e-01  0.000000e+00
    endloop
  endfacet
  facet normal  0.000000e+00  0.000000e+00  1.000000e+00
    outer loop
      vertex   0.000000e+00  0.000000e+00  0.000000e+00
      vertex  -1.654301e-01  4.713969e-01  0.000000e+00
      vertex  -2.588196e-01  4.157350e-01  0.000000e+00
    endloop
  endfacet
  facet normal  0.000000e+00  0.000000e+00  1.000000e+00
    outer loop
      vertex   0.000000e+00  0.000000e+00  0.000000e+00
      vertex  -2.588196e-01  4.157350e-01  0.000000e+00
      vertex  -3.399200e-01  3.660250e-01  0.000000e+00
    endloop
  endfacet
  facet normal  0.000000e+00  0.000000e+00  1.000000e+00
    outer loop
      vertex   0.000000e+00  0.000000e+00  0.000000e+00
      vertex  -3.399200e-01  3.660250e-01  0.000000e+00
      vertex  -4.067402e-01  2.938931e-01  0.000000e+00
    endloop
  endfacet
  facet normal  0.000000e+00  0.000000e+00  1.000000e+00
    outer loop
      vertex   0.000000e+00  0.000000e+00  0.000000e+00
      vertex  -4.067402e-01  2.938931e-01  0.000000e+00
      vertex  -4.567699e-01  2.033679e-01  0.000000e+00
    endloop
  endfacet
  facet normal  0.000000e+00  0.000000e+00  1.000000e+00
    outer loop
      vertex   0.000000e+00  0.000000e+00  0.000000e+00
      vertex  -4.567699e-01  2.033679e-01  0.000000e+00
      vertex  -4.890699e-01  1.039560e-01  0.000000e+00
    endloop
  endfacet
  facet normal  0.000000e+00  0.000000e+00  1.000000e+00
    outer loop
      vertex   0.000000e+00  0.000000e+00  0.000000e+00
      vertex  -4.890699e-01  1.039560e-01  0.000000e+00
      vertex  -5.000000e-01  0.000000e+00  0.000000e+00
    endloop
  endfacet
  facet normal  0.000000e+00  0.000000e+00  1.000000e+00
    outer loop
      vertex   0.000000e+00  0.000000e+00  1.200000e+01
      vertex   5.000000e-01  0.000000e+00  1.200000e+01
      vertex   4.890738e-01  1.039560e-01  1.200000e+01
    endloop
  endfacet
  facet normal  0.000000e+00  0.000000e+00  1.000000e+00
    outer loop
      vertex   0.000000e+00  0.000000e+00  1.200000e+01
      vertex   4.890738e-01  1.039560e-01  1.200000e+01
      vertex   4.567728e-01  2.033679e-01  1.200000e+01
    endloop
  endfacet
  facet normal  0.000000e+00  0.000000e+00  1.000000e+00
    outer loop
      vertex   0.000000e+00  0.000000e+00  1.200000e+01
      vertex   4.567728e-01  2.033679e-01  1.200000e+01
      vertex   4.067373e-01  2.938931e-01  1.200000e+01
    endloop
  endfacet
  facet normal  0.000000e+00  0.000000e+00  1.000000e+00
    outer loop
      vertex   0.000000e+00  0.000000e+00  1.200000e+01
      vertex   4.067373e-01  2.938931e-01  1.200000e+01
      vertex   3.399181e-01  3.660250e-01  1.200000e+01
    endloop
  endfacet
  facet normal  0.000000e+00  0.000000e+00  1.000000e+00
    outer loop
      vertex   0.000000e+00  0.000000e+00  1.200000e+01
      vertex   3.399181e-01  3.660250e-01  1.200000e+01
      vertex   2.588196e-01  4.157350e-01  1.200000e+01
    endloop
  endfacet
  facet normal  0.000000e+00  0.000000e+00  1.000000e+00
    outer loop
      vertex   0.000000e+00  0.000000e+00  1.200000e+01
      vertex   2.588196e-01  4.157350e-01  1.200000e+01
      vertex   1.654348e-01  4.713969e-01  1.200000e+01
    endloop
  endfacet
  facet normal  0.000000e+00  0.000000e+00  1.000000e+00
    outer loop
      vertex   0.000000e+00  0.000000e+00  1.200000e+01
      vertex   1.654348e-01  4.713969e-01  1.200000e+01
      vertex   5.226421e-02  4.972610e-01  1.200000e+01
    endloop
  endfacet
  facet normal  0.000000e+00 -0.000000e+00  1.000000e+00
    outer loop
      vertex   0.000000e+00  0.000000e+00  1.200000e+01
      vertex   5.226421e-02  4.972610e-01  1.200000e+01
      vertex  -5.226040e-02  4.972610e-01  1.200000e+01
    endloop
  endfacet
  facet normal  0.000000e+00  0.000000e+00  1.000000e+00
    outer loop
      vertex   0.000000e+00  0.000000e+00  1.200000e+01
      vertex  -5.226040e-02  4.972610e-01  1.200000e+01
      vertex  -1.654301e-01  4.713969e-01  1.200000e+01
    endloop
  endfacet
  facet normal  0.000000e+00  0.000000e+00  1.000000e+00
    outer loop
      vertex   0.000000e+00  0.000000e+00  1.200000e+01
      vertex  -1.654301e-01  4.713969e-01  1.200000e+01
      vertex  -2.588196e-01  4.157350e-01  1.200000e+01
    endloop
  endfacet
  facet normal  0.000000e+00  0.000000e+00  1.000000e+00
    outer loop
      vertex   0.000000e+00  0.000000e+00  1.200000e+01
      vertex  -2.588196e-01  4.157350e-01  1.200000e+01
      vertex  -3.399200e-01  3.660250e-01  1.200000e+01
    endloop
  endfacet
  facet normal  0.000000e+00  0.000000e+00  1.000000e+00
    outer loop
      vertex   0.000000e+00  0.000000e+00  1.200000e+01
      vertex  -3.399200e-01  3.660250e-01  1.200000e+01
      vertex  -4.067402e-01  2.938931e-01  1.200000e+01
    endloop
  endfacet
  facet normal  0.000000e+00  0.000000e+00  1.000000e+00
    outer loop
      vertex   0.000000e+00  0.000000e+00  1.200000e+01
      vertex  -4.067402e-01  2.938931e-01  1.200000e+01
      vertex  -4.567699e-01  2.033679e-01  1.200000e+01
    endloop
  endfacet
  facet normal  0.000000e+00  0.000000e+00  1.000000e+00
    outer loop
      vertex   0.000000e+00  0.000000e+00  1.200000e+01
      vertex  -4.567699e-01  2.033679e-01  1.200000e+01
      vertex  -4.890699e-01  1.039560e-01  1.200000e+01
    endloop
  endfacet
  facet normal  0.000000e+00  0.000000e+00  1.000000e+00
    outer loop
      vertex   0.000000e+00  0.000000e+00  1.200000e+01
      vertex  -4.890699e-01  1.039560e-01  1.200000e+01
      vertex  -5.000000e-01  0.000000e+00  1.200000e+01
    endloop
  endfacet
  facet normal -9.945181e-01  1.045648e-01  0.000000e+00
    outer loop
      vertex  -5.000000e-01  0.000000e+00  0.000000e+00
      vertex  -5.000000e-01  0.000000e+00  1.200000e+01
      vertex  -4.890699e-01  1.039560e-01  1.200000e+01
    endloop
  endfacet
  facet normal -9.945181e-01  1.045648e-01  0.000000e+00
    outer loop
      vertex  -5.000000e-01  0.000000e+00  0.000000e+00
      vertex  -4.890699e-01  1.039560e-01  1.200000e+01
      vertex  -4.890699e-01  1.039560e-01  0.000000e+00
    endloop
  endfacet
  facet normal -9.510590e-01  3.090093e-01  0.000000e+00
    outer loop
      vertex  -4.890699e-01  1.039560e-01  0.000000e+00
      vertex  -4.890699e-01  1.039560e-01  1.200000e+01
      vertex  -4.567699e-01  2.033679e-01  1.200000e+01
    endloop
  endfacet
  facet normal -9.510590e-01  3.090093e-01  0.000000e+00
    outer loop
      vertex  -4.890699e-01  1.039560e-01  0.000000e+00
      vertex  -4.567699e-01  2.033679e-01  1.200000e+01
      vertex  -4.567699e-01  2.033679e-01  0.000000e+00
    endloop
  endfacet
  facet normal -8.752306e-01  4.837059e-01  0.000000e+00
    outer loop
      vertex  -4.567699e-01  2.033679e-01  0.000000e+00
      vertex  -4.567699e-01  2.033679e-01  1.200000e+01
      vertex  -4.067402e-01  2.938931e-01  1.200000e+01
    endloop
  endfacet
  facet normal -8.752306e-01  4.837059e-01  0.000000e+00
    outer loop
      vertex  -4.567699e-01  2.033679e-01  0.000000e+00
      vertex  -4.067402e-01  2.938931e-01  1.200000e+01
      vertex  -4.067402e-01  2.938931e-01  0.000000e+00
    endloop
  endfacet
  facet normal -7.336017e-01  6.795797e-01  0.000000e+00
    outer loop
      vertex  -4.067402e-01  2.938931e-01  0.000000e+00
      vertex  -4.067402e-01  2.938931e-01  1.200000e+01
      vertex  -3.399200e-01  3.660250e-01  1.200000e+01
    endloop
  endfacet
  facet normal -7.336017e-01  6.795797e-01  0.000000e+00
    outer loop
      vertex  -4.067402e-01  2.938931e-01  0.000000e+00
      vertex  -3.399200e-01  3.660250e-01  1.200000e+01
      vertex  -3.399200e-01  3.660250e-01  0.000000e+00
    endloop
  endfacet
  facet normal -5.225870e-01  8.525859e-01  0.000000e+00
    outer loop
      vertex  -3.399200e-01  3.660250e-01  0.000000e+00
      vertex  -3.399200e-01  3.660250e-01  1.200000e+01
      vertex  -2.588196e-01  4.157350e-01  1.200000e+01
    endloop
  endfacet
  facet normal -5.225870e-01  8.525859e-01  0.000000e+00
    outer loop
      vertex  -3.399200e-01  3.660250e-01  0.000000e+00
      vertex  -2.588196e-01  4.157350e-01  1.200000e+01
      vertex  -2.588196e-01  4.157350e-01  0.000000e+00
    endloop
  endfacet
  facet normal -5.119788e-01  8.589981e-01  0.000000e+00
    outer loop
      vertex  -2.588196e-01  4.157350e-01  0.000000e+00
      vertex  -2.588196e-01  4.157350e-01  1.200000e+01
      vertex  -1.654301e-01  4.713969e-01  1.200000e+01
    endloop
  endfacet
  facet normal -5.119788e-01  8.589981e-01  0.000000e+00
    outer loop
      vertex  -2.588196e-01  4.157350e-01  0.000000e+00
      vertex  -1.654301e-01  4.713969e-01  1.200000e+01
      vertex  -1.654301e-01  4.713969e-01  0.000000e+00
    endloop
  endfacet
  facet normal -2.227981e-01  9.748646e-01  0.000000e+00
    outer loop
      vertex  -1.654301e-01  4.713969e-01  0.000000e+00
      vertex  -1.654301e-01  4.713969e-01  1.200000e+01
      vertex  -5.226040e-02  4.972610e-01  1.200000e+01
    endloop
  endfacet
  facet normal -2.227981e-01  9.748646e-01  0.000000e+00
    outer loop
      vertex  -1.654301e-01  4.713969e-01  0.000000e+00
      vertex  -5.226040e-02  4.972610e-01  1.200000e+01
      vertex  -5.226040e-02  4.972610e-01  0.000000e+00
    endloop
  endfacet
  facet normal  0.000000e+00  1.000000e+00  0.000000e+00
    outer loop
      vertex  -5.226040e-02  4.972610e-01  0.000000e+00
      vertex  -5.226040e-02  4.972610e-01  1.200000e+01
      vertex   5.226421e-02  4.972610e-01  1.200000e+01
    endloop
  endfacet
  facet normal  0.000000e+00  1.000000e+00  0.000000e+00
    outer loop
      vertex  -5.226040e-02  4.972610e-01  0.000000e+00
      vertex   5.226421e-02  4.972610e-01  1.200000e+01
      vertex   5.226421e-02  4.972610e-01  0.000000e+00
    endloop
  endfacet
  facet normal  2.227963e-01  9.748650e-01 -0.000000e+00
    outer loop
      vertex   5.226421e-02  4.972610e-01  0.000000e+00
      vertex   5.226421e-02  4.972610e-01  1.200000e+01
      vertex   1.654348e-01  4.713969e-01  1.200000e+01
    endloop
  endfacet
  facet normal  2.227963e-01  9.748650e-01  0.000000e+00
    outer loop
      vertex   5.226421e-02  4.972610e-01  0.000000e+00
      vertex   1.654348e-01  4.713969e-01  1.200000e+01
      vertex   1.654348e-01  4.713969e-01  0.000000e+00
    endloop
  endfacet
  facet normal  5.119981e-01  8.589866e-01 -0.000000e+00
    outer loop
      vertex   1.654348e-01  4.713969e-01  0.000000e+00
      vertex   1.654348e-01  4.713969e-01  1.200000e+01
      vertex   2.588196e-01  4.157350e-01  1.200000e+01
    endloop
  endfacet
  facet normal  5.119981e-01  8.589866e-01  0.000000e+00
    outer loop
      vertex   1.654348e-01  4.713969e-01  0.000000e+00
      vertex   2.588196e-01  4.157350e-01  1.200000e+01
      vertex   2.588196e-01  4.157350e-01  0.000000e+00
    endloop
  endfacet
  facet normal  5.225960e-01  8.525804e-01 -0.000000e+00
    outer loop
      vertex   2.588196e-01  4.157350e-01  0.000000e+00
      vertex   2.588196e-01  4.157350e-01  1.200000e+01
      vertex   3.399181e-01  3.660250e-01  1.200000e+01
    endloop
  endfacet
  facet normal  5.225960e-01  8.525804e-01  0.000000e+00
    outer loop
      vertex   2.588196e-01  4.157350e-01  0.000000e+00
      vertex   3.399181e-01  3.660250e-01  1.200000e+01
      vertex   3.399181e-01  3.660250e-01  0.000000e+00
    endloop
  endfacet
  facet normal  7.336065e-01  6.795744e-01 -0.000000e+00
    outer loop
      vertex   3.399181e-01  3.660250e-01  0.000000e+00
      vertex   3.399181e-01  3.660250e-01  1.200000e+01
      vertex   4.067373e-01  2.938931e-01  1.200000e+01
    endloop
  endfacet
  facet normal  7.336065e-01  6.795744e-01  0.000000e+00
    outer loop
      vertex   3.399181e-01  3.660250e-01  0.000000e+00
      vertex   4.067373e-01  2.938931e-01  1.200000e+01
      vertex   4.067373e-01  2.938931e-01  0.000000e+00
    endloop
  endfacet
  facet normal  8.752071e-01  4.837483e-01 -0.000000e+00
    outer loop
      vertex   4.067373e-01  2.938931e-01  0.000000e+00
      vertex   4.067373e-01  2.938931e-01  1.200000e+01
      vertex   4.567728e-01  2.033679e-01  1.200000e+01
    endloop
  endfacet
  facet normal  8.752071e-01  4.837483e-01  0.000000e+00
    outer loop
      vertex   4.067373e-01  2.938931e-01  0.000000e+00
      vertex   4.567728e-01  2.033679e-01  1.200000e+01
      vertex   4.567728e-01  2.033679e-01  0.000000e+00
    endloop
  endfacet
  facet normal  9.510564e-01  3.090175e-01 -0.000000e+00
    outer loop
      vertex   4.567728e-01  2.033679e-01  0.000000e+00
      vertex   4.567728e-01  2.033679e-01  1.200000e+01
      vertex   4.890738e-01  1.039560e-01  1.200000e+01
    endloop
  endfacet
  facet normal  9.510564e-01  3.090175e-01  0.000000e+00
    outer loop
      vertex   4.567728e-01  2.033679e-01  0.000000e+00
      vertex   4.890738e-01  1.039560e-01  1.200000e+01
      vertex   4.890738e-01  1.039560e-01  0.000000e+00
    endloop
  endfacet
  facet normal  9.945219e-01  1.045287e-01 -0.000000e+00
    outer loop
      vertex   4.890738e-01  1.039560e-01  0.000000e+00
      vertex   4.890738e-01  1.039560e-01  1.200000e+01
      vertex   5.000000e-01  0.000000e+00  1.200000e+01
    endloop
  endfacet
  facet normal  9.945219e-01  1.045287e-01  0.000000e+00
    outer loop
      vertex   4.890738e-01  1.039560e-01  0.000000e+00
      vertex   5.000000e-01  0.000000e+00  1.200000e+01
      vertex   5.000000e-01  0.000000e+00  0.000000e+00
    endloop
  endfacet
  facet normal  0.000000e+00  0.000000e+00  1.000000e+00
    outer loop
      vertex   0.000000e+00  0.000000e+00  0.000000e+00
      vertex  -5.000000e-01  0.000000e+00  0.000000e+00
      vertex  -4.890699e-01 -1.039560e-01  0.000000e+00
    endloop
  endfacet
  facet normal  0.000000e+00  0.000000e+00  1.000000e+00
    outer loop
      vertex   0.000000e+00  0.000000e+00  0.000000e+00
      vertex  -4.890699e-01 -1.039560e-01  0.000000e+00
      vertex  -4.567699e-01 -2.033679e-01  0.000000e+00
    endloop
  endfacet
  facet normal  0.000000e+00  0.000000e+00  1.000000e+00
    outer loop
      vertex   0.000000e+00  0.000000e+00  0.000000e+00
      vertex  -4.567699e-01 -2.033679e-01  0.000000e+00
      vertex  -4.067402e-01 -2.938931e-01  0.000000e+00
    endloop
  endfacet
  facet normal  0.000000e+00  0.000000e+00  1.000000e+00
    outer loop
      vertex   0.000000e+00  0.000000e+00  0.000000e+00
      vertex  -4.067402e-01 -2.938931e-01  0.000000e+00
      vertex  -3.399200e-01 -3.660250e-01  0.000000e+00
    endloop
  endfacet
  facet normal  0.000000e+00  0.000000e+00  1.000000e+00
    outer loop
      vertex   0.000000e+00  0.000000e+00  0.000000e+00
      vertex  -3.399200e-01 -3.660250e-01  0.000000e+00
      vertex  -2.588196e-01 -4.157350e-01  0.000000e+00
    endloop
  endfacet
  facet normal  0.000000e+00  0.000000e+00  1.000000e+00
    outer loop
      vertex   0.000000e+00  0.000000e+00  0.000000e+00
      vertex  -2.588196e-01 -4.157350e-01  0.000000e+00
      vertex  -1.654301e-01 -4.713969e-01  0.000000e+00
    endloop
  endfacet
  facet normal  0.000000e+00  0.000000e+00  1.000000e+00
    outer loop
      vertex   0.000000e+00  0.000000e+00  0.000000e+00
      vertex  -1.654301e-01 -4.713969e-01  0.000000e+00
      vertex  -5.226040e-02 -4.972610e-01  0.000000e+00
    endloop
  endfacet
  facet normal  0.000000e+00  0.000000e+00  1.000000e+00
    outer loop
      vertex   0.000000e+00  0.000000e+00  0.000000e+00
      vertex  -5.226040e-02 -4.972610e-01  0.000000e+00
      vertex   5.226421e-02 -4.972610e-01  0.000000e+00
    endloop
  endfacet
  facet normal  0.000000e+00  0.000000e+00  1.000000e+00
    outer loop
      vertex   0.000000e+00  0.000000e+00  0.000000e+00
      vertex   5.226421e-02 -4.972610e-01  0.000000e+00
      vertex   1.654348e-01 -4.713969e-01  0.000000e+00
    endloop
  endfacet
  facet normal  0.000000e+00  0.000000e+00  1.000000e+00
    outer loop
      vertex   0.000000e+00  0.000000e+00  0.000000e+00
      vertex   1.654348e-01 -4.713969e-01  0.000000e+00
      vertex   2.588196e-01 -4.157350e-01  0.000000e+00
    endloop
  endfacet
  facet normal  0.000000e+00  0.000000e+00  1.000000e+00
    outer loop
      vertex   0.000000e+00  0.000000e+00  0.000000e+00
      vertex   2.588196e-01 -4.157350e-01  0.000000e+00
      vertex   3.399181e-01 -3.660250e-01  0.000000e+00
    endloop
  endfacet
  facet normal  0.000000e+00  0.000000e+00  1.000000e+00
    outer loop
      vertex   0.000000e+00  0.000000e+00  0.000000e+00
      vertex   3.399181e-01 -3.660250e-01  0.000000e+00
      vertex   4.067373e-01 -2.938931e-01  0.000000e+00
    endloop
  endfacet
  facet normal  0.000000e+00  0.000000e+00  1.000000e+00
    outer loop
      vertex   0.000000e+00  0.000000e+00  0.000000e+00
      vertex   4.067373e-01 -2.938931e-01  0.000000e+00
      vertex   4.567728e-01 -2.033679e-01  0.000000e+00
    endloop
  endfacet
  facet normal  0.000000e+00  0.000000e+00  1.000000e+00
    outer loop
      vertex   0.000000e+00  0.000000e+00  0.000000e+00
      vertex   4.567728e-01 -2.033679e-01  0.000000e+00
      vertex   4.890738e-01 -1.039560e-01  0.000000e+00
    endloop
  endfacet
  facet normal -0.000000e+00  0.000000e+00  1.000000e+00
    outer loop
      vertex   0.000000e+00  0.000000e+00  0.000000e+00
      vertex   4.890738e-01 -1.039560e-01  0.000000e+00
      vertex   5.000000e-01  0.000000e+00  0.000000e+00
    endloop
  endfacet
  facet normal  0.000000e+00  0.000000e+00  1.000000e+00
    outer loop
      vertex   0.000000e+00  0.000000e+00  1.200000e+01
      vertex  -5.000000e-01  0.000000e+00  1.200000e+01
      vertex  -4.890699e-01 -1.039560e-01  1.200000e+01
    endloop
  endfacet
  facet normal  0.000000e+00  0.000000e+00  1.000000e+00
    outer loop
      vertex   0.000000e+00  0.000000e+00  1.200000e+01
      vertex  -4.890699e-01 -1.039560e-01  1.200000e+01
      vertex  -4.567699e-01 -2.033679e-01  1.200000e+01
    endloop
  endfacet
  facet normal  0.000000e+00  0.000000e+00  1.000000e+00
    outer loop
      vertex   0.000000e+00  0.000000e+00  1.200000e+01
      vertex  -4.567699e-01 -2.033679e-01  1.200000e+01
      vertex  -4.067402e-01 -2.938931e-01  1.200000e+01
    endloop
  endfacet
  facet normal  0.000000e+00  0.000000e+00  1.000000e+00
    outer loop
      vertex   0.000000e+00  0.000000e+00  1.200000e+01
      vertex  -4.067402e-01 -2.938931e-01  1.200000e+01
      vertex  -3.399200e-01 -3.660250e-01  1.200000e+01
    endloop
  endfacet
  facet normal  0.000000e+00  0.000000e+00  1.000000e+00
    outer loop
      vertex   0.000000e+00  0.000000e+00  1.200000e+01
      vertex  -3.399200e-01 -3.660250e-01  1.200000e+01
      vertex  -2.588196e-01 -4.157350e-01  1.200000e+01
    endloop
  endfacet
  facet normal  0.000000e+00  0.000000e+00  1.000000e+00
    outer loop
      vertex   0.000000e+00  0.000000e+00  1.200000e+01
      vertex  -2.588196e-01 -4.157350e-01  1.200000e+01
      vertex  -1.654301e-01 -4.713969e-01  1.200000e+01
    endloop
  endfacet
  facet normal  0.000000e+00  0.000000e+00  1.000000e+00
    outer loop
      vertex   0.000000e+00  0.000000e+00  1.200000e+01
      vertex  -1.654301e-01 -4.713969e-01  1.200000e+01
      vertex  -5.226040e-02 -4.972610e-01  1.200000e+01
    endloop
  endfacet
  facet normal  0.000000e+00  0.000000e+00  1.000000e+00
    outer loop
      vertex   0.000000e+00  0.000000e+00  1.200000e+01
      vertex  -5.226040e-02 -4.972610e-01  1.200000e+01
      vertex   5.226421e-02 -4.972610e-01  1.200000e+01
    endloop
  endfacet
  facet normal  0.000000e+00  0.000000e+00  1.000000e+00
    outer loop
      vertex   0.000000e+00  0.000000e+00  1.200000e+01
      vertex   5.226421e-02 -4.972610e-01  1.200000e+01
      vertex   1.654348e-01 -4.713969e-01  1.200000e+01
    endloop
  endfacet
  facet normal  0.000000e+00  0.000000e+00  1.000000e+00
    outer loop
      vertex   0.000000e+00  0.000000e+00  1.200000e+01
      vertex   1.654348e-01 -4.713969e-01  1.200000e+01
      vertex   2.588196e-01 -4.157350e-01  1.200000e+01
    endloop
  endfacet
  facet normal  0.000000e+00  0.000000e+00  1.000000e+00
    outer loop
      vertex   0.000000e+00  0.000000e+00  1.200000e+01
      vertex   2.588196e-01 -4.157350e-01  1.200000e+01
      vertex   3.399181e-01 -3.660250e-01  1.200000e+01
    endloop
  endfacet
  facet normal  0.000000e+00  0.000000e+00  1.000000e+00
    outer loop
      vertex   0.000000e+00  0.000000e+00  1.200000e+01
      vertex   3.399181e-01 -3.660250e-01  1.200000e+01
      vertex   4.067373e-01 -2.938931e-01  1.200000e+01
    endloop
  endfacet
  facet normal  0.000000e+00  0.000000e+00  1.000000e+00
    outer loop
      vertex   0.000000e+00  0.000000e+00  1.200000e+01
      vertex   4.067373e-01 -2.938931e-01  1.200000e+01
      vertex   4.567728e-01 -2.033679e-01  1.200000e+01
    endloop
  endfacet
  facet normal  0.000000e+00  0.000000e+00  1.000000e+00
    outer loop
      vertex   0.000000e+00  0.000000e+00  1.200000e+01
      vertex   4.567728e-01 -2.033679e-01  1.200000e+01
      vertex   4.890738e-01 -1.039560e-01  1.200000e+01
    endloop
  endfacet
  facet normal -0.000000e+00  0.000000e+00  1.000000e+00
    outer loop
      vertex   0.000000e+00  0.000000e+00  1.200000e+01
      vertex   4.890738e-01 -1.039560e-01  1.200000e+01
      vertex   5.000000e-01  0.000000e+00  1.200000e+01
    endloop
  endfacet
  facet normal  9.945219e-01 -1.045287e-01  0.000000e+00
    outer loop
      vertex   5.000000e-01  0.000000e+00  0.000000e+00
      vertex   5.000000e-01  0.000000e+00  1.200000e+01
      vertex   4.890738e-01 -1.039560e-01  1.200000e+01
    endloop
  endfacet
  facet normal  9.945219e-01 -1.045287e-01  0.000000e+00
    outer loop
      vertex   5.000000e-01  0.000000e+00  0.000000e+00
      vertex   4.890738e-01 -1.039560e-01  1.200000e+01
      vertex   4.890738e-01 -1.039560e-01  0.000000e+00
    endloop
  endfacet
  facet normal  9.510564e-01 -3.090175e-01  0.000000e+00
    outer loop
      vertex   4.890738e-01 -1.039560e-01  0.000000e+00
      vertex   4.890738e-01 -1.039560e-01  1.200000e+01
      vertex   4.567728e-01 -2.033679e-01  1.200000e+01
    endloop
  endfacet
  facet normal  9.510564e-01 -3.090175e-01  0.000000e+00
    outer loop
      vertex   4.890738e-01 -1.039560e-01  0.000000e+00
      vertex   4.567728e-01 -2.033679e-01  1.200000e+01
      vertex   4.567728e-01 -2.033679e-01  0.000000e+00
    endloop
  endfacet
  facet normal  8.752071e-01 -4.837483e-01  0.000000e+00
    outer loop
      vertex   4.567728e-01 -2.033679e-01  0.000000e+00
      vertex   4.567728e-01 -2.033679e-01  1.200000e+01
      vertex   4.067373e-01 -2.938931e-01  1.200000e+01
    endloop
  endfacet
  facet normal  8.752071e-01 -4.837483e-01  0.000000e+00
    outer loop
      vertex   4.567728e-01 -2.033679e-01  0.000000e+00
      vertex   4.067373e-01 -2.938931e-01  1.200000e+01
      vertex   4.067373e-01 -2.938931e-01  0.000000e+00
    endloop
  endfacet
  facet normal  7.336065e-01 -6.795744e-01  0.000000e+00
    outer loop
      vertex   4.067373e-01 -2.938931e-01  0.000000e+00
      vertex   4.067373e-01 -2.938931e-01  1.200000e+01
      vertex   3.399181e-01 -3.660250e-01  1.200000e+01
    endloop
  endfacet
  facet normal  7.336065e-01 -6.795744e-01  0.000000e+00
    outer loop
      vertex   4.067373e-01 -2.938931e-01  0.000000e+00
      vertex   3.399181e-01 -3.660250e-01  1.200000e+01
      vertex   3.399181e-01 -3.660250e-01  0.000000e+00
    endloop
  endfacet
  facet normal  5.225960e-01 -8.525804e-01  0.000000e+00
    outer loop
      vertex   3.399181e-01 -3.660250e-01  0.000000e+00
      vertex   3.399181e-01 -3.660250e-01  1.200000e+01
      vertex   2.588196e-01 -4.157350e-01  1.200000e+01
    endloop
  endfacet
  facet normal  5.225960e-01 -8.525804e-01  0.000000e+00
    outer loop
      vertex   3.399181e-01 -3.660250e-01  0.000000e+00
      vertex   2.588196e-01 -4.157350e-01  1.200000e+01
      vertex   2.588196e-01 -4.157350e-01  0.000000e+00
    endloop
  endfacet
  facet normal  5.119981e-01 -8.589866e-01  0.000000e+00
    outer loop
      vertex   2.588196e-01 -4.157350e-01  0.000000e+00
      vertex   2.588196e-01 -4.157350e-01  1.200000e+01
      vertex   1.654348e-01 -4.713969e-01  1.200000e+01
    endloop
  endfacet
  facet normal  5.119981e-01 -8.589866e-01  0.000000e+00
    outer loop
      vertex   2.588196e-01 -4.157350e-01  0.000000e+00
      vertex   1.654348e-01 -4.713969e-01  1.200000e+01
      vertex   1.654348e-01 -4.713969e-01  0.000000e+00
    endloop
  endfacet
  facet normal  2.227963e-01 -9.748650e-01  0.000000e+00
    outer loop
      vertex   1.654348e-01 -4.713969e-01  0.000000e+00
      vertex   1.654348e-01 -4.713969e-01  1.200000e+01
      vertex   5.226421e-02 -4.972610e-01  1.200000e+01
    endloop
  endfacet
  facet normal  2.227963e-01 -9.748650e-01  0.000000e+00
    outer loop
      vertex   1.654348e-01 -4.713969e-01  0.000000e+00
      vertex   5.226421e-02 -4.972610e-01  1.200000e+01
      vertex   5.226421e-02 -4.972610e-01  0.000000e+00
    endloop
  endfacet
  facet normal  0.000000e+00 -1.000000e+00  0.000000e+00
    outer loop
      vertex   5.226421e-02 -4.972610e-01  0.000000e+00
      vertex   5.226421e-02 -4.972610e-01  1.200000e+01
      vertex  -5.226040e-02 -4.972610e-01  1.200000e+01
    endloop
  endfacet
  facet normal  0.000000e+00 -1.000000e+00  0.000000e+00
    outer loop
      vertex   5.226421e-02 -4.972610e-01  0.000000e+00
      vertex  -5.226040e-02 -4.972610e-01  1.200000e+01
      vertex  -5.226040e-02 -4.972610e-01  0.000000e+00
    endloop
  endfacet
  facet normal -2.227981e-01 -9.748646e-01  0.000000e+00
    outer loop
      vertex  -5.226040e-02 -4.972610e-01  0.000000e+00
      vertex  -5.226040e-02 -4.972610e-01  1.200000e+01
      vertex  -1.654301e-01 -4.713969e-01  1.200000e+01
    endloop
  endfacet
  facet normal -2.227981e-01 -9.748646e-01  0.000000e+00
    outer loop
      vertex  -5.226040e-02 -4.972610e-01  0.000000e+00
      vertex  -1.654301e-01 -4.713969e-01  1.200000e+01
      vertex  -1.654301e-01 -4.713969e-01  0.000000e+00
    endloop
  endfacet
  facet normal -5.119788e-01 -8.589981e-01  0.000000e+00
    outer loop
      vertex  -1.654301e-01 -4.713969e-01  0.000000e+00
      vertex  -1.654301e-01 -4.713969e-01  1.200000e+01
      vertex  -2.588196e-01 -4.157350e-01  1.200000e+01
    endloop
  endfacet
  facet normal -5.119788e-01 -8.589981e-01  0.000000e+00
    outer loop
      vertex  -1.654301e-01 -4.713969e-01  0.000000e+00
      vertex  -2.588196e-01 -4.157350e-01  1.200000e+01
      vertex  -2.588196e-01 -4.157350e-01  0.000000e+00
    endloop
  endfacet
  facet normal -5.225870e-01 -8.525859e-01  0.000000e+00
    outer loop
      vertex  -2.588196e-01 -4.157350e-01  0.000000e+00
      vertex  -2.588196e-01 -4.157350e-01  1.200000e+01
      vertex  -3.399200e-01 -3.660250e-01  1.200000e+01
    endloop
  endfacet
  facet normal -5.225870e-01 -8.525859e-01  0.000000e+00
    outer loop
      vertex  -2.588196e-01 -4.157350e-01  0.000000e+00
      vertex  -3.399200e-01 -3.660250e-01  1.200000e+01
      vertex  -3.399200e-01 -3.660250e-01  0.000000e+00
    endloop
  endfacet
  facet normal -7.336017e-01 -6.795797e-01  0.000000e+00
    outer loop
      vertex  -3.399200e-01 -3.660250e-01  0.000000e+00
      vertex  -3.399200e-01 -3.660250e-01  1.200000e+01
      vertex  -4.067402e-01 -2.938931e-01  1.200000e+01
    endloop
  endfacet
  facet normal -7.336017e-01 -6.795797e-01  0.000000e+00
    outer loop
      vertex  -3.399200e-01 -3.660250e-01  0.000000e+00
      vertex  -4.067402e-01 -2.938931e-01  1.200000e+01
      vertex  -4.067402e-01 -2.938931e-01  0.000000e+00
    endloop
  endfacet
  facet normal -8.752306e-01 -4.837059e-01  0.000000e+00
    outer loop
      vertex  -4.067402e-01 -2.938931e-01  0.000000e+00
      vertex  -4.067402e-01 -2.938931e-01  1.200000e+01
      vertex  -4.567699e-01 -2.033679e-01  1.200000e+01
    endloop
  endfacet
  facet normal -8.752306e-01 -4.837059e-01  0.000000e+00
    outer loop
      vertex  -4.067402e-01 -2.938931e-01  0.000000e+00
      vertex  -4.567699e-01 -2.033679e-01  1.200000e+01
      vertex  -4.567699e-01 -2.033679e-01  0.000000e+00
    endloop
  endfacet
  facet normal -9.510590e-01 -3.090093e-01  0.000000e+00
    outer loop
      vertex  -4.567699e-01 -2.033679e-01  0.000000e+00
      vertex  -4.567699e-01 -2.033679e-01  1.200000e+01
      vertex  -4.890699e-01 -1.039560e-01  1.200000e+01
    endloop
  endfacet
  facet normal -9.510590e-01 -3.090093e-01  0.000000e+00
    outer loop
      vertex  -4.567699e-01 -2.033679e-01  0.000000e+00
      vertex  -4.890699e-01 -1.039560e-01  1.200000e+01
      vertex  -4.890699e-01 -1.039560e-01  0.000000e+00
    endloop
  endfacet
  facet normal -9.945181e-01 -1.045648e-01  0.000000e+00
    outer loop
      vertex  -4.890699e-01 -1.039560e-01  0.000000e+00
      vertex  -4.890699e-01 -1.039560e-01  1.200000e+01
      vertex  -5.000000e-01  0.000000e+00  1.200000e+01
    endloop
  endfacet
  facet normal -9.945181e-01 -1.045648e-01  0.000000e+00
    outer loop
      vertex  -4.890699e-01 -1.039560e-01  0.000000e+00
      vertex  -5.000000e-01  0.000000e+00  1.200000e+01
      vertex  -5.000000e-01  0.000000e+00  0.000000e+00
    endloop
  endfacet
endsolid vcg
