solid STL generated by MeshLab
  facet normal -7.071064e-01  0.000000e+00  7.071072e-01
    outer loop
      vertex  -7.071071e-01  1.000000e+00  0.000000e+00
      vertex  -7.071071e-01 -1.000000e+00  0.000000e+00
      vertex   7.071075e-01 -1.000000e+00  1.414213e+00
    endloop
  endfacet
  facet normal -7.071062e-01  1.192093e-07  7.071073e-01
    outer loop
      vertex  -7.071071e-01  1.000000e+00  0.000000e+00
      vertex   7.071075e-01 -1.000000e+00  1.414213e+00
      vertex   7.071080e-01  9.999990e-01  1.414213e+00
    endloop
  endfacet
  facet normal -7.071064e-01  0.000000e+00  7.071072e-01
    outer loop
      vertex  -9.192390e-01  1.000000e+00  2.121320e-01
      vertex  -9.192390e-01 -9.999990e-01  2.121320e-01
      vertex   4.949756e-01 -1.000000e+00  1.626345e+00
    endloop
  endfacet
  facet normal -7.071065e-01  0.000000e+00  7.071072e-01
    outer loop
      vertex  -9.192390e-01  1.000000e+00  2.121320e-01
      vertex   4.949756e-01 -1.000000e+00  1.626345e+00
      vertex   4.949756e-01  1.000000e+00  1.626345e+00
    endloop
  endfacet
  facet normal  7.071068e-01  0.000000e+00  7.071067e-01
    outer loop
      vertex  -7.071071e-01  1.000000e+00  0.000000e+00
      vertex  -9.192390e-01 -9.999990e-01  2.121320e-01
      vertex  -7.071071e-01 -1.000000e+00  0.000000e+00
    endloop
  endfacet
  facet normal  7.071068e-01  0.000000e+00  7.071067e-01
    outer loop
      vertex  -7.071071e-01  1.000000e+00  0.000000e+00
      vertex  -9.192390e-01  1.000000e+00  2.121320e-01
      vertex  -9.192390e-01 -9.999990e-01  2.121320e-01
    endloop
  endfacet
  facet normal -7.071069e-01  1.685875e-07 -7.071066e-01
    outer loop
      vertex   7.071080e-01  9.999990e-01  1.414213e+00
      vertex   7.071075e-01 -1.000000e+00  1.414213e+00
      vertex   4.949756e-01 -1.000000e+00  1.626345e+00
    endloop
  endfacet
  facet normal -7.071062e-01  0.000000e+00 -7.071074e-01
    outer loop
      vertex   7.071080e-01  9.999990e-01  1.414213e+00
      vertex   4.949756e-01 -1.000000e+00  1.626345e+00
      vertex   4.949756e-01  1.000000e+00  1.626345e+00
    endloop
  endfacet
  facet normal -2.585002e-06 -1.000000e+00  1.910656e-06
    outer loop
      vertex  -7.071071e-01  1.000000e+00  0.000000e+00
      vertex   7.071080e-01  9.999990e-01  1.414213e+00
      vertex   4.949756e-01  1.000000e+00  1.626345e+00
    endloop
  endfacet
  facet normal  0.000000e+00 -1.000000e+00  0.000000e+00
    outer loop
      vertex  -7.071071e-01  1.000000e+00  0.000000e+00
      vertex   4.949756e-01  1.000000e+00  1.626345e+00
      vertex  -9.192390e-01  1.000000e+00  2.121320e-01
    endloop
  endfacet
  facet normal  1.685874e-07 -1.000000e+00  1.685873e-07
    outer loop
      vertex  -7.071071e-01 -1.000000e+00  0.000000e+00
      vertex   7.071075e-01 -1.000000e+00  1.414213e+00
      vertex   4.949756e-01 -1.000000e+00  1.626345e+00
    endloop
  endfacet
  facet normal -3.708921e-06 -1.000000e+00  3.034575e-06
    outer loop
      vertex  -7.071071e-01 -1.000000e+00  0.000000e+00
      vertex   4.949756e-01 -1.000000e+00  1.626345e+00
      vertex  -9.192390e-01 -9.999990e-01  2.121320e-01
    endloop
  endfacet
  facet normal  0.000000e+00  0.000000e+00  1.000000e+00
    outer loop
      vertex   4.071074e-01  1.000000e+00  0.000000e+00
      vertex   4.071074e-01  6.999998e-01  0.000000e+00
      vertex   7.071075e-01  6.999998e-01  0.000000e+00
    endloop
  endfacet
  facet normal  0.000000e+00  0.000000e+00  1.000000e+00
    outer loop
      vertex   4.071074e-01  1.000000e+00  0.000000e+00
      vertex   7.071075e-01  6.999998e-01  0.000000e+00
      vertex   7.071080e-01  9.999990e-01  0.000000e+00
    endloop
  endfacet
  facet normal -7.071065e-01  0.000000e+00  7.071071e-01
    outer loop
      vertex   4.071074e-01  1.000000e+00  1.114213e+00
      vertex   4.071074e-01  6.999998e-01  1.114213e+00
      vertex   7.071075e-01  6.999998e-01  1.414213e+00
    endloop
  endfacet
  facet normal -7.071059e-01  1.112210e-06  7.071077e-01
    outer loop
      vertex   4.071074e-01  1.000000e+00  1.114213e+00
      vertex   7.071075e-01  6.999998e-01  1.414213e+00
      vertex   7.071080e-01  9.999990e-01  1.414213e+00
    endloop
  endfacet
  facet normal -1.000000e+00  0.000000e+00  0.000000e+00
    outer loop
      vertex   4.071074e-01  1.000000e+00  0.000000e+00
      vertex   4.071074e-01  6.999998e-01  0.000000e+00
      vertex   4.071074e-01  6.999998e-01  1.114213e+00
    endloop
  endfacet
  facet normal -1.000000e+00  0.000000e+00  0.000000e+00
    outer loop
      vertex   4.071074e-01  1.000000e+00  0.000000e+00
      vertex   4.071074e-01  6.999998e-01  1.114213e+00
      vertex   4.071074e-01  1.000000e+00  1.114213e+00
    endloop
  endfacet
  facet normal -1.000000e+00  1.589461e-06  0.000000e+00
    outer loop
      vertex   7.071080e-01  9.999990e-01  0.000000e+00
      vertex   7.071075e-01  6.999998e-01  0.000000e+00
      vertex   7.071075e-01  6.999998e-01  1.414213e+00
    endloop
  endfacet
  facet normal -1.000000e+00  1.589461e-06  0.000000e+00
    outer loop
      vertex   7.071080e-01  9.999990e-01  0.000000e+00
      vertex   7.071075e-01  6.999998e-01  1.414213e+00
      vertex   7.071080e-01  9.999990e-01  1.414213e+00
    endloop
  endfacet
  facet normal -3.178907e-06 -1.000000e+00  0.000000e+00
    outer loop
      vertex   4.071074e-01  1.000000e+00  0.000000e+00
      vertex   7.071080e-01  9.999990e-01  0.000000e+00
      vertex   7.071080e-01  9.999990e-01  1.414213e+00
    endloop
  endfacet
  facet normal -3.178907e-06 -1.000000e+00  0.000000e+00
    outer loop
      vertex   4.071074e-01  1.000000e+00  0.000000e+00
      vertex   7.071080e-01  9.999990e-01  1.414213e+00
      vertex   4.071074e-01  1.000000e+00  1.114213e+00
    endloop
  endfacet
  facet normal  0.000000e+00 -1.000000e+00  0.000000e+00
    outer loop
      vertex   4.071074e-01  6.999998e-01  0.000000e+00
      vertex   7.071075e-01  6.999998e-01  0.000000e+00
      vertex   7.071075e-01  6.999998e-01  1.414213e+00
    endloop
  endfacet
  facet normal  0.000000e+00 -1.000000e+00  0.000000e+00
    outer loop
      vertex   4.071074e-01  6.999998e-01  0.000000e+00
      vertex   7.071075e-01  6.999998e-01  1.414213e+00
      vertex   4.071074e-01  6.999998e-01  1.114213e+00
    endloop
  endfacet
  facet normal  0.000000e+00  0.000000e+00  1.000000e+00
    outer loop
      vertex   4.071083e-01 -6.999998e-01  0.000000e+00
      vertex   4.071074e-01 -1.000000e+00  0.000000e+00
      vertex   7.071075e-01 -1.000000e+00  0.000000e+00
    endloop
  endfacet
  facet normal -0.000000e+00  0.000000e+00  1.000000e+00
    outer loop
      vertex   4.071083e-01 -6.999998e-01  0.000000e+00
      vertex   7.071075e-01 -1.000000e+00  0.000000e+00
      vertex   7.071075e-01 -6.999998e-01  0.000000e+00
    endloop
  endfacet
  facet normal -7.071065e-01  2.247826e-06  7.071071e-01
    outer loop
      vertex   4.071083e-01 -6.999998e-01  1.114213e+00
      vertex   4.071074e-01 -1.000000e+00  1.114213e+00
      vertex   7.071075e-01 -1.000000e+00  1.414213e+00
    endloop
  endfacet
  facet normal -7.071076e-01  0.000000e+00  7.071059e-01
    outer loop
      vertex   4.071083e-01 -6.999998e-01  1.114213e+00
      vertex   7.071075e-01 -1.000000e+00  1.414213e+00
      vertex   7.071075e-01 -6.999998e-01  1.414213e+00
    endloop
  endfacet
  facet normal -1.000000e+00  3.178907e-06  0.000000e+00
    outer loop
      vertex   4.071083e-01 -6.999998e-01  0.000000e+00
      vertex   4.071074e-01 -1.000000e+00  0.000000e+00
      vertex   4.071074e-01 -1.000000e+00  1.114213e+00
    endloop
  endfacet
  facet normal -1.000000e+00  3.178907e-06  0.000000e+00
    outer loop
      vertex   4.071083e-01 -6.999998e-01  0.000000e+00
      vertex   4.071074e-01 -1.000000e+00  1.114213e+00
      vertex   4.071083e-01 -6.999998e-01  1.114213e+00
    endloop
  endfacet
  facet normal -1.000000e+00  0.000000e+00  0.000000e+00
    outer loop
      vertex   7.071075e-01 -6.999998e-01  0.000000e+00
      vertex   7.071075e-01 -1.000000e+00  0.000000e+00
      vertex   7.071075e-01 -1.000000e+00  1.414213e+00
    endloop
  endfacet
  facet normal -1.000000e+00  0.000000e+00  0.000000e+00
    outer loop
      vertex   7.071075e-01 -6.999998e-01  0.000000e+00
      vertex   7.071075e-01 -1.000000e+00  1.414213e+00
      vertex   7.071075e-01 -6.999998e-01  1.414213e+00
    endloop
  endfacet
  facet normal  0.000000e+00 -1.000000e+00  0.000000e+00
    outer loop
      vertex   4.071083e-01 -6.999998e-01  0.000000e+00
      vertex   7.071075e-01 -6.999998e-01  0.000000e+00
      vertex   7.071075e-01 -6.999998e-01  1.414213e+00
    endloop
  endfacet
  facet normal  0.000000e+00 -1.000000e+00  0.000000e+00
    outer loop
      vertex   4.071083e-01 -6.999998e-01  0.000000e+00
      vertex   7.071075e-01 -6.999998e-01  1.414213e+00
      vertex   4.071083e-01 -6.999998e-01  1.114213e+00
    endloop
  endfacet
  facet normal  1.589456e-06 -1.000000e+00  0.000000e+00
    outer loop
      vertex   4.071074e-01 -1.000000e+00  0.000000e+00
      vertex   7.071075e-01 -1.000000e+00  0.000000e+00
      vertex   7.071075e-01 -1.000000e+00  1.414213e+00
    endloop
  endfacet
  facet normal  1.589456e-06 -1.000000e+00  0.000000e+00
    outer loop
      vertex   4.071074e-01 -1.000000e+00  0.000000e+00
      vertex   7.071075e-01 -1.000000e+00  1.414213e+00
      vertex   4.071074e-01 -1.000000e+00  1.114213e+00
    endloop
  endfacet
endsolid vcg
