solid STL generated by MeshLab
  facet normal  7.071067e-01 -0.000000e+00  7.071068e-01
    outer loop
      vertex   1.425979e+00 -9.412490e-01  0.000000e+00
      vertex   1.425979e+00  1.058751e+00  0.000000e+00
      vertex   1.176536e-02  1.058750e+00  1.414213e+00
    endloop
  endfacet
  facet normal  7.071067e-01 -5.960469e-08  7.071069e-01
    outer loop
      vertex   1.425979e+00 -9.412490e-01  0.000000e+00
      vertex   1.176536e-02  1.058750e+00  1.414213e+00
      vertex   1.176525e-02 -9.412497e-01  1.414213e+00
    endloop
  endfacet
  facet normal  7.071066e-01  3.371747e-07  7.071069e-01
    outer loop
      vertex   1.638111e+00 -9.412495e-01  2.121320e-01
      vertex   1.638111e+00  1.058751e+00  2.121320e-01
      vertex   2.238969e-01  1.058750e+00  1.626345e+00
    endloop
  endfacet
  facet normal  7.071065e-01  1.192093e-07  7.071071e-01
    outer loop
      vertex   1.638111e+00 -9.412495e-01  2.121320e-01
      vertex   2.238969e-01  1.058750e+00  1.626345e+00
      vertex   2.238972e-01 -9.412498e-01  1.626345e+00
    endloop
  endfacet
  facet normal -7.071068e-01  0.000000e+00  7.071067e-01
    outer loop
      vertex   1.425979e+00 -9.412490e-01  0.000000e+00
      vertex   1.638111e+00  1.058751e+00  2.121320e-01
      vertex   1.425979e+00  1.058751e+00  0.000000e+00
    endloop
  endfacet
  facet normal -7.071053e-01 -3.352754e-07  7.071083e-01
    outer loop
      vertex   1.425979e+00 -9.412490e-01  0.000000e+00
      vertex   1.638111e+00 -9.412495e-01  2.121320e-01
      vertex   1.638111e+00  1.058751e+00  2.121320e-01
    endloop
  endfacet
  facet normal  7.071077e-01 -4.214692e-08 -7.071058e-01
    outer loop
      vertex   1.176525e-02 -9.412497e-01  1.414213e+00
      vertex   1.176536e-02  1.058750e+00  1.414213e+00
      vertex   2.238969e-01  1.058750e+00  1.626345e+00
    endloop
  endfacet
  facet normal  7.071069e-01  1.303851e-07 -7.071065e-01
    outer loop
      vertex   1.176525e-02 -9.412497e-01  1.414213e+00
      vertex   2.238969e-01  1.058750e+00  1.626345e+00
      vertex   2.238972e-01 -9.412498e-01  1.626345e+00
    endloop
  endfacet
  facet normal  2.809771e-08  1.000000e+00  5.338601e-07
    outer loop
      vertex   1.425979e+00 -9.412490e-01  0.000000e+00
      vertex   1.176525e-02 -9.412497e-01  1.414213e+00
      vertex   2.238972e-01 -9.412498e-01  1.626345e+00
    endloop
  endfacet
  facet normal  9.974730e-07  1.000000e+00  1.250355e-06
    outer loop
      vertex   1.425979e+00 -9.412490e-01  0.000000e+00
      vertex   2.238972e-01 -9.412498e-01  1.626345e+00
      vertex   1.638111e+00 -9.412495e-01  2.121320e-01
    endloop
  endfacet
  facet normal -1.980904e-06  1.000000e+00 -1.390848e-06
    outer loop
      vertex   1.425979e+00  1.058751e+00  0.000000e+00
      vertex   1.176536e-02  1.058750e+00  1.414213e+00
      vertex   2.238969e-01  1.058750e+00  1.626345e+00
    endloop
  endfacet
  facet normal -3.652727e-07  1.000000e+00 -1.966854e-07
    outer loop
      vertex   1.425979e+00  1.058751e+00  0.000000e+00
      vertex   2.238969e-01  1.058750e+00  1.626345e+00
      vertex   1.638111e+00  1.058751e+00  2.121320e-01
    endloop
  endfacet
  facet normal  0.000000e+00 -0.000000e+00  1.000000e+00
    outer loop
      vertex   3.117652e-01 -9.412498e-01  0.000000e+00
      vertex   3.117653e-01 -6.412497e-01  0.000000e+00
      vertex   1.176548e-02 -6.412498e-01  0.000000e+00
    endloop
  endfacet
  facet normal  0.000000e+00  0.000000e+00  1.000000e+00
    outer loop
      vertex   3.117652e-01 -9.412498e-01  0.000000e+00
      vertex   1.176548e-02 -6.412498e-01  0.000000e+00
      vertex   1.176525e-02 -9.412497e-01  0.000000e+00
    endloop
  endfacet
  facet normal  7.071069e-01 -2.809789e-07  7.071068e-01
    outer loop
      vertex   3.117652e-01 -9.412498e-01  1.114213e+00
      vertex   3.117653e-01 -6.412497e-01  1.114213e+00
      vertex   1.176548e-02 -6.412498e-01  1.414213e+00
    endloop
  endfacet
  facet normal  7.071066e-01 -5.853730e-07  7.071068e-01
    outer loop
      vertex   3.117652e-01 -9.412498e-01  1.114213e+00
      vertex   1.176548e-02 -6.412498e-01  1.414213e+00
      vertex   1.176525e-02 -9.412497e-01  1.414213e+00
    endloop
  endfacet
  facet normal  1.000000e+00 -3.973641e-07  0.000000e+00
    outer loop
      vertex   3.117652e-01 -9.412498e-01  0.000000e+00
      vertex   3.117653e-01 -6.412497e-01  0.000000e+00
      vertex   3.117653e-01 -6.412497e-01  1.114213e+00
    endloop
  endfacet
  facet normal  1.000000e+00 -3.973641e-07  0.000000e+00
    outer loop
      vertex   3.117652e-01 -9.412498e-01  0.000000e+00
      vertex   3.117653e-01 -6.412497e-01  1.114213e+00
      vertex   3.117652e-01 -9.412498e-01  1.114213e+00
    endloop
  endfacet
  facet normal  1.000000e+00 -7.947287e-07  0.000000e+00
    outer loop
      vertex   1.176525e-02 -9.412497e-01  0.000000e+00
      vertex   1.176548e-02 -6.412498e-01  0.000000e+00
      vertex   1.176548e-02 -6.412498e-01  1.414213e+00
    endloop
  endfacet
  facet normal  1.000000e+00 -7.947287e-07  0.000000e+00
    outer loop
      vertex   1.176525e-02 -9.412497e-01  0.000000e+00
      vertex   1.176548e-02 -6.412498e-01  1.414213e+00
      vertex   1.176525e-02 -9.412497e-01  1.414213e+00
    endloop
  endfacet
  facet normal  3.973643e-07  1.000000e+00  0.000000e+00
    outer loop
      vertex   3.117652e-01 -9.412498e-01  0.000000e+00
      vertex   1.176525e-02 -9.412497e-01  0.000000e+00
      vertex   1.176525e-02 -9.412497e-01  1.414213e+00
    endloop
  endfacet
  facet normal  3.973643e-07  1.000000e+00 -0.000000e+00
    outer loop
      vertex   3.117652e-01 -9.412498e-01  0.000000e+00
      vertex   1.176525e-02 -9.412497e-01  1.414213e+00
      vertex   3.117652e-01 -9.412498e-01  1.114213e+00
    endloop
  endfacet
  facet normal -3.973645e-07  1.000000e+00  0.000000e+00
    outer loop
      vertex   3.117653e-01 -6.412497e-01  0.000000e+00
      vertex   1.176548e-02 -6.412498e-01  0.000000e+00
      vertex   1.176548e-02 -6.412498e-01  1.414213e+00
    endloop
  endfacet
  facet normal -3.973645e-07  1.000000e+00  0.000000e+00
    outer loop
      vertex   3.117653e-01 -6.412497e-01  0.000000e+00
      vertex   1.176548e-02 -6.412498e-01  1.414213e+00
      vertex   3.117653e-01 -6.412497e-01  1.114213e+00
    endloop
  endfacet
  facet normal  0.000000e+00 -0.000000e+00  1.000000e+00
    outer loop
      vertex   3.117650e-01  7.587504e-01  0.000000e+00
      vertex   3.117651e-01  1.058750e+00  0.000000e+00
      vertex   1.176536e-02  1.058750e+00  0.000000e+00
    endloop
  endfacet
  facet normal  0.000000e+00  0.000000e+00  1.000000e+00
    outer loop
      vertex   3.117650e-01  7.587504e-01  0.000000e+00
      vertex   1.176536e-02  1.058750e+00  0.000000e+00
      vertex   1.176501e-02  7.587501e-01  0.000000e+00
    endloop
  endfacet
  facet normal  7.071070e-01 -2.809791e-07  7.071065e-01
    outer loop
      vertex   3.117650e-01  7.587504e-01  1.114213e+00
      vertex   3.117651e-01  1.058750e+00  1.114213e+00
      vertex   1.176536e-02  1.058750e+00  1.414213e+00
    endloop
  endfacet
  facet normal  7.071068e-01 -8.780607e-07  7.071068e-01
    outer loop
      vertex   3.117650e-01  7.587504e-01  1.114213e+00
      vertex   1.176536e-02  1.058750e+00  1.414213e+00
      vertex   1.176501e-02  7.587501e-01  1.414213e+00
    endloop
  endfacet
  facet normal  1.000000e+00 -3.973644e-07  0.000000e+00
    outer loop
      vertex   3.117650e-01  7.587504e-01  0.000000e+00
      vertex   3.117651e-01  1.058750e+00  0.000000e+00
      vertex   3.117651e-01  1.058750e+00  1.114213e+00
    endloop
  endfacet
  facet normal  1.000000e+00 -3.973644e-07  0.000000e+00
    outer loop
      vertex   3.117650e-01  7.587504e-01  0.000000e+00
      vertex   3.117651e-01  1.058750e+00  1.114213e+00
      vertex   3.117650e-01  7.587504e-01  1.114213e+00
    endloop
  endfacet
  facet normal  1.000000e+00 -1.192094e-06  0.000000e+00
    outer loop
      vertex   1.176501e-02  7.587501e-01  0.000000e+00
      vertex   1.176536e-02  1.058750e+00  0.000000e+00
      vertex   1.176536e-02  1.058750e+00  1.414213e+00
    endloop
  endfacet
  facet normal  1.000000e+00 -1.192094e-06  0.000000e+00
    outer loop
      vertex   1.176501e-02  7.587501e-01  0.000000e+00
      vertex   1.176536e-02  1.058750e+00  1.414213e+00
      vertex   1.176501e-02  7.587501e-01  1.414213e+00
    endloop
  endfacet
  facet normal -1.192093e-06  1.000000e+00  0.000000e+00
    outer loop
      vertex   3.117650e-01  7.587504e-01  0.000000e+00
      vertex   1.176501e-02  7.587501e-01  0.000000e+00
      vertex   1.176501e-02  7.587501e-01  1.414213e+00
    endloop
  endfacet
  facet normal -1.192093e-06  1.000000e+00  0.000000e+00
    outer loop
      vertex   3.117650e-01  7.587504e-01  0.000000e+00
      vertex   1.176501e-02  7.587501e-01  1.414213e+00
      vertex   3.117650e-01  7.587504e-01  1.114213e+00
    endloop
  endfacet
  facet normal -2.384188e-06  1.000000e+00  0.000000e+00
    outer loop
      vertex   3.117651e-01  1.058750e+00  0.000000e+00
      vertex   1.176536e-02  1.058750e+00  0.000000e+00
      vertex   1.176536e-02  1.058750e+00  1.414213e+00
    endloop
  endfacet
  facet normal -2.384188e-06  1.000000e+00  0.000000e+00
    outer loop
      vertex   3.117651e-01  1.058750e+00  0.000000e+00
      vertex   1.176536e-02  1.058750e+00  1.414213e+00
      vertex   3.117651e-01  1.058750e+00  1.114213e+00
    endloop
  endfacet
  facet normal -7.071068e-01 -2.107343e-07  7.071069e-01
    outer loop
      vertex  -1.423235e+00  1.058750e+00  0.000000e+00
      vertex  -1.423234e+00 -9.412489e-01  0.000000e+00
      vertex  -9.021159e-03 -9.412496e-01  1.414213e+00
    endloop
  endfacet
  facet normal -7.071066e-01  0.000000e+00  7.071070e-01
    outer loop
      vertex  -1.423235e+00  1.058750e+00  0.000000e+00
      vertex  -9.021159e-03 -9.412496e-01  1.414213e+00
      vertex  -9.021159e-03  1.058750e+00  1.414213e+00
    endloop
  endfacet
  facet normal -7.071068e-01  0.000000e+00  7.071068e-01
    outer loop
      vertex  -1.635366e+00  1.058749e+00  2.121320e-01
      vertex  -1.635366e+00 -9.412500e-01  2.121320e-01
      vertex  -2.211531e-01 -9.412496e-01  1.626345e+00
    endloop
  endfacet
  facet normal -7.071068e-01 -8.940700e-08  7.071068e-01
    outer loop
      vertex  -1.635366e+00  1.058749e+00  2.121320e-01
      vertex  -2.211531e-01 -9.412496e-01  1.626345e+00
      vertex  -2.211534e-01  1.058751e+00  1.626345e+00
    endloop
  endfacet
  facet normal  7.071068e-01  2.107344e-07  7.071067e-01
    outer loop
      vertex  -1.423235e+00  1.058750e+00  0.000000e+00
      vertex  -1.635366e+00 -9.412500e-01  2.121320e-01
      vertex  -1.423234e+00 -9.412489e-01  0.000000e+00
    endloop
  endfacet
  facet normal  7.071078e-01  0.000000e+00  7.071057e-01
    outer loop
      vertex  -1.423235e+00  1.058750e+00  0.000000e+00
      vertex  -1.635366e+00  1.058749e+00  2.121320e-01
      vertex  -1.635366e+00 -9.412500e-01  2.121320e-01
    endloop
  endfacet
  facet normal -7.071070e-01 -0.000000e+00 -7.071066e-01
    outer loop
      vertex  -9.021159e-03  1.058750e+00  1.414213e+00
      vertex  -9.021159e-03 -9.412496e-01  1.414213e+00
      vertex  -2.211531e-01 -9.412496e-01  1.626345e+00
    endloop
  endfacet
  facet normal -7.071066e-01 -8.071457e-08 -7.071070e-01
    outer loop
      vertex  -9.021159e-03  1.058750e+00  1.414213e+00
      vertex  -2.211531e-01 -9.412496e-01  1.626345e+00
      vertex  -2.211534e-01  1.058751e+00  1.626345e+00
    endloop
  endfacet
  facet normal -1.081768e-06 -1.000000e+00  1.166063e-06
    outer loop
      vertex  -1.423235e+00  1.058750e+00  0.000000e+00
      vertex  -9.021159e-03  1.058750e+00  1.414213e+00
      vertex  -2.211534e-01  1.058751e+00  1.626345e+00
    endloop
  endfacet
  facet normal  1.826367e-06 -1.000000e+00 -9.834291e-07
    outer loop
      vertex  -1.423235e+00  1.058750e+00  0.000000e+00
      vertex  -2.211534e-01  1.058751e+00  1.626345e+00
      vertex  -1.635366e+00  1.058749e+00  2.121320e-01
    endloop
  endfacet
  facet normal -2.528813e-07 -1.000000e+00 -2.528811e-07
    outer loop
      vertex  -1.423234e+00 -9.412489e-01  0.000000e+00
      vertex  -9.021159e-03 -9.412496e-01  1.414213e+00
      vertex  -2.211531e-01 -9.412496e-01  1.626345e+00
    endloop
  endfacet
  facet normal  2.655252e-06 -1.000000e+00 -2.402371e-06
    outer loop
      vertex  -1.423234e+00 -9.412489e-01  0.000000e+00
      vertex  -2.211531e-01 -9.412496e-01  1.626345e+00
      vertex  -1.635366e+00 -9.412500e-01  2.121320e-01
    endloop
  endfacet
  facet normal  0.000000e+00  0.000000e+00  1.000000e+00
    outer loop
      vertex  -3.090214e-01  1.058750e+00  0.000000e+00
      vertex  -3.090216e-01  7.587503e-01  0.000000e+00
      vertex  -9.021636e-03  7.587509e-01  0.000000e+00
    endloop
  endfacet
  facet normal  0.000000e+00  0.000000e+00  1.000000e+00
    outer loop
      vertex  -3.090214e-01  1.058750e+00  0.000000e+00
      vertex  -9.021636e-03  7.587509e-01  0.000000e+00
      vertex  -9.021159e-03  1.058750e+00  0.000000e+00
    endloop
  endfacet
  facet normal -7.071068e-01  2.809790e-07  7.071068e-01
    outer loop
      vertex  -3.090214e-01  1.058750e+00  1.114213e+00
      vertex  -3.090216e-01  7.587503e-01  1.114213e+00
      vertex  -9.021636e-03  7.587509e-01  1.414213e+00
    endloop
  endfacet
  facet normal -7.071064e-01  1.112211e-06  7.071071e-01
    outer loop
      vertex  -3.090214e-01  1.058750e+00  1.114213e+00
      vertex  -9.021636e-03  7.587509e-01  1.414213e+00
      vertex  -9.021159e-03  1.058750e+00  1.414213e+00
    endloop
  endfacet
  facet normal -1.000000e+00  3.973644e-07  0.000000e+00
    outer loop
      vertex  -3.090214e-01  1.058750e+00  0.000000e+00
      vertex  -3.090216e-01  7.587503e-01  0.000000e+00
      vertex  -3.090216e-01  7.587503e-01  1.114213e+00
    endloop
  endfacet
  facet normal -1.000000e+00  3.973644e-07  0.000000e+00
    outer loop
      vertex  -3.090214e-01  1.058750e+00  0.000000e+00
      vertex  -3.090216e-01  7.587503e-01  1.114213e+00
      vertex  -3.090214e-01  1.058750e+00  1.114213e+00
    endloop
  endfacet
  facet normal -1.000000e+00  1.589461e-06  0.000000e+00
    outer loop
      vertex  -9.021159e-03  1.058750e+00  0.000000e+00
      vertex  -9.021636e-03  7.587509e-01  0.000000e+00
      vertex  -9.021636e-03  7.587509e-01  1.414213e+00
    endloop
  endfacet
  facet normal -1.000000e+00  1.589461e-06  0.000000e+00
    outer loop
      vertex  -9.021159e-03  1.058750e+00  0.000000e+00
      vertex  -9.021636e-03  7.587509e-01  1.414213e+00
      vertex  -9.021159e-03  1.058750e+00  1.414213e+00
    endloop
  endfacet
  facet normal -3.973639e-07 -1.000000e+00  0.000000e+00
    outer loop
      vertex  -3.090214e-01  1.058750e+00  0.000000e+00
      vertex  -9.021159e-03  1.058750e+00  0.000000e+00
      vertex  -9.021159e-03  1.058750e+00  1.414213e+00
    endloop
  endfacet
  facet normal -3.973639e-07 -1.000000e+00  0.000000e+00
    outer loop
      vertex  -3.090214e-01  1.058750e+00  0.000000e+00
      vertex  -9.021159e-03  1.058750e+00  1.414213e+00
      vertex  -3.090214e-01  1.058750e+00  1.114213e+00
    endloop
  endfacet
  facet normal  1.986822e-06 -1.000000e+00  0.000000e+00
    outer loop
      vertex  -3.090216e-01  7.587503e-01  0.000000e+00
      vertex  -9.021636e-03  7.587509e-01  0.000000e+00
      vertex  -9.021636e-03  7.587509e-01  1.414213e+00
    endloop
  endfacet
  facet normal  1.986822e-06 -1.000000e+00  0.000000e+00
    outer loop
      vertex  -3.090216e-01  7.587503e-01  0.000000e+00
      vertex  -9.021636e-03  7.587509e-01  1.414213e+00
      vertex  -3.090216e-01  7.587503e-01  1.114213e+00
    endloop
  endfacet
  facet normal  0.000000e+00  0.000000e+00  1.000000e+00
    outer loop
      vertex  -3.090207e-01 -6.412494e-01  0.000000e+00
      vertex  -3.090208e-01 -9.412496e-01  0.000000e+00
      vertex  -9.021159e-03 -9.412496e-01  0.000000e+00
    endloop
  endfacet
  facet normal -0.000000e+00  0.000000e+00  1.000000e+00
    outer loop
      vertex  -3.090207e-01 -6.412494e-01  0.000000e+00
      vertex  -9.021159e-03 -9.412496e-01  0.000000e+00
      vertex  -9.020921e-03 -6.412492e-01  0.000000e+00
    endloop
  endfacet
  facet normal -7.071070e-01  2.809789e-07  7.071064e-01
    outer loop
      vertex  -3.090207e-01 -6.412494e-01  1.114213e+00
      vertex  -3.090208e-01 -9.412496e-01  1.114213e+00
      vertex  -9.021159e-03 -9.412496e-01  1.414213e+00
    endloop
  endfacet
  facet normal -7.071070e-01  5.853723e-07  7.071066e-01
    outer loop
      vertex  -3.090207e-01 -6.412494e-01  1.114213e+00
      vertex  -9.021159e-03 -9.412496e-01  1.414213e+00
      vertex  -9.020921e-03 -6.412492e-01  1.414213e+00
    endloop
  endfacet
  facet normal -1.000000e+00  3.973641e-07  0.000000e+00
    outer loop
      vertex  -3.090207e-01 -6.412494e-01  0.000000e+00
      vertex  -3.090208e-01 -9.412496e-01  0.000000e+00
      vertex  -3.090208e-01 -9.412496e-01  1.114213e+00
    endloop
  endfacet
  facet normal -1.000000e+00  3.973641e-07  0.000000e+00
    outer loop
      vertex  -3.090207e-01 -6.412494e-01  0.000000e+00
      vertex  -3.090208e-01 -9.412496e-01  1.114213e+00
      vertex  -3.090207e-01 -6.412494e-01  1.114213e+00
    endloop
  endfacet
  facet normal -1.000000e+00  7.947274e-07  0.000000e+00
    outer loop
      vertex  -9.020921e-03 -6.412492e-01  0.000000e+00
      vertex  -9.021159e-03 -9.412496e-01  0.000000e+00
      vertex  -9.021159e-03 -9.412496e-01  1.414213e+00
    endloop
  endfacet
  facet normal -1.000000e+00  7.947274e-07  0.000000e+00
    outer loop
      vertex  -9.020921e-03 -6.412492e-01  0.000000e+00
      vertex  -9.021159e-03 -9.412496e-01  1.414213e+00
      vertex  -9.020921e-03 -6.412492e-01  1.414213e+00
    endloop
  endfacet
  facet normal  7.947291e-07 -1.000000e+00  0.000000e+00
    outer loop
      vertex  -3.090207e-01 -6.412494e-01  0.000000e+00
      vertex  -9.020921e-03 -6.412492e-01  0.000000e+00
      vertex  -9.020921e-03 -6.412492e-01  1.414213e+00
    endloop
  endfacet
  facet normal  7.947291e-07 -1.000000e+00  0.000000e+00
    outer loop
      vertex  -3.090207e-01 -6.412494e-01  0.000000e+00
      vertex  -9.020921e-03 -6.412492e-01  1.414213e+00
      vertex  -3.090207e-01 -6.412494e-01  1.114213e+00
    endloop
  endfacet
  facet normal  0.000000e+00 -1.000000e+00  0.000000e+00
    outer loop
      vertex  -3.090208e-01 -9.412496e-01  0.000000e+00
      vertex  -9.021159e-03 -9.412496e-01  0.000000e+00
      vertex  -9.021159e-03 -9.412496e-01  1.414213e+00
    endloop
  endfacet
  facet normal  0.000000e+00 -1.000000e+00  0.000000e+00
    outer loop
      vertex  -3.090208e-01 -9.412496e-01  0.000000e+00
      vertex  -9.021159e-03 -9.412496e-01  1.414213e+00
      vertex  -3.090208e-01 -9.412496e-01  1.114213e+00
    endloop
  endfacet
endsolid vcg
